<svg width="1600" height="1600" xmlns="http://www.w3.org/2000/svg">
 <metadata id="metadata8">image/svg+xml</metadata>

 <g>
  <title>background</title>
  <rect fill="none" id="canvas_background" height="402" width="582" y="-1" x="-1"/>
 </g>
 <g>
  <title>Layer 1</title>
  <path fill="#5e6061" fill-rule="nonzero" d="m737.745326,1339.693336l-119.477332,-947.69999l5.628,-0.709333l119.477332,947.702657l-5.628,0.706667" id="path16"/>
  <path fill="#5e6061" fill-rule="nonzero" d="m1025.62799,1233.228004l-34.554666,-882.807991l5.668,-0.221333l34.556,882.807991l-5.669333,0.221333" id="path18"/>
  <path fill="#fbd8b5" fill-rule="nonzero" d="m957.498657,1060.552005c132.237332,-48.072 122.053332,86.211999 122.053332,86.211999c-0.272,1.821333 -1.321333,13.293333 4.045333,13.766667c2.566667,0.225333 4.22,-1.614667 5.258667,-3.796c0.508,2.281333 1.622667,4.405333 4.010667,4.624c2.341333,0.2 3.904,-1.290667 4.954667,-3.198667c0.569333,2.02 1.684,3.781333 3.846667,3.970667c2.578667,0.234667 4.217333,-1.613333 5.264,-3.790667c0.504,2.286667 1.616,4.404 4.014667,4.62c5.006667,0.432 6.845333,-2.821333 6.873333,-9.462667c0,0 6.481333,-176.139998 -161.963998,-123.553332l1.642667,30.608" id="path20"/>
  <path fill="#fbd8b5" fill-rule="nonzero" d="m665.563993,1098.846672c-140.443999,-8.545333 -92.550666,117.319999 -92.550666,117.319999c0.778667,1.669333 5.041333,12.370667 0.030667,14.348c-2.397333,0.945333 -4.504,-0.350667 -6.12,-2.146667c0.161333,2.332 -0.304,4.684 -2.532,5.573333c-2.188,0.856 -4.110667,-0.129333 -5.66,-1.661333c0.028,2.098667 -0.541333,4.104 -2.561333,4.9c-2.404,0.957333 -4.501333,-0.349333 -6.122667,-2.14c0.165333,2.334667 -0.298667,4.681333 -2.537333,5.570667c-4.677333,1.836 -7.365333,-0.762667 -9.277333,-7.122667c0,0 -56.227999,-167.049332 120.215999,-164.455998l7.114667,29.814666" id="path22"/>
  <path fill="#4e2e22" fill-rule="nonzero" d="m967.23199,1225.41867l72.379999,-2.401333l35.669333,66.210666c0,0 11.642667,-42.312 38.792,-32.737333c38.250666,13.493333 -42.842666,50.646666 -42.842666,50.646666l-42.764,-64.391999l-62.562666,7.302667c0,0 -100.931999,36.478666 -225.557331,33.848l17.228,55.450666l-24.032,61.253333c0,0 33.290666,-30.013333 44.752,0c15.329333,40.16 -61.123999,13.68 -61.123999,13.68l17.277333,-76.626666l-26.801333,-70.934666c0,0 94.659999,-37.357333 259.585331,-41.3" id="path24"/>
  <path fill="#fbd8b5" fill-rule="nonzero" d="m956.92399,1027.474672c0,0 -4.364,-323.495997 -243.717331,-189.347998c0,0 -72.655999,67.043999 -55.419999,230.378664c250.430664,20.886666 299.13733,-41.030666 299.13733,-41.030666" id="path26"/>
  <path fill="#4e2e22" fill-rule="nonzero" d="m959.474657,713.764009c0,0 21.48,205.854665 -231.395998,175.942665l-9.157333,61.895999c0,0 -29.550666,-21.62 -34.308,8.284c-4.762667,29.912 29.821333,13.492 29.821333,13.492c0,0 -22.66,71.751999 -56.647999,95.126666c1.517333,2.261333 -110.941332,-300.838664 19.005333,-272.729331c0,0 12.58,-59.478666 93.987999,-71.477333c84.369332,-12.436 129.610665,88.271999 188.694665,-10.534667" id="path28"/>
  <path fill="#f8f8f8" fill-rule="nonzero" d="m956.92399,1027.474672l10.308,197.943998c0,0 -98.950666,38.714666 -259.585331,41.3l-49.859999,-198.213331c0,0 202.787998,4.873333 299.13733,-41.030666" id="path30"/>
  <path fill="#4e2e22" fill-rule="nonzero" d="m883.574658,1074.056005l7.333333,11.106667l-7.470667,14.552l31.938666,82.133333l-26.286666,38.16l-32.988,-28.869333l10.26,-88.405332l-11.584,-13.550667l4.492,-10.054667l24.305333,-5.072" id="path32"/>
  <path fill="#f8f8f8" fill-rule="nonzero" d="m665.563993,1098.846672l-7.114667,-29.814666c-15.974667,-0.234667 -30.017333,0.937333 -42.392,3.233333l8.738667,28.481333c11.413333,-2.098667 24.873333,-2.866667 40.768,-1.9" id="path34"/>
  <path fill="#f8f8f8" fill-rule="nonzero" d="m955.85599,1029.944006l1.642667,30.608c12.068,-4.386667 22.937333,-7.24 32.749333,-8.830667l-1.058667,-29.637333c-10.278667,1.570667 -21.349333,4.118667 -33.333333,7.86" id="path36"/>
  <path fill="#4e2e22" fill-rule="nonzero" d="m813.125325,972.106673l-6.124,8.633333l-51.721333,-36.688l6.124,-8.634667l51.721333,36.689333" id="path38"/>
  <path fill="#4e2e22" fill-rule="nonzero" d="m798.785325,929.550673l7.521333,5.334667l-36.688,51.722666l-7.521333,-5.336l36.688,-51.721333" id="path40"/>
  <path fill="#4e2e22" fill-rule="nonzero" d="m924.237324,952.34934l-5.485333,7.732l-51.721333,-36.689333l5.484,-7.732l51.722666,36.689333" id="path42"/>
  <path fill="#4e2e22" fill-rule="nonzero" d="m909.711991,908.98534l8.530667,6.049333l-36.689333,51.721333l-8.529333,-6.049333l36.688,-51.721333" id="path44"/>
  <path fill="#4e2e22" fill-rule="nonzero" d="m814.395992,1032.641339c0,0 -3.081333,-27.873333 38.033333,-33.448c41.113333,-5.574667 43.204,28.281333 43.204,28.281333c0,0 -51.677333,10.045333 -81.237333,5.166667" id="path46"/>
  <path fill="#5e6061" fill-rule="nonzero" d="m585.514661,1091.797338l-38.704,-483.574662l5.653333,-0.452l38.704,483.573328l-5.653333,0.453333" id="path48"/>
  <path fill="#5e6061" fill-rule="nonzero" d="m1039.678656,1041.564006l-5.649333,-0.492l40.764,-467.922662l5.650667,0.493333l-40.765333,467.921329" id="path50"/>
  <path fill="#fbd8b5" fill-rule="nonzero" d="m561.737328,554.401344c16.618666,68.213333 62.791999,103.485332 95.537332,88.458666c54.334666,-24.934666 -16.096,-74.862666 -22.018666,-102.335999c-2.992,-13.874667 2.945333,-27.304 15.122667,-40.02l-89.617332,49.329333c0.293333,1.509333 0.6,3.025333 0.976,4.568" id="path52"/>
  <path fill="#c2955c" fill-rule="nonzero" d="m510.933328,567.806677l464.895995,-255.893331l62.315999,12.053333l-450.191995,268.086664l-77.019999,-24.246666" id="path54"/>
  <path fill="#a17445" fill-rule="nonzero" d="m588.341327,648.082676l-0.388,-56.029333l450.191995,-268.086664l1.573333,45.301333l-451.377329,278.814664" id="path56"/>
  <path fill="#c2955c" fill-rule="nonzero" d="m1121.155989,528.216011l-478.910662,-177.906665l-57.513333,19.842666l468.059995,188.453331l68.363999,-30.389333" id="path58"/>
  <path fill="#a17445" fill-rule="nonzero" d="m1049.842656,607.99601l2.949333,-49.390666l-468.059995,-188.453331l-2.342667,39.893333l467.453329,197.950665" id="path60"/>
  <path fill="#936942" fill-rule="nonzero" d="m510.933328,567.806677l1.961333,51.293333l75.446666,28.982666l-0.388,-56.029333l-77.019999,-24.246666" id="path62"/>
  <path fill="#936942" fill-rule="nonzero" d="m1121.155989,528.216011l-0.724,44.978666l-70.589333,34.801333l2.949333,-49.390666l68.363999,-30.389333" id="path64"/>
  <path fill="#fbd8b5" fill-rule="nonzero" d="m940.861324,342.337346c-45.549333,-4.501333 -136.118665,11.473333 -136.118665,11.473333c25.846666,-12.957333 51.319999,-22.734666 73.825333,-27.125333c56.755999,-11.076 100.363999,20.368 112.767999,-4.097333c20.34,-40.121333 -39.786666,-58.801333 -126.586665,-32.9c-36.249333,10.816 -83.002666,48.362666 -83.002666,48.362666c9.98,-18.554666 25.973333,-33.041333 40.296,-42.665333c47.118666,-31.678666 89.746666,-16.842666 72.379999,-53.945333c-12.862667,-27.466666 -66.826666,-6.826667 -107.785332,29.264c-35.132,30.956 -45.574666,55.199999 -45.574666,55.199999l-158.447998,-55.374666l-41.349333,150.539998l83.537332,16.506666c-27.465333,10.448 -75.305333,44.916 -64.041333,102.803999l89.617332,-49.329333c15.08,-15.746667 39.738666,-30.397333 68.978666,-43.430666c55.742666,-24.845333 155.627998,-7.864 193.707998,16.598666c26.9,17.282666 -10.257333,86.370666 73.601333,90.251999c36.521333,1.690667 32.208,-94.630666 -25,-129.981332c-41.957333,-25.925333 -161.017332,-32.077333 -161.017332,-32.077333c33.038666,-10.961333 104.047999,-0.054667 134.238665,3.837333c66.723999,8.604 69.037333,66.945333 107.823999,39.341333c48.509333,-34.525333 -39.585333,-87.102666 -101.850666,-93.253332" id="path66"/>
  <path fill="#f9fafa" fill-rule="nonzero" d="m646.00666,269.33468l-69.333333,174.593332l-96.274666,-30.688l58.061333,-184.546665l107.546666,40.641333" id="path68"/>
  <path fill="#2a231b" fill-rule="nonzero" d="m614.621327,241.213347l-614.621327,-241.213331l0,301.82133l539.551995,141.918665l75.069333,-202.526665" id="path70"/>
  <path fill="#f9fafa" fill-rule="nonzero" d="m519.265328,267.05068c3.228,11.825333 15.433333,18.794666 27.26,15.562667c11.825333,-3.226667 18.790666,-15.429333 15.562667,-27.253333c-3.226667,-11.826667 -15.432,-18.8 -27.254666,-15.573333c-11.825333,3.226667 -18.796,15.44 -15.568,27.264" id="path72"/>
  <path fill="#f9fafa" fill-rule="nonzero" d="m433.995996,231.733347c3.232,11.826667 15.434667,18.786666 27.26,15.56c11.822667,-3.226667 18.796,-15.44 15.568,-27.253333c-3.226667,-11.826667 -15.434667,-18.8 -27.258666,-15.573333c-11.828,3.226667 -18.796,15.44 -15.569333,27.266666" id="path74"/>
  <path fill="#eeeeee" fill-rule="nonzero" d="m836.734658,1457.293335c-167.579998,0 -303.427997,-20.32 -303.427997,-45.373333c0,-19.28 80.463999,-35.76 193.938665,-42.333333l-10.074667,44.693333c0,0 24.728,8.56 43.237333,8.56c14.036,0 24.497333,-4.92 17.886666,-22.24c-3.821333,-10 -10.065333,-13.333333 -16.696,-13.333333c-13.258667,0 -28.056,13.333333 -28.056,13.333333l12.552,-31.986666c28.625333,-1.346667 59.065333,-2.066667 90.639999,-2.066667c167.578665,0 303.427997,20.32 303.427997,45.373333c0,25.053333 -135.849332,45.373333 -303.427997,45.373333" id="path76"/>
  <path fill="#462a1f" fill-rule="nonzero" d="m760.407992,1422.840002c-18.509333,0 -43.237333,-8.56 -43.237333,-8.56l10.074667,-44.693333c6.182667,-0.346667 12.48,-0.68 18.849333,-0.973333l-12.552,31.986666c0,0 14.797333,-13.333333 28.056,-13.333333c6.630667,0 12.874667,3.333333 16.696,13.333333c6.610667,17.32 -3.850667,22.24 -17.886666,22.24" id="path78"/>
 </g>
</svg>