<svg width="200" height="225" xmlns="http://www.w3.org/2000/svg">
 <metadata id="metadata8">image/svg+xml</metadata>

 <g>
  <title>background</title>
  <rect fill="none" id="canvas_background" height="227" width="202" y="-1" x="-1"/>
 </g>
 <g>
  <title>Layer 1</title>
  <path fill="#7c554c" fill-rule="nonzero" d="m87.03672,25.932288l-5.147785,-7.259834l-16.222089,-17.121214l70.888371,0l-16.14703,17.501162l-33.371467,6.879886" id="path152"/>
  <path fill="#7c554c" fill-rule="nonzero" d="m199.68751,155.788181c0,55.277736 -44.631855,67.66059 -99.687505,67.66059c-55.05565,0 -99.687505,-12.382854 -99.687505,-67.66059c0,-55.277736 86.269176,-132.51867 99.687505,-132.51867c14.61927,0 99.687505,77.240934 99.687505,132.51867" id="path154"/>
  <path fill="#bfbcba" fill-rule="nonzero" d="m118.109511,33.192122l-36.220575,0c-3.993755,0 -7.230667,-3.249969 -7.230667,-7.259834l0,0c0,-4.009865 3.236912,-7.259834 7.230667,-7.259834l36.220575,0c3.993755,0 7.232231,3.249969 7.232231,7.259834l0,0c0,4.009865 -3.238476,7.259834 -7.232231,7.259834" id="path156"/>
 </g>
</svg>