<svg width="1500" height="1500" xmlns="http://www.w3.org/2000/svg">
 <metadata id="metadata8">image/svg+xml</metadata>

 <g>
  <title>background</title>
  <rect fill="none" id="canvas_background" height="402" width="582" y="-1" x="-1"/>
 </g>
 <g>
  <title>Layer 1</title>
  <path fill="#dddddd" fill-rule="nonzero" d="m1254.725019,1270.274997c0,27.1625 -88.791251,49.187501 -198.316253,49.187501c-109.525002,0 -198.312503,-22.025 -198.312503,-49.187501c0,-27.17 88.787501,-49.192501 198.312503,-49.192501c109.525002,0 198.316253,22.0225 198.316253,49.192501" id="path16"/>
  <path fill="#aaaaaa" fill-rule="nonzero" d="m869.157513,1286.474997c27.005,19.2 100.617501,32.9875 187.251253,32.9875c86.635001,0 160.247502,-13.7875 187.252503,-32.9875c-27.005,-19.2125 -100.617501,-32.9875 -187.252503,-32.9875c-86.633751,0 -160.246252,13.775 -187.251253,32.9875" id="path18"/>
  <path fill="#cccccc" fill-rule="nonzero" d="m1095.995016,1166.991245c0,0 30.77375,-29.30375 70.860001,-29.30375c40.087501,0 70.861251,29.30375 70.861251,29.30375l-141.721252,0" id="path20"/>
  <path fill="#e9e8e7" fill-rule="nonzero" d="m1093.413766,1056.978743l-14.7375,71.407501c-0.71875,3.4825 0.09875,7.105 2.245,9.94l30.44375,40.243751c1.77125,2.3425 4.24625,3.89875 6.94,4.55l27.4575,-113.473752l-52.348751,-12.6675" id="path22"/>
  <path fill="#d5d5d3" fill-rule="nonzero" d="m1145.762517,1069.646244l-27.4575,113.473752c2.6925,0.65125 5.605,0.39875 8.25125,-0.87375l45.475001,-21.8725c3.205,-1.54125 5.58875,-4.38875 6.54125,-7.815l19.53875,-70.246251l-52.348751,-12.66625" id="path24"/>
  <path fill="#d5d5d3" fill-rule="nonzero" d="m1163.361267,1040.737493l-20.03375,-4.84875l-7.5825,31.3325l20.035,4.84875l7.58125,-31.3325" id="path26"/>
  <path fill="#6f4324" fill-rule="nonzero" d="m1208.113768,855.79249l-20.035,-4.8475l-44.751251,184.943753l20.03375,4.84875l44.752501,-184.945003" id="path28"/>
  <path fill="#9b9b9a" fill-rule="nonzero" d="m1154.287517,1045.724993c-0.345,1.4275 -1.7825,2.305 -3.21125,1.95875c-1.4275,-0.345 -2.305,-1.7825 -1.95875,-3.21c0.345,-1.4275 1.7825,-2.305 3.21,-1.96c1.42875,0.34625 2.305,1.78375 1.96,3.21125" id="path30"/>
  <path fill="#9b9b9a" fill-rule="nonzero" d="m1150.091267,1063.066243c-0.345,1.4275 -1.78375,2.305 -3.21125,1.96c-1.4275,-0.345 -2.305,-1.7825 -1.95875,-3.21125c0.345,-1.4275 1.7825,-2.305 3.21,-1.95875c1.4275,0.345 2.305,1.7825 1.96,3.21" id="path32"/>
  <path fill="#6f4324" fill-rule="nonzero" d="m1220.938768,846.59249c-5.88875,4.015 -13.2575,4.99125 -21.90375,2.89875c-8.63125,-2.08875 -14.73375,-6.31375 -18.13625,-12.55875c-2.86375,-5.25375 -3.51875,-11.28375 -3.315,-16.57625l53.866251,13.03375c-2.23,4.78125 -5.56125,9.82625 -10.51125,13.2025zm22.52625,-25.30375l-71.051251,-17.1925c-0.29625,0.83875 -7.15125,20.76125 1.45375,36.610001c4.52125,8.33 12.36,13.895 23.29,16.54c10.9325,2.645 20.4475,1.27875 28.27625,-4.0625c14.89875,-10.16125 17.91125,-31.0125 18.03125,-31.895" id="path34"/>
  <path fill="#dddddd" fill-rule="nonzero" d="m1043.873766,1184.907495c0,0 37.631251,-35.833751 86.652501,-35.833751c49.020001,0 86.652501,35.833751 86.652501,35.833751l-173.305003,0" id="path36"/>
  <path fill="#cccccc" fill-rule="nonzero" d="m1274.350019,1331.774997c0,0 18.1875,-37.162501 69.025001,-37.162501c50.850001,0 73.662501,37.162501 73.662501,37.162501l-142.687502,0" id="path38"/>
  <path fill="#dddddd" fill-rule="nonzero" d="m1179.257518,1354.499998c0,0 47.726251,-45.450001 109.892502,-45.450001c62.175001,0 109.900002,45.450001 109.900002,45.450001l-219.792503,0" id="path40"/>
  <path fill="#cccccc" fill-rule="nonzero" d="m954.142514,1373.549998c0,0 -9.45,-42.650001 -67.800001,-42.650001c-58.347501,0 -71.011251,42.650001 -71.011251,42.650001l138.811252,0" id="path42"/>
  <path fill="#dddddd" fill-rule="nonzero" d="m1065.351266,1399.624999c0,0 -54.775001,-52.150001 -126.127502,-52.150001c-71.353751,0 -126.128752,52.150001 -126.128752,52.150001l252.256254,0" id="path44"/>
  <path fill="#dddddd" fill-rule="nonzero" d="m870.555013,1228.104996l-175.507503,0l-26.6075,-27.145l66.157501,-24.30375l184.573753,0l22.54875,12.47125l-71.165001,38.977501" id="path46"/>
  <path fill="#b2901d" fill-rule="nonzero" d="m749.917511,926.886241l-1.235,-8.04c-0.56875,-3.70125 2.2475,-6.7 6.29,-6.7l62.575001,0c4.04375,0 7.78125,2.99875 8.35,6.7l1.235,8.04c0.5675,3.7 -2.24875,6.7 -6.29125,6.7l-62.575001,0c-4.0425,0 -7.78125,-3 -8.34875,-6.7zm117.833752,-37.380001l-169.935003,0c-4.0425,0 -6.85875,3 -6.29125,6.7l43.072501,280.450004l48.927501,0l5.14,-24.8025c0.56875,-2.745 3.08625,-4.6 6.24375,-4.6l54.920001,0c3.15875,0 6.245,1.855 7.6575,4.6l12.7575,24.8025l48.927501,0l-43.071251,-280.450004c-0.56875,-3.7 -4.30625,-6.7 -8.34875,-6.7" id="path48"/>
  <path fill="#f2be0b" fill-rule="nonzero" d="m805.168762,937.317492l-62.575001,0c-4.0425,0 -7.1575,-3.25375 -6.95625,-7.2675l0.435,-8.72125c0.2,-4.01375 3.64,-7.26625 7.6825,-7.26625l62.575001,0c4.0425,0 7.1575,3.2525 6.9575,7.26625l-0.43625,8.72125c-0.2,4.01375 -3.63875,7.2675 -7.6825,7.2675zm-121.551252,-40.543751l-15.1775,304.186255l48.927501,0l10.29125,-26.9025c1.13875,-2.9775 4.04125,-4.9875 7.2,-4.9875l54.920001,0c3.15875,0 5.86,2.01 6.70125,4.9875l7.6075,26.9025l48.927501,0l15.17625,-304.186255c0.20125,-4.01375 -2.91375,-7.2675 -6.9575,-7.2675l-169.933753,0c-4.0425,0 -7.4825,3.25375 -7.6825,7.2675" id="path50"/>
  <path fill="#b2901d" fill-rule="nonzero" d="m705.358761,959.844992c-2.825,0 -5.2375,2.2825 -5.3775,5.0875l-7.59125,152.127502c-0.14,2.80375 2.045,5.08625 4.87,5.08625l134.800002,0c2.825,0 5.2375,-2.2825 5.3775,-5.08625l7.59,-152.127502c0.14,-2.805 -2.045,-5.0875 -4.87,-5.0875l-134.798752,0zm126.483752,166.662502l-134.800002,0c-5.24625,0 -9.30375,-4.23875 -9.04375,-9.4475l7.59,-152.127502c0.26,-5.21 4.74,-9.4475 9.9875,-9.4475l134.798752,0c5.2475,0 9.305,4.2375 9.045,9.4475l-7.59125,152.127502c-0.26,5.20875 -4.74,9.4475 -9.98625,9.4475" id="path52"/>
  <path fill="#211c1d" fill-rule="nonzero" d="m770.883761,997.407493c-0.635,0 -2.225,0.17625 -3.26125,1.8175l-47.288751,74.891251c-1.035,1.63875 -0.47125,3.08625 -0.18125,3.6325c0.29,0.54625 1.1725,1.8175 3.07875,1.8175l87.105001,0c1.9075,0 2.91625,-1.27125 3.26,-1.8175c0.345,-0.54625 1.05375,-1.9925 0.18125,-3.6325l-39.815001,-74.892501c-0.8725,-1.64 -2.4425,-1.81625 -3.07875,-1.81625zm39.090001,89.426251l-87.105001,0c-3.97,0 -7.4225,-2.0375 -9.23625,-5.45125c-1.815,-3.41375 -1.61125,-7.48875 0.54375,-10.9l47.288751,-74.892501c2.15625,-3.4125 5.8125,-5.45 9.78125,-5.45c3.97,0 7.4225,2.0375 9.23625,5.45l39.816251,74.892501c1.81375,3.41125 1.61125,7.48625 -0.5425,10.9c-2.15625,3.41375 -5.8125,5.45125 -9.7825,5.45125" id="path54"/>
  <path fill="#211c1d" fill-rule="nonzero" d="m767.776261,1060.751243c1.94,0 3.5675,0.68625 4.88125,2.05875c1.31375,1.37375 1.92375,3.0225 1.8275,4.94875c-0.09625,1.925 -0.87,3.575 -2.32125,4.9475c-1.45125,1.3725 -3.1475,2.06 -5.08625,2.06c-1.94125,0 -3.56,-0.6875 -4.855,-2.06c-1.29625,-1.3725 -1.8975,-3.0225 -1.80125,-4.9475c0.09625,-1.92625 0.8525,-3.575 2.2675,-4.94875c1.41625,-1.3725 3.11125,-2.05875 5.0875,-2.05875zm1.2225,-6.15375l-1.885,0c-0.05125,-3.28 -0.51875,-7.23875 -1.4025,-11.87625l-1.7925,-9.415c-1.08625,-5.59875 -1.56625,-9.62875 -1.44375,-12.09c0.11,-2.21 0.8625,-3.99375 2.26,-5.34875c1.39625,-1.355 3.17375,-2.0325 5.32875,-2.0325c2.04625,0 3.7275,0.68625 5.0425,2.05875c1.31375,1.37375 1.92,3.1125 1.815,5.21625c-0.10875,2.175 -1.03,6.24125 -2.76375,12.19625l-2.78625,9.415c-0.99375,3.3175 -1.78375,7.27625 -2.3725,11.87625" id="path56"/>
  <path fill="#dddddd" fill-rule="nonzero" d="m338.018755,1304.812497c-97.291251,0 -176.162503,-9.2125 -176.162503,-20.5875c0,-11.375 78.871251,-20.6 176.162503,-20.6c97.292501,0 176.162503,9.225 176.162503,20.6c0,11.375 -78.870001,20.5875 -176.162503,20.5875" id="path58"/>
  <path fill="#fbd8b5" fill-rule="nonzero" d="m467.761257,876.563741c-2.4775,0.89125 -2.52375,3.96375 -2.29125,5.84c-0.4325,-1.88625 -1.63375,-5.05 -4.78625,-4.25c-3.63375,0.9225 -3.175,5.685 -2.89625,7.35125l-0.03875,0.01c-0.44375,-1.5225 -1.91875,-5.51375 -4.97375,-4.69125c-3.0325,0.8175 -2.2975,5.0775 -1.8975,6.705c-0.52375,-1.74125 -2.22625,-6.2075 -5.86375,-5.07c-2.7225,0.85125 -0.39,6.9125 -0.39,6.9125c52.116251,109.005002 -37.923751,86.287501 -37.923751,86.287501l3.9775,28.31125c123.096252,5.6675 65.245001,-111.027502 61.247501,-122.057502c0,0 -1.39875,-6.345 -4.16375,-5.34875" id="path60"/>
  <path fill="#f8f8f8" fill-rule="nonzero" d="m406.700006,975.658742l3.9775,28.31125c5.02,0.23125 9.71,0.23875 14.145,0.07875l-1.11625,-26.42875c-9.4575,-0.06125 -17.00625,-1.96125 -17.00625,-1.96125" id="path62"/>
  <path fill="#fbd8b5" fill-rule="nonzero" d="m125.711252,1162.644995c2.22625,-1.4075 1.605,-4.4175 0.9725,-6.19875c0.83,1.74875 2.68875,4.5775 5.5925,3.11375c3.3475,-1.6875 1.86875,-6.23875 1.2375,-7.80375l0.03375,-0.01875c0.76375,1.39125 3.0675,4.96875 5.8725,3.5025c2.78375,-1.45375 1.14375,-5.45375 0.4,-6.95625c0.89,1.5875 3.51875,5.57875 6.82375,3.68125c2.4725,-1.42125 -1.11625,-6.83375 -1.11625,-6.83375c-74.478126,-95.136251 18.34375,-92.451251 18.34375,-92.451251l-10.01125,-26.77875c-121.405377,21.11625 -39.662251,122.520002 -33.37175,132.422502c0,0 2.738375,5.89125 5.223,4.32125" id="path64"/>
  <path fill="#f8f8f8" fill-rule="nonzero" d="m163.871252,1052.679993l-10.01125,-26.77875c-4.9525,0.86125 -9.5325,1.86875 -13.8275,2.985l6.81125,25.56125c9.24625,-1.9875 17.0275,-1.7675 17.0275,-1.7675" id="path66"/>
  <path fill="#281a15" fill-rule="nonzero" d="m504.020008,1150.731245c-7.7725,-25.535 -34.641251,15.37125 -34.641251,15.37125c0,0 7.515,-34.232501 -1.35125,-45.726251c-8.49375,-11.00875 -29.465,3.99125 -35.013751,7.77125l-228.053753,50.145001l8.9,36.573751l-26.2525,-3.08125c0,0 -19.15,40.465001 1.21125,43.090001c20.36125,2.625 6.81875,-27.125 6.81875,-27.125c0,0 19.42375,10.76625 33.4525,6.66625c10.94,-3.1975 2.24375,-34.798751 0.74375,-44.566251c149.846252,-9.15625 219.707503,-49.747501 221.780003,-51.312501c0,0 3.74375,36.857501 7.7125,55.240001c0,0 52.466251,-17.51 44.693751,-43.046251" id="path68"/>
  <path fill="#eeeded" fill-rule="nonzero" d="m418.727506,1004.152493c-2.2275,-0.00125 -4.5125,-0.04 -6.87625,-0.1325l-4.8225,-28.2825c0.12,0.0275 0.27,0.0625 0.45,0.1025l11.24875,28.3125" id="path70"/>
  <path fill="#fbd8b5" fill-rule="nonzero" d="m406.697506,973.792492c0,0 -22.2275,-275.717504 -218.737503,-147.593752c0,0 -58.140001,61.350001 -34.100001,199.702503c214.831253,3.49 252.837504,-52.108751 252.837504,-52.108751" id="path72"/>
  <path fill="#281a15" fill-rule="nonzero" d="m337.370005,690.601238c0,0 141.135002,153.448752 -144.610002,172.440003l6.875,53.326251c0,0 -26.8775,-18.915 -29.22875,6.86875c-2.34625,25.7825 26.64,11.96125 26.64,11.96125c0,0 -15.5325,68.813751 -43.186251,90.703751c0,0 -118.653002,-215.003753 -15.76375,-227.645003c0,0 -2.5625,-39.651251 50.560001,-67.872501c75.777501,-40.256251 132.447502,57.702501 148.713752,-39.782501" id="path74"/>
  <path fill="#f8f8f8" fill-rule="nonzero" d="m406.697506,973.791242l26.31625,154.355002c0,0 -91.170001,38.751251 -228.053753,50.146251l-51.100001,-152.391252c0,0 173.271253,-7.4375 252.837504,-52.110001" id="path76"/>
  <path fill="#ec6180" fill-rule="nonzero" d="m346.768755,931.212492c0,0 -47.543751,7.2975 -74.690001,21.9325c0,0 4.56625,38.980001 48.517501,27.4375c43.501251,-11.42375 26.1725,-49.370001 26.1725,-49.370001" id="path78"/>
  <path fill="#dfdfdd" fill-rule="nonzero" d="m270.576254,1130.046244l-27.63125,-24.14l24.77625,-24.205c5.41,0.48 10.48375,0.70375 15.2175,0.70375c67.340001,0.00625 68.463751,-45.306251 68.463751,-45.306251l-11.89625,-11.4775l3.255,-9.67375l21.975,-6.83375l7.75375,9.59125l-5.59875,14.08375c0,0 3.2525,83.063751 -96.315001,97.257501" id="path80"/>
  <path fill="#281a15" fill-rule="nonzero" d="m364.736255,1009.113743l7.75375,9.59125l-5.59875,14.08375c0,0 3.2525,75.552501 -96.315001,89.746251l-27.63125,-24.14125l24.77625,-24.205c82.380001,7.305 83.681251,-37.090001 83.681251,-37.090001l-11.89625,-11.4775l3.255,-9.675l21.975,-6.8325" id="path82"/>
  <path fill="#281a15" fill-rule="nonzero" d="m251.493754,935.524992c-3.88375,0 -7.45875,-1.08375 -10.6825,-3.245c-10.74125,-7.20375 -13.4075,-23.94 -13.51625,-24.64875c-0.245,-1.60625 0.85875,-3.10625 2.465,-3.35375c1.595,-0.2425 3.11,0.85375 3.35875,2.4625c0.02375,0.1475 2.4,14.90875 10.9875,20.655c3.3325,2.23 7.125,2.78625 11.59375,1.7025c4.035,-0.9775 6.78875,-3.015 8.42,-6.2275c4.915,-9.6775 -1.86625,-26.275 -1.935,-26.43875c-0.6225,-1.5025 0.0875,-3.22625 1.59,-3.8525c1.50375,-0.6225 3.225,0.08625 3.85,1.58625c0.325,0.78125 7.8925,19.25375 1.75625,31.36c-2.4225,4.78125 -6.55875,7.91 -12.2925,9.3c-1.9275,0.46625 -3.79375,0.7 -5.595,0.7" id="path84"/>
  <path fill="#281a15" fill-rule="nonzero" d="m341.420005,909.747491c-3.88375,0 -7.46,-1.08375 -10.6825,-3.245c-10.7425,-7.205 -13.40875,-23.94125 -13.5175,-24.64875c-0.245,-1.6075 0.85875,-3.1075 2.465,-3.355c1.6075,-0.24125 3.11125,0.85625 3.35875,2.46125c0.02375,0.15 2.40125,14.91125 10.98875,20.6575c3.33125,2.2275 7.125,2.78625 11.59375,1.7025c4.03875,-0.97875 6.79375,-3.01875 8.425,-6.235c4.085,-8.06 -0.01625,-21.81125 -1.94125,-26.43c-0.625,-1.5025 0.085,-3.22875 1.58625,-3.85375c1.50375,-0.62125 3.2275,0.085 3.85375,1.58625c0.325,0.78125 7.89375,19.2525 1.75625,31.35875c-2.42125,4.7825 -6.5575,7.91 -12.29125,9.30125c-1.92875,0.46625 -3.795,0.7 -5.595,0.7" id="path86"/>
  <path fill="#eeeeee" fill-rule="nonzero" d="m529.966258,741.861239l0.0025,-0.07125c0,-13.21125 -10.70875,-23.92125 -23.92,-23.92125c-5.56,0 -10.6625,1.91375 -14.72375,5.095c-2.02125,-0.55375 -4.13875,-0.875 -6.33625,-0.875c-13.21,0 -23.92,10.71 -23.92,23.92c0,6.58875 2.665,12.55375 6.97375,16.88c-0.10875,0.92625 -0.18,1.865 -0.18,2.82125c0,13.21125 10.70875,23.92125 23.92,23.92125c6.77875,0 12.88625,-2.8325 17.23875,-7.36375c1.2925,0.21625 2.61125,0.35625 3.965,0.35625c13.21,0 23.92,-10.71 23.92,-23.92125c0,-6.57 -2.6525,-12.51875 -6.94,-16.84125" id="path88"/>
  <path fill="#eeeeee" fill-rule="nonzero" d="m442.256257,816.02999c-1.16,-7.0775 -7.8375,-11.8725 -14.91375,-10.7125c-7.07625,1.16125 -11.8725,7.8375 -10.7125,14.915c1.16125,7.07625 7.83875,11.87125 14.915,10.71125c7.07625,-1.16 11.8725,-7.8375 10.71125,-14.91375" id="path90"/>
  <path fill="#eeeeee" fill-rule="nonzero" d="m1074.395016,330.679983c4.4025,-91.642501 -65.707501,-170.030003 -157.546252,-175.580003c-21.755,-1.3125 -42.791251,1.5875 -62.318751,7.975c-27.13875,-24.1125 -62.266251,-39.650001 -101.320002,-42.000001c-53.937501,-3.2625 -103.452502,19.3375 -136.488752,57.075001c-10.745,-2.8875 -21.9375,-4.725 -33.4725,-5.425c-92.541251,-5.5875 -172.088753,64.912501 -177.673753,157.447502c-0.20125,3.325 -0.2925,6.62875 -0.29875,9.9175c-35.133751,28.61375 -58.647501,71.271251 -61.592501,120.066252c-5.58625,92.541251 64.906251,172.088753 157.447502,177.673753c0.53,0.0325 1.05875,0.04875 1.58875,0.07625c26.57,49.787501 77.611251,85.011251 138.072502,88.660001c45.530001,2.74875 87.908751,-12.92875 119.887502,-40.577501c24.9475,18.05125 55.152501,29.4625 88.166251,31.455c65.590001,3.96 124.642502,-30.305 155.470002,-83.542501c76.118751,-12.02875 136.365002,-75.595001 141.200002,-155.692502c3.64125,-60.333751 -25.06,-115.136252 -71.121251,-147.528752" id="path92"/>
  <path fill="#5b7f38" fill-rule="nonzero" d="m932.030014,258.543732l0.85125,28.0975l42.035001,-1.50875l-73.463751,60.505001l-56.001251,-48.153751l-297.681254,191.503753l-51.611251,-45.550001l-102.077502,69.530001l8.2875,13.79375l90.195001,-55.965001l55.990001,48.526251l296.591254,-190.416253l55.166251,47.298751l94.271251,-70.346251l-6.49125,41.248751l27.795,3.46875l16.03625,-97.726251l-99.892501,5.69375" id="path94"/>
  <path fill="#dddddd" fill-rule="nonzero" d="m738.205011,631.678737c-112.740002,0 -202.322503,-19.17125 -202.322503,-36.116251c0,-12.64125 50.863751,-23.49625 123.512502,-28.195c17.9775,9.02125 41.891251,14.13625 73.722501,14.1375c6.60375,0.00125 13.52875,-0.21875 20.8325,-0.67c28.645,-1.76625 51.286251,-6.3725 69.096251,-13.30875c71.357501,4.78125 121.103752,15.53625 121.103752,28.03625c0,16.945 -93.205001,36.116251 -205.945003,36.116251" id="path96"/>
  <path fill="#a47443" fill-rule="nonzero" d="m703.94501,285.634982c-32.31375,22.6 -104.233752,100.702502 -98.496251,177.452503c5.21375,69.766251 28.005,125.181252 148.501252,117.747502c120.493752,-7.43125 134.830002,-65.136251 129.615002,-134.902502c-5.73625,-76.751251 -93.473751,-143.245002 -123.998752,-163.728752l31.38875,-59.428751l-126.635002,7.8125l39.625001,55.047501" id="path98"/>
  <path fill="#402617" fill-rule="nonzero" d="m749.907511,366.762483l1.43125,19.1575c2.3325,0.845 4.52125,1.94125 6.56,3.29625c2.03625,1.355 3.79875,3.03625 5.28625,5.04125l0.82625,-10.415l29.13125,-1.7975l3.2225,43.103751l-30.72875,1.895c-0.4875,-6.50875 -2.96,-11.41125 -7.4125,-14.715c-4.4575,-3.30375 -9.87625,-4.75875 -16.26125,-4.365c-1.19625,0.07375 -2.485,0.34 -3.85125,0.7925c-1.37125,0.455 -2.6225,1.12 -3.75875,1.99c-1.13875,0.87375 -2.03,1.91375 -2.6725,3.12625c-0.64875,1.21375 -0.9075,2.61875 -0.78875,4.21125c0.23,3.07125 2.08,5.48625 5.55125,7.24625c3.47125,1.76 7.77375,3.37625 12.89125,4.84625c5.1225,1.47625 10.6525,3.045 16.59,4.715c5.9375,1.66875 11.515,3.8875 16.73125,6.65c5.2225,2.75875 9.66,6.31375 13.3275,10.64875c3.6625,4.33875 5.755,9.9475 6.26875,16.82125c0.505,6.7575 -0.44125,12.49125 -2.825,17.20125c-2.38875,4.71 -5.61,8.57875 -9.65625,11.605c-4.05,3.02625 -8.66125,5.2825 -13.82625,6.775c-5.17125,1.49125 -10.33875,2.45875 -15.5175,2.9l1.4175,18.9725l-28.135,1.735l-1.8025,-24.13c-3.73,-1.61875 -7.3625,-3.67875 -10.885,-6.17375l-1.37125,11.18625l-29.13,1.79625l-3.3175,-44.390001l31.3275,-1.9325c0.275,3.68125 1.395,6.60625 3.36,8.76375c1.96375,2.165 4.25875,3.81 6.885,4.94375c2.62,1.1325 5.34875,1.83 8.17375,2.085c2.82375,0.26 5.17125,0.3925 7.0425,0.39875c1.46375,-0.09 3.0175,-0.3075 4.66375,-0.65625c1.64125,-0.34875 3.17125,-0.87625 4.5925,-1.57875c1.41625,-0.70375 2.57875,-1.69875 3.4825,-2.99c0.90875,-1.28875 1.29375,-2.8575 1.15625,-4.69875c-0.165,-2.20875 -1.90625,-4.0125 -5.21625,-5.41375c-3.31125,-1.39875 -7.42375,-2.74875 -12.32875,-4.05c-4.90875,-1.3025 -10.26625,-2.75875 -16.065,-4.37875c-5.80125,-1.61 -11.215,-3.87 -16.24125,-6.76625c-5.0275,-2.9 -9.3075,-6.55 -12.84625,-10.96c-3.5375,-4.41125 -5.56125,-10.0475 -6.075,-16.92625c-0.45875,-6.14125 0.2725,-11.49 2.20625,-16.0525c1.93,-4.55875 4.55125,-8.39 7.86,-11.495c3.3075,-3.10125 7.06875,-5.55375 11.27625,-7.3575c4.20875,-1.8 8.36625,-2.95 12.4725,-3.45375l-1.15625,-15.4725l28.135,-1.735" id="path100"/>
  <path fill="#402617" fill-rule="nonzero" d="m769.230011,282.764982c-0.10625,-1.415 -0.99125,-2.6125 -2.2475,-3.27125c1.1475,-0.80875 1.845,-2.10375 1.74,-3.5175c-0.16875,-2.2575 -2.32,-3.96375 -4.80625,-3.81l-66.316251,4.09c-2.485,0.15375 -4.3625,2.10875 -4.195,4.365c0.10625,1.415 0.99125,2.6125 2.2475,3.2725c-1.1475,0.8075 -1.845,2.1025 -1.74,3.5175c0.16875,2.25625 2.32,3.9625 4.80625,3.81l66.316251,-4.09125c2.485,-0.15375 4.36375,-2.10875 4.195,-4.365" id="path102"/>
  <path fill="#9b6d40" fill-rule="nonzero" d="m812.495012,570.036236l-0.0125,-3.08l0.03,0c-0.03,-1.8825 0.78625,-3.725 2.29375,-5.47125l-0.01875,-4.22l0.03,0c-0.02875,-1.8375 0.74,-3.6375 2.18,-5.3475c-3.1075,-2.37625 -4.52875,-4.805 -4.58,-7.17625l-0.02875,-6.885l0.02875,0c-0.1525,-9.53 21.59375,-18.0525 42.713751,-18.0525c5.7175,0 11.3925,0.625 16.57125,2.02375c-10.4775,21.08125 -28.775,37.848751 -59.207501,48.208751" id="path104"/>
  <path fill="#b2901d" fill-rule="nonzero" d="m900.578763,576.491236c-2.54125,-3.28375 -7.7975,-6.40875 -16.52125,-8.99125c-21.34875,-6.125 -51.593751,1.28125 -58.552501,11.4525l-1.49375,0l0.02875,6.88625c0.06625,2.96625 2.22875,6.02625 7.22625,8.9575c28.73375,16.85375 71.158751,3.34375 71.168751,-10.8425l0.00625,-2.4625l0.00375,-4.385l-1.86625,-0.615" id="path106"/>
  <path fill="#f2be0b" fill-rule="nonzero" d="m884.057513,563.114986c-30.25,-8.6775 -78.426251,9.80125 -52.791251,24.83625c38.896251,22.8125 102.897502,-10.01 52.791251,-24.83625" id="path108"/>
  <path fill="#b2901d" fill-rule="nonzero" d="m869.992513,579.626236c0,-0.37 -0.17125,-0.70875 -0.5175,-1.02c-0.345,-0.31 -0.79375,-0.58375 -1.345,-0.8225c-0.55375,-0.2375 -1.1825,-0.425 -1.885,-0.56375c-0.705,-0.1375 -1.40375,-0.215 -2.09375,-0.22875c0,0.59625 -0.00625,1.07 -0.02,1.425c-0.0125,0.35625 -0.0275,0.66375 -0.0425,0.92375c-0.0125,0.2575 -0.03375,0.5 -0.06125,0.7325c-0.0275,0.23125 -0.04875,0.5225 -0.0625,0.87125c-0.0125,0.34875 -0.0275,0.79125 -0.04,1.3275c-0.01625,0.5325 -0.02125,1.23 -0.02125,2.08875c0.91,-0.185 1.74,-0.4325 2.485,-0.74375c0.74625,-0.31 1.3875,-0.665 1.92625,-1.06c0.53875,-0.39625 0.9525,-0.82125 1.2425,-1.27625c0.29,-0.4575 0.435,-0.91625 0.435,-1.3775l0,-0.27625zm-8.78125,-6.08c-0.525,0.26375 -1.015,0.53875 -1.47125,0.825c-0.45375,0.28125 -0.7525,0.57625 -0.88875,0.88c0.385,0.065 0.77125,0.1175 1.1575,0.15875c0.3875,0.0375 0.775,0.07625 1.16125,0.1175c0.055,-0.42375 0.11,-0.78375 0.165,-1.08c0.055,-0.29625 0.11,-0.65125 0.16625,-1.06c-0.13875,0.0675 -0.23625,0.12 -0.29,0.15875zm2.9,-6.655c0.055,0.4525 0.11625,0.835 0.18625,1.1525c0.06875,0.31375 0.12375,0.6125 0.165,0.88875c0.04125,0.27625 0.07625,0.555 0.10375,0.8325c0.02625,0.27625 0.0425,0.6075 0.0425,0.99c0.385,-0.0675 0.77125,-0.115 1.16,-0.14875c0.38625,-0.03375 0.75875,-0.05125 1.1175,-0.05125c1.4925,0 2.845,0.29125 4.05875,0.87375l0,-0.02c0.25,0.1175 0.37375,0.27625 0.37375,0.47375c0,0.15875 -0.11875,0.29375 -0.35125,0.40625c-0.23625,0.1125 -0.505,0.1675 -0.80875,0.1675c-0.3875,0 -0.7325,-0.07125 -1.03625,-0.21625l0.04375,0c-0.7475,-0.31625 -1.54875,-0.475 -2.405,-0.475c-0.7175,0 -1.4775,0.1175 -2.27875,0.3575c0,0.4625 -0.0125,0.86125 -0.04,1.1975c-0.02875,0.33625 -0.055,0.6425 -0.0825,0.92125c-0.0275,0.27625 -0.0625,0.54 -0.10375,0.79c-0.0425,0.2525 -0.075,0.515 -0.105,0.79375c1.29875,0.0775 2.48,0.22375 3.5425,0.4325c1.0625,0.2125 1.96875,0.49125 2.71375,0.83375c0.745,0.345 1.325,0.75875 1.73875,1.24875c0.415,0.4875 0.6225,1.0475 0.6225,1.68c0,0.635 -0.2225,1.24625 -0.6625,1.8325c-0.4425,0.58875 -1.05125,1.13 -1.8225,1.625c-0.775,0.495 -1.69875,0.9275 -2.77625,1.2975c-1.07625,0.37125 -2.25125,0.6525 -3.52125,0.84875c0.0275,0.3175 0.05625,0.58 0.08375,0.78375c0.02625,0.205 0.06125,0.42625 0.10375,0.66375c0.04,0.23875 0.10875,0.53125 0.20625,0.88c0.09625,0.35125 0.22875,0.83 0.39375,1.43625c0,0.13125 0.0275,0.25125 0.0825,0.3575c0.055,0.10625 0.0825,0.22375 0.0825,0.35625c0,0.13125 -0.15125,0.2325 -0.45625,0.3075c-0.30125,0.07125 -0.565,0.1075 -0.78625,0.1075c-0.22125,0 -0.44125,-0.03875 -0.6625,-0.1175c-0.22125,-0.08 -0.34625,-0.21125 -0.3725,-0.39625c-0.16625,-0.60875 -0.29625,-1.11625 -0.39375,-1.525c-0.0975,-0.40875 -0.18,-0.76375 -0.2475,-1.06c-0.07,-0.295 -0.1325,-0.56 -0.18875,-0.79375c-0.055,-0.2275 -0.12375,-0.4775 -0.20625,-0.7425c-0.13875,0.015 -0.30375,0.025 -0.49625,0.03125c-0.19375,0.0075 -0.37375,0.01 -0.54,0.01c-0.9925,0 -1.8575,-0.08125 -2.5875,-0.2475c-0.7325,-0.16375 -1.375,-0.37125 -1.9275,-0.625c-0.5525,-0.24875 -1.04125,-0.52875 -1.47,-0.84125c-0.4275,-0.30875 -0.82125,-0.61625 -1.18,-0.91875l0,0.01875c-0.16625,-0.1325 -0.325,-0.26 -0.47625,-0.38625c-0.1525,-0.125 -0.2975,-0.23875 -0.435,-0.34625l0,-0.03875c-0.1375,-0.065 -0.26375,-0.14875 -0.3725,-0.2475l-0.16625,-0.2475c0,-0.12 0.09625,-0.22125 0.29125,-0.3075c0.1925,-0.0875 0.42625,-0.13 0.7025,-0.13c0.24875,0 0.47625,0.03625 0.6825,0.11c0.20875,0.0725 0.40125,0.16125 0.58125,0.2675c0.17875,0.105 0.345,0.2175 0.49625,0.33625c0.15125,0.1175 0.2975,0.21875 0.435,0.2975c0.415,0.27625 0.815,0.53875 1.2025,0.78125c0.385,0.24375 0.82125,0.455 1.30375,0.635c0.48375,0.17625 1.01625,0.3225 1.595,0.43375c0.58125,0.1125 1.27,0.1775 2.07125,0.18875c-0.055,-0.29 -0.09,-0.6075 -0.1025,-0.95875c-0.015,-0.35125 -0.02875,-0.81 -0.0425,-1.3775c-0.01375,-0.5675 -0.02,-1.29125 -0.02,-2.16875c0,-0.8775 0,-1.99 0,-3.335l-0.04125,0c-0.3325,-0.02875 -0.8075,-0.06625 -1.43,-0.12c-0.6225,-0.0525 -1.23625,-0.1225 -1.84375,-0.20625c-0.60625,-0.08625 -1.1375,-0.1925 -1.595,-0.3175c-0.45375,-0.1275 -0.6825,-0.28125 -0.6825,-0.46625c0,-0.32875 0.15875,-0.66375 0.47625,-1c0.3175,-0.33375 0.725,-0.66375 1.2225,-0.98125c0.49625,-0.315 1.0425,-0.615 1.63625,-0.89875c0.5925,-0.28375 1.165,-0.55125 1.71875,-0.8025l-0.0425,0l0.99625,-0.47375c0,-0.47625 0,-0.88 0,-1.21c0,-0.32875 -0.0075,-0.64375 -0.02125,-0.94c-0.01625,-0.2975 -0.02875,-0.61 -0.0425,-0.94c-0.0125,-0.33125 -0.035,-0.74 -0.0625,-1.2275l0,-0.14c0,-0.22375 0.145,-0.39125 0.435,-0.505c0.29,-0.11375 0.615,-0.16875 0.97375,-0.16875c0.27625,0 0.52625,0.03625 0.74625,0.10875c0.22125,0.075 0.38625,0.1975 0.4975,0.365" id="path110"/>
  <path fill="#b2901d" fill-rule="nonzero" d="m895.966263,566.799986c-2.54,-3.28375 -7.7975,-6.40875 -16.52,-8.99125c-21.35,-6.12625 -51.593751,1.28125 -58.552501,11.45375l-1.49375,0l0.0275,6.885c0.0675,2.96625 2.22875,6.02625 7.2275,8.9575c28.73375,16.855 71.158751,3.34375 71.167501,-10.8425l0.0075,-2.4625l0.00375,-4.385l-1.8675,-0.615" id="path112"/>
  <path fill="#f2be0b" fill-rule="nonzero" d="m879.446263,553.423736c-30.25,-8.67625 -78.426251,9.80125 -52.791251,24.83625c38.895001,22.8125 102.897502,-10.01 52.791251,-24.83625" id="path114"/>
  <path fill="#b2901d" fill-rule="nonzero" d="m865.381263,569.934986c0,-0.37 -0.1725,-0.70875 -0.51875,-1.02c-0.345,-0.31 -0.7925,-0.58375 -1.34375,-0.82125c-0.55375,-0.23875 -1.1825,-0.42625 -1.88625,-0.565c-0.70375,-0.1375 -1.4025,-0.21375 -2.0925,-0.22875c0,0.59625 -0.0075,1.07 -0.02,1.425c-0.01375,0.35625 -0.0275,0.665 -0.0425,0.92375c-0.0125,0.2575 -0.035,0.5 -0.06125,0.73375c-0.0275,0.23 -0.04875,0.52125 -0.0625,0.87c-0.0125,0.34875 -0.0275,0.79125 -0.04,1.3275c-0.01625,0.5325 -0.02125,1.23 -0.02125,2.08875c0.91,-0.185 1.74,-0.4325 2.485,-0.7425c0.74625,-0.31 1.3875,-0.66625 1.92625,-1.06125c0.53875,-0.39625 0.9525,-0.82125 1.2425,-1.27625c0.29,-0.45625 0.435,-0.91625 0.435,-1.3775l0,-0.27625zm-8.78125,-6.08c-0.525,0.265 -1.015,0.53875 -1.47125,0.825c-0.45375,0.28125 -0.7525,0.57625 -0.89,0.88c0.38625,0.06375 0.7725,0.1175 1.15875,0.15875c0.3875,0.0375 0.775,0.07625 1.16,0.1175c0.05625,-0.42375 0.11125,-0.78375 0.16625,-1.08c0.05625,-0.295 0.11,-0.65125 0.16625,-1.06c-0.13875,0.0675 -0.235,0.12 -0.29,0.15875zm2.9,-6.655c0.055,0.4525 0.11625,0.835 0.18625,1.1525c0.06875,0.315 0.12375,0.6125 0.165,0.88875c0.04125,0.2775 0.07625,0.555 0.10375,0.8325c0.02625,0.27625 0.0425,0.60875 0.0425,0.99c0.385,-0.0675 0.77125,-0.115 1.16,-0.14875c0.385,-0.03375 0.7575,-0.05 1.1175,-0.05c1.49125,0 2.84375,0.29 4.0575,0.8725l0,-0.02c0.25125,0.11875 0.375,0.27625 0.375,0.47375c0,0.15875 -0.11875,0.29375 -0.35125,0.40625c-0.23625,0.11375 -0.505,0.16875 -0.80875,0.16875c-0.3875,0 -0.7325,-0.0725 -1.03625,-0.21625l0.0425,0c-0.74625,-0.3175 -1.5475,-0.47625 -2.40375,-0.47625c-0.7175,0 -1.4775,0.1175 -2.27875,0.3575c0,0.4625 -0.0125,0.86125 -0.04,1.1975c-0.02875,0.33625 -0.055,0.6425 -0.08375,0.92125c-0.02625,0.27625 -0.06125,0.54125 -0.1025,0.79c-0.0425,0.25375 -0.075,0.515 -0.105,0.79375c1.29875,0.0775 2.48,0.22375 3.54125,0.43375c1.06375,0.21125 1.96875,0.49 2.715,0.83375c0.745,0.34375 1.32375,0.7575 1.73875,1.2475c0.415,0.4875 0.6225,1.04875 0.6225,1.68125c0,0.63375 -0.2225,1.245 -0.66375,1.83125c-0.4425,0.58875 -1.05,1.13 -1.82125,1.625c-0.775,0.495 -1.69875,0.9275 -2.77625,1.2975c-1.07625,0.37125 -2.25125,0.6525 -3.52125,0.85c0.0275,0.3175 0.05625,0.57875 0.08375,0.7825c0.02625,0.205 0.06125,0.42625 0.10375,0.66375c0.04,0.23875 0.10875,0.53125 0.20625,0.88c0.09625,0.35125 0.22875,0.83 0.39375,1.435c0,0.1325 0.0275,0.2525 0.0825,0.35875c0.055,0.10625 0.0825,0.22375 0.0825,0.355c0,0.1325 -0.15125,0.23375 -0.45625,0.30875c-0.30125,0.07125 -0.565,0.10875 -0.78625,0.10875c-0.22125,0 -0.44125,-0.03875 -0.6625,-0.11875c-0.22125,-0.07875 -0.34625,-0.21125 -0.3725,-0.39625c-0.16625,-0.60875 -0.2975,-1.11625 -0.39375,-1.525c-0.0975,-0.40875 -0.18,-0.76375 -0.24875,-1.06c-0.07,-0.295 -0.13125,-0.56 -0.1875,-0.7925c-0.055,-0.22875 -0.12375,-0.47875 -0.20625,-0.74375c-0.13875,0.015 -0.305,0.02375 -0.49625,0.03125c-0.19375,0.0075 -0.37375,0.01 -0.54,0.01c-0.9925,0 -1.8575,-0.08125 -2.58875,-0.2475c-0.73125,-0.16375 -1.37375,-0.37 -1.92625,-0.625c-0.5525,-0.2475 -1.04125,-0.52875 -1.47,-0.84125c-0.4275,-0.3075 -0.82125,-0.61625 -1.18,-0.91875l0,0.01875c-0.16625,-0.13125 -0.325,-0.25875 -0.47625,-0.38625c-0.1525,-0.125 -0.2975,-0.23875 -0.435,-0.34625l0,-0.03875c-0.13875,-0.065 -0.26375,-0.14875 -0.3725,-0.2475l-0.16625,-0.2475c0,-0.12 0.09625,-0.22125 0.29,-0.3075c0.1925,-0.0875 0.4275,-0.13 0.70375,-0.13c0.24875,0 0.47625,0.03625 0.68375,0.11c0.2075,0.0725 0.4,0.16125 0.58,0.2675c0.17875,0.105 0.345,0.2175 0.49625,0.33625c0.15125,0.1175 0.2975,0.21875 0.435,0.29875c0.415,0.27625 0.815,0.5375 1.2025,0.78125c0.385,0.2425 0.82125,0.45375 1.30375,0.63375c0.48375,0.17625 1.01625,0.3225 1.595,0.4325c0.58,0.11375 1.27,0.17875 2.07125,0.19c-0.055,-0.29125 -0.09,-0.6075 -0.10375,-0.95875c-0.01375,-0.35125 -0.02875,-0.81 -0.04125,-1.3775c-0.01375,-0.5675 -0.02125,-1.29125 -0.02125,-2.16875c0,-0.8775 0,-1.99 0,-3.33375l-0.04,0c-0.3325,-0.02875 -0.8075,-0.0675 -1.43,-0.12125c-0.6225,-0.0525 -1.23625,-0.12125 -1.84375,-0.20625c-0.6075,-0.08625 -1.13875,-0.1925 -1.595,-0.3175c-0.45375,-0.1275 -0.6825,-0.28125 -0.6825,-0.46625c0,-0.32875 0.15875,-0.66375 0.47625,-1c0.3175,-0.33375 0.725,-0.66375 1.2225,-0.98125c0.49625,-0.315 1.04125,-0.615 1.63625,-0.89875c0.5925,-0.28375 1.165,-0.55 1.71875,-0.8025l-0.0425,0l0.995,-0.47375c0,-0.47625 0,-0.88 0,-1.21c0,-0.32875 -0.0075,-0.64375 -0.02,-0.94c-0.01625,-0.2975 -0.02875,-0.61 -0.0425,-0.94c-0.0125,-0.33125 -0.035,-0.74 -0.0625,-1.2275l0,-0.14c0,-0.22375 0.145,-0.39125 0.435,-0.505c0.29,-0.1125 0.615,-0.1675 0.97375,-0.1675c0.27625,0 0.52625,0.035 0.74625,0.1075c0.22,0.075 0.38625,0.1975 0.4975,0.365" id="path116"/>
  <path fill="#b2901d" fill-rule="nonzero" d="m898.272513,557.108736c-2.54125,-3.28375 -7.7975,-6.40875 -16.52,-8.99125c-21.35,-6.125 -51.595001,1.28125 -58.553751,11.4525l-1.49375,0l0.02875,6.88625c0.06625,2.96625 2.22875,6.02625 7.2275,8.9575c28.7325,16.855 71.157501,3.34375 71.167501,-10.8425l0.0075,-2.46125l0.00375,-4.385l-1.8675,-0.61625" id="path118"/>
  <path fill="#f2be0b" fill-rule="nonzero" d="m881.752513,543.732486c-30.25,-8.67625 -78.426251,9.80125 -52.791251,24.83625c38.895001,22.8125 102.896252,-10.01 52.791251,-24.83625" id="path120"/>
  <path fill="#b2901d" fill-rule="nonzero" d="m867.686263,560.243736c0,-0.37 -0.17125,-0.70875 -0.5175,-1.01875c-0.345,-0.31 -0.79375,-0.585 -1.345,-0.8225c-0.5525,-0.23875 -1.18125,-0.425 -1.885,-0.565c-0.70375,-0.1375 -1.4025,-0.21375 -2.0925,-0.22875c0,0.59625 -0.0075,1.07 -0.02125,1.42625c-0.0125,0.355 -0.0275,0.66375 -0.04125,0.9225c-0.01375,0.2575 -0.035,0.5 -0.06125,0.73375c-0.0275,0.23 -0.05,0.52125 -0.0625,0.87c-0.01375,0.34875 -0.0275,0.79125 -0.04125,1.3275c-0.01625,0.53375 -0.02,1.23125 -0.02,2.08875c0.91,-0.185 1.73875,-0.4325 2.48375,-0.7425c0.7475,-0.31 1.3875,-0.66625 1.92625,-1.06c0.54,-0.3975 0.95375,-0.8225 1.2425,-1.2775c0.29125,-0.45625 0.435,-0.915 0.435,-1.3775l0,-0.27625zm-8.78,-6.08c-0.52625,0.265 -1.01625,0.53875 -1.4725,0.825c-0.45375,0.28125 -0.75125,0.57625 -0.88875,0.88c0.38625,0.065 0.77125,0.1175 1.15875,0.15875c0.3875,0.0375 0.77375,0.07625 1.16,0.1175c0.055,-0.4225 0.11125,-0.78375 0.16625,-1.08c0.055,-0.295 0.10875,-0.65125 0.165,-1.06c-0.1375,0.0675 -0.235,0.12 -0.28875,0.15875zm2.89875,-6.65375c0.055,0.45125 0.11625,0.83375 0.18625,1.15125c0.06875,0.315 0.12375,0.6125 0.16625,0.88875c0.04,0.2775 0.07625,0.55625 0.10375,0.8325c0.02625,0.27625 0.04125,0.6075 0.04125,0.99c0.38625,-0.06625 0.7725,-0.115 1.16,-0.14875c0.38625,-0.03375 0.75875,-0.05 1.11875,-0.05c1.49125,0 2.84375,0.29 4.0575,0.8725l0,-0.01875c0.25,0.11625 0.37375,0.27625 0.37375,0.4725c0,0.15875 -0.1175,0.29375 -0.35125,0.4075c-0.235,0.1125 -0.505,0.1675 -0.80875,0.1675c-0.38625,0 -0.7325,-0.0725 -1.03625,-0.21625l0.04375,0c-0.74625,-0.3175 -1.54875,-0.47625 -2.40375,-0.47625c-0.71875,0 -1.4775,0.1175 -2.28,0.35875c0,0.46125 -0.01125,0.86 -0.03875,1.19625c-0.03,0.3375 -0.05625,0.6425 -0.08375,0.92125c-0.0275,0.27625 -0.0625,0.54125 -0.10375,0.79125c-0.04125,0.2525 -0.075,0.51375 -0.10375,0.79375c1.2975,0.07625 2.48,0.2225 3.54125,0.4325c1.06375,0.21125 1.96875,0.49 2.71375,0.83375c0.74625,0.34375 1.325,0.7575 1.73875,1.2475c0.415,0.48875 0.62375,1.04875 0.62375,1.68c0,0.635 -0.2225,1.24625 -0.66375,1.8325c-0.4425,0.58875 -1.05125,1.13 -1.8225,1.625c-0.77375,0.495 -1.69875,0.9275 -2.775,1.29875c-1.0775,0.37 -2.25125,0.65125 -3.5225,0.84875c0.0275,0.31625 0.05625,0.57875 0.08375,0.78375c0.0275,0.20375 0.06125,0.425 0.10375,0.66375c0.04125,0.2375 0.11,0.53125 0.20625,0.87875c0.09625,0.35125 0.22875,0.83 0.39375,1.43625c0,0.13125 0.0275,0.2525 0.0825,0.3575c0.055,0.10625 0.08375,0.22375 0.08375,0.35625c0,0.13125 -0.1525,0.23375 -0.4575,0.3075c-0.30125,0.0725 -0.565,0.10875 -0.78625,0.10875c-0.22125,0 -0.44,-0.03875 -0.66125,-0.11875c-0.22125,-0.07875 -0.3475,-0.21125 -0.37375,-0.39625c-0.165,-0.60875 -0.29625,-1.115 -0.3925,-1.52375c-0.09875,-0.40875 -0.18,-0.765 -0.24875,-1.06125c-0.07,-0.295 -0.1325,-0.56 -0.1875,-0.7925c-0.055,-0.22875 -0.12375,-0.47875 -0.20625,-0.74375c-0.13875,0.015 -0.305,0.025 -0.49625,0.0325c-0.195,0.00625 -0.375,0.00875 -0.54,0.00875c-0.99375,0 -1.8575,-0.08125 -2.58875,-0.2475c-0.73125,-0.16375 -1.37375,-0.37 -1.92625,-0.625c-0.55375,-0.2475 -1.0425,-0.52875 -1.47,-0.84125c-0.42875,-0.3075 -0.82125,-0.615 -1.18125,-0.91875l0,0.01875c-0.165,-0.13125 -0.325,-0.25875 -0.47625,-0.38625c-0.1525,-0.125 -0.2975,-0.23875 -0.435,-0.34625l0,-0.03875c-0.1375,-0.065 -0.2625,-0.14875 -0.3725,-0.2475l-0.165,-0.2475c0,-0.12 0.095,-0.22125 0.29,-0.3075c0.1925,-0.08625 0.4275,-0.13 0.70375,-0.13c0.24875,0 0.47625,0.03625 0.6825,0.11c0.2075,0.0725 0.4,0.16125 0.58125,0.2675c0.17875,0.10625 0.34375,0.21875 0.49625,0.33625c0.15125,0.1175 0.29625,0.21875 0.435,0.29875c0.415,0.27625 0.815,0.5375 1.20125,0.78125c0.38625,0.2425 0.82125,0.45375 1.305,0.635c0.4825,0.175 1.015,0.32125 1.595,0.4325c0.58,0.1125 1.26875,0.1775 2.07125,0.19c-0.055,-0.29125 -0.09,-0.60875 -0.10375,-0.96c-0.015,-0.35 -0.02875,-0.81 -0.0425,-1.3775c-0.0125,-0.5675 -0.02,-1.29125 -0.02,-2.16875c0,-0.8775 0,-1.99 0,-3.33375l-0.04,0c-0.3325,-0.02875 -0.80875,-0.0675 -1.43,-0.12c-0.6225,-0.05375 -1.23625,-0.1225 -1.84375,-0.2075c-0.6075,-0.08625 -1.13875,-0.1925 -1.595,-0.3175c-0.455,-0.1275 -0.6825,-0.28125 -0.6825,-0.46625c0,-0.32875 0.15875,-0.66375 0.475,-1c0.3175,-0.33375 0.725,-0.66375 1.2225,-0.98c0.49625,-0.315 1.0425,-0.61625 1.63625,-0.9c0.59375,-0.28375 1.16625,-0.55 1.71875,-0.8025l-0.04125,0l0.995,-0.47375c0,-0.47625 0,-0.88 0,-1.20875c0,-0.33 -0.0075,-0.645 -0.02125,-0.94125c-0.015,-0.2975 -0.0275,-0.61 -0.04125,-0.93875c-0.01375,-0.3325 -0.035,-0.74125 -0.0625,-1.22875l0,-0.14c0,-0.22375 0.14375,-0.39125 0.435,-0.505c0.29,-0.1125 0.615,-0.1675 0.97375,-0.1675c0.275,0 0.525,0.03625 0.74625,0.1075c0.22,0.075 0.38625,0.1975 0.49625,0.36625" id="path122"/>
  <path fill="#b2901d" fill-rule="nonzero" d="m905.190013,547.417486c-2.54125,-3.28375 -7.7975,-6.40875 -16.52125,-8.99125c-21.35,-6.125 -51.593751,1.2825 -58.552501,11.45375l-1.49375,0l0.02875,6.885c0.06625,2.96625 2.22875,6.0275 7.22625,8.9575c28.73375,16.855 71.158751,3.34375 71.168751,-10.8425l0.0075,-2.46125l0.00375,-4.385l-1.8675,-0.61625" id="path124"/>
  <path fill="#f2be0b" fill-rule="nonzero" d="m888.668763,534.041236c-30.24875,-8.67625 -78.425001,9.8025 -52.791251,24.8375c38.896251,22.8125 102.897502,-10.01125 52.791251,-24.8375" id="path126"/>
  <path fill="#b2901d" fill-rule="nonzero" d="m874.603763,550.552486c0,-0.37 -0.17125,-0.70875 -0.5175,-1.01875c-0.34625,-0.31 -0.79375,-0.585 -1.345,-0.8225c-0.55375,-0.2375 -1.1825,-0.42625 -1.885,-0.565c-0.705,-0.1375 -1.40375,-0.21375 -2.09375,-0.22875c0,0.59625 -0.00625,1.07 -0.02,1.42625c-0.0125,0.35625 -0.0275,0.66375 -0.04125,0.9225c-0.01375,0.2575 -0.035,0.5 -0.0625,0.73375c-0.0275,0.23125 -0.04875,0.52125 -0.06125,0.87c-0.01375,0.34875 -0.02875,0.79125 -0.04125,1.3275c-0.01625,0.53375 -0.02125,1.23125 -0.02125,2.08875c0.91,-0.185 1.74,-0.4325 2.485,-0.7425c0.74625,-0.31 1.3875,-0.66625 1.92625,-1.06c0.54,-0.3975 0.9525,-0.8225 1.2425,-1.2775c0.29125,-0.45625 0.435,-0.91625 0.435,-1.3775l0,-0.27625zm-8.78125,-6.08c-0.525,0.265 -1.015,0.53875 -1.47125,0.825c-0.45375,0.28125 -0.7525,0.5775 -0.88875,0.88c0.385,0.065 0.77125,0.1175 1.15875,0.15875c0.38625,0.03875 0.77375,0.07625 1.16,0.1175c0.055,-0.42375 0.11,-0.78375 0.165,-1.08c0.05625,-0.295 0.11,-0.65125 0.16625,-1.06c-0.1375,0.0675 -0.235,0.12125 -0.29,0.15875zm2.9,-6.65375c0.055,0.45125 0.11625,0.83375 0.18625,1.15125c0.06875,0.315 0.12375,0.61375 0.16625,0.89c0.04,0.27625 0.075,0.555 0.1025,0.83125c0.02625,0.27625 0.0425,0.60875 0.0425,0.99c0.38625,-0.06625 0.77125,-0.115 1.16,-0.14875c0.38625,-0.03375 0.75875,-0.05 1.1175,-0.05c1.4925,0 2.845,0.29 4.05875,0.8725l0,-0.02c0.25,0.11875 0.37375,0.2775 0.37375,0.47375c0,0.15875 -0.1175,0.29375 -0.35125,0.40625c-0.23625,0.11375 -0.505,0.16875 -0.80875,0.16875c-0.3875,0 -0.7325,-0.0725 -1.03625,-0.21625l0.04375,0c-0.7475,-0.3175 -1.54875,-0.47625 -2.405,-0.47625c-0.7175,0 -1.4775,0.1175 -2.27875,0.35875c0,0.46125 -0.0125,0.86 -0.04,1.1975c-0.02875,0.335 -0.055,0.64125 -0.0825,0.92c-0.0275,0.27625 -0.0625,0.54125 -0.10375,0.79125c-0.04125,0.2525 -0.075,0.515 -0.105,0.79375c1.29875,0.07625 2.48,0.2225 3.5425,0.4325c1.0625,0.21125 1.96875,0.49 2.71375,0.83375c0.745,0.34375 1.325,0.7575 1.73875,1.2475c0.415,0.48875 0.6225,1.04875 0.6225,1.68125c0,0.63375 -0.22125,1.245 -0.6625,1.83125c-0.4425,0.59 -1.05125,1.13 -1.8225,1.625c-0.77375,0.49625 -1.69875,0.92875 -2.775,1.29875c-1.0775,0.37 -2.2525,0.65125 -3.5225,0.84875c0.0275,0.3175 0.05625,0.57875 0.08375,0.78375c0.02625,0.20375 0.06125,0.425 0.10375,0.66375c0.04125,0.2375 0.10875,0.53125 0.20625,0.88c0.09625,0.35 0.22875,0.82875 0.39375,1.435c0,0.13125 0.0275,0.2525 0.0825,0.3575c0.055,0.10625 0.0825,0.22375 0.0825,0.35625c0,0.1325 -0.15125,0.23375 -0.45625,0.3075c-0.30125,0.0725 -0.565,0.10875 -0.78625,0.10875c-0.22125,0 -0.44125,-0.03875 -0.6625,-0.11875c-0.22125,-0.07875 -0.345,-0.21125 -0.3725,-0.39625c-0.16625,-0.60875 -0.29625,-1.115 -0.3925,-1.52375c-0.09875,-0.40875 -0.18,-0.765 -0.24875,-1.06c-0.07,-0.29625 -0.1325,-0.56 -0.1875,-0.79375c-0.05625,-0.22875 -0.12375,-0.47875 -0.20625,-0.7425c-0.14,0.01375 -0.305,0.02375 -0.4975,0.03125c-0.19375,0.00625 -0.37375,0.00875 -0.54,0.00875c-0.9925,0 -1.85625,-0.08125 -2.5875,-0.2475c-0.7325,-0.1625 -1.37375,-0.37 -1.9275,-0.625c-0.5525,-0.2475 -1.04125,-0.52875 -1.47,-0.84125c-0.4275,-0.3075 -0.82125,-0.615 -1.18,-0.91875l0,0.02c-0.16625,-0.1325 -0.325,-0.26 -0.47625,-0.3875c-0.1525,-0.125 -0.2975,-0.2375 -0.435,-0.34625l0,-0.03875c-0.1375,-0.065 -0.2625,-0.14875 -0.3725,-0.2475l-0.16625,-0.2475c0,-0.12 0.09625,-0.22125 0.29125,-0.3075c0.1925,-0.08625 0.42625,-0.13 0.70375,-0.13c0.24875,0 0.475,0.03625 0.6825,0.11c0.2075,0.0725 0.4,0.16125 0.58,0.2675c0.18,0.105 0.345,0.21875 0.49625,0.33625c0.15125,0.1175 0.2975,0.21875 0.43625,0.29875c0.41375,0.27625 0.81375,0.53875 1.20125,0.78125c0.38625,0.2425 0.82125,0.45375 1.30375,0.635c0.48375,0.175 1.01625,0.32125 1.59625,0.4325c0.58,0.1125 1.26875,0.1775 2.07,0.18875c-0.055,-0.29 -0.09,-0.6075 -0.1025,-0.95875c-0.015,-0.35125 -0.02875,-0.81 -0.0425,-1.3775c-0.01375,-0.5675 -0.02,-1.29 -0.02,-2.16875c0,-0.87625 0,-1.99 0,-3.33375l-0.04125,0c-0.33125,-0.02875 -0.8075,-0.0675 -1.42875,-0.12c-0.62375,-0.0525 -1.2375,-0.1225 -1.84375,-0.2075c-0.6075,-0.08625 -1.13875,-0.1925 -1.595,-0.3175c-0.455,-0.12625 -0.68375,-0.28125 -0.68375,-0.465c0,-0.33 0.15875,-0.66375 0.47625,-1.00125c0.3175,-0.33375 0.725,-0.66375 1.2225,-0.98c0.49625,-0.315 1.0425,-0.61625 1.63625,-0.9c0.59375,-0.28375 1.16625,-0.55 1.71875,-0.8025l-0.0425,0l0.99625,-0.47375c0,-0.47625 0,-0.88 0,-1.20875c0,-0.33 -0.0075,-0.645 -0.02125,-0.94c-0.015,-0.29875 -0.02875,-0.61125 -0.04125,-0.94c-0.01375,-0.3325 -0.03625,-0.74125 -0.06375,-1.22875l0,-0.14c0,-0.22375 0.145,-0.39125 0.435,-0.50375c0.29,-0.11375 0.615,-0.16875 0.975,-0.16875c0.275,0 0.525,0.03625 0.74625,0.1075c0.22,0.075 0.385,0.1975 0.49625,0.36625" id="path128"/>
  <path fill="#b2901d" fill-rule="nonzero" d="m895.871263,537.699986c-2.53875,-3.28375 -7.79625,-6.40875 -16.52125,-8.99125c-21.3475,-6.125 -51.591251,1.28125 -58.551251,11.45375l-1.4925,0l0.02875,6.885c0.065,2.96625 2.22625,6.0275 7.22625,8.9575c28.73375,16.855 71.156251,3.34375 71.166251,-10.8425l0.00875,-2.46125l0.0025,-4.385l-1.8675,-0.61625" id="path130"/>
  <path fill="#f2be0b" fill-rule="nonzero" d="m879.350013,524.323735c-30.24875,-8.67625 -78.426251,9.80125 -52.788751,24.83625c38.893751,22.8125 102.895002,-10.01 52.788751,-24.83625" id="path132"/>
  <path fill="#b2901d" fill-rule="nonzero" d="m865.286263,540.834986c0,-0.37 -0.1725,-0.70875 -0.51875,-1.01875c-0.34375,-0.31 -0.79375,-0.585 -1.34375,-0.8225c-0.55375,-0.2375 -1.18125,-0.425 -1.885,-0.565c-0.705,-0.1375 -1.4025,-0.21375 -2.09375,-0.22875c0,0.59625 -0.005,1.07 -0.02,1.42625c-0.01375,0.355 -0.02875,0.66375 -0.04375,0.92375c-0.01125,0.25625 -0.0325,0.49875 -0.05875,0.7325c-0.0275,0.23125 -0.05125,0.52125 -0.06375,0.87c-0.01125,0.34875 -0.02625,0.79125 -0.04,1.3275c-0.015,0.53375 -0.02,1.23 -0.02,2.08875c0.90875,-0.185 1.73875,-0.4325 2.48375,-0.7425c0.7475,-0.31 1.3875,-0.66625 1.92625,-1.06c0.5375,-0.3975 0.95125,-0.8225 1.2425,-1.2775c0.29125,-0.45625 0.435,-0.915 0.435,-1.3775l0,-0.27625zm-8.78,-6.08c-0.52625,0.265 -1.01625,0.53875 -1.47125,0.825c-0.45625,0.28125 -0.755,0.57625 -0.88875,0.88c0.38375,0.065 0.76875,0.1175 1.15875,0.15875c0.38375,0.03875 0.77375,0.07625 1.15875,0.1175c0.055,-0.4225 0.11,-0.78375 0.165,-1.07875c0.055,-0.29625 0.10875,-0.6525 0.16625,-1.06125c-0.13875,0.0675 -0.235,0.12 -0.28875,0.15875zm2.9,-6.65375c0.0525,0.45125 0.115,0.83375 0.185,1.15125c0.07,0.315 0.1225,0.6125 0.165,0.88875c0.04125,0.2775 0.0775,0.55625 0.10375,0.8325c0.02625,0.27625 0.04125,0.6075 0.04125,0.99c0.38625,-0.06625 0.77375,-0.115 1.16125,-0.14875c0.38625,-0.03375 0.7575,-0.05 1.1175,-0.05c1.49,0 2.84375,0.29 4.05875,0.8725l0,-0.01875c0.25,0.1175 0.375,0.27625 0.375,0.4725c0,0.15875 -0.12,0.29375 -0.35125,0.40625c-0.23625,0.11375 -0.505,0.16875 -0.81,0.16875c-0.3875,0 -0.73375,-0.07125 -1.03625,-0.21625l0.0425,0c-0.745,-0.3175 -1.5475,-0.47625 -2.40375,-0.47625c-0.71625,0 -1.47625,0.1175 -2.27875,0.35875c0,0.46125 -0.0125,0.86 -0.03875,1.1975c-0.02875,0.33625 -0.0575,0.64125 -0.08375,0.92c-0.02625,0.27625 -0.0625,0.54125 -0.10375,0.79125c-0.04375,0.2525 -0.0775,0.51375 -0.105,0.79375c1.2975,0.07625 2.48,0.2225 3.5425,0.4325c1.06375,0.21125 1.9675,0.49 2.7125,0.83375c0.745,0.34375 1.32625,0.7575 1.74,1.2475c0.41375,0.48875 0.62375,1.04875 0.62375,1.68125c0,0.63375 -0.225,1.245 -0.665,1.83125c-0.44125,0.59 -1.05,1.13 -1.82125,1.625c-0.775,0.495 -1.7,0.9275 -2.7775,1.29875c-1.07625,0.37 -2.25,0.65125 -3.52,0.8475c0.0275,0.31875 0.05625,0.58 0.0825,0.785c0.02875,0.20375 0.0625,0.425 0.10625,0.6625c0.0375,0.23875 0.1075,0.5325 0.20625,0.88c0.09625,0.35125 0.22625,0.83 0.39125,1.43625c0,0.1325 0.0275,0.2525 0.085,0.3575c0.0525,0.10625 0.08125,0.22375 0.08125,0.35625c0,0.1325 -0.15125,0.2325 -0.45625,0.3075c-0.30375,0.0725 -0.565,0.10875 -0.78625,0.10875c-0.22125,0 -0.44,-0.03875 -0.66125,-0.11875c-0.22125,-0.07875 -0.34625,-0.21125 -0.375,-0.39625c-0.16375,-0.6075 -0.29625,-1.11625 -0.39125,-1.52375c-0.09875,-0.40875 -0.18125,-0.765 -0.2475,-1.06c-0.0725,-0.29625 -0.135,-0.56125 -0.18875,-0.79375c-0.0575,-0.22875 -0.125,-0.47875 -0.20625,-0.7425c-0.14,0.01375 -0.305,0.02375 -0.4975,0.03125c-0.195,0.00625 -0.3725,0.00875 -0.54125,0.00875c-0.99,0 -1.85625,-0.08125 -2.5875,-0.2475c-0.73,-0.16375 -1.37375,-0.37 -1.9275,-0.625c-0.5525,-0.2475 -1.04125,-0.52875 -1.46875,-0.84125c-0.4275,-0.3075 -0.82,-0.615 -1.18,-0.91875l0,0.02c-0.16625,-0.1325 -0.325,-0.26 -0.47625,-0.3875c-0.15375,-0.125 -0.2975,-0.2375 -0.435,-0.34625l0,-0.03875c-0.1375,-0.065 -0.2625,-0.14875 -0.3725,-0.2475l-0.16625,-0.2475c0,-0.12 0.09625,-0.22125 0.29125,-0.3075c0.1925,-0.08625 0.4275,-0.13 0.70125,-0.13c0.25,0 0.47625,0.03625 0.68375,0.11125c0.20875,0.07125 0.40125,0.16 0.58125,0.26625c0.1775,0.10625 0.34625,0.21875 0.495,0.3375c0.155,0.11625 0.29875,0.2175 0.4375,0.2975c0.41375,0.27625 0.81375,0.53875 1.2025,0.78125c0.385,0.2425 0.82,0.45375 1.3025,0.63375c0.48375,0.17625 1.015,0.3225 1.59625,0.43375c0.58,0.1125 1.27,0.1775 2.07,0.19c-0.055,-0.29125 -0.08875,-0.60875 -0.1025,-0.96c-0.015,-0.35125 -0.03,-0.81 -0.04375,-1.37625c-0.0125,-0.56875 -0.01875,-1.2925 -0.01875,-2.17c0,-0.8775 0,-1.99 0,-3.33375l-0.04125,0c-0.3325,-0.02875 -0.8075,-0.0675 -1.43125,-0.12c-0.62,-0.05375 -1.235,-0.1225 -1.84125,-0.2075c-0.6075,-0.08625 -1.13875,-0.19125 -1.59625,-0.31625c-0.45375,-0.12875 -0.6825,-0.2825 -0.6825,-0.4675c0,-0.32875 0.15875,-0.66375 0.47625,-1c0.3175,-0.33375 0.72625,-0.6625 1.22125,-0.98c0.4975,-0.315 1.04375,-0.61625 1.6375,-0.9c0.59375,-0.28375 1.16625,-0.55 1.71875,-0.8025l-0.04375,0l0.995,-0.47375c0,-0.47625 0,-0.88 0,-1.20875c0,-0.33 -0.00375,-0.645 -0.01875,-0.94c-0.01375,-0.29875 -0.02875,-0.61125 -0.04375,-0.94c-0.01125,-0.3325 -0.03375,-0.74125 -0.0625,-1.22875l0,-0.14c0,-0.2225 0.145,-0.39125 0.43875,-0.505c0.2875,-0.1125 0.6125,-0.1675 0.97,-0.1675c0.27625,0 0.52625,0.03625 0.74875,0.1075c0.21875,0.075 0.38625,0.1975 0.4975,0.36625" id="path134"/>
  <path fill="#b2901d" fill-rule="nonzero" d="m877.818763,525.406235c-23.21125,-6.42625 -61.123751,3.90125 -54.988751,17.41c2.88,6.3325 16.53,11.63375 29.5175,12.7275c11.4625,0.96625 23.01,-1.3275 31.21,-5.0975c7.03875,-3.2375 11.5675,-7.81 11.31875,-12.515c-0.285,-5.43125 -7.8525,-9.74125 -17.0575,-12.525c-0.99,-0.30125 -1.89875,0.44625 -0.91625,0.745c12.11875,3.66625 19.11,9.695 14.78,16.51375c-3.64125,5.73125 -14.3225,10.27 -26.3,11.7675c-15.05,1.88 -30.0725,-2.26875 -37.855001,-8.37125c-8.97125,-7.03625 0.47125,-14.9075 13.46125,-18.87125c10.67375,-3.26 24.685,-4.1475 35.913751,-1.03875c1.015,0.28125 1.92375,-0.46625 0.91625,-0.745" id="path136"/>
  <path fill="#9b6d40" fill-rule="nonzero" d="m713.212511,580.719986c-39.823751,-3.33 -65.005001,-17.0975 -81.002501,-37.665001c0.2075,-0.18125 0.38625,-0.36625 0.60875,-0.54375l-0.00875,-2.02125l0.02875,0c-0.1525,-9.53125 21.60625,-18.0625 42.731251,-18.0625c5.9825,0 11.91625,0.685 17.285,2.225c13.08625,3.8725 18.3775,8.97125 18.37625,13.9875l0.0125,0.00375l-0.0025,4.385l-0.01,2.46125c-0.00125,2.645 -1.48,5.265 -4.065,7.67c1.2,1.6 1.76,3.235 1.76,4.8625l0.01125,0.00375l0,0.45375c4.81,2.89375 6.90625,6.08 6.90625,9.23375l0.01125,0.00375l-0.0025,4.385l-0.00875,2.46125c-0.0025,2.1 -0.9475,4.18375 -2.63125,6.15625" id="path138"/>
  <path fill="#b2901d" fill-rule="nonzero" d="m632.727509,576.859986c-2.53875,-3.28375 -7.79625,-6.41 -16.52125,-8.99125c-21.3475,-6.12625 -51.591251,1.28125 -58.551251,11.4525l-1.4925,0l0.02875,6.885c0.065,2.96625 2.22625,6.0275 7.2275,8.9575c28.7325,16.855 71.155001,3.345 71.165001,-10.8425l0.01,-2.46125l0.0025,-4.385l-1.86875,-0.615" id="path140"/>
  <path fill="#f2be0b" fill-rule="nonzero" d="m616.206259,563.482486c-30.2475,-8.675 -78.425001,9.8025 -52.787501,24.8375c38.892501,22.8125 102.893752,-10.01125 52.787501,-24.8375" id="path142"/>
  <path fill="#b2901d" fill-rule="nonzero" d="m602.142509,579.993736c0,-0.37 -0.1725,-0.70875 -0.51875,-1.01875c-0.34375,-0.31 -0.79375,-0.58375 -1.34375,-0.8225c-0.55375,-0.2375 -1.18,-0.425 -1.885,-0.565c-0.70375,-0.13625 -1.40125,-0.21375 -2.09375,-0.2275c0,0.59625 -0.005,1.07 -0.01875,1.425c-0.015,0.35625 -0.03,0.66375 -0.04375,0.92375c-0.0125,0.2575 -0.03375,0.49875 -0.06,0.7325c-0.02625,0.23125 -0.05,0.5225 -0.0625,0.87c-0.0125,0.35 -0.02625,0.79125 -0.04125,1.3275c-0.01375,0.53375 -0.01875,1.23125 -0.01875,2.09c0.90875,-0.18625 1.7375,-0.43375 2.4825,-0.74375c0.7475,-0.31 1.3875,-0.665 1.92625,-1.06c0.53875,-0.39625 0.95125,-0.8225 1.2425,-1.27625c0.29125,-0.4575 0.435,-0.91625 0.435,-1.3775l0,-0.2775zm-8.77875,-6.07875c-0.5275,0.26375 -1.0175,0.5375 -1.47125,0.82375c-0.4575,0.28125 -0.755,0.5775 -0.89,0.88c0.38375,0.065 0.76875,0.11875 1.15875,0.15875c0.38375,0.03875 0.77375,0.0775 1.15875,0.11875c0.055,-0.42375 0.11,-0.785 0.16625,-1.08c0.055,-0.29625 0.1075,-0.65125 0.165,-1.06c-0.13875,0.0675 -0.235,0.12 -0.2875,0.15875zm2.89875,-6.655c0.0525,0.4525 0.115,0.83375 0.185,1.15125c0.07,0.31625 0.1225,0.61375 0.16625,0.89c0.04125,0.27625 0.07625,0.555 0.1025,0.83125c0.0275,0.27625 0.04125,0.60875 0.04125,0.99125c0.3875,-0.0675 0.775,-0.11625 1.16125,-0.14875c0.3875,-0.035 0.7575,-0.05125 1.11875,-0.05125c1.49,0 2.84375,0.29125 4.0575,0.8725l0,-0.01875c0.25,0.1175 0.375,0.27625 0.375,0.47375c0,0.15875 -0.12,0.2925 -0.35125,0.40625c-0.235,0.1125 -0.505,0.1675 -0.81,0.1675c-0.3875,0 -0.73375,-0.07125 -1.03625,-0.21625l0.04375,0c-0.74625,-0.3175 -1.54875,-0.47625 -2.405,-0.47625c-0.71625,0 -1.475,0.11875 -2.27875,0.35875c0,0.4625 -0.01125,0.86125 -0.03875,1.1975c-0.02875,0.33625 -0.0575,0.64125 -0.08375,0.92c-0.02625,0.2775 -0.0625,0.54125 -0.1025,0.79125c-0.04375,0.2525 -0.0775,0.515 -0.10625,0.79375c1.2975,0.07625 2.48125,0.22375 3.54375,0.4325c1.0625,0.2125 1.96625,0.49 2.71125,0.83375c0.745,0.34375 1.3275,0.7575 1.74125,1.24875c0.4125,0.4875 0.6225,1.0475 0.6225,1.68c0,0.635 -0.22375,1.245 -0.66375,1.8325c-0.4425,0.58875 -1.05,1.12875 -1.8225,1.625c-0.77375,0.495 -1.7,0.9275 -2.77625,1.2975c-1.0775,0.37 -2.25125,0.65125 -3.52,0.84875c0.02625,0.3175 0.055,0.58 0.08125,0.78375c0.02875,0.20375 0.06375,0.425 0.10625,0.66375c0.03875,0.2375 0.10875,0.53125 0.2075,0.88c0.095,0.35125 0.225,0.82875 0.39125,1.435c0,0.1325 0.02625,0.2525 0.08375,0.35875c0.0525,0.105 0.0825,0.2225 0.0825,0.355c0,0.1325 -0.1525,0.23375 -0.4575,0.30875c-0.3025,0.07125 -0.565,0.1075 -0.78625,0.1075c-0.22125,0 -0.44,-0.03875 -0.66,-0.1175c-0.22125,-0.08 -0.34625,-0.21125 -0.375,-0.3975c-0.16375,-0.6075 -0.29625,-1.115 -0.3925,-1.52375c-0.09875,-0.40875 -0.18,-0.76375 -0.2475,-1.06c-0.0725,-0.29625 -0.135,-0.56 -0.1875,-0.79375c-0.05875,-0.22875 -0.125,-0.4775 -0.2075,-0.7425c-0.13875,0.01375 -0.305,0.02375 -0.4975,0.03125c-0.195,0.0075 -0.3725,0.01 -0.54125,0.01c-0.99,0 -1.855,-0.0825 -2.58625,-0.2475c-0.73,-0.16375 -1.375,-0.37125 -1.9275,-0.625c-0.55375,-0.2475 -1.04125,-0.53 -1.46875,-0.8425c-0.42875,-0.3075 -0.82,-0.615 -1.18125,-0.9175l0,0.01875c-0.165,-0.1325 -0.32375,-0.26 -0.47625,-0.3875c-0.15375,-0.125 -0.2975,-0.2375 -0.435,-0.345l0,-0.04c-0.13625,-0.06375 -0.26125,-0.14875 -0.3725,-0.2475l-0.16625,-0.24625c0,-0.12125 0.09625,-0.2225 0.29125,-0.30875c0.1925,-0.08625 0.4275,-0.12875 0.7025,-0.12875c0.25,0 0.47625,0.035 0.6825,0.11c0.20875,0.0725 0.40125,0.16125 0.58125,0.26625c0.17875,0.10625 0.3475,0.22 0.49625,0.3375c0.15375,0.1175 0.2975,0.2175 0.43625,0.2975c0.41375,0.27625 0.81375,0.53875 1.2025,0.78125c0.385,0.2425 0.82,0.455 1.30375,0.635c0.4825,0.175 1.01375,0.3225 1.59625,0.4325c0.57875,0.1125 1.26875,0.1775 2.07,0.19c-0.05625,-0.29125 -0.08875,-0.60875 -0.10375,-0.95875c-0.015,-0.35125 -0.02875,-0.81125 -0.0425,-1.3775c-0.0125,-0.5675 -0.02,-1.29125 -0.02,-2.16875c0,-0.8775 0,-1.99125 0,-3.335l-0.04125,0c-0.33125,-0.02875 -0.8075,-0.0675 -1.43,-0.12c-0.62,-0.0525 -1.235,-0.1225 -1.84125,-0.20625c-0.60875,-0.0875 -1.14,-0.1925 -1.5975,-0.3175c-0.45375,-0.1275 -0.6825,-0.28125 -0.6825,-0.46625c0,-0.33 0.15875,-0.66375 0.47625,-1c0.3175,-0.335 0.72625,-0.66375 1.22125,-0.98125c0.4975,-0.315 1.04375,-0.615 1.6375,-0.89875c0.59375,-0.28375 1.16625,-0.55125 1.71875,-0.80375l-0.04375,0l0.99625,-0.47375c0,-0.475 0,-0.88 0,-1.20875c0,-0.32875 -0.005,-0.64375 -0.02,-0.94c-0.01375,-0.2975 -0.02875,-0.61125 -0.0425,-0.94c-0.0125,-0.33125 -0.03375,-0.74 -0.0625,-1.22875l0,-0.14c0,-0.2225 0.14375,-0.39125 0.4375,-0.50375c0.28875,-0.11375 0.6125,-0.16875 0.97125,-0.16875c0.27625,0 0.52625,0.03625 0.7475,0.10875c0.21875,0.07375 0.3875,0.19625 0.4975,0.365" id="path144"/>
  <path fill="#b2901d" fill-rule="nonzero" d="m635.033759,567.168736c-2.53875,-3.285 -7.79625,-6.40875 -16.52125,-8.99125c-21.34875,-6.125 -51.591251,1.28125 -58.551251,11.4525l-1.4925,0l0.02875,6.885c0.065,2.9675 2.22625,6.0275 7.22625,8.95875c28.73375,16.855 71.156251,3.34375 71.165001,-10.8425l0.01,-2.4625l0.0025,-4.385l-1.8675,-0.615" id="path146"/>
  <path fill="#f2be0b" fill-rule="nonzero" d="m618.512509,553.792486c-30.2475,-8.67625 -78.426251,9.80125 -52.788751,24.83625c38.893751,22.8125 102.895002,-10.01 52.788751,-24.83625" id="path148"/>
  <path fill="#b2901d" fill-rule="nonzero" d="m604.448759,570.303736c0,-0.37125 -0.17375,-0.71 -0.51875,-1.02c-0.345,-0.31 -0.79375,-0.58375 -1.345,-0.82125c-0.5525,-0.23875 -1.18,-0.42625 -1.88375,-0.56625c-0.705,-0.13625 -1.4025,-0.21375 -2.095,-0.2275c0,0.59625 -0.00375,1.07 -0.01875,1.425c-0.01375,0.35625 -0.02875,0.66375 -0.04375,0.92375c-0.01125,0.2575 -0.0325,0.5 -0.06,0.7325c-0.02625,0.23125 -0.05,0.5225 -0.0625,0.87125c-0.01125,0.3475 -0.02625,0.79125 -0.04125,1.32625c-0.01375,0.53375 -0.01875,1.23125 -0.01875,2.09c0.90875,-0.185 1.73875,-0.4325 2.48375,-0.74375c0.7475,-0.31 1.3875,-0.66625 1.925,-1.06c0.53875,-0.39625 0.9525,-0.82125 1.24375,-1.27625c0.29125,-0.4575 0.435,-0.91625 0.435,-1.3775l0,-0.27625zm-8.78,-6.08c-0.52625,0.26375 -1.01625,0.5375 -1.47125,0.825c-0.45625,0.28125 -0.75375,0.57625 -0.89,0.87875c0.385,0.065 0.77,0.11875 1.16,0.15875c0.38375,0.03875 0.77375,0.0775 1.15875,0.11875c0.055,-0.42375 0.11,-0.78375 0.165,-1.08c0.055,-0.295 0.10875,-0.65125 0.16625,-1.06c-0.14,0.0675 -0.23625,0.12 -0.28875,0.15875zm2.9,-6.655c0.0525,0.4525 0.115,0.83375 0.185,1.15125c0.07,0.315 0.1225,0.61375 0.165,0.89c0.04125,0.27625 0.0775,0.55625 0.10375,0.8325c0.02625,0.27625 0.04125,0.6075 0.04125,0.99c0.38625,-0.0675 0.77375,-0.11625 1.16125,-0.14875c0.3875,-0.03375 0.7575,-0.05125 1.1175,-0.05125c1.49,0 2.84375,0.29125 4.05875,0.8725l0,-0.01875c0.25,0.1175 0.375,0.27625 0.375,0.47375c0,0.15875 -0.12125,0.29375 -0.35125,0.40625c-0.23625,0.1125 -0.505,0.1675 -0.81,0.1675c-0.3875,0 -0.73375,-0.07125 -1.03625,-0.215l0.0425,0c-0.745,-0.3175 -1.5475,-0.47625 -2.40375,-0.47625c-0.71625,0 -1.47625,0.1175 -2.27875,0.3575c0,0.46125 -0.0125,0.86125 -0.03875,1.1975c-0.02875,0.33625 -0.0575,0.6425 -0.08375,0.92125c-0.02625,0.27625 -0.0625,0.54 -0.10375,0.79c-0.04375,0.2525 -0.0775,0.515 -0.10625,0.79375c1.29875,0.07625 2.48125,0.22375 3.545,0.4325c1.06125,0.21125 1.965,0.49125 2.71125,0.83375c0.745,0.345 1.32625,0.7575 1.74,1.24875c0.41375,0.4875 0.6225,1.0475 0.6225,1.68c0,0.635 -0.2225,1.245 -0.6625,1.8325c-0.4425,0.58875 -1.05125,1.12875 -1.8225,1.625c-0.775,0.495 -1.7,0.9275 -2.7775,1.2975c-1.07625,0.37125 -2.25,0.6525 -3.51875,0.84875c0.02625,0.3175 0.055,0.58 0.08125,0.78375c0.02875,0.205 0.0625,0.42625 0.10625,0.66375c0.0375,0.23875 0.1075,0.53125 0.20625,0.88c0.09625,0.35125 0.22625,0.83 0.3925,1.435c0,0.1325 0.02625,0.2525 0.08375,0.35875c0.0525,0.105 0.08125,0.22375 0.08125,0.355c0,0.1325 -0.15125,0.23375 -0.45625,0.30875c-0.30375,0.07125 -0.565,0.1075 -0.78625,0.1075c-0.22125,0 -0.44,-0.03875 -0.66125,-0.1175c-0.22125,-0.08 -0.34625,-0.21125 -0.375,-0.39625c-0.16375,-0.60875 -0.29625,-1.11625 -0.39125,-1.525c-0.09875,-0.40875 -0.18125,-0.76375 -0.2475,-1.06c-0.0725,-0.29625 -0.135,-0.56 -0.18875,-0.79375c-0.0575,-0.2275 -0.125,-0.4775 -0.20625,-0.7425c-0.14,0.015 -0.305,0.02375 -0.4975,0.03125c-0.195,0.0075 -0.3725,0.01 -0.54125,0.01c-0.99,0 -1.855,-0.0825 -2.58625,-0.24875c-0.73125,-0.1625 -1.375,-0.37 -1.92875,-0.625c-0.5525,-0.2475 -1.04125,-0.52875 -1.46875,-0.84125c-0.4275,-0.3075 -0.82,-0.615 -1.18,-0.9175l0,0.01875c-0.16625,-0.1325 -0.325,-0.26 -0.47625,-0.38625c-0.15375,-0.125 -0.29875,-0.23875 -0.435,-0.34625l0,-0.03875c-0.1375,-0.065 -0.2625,-0.14875 -0.3725,-0.24875l-0.16625,-0.24625c0,-0.12125 0.09625,-0.22125 0.29125,-0.3075c0.19125,-0.0875 0.4275,-0.13125 0.7025,-0.13125c0.24875,0 0.475,0.0375 0.68125,0.11125c0.21,0.0725 0.4025,0.16125 0.5825,0.26625c0.1775,0.10625 0.34625,0.22 0.495,0.3375c0.15375,0.1175 0.2975,0.21875 0.4375,0.2975c0.41375,0.27625 0.8125,0.53875 1.2025,0.78125c0.385,0.2425 0.82,0.455 1.3025,0.635c0.48375,0.175 1.015,0.3225 1.59625,0.4325c0.58,0.11375 1.27,0.17875 2.07,0.19c-0.055,-0.29 -0.08875,-0.6075 -0.1025,-0.95875c-0.015,-0.35125 -0.02875,-0.81 -0.04375,-1.3775c-0.0125,-0.5675 -0.01875,-1.29125 -0.01875,-2.16875c0,-0.8775 0,-1.99125 0,-3.335l-0.04125,0c-0.3325,-0.02875 -0.8075,-0.06625 -1.43125,-0.12c-0.62,-0.0525 -1.235,-0.1225 -1.84125,-0.20625c-0.6075,-0.08625 -1.13875,-0.1925 -1.59625,-0.3175c-0.45375,-0.1275 -0.6825,-0.28125 -0.6825,-0.46625c0,-0.33 0.15875,-0.66375 0.47625,-1c0.3175,-0.33375 0.72625,-0.66375 1.22125,-0.98125c0.4975,-0.315 1.04375,-0.615 1.6375,-0.89875c0.59375,-0.28375 1.16625,-0.55125 1.71875,-0.80375l-0.04375,0l0.99625,-0.4725c0,-0.47625 0,-0.88125 0,-1.21c0,-0.33 -0.005,-0.64375 -0.02,-0.94c-0.015,-0.2975 -0.02875,-0.61 -0.04375,-0.94c-0.01125,-0.33125 -0.03375,-0.74 -0.0625,-1.22875l0,-0.13875c0,-0.22375 0.145,-0.3925 0.4375,-0.505c0.28875,-0.11375 0.61375,-0.16875 0.97125,-0.16875c0.2775,0 0.52625,0.03625 0.7475,0.10875c0.21875,0.075 0.3875,0.19625 0.49875,0.365" id="path150"/>
  <path fill="#b2901d" fill-rule="nonzero" d="m630.422509,557.477486c-2.53875,-3.28375 -7.79625,-6.40875 -16.52125,-8.99125c-21.34875,-6.12625 -51.591251,1.28125 -58.551251,11.4525l-1.49375,0l0.03,6.88625c0.06375,2.96625 2.22625,6.02625 7.22625,8.95625c28.73375,16.85625 71.156251,3.345 71.165001,-10.84125l0.01,-2.4625l0.0025,-4.385l-1.8675,-0.615" id="path152"/>
  <path fill="#f2be0b" fill-rule="nonzero" d="m613.901259,544.101236c-30.24875,-8.67625 -78.426251,9.80125 -52.788751,24.83625c38.892501,22.8125 102.895002,-10.01125 52.788751,-24.83625" id="path154"/>
  <path fill="#b2901d" fill-rule="nonzero" d="m599.837509,560.612486c0,-0.37 -0.1725,-0.70875 -0.52,-1.02c-0.3425,-0.31 -0.7925,-0.58375 -1.34375,-0.82125c-0.5525,-0.23875 -1.18,-0.42625 -1.885,-0.565c-0.70375,-0.1375 -1.40125,-0.21375 -2.09375,-0.22875c0,0.59625 -0.00375,1.07 -0.01875,1.425c-0.015,0.35625 -0.02875,0.66375 -0.04375,0.92375c-0.01125,0.2575 -0.03375,0.5 -0.06,0.73375c-0.02625,0.23 -0.05,0.52125 -0.0625,0.87c-0.0125,0.34875 -0.02625,0.79125 -0.04125,1.3275c-0.01375,0.5325 -0.01875,1.23 -0.01875,2.08875c0.90875,-0.185 1.73875,-0.4325 2.48375,-0.7425c0.7475,-0.31125 1.38625,-0.66625 1.925,-1.06125c0.53875,-0.39625 0.9525,-0.82125 1.24375,-1.27625c0.29,-0.45625 0.435,-0.91625 0.435,-1.3775l0,-0.27625zm-8.78,-6.08c-0.52625,0.26375 -1.0175,0.53875 -1.47125,0.825c-0.45625,0.28125 -0.755,0.57625 -0.89,0.88c0.385,0.06375 0.77,0.1175 1.15875,0.1575c0.385,0.03875 0.775,0.0775 1.16,0.11875c0.05375,-0.42375 0.11,-0.78375 0.165,-1.08c0.055,-0.295 0.10875,-0.65125 0.16625,-1.06c-0.14,0.0675 -0.23625,0.12 -0.28875,0.15875zm2.9,-6.655c0.0525,0.4525 0.115,0.835 0.185,1.15125c0.06875,0.31625 0.1225,0.61375 0.165,0.89c0.04125,0.2775 0.0775,0.555 0.10375,0.8325c0.02625,0.27625 0.04125,0.6075 0.04125,0.99c0.38625,-0.0675 0.77375,-0.115 1.16125,-0.14875c0.38625,-0.03375 0.7575,-0.05125 1.1175,-0.05125c1.49,0 2.84375,0.29125 4.0575,0.8725l0,-0.01875c0.25,0.1175 0.37625,0.27625 0.37625,0.47375c0,0.15875 -0.12125,0.29375 -0.35125,0.40625c-0.23625,0.1125 -0.505,0.16875 -0.81,0.16875c-0.3875,0 -0.73375,-0.0725 -1.03625,-0.21625l0.0425,0c-0.745,-0.3175 -1.5475,-0.47625 -2.40375,-0.47625c-0.71625,0 -1.47625,0.1175 -2.27875,0.3575c0,0.4625 -0.0125,0.86125 -0.03875,1.1975c-0.02875,0.33625 -0.0575,0.6425 -0.08375,0.92125c-0.0275,0.27625 -0.0625,0.54 -0.10375,0.79125c-0.04375,0.2525 -0.0775,0.51375 -0.10625,0.7925c1.29875,0.0775 2.48125,0.22375 3.54375,0.43375c1.0625,0.21125 1.96625,0.49 2.71125,0.83375c0.74625,0.34375 1.3275,0.75625 1.74125,1.2475c0.41375,0.4875 0.6225,1.0475 0.6225,1.68c0,0.635 -0.22375,1.245 -0.66375,1.8325c-0.4425,0.58875 -1.05,1.13 -1.82125,1.625c-0.775,0.495 -1.70125,0.9275 -2.7775,1.2975c-1.0775,0.37125 -2.25,0.6525 -3.52,0.84875c0.0275,0.3175 0.05625,0.58 0.0825,0.78375c0.02875,0.205 0.0625,0.42625 0.105,0.66375c0.03875,0.23875 0.10875,0.53125 0.2075,0.88c0.09625,0.35125 0.22625,0.83 0.3925,1.435c0,0.1325 0.02625,0.2525 0.08375,0.35875c0.0525,0.105 0.08125,0.22375 0.08125,0.355c0,0.1325 -0.15125,0.23375 -0.45625,0.30875c-0.30375,0.0725 -0.565,0.1075 -0.78625,0.1075c-0.22125,0 -0.44,-0.0375 -0.66125,-0.1175c-0.22125,-0.07875 -0.34625,-0.21125 -0.375,-0.39625c-0.16375,-0.60875 -0.29625,-1.11625 -0.3925,-1.525c-0.09875,-0.40875 -0.18,-0.76375 -0.2475,-1.06c-0.07125,-0.29625 -0.13375,-0.56 -0.1875,-0.7925c-0.0575,-0.22875 -0.125,-0.47875 -0.20625,-0.74375c-0.14,0.015 -0.305,0.02375 -0.4975,0.03125c-0.195,0.0075 -0.37375,0.01 -0.54125,0.01c-0.99,0 -1.85625,-0.08125 -2.58625,-0.2475c-0.73125,-0.16375 -1.37625,-0.37 -1.92875,-0.625c-0.5525,-0.2475 -1.04125,-0.52875 -1.46875,-0.8425c-0.4275,-0.3075 -0.82,-0.615 -1.18,-0.9175l0,0.01875c-0.16625,-0.13125 -0.325,-0.25875 -0.4775,-0.38625c-0.1525,-0.12625 -0.2975,-0.23875 -0.43375,-0.34625l0,-0.03875c-0.1375,-0.065 -0.2625,-0.14875 -0.3725,-0.2475l-0.16625,-0.2475c0,-0.12 0.09625,-0.22125 0.29125,-0.3075c0.19125,-0.0875 0.4275,-0.13 0.70125,-0.13c0.25,0 0.47625,0.035 0.6825,0.11c0.21,0.0725 0.4025,0.16125 0.5825,0.2675c0.1775,0.105 0.34625,0.2175 0.495,0.33625c0.15375,0.1175 0.2975,0.21875 0.4375,0.29875c0.41375,0.27625 0.8125,0.5375 1.2025,0.78125c0.38375,0.2425 0.82,0.45375 1.3025,0.63375c0.48375,0.175 1.015,0.3225 1.59625,0.4325c0.58,0.11375 1.27,0.17875 2.07,0.19c-0.055,-0.29125 -0.08875,-0.6075 -0.1025,-0.95875c-0.015,-0.35125 -0.03,-0.81 -0.04375,-1.3775c-0.0125,-0.5675 -0.01875,-1.29125 -0.01875,-2.16875c0,-0.8775 0,-1.99125 0,-3.335l-0.04125,0c-0.3325,-0.0275 -0.8075,-0.06625 -1.43125,-0.12c-0.62,-0.0525 -1.235,-0.1225 -1.84125,-0.20625c-0.6075,-0.08625 -1.13875,-0.1925 -1.59625,-0.3175c-0.45375,-0.1275 -0.6825,-0.28125 -0.6825,-0.46625c0,-0.33 0.15875,-0.66375 0.47625,-1c0.3175,-0.33375 0.72625,-0.66375 1.22125,-0.98125c0.4975,-0.315 1.04375,-0.615 1.6375,-0.89875c0.5925,-0.28375 1.165,-0.55 1.71875,-0.8025l-0.04375,0l0.995,-0.475c0,-0.475 0,-0.87875 0,-1.20875c0,-0.32875 -0.005,-0.64375 -0.01875,-0.94c-0.015,-0.2975 -0.02875,-0.61 -0.04375,-0.94c-0.01125,-0.33125 -0.03375,-0.74 -0.0625,-1.2275l0,-0.14c0,-0.22375 0.145,-0.3925 0.4375,-0.505c0.28875,-0.1125 0.61375,-0.1675 0.97125,-0.1675c0.27625,0 0.52625,0.035 0.7475,0.1075c0.21875,0.07375 0.3875,0.1975 0.49875,0.365" id="path156"/>
  <path fill="#b2901d" fill-rule="nonzero" d="m612.370009,545.182486c-23.21125,-6.425 -61.123751,3.9025 -54.988751,17.41c2.88,6.33375 16.53,11.63375 29.5175,12.7275c11.4625,0.9675 23.00875,-1.32625 31.21,-5.09625c7.03875,-3.23875 11.56875,-7.81125 11.3175,-12.51625c-0.2825,-5.43 -7.85125,-9.74 -17.05625,-12.525c-0.99125,-0.3 -1.9,0.4475 -0.91625,0.745c12.11875,3.66625 19.11,9.69625 14.78,16.515c-3.6425,5.73125 -14.32375,10.27 -26.3,11.7675c-15.05,1.88 -30.0725,-2.27 -37.855001,-8.37125c-8.9725,-7.03625 0.47125,-14.9075 13.46,-18.8725c10.675,-3.26 24.685,-4.14625 35.915001,-1.03875c1.015,0.2825 1.92375,-0.465 0.91625,-0.745" id="path158"/>
  <path fill="#b2901d" fill-rule="nonzero" d="m702.45876,598.481237c-2.53875,-3.285 -7.79625,-6.41 -16.52125,-8.9925c-21.34875,-6.125 -51.591251,1.2825 -58.551251,11.45375l-1.49375,0l0.02875,6.885c0.065,2.9675 2.22625,6.0275 7.2275,8.9575c28.73375,16.855 71.156251,3.345 71.166251,-10.8425l0.00875,-2.46125l0.0025,-4.385l-1.8675,-0.615" id="path160"/>
  <path fill="#f2be0b" fill-rule="nonzero" d="m685.93751,585.104986c-30.2475,-8.6775 -78.426251,9.80125 -52.788751,24.83625c38.893751,22.81125 102.895002,-10.01125 52.788751,-24.83625" id="path162"/>
  <path fill="#b2901d" fill-rule="nonzero" d="m671.87376,601.616237c0,-0.37125 -0.17375,-0.71 -0.51875,-1.02c-0.345,-0.31 -0.79375,-0.58375 -1.345,-0.8225c-0.5525,-0.2375 -1.18,-0.425 -1.88375,-0.565c-0.705,-0.13625 -1.4025,-0.21375 -2.095,-0.2275c0,0.59625 -0.005,1.06875 -0.01875,1.425c-0.01375,0.35625 -0.02875,0.66375 -0.04375,0.92375c-0.01125,0.25625 -0.03375,0.5 -0.06,0.7325c-0.02625,0.23125 -0.05,0.5225 -0.0625,0.87125c-0.01125,0.34875 -0.02625,0.79 -0.04,1.32625c-0.015,0.53375 -0.02,1.23125 -0.02,2.09c0.90875,-0.18625 1.73875,-0.43375 2.48375,-0.74375c0.7475,-0.31 1.3875,-0.665 1.925,-1.06c0.53875,-0.39625 0.9525,-0.8225 1.24375,-1.27625c0.29125,-0.4575 0.435,-0.91625 0.435,-1.3775l0,-0.27625zm-8.78,-6.08c-0.52625,0.26375 -1.01625,0.5375 -1.47125,0.82375c-0.45625,0.28125 -0.755,0.5775 -0.89,0.88c0.385,0.065 0.77,0.1175 1.15875,0.15875c0.385,0.03875 0.775,0.0775 1.16,0.11875c0.055,-0.42375 0.11,-0.785 0.165,-1.08c0.055,-0.29625 0.10875,-0.65125 0.16625,-1.06125c-0.14,0.06875 -0.23625,0.12125 -0.28875,0.16zm2.9,-6.655c0.0525,0.4525 0.115,0.83375 0.185,1.15125c0.07,0.315 0.1225,0.6125 0.165,0.89c0.04125,0.27625 0.0775,0.555 0.10375,0.83125c0.02625,0.27625 0.04125,0.60875 0.04125,0.99125c0.38625,-0.0675 0.77375,-0.11625 1.16125,-0.15c0.38625,-0.03375 0.75625,-0.05 1.1175,-0.05c1.49,0 2.84375,0.29125 4.05875,0.8725l0,-0.01875c0.25,0.1175 0.37375,0.27625 0.37375,0.47375c0,0.1575 -0.12,0.2925 -0.35,0.40625c-0.23625,0.1125 -0.505,0.1675 -0.81,0.1675c-0.3875,0 -0.73375,-0.07125 -1.03625,-0.21625l0.0425,0c-0.745,-0.3175 -1.5475,-0.47625 -2.40375,-0.47625c-0.71625,0 -1.47625,0.11875 -2.27875,0.35875c0,0.4625 -0.0125,0.86125 -0.03875,1.1975c-0.02875,0.33625 -0.0575,0.64125 -0.08375,0.92c-0.02625,0.2775 -0.0625,0.54125 -0.10375,0.79125c-0.04375,0.2525 -0.0775,0.515 -0.10625,0.79375c1.29875,0.07625 2.48125,0.22375 3.545,0.4325c1.0625,0.21125 1.965,0.49 2.71125,0.83375c0.745,0.34375 1.32625,0.7575 1.74,1.24875c0.41375,0.4875 0.6225,1.0475 0.6225,1.68c0,0.635 -0.22375,1.245 -0.6625,1.8325c-0.4425,0.58875 -1.05125,1.12875 -1.8225,1.62375c-0.775,0.49625 -1.7,0.92875 -2.7775,1.29875c-1.07625,0.37 -2.25,0.65125 -3.51875,0.84875c0.02625,0.3175 0.055,0.58 0.08125,0.78375c0.02875,0.20375 0.0625,0.425 0.10625,0.66375c0.0375,0.2375 0.1075,0.53125 0.20625,0.88c0.09625,0.35125 0.22625,0.82875 0.39125,1.435c0,0.1325 0.0275,0.2525 0.085,0.35875c0.0525,0.105 0.08125,0.2225 0.08125,0.355c0,0.1325 -0.15125,0.23375 -0.45625,0.3075c-0.30375,0.0725 -0.565,0.10875 -0.78625,0.10875c-0.22125,0 -0.44,-0.03875 -0.66125,-0.1175c-0.22125,-0.08 -0.34625,-0.2125 -0.375,-0.3975c-0.16375,-0.6075 -0.29625,-1.115 -0.39125,-1.52375c-0.1,-0.40875 -0.18125,-0.765 -0.24875,-1.06c-0.07125,-0.29625 -0.13375,-0.56 -0.1875,-0.79375c-0.0575,-0.22875 -0.125,-0.47875 -0.20625,-0.7425c-0.14,0.01375 -0.305,0.02375 -0.4975,0.03125c-0.195,0.0075 -0.3725,0.01 -0.54125,0.01c-0.99,0 -1.85625,-0.0825 -2.58625,-0.2475c-0.73125,-0.16375 -1.375,-0.37125 -1.92875,-0.62625c-0.5525,-0.2475 -1.04125,-0.52875 -1.46875,-0.84125c-0.4275,-0.3075 -0.82,-0.615 -1.18,-0.9175l0,0.01875c-0.16625,-0.1325 -0.325,-0.26 -0.47625,-0.3875c-0.15375,-0.125 -0.29875,-0.2375 -0.435,-0.34625l0,-0.0375c-0.1375,-0.065 -0.2625,-0.15 -0.3725,-0.24875l-0.16625,-0.2475c0,-0.12 0.09625,-0.22125 0.29125,-0.3075c0.1925,-0.08625 0.4275,-0.13 0.70125,-0.13c0.25,0 0.47625,0.03625 0.68375,0.11125c0.20875,0.07125 0.40125,0.16125 0.58125,0.26625c0.1775,0.10625 0.34625,0.21875 0.495,0.3375c0.15375,0.1175 0.29875,0.21875 0.4375,0.2975c0.41375,0.27625 0.8125,0.53875 1.2025,0.78125c0.38375,0.2425 0.82,0.455 1.3025,0.635c0.48375,0.175 1.015,0.3225 1.59625,0.4325c0.58,0.1125 1.27,0.1775 2.07,0.19c-0.055,-0.29125 -0.08875,-0.60875 -0.10375,-0.95875c-0.01375,-0.35125 -0.02875,-0.81125 -0.0425,-1.3775c-0.0125,-0.5675 -0.01875,-1.29125 -0.01875,-2.16875c0,-0.8775 0,-1.99125 0,-3.335l-0.04125,0c-0.3325,-0.02875 -0.80875,-0.0675 -1.43125,-0.12c-0.62,-0.0525 -1.235,-0.1225 -1.84125,-0.20625c-0.6075,-0.0875 -1.13875,-0.1925 -1.59625,-0.3175c-0.45375,-0.1275 -0.6825,-0.28125 -0.6825,-0.4675c0,-0.32875 0.15875,-0.6625 0.47625,-0.99875c0.3175,-0.335 0.72625,-0.665 1.22125,-0.98125c0.4975,-0.315 1.04375,-0.615 1.6375,-0.89875c0.59375,-0.28375 1.16625,-0.55125 1.71875,-0.80375l-0.04375,0l0.995,-0.4725c0,-0.47625 0,-0.88125 0,-1.21c0,-0.32875 -0.00375,-0.645 -0.01875,-0.94c-0.015,-0.29875 -0.02875,-0.61 -0.04375,-0.94c-0.01125,-0.33125 -0.03375,-0.74 -0.0625,-1.22875l0,-0.13875c0,-0.22375 0.145,-0.3925 0.4375,-0.50625c0.28875,-0.1125 0.61375,-0.1675 0.97125,-0.1675c0.27625,0 0.5275,0.03625 0.7475,0.10875c0.22,0.07375 0.3875,0.19625 0.49875,0.365" id="path164"/>
  <path fill="#b2901d" fill-rule="nonzero" d="m697.84751,588.789986c-2.53875,-3.285 -7.7975,-6.40875 -16.52125,-8.99125c-21.34875,-6.12625 -51.591251,1.28 -58.551251,11.4525l-1.49375,0l0.02875,6.885c0.065,2.9675 2.22625,6.0275 7.2275,8.95875c28.73375,16.855 71.156251,3.34375 71.166251,-10.8425l0.00875,-2.4625l0.0025,-4.385l-1.8675,-0.615" id="path166"/>
  <path fill="#f2be0b" fill-rule="nonzero" d="m681.32626,575.413736c-30.24875,-8.67625 -78.426251,9.80125 -52.788751,24.83625c38.892501,22.8125 102.893752,-10.01125 52.788751,-24.83625" id="path168"/>
  <path fill="#b2901d" fill-rule="nonzero" d="m667.26251,591.924986c0,-0.37 -0.17375,-0.71 -0.52,-1.02c-0.34375,-0.31 -0.7925,-0.58375 -1.34375,-0.82125c-0.5525,-0.23875 -1.18,-0.42625 -1.885,-0.56625c-0.70375,-0.13625 -1.40125,-0.21375 -2.09375,-0.2275c0,0.59625 -0.005,1.07 -0.01875,1.425c-0.015,0.35625 -0.02875,0.66375 -0.04375,0.92375c-0.01125,0.2575 -0.03375,0.5 -0.06,0.7325c-0.02625,0.23125 -0.05,0.5225 -0.0625,0.87125c-0.01125,0.34875 -0.02625,0.79 -0.04,1.32625c-0.015,0.53375 -0.02,1.23125 -0.02,2.09c0.90875,-0.18625 1.7375,-0.43375 2.48375,-0.74375c0.7475,-0.31 1.38625,-0.66625 1.925,-1.06c0.53875,-0.39625 0.9525,-0.8225 1.24375,-1.27625c0.29,-0.4575 0.435,-0.91625 0.435,-1.3775l0,-0.27625zm-8.78,-6.08c-0.52625,0.26375 -1.0175,0.53875 -1.47125,0.82375c-0.45625,0.28125 -0.755,0.5775 -0.88875,0.88c0.38375,0.065 0.76875,0.11875 1.1575,0.15875c0.385,0.03875 0.775,0.0775 1.15875,0.11875c0.05625,-0.42375 0.11125,-0.78375 0.16625,-1.08c0.055,-0.29625 0.10875,-0.65125 0.16625,-1.06c-0.14,0.0675 -0.23625,0.12 -0.28875,0.15875zm2.9,-6.655c0.0525,0.4525 0.115,0.83375 0.185,1.15125c0.06875,0.315 0.1225,0.61375 0.165,0.89c0.04125,0.27625 0.0775,0.555 0.10375,0.83125c0.02625,0.2775 0.04125,0.60875 0.04125,0.99125c0.38625,-0.0675 0.77375,-0.115 1.16,-0.14875c0.3875,-0.03375 0.7575,-0.05125 1.11875,-0.05125c1.49,0 2.84375,0.29125 4.0575,0.8725l0,-0.01875c0.25,0.1175 0.37625,0.27625 0.37625,0.47375c0,0.15875 -0.12125,0.29375 -0.35125,0.40625c-0.23625,0.1125 -0.505,0.1675 -0.81125,0.1675c-0.38625,0 -0.7325,-0.07125 -1.03625,-0.21625l0.04375,0c-0.745,-0.3175 -1.54875,-0.475 -2.40375,-0.475c-0.71625,0 -1.47625,0.1175 -2.27875,0.3575c0,0.46125 -0.0125,0.86125 -0.03875,1.1975c-0.02875,0.33625 -0.0575,0.64125 -0.08375,0.92125c-0.0275,0.275 -0.0625,0.54 -0.10375,0.79c-0.04375,0.2525 -0.0775,0.515 -0.10625,0.79375c1.29875,0.07625 2.48125,0.22375 3.54375,0.4325c1.0625,0.21125 1.96625,0.49125 2.7125,0.83375c0.745,0.345 1.32625,0.7575 1.74,1.2475c0.41375,0.48875 0.6225,1.04875 0.6225,1.68125c0,0.635 -0.22375,1.245 -0.66375,1.8325c-0.4425,0.58875 -1.05,1.13 -1.8225,1.625c-0.77375,0.495 -1.69875,0.9275 -2.77625,1.29875c-1.0775,0.37 -2.25,0.65125 -3.52,0.8475c0.0275,0.3175 0.05625,0.58 0.0825,0.78375c0.02875,0.205 0.0625,0.42625 0.105,0.66375c0.03875,0.2375 0.10875,0.53125 0.2075,0.88c0.09625,0.35125 0.22625,0.83 0.39125,1.435c0,0.1325 0.02625,0.2525 0.085,0.35875c0.0525,0.105 0.08125,0.22375 0.08125,0.35625c0,0.13125 -0.15125,0.2325 -0.45625,0.30625c-0.30375,0.0725 -0.565,0.10875 -0.78625,0.10875c-0.22125,0 -0.44,-0.03875 -0.66125,-0.1175c-0.22125,-0.08 -0.34625,-0.21125 -0.375,-0.39625c-0.16375,-0.60875 -0.29625,-1.11625 -0.3925,-1.525c-0.0975,-0.40875 -0.18,-0.76375 -0.2475,-1.06c-0.07125,-0.29625 -0.13375,-0.56 -0.1875,-0.79375c-0.0575,-0.22875 -0.125,-0.47875 -0.20625,-0.7425c-0.14,0.015 -0.305,0.02375 -0.4975,0.03125c-0.195,0.0075 -0.37375,0.01 -0.54125,0.01c-0.99,0 -1.85625,-0.0825 -2.5875,-0.2475c-0.73,-0.16375 -1.37375,-0.37125 -1.9275,-0.625c-0.5525,-0.24875 -1.04125,-0.53 -1.46875,-0.8425c-0.42875,-0.3075 -0.82,-0.615 -1.18,-0.9175l0,0.01875c-0.16625,-0.1325 -0.325,-0.26 -0.47625,-0.3875c-0.15375,-0.125 -0.29875,-0.2375 -0.435,-0.34625l0,-0.0375c-0.1375,-0.065 -0.2625,-0.15 -0.3725,-0.2475l-0.16625,-0.24875c0,-0.12 0.09625,-0.22125 0.29125,-0.3075c0.19125,-0.08625 0.4275,-0.12875 0.70125,-0.12875c0.25,0 0.47625,0.035 0.6825,0.11c0.21,0.0725 0.4025,0.16125 0.5825,0.26625c0.1775,0.10625 0.34625,0.21875 0.495,0.3375c0.15375,0.1175 0.29875,0.21875 0.4375,0.2975c0.41375,0.2775 0.8125,0.53875 1.2025,0.78125c0.38375,0.24375 0.81875,0.455 1.3025,0.635c0.48375,0.175 1.015,0.3225 1.59625,0.4325c0.58,0.11375 1.26875,0.1775 2.07,0.19c-0.055,-0.29125 -0.08875,-0.6075 -0.10375,-0.95875c-0.01375,-0.35125 -0.02875,-0.81 -0.0425,-1.3775c-0.0125,-0.5675 -0.02,-1.29125 -0.02,-2.16875c0,-0.8775 0,-1.99 0,-3.335l-0.04,0c-0.3325,-0.02875 -0.80875,-0.06625 -1.43125,-0.12c-0.62,-0.0525 -1.235,-0.1225 -1.84125,-0.20625c-0.6075,-0.0875 -1.13875,-0.1925 -1.59625,-0.3175c-0.45375,-0.1275 -0.6825,-0.28125 -0.6825,-0.46625c0,-0.33 0.15875,-0.66375 0.47625,-1c0.31625,-0.335 0.725,-0.66375 1.22125,-0.98125c0.4975,-0.315 1.04375,-0.61625 1.63625,-0.89875c0.59375,-0.28375 1.16625,-0.55125 1.72,-0.80375l-0.04375,0l0.995,-0.4725c0,-0.47625 0,-0.88125 0,-1.21c0,-0.32875 -0.005,-0.645 -0.01875,-0.94c-0.015,-0.2975 -0.02875,-0.61 -0.04375,-0.94c-0.01125,-0.33125 -0.03375,-0.74 -0.0625,-1.22875l0,-0.13875c0,-0.22375 0.14375,-0.3925 0.4375,-0.505c0.28875,-0.11375 0.61375,-0.16875 0.97125,-0.16875c0.27625,0 0.5275,0.03625 0.7475,0.10875c0.21875,0.07375 0.3875,0.19625 0.49875,0.365" id="path170"/>
  <path fill="#b2901d" fill-rule="nonzero" d="m702.45876,579.098736c-2.53875,-3.28375 -7.79625,-6.41 -16.52125,-8.99125c-21.34875,-6.12625 -51.591251,1.28125 -58.551251,11.4525l-1.49375,0l0.02875,6.885c0.065,2.9675 2.22625,6.0275 7.2275,8.95875c28.73375,16.85375 71.156251,3.34375 71.166251,-10.8425l0.00875,-2.4625l0.0025,-4.385l-1.8675,-0.615" id="path172"/>
  <path fill="#f2be0b" fill-rule="nonzero" d="m685.93751,565.722486c-30.2475,-8.67625 -78.426251,9.80125 -52.788751,24.83625c38.893751,22.8125 102.895002,-10.01 52.788751,-24.83625" id="path174"/>
  <path fill="#b2901d" fill-rule="nonzero" d="m671.87376,582.233736c0,-0.37 -0.17375,-0.71 -0.51875,-1.02c-0.345,-0.31 -0.79375,-0.58375 -1.345,-0.8225c-0.5525,-0.2375 -1.18,-0.425 -1.88375,-0.56375c-0.705,-0.1375 -1.4025,-0.21375 -2.095,-0.22875c0,0.59625 -0.005,1.07 -0.01875,1.425c-0.01375,0.35625 -0.02875,0.66375 -0.04375,0.92375c-0.01125,0.2575 -0.03375,0.5 -0.06,0.7325c-0.02625,0.23125 -0.05,0.5225 -0.0625,0.87125c-0.01125,0.34875 -0.02625,0.79 -0.04,1.32625c-0.015,0.53375 -0.02,1.23125 -0.02,2.09c0.90875,-0.185 1.73875,-0.43375 2.48375,-0.7425c0.7475,-0.31125 1.3875,-0.66625 1.925,-1.06125c0.53875,-0.39625 0.9525,-0.8225 1.24375,-1.27625c0.29125,-0.4575 0.435,-0.91625 0.435,-1.3775l0,-0.27625zm-8.78,-6.08c-0.52625,0.265 -1.01625,0.53875 -1.47125,0.82375c-0.45625,0.2825 -0.755,0.5775 -0.89,0.88125c0.385,0.06375 0.77,0.1175 1.15875,0.1575c0.385,0.03875 0.775,0.0775 1.16,0.11875c0.055,-0.42375 0.11,-0.78375 0.165,-1.08c0.055,-0.29625 0.10875,-0.65125 0.16625,-1.06c-0.14,0.0675 -0.23625,0.12 -0.28875,0.15875zm2.9,-6.655c0.0525,0.4525 0.115,0.835 0.185,1.1525c0.07,0.31375 0.1225,0.6125 0.165,0.88875c0.04125,0.27625 0.0775,0.555 0.10375,0.8325c0.02625,0.27625 0.04125,0.6075 0.04125,0.99c0.38625,-0.0675 0.77375,-0.115 1.16125,-0.15c0.38625,-0.0325 0.75625,-0.05 1.1175,-0.05c1.49,0 2.84375,0.29125 4.05875,0.8725l0,-0.01875c0.25,0.1175 0.37375,0.27625 0.37375,0.47375c0,0.15875 -0.12,0.2925 -0.35,0.40625c-0.23625,0.1125 -0.505,0.16875 -0.81,0.16875c-0.3875,0 -0.73375,-0.0725 -1.03625,-0.21625l0.0425,0c-0.745,-0.3175 -1.5475,-0.47625 -2.40375,-0.47625c-0.71625,0 -1.47625,0.1175 -2.27875,0.3575c0,0.4625 -0.0125,0.86125 -0.03875,1.1975c-0.02875,0.33625 -0.0575,0.6425 -0.08375,0.92125c-0.02625,0.27625 -0.0625,0.54 -0.10375,0.79c-0.04375,0.2525 -0.0775,0.515 -0.10625,0.79375c1.29875,0.0775 2.48125,0.22375 3.545,0.4325c1.0625,0.2125 1.965,0.49125 2.71125,0.835c0.745,0.34375 1.32625,0.7575 1.74,1.2475c0.41375,0.4875 0.6225,1.0475 0.6225,1.68c0,0.635 -0.22375,1.24625 -0.6625,1.8325c-0.4425,0.58875 -1.05125,1.13 -1.8225,1.625c-0.775,0.495 -1.7,0.9275 -2.7775,1.2975c-1.07625,0.37125 -2.25,0.6525 -3.51875,0.84875c0.02625,0.3175 0.055,0.58 0.08125,0.78375c0.02875,0.205 0.0625,0.42625 0.10625,0.66375c0.0375,0.23875 0.1075,0.53125 0.20625,0.88c0.09625,0.35125 0.22625,0.83 0.39125,1.435c0,0.1325 0.0275,0.2525 0.085,0.35875c0.0525,0.10625 0.08125,0.22375 0.08125,0.35625c0,0.13125 -0.15125,0.2325 -0.45625,0.3075c-0.30375,0.07125 -0.565,0.1075 -0.78625,0.1075c-0.22125,0 -0.44,-0.03875 -0.66125,-0.1175c-0.22125,-0.07875 -0.34625,-0.2125 -0.375,-0.3975c-0.16375,-0.6075 -0.29625,-1.115 -0.39125,-1.52375c-0.1,-0.40875 -0.18125,-0.76375 -0.24875,-1.06c-0.07125,-0.29625 -0.13375,-0.56 -0.1875,-0.79375c-0.0575,-0.2275 -0.125,-0.4775 -0.20625,-0.7425c-0.14,0.015 -0.305,0.025 -0.4975,0.03125c-0.195,0.0075 -0.3725,0.01 -0.54125,0.01c-0.99,0 -1.85625,-0.08125 -2.58625,-0.2475c-0.73125,-0.16375 -1.375,-0.37125 -1.92875,-0.625c-0.5525,-0.2475 -1.04125,-0.52875 -1.46875,-0.8425c-0.4275,-0.3075 -0.82,-0.615 -1.18,-0.9175l0,0.01875c-0.16625,-0.1325 -0.325,-0.26 -0.47625,-0.38625c-0.15375,-0.125 -0.29875,-0.23875 -0.435,-0.34625l0,-0.03875c-0.1375,-0.065 -0.2625,-0.14875 -0.3725,-0.2475l-0.16625,-0.2475c0,-0.12 0.09625,-0.22125 0.29125,-0.30875c0.1925,-0.08625 0.4275,-0.12875 0.70125,-0.12875c0.25,0 0.47625,0.035 0.68375,0.11c0.20875,0.0725 0.40125,0.16125 0.58125,0.2675c0.1775,0.105 0.34625,0.21875 0.495,0.33625c0.15375,0.1175 0.29875,0.21875 0.4375,0.2975c0.41375,0.2775 0.8125,0.53875 1.2025,0.78125c0.38375,0.24375 0.82,0.455 1.3025,0.635c0.48375,0.175 1.015,0.3225 1.59625,0.4325c0.58,0.11375 1.27,0.17875 2.07,0.19c-0.055,-0.29125 -0.08875,-0.6075 -0.10375,-0.95875c-0.01375,-0.35125 -0.02875,-0.81 -0.0425,-1.3775c-0.0125,-0.5675 -0.01875,-1.29125 -0.01875,-2.16875c0,-0.8775 0,-1.99125 0,-3.33375l-0.04125,0c-0.3325,-0.03 -0.80875,-0.0675 -1.43125,-0.12c-0.62,-0.05375 -1.235,-0.12375 -1.84125,-0.2075c-0.6075,-0.08625 -1.13875,-0.1925 -1.59625,-0.3175c-0.45375,-0.1275 -0.6825,-0.28125 -0.6825,-0.46625c0,-0.32875 0.15875,-0.66375 0.47625,-1c0.3175,-0.335 0.72625,-0.66375 1.22125,-0.98125c0.4975,-0.315 1.04375,-0.615 1.6375,-0.89875c0.59375,-0.28375 1.16625,-0.55125 1.71875,-0.8025l-0.04375,0l0.995,-0.47375c0,-0.47625 0,-0.88 0,-1.21c0,-0.32875 -0.00375,-0.64375 -0.01875,-0.94c-0.015,-0.2975 -0.02875,-0.61 -0.04375,-0.94c-0.01125,-0.33125 -0.03375,-0.74 -0.0625,-1.22875l0,-0.13875c0,-0.22375 0.145,-0.3925 0.4375,-0.505c0.28875,-0.11375 0.61375,-0.16875 0.97125,-0.16875c0.27625,0 0.5275,0.03625 0.7475,0.10875c0.22,0.075 0.3875,0.1975 0.49875,0.365" id="path176"/>
  <path fill="#b2901d" fill-rule="nonzero" d="m707.070011,569.407486c-2.53875,-3.28375 -7.79625,-6.40875 -16.52125,-8.99125c-21.3475,-6.12625 -51.591251,1.28125 -58.551251,11.45375l-1.4925,0l0.02875,6.885c0.065,2.96625 2.22625,6.02625 7.22625,8.9575c28.73375,16.855 71.156251,3.34375 71.166251,-10.8425l0.00875,-2.4625l0.0025,-4.385l-1.8675,-0.615" id="path178"/>
  <path fill="#f2be0b" fill-rule="nonzero" d="m690.54876,556.031236c-30.24875,-8.67625 -78.426251,9.80125 -52.788751,24.83625c38.893751,22.8125 102.895002,-10.01 52.788751,-24.83625" id="path180"/>
  <path fill="#b2901d" fill-rule="nonzero" d="m676.48501,572.542486c0,-0.37 -0.1725,-0.71 -0.51875,-1.02c-0.34375,-0.31 -0.79375,-0.58375 -1.34375,-0.82125c-0.55375,-0.23875 -1.18125,-0.42625 -1.885,-0.565c-0.705,-0.1375 -1.4025,-0.21375 -2.09375,-0.22875c0,0.59625 -0.005,1.07 -0.02,1.425c-0.015,0.35625 -0.02875,0.665 -0.04375,0.92375c-0.01125,0.2575 -0.0325,0.5 -0.05875,0.73375c-0.0275,0.23 -0.05125,0.52125 -0.06375,0.87c-0.01125,0.34875 -0.02625,0.79125 -0.04,1.32625c-0.015,0.535 -0.02,1.23125 -0.02,2.09c0.90875,-0.185 1.73875,-0.4325 2.48375,-0.7425c0.7475,-0.31125 1.3875,-0.66625 1.92625,-1.06c0.5375,-0.3975 0.95125,-0.8225 1.2425,-1.2775c0.29125,-0.45625 0.435,-0.91625 0.435,-1.3775l0,-0.27625zm-8.78,-6.08c-0.52625,0.265 -1.01625,0.53875 -1.47125,0.82375c-0.45625,0.2825 -0.755,0.5775 -0.88875,0.88125c0.38375,0.06375 0.76875,0.1175 1.15875,0.15875c0.385,0.0375 0.77375,0.07625 1.15875,0.1175c0.055,-0.42375 0.11,-0.78375 0.165,-1.08c0.05625,-0.295 0.10875,-0.65125 0.16625,-1.06c-0.13875,0.0675 -0.235,0.12 -0.28875,0.15875zm2.9,-6.65375c0.0525,0.45125 0.115,0.83375 0.185,1.15c0.07,0.31625 0.1225,0.61375 0.16625,0.89c0.04,0.2775 0.07625,0.555 0.1025,0.8325c0.02625,0.27625 0.04125,0.6075 0.04125,0.99c0.3875,-0.0675 0.77375,-0.115 1.16125,-0.14875c0.3875,-0.03375 0.7575,-0.05125 1.1175,-0.05125c1.49125,0 2.84375,0.29125 4.05875,0.87375l0,-0.02c0.25,0.1175 0.375,0.27625 0.375,0.47375c0,0.15875 -0.12,0.29375 -0.35125,0.40625c-0.23625,0.11375 -0.505,0.16875 -0.81,0.16875c-0.3875,0 -0.73375,-0.0725 -1.03625,-0.21625l0.0425,0c-0.745,-0.3175 -1.5475,-0.47625 -2.40375,-0.47625c-0.71625,0 -1.47625,0.1175 -2.27875,0.3575c0,0.4625 -0.0125,0.86125 -0.03875,1.1975c-0.02875,0.3375 -0.0575,0.6425 -0.08375,0.92125c-0.02625,0.27625 -0.0625,0.54 -0.10375,0.79125c-0.0425,0.25125 -0.0775,0.51375 -0.105,0.7925c1.2975,0.0775 2.48,0.22375 3.5425,0.4325c1.06375,0.2125 1.9675,0.49125 2.7125,0.835c0.745,0.34375 1.3275,0.7575 1.74,1.2475c0.41375,0.48875 0.6225,1.04875 0.6225,1.68c0,0.635 -0.2225,1.24625 -0.6625,1.8325c-0.4425,0.58875 -1.05125,1.13 -1.8225,1.625c-0.77375,0.495 -1.7,0.92875 -2.7775,1.29875c-1.07625,0.37 -2.25,0.65125 -3.51875,0.8475c0.02625,0.3175 0.055,0.58 0.08125,0.785c0.02875,0.20375 0.0625,0.425 0.10625,0.6625c0.03875,0.23875 0.1075,0.53125 0.20625,0.88c0.09625,0.35125 0.22625,0.83 0.39125,1.435c0,0.1325 0.0275,0.2525 0.085,0.35875c0.0525,0.10625 0.08125,0.22375 0.08125,0.35625c0,0.13125 -0.15125,0.2325 -0.45625,0.3075c-0.30375,0.07125 -0.565,0.1075 -0.78625,0.1075c-0.22125,0 -0.44,-0.0375 -0.66125,-0.1175c-0.22125,-0.07875 -0.34625,-0.21125 -0.375,-0.39625c-0.16375,-0.60875 -0.29625,-1.11625 -0.39125,-1.52375c-0.09875,-0.41 -0.18125,-0.765 -0.2475,-1.06125c-0.0725,-0.295 -0.135,-0.56 -0.18875,-0.7925c-0.0575,-0.22875 -0.125,-0.47875 -0.20625,-0.74375c-0.14,0.015 -0.305,0.02375 -0.4975,0.03125c-0.195,0.0075 -0.3725,0.01 -0.54125,0.01c-0.99,0 -1.85625,-0.0825 -2.5875,-0.2475c-0.73,-0.16375 -1.37375,-0.37 -1.9275,-0.625c-0.5525,-0.24875 -1.04,-0.52875 -1.46875,-0.84125c-0.4275,-0.30875 -0.82,-0.61625 -1.18,-0.91875l0,0.01875c-0.16625,-0.13125 -0.325,-0.25875 -0.47625,-0.38625c-0.15375,-0.125 -0.2975,-0.23875 -0.435,-0.34625l0,-0.03875c-0.1375,-0.065 -0.2625,-0.14875 -0.3725,-0.2475l-0.16625,-0.2475c0,-0.12125 0.09625,-0.22125 0.29125,-0.3075c0.1925,-0.0875 0.4275,-0.13 0.70125,-0.13c0.25,0 0.47625,0.03625 0.68375,0.11c0.20875,0.0725 0.40125,0.16125 0.58125,0.2675c0.1775,0.105 0.34625,0.21875 0.495,0.33625c0.15375,0.1175 0.29875,0.21875 0.43875,0.2975c0.4125,0.2775 0.8125,0.53875 1.20125,0.78125c0.385,0.24375 0.82,0.455 1.3025,0.635c0.48375,0.17625 1.015,0.3225 1.59625,0.4325c0.58,0.11375 1.27,0.17875 2.07,0.19125c-0.055,-0.29125 -0.08875,-0.60875 -0.1025,-0.96c-0.015,-0.35125 -0.03,-0.81 -0.04375,-1.3775c-0.0125,-0.5675 -0.01875,-1.29125 -0.01875,-2.16875c0,-0.8775 0,-1.99 0,-3.33375l-0.04125,0c-0.3325,-0.02875 -0.8075,-0.0675 -1.43,-0.12c-0.62125,-0.05375 -1.23625,-0.1225 -1.84125,-0.2075c-0.60875,-0.08625 -1.14,-0.1925 -1.5975,-0.3175c-0.45375,-0.1275 -0.6825,-0.28125 -0.6825,-0.46625c0,-0.33 0.15875,-0.66375 0.47625,-1c0.3175,-0.335 0.72625,-0.66375 1.22125,-0.98125c0.4975,-0.315 1.04375,-0.615 1.6375,-0.89875c0.59375,-0.28375 1.165,-0.55 1.71875,-0.80375l-0.04375,0l0.995,-0.4725c0,-0.47625 0,-0.88 0,-1.21c0,-0.32875 -0.00375,-0.64375 -0.01875,-0.94c-0.01375,-0.2975 -0.02875,-0.61 -0.04375,-0.94c-0.01125,-0.33125 -0.03375,-0.74 -0.0625,-1.2275l0,-0.14c0,-0.22375 0.145,-0.39125 0.43875,-0.505c0.2875,-0.1125 0.6125,-0.16875 0.97,-0.16875c0.2775,0 0.5275,0.03625 0.74875,0.10875c0.2175,0.075 0.38625,0.1975 0.4975,0.36625" id="path182"/>
  <path fill="#b2901d" fill-rule="nonzero" d="m700.15251,559.716236c-2.53875,-3.28375 -7.79625,-6.40875 -16.52125,-8.99125c-21.3475,-6.12625 -51.591251,1.28125 -58.551251,11.4525l-1.4925,0l0.02875,6.88625c0.065,2.96625 2.22625,6.02625 7.22625,8.9575c28.73375,16.855 71.156251,3.34375 71.166251,-10.8425l0.01,-2.4625l0.0025,-4.38375l-1.86875,-0.61625" id="path184"/>
  <path fill="#f2be0b" fill-rule="nonzero" d="m683.63126,546.339986c-30.2475,-8.67625 -78.425001,9.80125 -52.788751,24.83625c38.893751,22.8125 102.895002,-10.01 52.788751,-24.83625" id="path186"/>
  <path fill="#b2901d" fill-rule="nonzero" d="m669.56751,562.851236c0,-0.37 -0.1725,-0.70875 -0.51875,-1.01875c-0.34375,-0.31 -0.79375,-0.585 -1.34375,-0.8225c-0.55375,-0.2375 -1.18125,-0.42625 -1.885,-0.565c-0.705,-0.1375 -1.40125,-0.21375 -2.09375,-0.22875c0,0.59625 -0.005,1.07 -0.01875,1.42625c-0.015,0.355 -0.03,0.6625 -0.04375,0.9225c-0.0125,0.2575 -0.03375,0.5 -0.06,0.73375c-0.0275,0.23125 -0.05125,0.52125 -0.0625,0.87c-0.0125,0.34875 -0.02625,0.79125 -0.04125,1.32625c-0.015,0.535 -0.01875,1.23125 -0.01875,2.09c0.90875,-0.185 1.7375,-0.4325 2.4825,-0.7425c0.74875,-0.31125 1.3875,-0.66625 1.92625,-1.06125c0.53875,-0.39625 0.9525,-0.82125 1.2425,-1.27625c0.29125,-0.45625 0.435,-0.915 0.435,-1.3775l0,-0.27625zm-8.78,-6.08c-0.52625,0.265 -1.01625,0.53875 -1.47,0.825c-0.4575,0.28125 -0.75625,0.57625 -0.89,0.88c0.38375,0.06375 0.76875,0.1175 1.15875,0.15875c0.385,0.03875 0.77375,0.07625 1.15875,0.1175c0.055,-0.42375 0.11,-0.78375 0.16625,-1.08c0.055,-0.295 0.1075,-0.65125 0.165,-1.06c-0.13875,0.0675 -0.235,0.12125 -0.28875,0.15875zm2.9,-6.655c0.0525,0.4525 0.115,0.835 0.185,1.1525c0.07,0.315 0.1225,0.6125 0.16625,0.88875c0.04,0.2775 0.07625,0.555 0.1025,0.8325c0.0275,0.27625 0.04125,0.6075 0.04125,0.99c0.3875,-0.0675 0.775,-0.115 1.16125,-0.14875c0.3875,-0.03375 0.7575,-0.05 1.1175,-0.05c1.49125,0 2.845,0.29 4.05875,0.8725l0,-0.02c0.25,0.11875 0.375,0.27625 0.375,0.47375c0,0.15875 -0.12,0.29375 -0.35125,0.40625c-0.235,0.11375 -0.505,0.16875 -0.81,0.16875c-0.3875,0 -0.73375,-0.0725 -1.03625,-0.21625l0.04375,0c-0.74625,-0.3175 -1.54875,-0.47625 -2.405,-0.47625c-0.71625,0 -1.47625,0.1175 -2.27875,0.35875c0,0.46125 -0.01125,0.86 -0.03875,1.19625c-0.02875,0.3375 -0.0575,0.6425 -0.08375,0.92125c-0.02625,0.27625 -0.0625,0.54125 -0.10375,0.79125c-0.0425,0.2525 -0.07625,0.51375 -0.105,0.7925c1.2975,0.0775 2.48125,0.22375 3.54375,0.4325c1.0625,0.2125 1.96625,0.49125 2.71125,0.835c0.745,0.34375 1.3275,0.7575 1.74,1.2475c0.41375,0.48875 0.62375,1.04875 0.62375,1.68125c0,0.63375 -0.22375,1.245 -0.66375,1.83125c-0.4425,0.58875 -1.05,1.13 -1.8225,1.625c-0.77375,0.495 -1.7,0.9275 -2.77625,1.29875c-1.0775,0.37 -2.25125,0.65125 -3.52,0.84875c0.02625,0.3175 0.055,0.57875 0.08125,0.78375c0.02875,0.20375 0.06375,0.425 0.10625,0.6625c0.03875,0.23875 0.10875,0.53125 0.20625,0.88c0.09625,0.35125 0.22625,0.83 0.3925,1.43625c0,0.13125 0.02625,0.25125 0.08375,0.3575c0.05375,0.10625 0.0825,0.22375 0.0825,0.35625c0,0.1325 -0.1525,0.2325 -0.4575,0.3075c-0.3025,0.0725 -0.565,0.10875 -0.78625,0.10875c-0.22125,0 -0.44,-0.03875 -0.66125,-0.11875c-0.22125,-0.07875 -0.34625,-0.21125 -0.375,-0.39625c-0.1625,-0.60875 -0.295,-1.11625 -0.39125,-1.525c-0.09875,-0.4075 -0.18,-0.76375 -0.2475,-1.06c-0.0725,-0.295 -0.135,-0.56 -0.1875,-0.7925c-0.0575,-0.22875 -0.125,-0.47875 -0.2075,-0.74375c-0.13875,0.015 -0.305,0.025 -0.4975,0.03125c-0.195,0.0075 -0.3725,0.01 -0.54125,0.01c-0.99,0 -1.855,-0.08125 -2.58625,-0.2475c-0.73,-0.16375 -1.375,-0.37 -1.92875,-0.625c-0.5525,-0.2475 -1.04,-0.52875 -1.4675,-0.84125c-0.42875,-0.3075 -0.82,-0.61625 -1.18125,-0.91875l0,0.02c-0.16625,-0.1325 -0.32375,-0.26 -0.47625,-0.3875c-0.15375,-0.125 -0.2975,-0.23875 -0.435,-0.34625l0,-0.03875c-0.13625,-0.065 -0.26125,-0.14875 -0.3725,-0.2475l-0.16625,-0.2475c0,-0.12 0.09625,-0.22125 0.29125,-0.3075c0.1925,-0.08625 0.4275,-0.13 0.7025,-0.13c0.25,0 0.47625,0.03625 0.6825,0.11c0.20875,0.0725 0.40125,0.16125 0.58125,0.2675c0.17875,0.105 0.34625,0.21875 0.49625,0.33625c0.15375,0.1175 0.2975,0.21875 0.43625,0.29875c0.41375,0.27625 0.81375,0.5375 1.2025,0.78125c0.385,0.2425 0.82,0.45375 1.30375,0.63375c0.4825,0.17625 1.01375,0.3225 1.59625,0.43375c0.57875,0.1125 1.26875,0.1775 2.07,0.19c-0.05625,-0.29125 -0.09,-0.60875 -0.10375,-0.96c-0.015,-0.35125 -0.02875,-0.81 -0.0425,-1.3775c-0.0125,-0.5675 -0.02,-1.29125 -0.02,-2.16875c0,-0.8775 0,-1.99 0,-3.33375l-0.04125,0c-0.33125,-0.02875 -0.8075,-0.0675 -1.43,-0.12c-0.62,-0.05375 -1.23625,-0.1225 -1.84125,-0.2075c-0.60875,-0.08625 -1.14,-0.1925 -1.59625,-0.31625c-0.455,-0.12875 -0.68375,-0.2825 -0.68375,-0.4675c0,-0.32875 0.15875,-0.66375 0.47625,-1c0.3175,-0.33375 0.72625,-0.66375 1.22125,-0.98c0.49875,-0.315 1.04375,-0.61625 1.6375,-0.9c0.59375,-0.28375 1.16625,-0.55 1.71875,-0.8025l-0.04375,0l0.99625,-0.47375c0,-0.47625 0,-0.88 0,-1.21c0,-0.32875 -0.005,-0.64375 -0.02,-0.93875c-0.01375,-0.29875 -0.02875,-0.61125 -0.0425,-0.94c-0.0125,-0.3325 -0.03375,-0.74125 -0.0625,-1.23l0,-0.13875c0,-0.22375 0.14375,-0.3925 0.4375,-0.505c0.28875,-0.1125 0.6125,-0.1675 0.97125,-0.1675c0.27625,0 0.52625,0.035 0.7475,0.1075c0.21875,0.075 0.38625,0.1975 0.4975,0.365" id="path188"/>
  <path fill="#b2901d" fill-rule="nonzero" d="m697.84751,550.026236c-2.53875,-3.285 -7.7975,-6.41 -16.52125,-8.9925c-21.34875,-6.125 -51.591251,1.28125 -58.551251,11.45375l-1.49375,0l0.02875,6.885c0.065,2.96625 2.22625,6.0275 7.2275,8.9575c28.73375,16.855 71.156251,3.34375 71.166251,-10.8425l0.00875,-2.46125l0.0025,-4.385l-1.8675,-0.615" id="path190"/>
  <path fill="#f2be0b" fill-rule="nonzero" d="m681.32626,536.648736c-30.24875,-8.67625 -78.426251,9.80125 -52.788751,24.8375c38.892501,22.8125 102.893752,-10.01125 52.788751,-24.8375" id="path192"/>
  <path fill="#b2901d" fill-rule="nonzero" d="m667.26251,553.159986c0,-0.37 -0.17375,-0.70875 -0.52,-1.01875c-0.34375,-0.31 -0.7925,-0.585 -1.34375,-0.8225c-0.5525,-0.2375 -1.18,-0.425 -1.885,-0.565c-0.70375,-0.1375 -1.40125,-0.21375 -2.09375,-0.22875c0,0.59625 -0.005,1.07 -0.01875,1.42625c-0.015,0.355 -0.02875,0.66375 -0.04375,0.9225c-0.01125,0.2575 -0.03375,0.5 -0.06,0.73375c-0.02625,0.23 -0.05,0.52125 -0.0625,0.87c-0.01125,0.34875 -0.02625,0.79125 -0.04,1.3275c-0.015,0.53375 -0.02,1.23 -0.02,2.08875c0.90875,-0.185 1.7375,-0.4325 2.48375,-0.7425c0.7475,-0.31 1.38625,-0.66625 1.925,-1.06c0.53875,-0.3975 0.9525,-0.8225 1.24375,-1.27625c0.29,-0.4575 0.435,-0.91625 0.435,-1.37875l0,-0.27625zm-8.78,-6.08c-0.52625,0.265 -1.0175,0.53875 -1.47125,0.825c-0.45625,0.28125 -0.755,0.5775 -0.88875,0.88c0.38375,0.065 0.76875,0.1175 1.1575,0.15875c0.385,0.03875 0.775,0.0775 1.15875,0.1175c0.05625,-0.4225 0.11125,-0.78375 0.16625,-1.08c0.055,-0.295 0.10875,-0.65125 0.16625,-1.06c-0.14,0.0675 -0.23625,0.12125 -0.28875,0.15875zm2.9,-6.65375c0.0525,0.45125 0.115,0.83375 0.185,1.15125c0.06875,0.315 0.1225,0.6125 0.165,0.89c0.04125,0.27625 0.0775,0.555 0.10375,0.83125c0.02625,0.27625 0.04125,0.6075 0.04125,0.99c0.38625,-0.0675 0.77375,-0.115 1.16,-0.14875c0.3875,-0.03375 0.7575,-0.05 1.11875,-0.05c1.49,0 2.84375,0.29 4.0575,0.8725l0,-0.02c0.25,0.11875 0.37625,0.2775 0.37625,0.47375c0,0.15875 -0.12125,0.29375 -0.35125,0.40625c-0.23625,0.11375 -0.505,0.16875 -0.81125,0.16875c-0.38625,0 -0.7325,-0.0725 -1.03625,-0.21625l0.04375,0c-0.745,-0.3175 -1.54875,-0.47625 -2.40375,-0.47625c-0.71625,0 -1.47625,0.1175 -2.27875,0.35875c0,0.46125 -0.0125,0.86 -0.03875,1.1975c-0.02875,0.33625 -0.0575,0.64125 -0.08375,0.92c-0.0275,0.27625 -0.0625,0.54125 -0.10375,0.79125c-0.04375,0.2525 -0.0775,0.51375 -0.10625,0.79375c1.29875,0.07625 2.48125,0.2225 3.54375,0.4325c1.0625,0.21125 1.96625,0.49 2.7125,0.83375c0.745,0.34375 1.32625,0.7575 1.74,1.2475c0.41375,0.4875 0.6225,1.04875 0.6225,1.68125c0,0.63375 -0.22375,1.245 -0.66375,1.83125c-0.4425,0.58875 -1.05,1.13 -1.8225,1.625c-0.77375,0.495 -1.69875,0.92875 -2.77625,1.29875c-1.0775,0.37 -2.25,0.65125 -3.52,0.84875c0.0275,0.3175 0.05625,0.57875 0.0825,0.78375c0.02875,0.20375 0.0625,0.425 0.105,0.66375c0.03875,0.2375 0.10875,0.53125 0.2075,0.88c0.09625,0.35 0.22625,0.82875 0.39125,1.43375c0,0.13375 0.02625,0.25375 0.085,0.35875c0.0525,0.10625 0.08125,0.22375 0.08125,0.35625c0,0.1325 -0.15125,0.2325 -0.45625,0.3075c-0.30375,0.0725 -0.565,0.10875 -0.78625,0.10875c-0.22125,0 -0.44,-0.03875 -0.66125,-0.11875c-0.22125,-0.07875 -0.34625,-0.21125 -0.375,-0.39625c-0.16375,-0.60875 -0.29625,-1.115 -0.3925,-1.52375c-0.0975,-0.40875 -0.18,-0.765 -0.2475,-1.06125c-0.07125,-0.295 -0.13375,-0.56 -0.1875,-0.7925c-0.0575,-0.22875 -0.125,-0.47875 -0.20625,-0.7425c-0.14,0.01375 -0.305,0.02375 -0.4975,0.03125c-0.195,0.00625 -0.37375,0.00875 -0.54125,0.00875c-0.99,0 -1.85625,-0.08125 -2.5875,-0.2475c-0.73,-0.16375 -1.37375,-0.37 -1.9275,-0.625c-0.5525,-0.2475 -1.04125,-0.52875 -1.46875,-0.84125c-0.42875,-0.3075 -0.82,-0.61625 -1.18,-0.91875l0,0.02c-0.16625,-0.1325 -0.325,-0.26 -0.47625,-0.3875c-0.15375,-0.125 -0.29875,-0.2375 -0.435,-0.34625l0,-0.03875c-0.1375,-0.06375 -0.2625,-0.14875 -0.3725,-0.2475l-0.16625,-0.2475c0,-0.12 0.09625,-0.22125 0.29125,-0.3075c0.19125,-0.08625 0.4275,-0.13 0.70125,-0.13c0.25,0 0.47625,0.03625 0.6825,0.11c0.21,0.0725 0.4025,0.1625 0.5825,0.2675c0.1775,0.10625 0.34625,0.21875 0.495,0.33625c0.15375,0.11875 0.29875,0.21875 0.4375,0.29875c0.41375,0.27625 0.8125,0.53875 1.2025,0.78125c0.38375,0.2425 0.81875,0.45375 1.3025,0.63375c0.48375,0.17625 1.015,0.3225 1.59625,0.43375c0.58,0.1125 1.26875,0.1775 2.07,0.19c-0.055,-0.29125 -0.08875,-0.60875 -0.10375,-0.96c-0.01375,-0.35125 -0.02875,-0.81 -0.0425,-1.3775c-0.0125,-0.5675 -0.02,-1.29125 -0.02,-2.16875c0,-0.8775 0,-1.99 0,-3.33375l-0.04,0c-0.3325,-0.02875 -0.80875,-0.0675 -1.43125,-0.12c-0.62,-0.05375 -1.235,-0.1225 -1.84125,-0.2075c-0.6075,-0.08625 -1.13875,-0.19125 -1.59625,-0.3175c-0.45375,-0.12625 -0.6825,-0.28125 -0.6825,-0.465c0,-0.33 0.15875,-0.665 0.47625,-1.00125c0.31625,-0.33375 0.725,-0.66375 1.22125,-0.98c0.4975,-0.315 1.04375,-0.61625 1.63625,-0.9c0.59375,-0.28375 1.16625,-0.55 1.72,-0.8025l-0.04375,0l0.995,-0.47375c0,-0.47625 0,-0.88 0,-1.20875c0,-0.33 -0.005,-0.645 -0.01875,-0.94c-0.015,-0.29875 -0.02875,-0.61125 -0.04375,-0.94c-0.01125,-0.3325 -0.03375,-0.74125 -0.0625,-1.22875l0,-0.14c0,-0.22375 0.14375,-0.39125 0.4375,-0.505c0.28875,-0.1125 0.61375,-0.1675 0.97125,-0.1675c0.27625,0 0.5275,0.03625 0.7475,0.1075c0.21875,0.075 0.3875,0.1975 0.49875,0.36625" id="path194"/>
  <path fill="#b2901d" fill-rule="nonzero" d="m702.45876,540.333736c-2.53875,-3.2825 -7.79625,-6.40875 -16.52125,-8.99125c-21.34875,-6.125 -51.591251,1.2825 -58.551251,11.45375l-1.49375,0l0.02875,6.885c0.065,2.96625 2.22625,6.0275 7.2275,8.9575c28.73375,16.855 71.156251,3.34375 71.166251,-10.8425l0.00875,-2.46125l0.0025,-4.385l-1.8675,-0.61625" id="path196"/>
  <path fill="#f2be0b" fill-rule="nonzero" d="m685.93751,526.957486c-30.2475,-8.67625 -78.426251,9.8025 -52.788751,24.8375c38.893751,22.81125 102.895002,-10.01125 52.788751,-24.8375" id="path198"/>
  <path fill="#b2901d" fill-rule="nonzero" d="m671.87376,543.468736c0,-0.37 -0.17375,-0.70875 -0.51875,-1.01875c-0.345,-0.31 -0.79375,-0.585 -1.345,-0.8225c-0.5525,-0.2375 -1.18,-0.425 -1.88375,-0.565c-0.705,-0.13625 -1.4025,-0.21375 -2.095,-0.2275c0,0.595 -0.005,1.06875 -0.01875,1.425c-0.01375,0.355 -0.02875,0.66375 -0.04375,0.92375c-0.01125,0.25625 -0.03375,0.5 -0.06,0.7325c-0.02625,0.23125 -0.05,0.5225 -0.0625,0.87c-0.01125,0.34875 -0.02625,0.79125 -0.04,1.3275c-0.015,0.53375 -0.02,1.23125 -0.02,2.08875c0.90875,-0.185 1.73875,-0.4325 2.48375,-0.7425c0.7475,-0.31 1.3875,-0.66625 1.925,-1.06c0.53875,-0.39625 0.9525,-0.8225 1.24375,-1.27625c0.29125,-0.4575 0.435,-0.91625 0.435,-1.37875l0,-0.27625zm-8.78,-6.07875c-0.52625,0.26375 -1.01625,0.5375 -1.47125,0.82375c-0.45625,0.28125 -0.755,0.5775 -0.89,0.88c0.385,0.065 0.77,0.1175 1.15875,0.15875c0.385,0.03875 0.775,0.07625 1.16,0.1175c0.055,-0.4225 0.11,-0.78375 0.165,-1.07875c0.055,-0.29625 0.10875,-0.6525 0.16625,-1.06125c-0.14,0.06875 -0.23625,0.12125 -0.28875,0.16zm2.9,-6.655c0.0525,0.45125 0.115,0.83375 0.185,1.15125c0.07,0.315 0.1225,0.6125 0.165,0.89c0.04125,0.27625 0.0775,0.555 0.10375,0.83125c0.02625,0.27625 0.04125,0.60875 0.04125,0.99c0.38625,-0.06625 0.77375,-0.115 1.16125,-0.14875c0.38625,-0.03375 0.75625,-0.05 1.1175,-0.05c1.49,0 2.84375,0.29 4.05875,0.8725l0,-0.01875c0.25,0.1175 0.37375,0.27625 0.37375,0.4725c0,0.15875 -0.12,0.29375 -0.35,0.40625c-0.23625,0.11375 -0.505,0.16875 -0.81,0.16875c-0.3875,0 -0.73375,-0.07125 -1.03625,-0.21625l0.0425,0c-0.745,-0.3175 -1.5475,-0.47625 -2.40375,-0.47625c-0.71625,0 -1.47625,0.1175 -2.27875,0.35875c0,0.46125 -0.0125,0.86 -0.03875,1.1975c-0.02875,0.33625 -0.0575,0.64125 -0.08375,0.92c-0.02625,0.27625 -0.0625,0.54125 -0.10375,0.79125c-0.04375,0.2525 -0.0775,0.515 -0.10625,0.79375c1.29875,0.07625 2.48125,0.22375 3.545,0.4325c1.0625,0.21125 1.965,0.49 2.71125,0.83375c0.745,0.34375 1.32625,0.7575 1.74,1.2475c0.41375,0.48875 0.6225,1.04875 0.6225,1.68125c0,0.635 -0.22375,1.245 -0.6625,1.83125c-0.4425,0.59 -1.05125,1.13 -1.8225,1.625c-0.775,0.49625 -1.7,0.92875 -2.7775,1.29875c-1.07625,0.37 -2.25,0.65125 -3.51875,0.84875c0.02625,0.3175 0.055,0.57875 0.08125,0.78375c0.02875,0.20375 0.0625,0.425 0.10625,0.66375c0.0375,0.2375 0.1075,0.53125 0.20625,0.88c0.09625,0.35 0.22625,0.82875 0.39125,1.435c0,0.1325 0.0275,0.2525 0.085,0.3575c0.0525,0.10625 0.08125,0.22375 0.08125,0.35625c0,0.1325 -0.15125,0.23375 -0.45625,0.3075c-0.30375,0.0725 -0.565,0.10875 -0.78625,0.10875c-0.22125,0 -0.44,-0.03875 -0.66125,-0.1175c-0.22125,-0.08 -0.34625,-0.2125 -0.375,-0.3975c-0.16375,-0.6075 -0.29625,-1.115 -0.39125,-1.52375c-0.1,-0.40875 -0.18125,-0.765 -0.24875,-1.06c-0.07125,-0.29625 -0.13375,-0.56 -0.1875,-0.79375c-0.0575,-0.22875 -0.125,-0.47875 -0.20625,-0.7425c-0.14,0.01375 -0.305,0.02375 -0.4975,0.03125c-0.195,0.00625 -0.3725,0.00875 -0.54125,0.00875c-0.99,0 -1.85625,-0.08125 -2.58625,-0.2475c-0.73125,-0.16375 -1.375,-0.37 -1.92875,-0.625c-0.5525,-0.2475 -1.04125,-0.52875 -1.46875,-0.84125c-0.4275,-0.3075 -0.82,-0.615 -1.18,-0.91875l0,0.02c-0.16625,-0.1325 -0.325,-0.26 -0.47625,-0.3875c-0.15375,-0.125 -0.29875,-0.2375 -0.435,-0.34625l0,-0.03875c-0.1375,-0.06375 -0.2625,-0.14875 -0.3725,-0.2475l-0.16625,-0.2475c0,-0.12 0.09625,-0.22125 0.29125,-0.3075c0.1925,-0.08625 0.4275,-0.13 0.70125,-0.13c0.25,0 0.47625,0.03625 0.68375,0.11c0.20875,0.0725 0.40125,0.1625 0.58125,0.2675c0.1775,0.10625 0.34625,0.21875 0.495,0.3375c0.15375,0.1175 0.29875,0.2175 0.4375,0.2975c0.41375,0.27625 0.8125,0.53875 1.2025,0.78125c0.38375,0.2425 0.82,0.45375 1.3025,0.635c0.48375,0.175 1.015,0.3225 1.59625,0.4325c0.58,0.1125 1.27,0.1775 2.07,0.19c-0.055,-0.29125 -0.08875,-0.60875 -0.10375,-0.96c-0.01375,-0.35 -0.02875,-0.81 -0.0425,-1.37625c-0.0125,-0.5675 -0.01875,-1.29125 -0.01875,-2.16875c0,-0.87875 0,-1.99125 0,-3.335l-0.04125,0c-0.3325,-0.02875 -0.80875,-0.0675 -1.43125,-0.12c-0.62,-0.0525 -1.235,-0.1225 -1.84125,-0.20625c-0.6075,-0.0875 -1.13875,-0.1925 -1.59625,-0.3175c-0.45375,-0.1275 -0.6825,-0.28125 -0.6825,-0.4675c0,-0.32875 0.15875,-0.6625 0.47625,-1c0.3175,-0.33375 0.72625,-0.6625 1.22125,-0.98c0.4975,-0.315 1.04375,-0.61625 1.6375,-0.9c0.59375,-0.28375 1.16625,-0.55 1.71875,-0.8025l-0.04375,0l0.995,-0.47375c0,-0.47625 0,-0.88 0,-1.20875c0,-0.33 -0.00375,-0.645 -0.01875,-0.94c-0.015,-0.29875 -0.02875,-0.61125 -0.04375,-0.94c-0.01125,-0.3325 -0.03375,-0.74 -0.0625,-1.22875l0,-0.14c0,-0.2225 0.145,-0.39125 0.4375,-0.50375c0.28875,-0.11375 0.61375,-0.16875 0.97125,-0.16875c0.27625,0 0.5275,0.03625 0.7475,0.10875c0.22,0.07375 0.3875,0.19625 0.49875,0.365" id="path200"/>
  <path fill="#b2901d" fill-rule="nonzero" d="m684.40626,528.039986c-23.21125,-6.42625 -61.123751,3.90125 -54.988751,17.41c2.88,6.3325 16.53,11.63375 29.5175,12.7275c11.4625,0.96625 23.01,-1.3275 31.21,-5.09625c7.03875,-3.23875 11.5675,-7.81125 11.31875,-12.51625c-0.285,-5.43 -7.8525,-9.74125 -17.0575,-12.525c-0.99125,-0.3 -1.89875,0.4475 -0.91625,0.745c12.11875,3.66625 19.11,9.695 14.78125,16.51375c-3.6425,5.73125 -14.32375,10.27 -26.30125,11.7675c-15.05,1.88125 -30.0725,-2.26875 -37.855001,-8.37c-8.9725,-7.03625 0.47125,-14.9075 13.46,-18.8725c10.675,-3.26 24.68625,-4.1475 35.915001,-1.03875c1.015,0.28125 1.92375,-0.46625 0.91625,-0.745" id="path202"/>
 </g>
</svg>