<svg width="1000" height="100" xmlns="http://www.w3.org/2000/svg">
 <g>
  <title>background</title>
  <rect x="-1" y="-1" width="1002" height="102" id="canvas_background" fill="none"/>
 </g>

 <g>
  <title>Layer 1</title>
  <path stroke="null" fill="#ffffff" d="m773.710921,99.128991l78.006346,0l148.171676,0l0,-10.814743l0,-46.254758c-12.066755,-3.799971 -27.182266,-6.063929 -43.605405,-6.063929c-2.519054,0 -5.008416,0.054389 -7.459773,0.158312c-10.374321,-20.635909 -55.109203,-36.153876 -108.726689,-36.153876c-45.630387,0 -84.823588,11.241603 -101.879756,27.310261c-10.708057,-3.74364 -24.602641,-6.00954 -39.803664,-6.00954c-11.396908,0 -22.055083,1.274751 -31.195412,3.487718c-3.241159,-0.260778 -6.588021,-0.40015 -10.016832,-0.40015c-14.07986,0 -26.836653,2.309606 -36.133756,6.049846c-14.356588,-7.633936 -36.924746,-12.559088 -62.323127,-12.559088c-36.212142,0 -66.686637,10.008129 -75.765208,23.617612c-10.425391,-3.338633 -23.489792,-5.329672 -37.683669,-5.329672c-16.343565,0 -31.193037,2.638856 -42.234831,6.939501c-12.740166,-7.455228 -32.978109,-12.276457 -55.771924,-12.276457c-10.672427,0 -20.774772,1.064478 -29.817712,2.954994c-17.525299,-8.655679 -44.0009,-14.169887 -73.63096,-14.169887c-12.311416,0 -24.067001,0.962498 -34.874823,2.696159c-11.272202,-12.373581 -40.418879,-21.189029 -74.608414,-21.189029c-29.116985,0 -54.571187,6.395121 -68.450331,15.934628c-10.056025,-2.546588 -21.907811,-4.019957 -34.606408,-4.019957c-11.331586,0 -21.992136,1.170828 -31.302303,3.232282l0,47.372654l0,35.48712l773.712974,0l0,-0.000001z" id="svg_1" transform="rotate(180 499.94342041015625,49.564491271972656) "/>
 </g>
</svg>