<svg width="100" height="100" xmlns="http://www.w3.org/2000/svg">
 <metadata id="metadata8">image/svg+xml</metadata>

 <g>
  <title>background</title>
  <rect x="-1" y="-1" width="102" height="102" id="canvas_background" fill="none"/>
 </g>
 <g>
  <title>Layer 1</title>
  <g stroke="null" id="svg_1">
   <path stroke="null" id="path16" d="m99.749497,49.874942c0,27.544526 -22.329448,49.874942 -49.874942,49.874942c-27.544527,0 -49.874555,-22.330416 -49.874555,-49.874942c0,-27.545495 22.330028,-49.874942 49.874555,-49.874942c27.545494,0 49.874942,22.329447 49.874942,49.874942" fill-rule="nonzero" fill="#f9c041"/>
   <path stroke="null" id="path18" d="m49.874555,89.096984c-21.66122,0 -39.222042,-17.560822 -39.222042,-39.222042c0,-21.662188 17.560822,-39.222042 39.222042,-39.222042c21.662188,0 39.222042,17.559853 39.222042,39.222042c0,21.66122 -17.559853,39.222042 -39.222042,39.222042zm0,-82.963819c-24.157872,0 -43.741196,19.583904 -43.741196,43.741777c0,24.157872 19.583323,43.740809 43.741196,43.740809c24.157872,0 43.741777,-19.582936 43.741777,-43.740809c0,-24.157872 -19.583904,-43.741777 -43.741777,-43.741777" fill-rule="nonzero" fill="#cc8d00"/>
  </g>
 </g>
</svg>