<svg width="300" height="300" xmlns="http://www.w3.org/2000/svg">
 <metadata id="metadata8">image/svg+xml</metadata>

 <g>
  <title>background</title>
  <rect x="-1" y="-1" width="602" height="602" id="canvas_background" fill="none"/>
 </g>
 <g>
  <title>Layer 1</title>
  <path id="svg_3" d="m73.027456,138.709729l15.975434,0l0,-37.760116l-15.975434,0l0,37.760116z" fill-rule="nonzero" fill="#dddddd"/>
  <path id="svg_4" d="m46.027522,166.303659l80.908308,-90.951047l78.279624,90.951047l-159.187932,0" fill-rule="nonzero" fill="#5fbf00"/>
  <path id="svg_5" d="m126.9794,70.523674l-5.514429,6.199921l-72.773909,81.829074l-10.754371,12.107926l175.193864,0l-10.327391,-12.019335l-70.409545,-81.817456l-5.414219,-6.30013l0,0zm-0.090044,11.068071l70.409545,81.80729l-143.182001,0l72.772456,-81.80729" fill-rule="nonzero" fill="#ffffff"/>
  <path id="svg_6" d="m94.611719,186.636029l80.908309,-90.951047l78.279624,90.951047l-159.187933,0" fill-rule="nonzero" fill="#00bf00"/>
  <path id="svg_7" d="m175.566502,90.219931l-5.515881,6.201373l-72.775361,82.144226l-10.752919,12.427435l175.192412,0l-10.325939,-12.337391l-70.409545,-81.975758l-5.412767,-6.459885l0,0zm-0.091496,11.705636l70.408093,81.805838l-143.182001,0l72.773908,-81.805838" fill-rule="nonzero" fill="#ffffff"/>
  <path id="svg_8" d="m46.027522,208.420711l80.908308,-90.951047l78.279624,90.951047l-159.187932,0" fill-rule="nonzero" fill="#00bf5f"/>
  <path id="svg_9" d="m126.9794,111.229078l-5.514429,6.201373l-72.773909,81.80729l-10.754371,12.087594l175.193864,0l-10.327391,-11.999003l-70.409545,-81.80729l-5.414219,-6.289964l0,0zm-0.090044,11.027406l70.409545,81.807291l-143.182001,0l72.772456,-81.807291" fill-rule="nonzero" fill="#ffffff"/>
  <path id="svg_10" d="m24.375,225.1223c0,0 0.981763,-0.087138 2.821842,-0.249797c1.84008,-0.13797 4.538476,-0.390672 7.974646,-0.612876c3.434719,-0.233822 7.605759,-0.546069 12.389675,-0.797319c4.785369,-0.277392 10.183613,-0.593996 16.071286,-0.830723c5.889126,-0.27013 12.269133,-0.564949 19.016575,-0.749393c6.747442,-0.212038 13.86232,-0.482168 21.222637,-0.586734c7.361771,-0.11328 14.967529,-0.358721 22.696734,-0.376149c7.729206,-0.050831 15.580405,-0.100209 23.431604,-0.15104c7.8512,0.021784 15.703851,0.029046 23.433057,0.127803c7.727752,0.040665 15.333511,0.268678 22.695281,0.38922c7.360318,0.107471 14.475195,0.36453 21.222637,0.585282c6.747443,0.187348 13.12745,0.473453 19.016576,0.749393c5.887673,0.239631 11.285917,0.551878 16.071286,0.835079c4.783916,0.252702 8.954956,0.563497 12.389674,0.800224c3.436171,0.223656 6.134567,0.476358 7.974646,0.61578c1.84008,0.164112 2.821843,0.25125 2.821843,0.25125c0,0 -0.981763,0.087139 -2.821843,0.25125c-1.840079,0.139422 -4.538475,0.392125 -7.974646,0.615781c-3.434718,0.236727 -7.605758,0.547521 -12.389674,0.800224c-4.785369,0.283201 -10.183613,0.595448 -16.071286,0.835079c-5.889126,0.27594 -12.269133,0.562045 -19.016576,0.749393c-6.747442,0.220752 -13.862319,0.477811 -21.222637,0.585282c-7.36177,0.120542 -14.967529,0.348555 -22.695281,0.38922c-7.729206,0.098757 -15.581857,0.106019 -23.433057,0.127803c-7.851199,-0.050831 -15.702398,-0.100209 -23.431604,-0.15104c-7.729205,-0.017428 -15.334963,-0.262869 -22.696734,-0.376149c-7.360317,-0.104567 -14.475195,-0.374697 -21.222637,-0.586734c-6.747442,-0.184444 -13.127449,-0.479263 -19.016575,-0.749393c-5.887673,-0.236727 -11.285917,-0.553331 -16.071286,-0.830723c-4.783916,-0.25125 -8.954956,-0.563497 -12.389675,-0.797319c-3.43617,-0.222204 -6.134566,-0.474906 -7.974646,-0.612876c-1.840079,-0.162659 -2.821842,-0.249798 -2.821842,-0.249798" fill-rule="nonzero" fill="#eeeeee"/>
 </g>
</svg>