<svg width="300" height="300" xmlns="http://www.w3.org/2000/svg">
 <metadata id="metadata8">image/svg+xml</metadata>

 <g>
  <title>background</title>
  <rect x="-1" y="-1" width="302" height="302" id="canvas_background" fill="none"/>
 </g>
 <g>
  <title>Layer 1</title>
  <path id="path310" d="m62.2887,121.18682c0,-49.64364 40.24623,-89.88987 89.88987,-89.88987c49.64364,0 89.88988,40.24623 89.88988,89.88987c0,49.64365 -40.24624,89.88988 -89.88988,89.88988c-49.64364,0 -89.88987,-40.24623 -89.88987,-89.88988" fill-rule="nonzero" fill="#dddddd"/>
  <path id="path326" d="m207.08696,100.5009l0,148.57563" fill-rule="nonzero" fill="#bfd9c3"/>
  <g id="svg_6">
   <path stroke="null" id="path316" d="m95.885143,245.23167l56.293427,16.14953l0,-189.94265l-56.293427,29.32754l0,144.46558" fill-rule="nonzero" fill="#007fff"/>
   <path id="path324" d="m207.08696,250.07653l-54.90839,11.30467l0,-189.94265l54.90839,29.32754l0,149.31044" fill-rule="nonzero" fill="#005fbf"/>
   <path id="path314" d="m151.31296,61.2527l-3.83551,2.11075l-53.69718,29.32915l-4.58485,2.29969l0,155.22924l6.13682,1.73769l53.49531,16.14953l2.06229,0.5943l2.05906,-0.41343l54.53049,-11.30467l6.06738,-1.32749l0,-160.733l-3.86781,-2.28031l-54.70652,-29.32754l-3.65948,-2.06391l0,0zm-0.74934,9.18585l54.90839,29.32754l0,149.31044l-54.90839,11.30467l-53.29343,-16.14953l0,-144.46558l53.29343,-29.32753" fill-rule="nonzero" fill="#ffffff"/>
   <path id="path318" d="m152.82455,118.05382c0,-8.09899 0,-12.14606 0,-20.24343c-15.76516,8.45912 -23.65098,12.69514 -39.41614,21.15587c0,6.88778 0,10.33247 0,17.22024c15.76678,-7.25113 23.65098,-10.88155 39.41614,-18.13268" fill-rule="nonzero" fill="#ffffff"/>
   <path id="path320" d="m152.82455,158.55683c0,-8.10061 0,-12.15091 0,-20.25151c-15.76516,6.04154 -23.65098,9.06957 -39.41776,15.11273c0,6.891 0.00162,10.33569 0.00162,17.22831c15.76516,-4.83517 23.65098,-7.25598 39.41614,-12.08953" fill-rule="nonzero" fill="#ffffff"/>
   <path id="path322" d="m152.82455,199.05338c0,-8.09899 0,-12.14929 0,-20.24828c-15.76516,3.62557 -23.65098,5.44078 -39.41776,9.06796c0,6.88939 0,10.3357 0,17.2267c15.76678,-2.4192 23.6526,-3.6288 39.41776,-6.04638" fill-rule="nonzero" fill="#ffffff"/>
   <path id="path328" d="m152.01708,118.05382c0,-8.09899 0,-12.14606 0,-20.24343c15.76516,8.45912 23.65098,12.69514 39.41776,21.15587c0,6.88778 0,10.33247 0,17.22024c-15.7684,-7.25113 -23.6526,-10.88155 -39.41776,-18.13268" fill-rule="nonzero" fill="#ffffff"/>
   <path id="path330" d="m152.01708,158.55683c0,-8.10061 0,-12.15091 0,-20.25151c15.76516,6.04154 23.65259,9.06957 39.41937,15.11273c0,6.891 0,10.33569 0,17.22831c-15.76678,-4.83517 -23.65421,-7.25598 -39.41937,-12.08953" fill-rule="nonzero" fill="#ffffff"/>
   <path id="path332" d="m152.01708,199.05338c0,-8.09899 0,-12.14929 0,-20.24828c15.76516,3.62557 23.64936,5.44078 39.41776,9.06796c0,6.88939 0.00161,10.3357 0.00161,17.2267c-15.76678,-2.4192 -23.65421,-3.6288 -39.41937,-6.04638" fill-rule="nonzero" fill="#ffffff"/>
  </g>
  <g stroke="null" id="svg_5">
   <path stroke="null" id="path334" d="m261.41499,203.65573c0,0 -0.41019,0.95444 -1.17891,2.7438c-0.84301,1.75869 -1.79421,4.43789 -3.66594,7.60643c-0.90599,1.5875 -1.82328,3.44792 -3.00866,5.32127c-1.17246,1.87819 -2.53063,3.85489 -3.9534,6.00601c-1.56489,2.0526 -3.22991,4.23279 -4.98536,6.5341c-1.89596,2.18664 -3.92757,4.47341 -6.11583,6.80541c-4.5364,4.4831 -9.66549,9.24398 -15.74417,13.44609c-2.93921,2.26255 -6.24664,4.13589 -9.56052,6.19011c-1.65532,1.03034 -3.44308,1.86204 -5.20176,2.79064c-1.77322,0.9076 -3.54805,1.86204 -5.43109,2.61945c-1.86688,0.80102 -3.74992,1.61011 -5.64587,2.42405c-1.93794,0.70412 -3.91303,1.35979 -5.89135,2.04614c-0.99481,0.32945 -1.97831,0.70412 -2.98927,0.99804c-1.01742,0.27616 -2.03807,0.5507 -3.05872,0.82848c-2.05584,0.51678 -4.10037,1.14015 -6.20304,1.53582c-8.37029,1.84912 -17.07489,2.60491 -25.76818,2.78902l-6.41459,-0.24063c-1.0481,-0.05975 -2.00577,-0.04199 -3.12493,-0.16311l-3.32519,-0.34883c-2.19472,-0.26808 -4.47019,-0.39243 -6.57286,-0.82524c-2.11882,-0.40051 -4.23117,-0.79779 -6.33546,-1.19345c-2.10428,-0.38759 -4.14558,-1.0255 -6.20464,-1.52613c-1.02066,-0.27777 -2.04131,-0.55393 -3.05872,-0.83009c-1.01258,-0.28907 -1.99609,-0.66697 -2.9909,-0.99481c-1.9767,-0.68797 -3.9421,-1.36948 -5.89296,-2.04614c-1.89595,-0.81232 -3.77899,-1.61818 -5.64749,-2.4192c-1.88303,-0.75741 -3.66109,-1.70701 -5.43108,-2.61784c-1.76192,-0.93021 -3.5529,-1.75384 -5.20822,-2.78579c-3.31389,-2.05584 -6.61969,-3.93241 -9.56214,-6.18689c-6.08191,-4.20372 -11.21261,-8.96298 -15.75063,-13.44609c-2.19149,-2.33038 -4.21826,-4.62361 -6.11906,-6.8038c-1.75545,-2.3013 -3.42046,-4.48472 -4.98535,-6.53409c-1.42116,-2.15597 -2.78257,-4.12944 -3.95502,-6.01086c-1.18376,-1.87011 -2.08652,-3.71116 -2.9909,-5.29704c-1.85881,-3.14593 -2.84554,-5.88489 -3.68047,-7.6355c-0.76872,-1.78775 -1.1773,-2.74057 -1.1773,-2.74057c0,0 0.6589,0.80425 1.89434,2.31261c1.22898,1.50514 2.92145,3.76769 5.34226,6.41944c1.2096,1.32587 2.43858,2.86654 3.95986,4.38621c1.54228,1.50513 3.11525,3.19114 4.83194,4.9466c1.81844,1.64887 3.75315,3.40432 5.79122,5.25344c2.15596,1.71185 4.32807,3.58842 6.69398,5.41494c1.20798,0.87853 2.44181,1.77483 3.69824,2.68728c0.62337,0.45703 1.2532,0.91729 1.88949,1.3824c0.64437,0.45541 1.33234,0.85915 2.00416,1.29519c1.34364,0.86884 2.70828,1.75061 4.09552,2.6469c1.37917,0.89953 2.88592,1.65049 4.34745,2.49995c2.90046,1.74092 6.05607,3.20245 9.223,4.76734c1.58265,0.78325 3.27512,1.38402 4.9143,2.12043c1.65694,0.70251 3.31226,1.447 5.06126,1.9977c6.82479,2.65337 14.18574,4.39913 21.65813,5.91719c1.88626,0.2923 3.7806,0.58622 5.67817,0.88337c0.95767,0.17926 1.88627,0.24063 2.81486,0.32461l2.79064,0.27454l2.79387,0.28262c0.92052,0.10336 2.02353,0.07913 3.02642,0.12596l5.91557,0.17765c3.86943,-0.17442 7.76308,-0.06783 11.59536,-0.57492l2.88107,-0.27778c0.9609,-0.07267 1.92018,-0.15342 2.86655,-0.32945c1.89756,-0.29553 3.7919,-0.59107 5.67978,-0.88337c7.47562,-1.50676 14.8285,-3.27513 21.65975,-5.91719c1.75061,-0.5507 3.4027,-1.29842 5.05964,-2.00254c1.6408,-0.73642 3.33811,-1.32749 4.91753,-2.11882c3.16693,-1.56489 6.31931,-3.0345 9.223,-4.77057c5.96563,-3.22829 11.20938,-6.98144 16.03325,-10.52141c2.36267,-1.82813 4.53317,-3.70794 6.69074,-5.41817c2.03807,-1.85235 3.97117,-3.60942 5.78638,-5.2599c1.71346,-1.7603 3.28966,-3.44308 4.83032,-4.94983c1.51806,-1.52129 2.73089,-3.04096 3.93726,-4.36683c2.40628,-2.63238 4.13266,-4.95468 5.35518,-6.45174c1.23221,-1.50675 1.88949,-2.31261 1.88949,-2.31261" fill-rule="nonzero" fill="#ffffff"/>
   <path stroke="null" id="path336" d="m261.41499,206.34544c0,0 -0.45218,0.93022 -1.29842,2.67275c-0.90599,1.71346 -1.98477,4.33453 -3.94694,7.41425c-0.95605,1.54389 -1.9218,3.34779 -3.16208,5.15977c-1.23382,1.81682 -2.62914,3.74507 -4.10036,5.83159c-1.60688,1.98478 -3.31712,4.09552 -5.1194,6.32093c-1.93795,2.10751 -4.0067,4.31354 -6.22888,6.5567c-4.58,4.32646 -9.70586,8.95007 -15.791,12.95192c-2.94245,2.15597 -6.20465,3.99217 -9.49269,5.96887c-1.63918,0.99804 -3.40755,1.79421 -5.15332,2.68082c-1.75545,0.86723 -3.51413,1.77968 -5.37617,2.49672c-1.84428,0.76387 -3.70309,1.53582 -5.57643,2.31099c-1.90888,0.68474 -3.85167,1.3178 -5.79768,1.98478c-0.97867,0.31815 -1.94764,0.68313 -2.94245,0.96736l-3.00866,0.79778c-2.02192,0.49257 -4.03415,1.08848 -6.10129,1.45992c-8.23625,1.71508 -16.76805,2.48541 -25.30792,2.68728l-6.33061,-0.23094c-1.04003,-0.05652 -2.02192,-0.03714 -3.10879,-0.15503l-3.23636,-0.33753c-2.13981,-0.26 -4.34099,-0.37466 -6.41136,-0.78809c-2.08168,-0.38275 -4.15689,-0.76226 -6.22564,-1.14177c-2.06876,-0.36983 -4.07614,-0.98835 -6.09968,-1.47123l-3.00866,-0.7994c-0.99642,-0.27938 -1.96539,-0.64598 -2.94244,-0.96251c-1.94602,-0.66697 -3.87912,-1.32749 -5.7993,-1.98316c-1.87334,-0.77518 -3.73215,-1.54713 -5.57643,-2.31261c-1.86365,-0.71543 -3.62395,-1.62465 -5.3794,-2.49511c-1.74415,-0.8866 -3.51899,-1.6747 -5.15655,-2.67436c-3.28804,-1.9767 -6.55186,-3.81128 -9.4943,-5.96725c-6.08676,-4.00346 -11.21908,-8.62061 -15.79747,-12.9503c-2.22379,-2.23994 -4.28931,-4.45081 -6.2321,-6.55186c-1.80229,-2.22702 -3.51252,-4.33938 -5.1194,-6.32254c-1.46961,-2.08814 -2.86816,-4.01477 -4.10037,-5.83321c-1.24028,-1.81198 -2.19795,-3.60134 -3.154,-5.14524c-1.95248,-3.06356 -3.0571,-5.72178 -3.95825,-7.43201c-0.84462,-1.74092 -1.29519,-2.66952 -1.29519,-2.66952c0,0 0.61691,0.83009 1.77483,2.38367c1.16277,1.54713 2.73735,3.88881 5.06611,6.62292c1.15792,1.36948 2.33199,2.95859 3.79675,4.53802c1.48091,1.5665 3.01996,3.30096 4.68659,5.12424c1.77484,1.71508 3.66433,3.54159 5.65718,5.46662c2.11236,1.79098 4.25056,3.7483 6.57932,5.66525c1.20153,0.91568 2.42566,1.85074 3.67402,2.80194c0.62175,0.4748 1.24997,0.95444 1.88303,1.43893c0.64275,0.47318 1.33072,0.8963 2.00254,1.35333c1.35656,0.88984 2.70343,1.83458 4.08422,2.77448c1.37755,0.94475 2.88269,1.74254 4.34422,2.63722c2.90207,1.84105 6.09968,3.34618 9.29244,4.98698c0.78971,0.43119 1.6311,0.76548 2.46603,1.124c0.82847,0.3666 1.66179,0.73804 2.49833,1.10786c1.67309,0.74449 3.34618,1.52936 5.11456,2.12205c6.90553,2.82455 14.41991,4.59777 22.02634,6.20303c1.9234,0.31169 3.85327,0.62176 5.7896,0.93667c1.93956,0.33914 3.84036,0.40213 5.76377,0.63629l2.8843,0.29392c0.95282,0.10659 2.03161,0.08398 3.04257,0.13243l5.99794,0.18895c7.91003,-0.08721 15.82653,-0.68474 23.48464,-2.16888c7.60158,-1.63433 15.11757,-3.39786 22.02149,-6.22726c1.76999,-0.59269 3.44146,-1.3824 5.11455,-2.12528c1.65533,-0.7784 3.37041,-1.40339 4.96598,-2.22863c3.19438,-1.64079 6.39037,-3.15077 9.29083,-4.99182c1.46153,-0.89791 2.96666,-1.6957 4.34422,-2.64206c1.3824,-0.93829 2.74542,-1.86366 4.08583,-2.77449c1.37594,-0.86723 2.64852,-1.82813 3.88396,-2.79225c1.24836,-0.95282 2.47249,-1.88788 3.6724,-2.80518c2.32715,-1.91856 4.46373,-3.88073 6.5777,-5.66848c1.98962,-1.92825 3.87912,-3.75638 5.65234,-5.47307c1.66501,-1.8249 3.20568,-3.55774 4.68497,-5.12586c1.46154,-1.57943 2.62592,-3.15723 3.78222,-4.5251c2.31584,-2.72119 3.91465,-5.10325 5.07257,-6.64553c1.15469,-1.55358 1.7716,-2.38367 1.7716,-2.38367" fill-rule="nonzero" fill="#eeeeee"/>
  </g>
 </g>
</svg>