<svg width="1000" height="1000" xmlns="http://www.w3.org/2000/svg">
 <metadata id="metadata8">image/svg+xml</metadata>

 <g>
  <title>background</title>
  <rect fill="none" id="canvas_background" height="402" width="582" y="-1" x="-1"/>
 </g>
 <g>
  <title>Layer 1</title>
  <g id="svg_2">
   <path fill="#fbd8b6" fill-rule="nonzero" d="m714.773761,244.353739c-4.2,-4.19875 -34.775001,24.51875 -37.657501,27.42375c-2.2525,2.26375 -65.152501,59.003751 -126.613752,101.806252l12.115,15.6425c69.242501,-46.685001 130.058752,-96.567501 132.805002,-98.786251c3.43375,-2.77625 6.7975,-5.34125 5.98125,-8.385c-0.55,-2.05 -2.5775,-2.30375 -4.04875,-1.355c1.4375,-1.68875 3.19375,-3.12375 1.37375,-5.55125c-0.815,-1.08625 -2.79,-1.07875 -3.93625,-0.19375c2.1575,-2.19 3.4475,-4.58 2.55375,-6.23c-0.96,-1.77125 -3.805,-2.3675 -5.28125,-1.42875c1.6725,-1.97625 25.63,-20.025 22.70875,-22.9425" id="path16"/>
   <path fill="#f8f8f8" fill-rule="nonzero" d="m550.502508,373.583741l12.115,15.6425c7.41125,-4.9975 14.71875,-10.03 21.87625,-15.03875l-11.69125,-16.6625c-7.38125,5.47625 -14.85125,10.87 -22.3,16.05875" id="path18"/>
   <path fill="#77a789" fill-rule="nonzero" d="m550.863758,373.332491c5.34875,-3.73 10.7075,-7.5675 16.035,-11.46125l0.00125,0.00125c-5.32875,3.89375 -10.6875,7.73 -16.03625,11.46l0,0" id="path20"/>
   <path fill="#dfe0df" fill-rule="nonzero" d="m564.922508,387.667491c0.17875,-5.44 0.46,-10.6725 0.72125,-15.58875l-14.78,1.25375c5.34875,-3.73 10.7075,-7.56625 16.03625,-11.46l4.885,21.11c-2.28,1.5625 -4.56375,3.12625 -6.8625,4.685" id="path22"/>
   <path fill="#f8f8f8" fill-rule="nonzero" d="m364.056255,717.793746l44.048751,54.180001c3.805,4.67875 9.525,7.43375 15.555,7.35375c63.740001,-0.85125 131.792502,-24.8025 189.895003,-72.040001c72.386251,-58.851251 112.590002,-140.202502 115.218752,-216.973753c0.48625,-14.19375 -9.54,-26.5275 -23.535,-28.94875c-75.692501,-13.09625 -163.537502,9.65625 -235.925004,68.507501c-58.100001,47.236251 -95.438751,108.967502 -109.281252,171.192503c-1.31,5.88625 0.22,12.0475 4.02375,16.72875" id="path24"/>
   <path fill="#af412c" fill-rule="nonzero" d="m437.947507,780.318747c21.82625,26.84625 20.185,65.103751 -2.33875,89.983751c-3.1425,3.4725 -3.395,8.671125 -0.44125,12.304l0.8775,1.0795c2.79375,3.4365 7.62875,4.474125 11.55375,2.422875c10.8325,-5.6665 21.27,-12.476375 31.12375,-20.487625c36.990001,-30.0725 59.367501,-71.445001 66.245001,-115.101252c-35.493751,16.66375 -72.405001,26.1 -108.291252,28.31375c0.425,0.4925 0.8575,0.97625 1.27125,1.485" id="path26"/>
   <path fill="#af412c" fill-rule="nonzero" d="m361.965005,686.917495c-21.82625,-26.84625 -59.613751,-33.04875 -88.567501,-16.07625c-4.04,2.3675 -9.18125,1.5525 -12.135,-2.08l-0.87875,-1.08c-2.79375,-3.43625 -2.82125,-8.38125 -0.0125,-11.80375c7.75875,-9.44875 16.555,-18.27625 26.40875,-26.2875c36.991251,-30.07375 82.058751,-43.535001 126.200002,-41.356251c-23.5575,31.34375 -40.328751,65.552501 -49.820001,100.232501c-0.3975,-0.5175 -0.78125,-1.04 -1.195,-1.54875" id="path28"/>
   <path fill="#af412c" fill-rule="nonzero" d="m705.415011,461.398742c-33.12375,-5.75125 -68.581251,-4.62125 -104.055002,3.38125l102.868752,126.528752c15.0725,-33.095 23.41625,-67.575001 24.54875,-101.175002c0.4725,-14.0525 -9.50875,-26.33125 -23.3625,-28.735" id="path30"/>
   <path fill="#9c3b29" fill-rule="nonzero" d="m619.917509,476.934992c-0.13125,0 -0.2625,-0.00625 -0.39375,-0.02c-1.005,-0.10375 -1.96625,-0.62375 -2.61375,-1.4175c-0.63625,-0.78375 -0.94875,-1.83125 -0.845,-2.83625c0.10625,-1.02625 0.61375,-1.97875 1.40875,-2.62625c0.68625,-0.5575 1.56125,-0.86625 2.44,-0.86625c0.14,0 0.27875,0.0075 0.41875,0.02375c2.03125,0.21 3.66625,2.2225 3.4575,4.25375c-0.10625,1.0275 -0.6225,1.96875 -1.4175,2.61375c-0.69375,0.565 -1.5625,0.875 -2.455,0.875" id="path32"/>
   <path fill="#9c3b29" fill-rule="nonzero" d="m633.406259,493.511242c-1.12875,0 -2.24875,-0.49 -3.01625,-1.43375c-1.35125,-1.6625 -1.09875,-4.10875 0.565,-5.46125c0.71875,-0.585 1.585,-0.86875 2.445,-0.86875c1.13,0 2.24875,0.48875 3.01625,1.4325c1.3525,1.6625 1.1,4.11 -0.56375,5.46125c-0.71875,0.585 -1.585,0.87 -2.44625,0.87" id="path34"/>
   <path fill="#9c3b29" fill-rule="nonzero" d="m673.84876,543.254993c-1.12875,0 -2.24875,-0.49 -3.01625,-1.43375c-1.35125,-1.6625 -1.1,-4.10875 0.56375,-5.46125c0.72,-0.585 1.58625,-0.87 2.44625,-0.87c1.12875,0 2.24875,0.49 3.015,1.4325c1.3525,1.66375 1.1,4.11 -0.5625,5.4625c-0.72,0.585 -1.585,0.87 -2.44625,0.87m-13.48125,-16.58125c-1.12875,0 -2.2475,-0.49 -3.015,-1.4325c-1.35125,-1.66375 -1.1,-4.11 0.56375,-5.4625c0.71875,-0.585 1.58625,-0.87 2.44625,-0.87c1.12875,0 2.24875,0.49 3.015,1.4325c1.35125,1.66375 1.1,4.11125 -0.5625,5.4625c-0.72,0.585 -1.58625,0.87 -2.4475,0.87m-13.48,-16.58125c-1.12875,0 -2.24875,-0.48875 -3.015,-1.4325c-1.35375,-1.66375 -1.1,-4.11 0.5625,-5.46125c0.72,-0.58625 1.58625,-0.87125 2.4475,-0.87125c1.12875,0 2.2475,0.49 3.015,1.43375c1.35125,1.6625 1.1,4.11 -0.56375,5.4625c-0.72,0.585 -1.585,0.86875 -2.44625,0.86875" id="path36"/>
   <path fill="#dfe0df" fill-rule="nonzero" d="m670.89751,554.673743l-72.540001,-89.225001c1.00125,-0.23625 2.00125,-0.4425 3.0025,-0.66875l71.343751,87.752501c-0.60125,0.71625 -1.1975,1.42375 -1.80625,2.14125" id="path38"/>
   <path fill="#77a789" fill-rule="nonzero" d="m361.892505,686.828745c-0.005,-0.005 -0.01,-0.01125 -0.01375,-0.01625c0.00375,0.005 0.00875,0.01125 0.01375,0.01625m-0.08125,-0.09875c-0.00875,-0.01 -0.0175,-0.02125 -0.02625,-0.0325c0.00875,0.01125 0.0175,0.02125 0.02625,0.0325m-0.05875,-0.07125c-2.03625,-2.48125 -4.21625,-4.775 -6.5075,-6.89875c0.00125,-0.00375 0.0025,-0.0075 0.00375,-0.01125c2.29125,2.12375 4.4675,4.42875 6.50375,6.91m51.218751,-98.425001c-0.50875,-0.025 -1.01625,-0.04875 -1.52625,-0.07c0.51,0.02125 1.01875,0.04375 1.5275,0.06875l-0.00125,0.00125" id="path40"/>
   <path fill="#dfe0df" fill-rule="nonzero" d="m412.980006,588.233744c-0.0025,0 -0.00625,0 -0.00875,0l0.00125,-0.00125c0.0025,0 0.005,0 0.0075,0l0,0" id="path42"/>
   <path fill="#9c3b29" fill-rule="nonzero" d="m363.160005,688.466245c-0.3975,-0.5175 -0.78125,-1.04 -1.195,-1.54875l0,0c-0.025,-0.03 -0.04875,-0.05875 -0.0725,-0.08875c-0.005,-0.005 -0.01,-0.01125 -0.01375,-0.01625c-0.0225,-0.0275 -0.045,-0.055 -0.0675,-0.0825c-0.00875,-0.01125 -0.0175,-0.02125 -0.02625,-0.0325c-0.01125,-0.0125 -0.02125,-0.025 -0.0325,-0.03875c-2.03625,-2.48125 -4.2125,-4.78625 -6.50375,-6.91c10.405,-31.74 26.54875,-62.873751 48.098751,-91.732501c0.16375,0 0.32625,0 0.48875,0c2.53875,0 5.075,0.04625 7.60875,0.1475c0.51,0.02125 1.0175,0.045 1.52625,0.07c0.0025,0 0.00625,0 0.00875,0c-22.13125,29.44625 -38.273751,61.420001 -48.016251,93.938751c-0.6275,2.095 -1.23,4.19375 -1.80375,6.29375" id="path44"/>
   <path fill="#77a789" fill-rule="nonzero" d="m443.611257,788.403747c-1.6075,-2.67625 -3.40625,-5.27875 -5.41625,-7.77875c2.01125,2.50125 3.81875,5.1 5.4275,7.7775c-0.00375,0 -0.0075,0 -0.01125,0.00125m-5.47125,-7.84875c-0.00125,0 -0.00125,-0.00125 -0.0025,-0.00125l0.0025,0.00125m-0.0625,-0.07625c-0.00125,-0.0025 -0.0025,-0.00375 -0.005,-0.005c0.0025,0.00125 0.00375,0.0025 0.005,0.005m-0.0625,-0.0775c-0.00125,-0.00125 -0.00375,-0.00375 -0.005,-0.00625c0.00125,0.00125 0.00375,0.005 0.005,0.00625m106.901252,-29.55875c0.00125,-0.01375 0.005,-0.0325 0.0075,-0.045c-0.0025,0.015 -0.005,0.03 -0.0075,0.045m0.0175,-0.10875c0.01125,-0.07125 0.0225,-0.14125 0.03375,-0.21375l0,0c-0.01125,0.07125 -0.0225,0.1425 -0.03375,0.21375" id="path46"/>
   <path fill="#9c3b29" fill-rule="nonzero" d="m443.622507,788.402497c-1.60875,-2.6775 -3.41625,-5.27625 -5.4275,-7.7775c-0.01875,-0.02375 -0.03625,-0.04625 -0.055,-0.07l-0.0025,-0.00125c-0.02,-0.025 -0.04,-0.05 -0.06,-0.075c-0.00125,-0.0025 -0.0025,-0.00375 -0.005,-0.005c-0.01875,-0.025 -0.03875,-0.04875 -0.0575,-0.0725c-0.00125,-0.00125 -0.00375,-0.005 -0.005,-0.00625c-0.02125,-0.025 -0.04125,-0.05125 -0.0625,-0.07625l0,0c-0.4125,-0.5075 -0.845,-0.99125 -1.26875,-1.4825c3.2675,-0.2025 6.54,-0.465 9.8225,-0.7875c32.77,-3.2075 66.205001,-12.3825 98.466251,-27.52875c-0.01125,0.0725 -0.0225,0.1425 -0.03375,0.21375c-0.00375,0.02125 -0.0075,0.0425 -0.01,0.06375c-0.0025,0.0125 -0.00625,0.03125 -0.0075,0.045c-0.4925,3.08625 -1.07125,6.16 -1.71875,9.22c-32.63625,15.19375 -66.393751,24.635 -99.575001,28.34" id="path48"/>
   <path fill="#af412c" fill-rule="nonzero" d="m375.746256,826.524997c-47.930001,38.967501 -143.152502,43.145001 -143.152502,43.145001c0,0 23.52625,-92.362501 71.457501,-131.331252c24.3525,-19.79875 52.915001,-10.23125 72.712501,14.12125c19.79875,24.35125 23.335,54.265001 -1.0175,74.065001" id="path50"/>
   <path fill="#ee9f22" fill-rule="nonzero" d="m372.298756,814.899997c-19.5575,15.90125 -60.188751,22.605 -76.087501,3.04875c-15.9,-19.555 -1.0425,-57.965001 18.51375,-73.863751c19.55625,-15.9 41.068751,-7.05875 56.967501,12.49625c15.9,19.55625 20.16125,42.421251 0.60625,58.318751" id="path52"/>
   <path fill="#f8f8f8" fill-rule="nonzero" d="m370.485006,792.367497c-11.5725,9.4075 -35.926251,13.62625 -45.335001,2.05375c-9.40875,-11.5725 -0.30875,-34.552501 11.26375,-43.962501c11.5725,-9.40625 21.355,-1.77875 30.7625,9.79375c9.40875,11.57375 14.88,22.70625 3.30875,32.115" id="path54"/>
   <path fill="#af412c" fill-rule="nonzero" d="m360.032505,701.064996c-1.31,5.88625 0.22,12.0475 4.02375,16.72875l44.048751,54.180001c3.805,4.67875 9.525,7.43375 15.555,7.35375c4.3175,-0.05875 8.6575,-0.23125 13.01125,-0.5l-73.505001,-90.353751c-1.14875,4.19125 -2.2,8.38875 -3.13375,12.59125" id="path56"/>
   <path fill="#dfe0df" fill-rule="nonzero" d="m369.828756,696.663745l-0.62875,-0.77375l0,0l0.62875,0.77375" id="path58"/>
   <path fill="#9c3b29" fill-rule="nonzero" d="m359.630005,706.324996c-0.04875,-0.8875 -0.0475,-1.77875 0.02625,-2.67125l9.54375,-7.76375l0.62875,0.77375l0.6675,0.82l-10.86625,8.84125" id="path60"/>
   <path fill="#9c3b29" fill-rule="nonzero" d="m363.410005,716.901246c-0.4075,-0.5625 -0.78375,-1.1375 -1.1275,-1.7325l13.6,-11.065l1.29625,1.595l-13.76875,11.2025" id="path62"/>
   <path fill="#9c3b29" fill-rule="nonzero" d="m370.042506,725.154996l-1.2975,-1.595l13.81875,-11.24125l1.2975,1.59375l-13.81875,11.2425" id="path64"/>
   <path fill="#9c3b29" fill-rule="nonzero" d="m376.721256,733.371246l-0.0225,-0.0275l-1.27375,-1.5675l13.82125,-11.24375l1.2975,1.59375l-13.8225,11.245" id="path66"/>
   <path fill="#9c3b29" fill-rule="nonzero" d="m383.401256,741.587496l-0.8525,-1.04875l-0.44375,-0.54625l13.82375,-11.24625l1.2975,1.595l-13.825,11.24625" id="path68"/>
   <path fill="#dfe0df" fill-rule="nonzero" d="m403.876256,738.514996l-1.265,-1.555l0,0l1.265,1.555" id="path70"/>
   <path fill="#9c3b29" fill-rule="nonzero" d="m390.081256,749.803746l-1.29625,-1.595l13.82625,-11.24875l1.265,1.555l0.0325,0.04l-13.8275,11.24875" id="path72"/>
   <path fill="#9c3b29" fill-rule="nonzero" d="m398.210006,756.727496c-0.985,0 -1.82875,-0.1675 -2.50375,-0.5l13.5875,-11.0525l1.2975,1.59375l-12.24,9.9575c-0.0475,0.00125 -0.09375,0.00125 -0.14125,0.00125" id="path74"/>
   <path fill="#81b290" fill-rule="nonzero" d="m423.402506,779.328747c-5.935,0 -11.5475,-2.7425 -15.2975,-7.355l-13.5025,-16.6075l0.00125,0l1.795,2.20875l0.3625,0.445l11.34375,13.95375c3.75,4.6125 9.3625,7.355 15.2975,7.355c0.085,0 0.17125,0 0.2575,-0.00125l0,0c4.32125,-0.0575 8.66125,-0.22125 13.01875,-0.49125l0,0c-4.3575,0.27 -8.6975,0.43375 -13.01875,0.49125c-0.08625,0.00125 -0.1725,0.00125 -0.2575,0.00125" id="path76"/>
   <path fill="#ededed" fill-rule="nonzero" d="m423.660006,779.327497c4.3175,-0.05875 8.6575,-0.23125 13.01125,-0.5l-6.035,-7.41875l0,0l-1.29625,-1.59375l-6.42125,-7.8925l-0.26125,-0.32125l-6.2275,-7.655l-0.45375,-0.55875l-1.84125,-2.26125c46.407501,-20.3175 101.037502,-54.181251 155.205002,-98.221251c39.861251,-32.4075 74.396251,-66.195001 101.557502,-98.231251l32.0625,39.436251c0.43625,-0.93125 0.84375,-1.86875 1.26875,-2.80125l-31.525,-38.776251l0,0l31.525,38.776251c15.0725,-33.095 23.41625,-67.575001 24.54875,-101.175002c0.00375,-0.11 0.0075,-0.21875 0.01,-0.3275c-0.0025,0.16875 -0.0075,0.3375 -0.01375,0.50625c-2.62875,76.772501 -42.832501,158.123752 -115.220002,216.975003c-51.207501,41.632501 -110.150002,65.178751 -167.052502,70.761251c-3.2825,0.32125 -6.55625,0.5825 -9.825,0.785l0,0c0.00125,0 0.00125,0.00125 0.0025,0.0025c-4.3575,0.27 -8.6975,0.43375 -13.01875,0.49125" id="path78"/>
   <path fill="#a73f2b" fill-rule="nonzero" d="m704.22876,591.308744l-31.525,-38.776251c21.2925,-25.36125 37.920001,-49.581251 48.856251,-71.093751c2.31125,-4.54625 2.49875,-8.01125 0.88,-10.00875c4.09375,5.03625 6.4625,11.47375 6.3475,18.37625c-0.0025,0.10875 -0.00625,0.2175 -0.01,0.3275c-1.1325,33.600001 -9.47625,68.080001 -24.54875,101.175002m-3.38875,-22.6575c-0.89625,0 -1.7825,0.30375 -2.4825,0.87125c-0.79375,0.6475 -1.3025,1.6 -1.4175,2.61375c-0.09375,1.01875 0.20875,2.05375 0.855,2.84875c0.64625,0.795 1.59875,1.30125 2.6125,1.4175c0.1225,0.01125 0.24375,0.0175 0.36625,0.0175c0.89625,0 1.7825,-0.3025 2.4825,-0.87125c0.795,-0.64625 1.30125,-1.6 1.4175,-2.615c0.21,-2.03125 -1.435,-4.055 -3.4675,-4.265c-0.1225,-0.01125 -0.24375,-0.0175 -0.36625,-0.0175m-13.515,-16.57875c-0.86125,0 -1.7275,0.285 -2.4475,0.87c-1.66375,1.3525 -1.91625,3.7975 -0.56375,5.46125c0.7675,0.94375 1.8875,1.43375 3.01625,1.43375c0.86,0 1.72625,-0.285 2.44625,-0.87c1.6625,-1.3525 1.915,-3.79875 0.5625,-5.46125c-0.76625,-0.945 -1.88625,-1.43375 -3.01375,-1.43375" id="path80"/>
   <path fill="#963827" fill-rule="nonzero" d="m687.33001,559.837493c-1.12875,0 -2.24875,-0.49 -3.01625,-1.43375c-1.3525,-1.66375 -1.1,-4.10875 0.56375,-5.46125c0.72,-0.585 1.58625,-0.87 2.4475,-0.87c1.1275,0 2.2475,0.48875 3.01375,1.43375c1.3525,1.6625 1.1,4.10875 -0.5625,5.46125c-0.72,0.585 -1.58625,0.87 -2.44625,0.87" id="path82"/>
   <path fill="#963827" fill-rule="nonzero" d="m700.77376,576.419994c-0.1225,0 -0.24375,-0.00625 -0.36625,-0.0175c-1.01375,-0.11625 -1.96625,-0.6225 -2.6125,-1.4175c-0.64625,-0.795 -0.94875,-1.83 -0.855,-2.84875c0.115,-1.01375 0.62375,-1.96625 1.4175,-2.61375c0.7,-0.5675 1.58625,-0.87125 2.4825,-0.87125c0.1225,0 0.24375,0.00625 0.36625,0.0175c2.0325,0.21 3.6775,2.23375 3.4675,4.265c-0.11625,1.015 -0.6225,1.96875 -1.4175,2.615c-0.7,0.56875 -1.58625,0.87125 -2.4825,0.87125" id="path84"/>
   <path fill="#d6d6d6" fill-rule="nonzero" d="m702.96001,594.109994l-32.0625,-39.436251c0.60875,-0.7175 1.205,-1.425 1.80625,-2.14125l31.525,38.776251c-0.425,0.9325 -0.8325,1.87 -1.26875,2.80125" id="path86"/>
   <path fill="#963827" fill-rule="nonzero" d="m436.678757,778.836247l0,0c-0.00125,-0.00125 -0.00125,-0.0025 -0.0025,-0.0025c3.26875,-0.2025 6.5425,-0.46375 9.825,-0.785c-3.2825,0.3225 -6.555,0.585 -9.8225,0.7875" id="path88"/>
   <path fill="#a73f2b" fill-rule="nonzero" d="m423.402506,779.328747c-5.935,0 -11.5475,-2.7425 -15.2975,-7.355l-11.34375,-13.95375l1.59,-1.29375c1.60625,-0.025 3.57875,-0.485 5.80625,-1.38875c3.27875,-1.33125 6.60875,-2.73625 9.9775,-4.21125l1.84,2.26125l-13.83125,11.2525l1.2975,1.595l13.83125,-11.25125l-0.8425,-1.0375l6.2275,7.655l-13.78375,11.215c0.46625,0.5125 0.955,0.9975 1.4675,1.455l13.61375,-11.07375l-1.03625,-1.275l6.42,7.8925l-10.87,8.84375c0.86,0.22625 1.73375,0.4075 2.62375,0.515l9.54375,-7.765l6.035,7.41875c-4.35375,0.26875 -8.69375,0.44125 -13.01125,0.5l0,0c-0.08625,0.00125 -0.1725,0.00125 -0.2575,0.00125m-27.00375,-21.75375l-1.795,-2.20875l0,-0.00125c0.29125,0.3575 0.66125,0.645 1.1025,0.8625l-0.24125,0.1975l0.93375,1.15" id="path90"/>
   <path fill="#72a183" fill-rule="nonzero" d="m396.761256,758.019996l-0.3625,-0.445l0.3625,0.445l0,0" id="path92"/>
   <path fill="#963827" fill-rule="nonzero" d="m396.761256,758.019996l-0.3625,-0.445l-0.93375,-1.15l0.24125,-0.1975c0.675,0.3325 1.51875,0.5 2.50375,0.5c0.0475,0 0.09375,0 0.14125,-0.00125l-1.59,1.29375" id="path94"/>
   <path fill="#d6d6d6" fill-rule="nonzero" d="m416.430006,753.946246l-0.455,-0.55875l0.00125,0l0.45375,0.55875" id="path96"/>
   <path fill="#963827" fill-rule="nonzero" d="m403.441256,766.234997l-1.2975,-1.595l13.8325,-11.2525l0.45375,0.55875l0.8425,1.0375l-13.83125,11.25125" id="path98"/>
   <path fill="#d6d6d6" fill-rule="nonzero" d="m422.918756,761.922496l-0.26125,-0.32125l0,0l0.26125,0.32125" id="path100"/>
   <path fill="#963827" fill-rule="nonzero" d="m410.341256,774.271247c-0.5125,-0.4575 -1.00125,-0.9425 -1.4675,-1.455l13.78375,-11.215l0.26125,0.32125l1.03625,1.275l-13.61375,11.07375" id="path102"/>
   <path fill="#d6d6d6" fill-rule="nonzero" d="m430.636256,771.408747l-1.2975,-1.59375l0.00125,0l1.29625,1.59375" id="path104"/>
   <path fill="#963827" fill-rule="nonzero" d="m421.092506,779.173747c-0.89,-0.1075 -1.76375,-0.28875 -2.62375,-0.515l10.87125,-8.84375l1.29625,1.59375l-9.54375,7.765" id="path106"/>
   <path fill="#dfe0df" fill-rule="nonzero" d="m465.446257,638.617495c-2.6975,-0.00125 -6.1225,-2.22125 -9.73125,-5.53125c0.035,-0.1475 0.06875,-0.2975 0.1025,-0.44875c6.7175,-30.28375 -20.7125,-31.08875 -20.7125,-31.08875l35.120001,-32.1125l-9.61625,-32.24375c1.1075,-0.9625 2.22375,-1.92125 3.3475,-2.87375l13.61,31.2475l-30.99,36.115001c0,0 0.53375,-0.04875 1.44625,-0.04875c5.605,0 25.45875,1.8575 22.865,28.41c-0.6,6.14875 -2.6225,8.575 -5.44125,8.575" id="path108"/>
   <path fill="#f8f8f8" fill-rule="nonzero" d="m390.966256,386.891241l174.677503,-14.8125c-1.24625,23.495 -2.9625,54.200001 8.18875,80.455001c-22.045,26.49375 -107.030002,78.853751 -138.977502,80.538751c-21.82,-37.008751 -38.008751,-92.012501 -43.888751,-146.181252" id="path110"/>
   <path fill="#4c3625" fill-rule="nonzero" d="m573.832509,452.533742l-138.977502,80.538751l17.44375,31.595l-30.9175,38.032501c0,0 28.0825,58.583751 34.436251,29.9375c6.7175,-30.28375 -20.7125,-31.08875 -20.7125,-31.08875l35.120001,-32.1125l-10.26125,-34.403751c0,0 50.335001,-34.893751 103.127502,-61.941251l1.87,2.33625c6.20375,-2.2425 12.43125,-4.26875 18.67125,-6.08375l-9.8,-16.81" id="path112"/>
   <path fill="#fbd8b6" fill-rule="nonzero" d="m565.643758,372.078741c0,0 11.63875,-177.288753 -127.115002,-135.146252c0,0 -44.302501,52.350001 -47.562501,149.958752c117.025002,30.36375 174.677503,-14.8125 174.677503,-14.8125" id="path114"/>
   <path fill="#4c3625" fill-rule="nonzero" d="m552.770008,153.621237c12.97125,49.567501 20.205,120.035002 -125.058752,127.540002l-1.75125,37.673751c0,0 -16.42375,-12.51375 -18.955,5.30875c-2.535,17.835 17.8225,9.0825 17.8225,9.0825c0,0 -16.0975,33.2475 -33.861251,53.665001c-1.06375,1.2225 -77.221251,-154.818752 1.805,-162.711252c0,0 3.37125,-39.355001 58.521251,-46.020001c50.346251,-6.08375 76.037501,40.016251 101.477502,-24.53875" id="path116"/>
   <path fill="#ec6180" fill-rule="nonzero" d="m484.617507,347.44124c0,0 21.95125,-5.95375 51.250001,-8.49c0,0 3.5625,27.7475 -21.11875,31.83625c-27.19875,4.505 -30.13125,-23.34625 -30.13125,-23.34625" id="path118"/>
   <path fill="#4c3625" fill-rule="nonzero" d="m474.241257,313.84249c1.75125,7.17 0.495,13.63625 -2.80625,14.44375c-3.3025,0.80625 -7.39875,-4.3525 -9.15125,-11.5225c-1.75125,-7.17 -0.495,-13.63625 2.8075,-14.44375c3.30125,-0.80625 7.39875,4.3525 9.15,11.5225" id="path120"/>
   <path fill="#4c3625" fill-rule="nonzero" d="m544.278758,296.73124c1.75125,7.17 0.49375,13.63625 -2.8075,14.4425c-3.3025,0.8075 -7.39875,-4.35125 -9.15125,-11.52125c-1.75125,-7.17 -0.495,-13.63625 2.80625,-14.44375c3.3025,-0.80625 7.4,4.3525 9.1525,11.5225" id="path122"/>
   <path fill="#dfe0df" fill-rule="nonzero" d="m545.652508,522.811243c-1.655,0 -3.50625,-0.17875 -5.29125,-0.3625c-3.3075,-0.13125 -18.17,-3.64 -39.185001,-14.14125c8.41875,-5.19875 17.74,-10.805 27.5825,-16.47625c9.76125,4.37625 15.67625,6.19875 16.53875,6.32375c3.70875,0.5325 11.10625,2.18625 10.16875,5.6225c-0.43125,1.5775 -1.4875,2.22625 -3.43375,2.22625c-0.20625,0 -0.42375,-0.0075 -0.65125,-0.0225c1.49625,0.5725 3.055,1.3475 2.9525,3.00625c-0.08375,1.44 -2.59125,2.59125 -4.27625,2.5925c-0.0425,0 -0.08375,-0.00125 -0.125,-0.0025c-0.01375,-0.0025 -0.02875,-0.005 -0.0425,-0.0075c0.01375,0.0025 0.02875,0.005 0.0425,0.0075c1.43125,0.23625 3.0275,1.79875 2.945,3.155c-0.0825,1.58875 -1.975,2.2025 -3.63,2.2025c-0.2,0 -0.395,-0.00875 -0.58375,-0.025c1.5,0.565 2.5725,1.43125 2.48,3.0775c-0.12875,2.2325 -2.48625,2.82375 -5.49125,2.82375m4.04625,-11.2675l0,0m-0.19125,-0.0125c-0.005,0.00125 -0.01,0.00125 -0.01375,0.00125c0.00375,0 0.00875,0 0.01375,-0.00125m0.01375,0c0.00875,0 0.01625,0 0.025,0.00125c-0.00875,-0.00125 -0.01625,-0.00125 -0.025,-0.00125l0,0" id="path124"/>
   <path fill="#dfe0df" fill-rule="nonzero" d="m488.920007,501.741243c-26.1375,-14.94375 -58.870001,-39.688751 -90.392501,-79.477501l13.18125,-14.75625c41.992501,41.786251 79.977501,65.690001 104.633752,78.342501l-27.4225,15.89125" id="path126"/>
   <path fill="#453122" fill-rule="nonzero" d="m501.176257,508.307493c-3.88625,-1.94125 -7.98375,-4.12375 -12.25625,-6.56625l27.4225,-15.89125c4.63125,2.3775 8.7875,4.355 12.41625,5.98125c-9.8425,5.67125 -19.16375,11.2775 -27.5825,16.47625" id="path128"/>
   <path fill="#fbd8b6" fill-rule="nonzero" d="m411.592506,407.403741c71.650001,70.188751 131.397502,89.203751 134.296252,89.598751c3.7125,0.50375 11.12125,2.09875 10.2125,5.54125c-0.46375,1.75125 -1.7025,2.36875 -4.0675,2.2375c1.5,0.56125 3.06375,1.32375 2.975,2.9825c-0.075,1.4775 -2.6975,2.67125 -4.38125,2.625c-0.1475,-0.0225 -0.2975,-0.04625 -0.44,-0.0425c0.1425,-0.00375 0.2925,0.02 0.44,0.0425c1.4325,0.225 3.04125,1.77625 2.96875,3.1325c-0.0775,1.77875 -2.4375,2.355 -4.1975,2.20875c1.5075,0.55375 2.58625,1.41125 2.505,3.0575c-0.17,3.465 -6.7625,1.8825 -10.685,0.90625c-3.13625,-0.7825 -65.755001,-20.3375 -142.691252,-97.431251l13.065,-14.85875" id="path130"/>
   <path fill="#f8f8f8" fill-rule="nonzero" d="m411.592506,407.403741l-13.065,14.86c5.62875,5.63875 11.16875,10.93625 16.62625,15.975l12.48875,-15.7825c-5.2725,-4.745 -10.62125,-9.73375 -16.05,-15.0525" id="path132"/>
   <path fill="#ededed" fill-rule="nonzero" d="m502.780007,467.639992l-17.315,-12.80875l13.3425,-15.33875c0.27875,0.0025 0.5625,0.00375 0.8375,0.00375c47.690001,0.0025 45.995001,-30.0775 45.995001,-30.0775l-7.50625,-6.1475l1.44375,-5.81375l12.53,-5.04375l4.99375,5.2425l-2.605,8.505c0,0 5.855,48.438751 -51.716251,61.478751" id="path134"/>
   <path fill="#4c3625" fill-rule="nonzero" d="m552.107508,392.413741l4.99375,5.2425l-2.605,8.505c0,0 5.4975,44.043751 -52.075001,57.083751l-17.31375,-12.8075l13.3425,-15.33875c48.541251,0.35375 47.190001,-25.68 47.190001,-25.68l-7.50625,-6.1475l1.44375,-5.815l12.53,-5.0425" id="path136"/>
   <path fill="#dddddd" fill-rule="nonzero" d="m295.712504,454.151242c-0.54,0 -0.98,-0.44 -0.98,-0.98125l0,-5.95125c0,-0.54125 0.44,-0.98125 0.98125,-0.98125c0.54,0 0.98,0.44 0.98,0.98125l0,5.95125c0,0.54125 -0.44,0.98125 -0.98125,0.98125" id="path138"/>
   <path fill="#dddddd" fill-rule="nonzero" d="m290.481254,455.927492c-0.2625,0 -0.50875,-0.10125 -0.69375,-0.2875l-4.20875,-4.2075c-0.185,-0.185 -0.2875,-0.43125 -0.2875,-0.69375c0,-0.26125 0.1025,-0.5075 0.2875,-0.6925c0.185,-0.18625 0.4325,-0.2875 0.6925,-0.2875c0.2625,0 0.50875,0.10125 0.695,0.2875l4.2075,4.2075c0.18625,0.18625 0.28875,0.4325 0.28875,0.69375c0,0.2625 -0.1025,0.5075 -0.28875,0.69375c-0.185,0.185 -0.43125,0.28625 -0.6925,0.28625" id="path140"/>
   <path fill="#dddddd" fill-rule="nonzero" d="m282.086254,460.884992c-0.54125,0 -0.98,-0.44 -0.98,-0.98125c0,-0.54 0.43875,-0.98 0.98,-0.98l5.9525,0c0.54,0 0.98,0.44 0.98,0.98c0,0.54125 -0.44,0.98125 -0.98,0.98125l-5.9525,0" id="path142"/>
   <path fill="#dddddd" fill-rule="nonzero" d="m285.606254,470.324992c-0.26125,0 -0.5075,-0.10125 -0.6925,-0.2875c-0.185,-0.185 -0.2875,-0.43125 -0.2875,-0.6925c0,-0.2625 0.1025,-0.50875 0.2875,-0.69375l4.20875,-4.20875c0.185,-0.185 0.43125,-0.2875 0.69375,-0.2875c0.26125,0 0.5075,0.1025 0.69375,0.2875c0.185,0.18625 0.28625,0.4325 0.28625,0.69375c0,0.2625 -0.10125,0.5075 -0.28625,0.69375l-4.21,4.2075c-0.185,0.18625 -0.43125,0.2875 -0.69375,0.2875" id="path144"/>
   <path fill="#dddddd" fill-rule="nonzero" d="m294.771254,474.511242c-0.54,0 -0.98,-0.44 -0.98,-0.98125l0,-5.95125c0,-0.54 0.44,-0.98 0.98125,-0.98c0.54,0 0.98,0.44 0.98,0.98l0,5.95125c0,0.54125 -0.44,0.98125 -0.98125,0.98125" id="path146"/>
   <path fill="#dddddd" fill-rule="nonzero" d="m304.212505,470.991242c-0.26125,0 -0.5075,-0.1025 -0.69375,-0.2875l-4.2075,-4.20875c-0.185,-0.185 -0.2875,-0.43125 -0.2875,-0.69375c0,-0.26125 0.1025,-0.5075 0.2875,-0.6925c0.18625,-0.18625 0.43125,-0.2875 0.69375,-0.2875c0.26125,0 0.5075,0.10125 0.69375,0.2875l4.2075,4.20875c0.185,0.185 0.2875,0.43125 0.2875,0.6925c0,0.2625 -0.1025,0.50875 -0.2875,0.69375c-0.18625,0.185 -0.4325,0.2875 -0.69375,0.2875" id="path148"/>
   <path fill="#dddddd" fill-rule="nonzero" d="m302.446255,461.826242c-0.54,0 -0.98,-0.44 -0.98,-0.98125c0,-0.54125 0.44,-0.98125 0.98,-0.98125l5.9525,0.00125c0.54125,0 0.98125,0.44 0.98125,0.98c-0.00125,0.54125 -0.44125,0.98125 -0.98125,0.98125l-5.9525,0" id="path150"/>
   <path fill="#dddddd" fill-rule="nonzero" d="m300.670004,456.593742c-0.2625,0 -0.50875,-0.1025 -0.69375,-0.2875c-0.185,-0.185 -0.2875,-0.43125 -0.2875,-0.69375c0,-0.26125 0.1025,-0.5075 0.2875,-0.69375l4.20875,-4.2075c0.185,-0.185 0.43125,-0.28625 0.69375,-0.28625c0.26125,0 0.5075,0.10125 0.6925,0.28625c0.3825,0.3825 0.3825,1.005 0,1.3875l-4.20875,4.2075c-0.185,0.185 -0.43125,0.2875 -0.6925,0.2875" id="path152"/>
   <path fill="#dddddd" fill-rule="nonzero" d="m789.180012,304.49249c-0.72,0 -1.30625,-0.585 -1.30625,-1.30625l0,-18.70875c0,-0.72125 0.58625,-1.30625 1.30625,-1.30625c0.72,0 1.30625,0.585 1.30625,1.30625l0,18.70875c0,0.72125 -0.58625,1.30625 -1.30625,1.30625" id="path154"/>
   <path fill="#dddddd" fill-rule="nonzero" d="m779.825012,295.138739c-0.72,0 -1.30625,-0.58625 -1.30625,-1.30625c0,-0.72125 0.58625,-1.30625 1.30625,-1.30625l18.71,0c0.72,0 1.30625,0.585 1.30625,1.30625c0,0.72 -0.58625,1.30625 -1.30625,1.30625l-18.71,0" id="path156"/>
   <path fill="#dddddd" fill-rule="nonzero" d="m252.302504,316.01249c-0.61,0 -1.105,-0.495 -1.105,-1.105l0,-15.82875c0,-0.60875 0.495,-1.105 1.105,-1.105c0.60875,0 1.105,0.49625 1.105,1.105l0,15.82875c0,0.61 -0.49625,1.105 -1.105,1.105" id="path158"/>
   <path fill="#dddddd" fill-rule="nonzero" d="m244.390004,308.09874c-0.61,0 -1.10625,-0.49625 -1.10625,-1.10625c0,-0.60875 0.49625,-1.105 1.10625,-1.105l15.8275,0c0.61,0 1.105,0.49625 1.105,1.105c0,0.61 -0.495,1.10625 -1.105,1.10625l-15.8275,0" id="path160"/>
   <path fill="#dddddd" fill-rule="nonzero" d="m890.713763,419.498741c-0.87875,0 -1.59375,-0.715 -1.59375,-1.59375l0,-22.83625c0,-0.87875 0.715,-1.595 1.59375,-1.595c0.87875,0 1.595,0.71625 1.595,1.595l0,22.83625c0,0.87875 -0.71625,1.59375 -1.595,1.59375" id="path162"/>
   <path fill="#dddddd" fill-rule="nonzero" d="m879.296263,408.081241c-0.87875,0 -1.59375,-0.715 -1.59375,-1.59375c0,-0.88 0.715,-1.595 1.59375,-1.595l22.835,0c0.88,0 1.59375,0.715 1.59375,1.595c0,0.87875 -0.71375,1.59375 -1.59375,1.59375l-22.835,0" id="path164"/>
   <path fill="#dddddd" fill-rule="nonzero" d="m347.388755,104.099987c-1.925,0 -3.49125,1.56625 -3.49125,3.49125c0,1.925 1.56625,3.49 3.49125,3.49c1.925,0 3.49,-1.565 3.49,-3.49c0,-1.925 -1.565,-3.49125 -3.49,-3.49125zm0,9.08875c-3.0875,0 -5.5975,-2.51125 -5.5975,-5.5975c0,-3.08625 2.51,-5.5975 5.5975,-5.5975c3.08625,0 5.5975,2.51125 5.5975,5.5975c0,3.08625 -2.51125,5.5975 -5.5975,5.5975" id="path166"/>
   <path fill="#dddddd" fill-rule="nonzero" d="m749.101261,415.514991c-1.775,-0.0575 -3.265,1.33875 -3.3225,3.1125c-0.05875,1.775 1.3375,3.26625 3.1125,3.32375c1.775,0.05875 3.26625,-1.33875 3.3225,-3.11375c0.05875,-1.77375 -1.3375,-3.26375 -3.1125,-3.3225zm-0.27375,8.37875c-2.845,-0.0925 -5.08375,-2.48375 -4.99125,-5.32875c0.0925,-2.845 2.48375,-5.085 5.32875,-4.99125c2.845,0.0925 5.08375,2.4825 4.99125,5.3275c-0.0925,2.84625 -2.4825,5.085 -5.32875,4.9925" id="path168"/>
   <path fill="#dddddd" fill-rule="nonzero" d="m129.076252,201.781238c-2.57125,0 -4.662125,2.09125 -4.662125,4.66125c0,2.57125 2.090875,4.6625 4.662125,4.6625c2.57125,0 4.6625,-2.09125 4.6625,-4.6625c0,-2.57 -2.09125,-4.66125 -4.6625,-4.66125zm0,12.13875c-4.122625,0 -7.476125,-3.355 -7.476125,-7.4775c0,-4.12125 3.3535,-7.47625 7.476125,-7.47625c4.1225,0 7.47625,3.355 7.47625,7.47625c0,4.1225 -3.35375,7.4775 -7.47625,7.4775" id="path170"/>
   <path fill="#dddddd" fill-rule="nonzero" d="m836.741262,164.238738c-1.2225,0 -2.2175,-0.985 -2.2175,-2.1975c0,-1.2225 0.99,-2.21625 2.2075,-2.21625c1.21625,0 2.20625,0.98875 2.20625,2.20625c0,1.2175 -0.985,2.2075 -2.19625,2.2075zm8.83875,3.63c-0.5825,0 -1.1325,-0.22375 -1.5525,-0.63c-0.855,-0.87 -0.8625,-2.28125 -0.00625,-3.13625c0.41625,-0.4175 0.97125,-0.64625 1.56125,-0.64625c0.5875,0 1.1425,0.22875 1.55875,0.64625c0.855,0.855 0.8625,2.25375 0.01375,3.11625c-0.43625,0.42125 -0.985,0.65 -1.575,0.65zm-17.67875,0.055c-0.58625,0 -1.14,-0.23 -1.56,-0.6475c-0.8575,-0.86125 -0.85875,-2.26125 0,-3.12c0.41375,-0.42125 0.965,-0.65 1.55625,-0.65c0.59,0 1.145,0.23 1.56375,0.65c0.41875,0.41 0.64875,0.9575 0.65125,1.54625c0.0025,0.5925 -0.22875,1.1525 -0.65125,1.57375c-0.4175,0.41625 -0.97125,0.6475 -1.56,0.6475zm21.37625,8.82875c-1.2175,0 -2.2075,-0.99625 -2.2075,-2.21875c0,-1.24125 0.985,-2.25125 2.195,-2.25125c1.21,0 2.20625,0.9825 2.21875,2.19c0,1.27625 -0.96875,2.28 -2.20625,2.28zm-25.00625,0.02125c-1.22375,0 -2.2175,-0.99 -2.2175,-2.2075c0,-1.2175 0.99,-2.2075 2.20625,-2.2075c1.2175,0 2.2075,0.985 2.2075,2.19625c0,1.22375 -0.985,2.21875 -2.19625,2.21875zm21.34125,8.8075c-0.58875,0 -1.14125,-0.23 -1.55875,-0.64875c-0.85375,-0.8525 -0.85375,-2.25 -0.00375,-3.11625c0.42125,-0.41375 0.97875,-0.645 1.5675,-0.645c0.59,0 1.1425,0.22875 1.555,0.6425c0.42125,0.42125 0.65375,0.98 0.65125,1.5725c-0.0025,0.58875 -0.235,1.13875 -0.65375,1.55c-0.405,0.41875 -0.95375,0.645 -1.5575,0.645zm-17.6775,0.02c-0.44625,0 -0.875,-0.13375 -1.23875,-0.38625l-0.14125,-0.09875l-0.01375,0l-0.1725,-0.1675c-0.8475,-0.8475 -0.84875,-2.245 0.00375,-3.11125c0.42,-0.42 0.97625,-0.6525 1.56625,-0.6525c0.59125,0 1.145,0.23125 1.55875,0.6525c0.86375,0.85 0.865,2.2425 0.01,3.1125c-0.435,0.4225 -0.9825,0.65125 -1.5725,0.65125zm8.85,3.65375c-1.2175,-0.0025 -2.2075,-0.99125 -2.2075,-2.2075c0,-1.21625 0.98875,-2.20625 2.205,-2.20625c1.2175,0 2.20875,0.99125 2.20875,2.2075c0,1.21625 -0.99,2.20625 -2.20625,2.20625" id="path172"/>
   <path fill="#dddddd" fill-rule="nonzero" d="m110.945377,413.009991c-1.296,0 -2.349625,-1.045 -2.349625,-2.32875c0,-1.29625 1.04925,-2.35125 2.33925,-2.35125c1.289625,0 2.339875,1.05 2.339875,2.34c0,1.29125 -1.045375,2.34 -2.3295,2.34zm9.371,3.8475c-0.618125,0 -1.202625,-0.2375 -1.647,-0.6675c-0.90475,-0.92125 -0.9125,-2.41875 -0.00675,-3.325c0.441875,-0.44125 1.03025,-0.685 1.65675,-0.685c0.6235,0 1.209375,0.24375 1.651375,0.685c0.907625,0.9075 0.914,2.39 0.015125,3.30375c-0.4615,0.4475 -1.043,0.68875 -1.6695,0.68875zm-18.74075,0.05875c-0.6225,0 -1.209375,-0.2425 -1.65375,-0.685c-0.910625,-0.91375 -0.910625,-2.39875 0,-3.30875c0.4375,-0.445 1.0225,-0.68875 1.649375,-0.68875c0.625,0 1.213375,0.245 1.65825,0.69c0.442875,0.43625 0.6865,1.01625 0.6885,1.63875c0.001875,0.62875 -0.24225,1.2225 -0.69,1.66875c-0.441875,0.44375 -1.02825,0.685 -1.652375,0.685zm22.66075,9.36c-1.289625,0 -2.339375,-1.05625 -2.339375,-2.3525c0,-1.31625 1.043375,-2.38625 2.327625,-2.38625c1.281625,0 2.335375,1.04125 2.351625,2.32125c0,1.3525 -1.02875,2.4175 -2.339875,2.4175zm-26.508875,0.0225c-1.296875,0 -2.3515,-1.05 -2.3515,-2.34c0,-1.29 1.04975,-2.33875 2.339875,-2.33875c1.29,0 2.33925,1.04375 2.33925,2.3275c0,1.29625 -1.043875,2.35125 -2.327625,2.35125zm22.6245,9.33625c-0.624,0 -1.210875,-0.24375 -1.65275,-0.68625c-0.903875,-0.905 -0.90625,-2.3875 -0.0035,-3.305c0.445375,-0.4375 1.038625,-0.68375 1.66075,-0.68375c0.6245,0 1.209875,0.2425 1.648875,0.68c0.44775,0.4475 0.692375,1.03875 0.69,1.6675c-0.002,0.62375 -0.249125,1.2075 -0.6925,1.64375c-0.429625,0.445 -1.012125,0.68375 -1.650875,0.68375zm-18.742125,0.0225c-0.47125,0 -0.924875,-0.14125 -1.311,-0.41l-0.150375,-0.10375l-0.01425,0l-0.183625,-0.17875c-0.898375,-0.89625 -0.899375,-2.37875 0.0035,-3.29625c0.443875,-0.44625 1.034625,-0.69375 1.660625,-0.69375c0.6265,0 1.213375,0.24625 1.652375,0.6925c0.916,0.9 0.918375,2.3775 0.013125,3.30125c-0.462375,0.44625 -1.043875,0.68875 -1.670375,0.68875zm9.38375,3.87375c-1.2905,0 -2.34025,-1.05 -2.34025,-2.34c0,-1.29125 1.04975,-2.34 2.34025,-2.34c1.289625,0 2.339375,1.04875 2.339375,2.34c0,1.29 -1.04975,2.34 -2.339375,2.34" id="path174"/>
   <path fill="#dddddd" fill-rule="nonzero" d="m620.691259,98.187487c-0.76625,0 -1.38875,-0.6225 -1.38875,-1.38875l0,-7.89375c0,-0.76625 0.6225,-1.38875 1.38875,-1.38875c0.765,0 1.38875,0.6225 1.38875,1.38875l0,7.89375c0,0.76625 -0.62375,1.38875 -1.38875,1.38875" id="path176"/>
   <path fill="#dddddd" fill-rule="nonzero" d="m613.752509,100.544987c-0.37,0 -0.7175,-0.145 -0.98,-0.40625l-5.5825,-5.5825c-0.26375,-0.2625 -0.4075,-0.61125 -0.4075,-0.98125c0,-0.37 0.14375,-0.72 0.4075,-0.9825c0.26125,-0.2625 0.60875,-0.40625 0.98125,-0.40625c0.37,0 0.72,0.145 0.98125,0.4075l5.58125,5.58c0.54125,0.54125 0.54125,1.4225 0,1.965c-0.26125,0.26125 -0.61,0.40625 -0.98125,0.40625" id="path178"/>
   <path fill="#dddddd" fill-rule="nonzero" d="m602.620009,107.118737c-0.7675,0 -1.39,-0.6225 -1.39,-1.38875c0,-0.765 0.6225,-1.38875 1.39,-1.38875l7.8925,0c0.76625,0 1.3875,0.62375 1.3875,1.38875c0,0.76625 -0.62125,1.38875 -1.3875,1.38875l-7.8925,0" id="path180"/>
   <path fill="#dddddd" fill-rule="nonzero" d="m607.288759,119.639987c-0.37,0 -0.71875,-0.145 -0.98125,-0.4075c-0.2625,-0.26125 -0.40625,-0.61125 -0.40625,-0.9825c0,-0.37 0.14375,-0.71875 0.40625,-0.9825l5.5825,-5.58c0.26125,-0.26375 0.61,-0.4075 0.98125,-0.4075c0.37125,0 0.71875,0.145 0.9825,0.4075c0.54,0.54 0.54,1.42125 0,1.9625l-5.58375,5.5825c-0.26125,0.2625 -0.61,0.4075 -0.98125,0.4075" id="path182"/>
   <path fill="#dddddd" fill-rule="nonzero" d="m619.445009,125.189987c-0.76625,0 -1.38875,-0.6225 -1.38875,-1.38875l0,-7.8925c0,-0.76625 0.6225,-1.38875 1.38875,-1.38875c0.765,0 1.38875,0.6225 1.38875,1.38875l0,7.8925c0,0.76625 -0.62375,1.38875 -1.38875,1.38875" id="path184"/>
   <path fill="#dddddd" fill-rule="nonzero" d="m631.965009,120.519987c-0.37125,0 -0.72,-0.14375 -0.98125,-0.40625l-5.58125,-5.5825c-0.26375,-0.26125 -0.4075,-0.61 -0.4075,-0.98125c0,-0.37 0.14375,-0.71875 0.4075,-0.9825c0.2625,-0.26125 0.61,-0.40625 0.98125,-0.40625c0.37,0 0.72,0.145 0.98125,0.4075l5.58125,5.5825c0.2625,0.26125 0.40875,0.61 0.40875,0.98125c0,0.37125 -0.14625,0.72 -0.40875,0.98125c-0.26125,0.26375 -0.61,0.40625 -0.98125,0.40625" id="path186"/>
   <path fill="#dddddd" fill-rule="nonzero" d="m629.622509,108.364987c-0.765,0 -1.38875,-0.6225 -1.38875,-1.38875c0,-0.765 0.62375,-1.38875 1.38875,-1.38875l7.895,0c0.765,0 1.3875,0.62375 1.3875,1.38875c0,0.76625 -0.6225,1.38875 -1.3875,1.38875l-7.895,0" id="path188"/>
   <path fill="#dddddd" fill-rule="nonzero" d="m627.265009,101.426237c-0.36875,0 -0.71875,-0.145 -0.98125,-0.40625c-0.2625,-0.26375 -0.4075,-0.6125 -0.4075,-0.9825c0,-0.37 0.145,-0.72 0.4075,-0.9825l5.58,-5.58c0.26375,-0.2625 0.6125,-0.4075 0.9825,-0.4075c0.37125,0 0.71875,0.145 0.9825,0.4075c0.54,0.54 0.54,1.4225 0,1.9625l-5.58125,5.5825c-0.26375,0.26125 -0.6125,0.40625 -0.9825,0.40625" id="path190"/>
   <path fill="#dddddd" fill-rule="nonzero" d="m215.180003,616.232494c-1.095,0 -2.1625,0.11125 -3.20625,0.29c0.01375,-0.3625 0.05375,-0.7175 0.05375,-1.08375c0,-14.6575 -11.8825,-26.54 -26.54,-26.54c-12.6725,0 -23.2525,8.88875 -25.89125,20.76625c-0.2175,-0.0075 -0.43,-0.03375 -0.64875,-0.03375c-12.36875,0 -22.395,10.02625 -22.395,22.39375c0,12.37 10.02625,22.395 22.395,22.395l56.232501,0c10.545,0 19.095,-8.54875 19.095,-19.09375c0,-10.54625 -8.55,-19.09375 -19.095,-19.09375" id="path192"/>
   <path fill="#dddddd" fill-rule="nonzero" d="m848.575013,646.013745c-0.97625,0 -1.92625,0.1 -2.8575,0.2575c0.01375,-0.3225 0.04875,-0.63875 0.04875,-0.965c0,-13.06 -10.5875,-23.6475 -23.6475,-23.6475c-11.29,0 -20.71625,7.92 -23.06875,18.5025c-0.1925,-0.00625 -0.38125,-0.02875 -0.5775,-0.02875c-11.02,0 -19.95375,8.9325 -19.95375,19.95375c0,11.01875 8.93375,19.9525 19.95375,19.9525l50.102501,0c9.39625,0 17.01375,-7.61625 17.01375,-17.0125c0,-9.39625 -7.6175,-17.0125 -17.01375,-17.0125" id="path194"/>
   <path fill="#dddddd" fill-rule="nonzero" d="m916.422514,827.962497c-0.69875,0 -1.38,0.07125 -2.04875,0.17875c0.10625,-0.85875 0.1675,-1.72875 0.1675,-2.615c0,-11.63875 -9.435,-21.0725 -21.07375,-21.0725c-11.10375,0 -20.1975,8.5925 -21.00625,19.49c-1.16,-0.2825 -2.365,-0.45 -3.61125,-0.45c-8.37375,0 -15.16375,6.78875 -15.16375,15.1625c0,8.37375 6.79,15.16375 15.16375,15.16375l47.572501,0c7.14,0 12.9275,-5.78875 12.9275,-12.92875c0,-7.14 -5.7875,-12.92875 -12.9275,-12.92875" id="path196"/>
   <path fill="#dddddd" fill-rule="nonzero" d="m134.446252,802.087497c-0.65875,0 -1.3,0.0675 -1.93,0.1675c0.1,-0.8075 0.1575,-1.62875 0.1575,-2.46375c0,-10.9675 -8.892,-19.86 -19.86025,-19.86c-10.465875,0 -19.03475,8.09875 -19.797875,18.37c-1.09225,-0.2675 -2.2285,-0.425 -3.403375,-0.425c-7.8915,0 -14.2895,6.3975 -14.2895,14.29c0,7.89125 6.398,14.28875 14.2895,14.28875l44.834001,0c6.72875,0 12.18375,-5.45375 12.18375,-12.18375c0,-6.72875 -5.455,-12.18375 -12.18375,-12.18375" id="path198"/>
   <path fill="#dddddd" fill-rule="nonzero" d="m669.70626,898.797373c-0.58125,0 -1.145,0.059125 -1.70125,0.1475c0.0875,-0.711 0.14,-1.435125 0.14,-2.17c0,-9.662625 -7.83375,-17.495125 -17.4975,-17.495125c-9.22,0 -16.76875,7.133875 -17.44,16.181625c-0.9625,-0.23525 -1.9625,-0.3755 -2.9975,-0.3755c-6.95375,0 -12.58875,5.63675 -12.58875,12.590375c0,6.95125 5.635,12.587375 12.58875,12.587375l39.496251,0c5.9275,0 10.73125,-4.805125 10.73125,-10.732375c0,-5.92875 -4.80375,-10.733875 -10.73125,-10.733875" id="path200"/>
  </g>
 </g>
</svg>