<svg width="1000" height="1000" xmlns="http://www.w3.org/2000/svg">
 <metadata id="metadata8">image/svg+xml</metadata>

 <g>
  <title>background</title>
  <rect fill="none" id="canvas_background" height="402" width="582" y="-1" x="-1"/>
 </g>
 <g>
  <title>Layer 1</title>
  <path fill="#f8f8f8" fill-rule="nonzero" d="m633.893759,555.267493l-29.54875,-10.67875c0,0 5.64,-11.56 14.67375,-33.956251l28.37375,11.075c-4.24625,10.71625 -8.72125,21.85875 -13.49875,33.560001" id="path16"/>
  <path fill="#fbd8b6" fill-rule="nonzero" d="m619.018759,510.632493c15.16,-37.588751 48.671251,-145.208752 72.362501,-240.595004c0,0 2.27875,-7.25625 6.35,-6.06c4.6775,1.37375 1.7775,9.605 1.7775,9.605c0,0 2.17875,-7.48125 6.45625,-5.92c4.2775,1.56 2.0375,9.85125 2.0375,9.85125c0,0 3.11375,-7.94875 7.29,-6.19c4.07625,1.71625 1.1475,9.8225 1.1475,9.8225c0,0 2.52125,-7.3325 7.055,-6.32625c4.535,1.00625 1.3925,10.29 1.3925,10.29c-4.7,13.215 -27.9875,111.677502 -77.495001,236.597504l-28.37375,-11.075" id="path18"/>
  <path fill="#89b498" fill-rule="nonzero" d="m629.357509,482.467492c-0.00125,-0.00625 0,0.0025 -0.00125,-0.00375c3.075,-8.91125 6.4275,-18.98125 9.96875,-29.95125c0,0.00125 0.00125,0.00375 0.00125,0.005c-3.5425,10.97375 -6.895,21.0425 -9.96875,29.95" id="path20"/>
  <path fill="#ecebeb" fill-rule="nonzero" d="m633.893759,555.267493l-29.54875,-10.67875c0,0 3.205,-6.57 8.65375,-19.39875c11.3225,-4.63 17.775,-8.2275 19.56625,-9.27l14.8275,5.7875l0,0c-4.21375,10.6325 -8.65125,21.685 -13.38625,33.28625c-0.0375,0.09125 -0.075,0.1825 -0.1125,0.27375" id="path22"/>
  <path fill="#f0cdaa" fill-rule="nonzero" d="m647.39251,521.707493l0,0l-14.8275,-5.7875c0.345,-0.20125 0.5175,-0.3075 0.5175,-0.3075c0,0 -0.69125,-13.1475 -3.725,-33.145c3.07375,-8.9075 6.42625,-18.97625 9.96875,-29.95c2.82375,12.86375 7.90625,37.496251 11.085,61.497501c-1.00125,2.56 -1.99625,5.1125 -3.01875,7.6925l0,0" id="path24"/>
  <path fill="#eeeeee" fill-rule="nonzero" d="m536.917508,911.638624c-100.331251,0 -181.627503,-12.243625 -181.577503,-27.348625c0.05,-15.10625 81.426251,-27.35125 181.758753,-27.35125c100.332501,0 181.628753,12.245 181.577503,27.35125c-0.05,15.105 -81.425001,27.348625 -181.758753,27.348625" id="path26"/>
  <path fill="#fbd8b6" fill-rule="nonzero" d="m633.082509,515.612493c0,0 -17.12,-327.567505 -258.241254,-201.361253c0,0 -39.365001,82.910001 -24.61375,237.308754c194.315003,18.625 282.855004,-35.947501 282.855004,-35.947501" id="path28"/>
  <path fill="#504133" fill-rule="nonzero" d="m568.250008,175.957488c0,0 138.271252,182.758753 -163.266252,198.745003l1.73125,58.918751c0,0 -28.6,-22.03375 -32.40375,6.1525c-3.79875,28.185 31.95375,14.3225 31.95375,14.3225c0,0 -23.595,74.853751 -54.983751,97.566251c0,0 -120.023752,-241.592504 -6.5025,-250.586254c0,0 -0.93125,-43.638751 58.708751,-72.092501c34.188751,-16.31 63.877501,-10.92125 88.620001,-5.53375c36.827501,8.02125 62.697501,16.04125 76.142501,-47.492501" id="path30"/>
  <path fill="#504133" fill-rule="nonzero" d="m391.457506,720.321246l7.54625,49.553751c1.78125,11.70625 2.09125,23.58875 0.92125,35.372501l-7.815,78.687501c0,0 100.915002,27.288625 75.480001,-12.5225c-23.49125,-36.766251 -60.146251,-6.22125 -60.146251,-6.22125l15.35,-68.963751c1.805,-8.1075 2.89375,-16.3575 3.255,-24.6575l1.4175,-32.60125c0,0 102.293752,4.18625 189.802503,-23.12625l2.3075,21.2825c2.46,22.6825 1.805,45.593751 -1.94375,68.097501l-11.315,67.941251c0,0 93.408751,31.35625 67.547501,-12.0725c-14.33875,-24.0775 -49.567501,-8.96875 -49.567501,-8.96875l13.88875,-50.253751c5.63125,-20.3725 8.6575,-41.375001 9.00875,-62.508751l0.8525,-51.362501l-256.590004,32.32375" id="path32"/>
  <path fill="#f8f8f8" fill-rule="nonzero" d="m633.082509,515.612493l14.965,172.385003c0,0 -104.640002,33.24625 -256.590004,32.32375l-41.230001,-168.761253c0,0 175.922503,11.9875 282.855004,-35.947501" id="path34"/>
  <path fill="#f5f6f5" fill-rule="nonzero" d="m572.748759,549.136243l6.23375,9.29375l-6.1975,12.27375l16.4275,102.033752l-25.7975,25.42625l-26.1375,-22.12125l21.1625,-102.693752l-9.82375,-11.3325l3.7225,-8.48l20.41,-4.4" id="path36"/>
  <path fill="#504133" fill-rule="nonzero" d="m572.748759,549.136243l6.23375,9.29375l-6.1975,12.27375l22.38125,99.671251l-25.79875,25.42625l-26.13625,-22.1225l15.20875,-100.330001l-9.82375,-11.3325l3.7225,-8.48l20.41,-4.4" id="path38"/>
  <path fill="#ec6180" fill-rule="nonzero" d="m567.343758,461.921242c-13.03625,1.675 -48.947501,7.015 -73.818751,17.65125c-2.635,1.12625 -4.04375,3.99 -3.4025,6.7825c2.5125,10.94625 12.51125,35.888751 50.938751,27.7225c37.940001,-8.0625 35.542501,-36.042501 32.78,-47.647501c-0.7025,-2.9475 -3.49125,-4.895 -6.4975,-4.50875" id="path40"/>
  <path fill="#504133" fill-rule="nonzero" d="m472.435007,432.383742c2.205,10.285 -0.2975,19.54375 -5.5925,20.68c-5.295,1.135 -11.37625,-6.2825 -13.5825,-16.56875c-2.205,-10.285 0.29875,-19.54375 5.59375,-20.68c5.29375,-1.135 11.375,6.2825 13.58125,16.56875" id="path42"/>
  <path fill="#504133" fill-rule="nonzero" d="m592.138759,406.711241c2.20625,10.28625 -0.2975,19.54375 -5.59375,20.68c-5.29375,1.135 -11.37375,-6.2825 -13.58,-16.5675c-2.2075,-10.28625 0.29625,-19.545 5.5925,-20.68c5.29375,-1.135 11.37375,6.2825 13.58125,16.5675" id="path44"/>
  <path fill="#f8f8f8" fill-rule="nonzero" d="m357.600005,580.464994l18.975,-25.04125c0,0 -11.02375,-6.6275 -30.79125,-20.49875l-17.775,24.73625c9.395,6.6775 19.215,13.59 29.59125,20.80375" id="path46"/>
  <path fill="#fbd8b6" fill-rule="nonzero" d="m345.783755,534.924993c-33.1775,-23.2825 -119.867502,-95.321251 -191.661253,-162.446252c0,0 -5.86,-4.8475 -8.625,-1.6275c-3.175,3.69875 3.7375,9.02625 3.7375,9.02625c0,0 -5.9,-5.09 -8.6375,-1.4525c-2.74,3.6375 3.65125,9.37375 3.65125,9.37375c0,0 -6.9375,-4.97375 -9.48375,-1.22625c-2.485,3.65875 4.38375,8.86625 4.38375,8.86625c0,0 -6.10625,-4.78 -9.3625,-1.4675c-3.255,3.31125 4.4325,9.38875 4.4325,9.38875c11.13625,8.52875 84.265001,78.453751 193.790003,156.301252l17.775,-24.73625" id="path48"/>
  <path fill="#dddddd" fill-rule="nonzero" d="m236.103754,742.708746c-1.83125,0 -3.31875,-1.48875 -3.31875,-3.32l0,-47.550001c0,-1.83125 1.4875,-3.32 3.31875,-3.32c1.83,0 3.32,1.48875 3.32,3.32l0,47.550001c0,1.83125 -1.49,3.32 -3.32,3.32" id="path50"/>
  <path fill="#dddddd" fill-rule="nonzero" d="m212.331253,718.932496c-1.83125,0 -3.32,-1.48875 -3.32,-3.31875c0,-1.83125 1.48875,-3.32 3.32,-3.32l47.547501,0c1.83125,0 3.32,1.48875 3.32,3.32c0,1.83 -1.48875,3.31875 -3.32,3.31875l-47.547501,0" id="path52"/>
  <path fill="#dddddd" fill-rule="nonzero" d="m839.402513,283.696239c-1.70625,0 -3.09375,-1.3875 -3.09375,-3.09375l0,-44.300001c0,-1.705 1.3875,-3.0925 3.09375,-3.0925c1.705,0 3.0925,1.3875 3.0925,3.0925l0,44.300001c0,1.70625 -1.3875,3.09375 -3.0925,3.09375" id="path54"/>
  <path fill="#dddddd" fill-rule="nonzero" d="m817.255012,261.546239c-1.70625,0 -3.09375,-1.38875 -3.09375,-3.0925c0,-1.70625 1.3875,-3.09375 3.09375,-3.09375l44.296251,0c1.705,0 3.09375,1.3875 3.09375,3.09375c0,1.70375 -1.38875,3.0925 -3.09375,3.0925l-44.296251,0" id="path56"/>
  <path fill="#dddddd" fill-rule="nonzero" d="m262.370004,200.542488c-1.70625,0 -3.09375,-1.3875 -3.09375,-3.09375l0,-44.298751c0,-1.70625 1.3875,-3.09375 3.09375,-3.09375c1.705,0 3.0925,1.3875 3.0925,3.09375l0,44.298751c0,1.70625 -1.3875,3.09375 -3.0925,3.09375" id="path58"/>
  <path fill="#dddddd" fill-rule="nonzero" d="m240.222504,178.391238c-1.70625,0 -3.09375,-1.38625 -3.09375,-3.09125c0,-1.70625 1.3875,-3.09375 3.09375,-3.09375l44.297501,0c1.705,0 3.0925,1.3875 3.0925,3.09375c0,1.705 -1.3875,3.09125 -3.0925,3.09125l-44.297501,0" id="path60"/>
  <path fill="#dddddd" fill-rule="nonzero" d="m533.695008,91.734986c-4.77375,0 -8.65875,3.885 -8.65875,8.6575c0,4.77375 3.885,8.6575 8.65875,8.6575c4.77375,0 8.6575,-3.88375 8.6575,-8.6575c0,-4.7725 -3.88375,-8.6575 -8.6575,-8.6575zm0,22.54c-7.65625,0 -13.8825,-6.2275 -13.8825,-13.8825c0,-7.655 6.22625,-13.88375 13.8825,-13.88375c7.65625,0 13.88375,6.22875 13.88375,13.88375c0,7.655 -6.2275,13.8825 -13.88375,13.8825" id="path62"/>
  <path fill="#dddddd" fill-rule="nonzero" d="m127.403752,536.428743c-2.4745,0 -4.48875,-1.995 -4.48875,-4.44875c0,-2.47625 2.004875,-4.49125 4.47,-4.49125c2.46375,0 4.47,2.005 4.47,4.47c0,2.465 -1.9975,4.47 -4.45125,4.47zm17.90375,7.35c-1.18,0 -2.2975,-0.4525 -3.14625,-1.27375c-1.72875,-1.76125 -1.745,-4.62 -0.01375,-6.35375c0.845,-0.84375 1.96875,-1.30875 3.165,-1.30875c1.1925,0 2.31125,0.465 3.15625,1.30875c1.7325,1.735 1.74625,4.56625 0.0275,6.3125c-0.88125,0.85375 -1.99125,1.315 -3.18875,1.315zm-35.802626,0.115c-1.1895,0 -2.311,-0.4675 -3.160125,-1.3125c-1.73975,-1.74375 -1.73975,-4.58 0,-6.32c0.835875,-0.85 1.953125,-1.315 3.151875,-1.315c1.193375,0 2.317375,0.4675 3.1665,1.3175c0.846125,0.83375 1.312,1.94125 1.315875,3.13c0.003875,1.20375 -0.462875,2.3375 -1.318375,3.19c-0.84425,0.845 -1.964375,1.31 -3.15575,1.31zm43.291376,17.87875c-2.46375,0 -4.47,-2.015 -4.47,-4.49375c0,-2.51375 1.995,-4.55875 4.44875,-4.55875c2.44625,0 4.46125,1.99 4.49125,4.435c0,2.58375 -1.96375,4.6175 -4.47,4.6175zm-50.643876,0.04375c-2.477625,0 -4.49275,-2.00375 -4.49275,-4.47c0,-2.465 2.005875,-4.47 4.47075,-4.47c2.463875,0 4.46925,1.995 4.46925,4.4475c0,2.47875 -1.994625,4.4925 -4.44725,4.4925zm43.222626,17.8375c-1.19125,0 -2.3125,-0.46625 -3.1575,-1.3125c-1.72625,-1.72875 -1.73,-4.56125 -0.00625,-6.31375c0.85125,-0.8375 1.98375,-1.305 3.1725,-1.305c1.1925,0 2.3125,0.46125 3.15,1.29875c0.855,0.855 1.3225,1.98375 1.31875,3.18375c-0.005,1.1925 -0.47625,2.30875 -1.3225,3.1425c-0.82125,0.84875 -1.935,1.30625 -3.155,1.30625zm-79.027251,-17.795c-0.901,0 -1.767625,-0.27125 -2.505375,-0.78375l-0.288125,-0.1975l-0.026375,0l-0.351625,-0.3425c-1.71575,-1.7125 -1.71775,-4.54375 0.006875,-6.29875c0.848625,-0.85 1.9775,-1.32125 3.173375,-1.32125c1.19575,0 2.317875,0.46875 3.15575,1.32125c1.7505,1.72 1.754875,4.54375 0.026375,6.30625c-0.88375,0.85375 -1.994625,1.31625 -3.190875,1.31625zm17.925875,7.4c-2.465,0 -4.469875,-2.00625 -4.469875,-4.47c0,-2.46625 2.004875,-4.47125 4.469875,-4.47125c2.46375,0 4.47,2.005 4.47,4.47125c0,2.46375 -2.00625,4.47 -4.47,4.47" id="path64"/>
  <path fill="#dddddd" fill-rule="nonzero" d="m741.866261,670.642495c-2.47375,0 -4.48875,-1.995 -4.48875,-4.44875c0,-2.47625 2.00625,-4.4925 4.47,-4.4925c2.46375,0 4.47,2.00625 4.47,4.47125c0,2.465 -1.9975,4.47 -4.45125,4.47zm17.90375,7.35125c-1.18,0 -2.2975,-0.45375 -3.14625,-1.275c-1.72875,-1.76125 -1.74375,-4.62125 -0.0125,-6.35375c0.84375,-0.84375 1.9675,-1.30875 3.16375,-1.30875c1.19125,0 2.31125,0.465 3.15625,1.30875c1.7325,1.73375 1.74625,4.565 0.0275,6.31125c-0.88125,0.855 -1.9925,1.3175 -3.18875,1.3175zm-35.802501,0.1125c-1.18875,0 -2.31125,-0.46625 -3.16,-1.31c-1.74,-1.745 -1.74,-4.5825 0,-6.32125c0.835,-0.85 1.9525,-1.315 3.15125,-1.315c1.19375,0 2.3175,0.4675 3.16625,1.31625c0.8475,0.83375 1.3125,1.9425 1.31625,3.13125c0.005,1.20375 -0.4625,2.33625 -1.3175,3.19c-0.845,0.845 -1.965,1.30875 -3.15625,1.30875zm43.292501,17.88c-2.465,0 -4.47125,-2.015 -4.47125,-4.49375c0,-2.51375 1.995,-4.56 4.44875,-4.56c2.44625,0 4.46125,1.99 4.4925,4.43625c0,2.5825 -1.965,4.6175 -4.47,4.6175zm-50.645001,0.04375c-2.4775,0 -4.4925,-2.005 -4.4925,-4.47c0,-2.465 2.00625,-4.47 4.47,-4.47c2.46375,0 4.47125,1.995 4.47125,4.4475c0,2.4775 -1.99625,4.4925 -4.44875,4.4925zm43.222501,17.83625c-1.19125,0 -2.3125,-0.46625 -3.1575,-1.31125c-1.72625,-1.73 -1.73,-4.56 -0.00625,-6.31375c0.85125,-0.8375 1.98375,-1.305 3.1725,-1.305c1.1925,0 2.3125,0.46125 3.15,1.2975c0.855,0.855 1.3225,1.98375 1.31875,3.185c-0.005,1.1925 -0.47625,2.30875 -1.3225,3.1425c-0.82125,0.84875 -1.93375,1.305 -3.155,1.305zm-35.803751,0.04375c-0.90125,0 -1.7675,-0.27125 -2.50625,-0.78375l-0.28875,-0.19875l-0.025,0l-0.3525,-0.34125c-1.715,-1.7125 -1.7175,-4.54375 0.00625,-6.29875c0.85,-0.85 1.9775,-1.32125 3.17375,-1.32125c1.19625,0 2.31875,0.46875 3.1575,1.32c1.75,1.72 1.75375,4.54375 0.025,6.3075c-0.88375,0.85375 -1.99375,1.31625 -3.19,1.31625zm17.925,7.39875c-2.46375,0 -4.47,-2.005 -4.47,-4.47c0,-2.465 2.00625,-4.46875 4.47,-4.46875c2.46375,0 4.47125,2.00375 4.47125,4.46875c0,2.465 -2.0075,4.47 -4.47125,4.47" id="path66"/>
  <path fill="#dddddd" fill-rule="nonzero" d="m864.172513,485.148742c-1.6425,0 -2.97625,-1.335 -2.97625,-2.9775l0,-16.92375c0,-1.6425 1.33375,-2.9775 2.97625,-2.9775c1.64125,0 2.97875,1.335 2.97875,2.9775l0,16.92375c0,1.6425 -1.3375,2.9775 -2.97875,2.9775" id="path68"/>
  <path fill="#dddddd" fill-rule="nonzero" d="m849.297513,490.203742c-0.79375,0 -1.54,-0.30875 -2.10375,-0.87125l-11.9675,-11.9675c-0.565,-0.5625 -0.875,-1.31 -0.875,-2.105c0,-0.79375 0.31,-1.54125 0.875,-2.105c0.56,-0.5625 1.3075,-0.87125 2.10375,-0.87125c0.795,0 1.54375,0.31 2.105,0.87125l11.96625,11.96625c1.15875,1.16 1.15875,3.05 0,4.21c-0.56125,0.5625 -1.31,0.8725 -2.10375,0.8725" id="path70"/>
  <path fill="#dddddd" fill-rule="nonzero" d="m825.427512,504.297493c-1.6425,0 -2.9775,-1.335 -2.9775,-2.97625c0,-1.64125 1.335,-2.9775 2.9775,-2.9775l16.92375,0c1.64125,0 2.97625,1.33625 2.97625,2.9775c0,1.64125 -1.335,2.97625 -2.97625,2.97625l-16.92375,0" id="path72"/>
  <path fill="#dddddd" fill-rule="nonzero" d="m835.440012,531.142493c-0.795,0 -1.54375,-0.31 -2.105,-0.8725c-0.5625,-0.56125 -0.8725,-1.31 -0.8725,-2.10625c0,-0.79375 0.31,-1.54125 0.8725,-2.10375l11.9675,-11.9675c0.56125,-0.56375 1.30875,-0.8725 2.105,-0.8725c0.79625,0 1.54125,0.31 2.105,0.8725c1.15625,1.16 1.15875,3.04875 0,4.21l-11.96875,11.9675c-0.56,0.5625 -1.31,0.8725 -2.10375,0.8725" id="path74"/>
  <path fill="#dddddd" fill-rule="nonzero" d="m861.500013,543.042493c-1.64125,0 -2.97625,-1.33625 -2.97625,-2.9775l0,-16.92125c0,-1.6425 1.335,-2.9775 2.97625,-2.9775c1.6425,0 2.9775,1.335 2.9775,2.9775l0,16.92125c0,1.64125 -1.335,2.9775 -2.9775,2.9775" id="path76"/>
  <path fill="#dddddd" fill-rule="nonzero" d="m888.345013,533.032493c-0.795,0 -1.545,-0.31125 -2.105,-0.8725l-11.96625,-11.9675c-0.5625,-0.5625 -0.8725,-1.31 -0.8725,-2.105c0,-0.795 0.31,-1.54375 0.8725,-2.10625c0.56375,-0.56125 1.31,-0.87125 2.105,-0.87125c0.79375,0 1.54125,0.31 2.10375,0.8725l11.96625,11.9675c0.56375,0.56375 0.87375,1.31 0.87375,2.105c0,0.795 -0.31,1.5425 -0.87375,2.10625c-0.56125,0.5625 -1.30875,0.87125 -2.10375,0.87125" id="path78"/>
  <path fill="#dddddd" fill-rule="nonzero" d="m883.322513,506.969993c-1.64,0 -2.9775,-1.335 -2.9775,-2.9775c0,-1.64125 1.3375,-2.97625 2.9775,-2.97625l16.92375,0c1.64375,0 2.97625,1.335 2.97625,2.97625c0,1.6425 -1.3325,2.9775 -2.97625,2.9775l-16.92375,0" id="path80"/>
  <path fill="#dddddd" fill-rule="nonzero" d="m878.268763,492.092492c-0.795,0 -1.5425,-0.31 -2.10375,-0.87125c-0.56375,-0.5625 -0.87375,-1.31125 -0.87375,-2.10625c0,-0.79375 0.31,-1.54125 0.87375,-2.105l11.96375,-11.96375c0.5625,-0.56375 1.3125,-0.8725 2.10625,-0.8725c0.79375,0 1.54125,0.30875 2.105,0.8725c1.1575,1.15875 1.15875,3.04875 0,4.2075l-11.96625,11.9675c-0.565,0.56125 -1.3125,0.87125 -2.105,0.87125" id="path82"/>
  <path fill="#f0cdaa" fill-rule="nonzero" d="m446.758757,475.939992c-14.4825,0 -28.00125,-6.7325 -36.796251,-17.7875l-4.645,-1.17375c0.6225,-1.8525 0.9475,-2.8825 0.9475,-2.8825c0,0 -2.235,0.8675 -5.52875,1.72625l-5.11125,-1.29c-2.53375,-0.64 -4.49,-2.65625 -5.05125,-5.21l-0.02375,-0.105l-14.19875,3.125c-1.92375,-2.7275 -2.82375,-6.7525 -2.04,-12.56875c1.48375,-10.99625 6.74,-14.34875 12.6025,-14.34875c6.22875,0 13.14125,3.78875 16.9275,6.21375c5.175,21.4525 24.3875,36.001251 45.680001,36.001251c3.34875,0 6.74625,-0.36 10.1525,-1.10875l45.082501,-9.91875c3.90375,-0.85875 7.505,-2.64875 10.775,-4.9475c0.0025,-0.00125 0.00375,-0.00375 0.00625,-0.005c0.015,-0.01 0.02875,-0.02 0.04375,-0.03l0,0c2.09625,-1.47875 4.50875,-2.57375 7.17125,-3.16l0,0c0.0775,-0.0175 0.15625,-0.03375 0.23375,-0.05c0.37,-0.0775 0.74,-0.1425 1.10875,-0.1975l0.00125,0c0.0225,-0.00375 0.04375,-0.0075 0.065,-0.01c0.00875,-0.00125 0.0175,-0.0025 0.02625,-0.00375c0.01375,-0.0025 0.0275,-0.00375 0.04125,-0.00625c0.01125,-0.00125 0.0225,-0.0025 0.03375,-0.005c0.01125,-0.00125 0.0225,-0.0025 0.03375,-0.00375c0.015,-0.0025 0.03125,-0.005 0.0475,-0.0075c0.00625,0 0.0125,-0.00125 0.01875,-0.0025c0.01375,-0.00125 0.0275,-0.00375 0.04,-0.005c0.01,-0.00125 0.01875,-0.0025 0.0275,-0.00375c0.87,-0.115 1.73625,-0.17125 2.59375,-0.17125c1.20875,0 2.4,0.11125 3.565,0.32375c2.0375,0.37375 4.09875,0.58625 6.15625,0.58625c1.93125,0 3.86,-0.1875 5.76125,-0.60625l45.081251,-9.9175c7.77625,-1.71 14.675,-5.25375 20.345,-10.075l9.28625,-2.04375c0.6975,2.43625 1.365,4.85375 2.00375,7.2525l-14.075,3.09625c-1.9475,1.655 -4.0425,3.15375 -6.26625,4.485l-0.10625,0.06625c-0.53,0.31375 -1.06625,0.61875 -1.61,0.91375l-0.15125,0.08125c-3.75,2.01625 -7.82875,3.565 -12.19375,4.52625l-45.081251,9.9175c-1.88875,0.415 -3.805,0.59875 -5.725,0.59875c-0.8775,0 -1.75625,-0.0375 -2.63375,-0.11l-0.00125,-0.00125c-0.5725,-0.04625 -1.14625,-0.10625 -1.71875,-0.1825l-0.09,-0.01125c-0.585,-0.07875 -1.1675,-0.1675 -1.74875,-0.27375c-1.16625,-0.21375 -2.35875,-0.325 -3.56875,-0.325c-0.09875,0 -0.1975,0.00125 -0.29625,0.0025c-1.31125,0.02 -2.63875,0.17125 -3.97125,0.46375c-2.66125,0.58625 -5.075,1.6825 -7.17125,3.16c-0.48375,0.34125 -0.9775,0.6675 -1.47625,0.985l-0.06375,0.04c-2.865,1.8175 -5.96375,3.2275 -9.285,3.9575l-45.082501,9.91875c-3.40375,0.74875 -6.8,1.1075 -10.1475,1.1075" id="path84"/>
  <path fill="#4c3d30" fill-rule="nonzero" d="m316.147505,465.586242c-4.08375,-12.185 -7.92875,-24.9175 -11.14875,-37.677501l77.275001,-17c-0.04375,-2.1075 0.86625,-4.15125 2.5425,-5.5075l11.49375,-9.3025c0.65375,-2.68125 1.54,-5.28875 2.64,-7.7925c-1.53,6.60125 -1.65125,13.64 -0.0975,20.69875l4.77125,21.69c0.07,0.31625 0.1425,0.63125 0.2175,0.94375c-3.78625,-2.425 -10.69875,-6.21375 -16.9275,-6.21375c-5.8625,0 -11.11875,3.3525 -12.6025,14.34875c-0.78375,5.81625 0.11625,9.84125 2.04,12.56875l-60.203751,13.24375m89.170001,-8.6075l-4.58125,-1.15625c3.29375,-0.85875 5.52875,-1.72625 5.52875,-1.72625c0,0 -0.325,1.03 -0.9475,2.8825" id="path86"/>
  <path fill="#abaaa9" fill-rule="nonzero" d="m562.601258,324.81374l-127.913752,28.14125c-25.37375,5.5825 -41.417501,30.67625 -35.835001,56.050001l4.77125,21.69c5.58125,25.37375 30.67625,41.417501 56.050001,35.836251l45.082501,-9.91875c3.92375,-0.8625 7.54125,-2.6675 10.825,-4.9825c2.09625,-1.47875 4.50875,-2.57375 7.17125,-3.16c2.6625,-0.585 5.31375,-0.60375 7.83625,-0.1425c3.9525,0.725 7.99125,0.84375 11.9175,-0.02l45.081251,-9.9175c25.37375,-5.58125 41.417501,-30.67625 35.836251,-56.050001l-4.77125,-21.68875c-5.5825,-25.37375 -30.6775,-41.418751 -56.051251,-35.837501" id="path88"/>
  <path fill="#9d9d9c" fill-rule="nonzero" d="m419.968756,390.247491l10.41,47.323751c3.9475,17.93875 21.68875,29.2825 39.628751,25.33625l42.540001,-9.35875c1.03875,-0.58875 2.05375,-1.2275 3.03375,-1.91875c2.09625,-1.47875 4.50875,-2.57375 7.17125,-3.16c2.6625,-0.585 5.31375,-0.60375 7.83625,-0.1425c1.18,0.2175 2.3675,0.37 3.5575,0.46875l63.952501,-14.06875c19.095,-9.2925 30.08875,-30.73375 25.325,-52.387501l-4.77125,-21.68875c-5.5825,-25.375 -30.6775,-41.418751 -56.051251,-35.837501l-117.296252,25.80625c-17.94,3.94625 -29.28375,21.68875 -25.33625,39.627501" id="path90"/>
  <path fill="#f8f8f8" fill-rule="nonzero" d="m622.103759,425.197491l-144.498752,31.7875c-17.94,3.9475 -35.681251,-7.39625 -39.628751,-25.33625l-9.51875,-43.268751c-3.94625,-17.93875 7.3975,-35.681251 25.3375,-39.628751l144.497502,-31.78875c17.93875,-3.94625 35.681251,7.3975 39.627501,25.3375l9.51875,43.268751c3.94625,17.94 -7.39625,35.682501 -25.335,39.628751" id="path92"/>
  <path fill="#abaaa9" fill-rule="nonzero" d="m398.392506,446.231242l15.1375,3.82125l-13.81,-62.775001l-12.13625,9.8225c-2.0325,1.64375 -2.96125,4.295 -2.39875,6.8475l8.155,37.073751c0.5625,2.5525 2.5175,4.57 5.0525,5.21" id="path94"/>
  <path fill="#f4f3f3" fill-rule="nonzero" d="m469.186257,345.36624l-15.39125,3.385c-17.94,3.9475 -29.28375,21.69 -25.3375,39.628751l9.51875,43.268751c3.9475,17.94 21.68875,29.28375 39.628751,25.33625l144.498752,-31.7875c5.59,-1.23125 10.53875,-3.80125 14.58625,-7.3l-167.503752,-72.531251" id="path96"/>
  <path fill="#9d9d9c" fill-rule="nonzero" d="m393.015006,398.218741l0,0c-1.19,0.26125 -1.94125,1.4375 -1.68,2.62625l8.58,38.998751c0.26125,1.1875 1.4375,1.94 2.62625,1.67875c1.18875,-0.2625 1.94,-1.4375 1.67875,-2.62625l-8.58,-38.998751c-0.26125,-1.18875 -1.43625,-1.94 -2.625,-1.67875" id="path98"/>
  <path fill="#717374" fill-rule="nonzero" d="m310.852505,459.058742l93.288751,-20.5225l-8.42125,-38.278751l-93.288751,20.52375c-2.35125,0.51625 -3.8375,2.84125 -3.31875,5.19125l6.5475,29.7675c0.5175,2.35 2.84125,3.83625 5.1925,3.31875" id="path100"/>
  <path fill="#89b498" fill-rule="nonzero" d="m648.22251,392.724991c-0.00125,-2.36 -0.255,-4.75625 -0.78375,-7.15625c0.52875,2.4 0.7825,4.79625 0.78375,7.15625m-10.3025,-50.425001c-0.01375,-0.06375 -0.0275,-0.12625 -0.0425,-0.18875c0.015,0.0625 0.02875,0.125 0.0425,0.18875m-0.08125,-0.36c0,-0.00125 -0.00125,-0.0025 -0.00125,-0.00375c0,0.00125 0.00125,0.0025 0.00125,0.00375m-0.00125,-0.00625c-0.01375,-0.05625 -0.02625,-0.11125 -0.04,-0.1675c0.01375,0.05625 0.02625,0.11125 0.04,0.1675m-39.545001,-24.97125c2.40625,-0.52875 4.80875,-0.78375 7.175,-0.78375c-2.365,0.00125 -4.77,0.255 -7.175,0.78375m7.18875,-0.78375c-0.00375,0 -0.00875,0 -0.01125,0l0,0c0.0025,0 0.0075,0 0.01125,0" id="path102"/>
  <path fill="#ecebeb" fill-rule="nonzero" d="m622.103759,425.197491c0.02125,-0.005 0.0425,-0.01 0.0625,-0.01375c-0.02,0.00375 -0.0425,0.00875 -0.0625,0.01375l0,0m0.06875,-0.015c5.5625,-1.2375 10.4875,-3.8 14.5175,-7.285l-7.2875,-3.155c8.865,-5.8275 13.6925,-16.725 11.28,-27.6875l-9.5175,-43.268751c-2.70375,-12.2875 -13.6275,-20.685 -25.7225,-20.685c-1.8675,0 -3.765,0.2 -5.66375,0.6175l-119.746252,26.34375l-10.84625,-4.69625l-15.39125,3.385l144.497502,-31.78875l0,0c2.405,-0.52875 4.81,-0.7825 7.175,-0.78375c0.00125,0 0.00125,0 0.0025,0c0.0025,0 0.0075,0 0.01125,0c15.09375,0.00625 28.70625,10.35 32.31625,25.5875c0.01375,0.05625 0.02625,0.11125 0.04,0.1675c0,0.00125 0,0.00125 0,0.0025c0,0.00125 0.00125,0.0025 0.00125,0.00375c0.0125,0.05625 0.02625,0.11375 0.03875,0.17125c0.015,0.0625 0.02875,0.125 0.0425,0.18875l0,0l9.51875,43.268751l0,0c0.52875,2.4 0.7825,4.79625 0.78375,7.15625c0.01,15.26125 -10.54875,29.0125 -26.05,32.4575" id="path104"/>
  <path fill="#e7e6e5" fill-rule="nonzero" d="m470.427507,457.768742c-15.27375,0 -29.03375,-10.5875 -32.45125,-26.12l-9.51875,-43.268751c-0.5275,-2.4 -0.7825,-4.79625 -0.78375,-7.1575c-0.00875,-15.2825 10.58125,-29.0525 26.12125,-32.47125l0,0l15.39125,-3.385l10.84625,4.69625l-24.75125,5.445c-14.18625,3.12125 -23.1875,17.20125 -20.0675,31.3875l9.52,43.267501c2.7025,12.28875 13.62625,20.685 25.72125,20.685c1.8675,0 3.76625,-0.2 5.66375,-0.6175l144.497502,-31.79c3.22375,-0.70875 6.18,-1.98375 8.78625,-3.6975l7.2875,3.155c-4.03,3.485 -8.955,6.0475 -14.5175,7.285c-0.0025,0 -0.00375,0 -0.00625,0.00125c-0.02,0.00375 -0.04125,0.00875 -0.0625,0.01375l0,0l-144.498752,31.7875c-2.4075,0.53 -4.81,0.78375 -7.1775,0.78375" id="path106"/>
 </g>
</svg>