<svg width="1000" height="100" xmlns="http://www.w3.org/2000/svg">
 <metadata id="metadata8">image/svg+xml</metadata>

 <g>
  <title>background</title>
  <rect fill="none" id="canvas_background" height="102" width="1002" y="-1" x="-1"/>
 </g>
 <g>
  <title>Layer 1</title>
  <path fill="#a2d847" fill-rule="nonzero" d="m973.007781,55.252494c-0.333299,2.3475 -1.196126,6.525 -2.900136,8.1625c-1.211997,1.165 -2.849637,1.04625 -5.022575,-1.92875c-2.52788,-3.46125 -0.569927,-9.125 0.167371,-12.6525c0.659384,-3.145 1.549625,-6.265 2.614451,-9.14c1.126869,-2.85 2.299909,-5.49875 3.546535,-7.6675c0.302999,-0.5475 0.593013,-1.0725 0.870041,-1.57125c0.240957,-0.3875 0.464599,-0.74625 0.686798,-1.1c0.105328,0.78375 0.207771,1.5725 0.302999,2.3775c0.396785,3.82 0.600227,7.87 0.574256,11.8775c-0.076471,4.015 -0.360713,7.97875 -0.839741,11.6425zm-90.280814,8.49125c-0.1313,0.20625 -0.262599,0.4075 -0.393899,0.61125l-3.88272,0c0.421313,-3.3 1.141297,-7.46625 2.131095,-11.62125c0.346285,-1.45 0.725756,-2.8925 1.121098,-4.2975c0.554056,2.775 0.930641,5.51 1.089355,8.0775c0.122643,2.6475 0.108214,5.07875 -0.064928,7.23zm-18.436788,-1.52875c-1.308669,2.1625 -2.322995,2.55125 -3.102136,1.98375c-1.790582,-1.3075 -2.331652,-7.68 -2.315781,-9.19875c0.077914,-2.54375 0.324642,-5.095 0.724313,-7.47625c0.448728,-2.36875 0.953726,-4.58625 1.572711,-6.44375c0.274142,-0.94 0.578584,-1.78625 0.867155,-2.5325c0.137071,-0.38 0.266928,-0.735 0.395342,-1.06c0.018757,0.0775 0.0404,0.14625 0.059157,0.225c0.633413,2.34375 1.15284,5.11125 1.581368,8.02625c0.383799,2.9325 0.604556,6.035 0.627641,9.0925c-0.014429,2.53625 -0.158714,5.02625 -0.409771,7.38375zm-39.629427,2.11375c-0.004329,0.00875 -0.0101,0.0175 -0.015871,0.02625l-2.69958,0c0.940741,-4.13875 1.940639,-9.08125 2.823665,-14.215c0.438628,2.10625 0.826755,4.2475 1.103783,6.39c0.086571,0.70375 0.163042,1.40625 0.232299,2.105c0.193342,1.98 -0.341956,3.9525 -1.444297,5.69375zm-17.400819,-3.765c-0.1414,1.31875 -0.318871,2.53875 -0.526642,3.66625c-0.066371,0.0475 -0.106771,0.0775 -0.173142,0.125c-1.624654,0 -2.861179,-1.25125 -2.625994,-2.64375c0.088014,-0.51875 0.173142,-1.04375 0.256828,-1.57625c0.454499,-3.18 0.75317,-6.58 0.872927,-9.97625c0.066371,-2.96875 -0.012986,-5.92 -0.210657,-8.7275c0.624756,1.7225 1.175926,3.7675 1.647739,5.91c0.441513,2.17 0.748841,4.4625 0.887355,6.71375c0.108214,2.265 0.063486,4.47875 -0.128414,6.50875zm-132.458321,1.52625c-0.012986,0.83125 -0.0303,1.59 -0.047614,2.265c-2.015667,0 -3.755749,-1.2075 -4.200148,-2.91125c-0.046171,-0.1775 -0.093786,-0.355 -0.1414,-0.53375c1.060498,-3.4425 1.924767,-7.07125 2.519223,-10.735c0.49057,-3.4625 0.744513,-6.93125 0.776255,-10.27125c0.337628,2.95 0.660827,6.36125 0.83397,9.7475c0.259714,4.5625 0.318871,9.07625 0.259714,12.43875zm-16.725563,-1.86375c-0.203442,0.2925 -0.406885,0.58125 -0.610327,0.86625c-0.158714,-0.6025 -0.331856,-1.20125 -0.526642,-1.7925c-1.564054,-4.6725 -4.039991,-8.61375 -6.022472,-11.5275c0.756055,-4.35 1.012883,-8.6275 0.992684,-12.6175c0.1818,0.32875 0.362156,0.66375 0.552613,1.00875c1.201897,2.12125 2.295581,4.7025 3.27095,7.42c0.916212,2.75375 1.617439,5.6925 2.031538,8.595c0.344842,2.7875 0.442956,5.52 0.311656,8.0475zm-9.648364,0.65625c-0.193342,1.2125 -0.492013,2.37625 -0.862827,3.4725l-2.372052,0c0.239514,-0.44 0.476142,-0.88 0.70267,-1.33c1.096569,-2.14375 2.021438,-4.4075 2.842422,-6.7225c0.0101,1.52875 -0.0707,3.0775 -0.310214,4.58zm-45.422485,-13.27875c-0.76327,3.39625 -1.307226,6.8925 -1.559725,10.23125c-0.0404,0.63125 -0.073586,1.2575 -0.098114,1.875c-0.108214,2.5875 -2.533652,4.645 -5.521802,4.645c0.392456,-2.335 0.949398,-4.75 1.666496,-7.14875c0.978255,-3.0175 2.197467,-5.98875 3.573949,-8.70125c1.047512,-1.94875 2.110895,-3.78375 3.188707,-5.41c-0.457385,1.47125 -0.880141,2.97625 -1.249512,4.50875zm-32.885527,7.12625c-0.002886,0.00875 -0.005771,0.0175 -0.008657,0.02625c-0.372256,-1.865 -0.695456,-3.78375 -0.945069,-5.7225c-0.347728,-3.0775 -0.525199,-6.18 -0.523756,-9.0975c0.0202,-1.2025 0.059157,-2.36375 0.115428,-3.49c0.209214,0.25875 0.41987,0.51875 0.639184,0.78375c1.727096,2.025 3.403692,4.4675 5.006703,7.10375c-1.611668,3.45875 -3.07905,6.99 -4.283833,10.39625zm-16.721234,0.5225c-0.180357,1.26375 -0.370813,2.4875 -0.572813,3.665c-0.536742,3.13125 -3.653306,5.4375 -7.306612,5.4375c-0.258271,-1.50125 -0.567042,-3.0875 -0.920541,-4.74375c-0.001443,-0.48625 -0.005771,-0.97 0,-1.46875c0.101,-2.97125 0.454499,-6.145 1.044626,-9.30375c0.657941,-3.14625 1.549625,-6.26875 2.614451,-9.145c1.126869,-2.85 2.299909,-5.49875 3.546535,-7.6675c0.302999,-0.5475 0.593013,-1.0725 0.870041,-1.57125c0.240957,-0.3875 0.464599,-0.74625 0.686798,-1.1c0.105328,0.78375 0.207771,1.5725 0.304442,2.3775c0.395342,3.82 0.598784,7.87 0.572813,11.8775c-0.076471,4.015 -0.360713,7.97875 -0.839741,11.6425zm-97.018942,4.35875c-0.353499,1.65625 -0.66227,3.2425 -0.920541,4.74375c-3.653306,0 -6.769871,-2.30625 -7.306612,-5.4375c-0.202,-1.1775 -0.392456,-2.40125 -0.572813,-3.665c-0.479028,-3.66375 -0.76327,-7.6275 -0.839741,-11.6425c-0.025971,-4.0075 0.177471,-8.0575 0.574256,-11.8775c0.095228,-0.805 0.197671,-1.59375 0.302999,-2.3775c0.2222,0.35375 0.445842,0.7125 0.686798,1.1c0.277028,0.49875 0.567042,1.02375 0.870041,1.57125c1.246626,2.16875 2.419666,4.8175 3.546535,7.6675c1.064826,2.87625 1.95651,5.99875 2.614451,9.145c0.590127,3.15875 0.943626,6.3325 1.044626,9.30375c0.005771,0.49875 0.001443,0.9825 0,1.46875zm-24.567474,-10.5775c-0.249614,1.93875 -0.572813,3.8575 -0.945069,5.7225c-0.002886,-0.00875 -0.005771,-0.0175 -0.008657,-0.02625c-1.204783,-3.40625 -2.672166,-6.9375 -4.283833,-10.39625c1.603011,-2.63625 3.279607,-5.07875 5.006703,-7.10375c0.219314,-0.265 0.42997,-0.525 0.639184,-0.78375c0.056271,1.12625 0.095228,2.2875 0.116871,3.49c0,2.9175 -0.177471,6.02 -0.525199,9.0975zm-32.181414,10.67625c-0.024529,-0.6175 -0.057714,-1.24375 -0.098114,-1.875c-0.252499,-3.33875 -0.796455,-6.835 -1.559725,-10.23125c-0.369371,-1.5325 -0.792127,-3.0375 -1.249512,-4.50875c1.077812,1.62625 2.141195,3.46125 3.188707,5.41c1.376483,2.7125 2.595694,5.68375 3.573949,8.70125c0.717098,2.39875 1.27404,4.81375 1.666496,7.14875c-2.988151,0 -5.413588,-2.0575 -5.521802,-4.645zm-46.217498,4.645c-0.370813,-1.09625 -0.669484,-2.26 -0.862827,-3.4725c-0.239514,-1.5025 -0.320314,-3.05125 -0.310214,-4.58c0.820984,2.315 1.745853,4.57875 2.842422,6.7225c0.226528,0.45 0.463156,0.89 0.70267,1.33l-2.372052,0zm-9.374222,-5.055c-0.194785,0.59125 -0.367928,1.19 -0.526642,1.7925c-0.203442,-0.285 -0.406885,-0.57375 -0.610327,-0.86625c-0.1313,-2.5275 -0.033186,-5.26 0.311656,-8.0475c0.414099,-2.9025 1.115326,-5.84125 2.031538,-8.595c0.975369,-2.7175 2.069053,-5.29875 3.27095,-7.42c0.190457,-0.345 0.370813,-0.68 0.552613,-1.00875c-0.0202,3.99 0.236628,8.2675 0.992684,12.6175c-1.982481,2.91375 -4.458419,6.855 -6.022472,11.5275zm-13.61477,2.14375c-0.442956,1.70375 -2.184481,2.91125 -4.200148,2.91125c-0.017314,-0.675 -0.034628,-1.43375 -0.047614,-2.265c-0.059157,-3.3625 0,-7.87625 0.259714,-12.43875c0.173142,-3.38625 0.496342,-6.7975 0.83397,-9.7475c0.031743,3.34 0.285685,6.80875 0.776255,10.27125c0.594456,3.66375 1.458725,7.2925 2.519223,10.735c-0.047614,0.17875 -0.095228,0.35625 -0.1414,0.53375zm-136.006299,2.91125c-0.066371,-0.0475 -0.106771,-0.0775 -0.173142,-0.125c-0.207771,-1.1275 -0.385242,-2.3475 -0.526642,-3.66625c-0.1919,-2.03 -0.236628,-4.24375 -0.128414,-6.50875c0.138514,-2.25125 0.445842,-4.54375 0.887355,-6.71375c0.471813,-2.1425 1.022983,-4.1875 1.647739,-5.91c-0.197671,2.8075 -0.277028,5.75875 -0.210657,8.7275c0.119757,3.39625 0.418428,6.79625 0.872927,9.97625c0.083686,0.5325 0.168814,1.0575 0.256828,1.57625c0.236628,1.3925 -1.001341,2.64375 -2.625994,2.64375zm-18.084731,0c-0.005771,-0.00875 -0.011543,-0.0175 -0.015871,-0.02625c-1.10234,-1.74125 -1.637639,-3.71375 -1.444297,-5.69375c0.069257,-0.69875 0.145728,-1.40125 0.232299,-2.105c0.277028,-2.1425 0.665156,-4.28375 1.103783,-6.39c0.883027,5.13375 1.882924,10.07625 2.823665,14.215l-2.69958,0zm-36.543162,-0.15625c-0.779141,0.5675 -1.793467,0.17875 -3.102136,-1.98375c-0.251057,-2.3575 -0.395342,-4.8475 -0.409771,-7.38375c0.023086,-3.0575 0.243842,-6.16 0.627641,-9.0925c0.428528,-2.915 0.947955,-5.6825 1.581368,-8.02625c0.018757,-0.07875 0.0404,-0.1475 0.059157,-0.225c0.128414,0.325 0.258271,0.68 0.395342,1.06c0.290014,0.74625 0.593013,1.5925 0.867155,2.5325c0.618984,1.8575 1.123983,4.075 1.572711,6.44375c0.399671,2.38125 0.646399,4.9325 0.724313,7.47625c0.015871,1.51875 -0.525199,7.89125 -2.315781,9.19875zm-21.145025,0.15625c-0.1313,-0.20375 -0.262599,-0.405 -0.393899,-0.61125c-0.173142,-2.15125 -0.187571,-4.5825 -0.064928,-7.23c0.158714,-2.5675 0.535299,-5.3025 1.089355,-8.0775c0.395342,1.405 0.774813,2.8475 1.121098,4.2975c0.989798,4.155 1.709782,8.32125 2.131095,11.62125l-3.88272,0zm-82.751714,-2.86875c-2.173948,2.975 -3.810577,3.09375 -5.02243,1.92875c-1.703722,-1.6375 -2.56727,-5.815 -2.900281,-8.1625c-0.479605,-3.66375 -0.763125,-7.6275 -0.839308,-11.6425c-0.026981,-4.0075 0.177615,-8.0575 0.573246,-11.8775c0.095806,-0.805 0.19897,-1.59375 0.303721,-2.3775c0.221622,0.35375 0.445265,0.7125 0.687087,1.1c0.275585,0.49875 0.565887,1.02375 0.869175,1.57125c1.246049,2.16875 2.419522,4.8175 3.546824,7.6675c1.064105,2.875 1.955067,5.995 2.613441,9.14c0.738308,3.5275 2.696838,9.19125 0.168525,12.6525zm975.214596,-43.236251c-0.610327,0.66875 -1.308669,1.5025 -2.09791,2.47375c-0.807998,0.96375 -1.702568,2.065 -2.623108,3.3c-1.913224,2.44375 -3.94332,5.415 -6.042672,8.695c-2.043081,3.29625 -4.065962,6.92625 -5.898387,10.675c-1.786253,3.75625 -3.403692,7.6225 -4.71669,11.33625c-0.002886,0.00875 -0.005771,0.0175 -0.008657,0.02625c-0.372256,-1.865 -0.695456,-3.78375 -0.945069,-5.7225c-0.347728,-3.0775 -0.525199,-6.18 -0.525199,-9.0975c0.0505,-2.9125 0.184685,-5.645 0.486242,-7.9725c0.115428,-1.16875 0.274142,-2.23375 0.435742,-3.17625c0.142843,-0.94625 0.278471,-1.77 0.42997,-2.4425c0.274142,-1.35 0.431413,-2.1225 0.431413,-2.1225c0,0 -0.422756,0.7175 -1.160055,1.975c-0.383799,0.63 -0.805113,1.4075 -1.276926,2.31125c-0.487685,0.90125 -1.020098,1.93 -1.545297,3.07375c-1.119655,2.27625 -2.214781,5.0125 -3.296921,8.03c-0.200557,0.58875 -0.392456,1.195 -0.584356,1.80375c-1.048955,-3.78625 -2.265281,-7.51125 -3.589821,-10.9625c-1.481811,-3.715 -2.976608,-7.13875 -4.462747,-9.9975c-0.705556,-1.4425 -1.409668,-2.7425 -2.056067,-3.885c-0.626199,-1.14875 -1.187469,-2.14375 -1.689582,-2.9475c-0.975369,-1.615 -1.533754,-2.5375 -1.533754,-2.5375c0,0 0.310214,1.02 0.851284,2.80375c0.282799,0.88375 0.575699,1.97125 0.890241,3.2175c0.331856,1.24 0.681027,2.64 0.991241,4.1775c0.434299,1.89375 0.805113,4.01125 1.136969,6.24375c-0.297228,0.255 -0.597342,0.515 -0.924869,0.8075c-0.41987,0.37 -0.867155,0.7625 -1.337526,1.1775c-0.458828,0.425 -0.916212,0.89 -1.411111,1.36875c-2.011338,1.905 -4.115019,4.32 -6.2894,7.05125c-1.235083,1.62125 -2.445637,3.3775 -3.608578,5.20875c-0.367928,-0.92625 -0.741627,-1.84125 -1.123983,-2.7275c-1.256726,-2.83625 -2.499023,-5.4525 -3.69082,-7.645c-0.572813,-1.10375 -1.13264,-2.10125 -1.643411,-2.98c-0.499227,-0.88125 -0.942184,-1.64625 -1.331754,-2.26625c-0.76327,-1.24375 -1.199012,-1.95375 -1.199012,-1.95375c0,0 0.187571,0.80625 0.515099,2.21875c0.1717,0.7 0.347728,1.55875 0.535299,2.5425c0.199114,0.9775 0.405442,2.08125 0.587242,3.29c0.411213,2.40125 0.721427,5.21875 0.962384,8.19375c0.203442,2.9875 0.279914,6.14875 0.203442,9.27125c-0.062043,1.83625 -0.176028,3.65 -0.328971,5.41875c-0.086571,0.24 -0.184685,0.4825 -0.266928,0.7225c-0.318871,0.9725 -0.610327,1.9325 -0.885912,2.88125c-0.1111,-1.04625 -0.230857,-2.11125 -0.369371,-3.21c-0.46027,-3.3375 -1.113883,-6.87125 -1.923324,-10.37125c-0.848398,-3.49375 -1.851182,-6.94875 -2.939093,-10.14625c-1.123983,-3.18875 -2.255181,-6.13375 -3.374835,-8.61c-0.533856,-1.24625 -1.063383,-2.37375 -1.551068,-3.3675c-0.471813,-0.9975 -0.893127,-1.8625 -1.271154,-2.56375c-0.734413,-1.41 -1.154283,-2.215 -1.154283,-2.215c0,0 0.164485,0.88875 0.454499,2.4425c0.152943,0.77125 0.300114,1.71625 0.454499,2.79625c0.168814,1.07625 0.339071,2.29 0.473256,3.6175c0.324642,2.64 0.509327,5.73 0.607442,8.9925c0.056271,3.27375 -0.044728,6.73375 -0.313099,10.14625c-0.305885,3.41875 -0.761827,6.785 -1.34474,9.89375c-0.477585,2.42375 -0.984026,4.67875 -1.520768,6.6975c0.063486,-1.385 0.098114,-2.83 0.101,-4.32375c-0.043286,-3.24625 -0.311656,-6.6925 -0.79357,-10.105c-0.533856,-3.40875 -1.278369,-6.77875 -2.174381,-9.89c-0.947955,-3.10125 -1.944967,-5.95875 -3.002579,-8.3475c-0.492013,-1.20375 -0.999898,-2.2875 -1.473154,-3.24125c-0.453056,-0.9575 -0.862827,-1.7875 -1.239412,-2.45625c-0.728641,-1.345 -1.144183,-2.1125 -1.144183,-2.1125c0,0 0.1616,0.8525 0.445842,2.3475c0.152943,0.7375 0.288571,1.645 0.421313,2.6825c0.152943,1.03125 0.297228,2.1925 0.386685,3.46375c0.252499,2.5225 0.288571,5.4725 0.194785,8.56c-0.148614,3.09875 -0.517985,6.34875 -1.100898,9.52c-0.350614,1.76875 -0.766155,3.50375 -1.226426,5.185c-0.217871,-0.50625 -0.434299,-1.01375 -0.663713,-1.5175c-1.248069,-2.64875 -2.64908,-5.23 -4.102034,-7.5775c-1.489025,-2.3325 -2.956408,-4.46125 -4.355976,-6.205c-0.673813,-0.885 -1.330311,-1.6725 -1.927653,-2.36125c-0.584356,-0.695 -1.10234,-1.29375 -1.556839,-1.77c-0.890241,-0.9625 -1.398125,-1.51125 -1.398125,-1.51125c0,0 0.284242,0.6825 0.780584,1.87625c0.253942,0.58875 0.525199,1.3175 0.819541,2.15375c0.307328,0.82875 0.630527,1.765 0.932084,2.79875c0.653613,2.04 1.216326,4.45625 1.693911,6.9975c0.44007,2.55875 0.730084,5.26625 0.835412,7.9325c0.126971,3.17625 1.514997,8.53625 -3.543649,7.795c-3.470064,-0.50875 -4.511804,-4.23625 -4.063077,-6.745c0.745955,-4.1775 2.099352,-8.27375 4.016905,-12.16125c-4.804704,4.59875 -7.590855,10.51875 -11.606317,15.13125c0.262599,-4.06875 1.265383,-8.19875 2.536537,-12.11875c0.838298,-2.65125 1.85551,-5.26375 2.952079,-7.67125c0.282799,-0.6 0.56127,-1.19 0.83397,-1.76625c0.292899,-0.57 0.578584,-1.1275 0.858498,-1.67c0.269814,-0.54875 0.578584,-1.06 0.855612,-1.56625c0.265485,-0.47 0.522313,-0.92375 0.767598,-1.36c0.435742,-0.73125 0.845512,-1.26 1.129755,-1.58375c0.106771,-0.11375 0.206328,-0.21875 0.298671,-0.31625c0.041843,-0.06125 0.203442,-0.1625 0.297228,-0.2175c0.217871,-0.12375 0.418428,-0.175 0.555499,-0.20125c0.138514,-0.015 0.2121,-0.02375 0.2121,-0.02375c0,0 -0.0909,-0.04625 -0.261157,-0.135c-0.177471,-0.075 -0.454499,-0.18 -0.838298,-0.21875c-0.424199,-0.00875 -0.75317,-0.08 -1.393797,0.1225c-0.629084,0.215 -1.438525,0.66125 -2.298466,1.315c-0.422756,0.3075 -0.894569,0.74375 -1.379368,1.16875c-0.479028,0.43125 -1.002783,0.8675 -1.493354,1.345c-0.502113,0.475 -1.018655,0.96375 -1.546739,1.4625c-0.51077,0.51625 -1.033083,1.04375 -1.564054,1.58c-1.579925,1.63875 -3.175722,3.435 -4.709475,5.33125c-0.053386,-1.42375 -0.1313,-2.82875 -0.246728,-4.18625c-0.311656,-3.16 -0.701227,-6.09375 -1.211997,-8.58375c-0.223642,-1.24875 -0.479028,-2.385 -0.724313,-3.38875c-0.229414,-1.005 -0.44007,-1.87875 -0.650727,-2.5925c-0.396785,-1.42875 -0.623313,-2.245 -0.623313,-2.245c0,0 -0.0404,0.85625 -0.113985,2.35375c-0.025971,0.74375 -0.101,1.6475 -0.202,2.67875c-0.086571,1.03 -0.204885,2.18625 -0.391013,3.44125c-0.307328,2.50375 -0.880141,5.395 -1.590025,8.41625c-0.57137,2.2775 -1.26394,4.62875 -2.058953,6.95875c-0.528085,-1 -1.07204,-1.99625 -1.646296,-2.98125c-1.255283,-2.0725 -2.613009,-4.0825 -4.015463,-6.00125c0.660827,-1.7125 1.105226,-2.75375 1.105226,-2.75375c0,0 -0.471813,0.45375 -1.297126,1.2475c-0.1616,0.155 -0.344842,0.335 -0.53097,0.51625c-0.578584,-0.7675 -1.164383,-1.5175 -1.757396,-2.24375c-2.346081,-2.78125 -4.65609,-5.29 -6.843456,-7.28125c-0.539627,-0.50125 -1.056169,-0.98125 -1.548182,-1.43875c-0.515099,-0.4375 -1.004226,-0.8525 -1.463054,-1.24375c-0.911884,-0.78375 -1.719882,-1.45375 -2.423995,-1.9725c-1.382254,-1.055 -2.171495,-1.6575 -2.171495,-1.6575c0,0 0.595899,0.76875 1.639082,2.11375c0.53097,0.65875 1.121098,1.49375 1.770382,2.45625c0.326085,0.47625 0.67237,0.98375 1.038855,1.5175c0.350614,0.5425 0.69257,1.12625 1.059055,1.72375c1.493354,2.37125 2.933322,5.26125 4.283833,8.32625c0.614656,1.47875 1.18314,3.01125 1.701125,4.5675c-2.374938,2.58125 -5.074517,5.735 -7.625483,9.0625c-0.934969,-2.26125 -1.942081,-4.4725 -2.991036,-6.54c-1.452954,-2.765 -2.897251,-5.2975 -4.298262,-7.3925c-0.670927,-1.06 -1.330311,-2.0075 -1.933424,-2.83875c-0.587242,-0.83875 -1.110998,-1.5625 -1.572711,-2.14125c-0.903227,-1.16875 -1.419768,-1.835 -1.419768,-1.835c0,0 0.279914,0.78375 0.770484,2.15625c0.252499,0.6775 0.517985,1.51625 0.805113,2.475c0.178914,0.56625 0.360713,1.1875 0.54107,1.8375c-0.466042,0.44875 -0.989798,1.0175 -1.581368,1.68625c-0.604556,0.6575 -1.269711,1.41375 -1.944967,2.27375c-1.418325,1.6975 -2.882822,3.8025 -4.379062,6.17125c-1.441411,2.38 -2.826551,5.0425 -4.016905,7.8325c-1.145626,2.79 -2.116667,5.69875 -2.813565,8.51125c-0.1212,0.52 -0.233742,1.0325 -0.341956,1.5425l-0.575699,0c0.653613,-1.675 1.272597,-3.53125 1.85551,-5.4925c0.754613,-2.69875 1.357726,-5.60375 1.761725,-8.51875c0.314542,-2.57875 0.466042,-5.1525 0.471813,-7.6025c0.896012,-1.145 1.779039,-2.21125 2.63898,-3.1575c0.800784,-0.93625 1.581368,-1.76125 2.291252,-2.48125c0.695456,-0.73125 1.311554,-1.36375 1.852624,-1.85625c1.059055,-1.0075 1.665053,-1.58375 1.665053,-1.58375c0,0 -0.796455,0.4075 -2.188809,1.12125c-0.71277,0.35 -1.543854,0.8125 -2.491809,1.36c-1.171597,0.64875 -2.509123,1.43 -3.915906,2.3775c-0.126971,-1.505 -0.274142,-2.92125 -0.486242,-4.1925c-0.145728,-1.08125 -0.333299,-2.065 -0.522313,-2.93375c-0.1717,-0.87 -0.333299,-1.625 -0.506442,-2.24125c-0.321756,-1.23375 -0.504999,-1.93875 -0.504999,-1.93875c0,0 -0.085128,0.73875 -0.235185,2.0325c-0.063486,0.64 -0.189014,1.4175 -0.350614,2.3c-0.144285,0.88125 -0.330414,1.86625 -0.595899,2.93c-0.479028,2.215 -1.29424,4.75875 -2.266724,7.36625c-0.238071,0.31375 -0.598784,0.7875 -0.836855,1.10125c-0.196228,0.1475 -0.393899,0.2975 -0.594456,0.45125c-2.676494,2.13375 -5.423688,4.57875 -8.025154,7.20625c-0.676699,0.70125 -1.343297,1.41625 -1.998353,2.13625c-1.490468,-3.305 -3.143979,-6.47625 -4.770075,-9.4175c-0.792127,-1.38 -1.568382,-2.6975 -2.330209,-3.9675c0.68247,-5.27375 1.180255,-10.28875 1.473154,-14.335c0.219314,-2.8275 0.349171,-5.185 0.428528,-6.835c0.076471,-1.65 0.1212,-2.5925 0.1212,-2.5925c0,0 -0.314542,0.91875 -0.865712,2.52875c-0.552613,1.605 -1.359168,3.89375 -2.385038,6.61375c-0.86427,2.3275 -1.903124,4.97625 -3.055965,7.78c-1.158612,-1.785 -2.15851,-3.27375 -2.907351,-4.39375c-0.991241,-1.47375 -1.556839,-2.315 -1.556839,-2.315c0,0 0.323199,0.94875 0.890241,2.60875c0.56127,1.66 1.372154,4.03875 2.273938,6.915c0.017314,0.05375 0.036071,0.11375 0.053386,0.16875c-1.220654,2.8775 -2.53798,5.86 -3.918791,8.8175c-0.822427,1.76125 -1.665053,3.51125 -2.509123,5.2225c-0.997012,-1.58125 -2.050295,-3.10375 -3.118007,-4.51375c-1.46594,-1.87875 -2.898694,-3.5825 -4.240548,-4.9625c-0.650727,-0.70375 -1.278369,-1.32375 -1.846853,-1.865c-0.271257,-0.26625 -0.525199,-0.51125 -0.764713,-0.7375c-0.255385,-2.11125 -0.55117,-4.0875 -0.908998,-5.83625c-0.223642,-1.24875 -0.479028,-2.385 -0.724313,-3.38875c-0.229414,-1.005 -0.441513,-1.87875 -0.650727,-2.5925c-0.396785,-1.42875 -0.623313,-2.245 -0.623313,-2.245c0,0 -0.041843,0.85625 -0.115428,2.35375c-0.024529,0.74375 -0.099557,1.64875 -0.202,2.68c-0.085128,1.02875 -0.203442,2.185 -0.389571,3.44c-0.307328,2.50375 -0.881584,5.395 -1.590025,8.41625c-0.758941,3.02375 -1.731425,6.1775 -2.871279,9.24c-1.180255,3.06125 -2.506237,6.0275 -3.898591,8.7175c-0.517985,0.97625 -1.033083,1.91375 -1.542411,2.80875l-0.023086,0.04c-1.265383,2.17875 -5.019689,1.3775 -5.028346,-1.06125c-0.007214,-2.31875 0.474699,-4.78875 0.932084,-6.70625c1.077812,-4.51625 2.468723,-8.99125 3.68072,-12.30875c1.199012,-3.3225 2.135424,-5.5075 2.135424,-5.5075c0,0 -0.471813,0.45375 -1.298569,1.24875c-0.826755,0.7975 -1.99691,1.95125 -3.360407,3.37875c-2.75008,2.84375 -6.256215,6.82125 -9.511293,11.06625c-0.225085,0.295 -0.445842,0.5925 -0.669484,0.8875c0.046171,-2.54 0.261157,-5.08125 0.646399,-7.46c0.461713,-2.49 0.994126,-4.82125 1.665053,-6.7675c0.158714,-0.48875 0.311656,-0.95875 0.457385,-1.405c0.170257,-0.43875 0.331856,-0.855 0.484799,-1.24625c0.295785,-0.7875 0.567042,-1.47125 0.83397,-2.0175c0.503556,-1.10875 0.790684,-1.74125 0.790684,-1.74125c0,0 -0.533856,0.53375 -1.468825,1.4675c-0.486242,0.46625 -1.027312,1.0575 -1.639082,1.755c-0.310214,0.34875 -0.64207,0.72125 -0.991241,1.11375c-0.326085,0.40625 -0.670927,0.835 -1.030198,1.28125c-1.474597,1.79 -2.969393,4.02125 -4.48439,6.53875c-1.451511,2.53 -2.819337,5.36625 -3.956306,8.34c-0.512213,1.40625 -0.973926,2.84125 -1.383697,4.28c0.083686,-0.64875 0.176028,-1.28875 0.282799,-1.91625c0.447285,-2.36875 0.953726,-4.5875 1.572711,-6.44375c0.274142,-0.94 0.577142,-1.78625 0.865712,-2.5325c0.271257,-0.7525 0.519427,-1.40625 0.761827,-1.93125c0.457385,-1.0625 0.718541,-1.67 0.718541,-1.67c0,0 -0.509327,0.51125 -1.401011,1.405c-0.461713,0.44625 -0.981141,1.01 -1.568382,1.6725c-0.603113,0.65625 -1.269711,1.41375 -1.943524,2.27375c-1.164383,1.3925 -2.360509,3.07 -3.578278,4.93125c0.934969,-6.55125 1.594354,-12.9375 1.952181,-17.88625c0.219314,-2.8275 0.349171,-5.185 0.428528,-6.835c0.077914,-1.65 0.122643,-2.5925 0.122643,-2.5925c0,0 -0.315985,0.92 -0.867155,2.52875c-0.552613,1.60625 -1.357726,3.89375 -2.383595,6.61375c-2.024324,5.4475 -4.96486,12.605 -8.222825,19.58125c-1.076369,2.30625 -2.185924,4.58375 -3.292593,6.79125c-0.216428,-4.62375 -0.820984,-9.12625 -1.512111,-12.52c-0.353499,-1.83375 -0.718541,-3.34875 -0.989798,-4.40375c-0.272699,-1.055 -0.428528,-1.6575 -0.428528,-1.6575c0,0 -0.113985,0.635 -0.311656,1.7475c-0.202,1.10625 -0.515099,2.68 -0.978255,4.53375c-0.887355,3.7125 -2.434095,8.52375 -4.426676,13.05125c-0.399671,0.91 -0.818098,1.8025 -1.245183,2.68125c0.096671,-0.305 0.194785,-0.5975 0.297228,-0.91625c0.764713,-2.25875 1.327426,-4.95375 1.741525,-7.82875c0.353499,-2.885 0.434299,-5.965 0.235185,-9.01625c-0.264042,-3.05125 -0.806555,-6.0625 -1.575597,-8.8275c-0.831084,-2.7525 -1.761725,-5.27625 -2.822222,-7.3525c-0.256828,-0.52125 -0.49057,-1.0225 -0.737298,-1.49125c-0.264042,-0.4625 -0.515099,-0.90125 -0.750284,-1.31375c-0.464599,-0.82625 -0.885912,-1.53625 -1.285583,-2.10125c-0.766155,-1.13625 -1.20334,-1.78625 -1.20334,-1.78625c0,0 0.193342,0.75125 0.529527,2.06875c0.178914,0.645 0.333299,1.44625 0.477585,2.35875c0.075028,0.45125 0.155828,0.93125 0.239514,1.4375c0.066371,0.50875 0.106771,1.0475 0.160157,1.6c0.248171,2.20375 0.196228,4.7775 -0.0303,7.42c-0.295785,2.6575 -0.877255,5.39875 -1.709782,8.00625c-0.58147,1.7 -1.26394,3.32875 -2.009896,4.86125c-0.014429,-2.37875 -0.108214,-4.70625 -0.240957,-6.9125c-0.236628,-3.18 -0.516542,-6.125 -0.825312,-8.61375c-0.600227,-4.9875 -1.08214,-8.24375 -1.08214,-8.24375c0,0 -0.603113,3.33 -1.636196,8.34125c-0.506442,2.5 -1.181697,5.42375 -1.965167,8.51c-0.828198,3.0875 -1.787696,6.3425 -2.956408,9.4975c-1.194683,3.14875 -2.52788,6.19875 -4.02412,8.88625l-0.012986,0.02125c-1.093683,1.9425 -4.542104,1.4275 -4.689275,-0.73c-0.011543,-0.15125 -0.008657,-0.305 0.008657,-0.46c0.098114,-0.9375 0.220757,-1.88625 0.366485,-2.835c0.376585,-2.21625 0.877255,-4.4275 1.468825,-6.48375c0.623313,-2.045 1.271154,-3.95375 1.95651,-5.54875c0.317428,-0.8075 0.646399,-1.53625 0.950841,-2.17625c0.292899,-0.64625 0.556942,-1.20875 0.799341,-1.66c0.467485,-0.9125 0.735856,-1.435 0.735856,-1.435c0,0 -0.507885,0.41125 -1.39524,1.12875c-0.455942,0.35875 -0.979698,0.8125 -1.577039,1.345c-0.608884,0.52625 -1.287026,1.135 -1.992581,1.82625c-1.157169,1.08125 -2.389366,2.37625 -3.672063,3.81625c0.372256,-2.28375 0.84407,-4.53375 1.402454,-6.6625c0.809441,-2.87 1.667939,-5.54625 2.610123,-7.7775c0.227971,-0.56125 0.447285,-1.09875 0.655056,-1.61125c0.230857,-0.5025 0.451613,-0.98 0.657941,-1.42875c0.405442,-0.9025 0.771927,-1.68625 1.115326,-2.31375c0.657941,-1.27 1.034526,-1.995 1.034526,-1.995c0,0 -0.617541,0.6175 -1.698239,1.6975c-0.558384,0.53875 -1.190355,1.21875 -1.904567,2.01375c-0.731527,0.78875 -1.540968,1.695 -2.36628,2.7225c-1.728539,2.025 -3.530664,4.52875 -5.383288,7.325c-1.790582,2.81375 -3.532106,5.94625 -5.064417,9.21625c-1.480368,3.27375 -2.774608,6.67375 -3.757192,9.9575c-0.200557,0.70125 -0.388128,1.3925 -0.568484,2.07875c-0.930641,-1.30875 -5.26786,-8.4825 -2.728437,-3.9825c0.861384,1.52625 -1.842524,-2.975 -2.539423,-4.5c-0.434299,-0.79875 -0.70267,-1.66625 -1.083583,-2.50375c0,-0.01875 0,-0.035 -0.001443,-0.05375c0.643513,-1.54125 1.431311,-3.04125 2.341752,-4.38625c1.074926,-1.4675 2.181595,-2.82 3.320007,-3.8075c0.278471,-0.25375 0.533856,-0.51125 0.796455,-0.73625c0.274142,-0.21125 0.533856,-0.4125 0.777698,-0.6c0.481913,-0.39 0.914769,-0.72125 1.30434,-0.94625c0.756055,-0.4925 1.188912,-0.775 1.188912,-0.775c0,0 -0.577142,0.0825 -1.587139,0.2275c-0.529527,0.0575 -1.144183,0.19 -1.856953,0.37125c-0.365042,0.0875 -0.75317,0.18125 -1.16294,0.28125c-0.403999,0.115 -0.81377,0.26375 -1.259611,0.40875c-1.716996,0.53 -3.605692,1.42125 -5.628573,2.56125c-0.193342,-1.66375 -0.264042,-3.3225 -0.209214,-4.93c0.098114,-3.27625 0.715656,-6.33125 1.530868,-8.8725c0.820984,-2.54375 1.823767,-4.57375 2.56828,-5.97375c0.815212,-1.37125 1.281254,-2.155 1.281254,-2.155c0,0 -0.706998,0.6425 -1.93631,1.84125c-1.175926,1.2275 -2.832322,3.05375 -4.490161,5.52875c-1.641968,2.4725 -3.283936,5.5925 -4.442547,9.19875c-1.085026,3.34625 -1.760282,7.10625 -1.832425,10.9975c-0.502113,-0.885 -1.015769,-1.77625 -1.542411,-2.66375c-3.563849,-6.135 -7.579312,-11.9925 -9.26168,-14.3975c-0.236628,-2.37875 -0.564156,-4.605 -1.012883,-6.605c-0.1717,-0.8175 -0.317428,-1.60375 -0.492013,-2.345c-0.200557,-0.7375 -0.391013,-1.4375 -0.569927,-2.095c-0.180357,-0.65625 -0.349171,-1.27 -0.504999,-1.8375c-0.164485,-0.565 -0.362156,-1.07625 -0.516542,-1.54125c-0.64207,-1.85375 -1.009998,-2.9125 -1.009998,-2.9125c0,0 0.102443,1.1125 0.281357,3.06c0.037514,0.48375 0.103885,1.015 0.128414,1.5975c0.012986,0.58375 0.025971,1.21375 0.041843,1.8875c0.012986,0.6675 0.025971,1.3775 0.0404,2.12625c-0.0101,0.74875 -0.063486,1.5375 -0.098114,2.3525c-0.088014,3.2575 -0.647841,7.0225 -1.442854,10.92375c-0.806555,3.50625 -1.94641,7.11375 -3.343093,10.6125c-1.347626,-2.28375 -2.822222,-4.4725 -4.36319,-6.465c-1.998353,-2.4825 -3.98372,-4.7125 -5.892616,-6.47c-0.47037,-0.4425 -0.920541,-0.86625 -1.349068,-1.27c-0.453056,-0.38375 -0.881584,-0.74875 -1.28414,-1.09125c-0.036071,-0.03125 -0.066371,-0.055 -0.102443,-0.085c-0.122643,-3.3725 -0.406885,-6.48625 -0.699784,-9.185c-0.386685,-3.42 -0.796455,-6.225 -1.087912,-8.1775c-0.294342,-1.94875 -0.463156,-3.06125 -0.463156,-3.06125c0,0 -0.102443,1.13125 -0.282799,3.11125c-0.183242,1.98125 -0.453056,4.82625 -0.884469,8.2375c-0.870041,6.79625 -2.449966,15.995 -6.240343,24.22625c-0.953726,2.04375 -2.00701,4.02125 -3.177164,5.88125c-1.197569,1.84875 -2.435537,3.60375 -3.786049,5.18c-1.379368,1.64875 -2.829437,3.11 -4.272291,4.38875c0.341956,-1.73625 0.737298,-3.51 1.194683,-5.2825c0.744513,-2.74875 1.617439,-5.48 2.556737,-8.01375c0.973926,-2.52125 1.950739,-4.86875 2.916008,-6.83375c0.458828,-0.99375 0.916212,-1.89 1.33464,-2.68c0.408328,-0.795 0.770484,-1.48625 1.096569,-2.04375c0.63197,-1.125 0.992684,-1.7675 0.992684,-1.7675c0,0 -0.597342,0.52625 -1.643411,1.44875c-0.535299,0.45875 -1.155726,1.035 -1.861282,1.70625c-0.718541,0.66625 -1.517882,1.43 -2.35618,2.29c-1.725653,1.69875 -3.610021,3.7825 -5.589616,6.09875c-1.942081,2.33 -3.918791,4.915 -5.777187,7.60875c-1.184583,1.7525 -2.318666,3.5475 -3.379164,5.33375c-0.184685,-0.78375 -0.339071,-1.585 -0.451613,-2.4c-0.183242,-1.83125 -0.174585,-3.69375 0.041843,-5.435c0.279914,-1.72 0.636299,-3.345 1.180255,-4.66c0.128414,-0.3325 0.235185,-0.65875 0.360713,-0.96c0.142843,-0.29375 0.278471,-0.5725 0.405442,-0.83375c0.242399,-0.53125 0.468928,-0.99125 0.704113,-1.34375c0.434299,-0.73125 0.681027,-1.14875 0.681027,-1.14875c0,0 -0.477585,0.29375 -1.315883,0.805c-0.444399,0.25375 -0.932084,0.6025 -1.48614,1.02875c-0.284242,0.215 -0.587242,0.44375 -0.907555,0.68375c-0.307328,0.2525 -0.605999,0.535 -0.936412,0.82875c-1.357726,1.16375 -2.70968,2.7325 -4.071734,4.595c-0.62187,0.90875 -1.216326,1.89375 -1.766053,2.93625c-0.507885,-2.3475 -0.907555,-4.82 -1.168712,-7.32125c-0.256828,-3.0525 -0.313099,-6.12875 -0.164485,-9.01625c0.207771,-2.87875 0.504999,-5.57875 0.985469,-7.86125c0.1111,-0.5725 0.217871,-1.1225 0.318871,-1.64375c0.126971,-0.51875 0.248171,-1.00875 0.362156,-1.47c0.219314,-0.92625 0.424199,-1.7325 0.639184,-2.385c0.396785,-1.315 0.624756,-2.0675 0.624756,-2.0675c0,0 -0.486242,0.68 -1.336083,1.86875c-0.444399,0.59625 -0.930641,1.33875 -1.474597,2.205c-0.277028,0.435 -0.57137,0.8975 -0.881584,1.38625c-0.287128,0.49875 -0.588684,1.025 -0.903227,1.5725c-1.295683,2.2 -2.559623,4.87875 -3.809134,7.855c-0.402556,0.28875 -0.809441,0.5675 -1.245183,0.8675c-0.506442,0.3675 -1.014326,0.775 -1.564054,1.195c-2.226324,1.6575 -4.598376,3.82125 -7.07287,6.3c-1.422654,1.48875 -2.832322,3.12 -4.198705,4.835c-0.086571,-1.18125 -0.152943,-2.37625 -0.1818,-3.5775c-0.021643,-2.82625 0.122643,-5.6625 0.421313,-8.31875c0.344842,-2.64625 0.75317,-5.12375 1.28414,-7.21625c0.230857,-1.055 0.493456,-2.01125 0.745955,-2.855c0.233742,-0.84875 0.45017,-1.5875 0.665156,-2.18625c0.403999,-1.205 0.633413,-1.895 0.633413,-1.895c0,0 -0.486242,0.61 -1.337526,1.6775c-0.441513,0.535 -0.934969,1.2 -1.491911,1.9775c-0.572813,0.7725 -1.201897,1.6575 -1.836753,2.6525c-1.338968,1.97 -2.705351,4.37125 -4.093377,7.04125c-1.333197,2.6775 -2.602909,5.63875 -3.68072,8.70625c-0.0101,0.03 -0.018757,0.06 -0.028857,0.09c-0.031743,-0.04125 -0.063486,-0.08125 -0.095228,-0.1225c0.1111,-0.695 0.2222,-1.39 0.344842,-2.08625c0.715656,-3.7075 1.615996,-7.39625 2.640423,-10.8225c1.074926,-3.4125 2.174381,-6.5875 3.308464,-9.25125c0.532413,-1.345 1.073483,-2.56 1.574154,-3.63125c0.481913,-1.0775 0.914769,-2.01375 1.310111,-2.76875c0.76327,-1.525 1.199012,-2.39625 1.199012,-2.39625c0,0 -0.679584,0.7675 -1.869939,2.10875c-0.610327,0.66875 -1.308669,1.5025 -2.09791,2.47375c-0.807998,0.96375 -1.701125,2.065 -2.623108,3.3c-1.913224,2.44375 -3.94332,5.415 -6.042672,8.695c-1.429868,2.30875 -2.846751,4.78625 -4.200148,7.3475c-1.76461,-1.6925 -3.510464,-3.21875 -5.211588,-4.50125c-0.708441,-0.5475 -1.369268,-1.085 -2.02721,-1.57c-0.126971,-0.0875 -0.236628,-0.1625 -0.360713,-0.2475c0.054828,-0.61625 0.118314,-1.2125 0.1919,-1.78375c0.115428,-1.16875 0.274142,-2.23375 0.435742,-3.17625c0.142843,-0.94625 0.278471,-1.77 0.42997,-2.4425c0.274142,-1.35 0.431413,-2.1225 0.431413,-2.1225c0,0 -0.421313,0.7175 -1.160055,1.975c-0.383799,0.63 -0.805113,1.4075 -1.275483,2.31125c-0.489127,0.90125 -1.021541,1.93 -1.545297,3.07375c-0.054828,0.11125 -0.109657,0.23625 -0.164485,0.35c-0.204885,-0.14 -0.411213,-0.28125 -0.604556,-0.4125c-0.529527,-0.34875 -1.050398,-0.63375 -1.502011,-0.90875c-1.826653,-1.07625 -2.869837,-1.69125 -2.869837,-1.69125c0,0 0.875812,0.8 2.408123,2.2025c0.375142,0.3525 0.806555,0.72375 1.237969,1.16125c0.248171,0.26125 0.51077,0.53875 0.782027,0.825c-0.872927,1.94 -1.73431,4.13 -2.585594,6.50375c-0.200557,0.58875 -0.392456,1.195 -0.584356,1.80375c-1.048955,-3.78625 -2.265281,-7.51125 -3.589821,-10.9625c-1.481811,-3.715 -2.976608,-7.13875 -4.462747,-9.9975c-0.705556,-1.4425 -1.409668,-2.7425 -2.056067,-3.885c-0.626199,-1.14875 -1.187469,-2.14375 -1.689582,-2.9475c-0.975369,-1.615 -1.533754,-2.5375 -1.533754,-2.5375c0,0 0.310214,1.02 0.851284,2.80375c0.282799,0.88375 0.575699,1.97125 0.890241,3.2175c0.331856,1.24 0.681027,2.64 0.991241,4.1775c0.434299,1.89375 0.805113,4.01125 1.136969,6.24375c-0.297228,0.255 -0.597342,0.515 -0.924869,0.8075c-0.41987,0.37 -0.867155,0.7625 -1.337526,1.1775c-0.458828,0.425 -0.916212,0.89 -1.411111,1.36875c-2.011338,1.905 -4.115019,4.32 -6.2894,7.05125c-1.235083,1.62125 -2.445637,3.3775 -3.608578,5.20875c-0.367928,-0.92625 -0.741627,-1.84125 -1.123983,-2.7275c-1.256726,-2.83625 -2.499023,-5.4525 -3.69082,-7.645c-0.572813,-1.10375 -1.13264,-2.10125 -1.643411,-2.98c-0.499227,-0.88125 -0.942184,-1.64625 -1.331754,-2.26625c-0.76327,-1.24375 -1.199012,-1.95375 -1.199012,-1.95375c0,0 0.187571,0.80625 0.515099,2.21875c0.1717,0.7 0.347728,1.55875 0.535299,2.5425c0.199114,0.9775 0.405442,2.08125 0.587242,3.29c0.411213,2.40125 0.721427,5.21875 0.962384,8.19375c0.203442,2.9875 0.279914,6.14875 0.203442,9.27125c-0.062043,1.83625 -0.176028,3.65 -0.328971,5.41875c-0.086571,0.24 -0.184685,0.4825 -0.266928,0.7225c-0.318871,0.9725 -0.610327,1.9325 -0.885912,2.88c-0.1111,-1.045 -0.230857,-2.11 -0.369371,-3.20875c-0.458828,-3.3375 -1.113883,-6.87125 -1.921881,-10.37125c-0.849841,-3.49375 -1.852624,-6.94875 -2.939093,-10.14625c-1.125426,-3.18875 -2.256624,-6.13375 -3.376278,-8.61c-0.533856,-1.24625 -1.063383,-2.37375 -1.551068,-3.3675c-0.471813,-0.9975 -0.893127,-1.8625 -1.271154,-2.56375c-0.734413,-1.41 -1.154283,-2.215 -1.154283,-2.215c0,0 0.164485,0.88875 0.454499,2.4425c0.152943,0.77125 0.300114,1.71625 0.454499,2.79625c0.168814,1.07625 0.339071,2.29 0.473256,3.6175c0.324642,2.64 0.509327,5.73 0.607442,8.9925c0.056271,3.27375 -0.043286,6.73375 -0.313099,10.14625c-0.304442,3.41875 -0.761827,6.785 -1.34474,9.89375c-0.477585,2.42375 -0.984026,4.67875 -1.520768,6.6975c0.063486,-1.385 0.098114,-2.83 0.101,-4.32375c-0.043286,-3.24625 -0.311656,-6.6925 -0.79357,-10.105c-0.533856,-3.40875 -1.278369,-6.77875 -2.174381,-9.89c-0.946512,-3.10125 -1.944967,-5.95875 -3.002579,-8.3475c-0.492013,-1.20375 -0.999898,-2.2875 -1.473154,-3.24125c-0.453056,-0.9575 -0.862827,-1.7875 -1.239412,-2.45625c-0.728641,-1.345 -1.144183,-2.1125 -1.144183,-2.1125c0,0 0.1616,0.8525 0.445842,2.3475c0.152943,0.7375 0.288571,1.645 0.422756,2.6825c0.1515,1.03125 0.295785,2.1925 0.385242,3.46375c0.253942,2.5225 0.288571,5.4725 0.194785,8.56c-0.148614,3.09875 -0.517985,6.34875 -1.099455,9.52c-0.150057,0.75125 -0.315985,1.49375 -0.487685,2.2325c-0.054828,1.3775 -0.173142,2.75625 -0.344842,4.1325c-0.370813,2.9725 -5.501602,2.66375 -5.441002,-0.325c0.001443,-0.01375 0.001443,-0.02625 0.001443,-0.03875c0.105328,-2.66625 0.395342,-5.37375 0.835412,-7.9325c0.477585,-2.54125 1.038855,-4.9575 1.693911,-6.9975c0.301556,-1.03375 0.624756,-1.97 0.932084,-2.79875c0.294342,-0.83625 0.565599,-1.565 0.819541,-2.15375c0.496342,-1.19375 0.780584,-1.87625 0.780584,-1.87625c0,0 -0.507885,0.54875 -1.398125,1.51125c-0.454499,0.47625 -0.972484,1.075 -1.556839,1.77c-0.597342,0.68875 -1.25384,1.47625 -1.927653,2.36125c-1.399568,1.74375 -2.866951,3.8725 -4.355976,6.205c-1.452954,2.3475 -2.853965,4.92875 -4.102034,7.5775c-0.229414,0.50375 -0.445842,1.01125 -0.663713,1.5175c-0.46027,-1.68125 -0.875812,-3.41625 -1.226426,-5.185c-0.582913,-3.17125 -0.952284,-6.42125 -1.100898,-9.52c-0.093786,-3.0875 -0.057714,-6.0375 0.194785,-8.56c0.089457,-1.27125 0.233742,-2.4325 0.386685,-3.46375c0.132743,-1.0375 0.268371,-1.945 0.421313,-2.6825c0.284242,-1.495 0.445842,-2.3475 0.445842,-2.3475c0,0 -0.415542,0.7675 -1.144183,2.1125c-0.376585,0.66875 -0.786355,1.49875 -1.239412,2.45625c-0.473256,0.95375 -0.981141,2.0375 -1.473154,3.24125c-1.057612,2.38875 -2.056067,5.24625 -3.002579,8.3475c-0.896012,3.11125 -1.640525,6.48125 -2.174381,9.89c-0.481913,3.4125 -0.750284,6.85875 -0.79357,10.105c0.002886,1.49375 0.037514,2.93875 0.101,4.32375c-0.536742,-2.01875 -1.043183,-4.27375 -1.520768,-6.6975c-0.582913,-3.10875 -1.038855,-6.475 -1.34474,-9.89375c-0.268371,-3.4125 -0.369371,-6.8725 -0.313099,-10.14625c0.098114,-3.2625 0.282799,-6.3525 0.607442,-8.9925c0.134185,-1.3275 0.304442,-2.54125 0.473256,-3.6175c0.154385,-1.08 0.301556,-2.025 0.454499,-2.79625c0.290014,-1.55375 0.454499,-2.4425 0.454499,-2.4425c0,0 -0.41987,0.805 -1.154283,2.215c-0.378028,0.70125 -0.799341,1.56625 -1.271154,2.56375c-0.487685,0.99375 -1.017212,2.12125 -1.551068,3.3675c-1.119655,2.47625 -2.250852,5.42125 -3.376278,8.61c-1.086469,3.1975 -2.089253,6.6525 -2.937651,10.14625c-0.809441,3.5 -1.464497,7.03375 -1.923324,10.37125c-0.138514,1.09875 -0.258271,2.16375 -0.369371,3.20875c-0.275585,-0.9475 -0.567042,-1.9075 -0.885912,-2.88c-0.082243,-0.24 -0.180357,-0.4825 -0.266928,-0.7225c-0.152943,-1.76875 -0.266928,-3.5825 -0.328971,-5.41875c-0.076471,-3.1225 0,-6.28375 0.203442,-9.27125c0.240957,-2.975 0.55117,-5.7925 0.962384,-8.19375c0.1818,-1.20875 0.388128,-2.3125 0.587242,-3.29c0.187571,-0.98375 0.363599,-1.8425 0.535299,-2.5425c0.327528,-1.4125 0.515099,-2.21875 0.515099,-2.21875c0,0 -0.435742,0.71 -1.199012,1.95375c-0.389571,0.62 -0.832527,1.385 -1.331754,2.26625c-0.51077,0.87875 -1.070598,1.87625 -1.643411,2.98c-1.191797,2.1925 -2.434095,4.80875 -3.69082,7.645c-0.382356,0.88625 -0.756055,1.80125 -1.123983,2.7275c-1.16294,-1.83125 -2.373495,-3.5875 -3.608578,-5.20875c-2.174381,-2.73125 -4.278062,-5.14625 -6.2894,-7.05125c-0.494899,-0.47875 -0.952284,-0.94375 -1.411111,-1.36875c-0.47037,-0.415 -0.917655,-0.8075 -1.337526,-1.1775c-0.327528,-0.2925 -0.627641,-0.5525 -0.924869,-0.8075c0.331856,-2.2325 0.70267,-4.35 1.136969,-6.24375c0.310214,-1.5375 0.659384,-2.9375 0.991241,-4.1775c0.314542,-1.24625 0.607442,-2.33375 0.890241,-3.2175c0.54107,-1.78375 0.851284,-2.80375 0.851284,-2.80375c0,0 -0.558384,0.9225 -1.533754,2.5375c-0.502113,0.80375 -1.063383,1.79875 -1.689582,2.9475c-0.646399,1.1425 -1.350511,2.4425 -2.056067,3.885c-1.48614,2.85875 -2.980936,6.2825 -4.462747,9.9975c-1.32454,3.45125 -2.540866,7.17625 -3.589821,10.9625c-0.1919,-0.60875 -0.383799,-1.215 -0.584356,-1.80375c-0.851284,-2.37375 -1.711225,-4.56375 -2.585594,-6.50375c0.271257,-0.28625 0.533856,-0.56375 0.782027,-0.825c0.431413,-0.4375 0.862827,-0.80875 1.237969,-1.16125c1.532311,-1.4025 2.408123,-2.2025 2.408123,-2.2025c0,0 -1.043183,0.615 -2.869837,1.69125c-0.451613,0.275 -0.972484,0.56 -1.502011,0.90875c-0.193342,0.13125 -0.399671,0.2725 -0.604556,0.4125c-0.054828,-0.11375 -0.109657,-0.23875 -0.164485,-0.35c-0.523756,-1.14375 -1.056169,-2.1725 -1.545297,-3.07375c-0.47037,-0.90375 -0.891684,-1.68125 -1.275483,-2.31125c-0.737298,-1.2575 -1.160055,-1.975 -1.160055,-1.975c0,0 0.157271,0.7725 0.431413,2.1225c0.1515,0.6725 0.287128,1.49625 0.42997,2.4425c0.1616,0.9425 0.320314,2.0075 0.435742,3.17625c0.073586,0.57125 0.137071,1.1675 0.1919,1.78375c-0.124085,0.085 -0.233742,0.16 -0.360713,0.2475c-0.656499,0.485 -1.318769,1.0225 -2.02721,1.57c-1.701125,1.2825 -3.446978,2.80875 -5.211588,4.50125c-1.353397,-2.56125 -2.77028,-5.03875 -4.200148,-7.3475c-2.099352,-3.28 -4.129448,-6.25125 -6.042672,-8.695c-0.920541,-1.235 -1.81511,-2.33625 -2.623108,-3.3c-0.789241,-0.97125 -1.487582,-1.805 -2.09791,-2.47375c-1.190355,-1.34125 -1.869939,-2.10875 -1.869939,-2.10875c0,0 0.435742,0.87125 1.199012,2.39625c0.395342,0.755 0.828198,1.69125 1.310111,2.76875c0.50067,1.07125 1.041741,2.28625 1.574154,3.63125c1.134083,2.66375 2.233538,5.83875 3.308464,9.25125c1.024426,3.42625 1.924767,7.115 2.640423,10.8225c0.124085,0.69625 0.233742,1.39125 0.344842,2.08625c-0.031743,0.04125 -0.063486,0.08125 -0.095228,0.1225c-0.0101,-0.03 -0.018757,-0.06 -0.028857,-0.09c-1.077812,-3.0675 -2.347523,-6.02875 -3.68072,-8.70625c-1.388025,-2.67 -2.754408,-5.07125 -4.093377,-7.04125c-0.634856,-0.995 -1.26394,-1.88 -1.836753,-2.6525c-0.556942,-0.7775 -1.050398,-1.4425 -1.491911,-1.9775c-0.851284,-1.0675 -1.337526,-1.6775 -1.337526,-1.6775c0,0 0.229414,0.69 0.633413,1.895c0.214985,0.59875 0.431413,1.3375 0.666599,2.18625c0.251057,0.84375 0.513656,1.8 0.744513,2.855c0.53097,2.0925 0.939298,4.57 1.28414,7.21625c0.298671,2.65625 0.442956,5.4925 0.421313,8.31875c-0.028857,1.20125 -0.095228,2.39625 -0.1818,3.5775c-1.366383,-1.715 -2.776051,-3.34625 -4.198705,-4.835c-2.474495,-2.47875 -4.846546,-4.6425 -7.07287,-6.3c-0.549727,-0.42 -1.057612,-0.8275 -1.564054,-1.195c-0.435742,-0.3 -0.842627,-0.57875 -1.245183,-0.8675c-1.249512,-2.97625 -2.513452,-5.655 -3.809134,-7.855c-0.314542,-0.5475 -0.616099,-1.07375 -0.903227,-1.5725c-0.310214,-0.48875 -0.604556,-0.95125 -0.881584,-1.38625c-0.543956,-0.86625 -1.030198,-1.60875 -1.474597,-2.205c-0.849841,-1.18875 -1.336083,-1.86875 -1.336083,-1.86875c0,0 0.227971,0.7525 0.624756,2.0675c0.214985,0.6525 0.41987,1.45875 0.639184,2.385c0.113985,0.46125 0.235185,0.95125 0.362156,1.47c0.101,0.52125 0.207771,1.07125 0.320314,1.64375c0.479028,2.2825 0.776255,4.9825 0.984026,7.86125c0.148614,2.8875 0.092343,5.96375 -0.164485,9.01625c-0.261157,2.50125 -0.660827,4.97375 -1.168712,7.32125c-0.549727,-1.0425 -1.144183,-2.0275 -1.766053,-2.93625c-1.362054,-1.8625 -2.714008,-3.43125 -4.071734,-4.595c-0.330414,-0.29375 -0.629084,-0.57625 -0.936412,-0.82875c-0.320314,-0.24 -0.623313,-0.46875 -0.907555,-0.68375c-0.554056,-0.42625 -1.041741,-0.775 -1.48614,-1.02875c-0.838298,-0.51125 -1.315883,-0.805 -1.315883,-0.805c0,0 0.246728,0.4175 0.681027,1.14875c0.235185,0.3525 0.461713,0.8125 0.705556,1.34375c0.125528,0.26125 0.261157,0.54 0.403999,0.83375c0.125528,0.30125 0.233742,0.6275 0.360713,0.96c0.543956,1.315 0.900341,2.94 1.180255,4.66c0.216428,1.74125 0.225085,3.60375 0.041843,5.435c-0.112543,0.815 -0.266928,1.61625 -0.451613,2.4c-1.060498,-1.78625 -2.194581,-3.58125 -3.379164,-5.33375c-1.858396,-2.69375 -3.835106,-5.27875 -5.777187,-7.60875c-1.979596,-2.31625 -3.863963,-4.4 -5.589616,-6.09875c-0.838298,-0.86 -1.637639,-1.62375 -2.35618,-2.29c-0.705556,-0.67125 -1.325983,-1.2475 -1.861282,-1.70625c-1.046069,-0.9225 -1.643411,-1.44875 -1.643411,-1.44875c0,0 0.360713,0.6425 0.992684,1.7675c0.326085,0.5575 0.688241,1.24875 1.096569,2.04375c0.418428,0.79 0.875812,1.68625 1.33464,2.68c0.965269,1.965 1.942081,4.3125 2.916008,6.83375c0.939298,2.53375 1.812225,5.265 2.556737,8.01375c0.457385,1.7725 0.852727,3.54625 1.194683,5.2825c-1.442854,-1.27875 -2.892922,-2.74 -4.272291,-4.38875c-1.350511,-1.57625 -2.58848,-3.33125 -3.786049,-5.18c-1.170155,-1.86 -2.223438,-3.8375 -3.177164,-5.88125c-3.790377,-8.23125 -5.370302,-17.43 -6.240343,-24.22625c-0.431413,-3.41125 -0.699784,-6.25625 -0.884469,-8.2375c-0.180357,-1.98 -0.282799,-3.11125 -0.282799,-3.11125c0,0 -0.168814,1.1125 -0.463156,3.06125c-0.291456,1.9525 -0.701227,4.7575 -1.087912,8.1775c-0.292899,2.69875 -0.577142,5.8125 -0.699784,9.185c-0.036071,0.03 -0.066371,0.05375 -0.102443,0.085c-0.402556,0.3425 -0.831084,0.7075 -1.28414,1.09125c-0.428528,0.40375 -0.878698,0.8275 -1.347626,1.27c-1.910339,1.7575 -3.895706,3.9875 -5.894058,6.47c-1.540968,1.9925 -3.014122,4.18125 -4.36319,6.465c-1.396683,-3.49875 -2.536537,-7.10625 -3.343093,-10.6125c-0.79357,-3.90125 -1.35484,-7.66625 -1.442854,-10.92375c-0.034628,-0.815 -0.088014,-1.60375 -0.098114,-2.3525c0.014429,-0.74875 0.027414,-1.45875 0.0404,-2.12625c0.015871,-0.67375 0.028857,-1.30375 0.041843,-1.8875c0.024529,-0.5825 0.0909,-1.11375 0.128414,-1.5975c0.178914,-1.9475 0.281357,-3.06 0.281357,-3.06c0,0 -0.367928,1.05875 -1.009998,2.9125c-0.154385,0.465 -0.352056,0.97625 -0.516542,1.54125c-0.155828,0.5675 -0.324642,1.18125 -0.504999,1.8375c-0.178914,0.6575 -0.369371,1.3575 -0.569927,2.095c-0.174585,0.74125 -0.320314,1.5275 -0.492013,2.345c-0.448728,2 -0.776255,4.22625 -1.012883,6.605c-1.682368,2.405 -5.69783,8.2625 -9.26168,14.3975c-0.526642,0.8875 -1.040298,1.77875 -1.542411,2.66375c-0.072143,-3.89125 -0.747398,-7.65125 -1.832425,-10.9975c-1.158612,-3.60625 -2.80058,-6.72625 -4.442547,-9.19875c-1.657839,-2.475 -3.314236,-4.30125 -4.490161,-5.52875c-1.229312,-1.19875 -1.93631,-1.84125 -1.93631,-1.84125c0,0 0.466042,0.78375 1.281254,2.155c0.744513,1.4 1.747296,3.43 2.56828,5.97375c0.815212,2.54125 1.432754,5.59625 1.530868,8.8725c0.054828,1.6075 -0.015871,3.26625 -0.209214,4.93c-2.022881,-1.14 -3.911577,-2.03125 -5.628573,-2.56125c-0.445842,-0.145 -0.855612,-0.29375 -1.259611,-0.40875c-0.409771,-0.1 -0.797898,-0.19375 -1.16294,-0.28125c-0.71277,-0.18125 -1.327426,-0.31375 -1.856953,-0.37125c-1.009998,-0.145 -1.587139,-0.2275 -1.587139,-0.2275c0,0 0.432856,0.2825 1.188912,0.775c0.389571,0.225 0.822427,0.55625 1.30434,0.94625c0.243842,0.1875 0.503556,0.38875 0.777698,0.6c0.262599,0.225 0.517985,0.4825 0.796455,0.73625c1.138412,0.9875 2.245081,2.34 3.320007,3.8075c0.911884,1.345 1.698239,2.845 2.341752,4.38625c-0.001443,0.01875 -0.001443,0.035 -0.001443,0.05375c-0.380913,0.8375 -0.649284,1.705 -1.083583,2.50375c-0.695456,1.525 -3.400807,6.02625 -2.539423,4.5c2.539423,-4.5 -1.797796,2.67375 -2.728437,3.9825c-0.180357,-0.68625 -0.367928,-1.3775 -0.568484,-2.07875c-0.982584,-3.28375 -2.276824,-6.68375 -3.757192,-9.9575c-1.532311,-3.27 -3.273836,-6.4025 -5.064417,-9.21625c-1.852624,-2.79625 -3.654749,-5.3 -5.383288,-7.325c-0.825312,-1.0275 -1.634754,-1.93375 -2.36628,-2.7225c-0.714213,-0.795 -1.346183,-1.475 -1.904567,-2.01375c-1.080698,-1.08 -1.698239,-1.6975 -1.698239,-1.6975c0,0 0.376585,0.725 1.034526,1.995c0.343399,0.6275 0.709884,1.41125 1.115326,2.31375c0.207771,0.44875 0.427085,0.92625 0.659384,1.42875c0.206328,0.5125 0.425642,1.05 0.653613,1.61125c0.942184,2.23125 1.800682,4.9075 2.610123,7.7775c0.558384,2.12875 1.030198,4.37875 1.402454,6.6625c-1.282697,-1.44 -2.514894,-2.735 -3.672063,-3.81625c-0.705556,-0.69125 -1.383697,-1.3 -1.992581,-1.82625c-0.597342,-0.5325 -1.121098,-0.98625 -1.577039,-1.345c-0.887355,-0.7175 -1.39524,-1.12875 -1.39524,-1.12875c0,0 0.268371,0.5225 0.735856,1.435c0.243842,0.45125 0.506442,1.01375 0.799341,1.66c0.304442,0.64 0.633413,1.36875 0.950841,2.17625c0.685356,1.595 1.333197,3.50375 1.957953,5.54875c0.590127,2.05625 1.090798,4.2675 1.468825,6.48375c0.144285,0.94875 0.266928,1.8975 0.365042,2.835c0.017314,0.155 0.0202,0.30875 0.008657,0.46c-0.147171,2.1575 -3.595592,2.6725 -4.689275,0.73l-0.012986,-0.02125c-1.49624,-2.6875 -2.829437,-5.7375 -4.02412,-8.88625c-1.168712,-3.155 -2.12821,-6.41 -2.956408,-9.4975c-0.78347,-3.08625 -1.458725,-6.01 -1.965167,-8.51c-1.033083,-5.01125 -1.636196,-8.34125 -1.636196,-8.34125c0,0 -0.481913,3.25625 -1.08214,8.24375c-0.308771,2.48875 -0.588684,5.43375 -0.825312,8.61375c-0.132743,2.20625 -0.226528,4.53375 -0.240957,6.9125c-0.745955,-1.5325 -1.428425,-3.16125 -2.009896,-4.86125c-0.832527,-2.6075 -1.413997,-5.34875 -1.709782,-8.00625c-0.226528,-2.6425 -0.278471,-5.21625 -0.0303,-7.42c0.053386,-0.5525 0.093786,-1.09125 0.160157,-1.6c0.083686,-0.50625 0.164485,-0.98625 0.239514,-1.4375c0.145728,-0.9125 0.298671,-1.71375 0.477585,-2.35875c0.336185,-1.3175 0.529527,-2.06875 0.529527,-2.06875c0,0 -0.437185,0.65 -1.20334,1.78625c-0.398228,0.565 -0.820984,1.275 -1.285583,2.10125c-0.235185,0.4125 -0.486242,0.85125 -0.750284,1.31375c-0.246728,0.46875 -0.48047,0.97 -0.737298,1.49125c-1.059055,2.07625 -1.991138,4.6 -2.822222,7.3525c-0.769041,2.765 -1.311554,5.77625 -1.575597,8.8275c-0.199114,3.05125 -0.118314,6.13125 0.235185,9.01625c0.414099,2.875 0.976812,5.57 1.741525,7.82875c0.102443,0.31875 0.200557,0.61125 0.297228,0.91625c-0.427085,-0.87875 -0.845512,-1.77125 -1.245183,-2.68125c-1.992581,-4.5275 -3.539321,-9.33875 -4.426676,-13.05125c-0.463156,-1.85375 -0.776255,-3.4275 -0.978255,-4.53375c-0.197671,-1.1125 -0.311656,-1.7475 -0.311656,-1.7475c0,0 -0.155828,0.6025 -0.428528,1.6575c-0.271257,1.055 -0.636299,2.57 -0.989798,4.40375c-0.691127,3.39375 -1.295683,7.89625 -1.512111,12.52c-1.106669,-2.2075 -2.216224,-4.485 -3.292593,-6.79125c-3.257964,-6.97625 -6.198501,-14.13375 -8.222825,-19.58125c-1.025869,-2.72 -1.830982,-5.0075 -2.383595,-6.61375c-0.55117,-1.60875 -0.867155,-2.52875 -0.867155,-2.52875c0,0 0.044728,0.9425 0.122643,2.5925c0.079357,1.65 0.209214,4.0075 0.428528,6.835c0.357828,4.94875 1.017212,11.335 1.952181,17.88625c-1.217769,-1.86125 -2.413895,-3.53875 -3.578278,-4.93125c-0.673813,-0.86 -1.340411,-1.6175 -1.943524,-2.27375c-0.587242,-0.6625 -1.105226,-1.22625 -1.568382,-1.6725c-0.891684,-0.89375 -1.401011,-1.405 -1.401011,-1.405c0,0 0.261157,0.6075 0.718541,1.67c0.242399,0.525 0.49057,1.17875 0.761827,1.93125c0.288571,0.74625 0.59157,1.5925 0.865712,2.5325c0.618984,1.85625 1.125426,4.075 1.574154,6.44375c0.105328,0.6275 0.197671,1.2675 0.281357,1.91625c-0.409771,-1.43875 -0.871484,-2.87375 -1.383697,-4.28c-1.136969,-2.97375 -2.504794,-5.81 -3.956306,-8.34c-1.514997,-2.5175 -3.009793,-4.74875 -4.48439,-6.53875c-0.359271,-0.44625 -0.704113,-0.875 -1.030198,-1.28125c-0.349171,-0.3925 -0.681027,-0.765 -0.991241,-1.11375c-0.610327,-0.6975 -1.15284,-1.28875 -1.639082,-1.755c-0.934969,-0.93375 -1.468825,-1.4675 -1.468825,-1.4675c0,0 0.287128,0.6325 0.790684,1.74125c0.266928,0.54625 0.538185,1.23 0.83397,2.0175c0.152943,0.39125 0.314542,0.8075 0.484799,1.24625c0.145728,0.44625 0.298671,0.91625 0.457385,1.405c0.670927,1.94625 1.20334,4.2775 1.665053,6.7675c0.385242,2.37875 0.600227,4.92 0.646399,7.46c-0.223642,-0.295 -0.444399,-0.5925 -0.669484,-0.8875c-3.255079,-4.245 -6.761214,-8.2225 -9.511293,-11.06625c-1.363497,-1.4275 -2.533652,-2.58125 -3.360407,-3.37875c-0.826755,-0.795 -1.298569,-1.24875 -1.298569,-1.24875c0,0 0.936412,2.185 2.135424,5.5075c1.211997,3.3175 2.602909,7.7925 3.68072,12.30875c0.457385,1.9175 0.939298,4.3875 0.932084,6.70625c-0.008657,2.43875 -3.762963,3.24 -5.028346,1.06125l-0.023086,-0.04c-0.509327,-0.895 -1.024426,-1.8325 -1.542411,-2.80875c-1.392354,-2.69 -2.718337,-5.65625 -3.898591,-8.7175c-1.139855,-3.0625 -2.112338,-6.21625 -2.871279,-9.24c-0.708441,-3.02125 -1.282697,-5.9125 -1.590025,-8.41625c-0.186128,-1.255 -0.304442,-2.41125 -0.389571,-3.44c-0.102443,-1.03125 -0.177471,-1.93625 -0.202,-2.68c-0.073586,-1.4975 -0.115428,-2.35375 -0.115428,-2.35375c0,0 -0.226528,0.81625 -0.623313,2.245c-0.209214,0.71375 -0.421313,1.5875 -0.650727,2.5925c-0.245285,1.00375 -0.499227,2.14 -0.72287,3.38875c-0.359271,1.74875 -0.655056,3.725 -0.910441,5.83625c-0.239514,0.22625 -0.493456,0.47125 -0.764713,0.7375c-0.568484,0.54125 -1.196126,1.16125 -1.846853,1.865c-1.341854,1.38 -2.774608,3.08375 -4.240548,4.9625c-1.067712,1.41 -2.120995,2.9325 -3.118007,4.51375c-0.84407,-1.71125 -1.686696,-3.46125 -2.509123,-5.2225c-1.380811,-2.9575 -2.698137,-5.94 -3.918791,-8.8175c0.017314,-0.055 0.036071,-0.115 0.053386,-0.16875c0.901784,-2.87625 1.712668,-5.255 2.273938,-6.915c0.567042,-1.66 0.890241,-2.60875 0.890241,-2.60875c0,0 -0.565599,0.84125 -1.556839,2.315c-0.748841,1.12 -1.747296,2.60875 -2.907351,4.39375c-1.151397,-2.80375 -2.191695,-5.4525 -3.055965,-7.78c-1.025869,-2.72 -1.832425,-5.00875 -2.385038,-6.61375c-0.55117,-1.61 -0.865712,-2.52875 -0.865712,-2.52875c0,0 0.044728,0.9425 0.1212,2.5925c0.079357,1.65 0.209214,4.0075 0.428528,6.835c0.292899,4.04625 0.790684,9.06125 1.473154,14.335c-0.761827,1.27 -1.538082,2.5875 -2.330209,3.9675c-1.626096,2.94125 -3.279607,6.1125 -4.770075,9.4175c-0.655056,-0.72 -1.321654,-1.435 -1.998353,-2.13625c-2.601466,-2.6275 -5.34866,-5.0725 -8.025154,-7.20625c-0.200557,-0.15375 -0.398228,-0.30375 -0.594456,-0.45125c-0.238071,-0.31375 -0.598784,-0.7875 -0.836855,-1.10125c-0.972484,-2.6075 -1.787696,-5.15125 -2.266724,-7.36625c-0.265485,-1.06375 -0.451613,-2.04875 -0.595899,-2.93c-0.1616,-0.8825 -0.285685,-1.66 -0.350614,-2.3c-0.150057,-1.29375 -0.235185,-2.0325 -0.235185,-2.0325c0,0 -0.183242,0.705 -0.504999,1.93875c-0.173142,0.61625 -0.334742,1.37125 -0.506442,2.24125c-0.187571,0.86875 -0.376585,1.8525 -0.522313,2.93375c-0.2121,1.27125 -0.359271,2.6875 -0.486242,4.1925c-1.406783,-0.9475 -2.744308,-1.72875 -3.915906,-2.3775c-0.947955,-0.5475 -1.779039,-1.01 -2.491809,-1.36c-1.392354,-0.71375 -2.188809,-1.12125 -2.188809,-1.12125c0,0 0.605999,0.57625 1.665053,1.58375c0.54107,0.4925 1.157169,1.125 1.852624,1.85625c0.709884,0.72 1.490468,1.545 2.291252,2.48125c0.859941,0.94625 1.742968,2.0125 2.63898,3.1575c0.005771,2.45 0.157271,5.02375 0.471813,7.6025c0.403999,2.915 1.007112,5.82 1.761725,8.51875c0.584356,1.96125 1.201897,3.8175 1.85551,5.4925l-0.575699,0c-0.108214,-0.51 -0.220757,-1.0225 -0.341956,-1.5425c-0.696898,-2.8125 -1.667939,-5.72125 -2.813565,-8.51125c-1.190355,-2.79 -2.575494,-5.4525 -4.016905,-7.8325c-1.49624,-2.36875 -2.960736,-4.47375 -4.379062,-6.17125c-0.675256,-0.86 -1.340411,-1.61625 -1.944967,-2.27375c-0.59157,-0.66875 -1.115326,-1.2375 -1.581368,-1.68625c0.180357,-0.65 0.362156,-1.27125 0.54107,-1.8375c0.287128,-0.95875 0.552613,-1.7975 0.805113,-2.475c0.49057,-1.3725 0.770484,-2.15625 0.770484,-2.15625c0,0 -0.516542,0.66625 -1.419768,1.835c-0.461713,0.57875 -0.985469,1.3025 -1.572711,2.14125c-0.603113,0.83125 -1.262497,1.77875 -1.933424,2.83875c-1.401011,2.095 -2.845308,4.6275 -4.298262,7.3925c-1.048955,2.0675 -2.056067,4.27875 -2.991036,6.54c-2.549523,-3.3275 -5.250546,-6.48125 -7.625483,-9.0625c0.517985,-1.55625 1.086469,-3.08875 1.701125,-4.5675c1.350511,-3.065 2.79048,-5.955 4.283833,-8.32625c0.366485,-0.5975 0.709884,-1.18125 1.059055,-1.72375c0.366485,-0.53375 0.71277,-1.04125 1.038855,-1.5175c0.649284,-0.9625 1.239412,-1.7975 1.770382,-2.45625c1.043183,-1.345 1.639082,-2.11375 1.639082,-2.11375c0,0 -0.789241,0.6025 -2.171495,1.6575c-0.704113,0.51875 -1.512111,1.18875 -2.423995,1.9725c-0.458828,0.39125 -0.947955,0.80625 -1.463054,1.24375c-0.492013,0.4575 -1.008555,0.9375 -1.548182,1.43875c-2.187367,1.99125 -4.497376,4.5 -6.843456,7.28125c-0.593013,0.72625 -1.178812,1.47625 -1.757396,2.24375c-0.186128,-0.18125 -0.369371,-0.36125 -0.53097,-0.51625c-0.825312,-0.79375 -1.297126,-1.2475 -1.297126,-1.2475c0,0 0.444399,1.04125 1.105226,2.75375c-1.402454,1.91875 -2.758737,3.92875 -4.015463,6.00125c-0.574256,0.985 -1.118212,1.98125 -1.646296,2.98125c-0.795013,-2.33 -1.487582,-4.68125 -2.058953,-6.95875c-0.709884,-3.02125 -1.282697,-5.9125 -1.590025,-8.41625c-0.186128,-1.255 -0.304442,-2.41125 -0.391013,-3.44125c-0.101,-1.03125 -0.176028,-1.935 -0.202,-2.67875c-0.072143,-1.4975 -0.113985,-2.35375 -0.113985,-2.35375c0,0 -0.226528,0.81625 -0.623313,2.245c-0.209214,0.71375 -0.421313,1.5875 -0.650727,2.5925c-0.245285,1.00375 -0.50067,2.14 -0.724313,3.38875c-0.51077,2.49 -0.900341,5.42375 -1.211997,8.58375c-0.115428,1.3575 -0.193342,2.7625 -0.246728,4.18625c-1.533754,-1.89625 -3.12955,-3.6925 -4.709475,-5.33125c-0.53097,-0.53625 -1.053283,-1.06375 -1.564054,-1.58c-0.528085,-0.49875 -1.044626,-0.9875 -1.546739,-1.4625c-0.49057,-0.4775 -1.014326,-0.91375 -1.493354,-1.345c-0.484799,-0.425 -0.956612,-0.86125 -1.379368,-1.16875c-0.859941,-0.65375 -1.669382,-1.1 -2.298466,-1.315c-0.640627,-0.2025 -0.969598,-0.13125 -1.393797,-0.1225c-0.383799,0.03875 -0.660827,0.14375 -0.838298,0.21875c-0.170257,0.08875 -0.261157,0.135 -0.261157,0.135c0,0 0.073586,0.00875 0.2121,0.02375c0.137071,0.02625 0.337628,0.0775 0.556942,0.20125c0.092343,0.055 0.253942,0.15625 0.295785,0.2175c0.092343,0.0975 0.1919,0.2025 0.298671,0.31625c0.284242,0.32375 0.694013,0.8525 1.129755,1.58375c0.245285,0.43625 0.502113,0.89 0.767598,1.36c0.277028,0.50625 0.585799,1.0175 0.855612,1.56625c0.279914,0.5425 0.565599,1.1 0.859941,1.67c0.271257,0.57625 0.549727,1.16625 0.832527,1.76625c1.096569,2.4075 2.113781,5.02 2.952079,7.67125c1.271154,3.92 2.273938,8.05 2.536537,12.11875c-4.015463,-4.6125 -6.801614,-10.5325 -11.604874,-15.13125c1.91611,3.8875 3.269507,7.98375 4.015463,12.16125c0.448728,2.50875 -0.593013,6.23625 -4.063077,6.745c-5.058646,0.74125 -3.67062,-4.61875 -3.543649,-7.795c0.105328,-2.66625 0.396785,-5.37375 0.835412,-7.9325c0.477585,-2.54125 1.040298,-4.9575 1.693911,-6.9975c0.301556,-1.03375 0.624756,-1.97 0.932084,-2.79875c0.294342,-0.83625 0.565599,-1.565 0.819541,-2.15375c0.497785,-1.19375 0.780584,-1.87625 0.780584,-1.87625c0,0 -0.507885,0.54875 -1.398125,1.51125c-0.454499,0.47625 -0.972484,1.075 -1.556839,1.77c-0.597342,0.68875 -1.25384,1.47625 -1.927653,2.36125c-1.399568,1.74375 -2.866951,3.8725 -4.355976,6.205c-1.452954,2.3475 -2.853965,4.92875 -4.102034,7.5775c-0.229414,0.50375 -0.445842,1.01125 -0.663713,1.5175c-0.46027,-1.68125 -0.875812,-3.41625 -1.226426,-5.185c-0.582913,-3.17125 -0.952284,-6.42125 -1.100898,-9.52c-0.093786,-3.0875 -0.057714,-6.0375 0.194785,-8.56c0.089457,-1.27125 0.233742,-2.4325 0.386685,-3.46375c0.132743,-1.0375 0.268371,-1.945 0.421313,-2.6825c0.284242,-1.495 0.445842,-2.3475 0.445842,-2.3475c0,0 -0.415542,0.7675 -1.14274,2.1125c-0.378028,0.66875 -0.787798,1.49875 -1.240854,2.45625c-0.473256,0.95375 -0.981429,2.0375 -1.473442,3.24125c-1.057323,2.38875 -2.054913,5.24625 -3.001858,8.3475c-0.896734,3.11125 -1.641824,6.48125 -2.174958,9.89c-0.481336,3.4125 -0.75014,6.85875 -0.79357,10.105c0.003463,1.49375 0.037226,2.93875 0.100855,4.32375c-0.53602,-2.01875 -1.043183,-4.27375 -1.521201,-6.6975c-0.582769,-3.10875 -1.038711,-6.475 -1.343586,-9.89375c-0.269381,-3.4125 -0.369803,-6.8725 -0.313965,-10.14625c0.098114,-3.2625 0.283521,-6.3525 0.608163,-8.9925c0.134185,-1.3275 0.304298,-2.54125 0.472246,-3.6175c0.155107,-1.08 0.303288,-2.025 0.455942,-2.79625c0.288571,-1.55375 0.453778,-2.4425 0.453778,-2.4425c0,0 -0.419293,0.805 -1.153706,2.215c-0.377595,0.70125 -0.799774,1.56625 -1.27202,2.56375c-0.486963,0.99375 -1.017356,2.12125 -1.550058,3.3675c-1.120376,2.47625 -2.251574,5.42125 -3.37599,8.61c-1.086613,3.1975 -2.090407,6.6525 -2.939238,10.14625c-0.809441,3.5 -1.463198,7.03375 -1.923036,10.37125c-0.138658,1.09875 -0.258127,2.16375 -0.368649,3.21c-0.275585,-0.94875 -0.567619,-1.90875 -0.887067,-2.88125c-0.08181,-0.24 -0.179924,-0.4825 -0.265485,-0.7225c-0.153375,-1.76875 -0.267794,-3.5825 -0.330269,-5.41875c-0.075606,-3.1225 0,-6.28375 0.204597,-9.27125c0.240668,-2.975 0.550593,-5.7925 0.961518,-8.19375c0.181367,-1.20875 0.389426,-2.3125 0.588396,-3.29c0.187715,-0.98375 0.362878,-1.8425 0.534289,-2.5425c0.327961,-1.4125 0.515676,-2.21875 0.515676,-2.21875c0,0 -0.435598,0.71 -1.198723,1.95375c-0.390581,0.62 -0.833681,1.385 -1.332476,2.26625c-0.510626,0.87875 -1.070886,1.87625 -1.643411,2.98c-1.192086,2.1925 -2.434383,4.80875 -3.691109,7.645c-0.381635,0.88625 -0.755334,1.80125 -1.123983,2.7275c-1.162075,-1.83125 -2.37335,-3.5875 -3.608145,-5.20875c-2.173948,-2.73125 -4.278495,-5.14625 -6.289978,-7.05125c-0.494899,-0.47875 -0.951995,-0.94375 -1.410678,-1.36875c-0.470659,-0.415 -0.918232,-0.8075 -1.337526,-1.1775c-0.327528,-0.2925 -0.627353,-0.5525 -0.924292,-0.8075c0.331424,-2.2325 0.702814,-4.35 1.136247,-6.24375c0.310502,-1.5375 0.659384,-2.9375 0.991962,-4.1775c0.314398,-1.24625 0.606432,-2.33375 0.889375,-3.2175c0.541647,-1.78375 0.850995,-2.80375 0.850995,-2.80375c0,0 -0.557374,0.9225 -1.533609,2.5375c-0.502113,0.80375 -1.062373,1.79875 -1.689726,2.9475c-0.645821,1.1425 -1.34979,2.4425 -2.05549,3.885c-1.485707,2.85875 -2.980936,6.2825 -4.462603,9.9975c-1.32454,3.45125 -2.540866,7.17625 -3.589676,10.9625c-0.191611,-0.60875 -0.384376,-1.215 -0.583923,-1.80375c-1.082718,-3.0175 -2.178421,-5.75375 -3.298364,-8.03c-0.524045,-1.14375 -1.056746,-2.1725 -1.545297,-3.07375c-0.470659,-0.90375 -0.892261,-1.68125 -1.27606,-2.31125c-0.737731,-1.2575 -1.159333,-1.975 -1.159333,-1.975c0,0 0.156694,0.7725 0.431125,2.1225c0.151067,0.6725 0.286839,1.49625 0.42997,2.4425c0.160734,0.9425 0.319592,2.0075 0.435165,3.17625c0.302134,2.3275 0.435742,5.06 0.485809,7.9725c0.001154,2.9175 -0.177471,6.02 -0.524189,9.0975c-0.249614,1.93875 -0.572524,3.8575 -0.945069,5.7225c-0.002886,-0.00875 -0.005627,-0.0175 -0.008513,-0.02625c-1.313719,-3.71375 -2.930725,-7.58 -4.716834,-11.33625c-1.833002,-3.74875 -3.855739,-7.37875 -5.89882,-10.675c-2.100074,-3.28 -4.129592,-6.25125 -6.043105,-8.695c-0.920974,-1.235 -1.814822,-2.33625 -2.621954,-3.3c-0.790107,-0.97125 -1.487871,-1.805 -2.09892,-2.47375c-1.189777,-1.34125 -1.870083,-2.10875 -1.870083,-2.10875c0,0 0.436319,0.87125 1.199444,2.39625c0.395053,0.755 0.82791,1.69125 1.3104,2.76875c0.500526,1.07125 1.041596,2.28625 1.572999,3.63125c1.134516,2.66375 2.234692,5.83875 3.309041,9.25125c1.024571,3.42625 1.925344,7.115 2.63999,10.8225c0.662703,3.7175 1.138412,7.44625 1.402165,10.9475c0.18382,3.035 0,44.041251 0,44.041251l1002.109105,0c0,0 -0.183242,-41.006251 0,-44.041251c0.264042,-3.50125 0.740184,-7.23 1.402454,-10.9475c0.715656,-3.7075 1.615996,-7.39625 2.640423,-10.8225c1.074926,-3.4125 2.174381,-6.5875 3.308464,-9.25125c0.532413,-1.345 1.073483,-2.56 1.574154,-3.63125c0.481913,-1.0775 0.914769,-2.01375 1.310111,-2.76875c0.76327,-1.525 1.199012,-2.39625 1.199012,-2.39625c0,0 -0.679584,0.7675 -1.869939,2.10875" id="path146"/>
 </g>
</svg>