<svg width="400" height="400" xmlns="http://www.w3.org/2000/svg">
 <metadata id="metadata8">image/svg+xml</metadata>

 <g>
  <title>background</title>
  <rect fill="none" id="canvas_background" height="402" width="402" y="-1" x="-1"/>
 </g>
 <g>
  <title>Layer 1</title>
  <g id="svg_1">
   <path fill="#211d19" fill-rule="nonzero" d="m150.886318,57.144997c-69.338751,26.175 -109.306377,89.050001 -82.722876,157.287502l16.497875,-6.225c-23.299625,-59.787501 30.99375,-105.225002 77.272501,-122.700002c46.282501,-17.4625 117.521252,-19.4 140.817502,40.400001l16.4975,-6.225c-26.5875,-68.237501 -99.028751,-88.700001 -168.362503,-62.537501" id="path266"/>
   <path fill="#e93421" fill-rule="nonzero" d="m211.476319,317.388751l-45.248751,-60.727501c-9.86875,-13.24875 -28.7875,-16.11125 -42.250001,-6.395c-9.25375,6.67875 -13.47375,17.56 -12.015,28.01875l-27.30125,-70.077501l-16.497875,6.225l32.926625,84.498751l25.0175,33.3725c12.9675,17.4025 29.74625,26.9875 37.476251,21.41c0.0225,-0.01875 0.035,-0.03375 0.0525,-0.05125c10.08625,12.275 28.27,14.73 41.340001,5.30125c13.4575,-9.71375 16.3725,-28.32625 6.5,-41.575001" id="path268"/>
   <path fill="#211d19" fill-rule="nonzero" d="m234.928819,330.672501c8.3975,11.27375 6.75125,21.81375 -4.7025,30.075l0,0c-11.455,8.27 -22.16125,6.65 -30.56,-4.61875l-74.528751,-100.026251c-8.405,-11.27125 -6.75,-21.81125 4.7025,-30.07875l0,0c11.4525,-8.26625 22.1625,-6.64125 30.56,4.63125l74.528751,100.017501" id="path270"/>
   <path fill="#e93421" fill-rule="nonzero" d="m282.62382,290.54125l-7.60875,-74.933751c-1.6575,-16.35 10.46375,-30.925 27.07,-32.55c11.42625,-1.125 21.95125,4.1875 27.97,12.925l-27.30375,-70.075001l16.4975,-6.225l32.9225,84.500001l4.0675,41.276251c2.18125,21.47375 -3.785,39.642501 -13.3225,40.582501c-0.0275,0 -0.04875,-0.005 -0.075,-0.005c0.83875,15.76125 -11.0125,29.55375 -27.13625,31.14125c-16.60875,1.635 -31.42,-10.29125 -33.08125,-26.63625" id="path272"/>
   <path fill="#211d19" fill-rule="nonzero" d="m274.21132,315.847501c1.41125,13.915 9.7975,20.66625 23.9275,19.27625l0,0c14.13125,-1.39 20.99375,-9.645 19.58375,-23.5525l-12.53125,-123.413752c-1.41,-13.9125 -9.795,-20.6625 -23.93125,-19.275l0,0c-14.1325,1.3875 -20.9925,9.6375 -19.5775,23.55l12.52875,123.415002" id="path274"/>
  </g>
 </g>
</svg>