<svg width="1000" height="750" xmlns="http://www.w3.org/2000/svg">
 <metadata id="metadata8">image/svg+xml</metadata>

 <g>
  <title>background</title>
  <rect fill="none" id="canvas_background" height="402" width="582" y="-1" x="-1"/>
 </g>
 <g>
  <title>Layer 1</title>
  <path fill="#eeeeee" fill-rule="nonzero" d="m283.770004,704.272499c-61.212501,0 -110.835002,-5.540125 -110.835002,-12.372625c0,-3.1885 10.80125,-6.09475 28.545,-8.2885l-0.5975,8.085875c0,0 19.29875,5.21875 32.7675,5.21875c9.825,0 16.54625,-2.775875 10.40875,-12.38225c-0.99125,-1.55225 -2.025,-2.895125 -3.0875,-4.049875c13.17,-0.61625 27.62625,-0.9565 42.798751,-0.9565c14.2825,0 27.93,0.30125 40.467501,0.850125l-0.82125,5.158625c0,0 18.65375,6.26125 30.86625,6.26125c6.95625,0 11.8225,-2.02975 9.96625,-8.40475c18.815,2.21725 30.35625,5.212375 30.35625,8.50725c0,6.8325 -49.622501,12.372625 -110.835002,12.372625" id="path16"/>
  <path fill="#f8f8f8" fill-rule="nonzero" d="m340.565005,507.298746l-17.6675,-3.29875c0,0 2.1175,-7.0475 5.1475,-20.525l17.04125,3.6325c-1.4075,6.44125 -2.90375,13.145 -4.52125,20.19125" id="path18"/>
  <path fill="#fbd8b6" fill-rule="nonzero" d="m328.045005,483.474996c5.08625,-22.62125 14.06375,-86.470001 18.6275,-142.508752c0,0 0.76875,-4.76125 2.83375,-4.29125c2.75875,0.63 2.18375,4.13125 1.86875,5.445c0.35125,-1.19375 1.47125,-4.20375 3.7225,-3.59375c2.26875,0.61375 1.72375,3.725 1.43875,4.87l0.02875,0.00625c0.44375,-1.1725 1.93,-4.4 4.60625,-3.635c2.01875,0.5775 1.97125,2.525 1.6425,3.9275c-0.065,0.19875 -0.11875,0.3975 -0.15875,0.58875c0.055,-0.18 0.11,-0.37875 0.15875,-0.58875c0.4475,-1.35375 1.49875,-2.77 3.17375,-2.46125c1.8575,0.44125 0.9925,5.14625 0.9925,5.14625c-1.4325,7.895 -5.48375,65.631251 -21.89375,140.727502l-17.04125,-3.6325" id="path20"/>
  <path fill="#77a688" fill-rule="nonzero" d="m325.188755,495.483746c0.74875,-2.965 1.6525,-6.68875 2.6625,-11.14875c-1.01,4.45875 -1.91375,8.18375 -2.6625,11.14875l0,0m2.86875,-12.0625c0.00125,-0.00875 0.00375,-0.01875 0.00625,-0.0275c-0.0025,0.00875 -0.005,0.0175 -0.00625,0.0275m0.01,-0.04375c1.69625,-7.56875 3.82375,-19.71125 6.0725,-34.588751c0,0.00125 0.00125,0.0025 0.00125,0.00375c-2.25,14.8825 -4.3775,27.01375 -6.07375,34.585001" id="path22"/>
  <path fill="#dfdfdd" fill-rule="nonzero" d="m340.606255,507.118746l-1.115,-16.88875c-4.57375,1.9375 -9.36,3.6825 -14.3025,5.25375c0.74875,-2.965 1.6525,-6.69 2.6625,-11.14875c0.06375,-0.28375 0.12875,-0.57 0.19375,-0.86l0,0l17.04125,3.6325l0,0c-1.375,6.29 -2.83375,12.83125 -4.4075,19.69625c-0.02375,0.105 -0.04875,0.21 -0.0725,0.315" id="path24"/>
  <path fill="#e3c1a0" fill-rule="nonzero" d="m345.086255,487.107496l0,0l-17.04125,-3.6325c0.00375,-0.0175 0.0075,-0.03625 0.0125,-0.05375c0.00125,-0.01 0.00375,-0.01875 0.00625,-0.0275c0.00125,-0.00625 0.0025,-0.01125 0.00375,-0.01625c1.69625,-7.57125 3.82375,-19.7025 6.07375,-34.585001c2.7825,7 7.9275,20.4375 11.93875,33.692501c-0.32875,1.5375 -0.655,3.07 -0.99375,4.6225l0,0" id="path26"/>
  <path fill="#fbd8b6" fill-rule="nonzero" d="m339.491255,490.229996c0,0 -5.92375,-187.545003 -145.316252,-118.211252c0,0 -23.4925,46.952501 -16.87875,135.431252c110.912502,12.945 162.195002,-17.22 162.195002,-17.22" id="path28"/>
  <path fill="#504133" fill-rule="nonzero" d="m306.422505,295.208743c0,0 76.922501,106.156252 -95.722501,111.738752l0.295,33.717501c0,0 -16.0975,-12.93875 -18.605,3.13625c-2.505,16.07375 18.105,8.56875 18.105,8.56875c0,0 -14.3775,42.532501 -32.5975,55.151251c0,0 -65.791001,-139.590002 -0.76,-143.392502c0,0 -0.0175,-24.97 34.428751,-40.538751c49.135001,-22.20875 80.747501,32.1025 94.856251,-28.38125" id="path30"/>
  <path fill="#504133" fill-rule="nonzero" d="m198.883753,604.454998l5.38375,41.496126l-3.385,45.746126c0,0 57.726251,15.610375 43.176251,-7.1635c-13.4375,-21.03125 -34.405001,-3.558625 -34.405001,-3.558625l8.23875,-37.002501l1.365,-28.427625c0,0 58.453751,3.60125 108.825002,-10.98625l2.9475,33.173625l-7.61375,47.803751c0,0 53.435001,17.9365 38.640001,-6.90725c-8.20125,-13.7715 -28.35375,-5.128875 -28.35375,-5.128875l10.7025,-35.835001l1.61,-48.667501l-147.131252,15.4575" id="path32"/>
  <path fill="#f8f8f8" fill-rule="nonzero" d="m339.491255,490.229996l6.52375,98.767501c0,0 -60.238751,17.77875 -147.131252,15.4575l-21.5875,-97.005001c0,0 100.472501,8.9325 162.195002,-17.22" id="path34"/>
  <path fill="#dfdfdd" fill-rule="nonzero" d="m297.491254,593.812498l-14.6875,-12.96l13.31625,-58.483751l-5.485,-6.59625l2.23,-4.80625l11.725,-2.27625l3.45375,5.39l-3.68875,6.94625l8.19125,58.548751l-15.055,14.2375" id="path36"/>
  <path fill="#504133" fill-rule="nonzero" d="m304.590005,508.689996l3.455,5.39l-3.69,6.94625l11.62375,57.268751l-15.055,14.235l-14.6875,-12.96l9.88375,-57.200001l-5.485,-6.5975l2.23,-4.80625l11.725,-2.27625" id="path38"/>
  <path fill="#ec6180" fill-rule="nonzero" d="m305.375005,458.463746c0,0 -30.08375,2.54 -47.706251,10.54625c0,0 1.1975,24.6075 29.21125,19.255c27.72875,-5.29625 18.495,-29.80125 18.495,-29.80125" id="path40"/>
  <path fill="#f8f8f8" fill-rule="nonzero" d="m181.977503,529.357497l14.25875,-10.94125c0,0 -5.0775,-5.32375 -13.8825,-15.97l-13.55,10.955c4.17125,5.10625 8.54125,10.40625 13.17375,15.95625" id="path42"/>
  <path fill="#fbd8b6" fill-rule="nonzero" d="m182.353753,502.446246c-14.77625,-17.86625 -50.237501,-67.356251 -79.678501,-115.255002c0,0 -2.84075,-3.8975 -4.46925,-2.5425c-2.17425,1.81 -0.075625,4.67125 0.799875,5.7c-0.854,-0.90375 -3.214875,-3.08125 -4.94675,-1.51875c-1.745125,1.575 0.149375,4.1025 0.920875,4.99375l-0.022,0.01875c-0.92675,-0.845 -3.712875,-3.05 -5.752375,-1.15625c-1.539125,1.43 -0.613875,3.145 0.312875,4.24625c0.149,0.1475 0.286625,0.3 0.40875,0.4525c-0.131375,-0.13375 -0.2695,-0.2875 -0.40875,-0.4525c-1.011125,-1.00375 -2.58925,-1.7925 -3.94325,-0.75875c-1.457125,1.23625 1.44425,5.04 1.44425,5.04c4.852125,6.39 33.151875,52.660001 81.784251,112.187502l13.55,-10.955" id="path44"/>
  <path fill="#504133" fill-rule="nonzero" d="m248.595004,440.732495c1.14125,5.90875 -0.4,11.17375 -3.44125,11.76125c-3.0425,0.5875 -6.43125,-3.72625 -7.5725,-9.63625c-1.14,-5.9075 0.40125,-11.17375 3.4425,-11.76c3.04125,-0.5875 6.43125,3.72625 7.57125,9.635" id="path46"/>
  <path fill="#504133" fill-rule="nonzero" d="m317.360005,427.463745c1.14,5.90875 -0.40125,11.17375 -3.4425,11.76125c-3.04125,0.5875 -6.43125,-3.7275 -7.57125,-9.63625c-1.14,-5.90875 0.4,-11.175 3.4425,-11.76c3.04125,-0.5875 6.43125,3.72625 7.57125,9.635" id="path48"/>
  <path fill="#eeeeee" fill-rule="nonzero" d="m673.63501,703.938499c-65.901251,0 -119.323752,-5.962375 -119.323752,-13.319875c0,-7.356375 53.422501,-13.31975 119.323752,-13.31975c65.900001,0 119.322502,5.963375 119.322502,13.31975c0,7.3575 -53.422501,13.319875 -119.322502,13.319875" id="path50"/>
  <path fill="#6a5f50" fill-rule="nonzero" d="m673.63501,694.368624c-2.07125,0 -3.75,-1.678625 -3.75,-3.75l0,-552.266133c0,-2.07125 1.67875,-3.75 3.75,-3.75c2.07125,0 3.75,1.67875 3.75,3.75l0,552.266133c0,2.071375 -1.67875,3.75 -3.75,3.75" id="path52"/>
  <path fill="#6a5f50" fill-rule="nonzero" d="m673.63501,275.312493c-0.95875,0 -1.91875,-0.36625 -2.65125,-1.09875l-61.135001,-61.135001c-1.465,-1.46375 -1.465,-3.8375 0,-5.3025c1.465,-1.465 3.8375,-1.465 5.3025,0l61.135001,61.135001c1.465,1.46375 1.465,3.83875 0,5.3025c-0.7325,0.7325 -1.69125,1.09875 -2.65125,1.09875" id="path54"/>
  <path fill="#6a5f50" fill-rule="nonzero" d="m674.11751,395.804995c-0.96,0 -1.91875,-0.36625 -2.65125,-1.09875c-1.465,-1.46375 -1.465,-3.84 0,-5.30375l151.045002,-151.045002c1.465,-1.465 3.8375,-1.465 5.3025,0c1.465,1.46375 1.465,3.83875 0,5.3025l-151.045002,151.046252c-0.7325,0.7325 -1.69125,1.09875 -2.65125,1.09875" id="path56"/>
  <path fill="#6a5f50" fill-rule="nonzero" d="m733.427511,336.493744c-2.07125,0 -3.75,-1.67875 -3.75,-3.75l0,-66.132501c0,-2.07125 1.67875,-3.75 3.75,-3.75c2.07125,0 3.75,1.67875 3.75,3.75l0,66.132501c0,2.07125 -1.67875,3.75 -3.75,3.75" id="path58"/>
  <path fill="#6a5f50" fill-rule="nonzero" d="m673.63501,508.577496c-0.95875,0 -1.91875,-0.36625 -2.65125,-1.09875l-184.845003,-184.843753c-1.465,-1.46375 -1.465,-3.83875 0,-5.3025c1.46375,-1.465 3.83875,-1.465 5.3025,0l184.845003,184.843753c1.465,1.46375 1.465,3.84 0,5.3025c-0.7325,0.7325 -1.69125,1.09875 -2.65125,1.09875" id="path60"/>
  <path fill="#6a5f50" fill-rule="nonzero" d="m621.540009,456.484996c-2.07125,0 -3.75,-1.67875 -3.75,-3.75l0,-66.248751c0,-2.07125 1.67875,-3.75 3.75,-3.75c2.0725,0 3.75,1.67875 3.75,3.75l0,66.248751c0,2.07125 -1.6775,3.75 -3.75,3.75" id="path62"/>
  <path fill="#6a5f50" fill-rule="nonzero" d="m573.977509,408.921245l-53.843751,0c-2.07125,0 -3.75,-1.67875 -3.75,-3.75c0,-2.0725 1.67875,-3.75 3.75,-3.75l53.843751,0c2.07125,0 3.75,1.6775 3.75,3.75c0,2.07125 -1.67875,3.75 -3.75,3.75" id="path64"/>
  <path fill="#6a5f50" fill-rule="nonzero" d="m674.32376,604.534998c-0.96,0 -1.91875,-0.36625 -2.65125,-1.09875c-1.465,-1.46375 -1.465,-3.83875 0,-5.3025l145.862502,-145.863752c1.465,-1.46375 3.83875,-1.46375 5.30375,0c1.46375,1.46375 1.46375,3.84 0,5.30375l-145.863752,145.862502c-0.7325,0.7325 -1.69125,1.09875 -2.65125,1.09875" id="path66"/>
  <path fill="#6a5f50" fill-rule="nonzero" d="m715.720011,563.138747c-2.07125,0 -3.75,-1.67875 -3.75,-3.75l0,-69.391251c0,-2.07125 1.67875,-3.75 3.75,-3.75c2.07125,0 3.75,1.67875 3.75,3.75l0,69.391251c0,2.07125 -1.67875,3.75 -3.75,3.75" id="path68"/>
  <path fill="#6a5f50" fill-rule="nonzero" d="m792.957512,531.116247l-45.215001,0c-2.07125,0 -3.75,-1.67875 -3.75,-3.75c0,-2.0725 1.67875,-3.75 3.75,-3.75l45.215001,0c2.07125,0 3.75,1.6775 3.75,3.75c0,2.07125 -1.67875,3.75 -3.75,3.75" id="path70"/>
  <path fill="#fbc131" fill-rule="nonzero" d="m853.585013,454.929996c0,19.37125 -15.7025,35.075001 -35.073751,35.075001c-19.37125,0 -35.075001,-15.70375 -35.075001,-35.075001c0,-19.37125 15.70375,-35.073751 35.075001,-35.073751c19.37125,0 35.073751,15.7025 35.073751,35.073751" id="path72"/>
  <path fill="#d7a62a" fill-rule="nonzero" d="m847.060013,454.929996c0,15.76875 -12.78125,28.55 -28.54875,28.55c-15.76875,0 -28.55,-12.78125 -28.55,-28.55c0,-15.7675 12.78125,-28.55 28.55,-28.55c15.7675,0 28.54875,12.7825 28.54875,28.55" id="path74"/>
  <path fill="#fbc131" fill-rule="nonzero" d="m809.870012,467.586246c-1.425,-1.265 -2.1375,-3.28 -2.1375,-6.045l0,-1.1775l7.855,0l0,0.82875c0,1.31 0.2475,2.2125 0.74125,2.70625c0.495,0.49625 1.14875,0.7425 1.965,0.7425c0.84375,0 1.49,-0.2775 1.94125,-0.83c0.45125,-0.5525 0.67625,-1.2225 0.67625,-2.0075c0,-0.98875 -0.3125,-1.775 -0.9375,-2.35625c-0.625,-0.58125 -1.41125,-1.08375 -2.35625,-1.505c-0.94625,-0.42125 -1.97125,-0.84375 -3.0775,-1.26625c-1.10625,-0.42125 -2.13125,-0.97375 -3.07625,-1.65875c-0.94625,-0.6825 -1.73125,-1.5775 -2.3575,-2.68375c-0.62625,-1.10625 -0.9375,-2.545 -0.9375,-4.32125c0,-5.43875 2.66125,-8.5975 7.98625,-9.47l0,-2.53l4.015,0l0,2.53c2.90875,0.29125 5.0175,1.17125 6.3275,2.64c1.31,1.47 1.965,3.70375 1.965,6.7l-7.595,0l0,-0.655c0,-0.8725 -0.18875,-1.63625 -0.56625,-2.29125c-0.37875,-0.65375 -0.96,-0.98125 -1.74625,-0.98125c-0.8725,0 -1.5125,0.28375 -1.92,0.85125c-0.40875,0.56625 -0.61125,1.185 -0.61125,1.85375c0,1.02 0.3275,1.81875 0.98125,2.4c0.655,0.5825 1.47625,1.085 2.46625,1.50625c0.98875,0.4225 2.0525,0.82875 3.185,1.2225c1.135,0.3925 2.1975,0.93875 3.1875,1.63625c0.98875,0.69875 1.81125,1.61375 2.465,2.74875c0.655,1.135 0.98375,2.64875 0.98375,4.53875c0,2.9675 -0.77375,5.165 -2.315,6.59125c-1.54125,1.42375 -3.81125,2.2975 -6.8075,2.6175l0,3.9275l-4.015,0l0,-3.9275c-2.765,-0.29125 -4.86,-1.06875 -6.285,-2.335" id="path76"/>
  <path fill="#eaf4ed" fill-rule="nonzero" d="m857.465013,430.301245l0,0c-0.69875,-1.11625 -0.3725,-2.59375 0.74375,-3.30375c1.11125,-0.705 2.595,-0.3725 3.305,0.74375c0.705,1.11125 0.3725,2.595 -0.74375,3.305c-0.96375,0.6025 -2.195,0.445 -2.9725,-0.33375c-0.12375,-0.1225 -0.23625,-0.25875 -0.3325,-0.41125zm-15.28875,-17.75875c0.69875,-1.11625 2.17625,-1.455 3.29375,-0.755c1.12625,0.69875 1.46625,2.17625 0.76,3.2975c-0.69875,1.1175 -2.17625,1.455 -3.2925,0.75625c-0.1575,-0.10125 -0.305,-0.21375 -0.42875,-0.33875c-0.7725,-0.7725 -0.93625,-1.995 -0.3325,-2.96zm22.1075,37.086251l0,0c-0.1525,-1.31375 0.795,-2.49875 2.10875,-2.65125c1.31375,-0.15125 2.4975,0.79625 2.645,2.105c0.15375,1.3125 -0.78375,2.49875 -2.0975,2.65c-0.75625,0.09 -1.4725,-0.18625 -1.9675,-0.6825c-0.3725,-0.3725 -0.6225,-0.8575 -0.68875,-1.42125zm-42.827501,-43.143751c0.14,-1.31375 1.325,-2.26125 2.6325,-2.115c1.315,0.14125 2.2625,1.32625 2.12125,2.64c-0.14125,1.31375 -1.325,2.26125 -2.64,2.12125c-0.56375,-0.06875 -1.06,-0.31625 -1.43125,-0.68875c-0.4975,-0.4975 -0.7675,-1.2075 -0.6825,-1.9575zm40.605001,63.525001l0,0c0.43375,-1.245 1.79875,-1.91125 3.04625,-1.4775c1.25125,0.42875 1.91,1.78875 1.4825,3.04c-0.43375,1.2475 -1.79875,1.9125 -3.04625,1.4775c-0.355,-0.1175 -0.66375,-0.315 -0.91375,-0.56375c-0.625,-0.62625 -0.87375,-1.58375 -0.56875,-2.47625zm-61.912501,-60.016251c-0.43875,-1.2525 0.21375,-2.6175 1.46125,-3.05125c1.25125,-0.44 2.61625,0.215 3.05125,1.46125c0.44,1.25125 -0.21375,2.615 -1.46,3.05c-0.9025,0.31625 -1.8625,0.06875 -2.49375,-0.56375c-0.2425,-0.24125 -0.43375,-0.5475 -0.55875,-0.89625zm50.948751,77.522501l0.045,-0.045l0.06875,-0.07875c0.93,-0.93125 2.4475,-0.93625 3.38375,-0.0125c0.93625,0.93625 0.94125,2.45375 0.01125,3.38375l-0.06875,0.06875l-0.06125,0.0625l0.005,0.005c-0.93625,0.93625 -2.4525,0.93125 -3.38375,0c-0.935,-0.935 -0.93625,-2.4475 0,-3.38375zm-68.623751,-68.487501c0.9375,-0.93625 2.45375,-0.9425 3.39,-0.00625c0.93125,0.93 0.935,2.4475 0.005,3.37875c-0.93625,0.935 -2.4525,0.94125 -3.38375,0.01125c-0.93625,-0.93625 -0.94125,-2.45375 -0.01125,-3.38375zm49.798751,82.451251c-0.43375,-1.24625 0.225,-2.61625 1.47125,-3.05125c1.2475,-0.43375 2.6125,0.22 3.0525,1.4725c0.4325,1.24625 -0.22625,2.605 -1.4725,3.05c-0.89625,0.31 -1.85625,0.0625 -2.48625,-0.57c-0.24375,-0.2525 -0.44125,-0.55125 -0.565,-0.90125zm-61.811251,-63.276251c0.435,-1.2475 1.8,-1.9125 3.04625,-1.47875c1.2525,0.42875 1.91125,1.79875 1.4775,3.045c-0.43375,1.24625 -1.79875,1.9125 -3.045,1.4775c-0.355,-0.12875 -0.66125,-0.32125 -0.90875,-0.56875c-0.62625,-0.62625 -0.88,-1.57875 -0.57,-2.475zm40.267501,64.630001c0.14125,-1.315 1.32625,-2.2625 2.64,-2.11c1.31375,0.14125 2.255,1.3325 2.115,2.645c-0.14625,1.30875 -1.33125,2.25625 -2.645,2.10375l-0.00625,0.00625c-0.55875,-0.0625 -1.04875,-0.31625 -1.42,-0.68875c-0.4975,-0.49625 -0.7725,-1.20125 -0.68375,-1.95625zm-42.760001,-42.151251l0.00625,0.00625c-0.1525,-1.315 0.795,-2.49875 2.10375,-2.645c1.31375,-0.1525 2.49875,0.79375 2.645,2.1025c0.1525,1.315 -0.79625,2.49875 -2.10375,2.645c-0.755,0.09125 -1.4725,-0.185 -1.96875,-0.68125c-0.36625,-0.36625 -0.61375,-0.86375 -0.6825,-1.4275zm22.75,34.041251c0.7,-1.11625 2.1775,-1.45625 3.3,-0.75c1.12125,0.705 1.455,2.1775 0.74875,3.29875c-0.6975,1.11625 -2.17625,1.455 -3.2975,0.75c-0.1525,-0.095 -0.29375,-0.2025 -0.4175,-0.3275c-0.7725,-0.7725 -0.93625,-2.00625 -0.33375,-2.97125zm-15.255,-12.68375c-0.71,-1.11625 -0.3725,-2.59375 0.745,-3.29375c1.11625,-0.71 2.59375,-0.3725 3.29875,0.74c0.705,1.12125 0.36625,2.59875 -0.74375,3.30375c-0.965,0.60375 -2.2,0.44 -2.9725,-0.3325c-0.12375,-0.125 -0.2375,-0.25875 -0.3275,-0.4175" id="path78"/>
  <path fill="#fbc131" fill-rule="nonzero" d="m523.872508,319.978744c0,19.37125 -15.70375,35.075001 -35.073751,35.075001c-19.37125,0 -35.075001,-15.70375 -35.075001,-35.075001c0,-19.37125 15.70375,-35.073751 35.075001,-35.073751c19.37,0 35.073751,15.7025 35.073751,35.073751" id="path80"/>
  <path fill="#d7a62a" fill-rule="nonzero" d="m517.347508,319.978744c0,15.7675 -12.7825,28.55 -28.54875,28.55c-15.76875,0 -28.55,-12.7825 -28.55,-28.55c0,-15.7675 12.78125,-28.54875 28.55,-28.54875c15.76625,0 28.54875,12.78125 28.54875,28.54875" id="path82"/>
  <path fill="#fbc131" fill-rule="nonzero" d="m480.157507,332.634994c-1.42625,-1.265 -2.1375,-3.28 -2.1375,-6.045l0,-1.1775l7.855,0l0,0.83c0,1.30875 0.24625,2.21125 0.74125,2.705c0.49375,0.495 1.15,0.74125 1.965,0.74125c0.84375,0 1.49,-0.275 1.94125,-0.82875c0.45125,-0.5525 0.67625,-1.22125 0.67625,-2.0075c0,-0.98875 -0.31375,-1.77375 -0.93875,-2.35625c-0.625,-0.58125 -1.41125,-1.08375 -2.355,-1.505c-0.9475,-0.4225 -1.9725,-0.84375 -3.0775,-1.26625c-1.10625,-0.42125 -2.13125,-0.975 -3.0775,-1.65875c-0.945,-0.6825 -1.73,-1.5775 -2.35625,-2.68375c-0.62625,-1.10625 -0.9375,-2.545 -0.9375,-4.32c0,-5.44 2.6625,-8.5975 7.98625,-9.47l0,-2.5325l4.015,0l0,2.5325c2.90875,0.29 5.0175,1.17125 6.3275,2.63875c1.31,1.47 1.96375,3.70375 1.96375,6.7l-7.59375,0l0,-0.655c0,-0.8725 -0.19,-1.63625 -0.56625,-2.29125c-0.38,-0.655 -0.96,-0.98125 -1.74625,-0.98125c-0.87375,0 -1.51375,0.28375 -1.92,0.85c-0.40875,0.5675 -0.61125,1.18625 -0.61125,1.855c0,1.01875 0.3275,1.81875 0.98125,2.40125c0.655,0.58125 1.4775,1.08375 2.46625,1.505c0.99,0.4225 2.05125,0.82875 3.185,1.2225c1.13625,0.3925 2.1975,0.9375 3.1875,1.63625c0.9875,0.6975 1.81125,1.615 2.465,2.74875c0.65375,1.135 0.9825,2.64875 0.9825,4.53875c0,2.9675 -0.7725,5.165 -2.31375,6.59c-1.5425,1.42625 -3.81125,2.29875 -6.8075,2.61875l0,3.9275l-4.015,0l0,-3.9275c-2.765,-0.29125 -4.85875,-1.06875 -6.285,-2.335" id="path84"/>
  <path fill="#eaf4ed" fill-rule="nonzero" d="m464.168757,281.024993l0,0c-1.11625,0.69875 -2.59375,0.3725 -3.30375,-0.745c-0.705,-1.11125 -0.3725,-2.59375 0.74375,-3.30375c1.11125,-0.70625 2.595,-0.3725 3.305,0.74375c0.60375,0.96375 0.44625,2.19375 -0.3325,2.9725c-0.12375,0.12375 -0.25875,0.23625 -0.4125,0.3325zm-17.75875,15.28875c-1.11625,-0.69875 -1.455,-2.17625 -0.755,-3.29375c0.69875,-1.1275 2.17625,-1.46625 3.29875,-0.76125c1.11625,0.7 1.455,2.1775 0.75625,3.29375c-0.10125,0.1575 -0.215,0.305 -0.33875,0.42875c-0.77375,0.7725 -1.9975,0.93625 -2.96125,0.3325zm37.086251,-22.1075l0,0c-1.31375,0.1525 -2.4975,-0.795 -2.65,-2.10875c-0.1525,-1.315 0.795,-2.49875 2.1025,-2.645c1.315,-0.15375 2.49875,0.78375 2.65125,2.0975c0.09,0.75625 -0.185,1.47125 -0.68125,1.9675c-0.3725,0.3725 -0.8575,0.62125 -1.4225,0.68875zm-43.142501,42.827501c-1.315,-0.14 -2.2625,-1.325 -2.11625,-2.6325c0.14125,-1.315 1.32625,-2.2625 2.64,-2.12125c1.31375,0.14125 2.26125,1.325 2.12125,2.64c-0.0675,0.56375 -0.31625,1.06 -0.68875,1.4325c-0.49625,0.49625 -1.20625,0.76625 -1.95625,0.68125zm63.525001,-40.605001l0,0c-1.2475,-0.435 -1.9125,-1.79875 -1.4775,-3.04625c0.42875,-1.25125 1.7875,-1.91125 3.04,-1.4825c1.24625,0.43375 1.91125,1.79875 1.47625,3.04625c-0.11875,0.355 -0.315,0.66375 -0.56375,0.9125c-0.62625,0.62625 -1.585,0.87375 -2.475,0.57zm-60.017501,61.911251c-1.2525,0.44 -2.61625,-0.21375 -3.05125,-1.46c-0.44,-1.2525 0.21375,-2.61625 1.46,-3.05125c1.2525,-0.44 2.6175,0.215 3.05125,1.46c0.31625,0.90375 0.06875,1.8625 -0.56375,2.49375c-0.2425,0.2425 -0.54625,0.43375 -0.89625,0.5575zm77.521251,-50.947501l-0.045,-0.04625l-0.0775,-0.0675c-0.93,-0.93 -0.93625,-2.4475 -0.01125,-3.38375c0.93625,-0.93625 2.4525,-0.94125 3.38375,-0.01125l0.0675,0.06875l0.0625,0.06125l0.005,-0.005c0.93625,0.93625 0.93125,2.4525 0,3.38375c-0.93625,0.935 -2.44875,0.93625 -3.385,0zm-68.486251,68.623751c-0.93625,-0.9375 -0.9425,-2.45375 -0.00625,-3.39c0.93,-0.93125 2.44875,-0.93625 3.37875,-0.00625c0.93625,0.93625 0.94125,2.45375 0.01,3.38375c-0.935,0.93625 -2.4525,0.9425 -3.3825,0.0125zm82.451251,-49.798751c-1.24625,0.43375 -2.61625,-0.22625 -3.05125,-1.4725c-0.43375,-1.24625 0.22125,-2.61125 1.4725,-3.05125c1.24625,-0.43375 2.60625,0.22625 3.05125,1.4725c0.31,0.89625 0.06125,1.855 -0.57,2.48625c-0.25375,0.2425 -0.5525,0.44125 -0.9025,0.565zm-63.276251,61.810001c-1.2475,-0.43375 -1.9125,-1.79875 -1.4775,-3.045c0.4275,-1.2525 1.79875,-1.91125 3.045,-1.4775c1.24625,0.43375 1.91125,1.79875 1.4775,3.045c-0.13,0.355 -0.32125,0.66125 -0.57,0.90875c-0.625,0.62625 -1.57875,0.87875 -2.475,0.56875zm64.628751,-40.267501c-1.3125,-0.14 -2.26,-1.325 -2.1075,-2.63875c0.14,-1.315 1.33,-2.25625 2.645,-2.115c1.30875,0.14625 2.25625,1.33125 2.10375,2.645l0.005,0.00625c-0.0625,0.5575 -0.31625,1.04875 -0.6875,1.42c-0.4975,0.4975 -1.20125,0.7725 -1.95875,0.6825zm-42.150001,42.761251l0.00625,-0.00625c-1.31375,0.1525 -2.49875,-0.795 -2.645,-2.10375c-0.1525,-1.31375 0.795,-2.49875 2.10375,-2.645c1.31375,-0.1525 2.4975,0.79625 2.645,2.10375c0.09,0.755 -0.18625,1.4725 -0.6825,1.96875c-0.3675,0.36625 -0.86375,0.61375 -1.4275,0.6825zm34.041251,-22.75125c-1.1175,-0.69875 -1.455,-2.17625 -0.75125,-3.29875c0.70625,-1.1225 2.17875,-1.455 3.3,-0.75c1.1175,0.69875 1.455,2.17625 0.75125,3.29875c-0.09625,0.1525 -0.2025,0.29375 -0.3275,0.4175c-0.7725,0.7725 -2.0075,0.93625 -2.9725,0.3325zm-12.6825,15.255c-1.1175,0.71125 -2.595,0.3725 -3.295,-0.74375c-0.71125,-1.11625 -0.37125,-2.59375 0.74,-3.29875c1.12125,-0.705 2.59875,-0.3675 3.30375,0.74375c0.60375,0.965 0.44,2.2 -0.33125,2.9725c-0.125,0.12375 -0.26,0.23625 -0.4175,0.32625" id="path86"/>
  <path fill="#fbc131" fill-rule="nonzero" d="m860.241263,241.016242c0,19.3725 -15.70375,35.075001 -35.073751,35.075001c-19.37125,0 -35.075001,-15.7025 -35.075001,-35.075001c0,-19.37 15.70375,-35.073751 35.075001,-35.073751c19.37125,0 35.073751,15.70375 35.073751,35.073751" id="path88"/>
  <path fill="#d7a62a" fill-rule="nonzero" d="m853.717513,241.016242c0,15.76875 -12.7825,28.55125 -28.55,28.55125c-15.7675,-0.00125 -28.55,-12.7825 -28.55,-28.55125c0,-15.76625 12.7825,-28.54875 28.55,-28.54875c15.7675,0 28.55,12.7825 28.55,28.54875" id="path90"/>
  <path fill="#fbc131" fill-rule="nonzero" d="m816.527512,253.672493c-1.4275,-1.265 -2.13875,-3.27875 -2.13875,-6.04375l0,-1.17875l7.855,0l0,0.83c0,1.30875 0.24625,2.21125 0.7425,2.705c0.4925,0.49625 1.14875,0.7425 1.96375,0.7425c0.84375,0 1.48875,-0.27625 1.94125,-0.83c0.45125,-0.55125 0.67625,-1.22125 0.67625,-2.00625c0,-0.99 -0.3125,-1.775 -0.9375,-2.3575c-0.62625,-0.58125 -1.4125,-1.0825 -2.35625,-1.505c-0.9475,-0.42125 -1.9725,-0.84375 -3.0775,-1.26625c-1.10625,-0.42125 -2.13125,-0.97375 -3.0775,-1.65875c-0.945,-0.6825 -1.73125,-1.5775 -2.35625,-2.68375c-0.62625,-1.105 -0.93875,-2.545 -0.93875,-4.32c0,-5.44 2.6625,-8.5975 7.9875,-9.47l0,-2.53125l4.015,0l0,2.53125c2.90875,0.29125 5.01875,1.17125 6.3275,2.64c1.31,1.47 1.965,3.7025 1.965,6.69875l-7.59375,0l0,-0.655c0,-0.8725 -0.19125,-1.63625 -0.5675,-2.29125c-0.37875,-0.65375 -0.96,-0.98125 -1.74625,-0.98125c-0.8725,0 -1.51375,0.28375 -1.92,0.85125c-0.4075,0.56625 -0.61,1.18625 -0.61,1.855c0,1.01875 0.32625,1.81875 0.98125,2.4c0.65375,0.58125 1.475,1.08375 2.465,1.505c0.98875,0.4225 2.05125,0.83 3.185,1.2225c1.135,0.3925 2.1975,0.93875 3.1875,1.63625c0.9875,0.69875 1.81125,1.615 2.46625,2.75c0.6525,1.13375 0.98125,2.6475 0.98125,4.53875c0,2.9675 -0.77125,5.165 -2.31375,6.59c-1.54125,1.42625 -3.81125,2.2975 -6.8075,2.61875l0,3.9275l-4.015,0l0,-3.9275c-2.765,-0.29125 -4.86,-1.07 -6.28375,-2.33625" id="path92"/>
  <path fill="#eaf4ed" fill-rule="nonzero" d="m864.121263,216.388742l0,0c-0.7,-1.1175 -0.3725,-2.595 0.745,-3.305c1.11,-0.705 2.59375,-0.3725 3.30375,0.745c0.70625,1.11 0.3725,2.59375 -0.74375,3.305c-0.965,0.6025 -2.19375,0.445 -2.9725,-0.33375c-0.12375,-0.12375 -0.23625,-0.25875 -0.3325,-0.41125zm-15.29,-17.76c0.7,-1.11625 2.1775,-1.455 3.29375,-0.755c1.12875,0.69875 1.4675,2.1775 0.7625,3.29875c-0.7,1.1175 -2.1775,1.455 -3.29375,0.755c-0.15875,-0.10125 -0.305,-0.21375 -0.42875,-0.3375c-0.7725,-0.7725 -0.93625,-1.99625 -0.33375,-2.96125zm22.10875,37.087501l0,0c-0.1525,-1.315 0.795,-2.49875 2.10875,-2.65125c1.31375,-0.1525 2.49875,0.795 2.645,2.10375c0.1525,1.31375 -0.78375,2.49875 -2.0975,2.65c-0.75625,0.09125 -1.4725,-0.185 -1.96875,-0.6825c-0.3725,-0.37125 -0.62,-0.85625 -0.6875,-1.42zm-42.828751,-43.143751c0.1425,-1.315 1.32625,-2.26125 2.635,-2.115c1.3125,0.14125 2.26125,1.325 2.12,2.64c-0.14,1.31375 -1.32625,2.26125 -2.63875,2.12c-0.565,-0.0675 -1.06125,-0.31625 -1.43375,-0.68875c-0.495,-0.49625 -0.76625,-1.20625 -0.6825,-1.95625zm40.606251,63.525001l0,0c0.43375,-1.24625 1.79875,-1.91125 3.045,-1.4775c1.2525,0.42875 1.91125,1.7875 1.48375,3.04c-0.435,1.24625 -1.8,1.91125 -3.04625,1.4775c-0.355,-0.11875 -0.665,-0.315 -0.9125,-0.56375c-0.62625,-0.62625 -0.875,-1.585 -0.57,-2.47625zm-61.912501,-60.017501c-0.44,-1.25125 0.21375,-2.61625 1.46,-3.05125c1.2525,-0.44 2.6175,0.215 3.0525,1.46125c0.43875,1.25125 -0.215,2.61625 -1.46,3.05125c-0.90375,0.315 -1.8625,0.0675 -2.49375,-0.56375c-0.2425,-0.2425 -0.43375,-0.5475 -0.55875,-0.8975zm50.948751,77.522501l0.045,-0.045l0.0675,-0.07875c0.93125,-0.93 2.4475,-0.93625 3.385,-0.01125c0.93625,0.93625 0.94125,2.45375 0.01125,3.38375l-0.06875,0.0675l-0.0625,0.0625l0.00625,0.005c-0.93625,0.93625 -2.45375,0.93125 -3.38375,0c-0.93625,-0.935 -0.93625,-2.4475 0,-3.38375zm-68.622501,-68.487501c0.93625,-0.93625 2.4525,-0.9425 3.38875,-0.00625c0.93125,0.93125 0.93625,2.4475 0.00625,3.37875c-0.9375,0.93625 -2.45375,0.94125 -3.385,0.01125c-0.93625,-0.93625 -0.94125,-2.45375 -0.01,-3.38375zm49.798751,82.451251c-0.435,-1.24625 0.22375,-2.61625 1.47,-3.05125c1.2475,-0.43375 2.6125,0.22125 3.0525,1.4725c0.4325,1.24625 -0.22625,2.60625 -1.4725,3.05125c-0.89625,0.31 -1.855,0.06125 -2.48625,-0.57c-0.24375,-0.25375 -0.44125,-0.5525 -0.56375,-0.9025zm-61.812501,-63.276251c0.435,-1.24625 1.8,-1.9125 3.04625,-1.4775c1.2525,0.4275 1.91125,1.7975 1.4775,3.045c-0.43375,1.24625 -1.79875,1.91125 -3.045,1.4775c-0.355,-0.13 -0.66,-0.32125 -0.91,-0.56875c-0.625,-0.62625 -0.87875,-1.58 -0.56875,-2.47625zm40.267501,64.630001c0.14125,-1.315 1.32625,-2.26125 2.64,-2.10875c1.31375,0.14125 2.255,1.33125 2.115,2.645c-0.14625,1.30875 -1.33125,2.25625 -2.645,2.10375l-0.00625,0.005c-0.5575,-0.0625 -1.04875,-0.31625 -1.42125,-0.6875c-0.495,-0.4975 -0.77125,-1.20125 -0.6825,-1.9575zm-42.760001,-42.150001l0.00625,0.005c-0.1525,-1.31375 0.795,-2.49875 2.10375,-2.645c1.3125,-0.1525 2.49875,0.795 2.645,2.10375c0.1525,1.31375 -0.79625,2.49875 -2.105,2.645c-0.755,0.09 -1.47,-0.18625 -1.9675,-0.6825c-0.36625,-0.36625 -0.615,-0.8625 -0.6825,-1.42625zm22.75,34.040001c0.7,-1.11625 2.1775,-1.455 3.3,-0.75c1.1225,0.705 1.455,2.1775 0.75,3.3c-0.69875,1.11625 -2.1775,1.455 -3.3,0.75c-0.15125,-0.09625 -0.2925,-0.20375 -0.4175,-0.3275c-0.77125,-0.7725 -0.935,-2.0075 -0.3325,-2.9725zm-15.255,-12.68375c-0.71,-1.11625 -0.3725,-2.59375 0.745,-3.2925c1.1175,-0.71125 2.59375,-0.3725 3.3,0.73875c0.70375,1.12125 0.36625,2.6 -0.745,3.305c-0.965,0.6025 -2.2,0.44 -2.9725,-0.33375c-0.125,-0.12375 -0.23625,-0.25875 -0.3275,-0.4175" id="path94"/>
  <path fill="#fbc131" fill-rule="nonzero" d="m708.720011,138.354991c0,19.37125 -15.70375,35.073751 -35.075001,35.073751c-19.37125,0 -35.076251,-15.7025 -35.076251,-35.073751c0,-19.3725 15.70375,-35.075001 35.075001,-35.075001c19.37125,0 35.075001,15.70375 35.076251,35.075001" id="path96"/>
  <path fill="#d7a62a" fill-rule="nonzero" d="m702.19501,138.354991c0,15.7675 -12.7825,28.54875 -28.55,28.54875c-15.7675,0 -28.55125,-12.78125 -28.55125,-28.54875c0,-15.76875 12.7825,-28.55 28.55,-28.55c15.7675,0 28.55125,12.7825 28.55125,28.55" id="path98"/>
  <path fill="#fbc131" fill-rule="nonzero" d="m665.00376,151.011241c-1.42625,-1.26625 -2.13875,-3.28 -2.13875,-6.045l0,-1.17875l7.85625,0l0,0.83c0,1.30875 0.24625,2.21125 0.7425,2.705c0.4925,0.495 1.14875,0.7425 1.96375,0.7425c0.84375,0 1.49,-0.27625 1.94125,-0.82875c0.45125,-0.5525 0.67625,-1.2225 0.67625,-2.0075c0,-0.98875 -0.3125,-1.775 -0.93875,-2.3575c-0.625,-0.58125 -1.41125,-1.08375 -2.355,-1.505c-0.9475,-0.4225 -1.9725,-0.84375 -3.0775,-1.26625c-1.10625,-0.42125 -2.1325,-0.97375 -3.0775,-1.65875c-0.945,-0.6825 -1.73,-1.5775 -2.355,-2.68375c-0.62625,-1.105 -0.93875,-2.545 -0.93875,-4.32c0,-5.44 2.66125,-8.5975 7.985,-9.47l0,-2.53125l4.015,0l0,2.53125c2.91,0.29125 5.02,1.17125 6.32875,2.64c1.31,1.47 1.96375,3.7025 1.96375,6.69875l-7.59375,0l0,-0.655c0,-0.8725 -0.19,-1.63625 -0.56625,-2.29125c-0.37875,-0.65375 -0.96125,-0.98125 -1.7475,-0.98125c-0.87125,0 -1.5125,0.28375 -1.91875,0.85125c-0.4075,0.5675 -0.61125,1.185 -0.61125,1.85375c0,1.02 0.3275,1.81875 0.9825,2.40125c0.65375,0.5825 1.47625,1.08375 2.465,1.505c0.99,0.4225 2.05125,0.82875 3.185,1.2225c1.13625,0.3925 2.1975,0.9375 3.1875,1.63625c0.9875,0.69875 1.81,1.615 2.465,2.75c0.65375,1.13375 0.9825,2.6475 0.9825,4.53875c0,2.9675 -0.77125,5.16375 -2.31375,6.59c-1.54125,1.425 -3.81,2.2975 -6.80875,2.6175l0.00125,3.92875l-4.015,0l0,-3.92875c-2.765,-0.29125 -4.85875,-1.06875 -6.285,-2.33375" id="path100"/>
  <path fill="#eaf4ed" fill-rule="nonzero" d="m683.77376,93.39499l0,0c-1.285,-0.29625 -2.0975,-1.57125 -1.81125,-2.86375c0.2875,-1.28375 1.57125,-2.0975 2.8625,-1.81c1.28625,0.2875 2.09875,1.57125 1.8125,2.8625c-0.25625,1.10875 -1.2375,1.8675 -2.33875,1.8675c-0.17375,0 -0.35,-0.01625 -0.525,-0.05625zm-23.36875,-1.7475c-0.295,-1.28375 0.50875,-2.5675 1.795,-2.8625c1.29125,-0.3025 2.575,0.5025 2.87125,1.79375c0.29375,1.285 -0.51125,2.56875 -1.79625,2.86375c-0.1825,0.04 -0.36625,0.06375 -0.54125,0.06375c-1.0925,0 -2.075,-0.75 -2.32875,-1.85875zm41.856251,10.5925l0,0c-1.0375,-0.82125 -1.20375,-2.32875 -0.38375,-3.36625c0.8225,-1.03625 2.32875,-1.20375 3.3575,-0.3825c1.03875,0.82125 1.2125,2.32125 0.39125,3.3575c-0.47,0.5975 -1.1725,0.91 -1.87375,0.91c-0.52625,0 -1.045,-0.1675 -1.49125,-0.51875zm-60.791251,-0.22375c-0.82875,-1.02875 -0.6625,-2.53625 0.3675,-3.3575c1.02875,-0.83 2.53625,-0.66125 3.365,0.36625c0.83,1.02875 0.6625,2.5375 -0.36625,3.36625c-0.44625,0.35125 -0.97375,0.52625 -1.5,0.52625c-0.7025,0 -1.395,-0.31 -1.86625,-0.90125zm73.631251,16.20625l0,0c-0.57375,-1.1875 -0.07875,-2.62375 1.11,-3.1975c1.1875,-0.5825 2.615,-0.0875 3.1975,1.1c0.57375,1.18875 0.08,2.625 -1.10875,3.19875c-0.335,0.1675 -0.69375,0.2475 -1.045,0.2475c-0.885,0 -1.73875,-0.5025 -2.15375,-1.34875zm-86.217501,1.34c-1.19625,-0.57375 -1.69875,-2.00125 -1.12375,-3.19c0.575,-1.19625 2.0025,-1.69875 3.19125,-1.125c1.19625,0.575 1.6975,2.0025 1.12375,3.19c-0.415,0.8625 -1.2675,1.365 -2.16125,1.365c-0.34375,0 -0.69375,-0.08 -1.03,-0.24zm90.843751,18.79125l0,-0.06375l-0.00875,-0.10375c0,-1.31625 1.07,-2.3925 2.38625,-2.40125c1.32375,0 2.4,1.06875 2.4,2.385l0,0.18375l0.0075,0c0,1.32375 -1.07625,2.3925 -2.3925,2.3925c-1.3225,0 -2.3925,-1.06875 -2.3925,-2.3925zm-96.952501,0.09625c0,-1.325 1.06875,-2.40125 2.39375,-2.40125c1.31625,0 2.3925,1.06875 2.3925,2.385c0,1.32375 -1.07,2.4 -2.385,2.4c-1.32375,0 -2.40125,-1.0675 -2.40125,-2.38375zm93.515001,23.08875c-1.18875,-0.57375 -1.69,-2.00875 -1.11625,-3.1975c0.575,-1.18875 2.00125,-1.69125 3.1975,-1.1175c1.1875,0.575 1.68375,2.0025 1.1175,3.19875c-0.415,0.85375 -1.26875,1.355 -2.1625,1.355c-0.35,-0.0075 -0.70125,-0.07875 -1.03625,-0.23875zm-88.451251,-1.03625c-0.5725,-1.18875 -0.07875,-2.62375 1.10875,-3.19875c1.18875,-0.5825 2.625,-0.08 3.2,1.10875c0.57375,1.18875 0.07875,2.62375 -1.11,3.19875c-0.34125,0.15875 -0.69375,0.23875 -1.045,0.23875c-0.885,0 -1.7375,-0.495 -2.15375,-1.3475zm74.173751,17.2275c-0.82875,-1.03 -0.66125,-2.53625 0.37625,-3.3575c1.02875,-0.83 2.535,-0.65375 3.36625,0.375c0.82125,1.02875 0.65375,2.53625 -0.38375,3.3575l0,0.0075c-0.43875,0.35125 -0.96625,0.5175 -1.49125,0.5175c-0.7025,0 -1.39625,-0.3025 -1.8675,-0.9zm-60.040001,0.43l0.00875,0c-1.0375,-0.82 -1.205,-2.32875 -0.38375,-3.3575c0.8225,-1.03625 2.33,-1.205 3.35875,-0.3825c1.03625,0.82125 1.20375,2.32875 0.3825,3.3575c-0.47,0.59875 -1.1725,0.90875 -1.875,0.90875c-0.51875,0 -1.04375,-0.175 -1.49125,-0.52625zm40.157501,7.985c-0.295,-1.285 0.51,-2.56875 1.8025,-2.86375c1.2925,-0.295 2.56875,0.51 2.86375,1.8025c0.295,1.28375 -0.51125,2.5675 -1.8025,2.8625c-0.17625,0.04 -0.35125,0.065 -0.5275,0.065c-1.0925,0 -2.08125,-0.75875 -2.33625,-1.86625zm-19.75625,1.8175c-1.29125,-0.28625 -2.09625,-1.57125 -1.80125,-2.85625c0.2875,-1.29125 1.57125,-2.09625 2.855,-1.80875c1.29125,0.295 2.0975,1.5775 1.81,2.8625c-0.255,1.10875 -1.24375,1.86625 -2.3375,1.86625c-0.17375,0 -0.35,-0.01625 -0.52625,-0.06375" id="path102"/>
  <path fill="#fbc131" fill-rule="nonzero" d="m638.56876,386.486245c0,9.405 -7.62375,17.03 -17.02875,17.03c-9.405,0 -17.02875,-7.625 -17.02875,-17.03c0,-9.405 7.62375,-17.02875 17.02875,-17.02875c9.405,0 17.02875,7.62375 17.02875,17.02875" id="path104"/>
  <path fill="#fbc131" fill-rule="nonzero" d="m750.456261,266.611243c0,9.405 -7.6225,17.02875 -17.02875,17.02875c-9.40375,0 -17.02875,-7.62375 -17.02875,-17.02875c0,-9.405 7.625,-17.02875 17.02875,-17.02875c9.40625,0 17.02875,7.62375 17.02875,17.02875" id="path106"/>
  <path fill="#fbc131" fill-rule="nonzero" d="m732.750011,489.997496c0,9.405 -7.62375,17.03 -17.03,17.03c-9.40375,0 -17.02875,-7.625 -17.02875,-17.03c0,-9.40375 7.625,-17.02875 17.02875,-17.02875c9.40625,0 17.03,7.625 17.03,17.02875" id="path108"/>
  <path fill="#fbc131" fill-rule="nonzero" d="m809.986262,528.447497c0,9.40375 -7.62375,17.02875 -17.02875,17.02875c-9.405,0 -17.02875,-7.625 -17.02875,-17.02875c0,-9.40625 7.62375,-17.02875 17.02875,-17.02875c9.405,0 17.02875,7.6225 17.02875,17.02875" id="path110"/>
  <path fill="#fbc131" fill-rule="nonzero" d="m629.528759,210.427492c0,9.405 -7.625,17.02875 -17.02875,17.02875c-9.405,0 -17.02875,-7.62375 -17.02875,-17.02875c0,-9.405 7.62375,-17.02875 17.02875,-17.02875c9.40375,0 17.02875,7.62375 17.02875,17.02875" id="path112"/>
  <path fill="#fbc131" fill-rule="nonzero" d="m537.162508,405.171245c0,9.405 -7.62375,17.02875 -17.02875,17.02875c-9.405,0 -17.03,-7.62375 -17.03,-17.02875c0,-9.405 7.625,-17.02875 17.03,-17.02875c9.405,0 17.02875,7.62375 17.02875,17.02875" id="path114"/>
  <path fill="#dddddd" fill-rule="nonzero" d="m889.126263,373.362494c-1.035,0 -1.875,-0.83875 -1.875,-1.875l0,-32.86875c0,-1.03625 0.84,-1.875 1.875,-1.875c1.035,0 1.875,0.83875 1.875,1.875l0,32.86875c0,1.03625 -0.84,1.875 -1.875,1.875" id="path116"/>
  <path fill="#dddddd" fill-rule="nonzero" d="m900.042513,356.928744l-21.8325,0c-1.035,0 -1.875,-0.83875 -1.875,-1.875c0,-1.03625 0.84,-1.875 1.875,-1.875l21.8325,0c1.035,0 1.875,0.83875 1.875,1.875c0,1.03625 -0.84,1.875 -1.875,1.875" id="path118"/>
  <path fill="#eaf4ed" fill-rule="nonzero" d="m577.462509,552.462497c-1.035,0 -1.875,-0.84 -1.875,-1.875l0,-32.87125c0,-1.035 0.84,-1.875 1.875,-1.875c1.035,0 1.875,0.84 1.875,1.875l0,32.87125c0,1.035 -0.84,1.875 -1.875,1.875" id="path120"/>
  <path fill="#eaf4ed" fill-rule="nonzero" d="m588.378759,536.026247l-21.8325,0c-1.035,0 -1.875,-0.84 -1.875,-1.875c0,-1.035 0.84,-1.875 1.875,-1.875l21.8325,0c1.035,0 1.875,0.84 1.875,1.875c0,1.035 -0.84,1.875 -1.875,1.875" id="path122"/>
  <path fill="#dddddd" fill-rule="nonzero" d="m505.000008,183.963742c-1.035,0 -1.875,-0.83875 -1.875,-1.875l0,-32.87c0,-1.035 0.84,-1.875 1.875,-1.875c1.035,0 1.875,0.84 1.875,1.875l0,32.87c0,1.03625 -0.84,1.875 -1.875,1.875" id="path124"/>
  <path fill="#dddddd" fill-rule="nonzero" d="m515.916258,167.529991l-21.8325,0c-1.03625,0 -1.875,-0.83875 -1.875,-1.875c0,-1.03625 0.83875,-1.875 1.875,-1.875l21.8325,0c1.03625,0 1.875,0.83875 1.875,1.875c0,1.03625 -0.83875,1.875 -1.875,1.875" id="path126"/>
  <path fill="#dddddd" fill-rule="nonzero" d="m816.888762,102.44749c-1.035,0 -1.875,-0.83875 -1.875,-1.875l0,-32.87c0,-1.035 0.84,-1.875 1.875,-1.875c1.035,0 1.875,0.84 1.875,1.875l0,32.87c0,1.03625 -0.84,1.875 -1.875,1.875" id="path128"/>
  <path fill="#dddddd" fill-rule="nonzero" d="m827.803762,86.01374l-21.8325,0c-1.035,0 -1.875,-0.84 -1.875,-1.875c0,-1.03625 0.84,-1.875 1.875,-1.875l21.8325,0c1.035,0 1.875,0.83875 1.875,1.875c0,1.035 -0.84,1.875 -1.875,1.875" id="path130"/>
 </g>
</svg>