<svg width="1000" height="1000" xmlns="http://www.w3.org/2000/svg">
 <metadata id="metadata8">image/svg+xml</metadata>

 <g>
  <title>background</title>
  <rect fill="none" id="canvas_background" height="402" width="582" y="-1" x="-1"/>
 </g>
 <g>
  <title>Layer 1</title>
  <path fill="#dddddd" fill-rule="nonzero" d="m1000.000015,929.073749l-253.636254,-152.315002c-103.626252,-57.192501 -220.056253,-87.190001 -338.417505,-87.190001l-407.946256,0l0,-159.492502l0,143.242502l407.946256,0c118.361252,0 234.791253,29.9975 338.417505,87.190001l253.636254,152.859877l0,15.705125m-251.350004,-327.376255l-14.67125,-8.125l266.021254,-147.326252l0,16.25l-251.350004,139.201252" id="path16"/>
  <path fill="#eeeeee" fill-rule="nonzero" d="m1000.000015,277.946239l-253.636254,148.691252c-103.626252,57.192501 -220.056253,87.188751 -338.417505,87.188751l-407.946256,0l0,159.492502l407.946256,0c118.361252,0 234.791253,29.9975 338.417505,87.190001l253.636254,152.859877l0,-172.469878l-266.021254,-147.326252l266.021254,-147.326252l0,-168.300003" id="path18"/>
  <path fill="#dddddd" fill-rule="nonzero" d="m288.258754,625.239994c-54.930001,0 -99.458751,-5.765 -99.458751,-12.87625c0,-7.11125 44.528751,-12.87625 99.458751,-12.87625c54.928751,0 99.457501,5.765 99.457501,12.87625c0,7.11125 -44.528751,12.87625 -99.457501,12.87625" id="path20"/>
  <path fill="#fbd8b6" fill-rule="nonzero" d="m258.935004,319.70124c1.3,-0.34625 2.15875,0.91125 2.45125,1.91375c-0.3675,-0.91875 -0.78375,-2.5975 0.77375,-3.17875c1.795,-0.67 2.98875,1.465 3.35625,2.24625l0.02,-0.00625c-0.2575,-0.77 -0.79875,-2.875 0.725,-3.41875c1.51125,-0.53875 2.4425,1.465 2.7475,2.265c-0.2875,-0.88375 -0.87,-3.25625 0.98875,-3.83625c1.39125,-0.43375 2.175,2.79125 2.175,2.79125c11.49375,66.553751 30.52875,135.938752 30.52875,135.938752l-17.045,-0.08125c-18.84625,-60.092501 -25.59625,-125.251252 -27.125,-131.048752c0,0 -0.8475,-3.18125 0.40375,-3.585" id="path22"/>
  <path fill="#89ab95" fill-rule="nonzero" d="m277.880004,348.95249c-0.37625,-1.8725 -0.7475,-3.74625 -1.11625,-5.63125l0,0c0.36875,1.88375 0.74125,3.76 1.11625,5.63125l0,0" id="path24"/>
  <path fill="#e3c1a0" fill-rule="nonzero" d="m277.182504,348.96374c-4.52625,0 -9.625,-1.26 -15.18,-2.82375c-0.34875,-2.3175 -0.67,-4.49375 -0.96625,-6.51125c5.70375,1.63875 10.985,3.1775 15.7275,3.6925c0.36875,1.885 0.74,3.75875 1.11625,5.63125c-0.23125,0.0075 -0.46375,0.01125 -0.6975,0.01125" id="path26"/>
  <path fill="#52423b" fill-rule="nonzero" d="m366.407505,559.052493c-3.9725,-13.05 -17.705,7.855 -17.705,7.855c0,0 3.84125,-17.495 -0.69,-23.36875c-4.34125,-5.62625 -15.05875,2.04 -17.895,3.97125l-116.552502,25.6275l4.54875,18.6925l-13.41625,-1.575c0,0 -9.7875,20.68375 0.61875,22.025c10.40625,1.34125 3.485,-13.865 3.485,-13.865c0,0 9.92625,5.50125 17.09625,3.40625c5.59125,-1.635 1.1475,-17.785 0.38,-22.77625c76.582501,-4.68 112.287502,-25.425 113.346252,-26.225c0,0 1.9125,18.8375 3.94125,28.2325c0,0 26.815,-8.95 22.8425,-22" id="path28"/>
  <path fill="#fbd8b6" fill-rule="nonzero" d="m316.667505,468.622492c0,0 -11.35875,-140.911252 -111.790002,-75.430001c0,0 -29.71375,31.35375 -17.4275,102.062502c109.793752,1.78375 129.217502,-26.6325 129.217502,-26.6325" id="path30"/>
  <path fill="#52423b" fill-rule="nonzero" d="m296.996254,323.42749c0,0 48.143751,78.866251 -82.405001,85.690001l-3.7475,30.1575c0,0 -13.73625,-9.66625 -14.9375,3.51c-1.2,13.1775 13.615,6.1125 13.615,6.1125c0,0 -7.93875,35.170001 -22.07125,46.357501c0,0 -65.174626,-123.712502 0.65625,-122.152502c0,0 -1.9425,-24.21125 33.19875,-31.8225c12.6525,-2.74 24.6475,0.2825 35.261251,3.305c19.93625,5.6775 35.005001,11.355 40.430001,-21.1575" id="path32"/>
  <path fill="#e3c2a3" fill-rule="nonzero" d="m188.051253,495.226242c-0.0325,-0.1275 -0.065,-0.25375 -0.09875,-0.3825c4.9575,-4.16625 9.13625,-11.25875 12.45375,-18.64c1.86,9.125 3.24,15.3925 3.81625,17.9125c-5.00875,0.06875 -9.57,0.58875 -15.02,1.05125c-0.47875,0.025 -0.865,0.045 -1.15125,0.05875" id="path34"/>
  <path fill="#493b36" fill-rule="nonzero" d="m187.952503,494.843742c-11.685,-45.498751 -16.625,-93.262501 -18.88375,-116.853752c3.57125,-2.59125 8.2075,-4.24125 14.07125,-4.7325c5.53875,42.541251 12.7925,81.002501 17.26625,102.946252c-3.3175,7.38125 -7.49625,14.47375 -12.45375,18.64" id="path36"/>
  <path fill="#f8f8f8" fill-rule="nonzero" d="m316.667505,468.622492l13.45,78.887501c0,0 -46.593751,19.80375 -116.552502,25.62875l-26.115,-77.883751c0,0 88.553751,-3.80125 129.217502,-26.6325" id="path38"/>
  <path fill="#dfdfdd" fill-rule="nonzero" d="m246.175004,541.668743l-13.0275,-11.38125l11.68125,-11.41125c2.55125,0.22625 4.9425,0.3325 7.17375,0.3325c31.74875,0.0025 32.27875,-21.36 32.27875,-21.36l-5.60875,-5.41125l1.53375,-4.56125l10.36125,-3.22125l3.655,4.5225l-2.64,6.63875c0,0 1.53375,39.161251 -45.407501,45.852501" id="path40"/>
  <path fill="#52423b" fill-rule="nonzero" d="m290.567504,484.654992l3.655,4.5225l-2.64,6.64c0,0 1.53375,35.618751 -45.407501,42.310001l-13.0275,-11.38125l11.68125,-11.41125c38.837501,3.44375 39.452501,-17.48625 39.452501,-17.48625l-5.60875,-5.41125l1.53375,-4.56l10.36125,-3.2225" id="path42"/>
  <path fill="#e9f3eb" fill-rule="nonzero" d="m177.411253,597.638744c0,-4.2475 -3.4425,-7.69125 -7.69,-7.69125c-0.35875,0 -0.7075,0.03375 -1.0525,0.08125c-1.42625,-1.38 -3.36625,-2.23125 -5.50625,-2.23125c-4.38,0 -7.93125,3.55 -7.93125,7.93c0,1.57875 0.4675,3.045 1.2625,4.28125c-0.78,1.015 -1.2625,2.27 -1.2625,3.64875c0,3.32375 2.695,6.01875 6.01875,6.01875c0.9275,0 1.79375,-0.22625 2.57875,-0.60125c1.0575,0.7875 2.355,1.27 3.775,1.27c3.485,0 6.30875,-2.80875 6.34625,-6.28625c2.08375,-1.375 3.46125,-3.73625 3.46125,-6.42" id="path44"/>
  <path fill="#e9f3eb" fill-rule="nonzero" d="m138.621252,582.659994c0,-4.565 -3.7,-8.265 -8.26375,-8.265c-0.18,0 -0.35625,0.01625 -0.5325,0.0275c-0.71375,-3.37125 -3.70375,-5.90125 -7.286875,-5.90125c-4.043,0 -7.32625,3.2225 -7.44,7.2375c-5.055125,0.2775 -9.07225,4.4525 -9.07225,9.57625c0,4.85875 3.61275,8.865 8.297375,9.50375c1.681125,2.7825 4.726125,4.64875 8.214875,4.64875c5.015625,0 9.128125,-3.84625 9.559375,-8.75c3.7275,-0.79875 6.52375,-4.11 6.52375,-8.0775" id="path46"/>
  <path fill="#89ab95" fill-rule="nonzero" d="m202.336253,348.75624c0.00125,-0.00125 0.00125,-0.00125 0.0025,-0.00125l-0.0025,0.00125m0.05875,-0.03875c0.01125,-0.0075 0.02375,-0.01625 0.035,-0.0225c-0.01125,0.00625 -0.02375,0.015 -0.035,0.0225m0.0475,-0.03125c0.0175,-0.01125 0.035,-0.0225 0.05375,-0.03375c-0.0175,0.01125 -0.03625,0.0225 -0.05375,0.03375m0.05875,-0.0375c4.58875,-2.975 10.63125,-5.57625 18.5925,-7.3225c-7.9575,1.74625 -14.00375,4.3475 -18.5925,7.3225m18.60125,-7.32375c0.03125,-0.0075 0.06375,-0.015 0.095,-0.02125c-0.03,0.00625 -0.065,0.01375 -0.095,0.02125m0.10625,-0.02375c0.0325,-0.0075 0.06375,-0.01375 0.09625,-0.02125c-0.0325,0.0075 -0.06375,0.01375 -0.09625,0.02125" id="path48"/>
  <path fill="#493b36" fill-rule="nonzero" d="m189.651253,364.166241c1.71375,-4.73625 5.28375,-10.56 12.685,-15.41l0.0025,-0.00125c0.01875,-0.0125 0.0375,-0.025 0.05625,-0.0375c0.01125,-0.0075 0.02375,-0.01625 0.035,-0.0225c0.005,-0.00375 0.0075,-0.005 0.0125,-0.00875c0.0175,-0.01125 0.03625,-0.0225 0.05375,-0.03375c0.00125,-0.00125 0.0025,-0.0025 0.005,-0.00375c4.58875,-2.975 10.635,-5.57625 18.5925,-7.3225c0.0025,0 0.00625,-0.00125 0.00875,-0.00125c0.03,-0.0075 0.065,-0.015 0.095,-0.02125c0.00375,-0.00125 0.0075,-0.00125 0.01125,-0.0025c0.0325,-0.0075 0.06375,-0.01375 0.09625,-0.02125l0,0c3.485,-0.755 6.92,-1.07125 10.28875,-1.07125c5.99,0 11.7725,1.00125 17.2675,2.325c-10.23125,5.695 -22.84625,11.015 -38.280001,15.90375c-7.4275,2.35375 -14.3875,4.24625 -20.93,5.72875" id="path50"/>
  <path fill="#dddddd" fill-rule="nonzero" d="m152.067502,213.898738c-15.26625,16.135 -45.625626,66.146251 -32.3995,104.235002c12.022,34.622501 32.08075,59.423751 99.015751,38.218751c66.933751,-21.20375 67.500001,-52.538751 55.476251,-87.162501c-13.225,-38.087501 -71.325001,-59.110001 -91.193751,-65.080001l9.95,-34.677501l-70.345501,22.285l29.49675,22.18125" id="path52"/>
  <path fill="#52423b" fill-rule="nonzero" d="m188.686253,248.346239l3.30125,9.5075c1.42375,0.09 2.8,0.33 4.125,0.7225c1.325,0.39125 2.53625,0.98875 3.63625,1.79125l-0.89125,-5.40125l16.1825,-5.12625l7.4275,21.39l-17.06875,5.4075c-1.1225,-3.23 -3.15375,-5.35875 -6.09375,-6.38875c-2.9425,-1.03 -6.185,-0.98375 -9.7325,0.14c-0.66375,0.21 -1.355,0.53125 -2.06625,0.95875c-0.71375,0.42875 -1.3325,0.9475 -1.85875,1.5525c-0.52875,0.6075 -0.895,1.265 -1.1,1.9725c-0.20625,0.70875 -0.17,1.45875 0.105,2.25c0.52875,1.52375 1.885,2.48 4.07125,2.87125c2.185,0.38875 4.82,0.58625 7.895,0.59125c3.07875,0.0075 6.4,0.0025 9.96375,-0.01c3.56375,-0.0125 6.995,0.305 10.29375,0.95125c3.3025,0.64375 6.26625,1.80375 8.89625,3.47125c2.63,1.67 4.54,4.21125 5.72375,7.6225c1.165,3.35375 1.3775,6.3975 0.6475,9.13125c-0.7325,2.735 -2.04375,5.1625 -3.93,7.2825c-1.88875,2.12 -4.19375,3.93125 -6.90875,5.43625c-2.72125,1.50375 -5.5075,2.7425 -8.3675,3.715l3.26875,9.41625l-15.62875,4.95l-4.15875,-11.975c-2.3125,-0.28 -4.62625,-0.79875 -6.93625,-1.555l0.68375,5.87l-16.1825,5.12625l-7.64875,-22.02875l17.40125,-5.5125c0.635,1.82625 1.6475,3.1475 3.035,3.9575c1.38875,0.81375 2.89625,1.315 4.52375,1.51c1.62375,0.195 3.2525,0.15375 4.8775,-0.125c1.625,-0.2775 2.96625,-0.55 4.02125,-0.81625c0.8125,-0.2575 1.66,-0.59375 2.5425,-1.00875c0.87875,-0.41375 1.6725,-0.9025 2.3825,-1.465c0.70625,-0.56125 1.23125,-1.23375 1.5725,-2.02c0.345,-0.785 0.3575,-1.63625 0.04,-2.55c-0.38125,-1.09625 -1.59625,-1.75875 -3.64375,-1.99c-2.04875,-0.23 -4.54125,-0.32 -7.475,-0.27c-2.93625,0.05 -6.145,0.08625 -9.62375,0.10375c-3.47875,0.02375 -6.82375,-0.33875 -10.03375,-1.08c-3.21,-0.7425 -6.0975,-1.975 -8.66625,-3.69875c-2.5675,-1.725 -4.44125,-4.29 -5.6275,-7.70375c-1.0575,-3.0475 -1.34125,-5.86625 -0.84625,-8.46c0.49375,-2.59125 1.4725,-4.9125 2.9325,-6.96625c1.46,-2.05 3.26,-3.83875 5.39625,-5.3625c2.1375,-1.52125 4.33125,-2.70625 6.58,-3.555l-2.6675,-7.67875l15.63,-4.95125" id="path54"/>
  <path fill="#52423b" fill-rule="nonzero" d="m188.637503,202.957488c-0.24375,-0.7025 -0.89875,-1.18125 -1.6925,-1.33375c0.54125,-0.57625 0.76625,-1.33375 0.5225,-2.03625c-0.38875,-1.12 -1.82375,-1.67375 -3.20375,-1.23625l-36.838751,11.67c-1.38125,0.4375 -2.185,1.70125 -1.79625,2.82125c0.24375,0.70125 0.89875,1.18125 1.6925,1.33375c-0.54125,0.575 -0.76625,1.3325 -0.5225,2.035c0.39,1.12 1.82375,1.67375 3.205,1.23625l36.838751,-11.67c1.38,-0.4375 2.18375,-1.7 1.795,-2.82" id="path56"/>
  <path fill="#fbd8b6" fill-rule="nonzero" d="m160.218752,362.791241c0.0475,0.14 0.09875,0.27375 0.14875,0.3925c-0.04,-0.12875 -0.09,-0.26 -0.14875,-0.3925" id="path58"/>
  <path fill="#f8f8f8" fill-rule="nonzero" d="m182.605003,479.996242c1.5325,5.0975 3.145,10.19625 4.845,15.25875l17.0425,-0.26c0,0 -2.21,-7.12375 -5.65,-19.2175l-16.2375,4.21875" id="path60"/>
  <path fill="#fbd8b6" fill-rule="nonzero" d="m171.088753,359.83124c0,0 -0.8475,-3.20875 -2.23,-2.74625c-1.84625,0.6175 -1.21625,2.97625 -0.91125,3.855c-0.32125,-0.79375 -1.2925,-2.77875 -2.7925,-2.21c-1.5125,0.57375 -0.92875,2.6675 -0.6575,3.4325l-0.01875,0.00625c-0.3825,-0.7725 -1.61875,-2.88375 -3.4,-2.1775c-1.34375,0.53125 -1.17875,1.8625 -0.86,2.8c0.05875,0.1325 0.10875,0.26375 0.14875,0.3925c-0.05,-0.11875 -0.10125,-0.2525 -0.14875,-0.3925c-0.3975,-0.89625 -1.2125,-1.79625 -2.34,-1.47125c-1.2425,0.4275 -0.3325,3.5925 -0.3325,3.5925c1.50625,5.27625 8.51625,60.062501 25.05875,115.083752l16.2375,-4.21875c-6.9175,-24.32 -18.815,-68.761251 -27.75375,-115.946252" id="path62"/>
  <path fill="#52423b" fill-rule="nonzero" d="m245.971254,434.543742c1.06625,4.5025 0.14375,8.575 -2.06,9.09625c-2.20375,0.52125 -4.85375,-2.70625 -5.91875,-7.20875c-1.065,-4.5025 -0.1425,-8.57625 2.06,-9.0975c2.20375,-0.52125 4.85375,2.70625 5.91875,7.21" id="path64"/>
  <path fill="#52423b" fill-rule="nonzero" d="m295.512504,422.152491c1.065,4.5025 0.1425,8.575 -2.06,9.09625c-2.20375,0.5225 -4.85375,-2.705 -5.91875,-7.20875c-1.06625,-4.5025 -0.14375,-8.575 2.06,-9.09625c2.20375,-0.52125 4.85375,2.70625 5.91875,7.20875" id="path66"/>
  <path fill="#ec6180" fill-rule="nonzero" d="m283.682504,461.568742c0,6.98875 -3.91875,12.65625 -8.7525,12.65625c-4.83375,0 -8.7525,-5.6675 -8.7525,-12.65625c0,-6.99 3.91875,-12.65625 8.7525,-12.65625c4.83375,0 8.7525,5.66625 8.7525,12.65625" id="path68"/>
  <path fill="#dddddd" fill-rule="nonzero" d="m470.213757,333.83874c0,-6.79375 -2.0125,-13.1125 -5.4625,-18.41125c0.6525,-2.62125 1.00375,-5.36125 1.00375,-8.185c0,-18.66125 -15.1275,-33.790001 -33.788751,-33.790001c-2.32,0 -4.585,0.235 -6.7725,0.68c-4.80625,-2.6275 -10.32,-4.12375 -16.18375,-4.12375c-0.9525,0 -1.8925,0.05 -2.825,0.1275c-5.46375,-3.79875 -12.09875,-6.0325 -19.25875,-6.0325c-17.85875,0 -32.47125,13.8575 -33.696251,31.405c-7.22,6.1975 -11.8,15.3825 -11.8,25.64375c0,1.9625 0.1775,3.88125 0.4975,5.75125c-2.3625,4.615 -3.705,9.8375 -3.705,15.37875c0,18.66125 15.12875,33.788751 33.790001,33.788751c2.42875,0 4.795,-0.26125 7.0775,-0.74875c5.43125,3.72625 12.0025,5.90875 19.08625,5.90875c0.82375,0 1.6375,-0.04 2.44625,-0.0975c5.82,4.7475 13.2475,7.5975 21.34375,7.5975c16.2175,0 29.76125,-11.42875 33.03125,-26.67c9.16375,-6.04375 15.21625,-16.42375 15.21625,-28.2225" id="path70"/>
  <path fill="#52423b" fill-rule="nonzero" d="m393.156256,341.94124l18.385,0l0,16.21625l-18.385,0l0,-16.21625zm17.7525,-4.5625l-17.165,0l0,-1.71625c0,-2.92 0.33125,-5.2925 0.995,-7.115c0.66125,-1.82125 1.6475,-3.485 2.9575,-4.99125c1.31,-1.505 4.25375,-4.155 8.83125,-7.95c2.43875,-1.9875 3.65875,-3.80875 3.65875,-5.465c0,-1.65625 -0.49,-2.94375 -1.46875,-3.8625c-0.97875,-0.9175 -2.46125,-1.3775 -4.4475,-1.3775c-2.13875,0 -3.9075,0.7075 -5.31,2.1225c-1.4,1.41625 -2.295,3.885 -2.68625,7.40875l-17.52625,-2.16875c0.60125,-6.44375 2.9425,-11.63125 7.02375,-15.56125c4.08,-3.93 10.33625,-5.895 18.76875,-5.895c6.56375,0 11.865,1.37125 15.9,4.11125c5.48125,3.70375 8.22125,8.6425 8.22125,14.81625c0,2.55875 -0.7075,5.02875 -2.1225,7.4075c-1.41625,2.37875 -4.3075,5.285 -8.67375,8.7175c-3.04125,2.41 -4.96125,4.345 -5.75875,5.805c-0.79875,1.46125 -1.1975,3.365 -1.1975,5.71375" id="path72"/>
  <path fill="#dddddd" fill-rule="nonzero" d="m358.476255,392.227491c0,5.6875 -4.61125,10.2975 -10.29875,10.2975c-5.6875,0 -10.2975,-4.61 -10.2975,-10.2975c0,-5.6875 4.61,-10.29875 10.2975,-10.29875c5.6875,0 10.29875,4.61125 10.29875,10.29875" id="path74"/>
  <path fill="#f8f8f8" fill-rule="nonzero" d="m330.761255,404.887491c0,3.37625 -2.73625,6.1125 -6.11125,6.1125c-3.37625,0 -6.1125,-2.73625 -6.1125,-6.1125c0,-3.37625 2.73625,-6.1125 6.1125,-6.1125c3.375,0 6.11125,2.73625 6.11125,6.1125" id="path76"/>
 </g>
</svg>