<svg width="195" height="100" xmlns="http://www.w3.org/2000/svg">
 <metadata id="metadata8">image/svg+xml</metadata>

 <g>
  <title>background</title>
  <rect fill="none" id="canvas_background" height="102" width="197" y="-1" x="-1"/>
 </g>
 <g>
  <title>Layer 1</title>
  <g stroke="null" id="svg_1">
   <path fill="#a4b751" fill-rule="nonzero" d="m0.127495,99.952989l194.745009,0l0,-99.90598l-194.745009,0l0,99.90598z" id="path78"/>
   <path fill="#8b9b2c" fill-rule="nonzero" d="m8.543083,16.522338l0,65.150945c5.048579,0 9.139853,4.092241 9.139853,9.139853c0,0.617897 -0.062853,1.22129 -0.179857,1.804376l159.993841,0c-0.117004,-0.583086 -0.179857,-1.186479 -0.179857,-1.804376c0,-5.047612 4.092241,-9.139853 9.139853,-9.139853l0,-65.150945c-5.047612,0 -9.139853,-4.092241 -9.139853,-9.138886l-159.634126,0c0,5.046645 -4.091274,9.138886 -9.139853,9.138886" id="path80"/>
   <path fill="#a4b751" fill-rule="nonzero" d="m143.827798,49.999999c0,25.586173 -20.741626,46.327799 -46.327799,46.327799c-25.586173,0 -46.327799,-20.741626 -46.327799,-46.327799c0,-25.586173 20.741626,-46.327799 46.327799,-46.327799c25.586173,0 46.327799,20.741626 46.327799,46.327799" id="path82"/>
   <path fill="#a4b751" fill-rule="nonzero" d="m37.411171,49.999999c0,4.246957 -3.442433,7.68939 -7.688423,7.68939c-4.246957,0 -7.68939,-3.442433 -7.68939,-7.68939c0,-4.24599 3.442433,-7.688423 7.68939,-7.688423c4.24599,0 7.688423,3.442433 7.688423,7.688423" id="path84"/>
   <path fill="#a4b751" fill-rule="nonzero" d="m172.966639,49.999999c0,4.246957 -3.442433,7.68939 -7.688423,7.68939c-4.246957,0 -7.68939,-3.442433 -7.68939,-7.68939c0,-4.24599 3.442433,-7.688423 7.68939,-7.688423c4.24599,0 7.688423,3.442433 7.688423,7.688423" id="path86"/>
   <path fill="#8b9b2c" fill-rule="nonzero" d="m97.499999,86.432737c-20.120827,0 -36.432738,-16.311911 -36.432738,-36.432738c0,-20.120827 16.311911,-36.431771 36.432738,-36.431771c20.120827,0 36.432738,16.310944 36.432738,36.431771c0,20.120827 -16.311911,36.432738 -36.432738,36.432738zm0,-77.063117c-22.439635,0 -40.630379,18.190744 -40.630379,40.630379c0,22.439635 18.190744,40.630379 40.630379,40.630379c22.439635,0 40.630379,-18.190744 40.630379,-40.630379c0,-22.439635 -18.190744,-40.630379 -40.630379,-40.630379" id="path88"/>
  </g>
 </g>
</svg>