<svg width="1500" height="1500" xmlns="http://www.w3.org/2000/svg">
 <metadata id="metadata8">image/svg+xml</metadata>

 <g>
  <title>background</title>
  <rect fill="none" id="canvas_background" height="402" width="582" y="-1" x="-1"/>
 </g>
 <g>
  <title>Layer 1</title>
  <path fill="#eeeeee" fill-rule="nonzero" d="m0,745.104989l1500.000022,0l0,-15l-1500.000022,0l0,15z" id="path16"/>
  <path fill="#eeeeee" fill-rule="nonzero" d="m0,979.189992l1500.000022,0l0,-15l-1500.000022,0l0,15z" id="path18"/>
  <path fill="#eeeeee" fill-rule="nonzero" d="m0,1213.273746l1500.000022,0l0,-15l-1500.000022,0l0,15z" id="path20"/>
  <path fill="#eeeeee" fill-rule="nonzero" d="m1050.141266,931.857492l-286.403754,0l-245.863754,-134.005002l284.061254,0l248.206254,134.005002" id="path22"/>
  <path fill="#c05241" fill-rule="nonzero" d="m515.530008,394.621234l248.207504,134.005002l-64.015001,0l-245.863754,-134.005002l61.671251,0" id="path24"/>
  <path fill="#9e4337" fill-rule="nonzero" d="m699.72251,931.857492l64.014626,0l0,-403.231256l-64.014626,0l0,403.231256z" id="path26"/>
  <path fill="#a9483a" fill-rule="nonzero" d="m453.858757,394.621234l0,403.231256l245.863754,134.005002l0,-403.231256l-245.863754,-134.005002" id="path28"/>
  <path fill="#eeeeee" fill-rule="nonzero" d="m295.640004,886.163741c-67.941251,0 -122.923752,-10.21625 -122.927502,-22.86375c-0.0025,-6.725 15.5475,-12.78625 40.322501,-17.0025l-2.94,20.2475c0,0 20.9025,5.6525 35.488751,5.6525c10.64125,0 17.92,-3.00625 11.27375,-13.41125c-5.4675,-8.55625 -12.0875,-11.22875 -18.22125,-11.22875c-10.1925,0 -19.04125,7.375 -19.04125,7.375l3.55625,-10.18375c20.4475,-2.8075 45.688751,-4.475 73.005001,-4.495c0.17125,0 0.3525,0 0.5225,0c17.44125,0 34.027501,0.6725 49.052501,1.8875l-4.285,17.73125c0,0 20.67625,6.78125 34.291251,6.78125c9.42875,0 15.47125,-3.2525 8.915,-14.26125c-1.8575,-3.12125 -4.285,-5.18 -6.9575,-6.48375c25.71,4.1875 41.926251,10.3375 41.931251,17.205c0.00125,12.67875 -55.268751,23 -123.452502,23.05c-0.17375,0 -0.35875,0 -0.53375,0m58.305001,-39.327501l1.58125,-3.805c3.26,0.33125 6.43,0.6875 9.50375,1.07c-6.14125,0.61375 -11.085,2.735 -11.085,2.735" id="path30"/>
  <path fill="#fbd8b5" fill-rule="nonzero" d="m362.642505,659.422487c0,0 -25.88,-226.805003 -157.382502,-128.026252c0,0 -41.921251,35.162501 -18.28125,146.676252c120.122502,14.02125 175.663753,-18.65 175.663753,-18.65" id="path32"/>
  <path fill="#4c3f3a" fill-rule="nonzero" d="m211.890003,615.219987l-3.925,-38.245001c70.383751,-10.6975 124.917502,-40.028751 124.917502,-40.028751c-21.2425,-60.641251 -78.481251,-58.581251 -109.281252,-49.160001c-39.132501,11.1425 -52.578751,38.272501 -55.337501,47.948751c-3.46625,-3.48125 -4.4175,-8.26875 -4.4175,-8.26875c-4.755,7.54 -1.07,12.99 -1.07,12.99c-7.76125,1.115 -9.49875,8.82375 -9.49875,8.82375c2.4675,-1.075 4.8675,-1.28875 6.97,-1.11625c-38.447251,23.4925 26.7425,130.030002 26.7425,130.030002c15.72375,-12.44875 23.9875,-52.241251 23.9875,-52.241251c0,0 -16.06625,8.7125 -15.4925,-5.94625c0.5725,-14.65875 16.405,-4.78625 16.405,-4.78625" id="path34"/>
  <path fill="#fbd8b5" fill-rule="nonzero" d="m155.471252,570.369986c-0.145,0.0075 -0.22875,0.01125 -0.22875,0.01125c0,0 0.0875,-0.00625 0.22875,-0.01125" id="path36"/>
  <path fill="#fbd8b5" fill-rule="nonzero" d="m106.694377,632.857487c-9.025,-41.952501 21.211875,-66.081251 21.211875,-66.081251c0,0 26.81125,-21.86125 37.837501,-6.37625c0,0 2.5225,3.145 -0.99125,3.225c-3.5125,0.08 -8.30125,-4.92875 -12.94625,-1.7375c0,0 4.73,-1.785 5.16,2.105c0.205,1.8625 -3.54125,2.215 -4.505,2.27375c-0.14125,0.005 -0.22875,0.01125 -0.22875,0.01125c0,0 0.08375,-0.0025 0.22875,-0.01125c0.91125,-0.03375 4.33125,-0.01625 4.635,2.12875c0.4475,3.15125 -2.35625,3.3775 -3.26375,3.37125c-0.1725,-0.01375 -0.285,-0.01125 -0.285,-0.01125c0,0 0.11375,0.0075 0.285,0.01125c0.835,0.06 3.2225,0.49 2.535,3.495c-0.7325,3.20125 -5.73625,1.34 -5.73625,1.34c0,0 -11.11,0.51625 -15.91875,7.27875c-37.460501,55.620001 24.2475,91.063751 52.277501,94.313751l4.79875,22.10625c-35.168751,-5.21375 -76.069001,-25.48875 -85.094376,-67.442501" id="path38"/>
  <path fill="#fbd8b5" fill-rule="nonzero" d="m156.842502,575.868736c-0.1725,-0.0025 -0.285,-0.01 -0.285,-0.01c0,0 0.1125,-0.0025 0.285,0.01" id="path40"/>
  <path fill="#4c3f3a" fill-rule="nonzero" d="m210.358753,785.847489l5.83125,38.727501l-6.095,41.970001c0,0 62.520001,16.90625 46.762501,-7.75875c-14.55375,-22.77875 -37.262501,-3.85375 -37.262501,-3.85375l11.3525,-32.50125l1.4775,-24.5725c0,0 64.665001,3.90125 119.220002,-11.8975l0.05125,31.495l-10.25,42.416251c0,0 59.228751,19.42625 43.206251,-7.48c-8.8825,-14.9175 -30.7075,-5.55625 -30.7075,-5.55625l12.2375,-29.455l3.525,-48.273751l-159.348752,16.74" id="path42"/>
  <path fill="#f8f8f8" fill-rule="nonzero" d="m362.642505,659.422487l7.065,109.685002c0,0 -65.241251,19.255 -159.348752,16.74l-23.36875,-107.653752c0,0 108.803752,9.5525 175.652503,-18.77125" id="path44"/>
  <path fill="#dfdfdd" fill-rule="nonzero" d="m317.155005,771.606239l-15.90625,-14.0375l14.42,-63.338751l-5.94,-7.145l2.415,-5.20375l12.69875,-2.465l3.74125,5.83625l-3.995,7.52375l8.87125,63.410001l-16.305,15.42" id="path46"/>
  <path fill="#4c3f3a" fill-rule="nonzero" d="m324.842505,679.416238l3.74125,5.83625l-3.995,7.52375l12.5875,62.022501l-16.30375,15.42l-15.90625,-14.0375l10.70375,-61.951251l-5.94125,-7.14375l2.415,-5.205l12.69875,-2.465" id="path48"/>
  <path fill="#76a685" fill-rule="nonzero" d="m368.442505,786.428739l1.265,-17.32125l-0.01375,16.4375c-0.40125,0.3075 -0.8225,0.61375 -1.25125,0.88375" id="path50"/>
  <path fill="#443935" fill-rule="nonzero" d="m365.903755,787.349989c-0.66375,0 -1.3025,-0.25125 -1.87875,-0.88625c-0.85,-0.9375 -0.5225,-2.15375 0.0975,-3.2175c-0.53125,0.2125 -1.085,0.35375 -1.6175,0.35375c-0.64875,0 -1.265,-0.21125 -1.7675,-0.765c-0.76875,-0.85 -0.5725,-1.92375 -0.07,-2.90625c-0.4275,0.14125 -0.8625,0.23 -1.28375,0.23c-0.65,0 -1.26625,-0.21125 -1.76875,-0.76375c-0.85,-0.94125 -0.52,-2.16 0.09875,-3.22c-0.53125,0.2125 -1.085,0.35375 -1.6175,0.35375c-0.65,0 -1.2675,-0.2125 -1.77,-0.76875c-0.69875,-0.77 -0.53375,-1.805 -0.00875,-2.83625c9.9675,-2.21625 15.39,-3.81625 15.39,-3.81625l0,0l-1.265,17.32125c-0.8375,0.52875 -1.7075,0.92125 -2.53875,0.92125" id="path52"/>
  <path fill="#dfdfdd" fill-rule="nonzero" d="m354.317505,772.923739c0.90625,-1.775 2.8825,-3.54 3.36125,-3.9225c3.40875,-2.7325 7.35,-6.1775 11.37,-10.115l0.65875,10.22125l0,0c0,0 -5.4225,1.6 -15.39,3.81625" id="path54"/>
  <path fill="#fbd8b5" fill-rule="nonzero" d="m362.642505,659.422487l1.33875,20.7825c63.966251,18.23875 17.605,68.018751 -5.1375,86.243751c-0.75625,0.605 -5.255,4.6625 -3.3525,6.75875c0.91375,1.01125 2.20625,0.88625 3.3875,0.415c-0.61875,1.06 -0.94875,2.27875 -0.09875,3.22c0.8275,0.91125 1.96375,0.89375 3.0525,0.53375c-0.5025,0.98125 -0.69875,2.05625 0.07,2.90625c0.9125,1.00625 2.2025,0.8825 3.385,0.41125c-0.62125,1.06375 -0.9475,2.28 -0.0975,3.2175c1.7775,1.96 4.15375,0.26625 6.0325,-1.19875c52.001251,-40.572501 74.046251,-103.300002 -8.58,-123.290002" id="path56"/>
  <path fill="#f8f8f8" fill-rule="nonzero" d="m362.642505,659.422487l1.33875,20.7825c6.8825,1.9625 12.48,4.29125 16.975,6.905l8.6175,-17.93375c-7.3425,-3.87 -16.25625,-7.17125 -26.93125,-9.75375" id="path58"/>
  <path fill="#e9e8e7" fill-rule="nonzero" d="m363.981255,680.204988c1.6725,0.47625 3.2675,0.97625 4.79125,1.49625l-6.13,-22.27875l1.33875,20.7825" id="path60"/>
  <path fill="#f8f8f8" fill-rule="nonzero" d="m186.990003,678.193738c-6.36875,-0.7375 -14.47625,-3.14375 -22.76375,-7.06625l-0.8875,21.725c9.42125,3.6175 19.135,6.0675 28.45,7.4475l-4.79875,-22.10625" id="path62"/>
  <path fill="#ec6180" fill-rule="nonzero" d="m277.197504,648.248737c0,0 31.9,-3.9575 50.315001,-13.21c0,0 -2.26625,-28.21875 -31.8475,-21.35625c-29.27875,6.79125 -18.4675,34.566251 -18.4675,34.566251" id="path64"/>
  <path fill="#4c3f3a" fill-rule="nonzero" d="m317.245005,589.343736c1.6675,5.075 4.975,8.55 7.385,7.7675c2.41,-0.785 3.01375,-5.5375 1.345,-10.61125c-1.67125,-5.075 -4.97875,-8.55125 -7.385,-7.76625c-2.4125,0.7825 -3.0125,5.535 -1.345,10.61" id="path66"/>
  <path fill="#4c3f3a" fill-rule="nonzero" d="m250.212504,613.957487c1.665,5.075 4.96875,8.555 7.38375,7.7675c2.40125,-0.78625 3.00875,-5.53875 1.335,-10.61125c-1.66625,-5.075 -4.97,-8.5525 -7.38125,-7.7675c-2.40875,0.78625 -3.01125,5.53625 -1.3375,10.61125" id="path68"/>
  <path fill="#4c3f3a" fill-rule="nonzero" d="m250.750004,589.451236l-14.38125,23.5775l3.095,2.25l15.54875,-23.56125l-4.2625,-2.26625" id="path70"/>
  <path fill="#4c3f3a" fill-rule="nonzero" d="m312.908755,566.131236l23.85375,13.9175l-1.9575,3.3375l-23.165,-13.52625l1.26875,-3.72875" id="path72"/>
  <path fill="#75332b" fill-rule="nonzero" d="m656.29751,592.174986l-37.851251,-20.63l-4.2,-2.28875l-36.406251,-19.8425l0,-40.026251l36.323751,19.79875l4.2,2.28875l37.933751,20.675l0,40.025001zm-37.748751,29.00875l37.748751,20.57375l0,40.025001l-37.666251,-20.52875l-4.2,-2.29l-36.591251,-19.94375l0,-40.025001l36.508751,19.89875l4.2,2.29zm0.185,89.707501l37.563751,20.47375l0,40.025001l-37.480001,-20.42875l-4.20125,-2.29l-36.776251,-20.04375l0,-40.025001l36.693751,19.99875l4.2,2.29zm0.185,89.707501l37.378751,20.3725l0,40.025001l-37.295001,-20.32625l-4.20125,-2.29l-36.961251,-20.145l0,-40.026251l36.878751,20.10125l4.2,2.28875zm-45.275001,-29.455l-37.255001,-20.305l-0.0425,-40.048751l37.297501,20.32875l4.19625,2.28625l36.786251,20.05l0.0825,40.071251l-36.868751,-20.095l-4.19625,-2.2875zm0,44.803751l-37.208751,-20.28l-4.1975,-2.28875l-37.052501,-20.19375l0,-40.026251l37.010001,20.1725l4.19875,2.2875l37.250001,20.30375l0,40.025001zm-41.500001,-112.226252l-36.958751,-20.14375l0,-40.025001l36.916251,20.12l4.19875,2.28875l37.343751,20.35375l0,40.025001l-37.302501,-20.33125l-4.1975,-2.2875zm-0.09375,-89.658751l-36.865001,-20.09125l0,-40.026251l36.822501,20.07l4.19875,2.2875l37.437501,20.405l0,40.026251l-37.396251,-20.3825l-4.1975,-2.28875zm-0.09375,-89.657501l-36.771251,-20.04125l0,-40.026251l36.728751,20.01875l4.19875,2.28875l37.531251,20.45625l0,40.025001l-37.490001,-20.43375l-4.1975,-2.2875zm45.883751,119.393752l36.601251,19.94875l0.0825,40.071251l-36.683751,-19.995l-4.19625,-2.2875l-37.348751,-20.35625l-0.0425,-40.047501l37.391251,20.37875l4.19625,2.2875zm-4.19625,-51.868751l-37.442501,-20.4075l-0.0425,-40.048751l37.485001,20.43l4.19625,2.2875l36.416251,19.84875l0.0825,40.070001l-36.498751,-19.89375l-4.19625,-2.28625zm123.980002,-17.255l1.095,0.59625l0.42,0.23l0.58375,0.02625l64.015001,0l0,-4.19625l-63.481251,0l-2.6325,-1.43375l-79.268751,-43.206251l-0.08,-42.457501l-0.0025,-0.00125l63.238751,0l-4.23875,-2.2875l-63.198751,0l0.08,42.457501l-78.046251,-42.538751l-0.04,-42.436251l62.455001,0l-4.23875,-2.2875l-62.415001,0l0.04,42.435001l-78.050001,-42.540001l0,4.77875l37.131251,20.2375l0,40.025001l-37.131251,-20.2375l0,4.77875l37.131251,20.2375l4.195,2.28625l36.776251,20.045l0.04125,40.047501l-36.817501,-20.0675l-4.195,-2.28625l-37.131251,-20.2375l0,4.7775l37.131251,20.2375l0,40.026251l-37.131251,-20.2375l0,4.77875l37.131251,20.23625l4.195,2.2875l36.870001,20.095l0.04125,40.048751l-36.911251,-20.11875l-4.195,-2.28625l-37.131251,-20.2375l0,4.7775l37.131251,20.2375l0,40.025001l-37.131251,-20.23625l0,4.7775l37.131251,20.2375l4.195,2.2875l36.962501,20.14625l0.0425,40.047501l-37.005001,-20.16875l-4.195,-2.2875l-37.131251,-20.2375l0,4.77875l37.131251,20.2375l0,40.025001l-37.131251,-20.2375l0,4.77875l37.131251,20.2375l4.195,2.28625l37.056251,20.1975l0.06375,42.448751l4.19875,2.28875l-0.06375,-42.448751l37.203751,20.27625l4.19625,2.2875l36.971251,20.15125l0.12,42.480001l4.2025,2.29l-0.12125,-42.481251l37.285001,20.3225l4.195,2.28625l37.131251,20.23875l1.095,0.59625l0.55125,0.255l64.467501,0l0,-4.195l-63.481251,0l-2.6325,-1.435l-37.131251,-20.2375l0,-40.025001l37.131251,20.2375l1.095,0.59625l0.42,0.24875l0.58375,0.0075l64.015001,0l0,-4.19625l-63.481251,0l-2.6325,-1.43375l-37.131251,-20.23875l-4.195,-2.28625l-37.387501,-20.37875l-0.08375,-40.070001l37.471251,20.4225l4.195,2.2875l37.131251,20.2375l1.095,0.59625l0.48625,0.24125l0.5175,0.015l64.015001,0l0,-4.19625l-63.481251,0l-2.6325,-1.435l-37.131251,-20.2375l0,-40.025001l37.131251,20.2375l1.095,0.5975l0.45375,0.23125l0.55,0.02375l64.015001,0l0,-4.195l-63.481251,0l-2.6325,-1.435l-37.131251,-20.2375l-4.195,-2.2875l-37.572501,-20.47875l-0.08375,-40.070001l37.656251,20.5225l4.195,2.2875l37.131251,20.2375l1.095,0.59625l0.3875,0.22375l0.61625,0.0325l64.015001,0l0,-4.19625l-63.481251,0l-2.6325,-1.43375l-37.131251,-20.23875l0,-40.025001l37.131251,20.23875l1.095,0.59625l0.48625,0.24625l0.5175,0.01l64.015001,0l0,-4.19625l-63.481251,0l-2.6325,-1.435l-37.131251,-20.2375l-4.195,-2.2875l-37.757501,-20.57875l-0.08375,-40.071251l37.841251,20.625l4.195,2.28625l37.131251,20.23875l1.095,0.59625l0.48625,0.23875l0.5175,0.0175l64.015001,0l0,-4.19625l-63.481251,0l-2.6325,-1.435l-37.131251,-20.2375l0,-40.025001l37.131251,20.2375" id="path74"/>
  <path fill="#f5f5f5" fill-rule="nonzero" d="m326.525005,396.128734c0,0 0.13375,-0.33375 0.385,-0.95875c0.11625,-0.3025 0.465,-0.9325 0.79125,-1.525c0.35625,-0.5725 0.725,-1.16875 1.23875,-1.8c1.98,-2.54125 5.67375,-5.45 10.8875,-6.705c2.59375,-0.61875 5.5725,-0.77625 8.7125,-0.1675c3.12375,0.625 6.41375,2.205 9.00125,4.77625c1.3075,1.2675 2.36625,2.7725 3.245,4.355c0.83125,1.59625 1.4825,3.275 1.90125,4.96625c0.2475,0.84875 0.35125,1.68875 0.52375,2.54125c0.1125,0.84125 0.2025,1.68625 0.27625,2.5275l0.04625,1.24875l0.01875,0.625l0.0075,0.31375l-0.01875,0.51875l-0.1175,2.1475c0.00125,0.63125 -0.175,1.6475 -0.31125,2.53375c-0.14125,0.90875 -0.28375,1.8275 -0.54375,2.63625c-0.4125,1.68875 -1.04875,3.29875 -1.73625,4.84375c-1.4425,3.08375 -3.26625,5.49125 -4.7325,7.675c-1.4875,2.1825 -2.8575,4.11 -3.87375,6.07125c-1.09125,1.9275 -1.9475,3.8325 -2.6375,5.66375c-0.40625,0.8875 -0.65625,1.81 -0.9475,2.66375c-0.27875,0.86125 -0.56875,1.66625 -0.755,2.46875c-0.395,1.59125 -0.83875,2.95125 -1.045,4.1375c-0.47625,2.34375 -0.80625,3.69125 -0.80625,3.69125l-0.0575,0.235c-0.465,1.8975 -2.37875,3.05875 -4.27625,2.595c-1.64625,-0.40375 -2.73875,-1.90125 -2.69375,-3.53c0,0 0.04,-1.4975 0.21,-4.1325c0.02375,-1.31875 0.3425,-2.9225 0.5725,-4.77c0.095,-0.92625 0.35375,-1.90125 0.57875,-2.93625c0.24375,-1.0325 0.4425,-2.12875 0.81875,-3.25c0.6825,-2.24375 1.55375,-4.68625 2.76375,-7.12125c1.17625,-2.46125 2.6875,-4.8825 4.19375,-7.16375c1.51875,-2.2825 2.98,-4.4 3.935,-6.4475c0.4575,-1.03625 0.89125,-2.07 1.16,-3.16375c0.19625,-0.55 0.25375,-1.0525 0.34375,-1.5575c0.0825,-0.53 0.22875,-0.91875 0.24625,-1.7275l0.13625,-2.1475l-0.01375,-1.58625l-0.14,-1.72875c-0.1075,-0.54 -0.145,-1.12 -0.29125,-1.62875c-0.47125,-2.11625 -1.35375,-3.8575 -2.53,-5.15125c-1.17875,-1.2975 -2.7175,-2.14375 -4.39625,-2.6c-1.68,-0.44 -3.47,-0.49875 -5.0775,-0.2125c-1.61625,0.245 -3.07125,0.75375 -4.2275,1.38125c-1.15875,0.6275 -2.0425,1.33875 -2.6525,1.99375c-0.3125,0.31 -0.58125,0.645 -0.77625,0.87125c-0.16,0.2525 -0.285,0.3075 -0.45,0.6175c-0.32,0.5925 -0.49125,0.90875 -0.49125,0.90875c-0.9275,1.71875 -3.0725,2.36 -4.79125,1.4325c-1.6,-0.8625 -2.265,-2.78125 -1.60375,-4.42875" id="path76"/>
  <path fill="#f5f5f5" fill-rule="nonzero" d="m345.892505,468.097485c-0.5775,2.855 -3.36125,4.7025 -6.2175,4.12375c-2.855,-0.5775 -4.7025,-3.36125 -4.125,-6.21625c0.5775,-2.85625 3.36125,-4.7025 6.2175,-4.125c2.85625,0.5775 4.7025,3.36125 4.125,6.2175" id="path78"/>
  <path fill="#f5f5f5" fill-rule="nonzero" d="m224.393753,346.067483c0,0 0.125,-0.40125 0.3575,-1.15375c0.10625,-0.3625 0.4525,-1.13125 0.77625,-1.8525c0.36125,-0.70125 0.73375,-1.43 1.2725,-2.215c2.06625,-3.15 6.0925,-6.8925 12.04875,-8.85125c2.96375,-0.9675 6.42125,-1.435 10.1375,-1.025c3.7,0.43125 7.685,1.95875 10.94375,4.71c1.64625,1.35125 3.0225,3.005 4.1975,4.765c1.12125,1.7825 2.04,3.67625 2.6875,5.6075c0.37,0.965 0.57125,1.93375 0.85375,2.91125c0.21,0.97 0.39625,1.945 0.5625,2.91875l0.1725,1.45125l0.08125,0.72625l0.03875,0.36375l0.02625,0.6075l0.06875,2.51375c0.06125,0.735 -0.0475,1.93625 -0.12125,2.98125c-0.0775,1.07375 -0.1575,2.1575 -0.38375,3.125c-0.31875,2.0075 -0.9075,3.94375 -1.56,5.81c-1.38875,3.73 -3.285,6.71 -4.785,9.395c-1.52625,2.685 -2.93875,5.06125 -3.93625,7.44375c-1.0875,2.35 -1.905,4.65125 -2.535,6.8525c-0.38875,1.0725 -0.5925,2.17125 -0.85,3.19375c-0.2425,1.03 -0.50375,1.99625 -0.645,2.94875c-0.3075,1.8925 -0.69625,3.51875 -0.82375,4.92125c-0.3325,2.7775 -0.58875,4.37875 -0.58875,4.37875l-0.04375,0.27875c-0.36125,2.255 -2.48125,3.79125 -4.73625,3.43c-1.9575,-0.3125 -3.3725,-1.95375 -3.47625,-3.855c0,0 -0.09625,-1.75 -0.14875,-4.83625c-0.0975,-1.54 0.12125,-3.43875 0.21375,-5.61375c0.0225,-1.08875 0.23125,-2.25 0.395,-3.4775c0.185,-1.22625 0.3125,-2.5225 0.645,-3.865c0.58125,-2.68 1.36375,-5.60875 2.5425,-8.5625c1.13625,-2.97875 2.66625,-5.945 4.20375,-8.7475c1.55375,-2.80375 3.05375,-5.41125 3.9725,-7.88875c0.43375,-1.25 0.8425,-2.49625 1.05,-3.79625c0.17625,-0.66 0.195,-1.25125 0.2525,-1.8475c0.04625,-0.62625 0.17875,-1.0925 0.1225,-2.0375l-0.04625,-2.515l-0.16625,-1.8475l-0.3275,-2.00125c-0.1775,-0.61875 -0.275,-1.29125 -0.49375,-1.87c-0.75125,-2.42125 -1.94625,-4.36625 -3.44,-5.7625c-1.4975,-1.4 -3.37,-2.23875 -5.37125,-2.61125c-1.99875,-0.3525 -4.09,-0.25125 -5.93625,0.23625c-1.86125,0.44 -3.50875,1.17 -4.795,2.0125c-1.29125,0.84 -2.2525,1.755 -2.90125,2.575c-0.335,0.39125 -0.6175,0.8075 -0.82125,1.09c-0.16375,0.30875 -0.30375,0.38625 -0.46625,0.7625c-0.31625,0.72125 -0.48625,1.105 -0.48625,1.105c-0.91625,2.0925 -3.35625,3.04375 -5.4475,2.12625c-1.94625,-0.8525 -2.905,-3.02625 -2.29,-5.00875" id="path80"/>
  <path fill="#f5f5f5" fill-rule="nonzero" d="m253.816254,428.092484c-0.4,3.3825 -3.46875,5.8 -6.85125,5.39875c-3.38375,-0.4025 -5.80125,-3.47 -5.4,-6.8525c0.40125,-3.38375 3.46875,-5.8 6.8525,-5.39875c3.38375,0.40125 5.8,3.46875 5.39875,6.8525" id="path82"/>
  <path fill="#f5f5f5" fill-rule="nonzero" d="m134.903752,420.564984c0,0 -0.0125,-0.2625 -0.035,-0.7575c-0.015,-0.23625 0.025,-0.76375 0.0625,-1.25875c0.06375,-0.49125 0.1275,-1.00125 0.27875,-1.57875c0.54625,-2.3 2.125,-5.36875 5.2225,-7.79625c1.5425,-1.205 3.48375,-2.2175 5.765,-2.76875c2.27625,-0.53625 4.955,-0.48375 7.465,0.44375c1.26,0.44625 2.425,1.12875 3.495,1.91625c1.0425,0.81375 1.98875,1.735 2.78375,2.7375c0.42375,0.49 0.75,1.01875 1.125,1.53625c0.33125,0.5275 0.64875,1.0625 0.955,1.6025l0.41125,0.81875l0.20375,0.4125l0.1,0.20625l0.145,0.3525l0.5775,1.47c0.1925,0.42 0.385,1.1525 0.565,1.785c0.1825,0.65125 0.36625,1.3075 0.44,1.92625c0.24,1.25375 0.305,2.5225 0.31875,3.7625c-0.02375,2.49875 -0.50625,4.6625 -0.81875,6.5675c-0.32875,1.91 -0.655,3.61375 -0.735,5.23375c-0.14,1.62 -0.13125,3.1525 -0.03375,4.58625c0,0.715 0.11375,1.4075 0.18,2.06625c0.07625,0.66 0.12875,1.28625 0.24875,1.87875c0.2225,1.1825 0.34,2.225 0.56375,3.08c0.39625,1.71 0.5875,2.71 0.5875,2.71l0.03375,0.175c0.2675,1.4075 -0.65625,2.76625 -2.06375,3.035c-1.2225,0.23375 -2.4075,-0.43375 -2.875,-1.53375c0,0 -0.43,-1.0125 -1.12,-2.8225c-0.38625,-0.88875 -0.6625,-2.05625 -1.0725,-3.35875c-0.21875,-0.64875 -0.3425,-1.3775 -0.50875,-2.1375c-0.1525,-0.76375 -0.35375,-1.55625 -0.44375,-2.41875c-0.22875,-1.70625 -0.3925,-3.6025 -0.32625,-5.5975c0.03375,-2.00125 0.30375,-4.07875 0.61375,-6.06125c0.31875,-1.98625 0.6475,-3.845 0.66125,-5.50375c-0.01,-0.83125 -0.03625,-1.65375 -0.19,-2.465c-0.0375,-0.4275 -0.1525,-0.78 -0.24625,-1.145c-0.10625,-0.37875 -0.1275,-0.6825 -0.3625,-1.22875l-0.56375,-1.47375l-0.4925,-1.055l-0.62,-1.11125c-0.2375,-0.32875 -0.43875,-0.70375 -0.69125,-0.99875c-0.96,-1.26875 -2.08125,-2.1625 -3.26,-2.6675c-1.18375,-0.50625 -2.4675,-0.6025 -3.7275,-0.395c-1.25625,0.21875 -2.46875,0.725 -3.455,1.40625c-1.00375,0.6575 -1.82,1.44 -2.4,2.21125c-0.5825,0.7725 -0.95625,1.51625 -1.16375,2.14c-0.11375,0.3025 -0.19125,0.6075 -0.25125,0.81875c-0.03125,0.2175 -0.0975,0.2925 -0.1125,0.54875c-0.03375,0.49375 -0.05125,0.75625 -0.05125,0.75625c-0.095,1.43125 -1.33125,2.5125 -2.76125,2.41875c-1.33125,-0.08875 -2.36125,-1.1675 -2.42125,-2.46875" id="path84"/>
  <path fill="#f5f5f5" fill-rule="nonzero" d="m169.778753,462.702485c0.485,2.0825 -0.81,4.16375 -2.8925,4.64875c-2.0825,0.485 -4.165,-0.81 -4.65,-2.8925c-0.485,-2.0825 0.81,-4.16375 2.8925,-4.64875c2.0825,-0.485 4.165,0.81 4.65,2.8925" id="path86"/>
  <path fill="#eeeeee" fill-rule="nonzero" d="m1316.85002,1162.632495l-157.573752,0l-16.88875,-8.335l90.172501,-0.08l-267.655004,-130.632502l-74.915001,0l0,-8.8725l125.192502,0l301.667504,147.920002" id="path88"/>
  <path fill="#4c3f3a" fill-rule="nonzero" d="m889.990013,1023.584993l10.217288,0l0,-207.636253l-10.217288,0l0,207.636253z" id="path90"/>
  <path fill="#a17445" fill-rule="nonzero" d="m882.826263,869.782491l262.288754,142.946252l0,-57.732501l-262.288754,-142.946252l0,57.732501" id="path92"/>
  <path fill="#936334" fill-rule="nonzero" d="m882.826263,812.04999l14.16125,0l262.288754,142.946252l-14.16125,0l-262.288754,-142.946252" id="path94"/>
  <path fill="#4c3f3a" fill-rule="nonzero" d="m1152.196267,951.137492l7.08,3.85875l0,207.636253l-14.16125,0l-7.16375,-3.89875l0,-207.636253l14.245,0.04" id="path96"/>
  <path fill="#4c3f3a" fill-rule="nonzero" d="m904.151263,815.94874l-14.16125,0l-7.16375,-3.89875l14.16125,0l7.16375,3.89875" id="path98"/>
  <path fill="#4c3f3a" fill-rule="nonzero" d="m882.826263,1023.584993l7.164063,0l0,-211.535003l-7.164063,0l0,211.535003z" id="path100"/>
  <path fill="#fbd8b5" fill-rule="nonzero" d="m852.540013,684.709988c0.4125,2.03875 2.74375,2.365 4.3325,2.08c-1.52375,0.1225 -4.135,0.7 -3.86875,3.25625c0.305,2.94625 4.08125,3.1325 5.415,3.105l0.00375,0.03125c-1.24125,0.1725 -4.53,0.86875 -4.23625,3.3525c0.2925,2.46375 3.7075,2.375 5.025,2.24875c-1.42125,0.21125 -5.1075,1.03125 -4.63375,4.005c0.355,2.225 5.36,1.095 5.36,1.095c91.168751,-28.28125 137.842502,-29.8 137.842502,-29.8l-7.57625,-21.2775c-96.166251,15.1725 -123.897502,27.0175 -132.976252,28.8825c0,0 -4.98875,1.0125 -4.6875,3.02125" id="path102"/>
  <path fill="#fbd8b5" fill-rule="nonzero" d="m1238.201268,534.821236c-1.9575,0.705 -1.99375,3.1325 -1.81,4.615c-0.34125,-1.49 -1.29125,-3.99125 -3.78125,-3.35875c-2.87125,0.72875 -2.50875,4.4925 -2.28875,5.80875l-0.03,0.0075c-0.35125,-1.20375 -1.51625,-4.35625 -3.93,-3.70625c-2.39625,0.645 -1.815,4.01125 -1.49875,5.2975c-0.415,-1.37625 -1.76,-4.90375 -4.63375,-4.00625c-2.15,0.6725 -0.3075,5.4625 -0.3075,5.4625c41.178751,86.117501 -29.96125,68.171251 -29.96125,68.171251l3.1425,22.36625c97.247501,4.4775 51.546251,-87.717501 48.387501,-96.430001c0,0 -1.10375,-5.01375 -3.28875,-4.2275" id="path104"/>
  <path fill="#f8f8f8" fill-rule="nonzero" d="m1189.960018,613.112487l3.1425,22.36625c3.96625,0.18375 7.67125,0.19 11.175,0.0625l-0.88125,-20.88c-7.4725,-0.04875 -13.43625,-1.54875 -13.43625,-1.54875" id="path106"/>
  <path fill="#4c3f3a" fill-rule="nonzero" d="m1266.850019,751.427489c-6.1375,-20.17375 -27.37125,12.14375 -27.37125,12.14375c0,0 5.9375,-27.045 -1.0675,-36.125001c-6.71,-8.69875 -23.27875,3.1525 -27.6625,6.13875l-180.173753,39.617501l7.03125,28.89625l-20.74,-2.43625c0,0 -15.13,31.975 0.95625,34.048751c16.08625,2.07375 5.3875,-21.435 5.3875,-21.435c0,0 15.34625,8.50625 26.43,5.26625c8.6425,-2.52625 1.7725,-27.4925 0.58625,-35.208751c118.386252,-7.23375 173.580003,-39.303751 175.217503,-40.540001c0,0 2.9575,29.11875 6.09375,43.643751c0,0 41.450001,-13.835 35.312501,-34.010001" id="path108"/>
  <path fill="#80b28d" fill-rule="nonzero" d="m1190.575018,613.254987c-0.1425,-0.03125 -0.26125,-0.05875 -0.355,-0.08l0,0c0.09375,0.02125 0.2125,0.04875 0.355,0.08l0,0" id="path110"/>
  <path fill="#eeeded" fill-rule="nonzero" d="m1199.462518,635.623737c-1.76,-0.00125 -3.565,-0.0325 -5.43375,-0.105l-3.80875,-22.34375c0.09375,0.02125 0.2125,0.04875 0.355,0.08l8.8875,22.36875" id="path112"/>
  <path fill="#fbd8b5" fill-rule="nonzero" d="m1189.957518,611.637487c0,0 -17.56,-217.831253 -172.812503,-116.606252c0,0 -45.933751,48.470001 -26.94125,157.775002c169.727503,2.7575 199.753753,-41.168751 199.753753,-41.168751" id="path114"/>
  <path fill="#4c3f3a" fill-rule="nonzero" d="m1135.185017,387.902483c0,0 111.505002,121.232502 -114.248752,136.236252l5.43125,42.130001c0,0 -21.23375,-14.94375 -23.09125,5.4275c-1.85375,20.36875 21.04625,9.44875 21.04625,9.44875c0,0 -12.27125,54.367501 -34.118751,71.661251c0,0 -93.742501,-169.863753 -12.45375,-179.850003c0,0 -2.025,-31.3275 39.945001,-53.623751c59.867501,-31.805 104.638752,45.587501 117.490002,-31.43" id="path116"/>
  <path fill="#4c3f3a" fill-rule="nonzero" d="m1139.960017,545.851236c1.51875,6.435 5.22875,11.07125 8.28375,10.36c3.05625,-0.7125 4.30375,-6.50875 2.7825,-12.94125c-1.52375,-6.43625 -5.23375,-11.07375 -8.285,-10.36125c-3.0575,0.71 -4.3,6.5075 -2.78125,12.9425" id="path118"/>
  <path fill="#4c3f3a" fill-rule="nonzero" d="m1054.690016,569.103736c1.51625,6.43375 5.22125,11.075 8.2825,10.36c3.04625,-0.71625 4.2975,-6.5125 2.77125,-12.945c-1.51625,-6.435 -5.22375,-11.0725 -8.28,-10.36c-3.05375,0.71375 -4.3,6.5075 -2.77375,12.945" id="path120"/>
  <path fill="#f8f8f8" fill-rule="nonzero" d="m1189.957518,611.637487l20.79125,121.947502c0,0 -72.028751,30.615 -180.173753,39.617501l-40.371251,-120.396252c0,0 136.892502,-5.87625 199.753753,-41.168751" id="path122"/>
  <path fill="#ec6180" fill-rule="nonzero" d="m1141.060017,573.341236c0,0 -37.562501,5.76625 -59.008751,17.32875c0,0 3.6075,30.79625 38.331251,21.6775c34.367501,-9.02625 20.6775,-39.006251 20.6775,-39.006251" id="path124"/>
  <path fill="#fbd8b5" fill-rule="nonzero" d="m856.228763,686.866238c0.2225,-0.01375 0.44,-0.03875 0.64375,-0.07625c-0.19875,0.01625 -0.41625,0.04125 -0.64375,0.07625" id="path126"/>
  <path fill="#f8f8f8" fill-rule="nonzero" d="m990.203765,652.806237c-5.0175,0.79125 -9.80625,1.57125 -14.45875,2.34375l5.42625,20.5175c11.0375,-1.40125 16.6075,-1.58375 16.6075,-1.58375l-7.575,-21.2775" id="path128"/>
  <path fill="#dfdfdd" fill-rule="nonzero" d="m1082.416266,735.084989l-21.83125,-19.07125l19.575,-19.1225c4.27375,0.37875 8.2825,0.55625 12.02125,0.55625c53.202501,0.00375 54.091251,-35.795001 54.091251,-35.795001l-9.39875,-9.0675l2.57125,-7.64375l17.36125,-5.39875l6.12625,7.5775l-4.42375,11.1275c0,0 2.57,65.625001 -76.092501,76.837501" id="path130"/>
  <path fill="#4c3f3a" fill-rule="nonzero" d="m1156.806267,639.542487l6.12625,7.5775l-4.42375,11.1275c0,0 2.57,59.690001 -76.092501,70.903751l-21.83125,-19.0725l19.575,-19.1225c65.083751,5.77 66.112501,-29.30375 66.112501,-29.30375l-9.39875,-9.0675l2.57125,-7.64375l17.36125,-5.39875" id="path132"/>
  <path fill="#dddddd" fill-rule="nonzero" d="m962.886264,828.34749c-1.84125,0 -3.455,-1.35 -3.73125,-3.22625c-0.305,-2.06375 1.12125,-3.98375 3.185,-4.28875c9.60375,-1.41375 19.59875,-2.4625 29.71,-3.10875c2.09875,-0.13 3.87875,1.44875 4.01125,3.52875c0.1325,2.08125 -1.4475,3.87875 -3.53,4.01125c-9.9025,0.635 -19.69125,1.6575 -29.08875,3.045c-0.1875,0.02625 -0.3725,0.03875 -0.55625,0.03875zm-57.327501,14.10375c-1.5525,0 -3.005,-0.96125 -3.5575,-2.505c-0.7025,-1.965 0.3225,-4.1275 2.2875,-4.83c9.21375,-3.28875 18.8675,-6.17375 28.6925,-8.57375c2.0325,-0.50125 4.0725,0.7475 4.56625,2.77375c0.495,2.02625 -0.74625,4.07 -2.7725,4.565c-9.575,2.33875 -18.9775,5.1475 -27.94625,8.35125c-0.42,0.1475 -0.84875,0.21875 -1.27,0.21875zm-52.976251,26.0075c-1.23875,0 -2.4525,-0.6075 -3.17625,-1.72625c-1.13125,-1.75125 -0.63,-4.09 1.1225,-5.22375c8.32625,-5.38375 17.1175,-10.35125 26.12875,-14.76375c1.87625,-0.90875 4.13875,-0.1425 5.05375,1.735c0.91625,1.87125 0.1425,4.13625 -1.73125,5.05375c-8.74375,4.27875 -17.2725,9.09625 -25.35,14.32c-0.63375,0.41 -1.345,0.605 -2.0475,0.605zm-45.371251,37.781251c-0.93,0 -1.86375,-0.34125 -2.5925,-1.0325c-1.51625,-1.43375 -1.58375,-3.82375 -0.15,-5.33875c6.895,-7.29375 14.25625,-14.215 21.87625,-20.565c1.6075,-1.335 3.98375,-1.11875 5.32125,0.485c1.335,1.60125 1.11875,3.98375 -0.48375,5.31875c-7.3925,6.16125 -14.53375,12.8725 -21.225,19.95c-0.7425,0.7875 -1.7425,1.1825 -2.74625,1.1825zm-35.575001,47.186251c-0.66,0 -1.33125,-0.1725 -1.93875,-0.53875c-1.79,-1.07125 -2.37,-3.39125 -1.29875,-5.18125c5.1925,-8.65875 10.81875,-17.035 16.72625,-24.8925c1.255,-1.6675 3.62375,-2.0025 5.29,-0.75c1.6675,1.25375 2.0025,3.6225 0.75,5.29c-5.75125,7.6475 -11.22875,15.80375 -16.285,24.23875c-0.70875,1.18 -1.96,1.83375 -3.24375,1.83375zm-25.48875,53.388751c-0.43875,0 -0.88375,-0.07625 -1.3175,-0.23875c-1.955,-0.7275 -2.95,-2.90125 -2.2225,-4.85625c3.5175,-9.44375 7.4375,-18.725 11.6525,-27.58875c0.89625,-1.88375 3.14875,-2.68 5.0325,-1.7875c1.885,0.895 2.685,3.15 1.78875,5.03375c-4.12,8.66375 -7.95375,17.74125 -11.39375,26.97875c-0.56625,1.52 -2.0075,2.45875 -3.54,2.45875zm-16.12875,56.981251c-0.24625,0 -0.495,-0.02125 -0.745,-0.07375c-2.045,-0.4075 -3.37125,-2.4 -2.9625,-4.44375c1.955,-9.7725 4.31375,-19.56375 7.01,-29.1025c0.5675,-2.0075 2.65,-3.1825 4.6625,-2.6075c2.0075,0.56875 3.175,2.65375 2.6075,4.6625c-2.6425,9.35125 -4.955,18.94875 -6.8725,28.52875c-0.35875,1.795 -1.93625,3.03625 -3.7,3.03625" id="path134"/>
 </g>
</svg>