<svg width="825" height="825" xmlns="http://www.w3.org/2000/svg">
 <metadata id="metadata8">image/svg+xml</metadata>

 <g>
  <title>background</title>
  <rect fill="none" id="canvas_background" height="827" width="827" y="-1" x="-1"/>
 </g>
 <g>
  <title>Layer 1</title>
  <g id="svg_26">
   <path fill="#dddddd" fill-rule="nonzero" d="m403.253683,190.359237c-125.821252,0 -227.820003,101.998752 -227.820003,227.818753c0,125.821252 101.998752,227.820003 227.820003,227.820003c125.820002,0 227.818753,-101.998752 227.818753,-227.820003c0,-125.820002 -101.998752,-227.818753 -227.818753,-227.818753" id="path16"/>
   <path fill="#dddddd" fill-rule="nonzero" d="m578.866186,193.340487c0.26375,0.205 0.575,0.305 0.88375,0.305c0.42875,0 0.85125,-0.18875 1.13375,-0.5525c0.48875,-0.625 0.3775,-1.5275 -0.24625,-2.01625c-4.56125,-3.565 -9.28375,-7.035 -14.0325,-10.30875c-0.65375,-0.45125 -1.54875,-0.28625 -1.99875,0.3675c-0.45,0.6525 -0.28625,1.5475 0.3675,1.9975c4.7025,3.2425 9.3775,6.6775 13.8925,10.2075" id="path18"/>
   <path fill="#dddddd" fill-rule="nonzero" d="m604.677436,216.156738c0.28,0.28 0.64625,0.42 1.01375,0.42c0.36875,0 0.7375,-0.14125 1.0175,-0.4225c0.56,-0.5625 0.55875,-1.4725 -0.0025,-2.0325c-4.08875,-4.07625 -8.35875,-8.085 -12.68875,-11.9125c-0.59375,-0.52375 -1.50125,-0.46875 -2.0275,0.125c-0.52625,0.595 -0.47,1.5025 0.125,2.0275c4.2875,3.79 8.51375,7.75875 12.5625,11.795" id="path20"/>
   <path fill="#dddddd" fill-rule="nonzero" d="m627.562437,241.891738c0.2825,0.36 0.705,0.54875 1.13,0.54875c0.31125,0 0.625,-0.1 0.8875,-0.30875c0.62375,-0.49 0.73125,-1.39375 0.24125,-2.0175c-3.57125,-4.535 -7.3275,-9.02375 -11.16625,-13.34125c-0.5275,-0.59375 -1.435,-0.645 -2.0275,-0.11875c-0.59375,0.5275 -0.64625,1.435 -0.11875,2.02875c3.80125,4.27375 7.51875,8.7175 11.05375,13.20875" id="path22"/>
   <path fill="#dddddd" fill-rule="nonzero" d="m647.184937,270.172988c0.27125,0.44375 0.74375,0.69 1.22875,0.69c0.25375,0 0.5125,-0.0675 0.745,-0.20875c0.67875,-0.4125 0.89375,-1.2975 0.48125,-1.975c-2.99875,-4.93 -6.1875,-9.835 -9.47875,-14.57875c-0.45375,-0.6525 -1.3475,-0.815 -2,-0.36125c-0.65125,0.4525 -0.81375,1.3475 -0.36,2c3.2575,4.695 6.41625,9.55125 9.38375,14.43375" id="path24"/>
   <path fill="#dddddd" fill-rule="nonzero" d="m687.982437,400.34799c0.04625,0.7625 0.67875,1.34875 1.4325,1.34875c0.03,0 0.06,-0.00125 0.09,-0.0025c0.7925,-0.05 1.395,-0.73125 1.345,-1.5225c-0.35625,-5.7775 -0.8925,-11.6075 -1.59125,-17.32625c-0.095,-0.7875 -0.81375,-1.355 -1.59875,-1.2525c-0.78875,0.09625 -1.34875,0.8125 -1.2525,1.6c0.6925,5.66375 1.22125,11.435 1.575,17.155" id="path26"/>
   <path fill="#dddddd" fill-rule="nonzero" d="m369.027433,701.426745c-5.67125,-0.6775 -11.40375,-1.54 -17.035,-2.56125c-0.77625,-0.13625 -1.52875,0.37875 -1.67,1.1575c-0.1425,0.78125 0.37625,1.53 1.1575,1.67125c5.6875,1.03 11.4775,1.90125 17.2075,2.58625c0.0575,0.0075 0.115,0.01 0.1725,0.01c0.71625,0 1.33625,-0.53625 1.42375,-1.26625c0.095,-0.7875 -0.4675,-1.50375 -1.25625,-1.5975" id="path28"/>
   <path fill="#dddddd" fill-rule="nonzero" d="m534.856185,163.379237c-0.37,0.7025 -0.0975,1.57125 0.60625,1.93875c5.06375,2.655 10.12,5.50125 15.0275,8.46375c0.23125,0.14 0.4875,0.20625 0.74,0.20625c0.4875,0 0.96125,-0.24625 1.2325,-0.69375c0.41,-0.68 0.19125,-1.5625 -0.48875,-1.9725c-4.955,-2.9925 -10.0625,-5.8675 -15.17875,-8.54875c-0.7,-0.37 -1.57125,-0.0975 -1.93875,0.60625" id="path30"/>
   <path fill="#dddddd" fill-rule="nonzero" d="m335.144932,695.276745c-5.55625,-1.36125 -11.14125,-2.91 -16.6,-4.605c-0.75375,-0.23125 -1.5625,0.18625 -1.79875,0.945c-0.235,0.76 0.18875,1.56375 0.94625,1.79875c5.515,1.7125 11.15625,3.27625 16.76875,4.65375c0.11375,0.0275 0.23,0.04 0.3425,0.04c0.64625,0 1.23375,-0.43875 1.395,-1.09375c0.18875,-0.7725 -0.28375,-1.55 -1.05375,-1.73875" id="path32"/>
   <path fill="#dddddd" fill-rule="nonzero" d="m503.996185,151.197987c5.36625,2.025 10.73125,4.24 15.95,6.5825c0.19125,0.08625 0.39,0.12625 0.58625,0.12625c0.54875,0 1.07375,-0.31625 1.3125,-0.84875c0.325,-0.72375 0.00125,-1.57375 -0.7225,-1.89875c-5.27125,-2.36625 -10.69125,-4.60375 -16.11,-6.65c-0.74375,-0.2825 -1.57125,0.095 -1.8525,0.83625c-0.28,0.7425 0.095,1.57125 0.83625,1.8525" id="path34"/>
   <path fill="#dddddd" fill-rule="nonzero" d="m332.808682,140.176736c0.16125,0.65375 0.7475,1.0925 1.3925,1.0925c0.115,0 0.23,-0.01375 0.3475,-0.0425c5.54375,-1.37 11.20875,-2.59 16.83875,-3.62375c0.78125,-0.14375 1.2975,-0.8925 1.15375,-1.6725c-0.1425,-0.77875 -0.88625,-1.29625 -1.6725,-1.15375c-5.6875,1.045 -11.41,2.275 -17.01125,3.66c-0.76875,0.19 -1.24,0.97 -1.04875,1.74" id="path36"/>
   <path fill="#dddddd" fill-rule="nonzero" d="m403.407433,703.457995l-0.15375,0c-5.68125,0 -11.42375,-0.17 -17.06625,-0.5025c-0.78875,-0.04625 -1.4725,0.5575 -1.51875,1.35c-0.0475,0.79125 0.5575,1.4725 1.34875,1.51875c5.69875,0.33625 11.49875,0.5075 17.23625,0.5075l0.15375,0c0.7925,0 1.43625,-0.6425 1.43625,-1.43625c0,-0.795 -0.64375,-1.4375 -1.43625,-1.4375" id="path38"/>
   <path fill="#dddddd" fill-rule="nonzero" d="m301.169932,151.605487c0.17,0 0.3425,-0.03 0.51125,-0.095c5.34,-2.035 10.81625,-3.93375 16.2775,-5.6425c0.7575,-0.23625 1.17875,-1.0425 0.94125,-1.8c-0.23625,-0.75875 -1.0425,-1.175 -1.8,-0.9425c-5.51625,1.72625 -11.0475,3.64375 -16.44125,5.7c-0.7425,0.2825 -1.115,1.1125 -0.83125,1.85375c0.21875,0.57375 0.76375,0.92625 1.3425,0.92625" id="path40"/>
   <path fill="#dddddd" fill-rule="nonzero" d="m402.792433,132.899236l0.46125,0c5.58125,0 11.22125,0.1625 16.7625,0.485c0.02875,0.00125 0.05625,0.00125 0.085,0.00125c0.75375,0 1.38875,-0.59 1.4325,-1.3525c0.04625,-0.7925 -0.55875,-1.4725 -1.35125,-1.51875c-5.59625,-0.32375 -11.29125,-0.48875 -16.935,-0.48875l-0.455,0.00125c-0.7925,0 -1.43625,0.6425 -1.43625,1.43625c0,0.79375 0.64375,1.43625 1.43625,1.43625" id="path42"/>
   <path fill="#dddddd" fill-rule="nonzero" d="m471.064934,141.009237c5.5525,1.35375 11.14,2.89625 16.605,4.5875c0.14125,0.04375 0.285,0.065 0.425,0.065c0.61375,0 1.18125,-0.39625 1.3725,-1.01375c0.23375,-0.75875 -0.19,-1.5625 -0.9475,-1.7975c-5.5225,-1.7075 -11.16625,-3.26625 -16.7725,-4.63375c-0.7725,-0.1825 -1.55,0.2825 -1.7375,1.055c-0.1875,0.77125 0.285,1.54875 1.055,1.7375" id="path44"/>
   <path fill="#dddddd" fill-rule="nonzero" d="m437.178684,134.895486c4.515,0.535 9.05125,1.215 13.5525,1.96875l0,7.16l-12.69375,0c-0.72,0 -1.30375,0.5825 -1.30375,1.3025c0,0.72 0.58375,1.3025 1.30375,1.3025l12.69375,0l0,12.695c0,0.72125 0.5825,1.30375 1.3025,1.30375c0.72,0 1.30375,-0.5825 1.30375,-1.30375l0,-12.695l12.695,0c0.72,0 1.3025,-0.5825 1.3025,-1.3025c0,-0.72 -0.5825,-1.3025 -1.3025,-1.3025l-12.695,0l0,-6.73125c0.29,0.05125 0.5875,0.0925 0.8775,0.145c0.0875,0.01625 0.1725,0.0225 0.25625,0.0225c0.6825,0 1.2875,-0.48625 1.41375,-1.18125c0.14,-0.78125 -0.37875,-1.52875 -1.15875,-1.66875c-0.46,-0.08375 -0.92875,-0.14875 -1.38875,-0.22875l0,-3.05375c0,-0.72 -0.58375,-1.3025 -1.30375,-1.3025c-0.72,0 -1.3025,0.5825 -1.3025,1.3025l0,2.62375c-4.3925,-0.7275 -8.8125,-1.38875 -13.21625,-1.91125c-0.77875,-0.08625 -1.50125,0.47125 -1.595,1.25875c-0.0925,0.7875 0.47,1.5025 1.25875,1.59625" id="path46"/>
   <path fill="#dddddd" fill-rule="nonzero" d="m368.242433,135.015486c0.0575,0 0.11625,-0.00375 0.17625,-0.01125c5.65875,-0.68875 11.43,-1.21625 17.155,-1.5675c0.79125,-0.0475 1.39375,-0.72875 1.34625,-1.52125c-0.04875,-0.7925 -0.73125,-1.39625 -1.5225,-1.34625c-5.78125,0.35375 -11.61125,0.88625 -17.3275,1.5825c-0.78625,0.09625 -1.3475,0.8125 -1.2525,1.6c0.09,0.72875 0.70875,1.26375 1.425,1.26375" id="path48"/>
   <path fill="#dddddd" fill-rule="nonzero" d="m671.926187,518.515492c-0.73625,-0.28375 -1.57125,0.09125 -1.8525,0.83375c-2.03375,5.36 -4.2575,10.7225 -6.61,15.9375c-0.325,0.725 -0.0025,1.575 0.72,1.90125c0.1925,0.08625 0.3925,0.12625 0.59,0.12625c0.5475,0 1.07125,-0.31375 1.31125,-0.84625c2.37375,-5.2675 4.62125,-10.68625 6.675,-16.1c0.2825,-0.74125 -0.09125,-1.57125 -0.83375,-1.8525" id="path50"/>
   <path fill="#dddddd" fill-rule="nonzero" d="m682.052437,485.382992c-0.76625,-0.1875 -1.54875,0.2825 -1.73625,1.0525c-1.36625,5.55375 -2.9175,11.13875 -4.615,16.59625c-0.23625,0.7575 0.1875,1.56375 0.945,1.79875c0.1425,0.04375 0.28625,0.065 0.42625,0.065c0.61375,0 1.18,-0.39375 1.3725,-1.01c1.715,-5.515 3.28375,-11.15375 4.66,-16.765c0.19,-0.77 -0.2825,-1.54875 -1.0525,-1.7375" id="path52"/>
   <path fill="#dddddd" fill-rule="nonzero" d="m676.888687,333.747989c0.1425,0 0.28625,-0.02125 0.43,-0.06625c0.7575,-0.2375 1.17875,-1.04375 0.94125,-1.8c-1.72375,-5.50375 -3.645,-11.035 -5.7075,-16.44125c-0.28375,-0.74125 -1.11875,-1.1125 -1.855,-0.82875c-0.7425,0.2825 -1.1125,1.11375 -0.83125,1.85375c2.04375,5.3525 3.945,10.8275 5.6525,16.275c0.19125,0.61375 0.75875,1.0075 1.37,1.0075" id="path54"/>
   <path fill="#dddddd" fill-rule="nonzero" d="m664.558687,301.436739c0.1975,0 0.39875,-0.04125 0.5925,-0.12875c0.7225,-0.3275 1.0425,-1.17875 0.715,-1.9025c-2.38125,-5.25625 -4.955,-10.50625 -7.64875,-15.60625c-0.36875,-0.7 -1.23875,-0.97 -1.94,-0.59875c-0.70125,0.37 -0.97125,1.24 -0.6,1.94125c2.66625,5.04875 5.21375,10.2475 7.57,15.45c0.24125,0.53 0.76375,0.845 1.31125,0.845" id="path56"/>
   <path fill="#dddddd" fill-rule="nonzero" d="m657.841187,550.189243c-0.70125,-0.36875 -1.57,-0.09875 -1.94,0.6025c-2.66125,5.0625 -5.5175,10.11375 -8.4875,15.0125c-0.41125,0.67875 -0.19375,1.5625 0.48375,1.97375c0.23375,0.14 0.49,0.2075 0.74375,0.2075c0.485,0 0.96,-0.24625 1.23125,-0.69125c2.9975,-4.94875 5.8825,-10.05125 8.57125,-15.16375c0.37,-0.7025 0.1,-1.57125 -0.6025,-1.94125" id="path58"/>
   <path fill="#dddddd" fill-rule="nonzero" d="m689.968687,416.131741c-0.79375,0 -1.43625,0.6425 -1.43625,1.43625l0,0.61c0,5.74125 -0.1725,11.53375 -0.5125,17.21875c-0.0475,0.7925 0.55625,1.4725 1.34875,1.52c0.03,0.00125 0.0575,0.0025 0.0875,0.0025c0.755,0 1.3875,-0.5875 1.4325,-1.35125c0.34375,-5.74125 0.5175,-11.5925 0.5175,-17.39l0,-0.61c0,-0.79375 -0.6425,-1.43625 -1.4375,-1.43625" id="path60"/>
   <path fill="#dddddd" fill-rule="nonzero" d="m685.214937,367.34174c0.08625,0 0.175,-0.0075 0.2625,-0.02375c0.78,-0.14375 1.29625,-0.8925 1.1525,-1.6725c-1.0475,-5.68375 -2.28375,-11.40625 -3.67125,-17.00875c-0.19125,-0.7725 -0.97875,-1.2425 -1.74,-1.05c-0.77,0.19125 -1.24,0.97 -1.04875,1.74125c1.375,5.54625 2.5975,11.2125 3.63375,16.8375c0.1275,0.6925 0.73125,1.17625 1.41125,1.17625" id="path62"/>
   <path fill="#dddddd" fill-rule="nonzero" d="m688.081187,451.300491c-0.78875,-0.09625 -1.50375,0.46875 -1.59875,1.255c-0.68,5.67125 -1.545,11.4025 -2.56875,17.03375c-0.1425,0.78125 0.37625,1.52875 1.1575,1.67125c0.08625,0.015 0.1725,0.0225 0.2575,0.0225c0.6825,0 1.2875,-0.48625 1.41375,-1.18c1.0325,-5.6875 1.905,-11.47625 2.59375,-17.205c0.09375,-0.7875 -0.4675,-1.50375 -1.255,-1.5975" id="path64"/>
   <path fill="#dddddd" fill-rule="nonzero" d="m592.409936,631.735494c-4.2925,3.8025 -8.74375,7.515 -13.22875,11.0325c-0.625,0.49 -0.735,1.39375 -0.245,2.01875c0.28375,0.36 0.70625,0.55 1.1325,0.55c0.31,0 0.62125,-0.1 0.885,-0.30625c4.53125,-3.55375 9.0275,-7.30375 13.36125,-11.145c0.59375,-0.52625 0.64875,-1.43375 0.1225,-2.0275c-0.53,-0.5975 -1.43625,-0.64875 -2.0275,-0.1225" id="path66"/>
   <path fill="#dddddd" fill-rule="nonzero" d="m504.541185,684.955495c-5.34,2.0275 -10.82,3.92 -16.28375,5.62375c-0.7575,0.23625 -1.18,1.0425 -0.94375,1.8c0.1925,0.615 0.75875,1.00875 1.3725,1.00875c0.14125,0 0.28375,-0.02125 0.4275,-0.065c5.51875,-1.72125 11.0525,-3.6325 16.44875,-5.6825c0.74125,-0.28 1.11375,-1.11125 0.8325,-1.85375c-0.28125,-0.7425 -1.11,-1.11375 -1.85375,-0.83125" id="path68"/>
   <path fill="#dddddd" fill-rule="nonzero" d="m638.038687,580.274243c-3.2475,4.695 -6.69,9.365 -10.23,13.87625c-0.48875,0.62375 -0.38,1.5275 0.245,2.0175c0.2625,0.20625 0.575,0.305 0.885,0.305c0.42625,0 0.84875,-0.1875 1.1325,-0.55c3.575,-4.555 7.05,-9.27125 10.33125,-14.01375c0.45125,-0.65375 0.28875,-1.5475 -0.365,-2c-0.65125,-0.4525 -1.54625,-0.28875 -1.99875,0.365" id="path70"/>
   <path fill="#dddddd" fill-rule="nonzero" d="m471.662434,695.202995c-5.535,1.3625 -11.2025,2.57625 -16.8425,3.6075c-0.78,0.1425 -1.2975,0.89125 -1.155,1.67125c0.12625,0.69375 0.73125,1.17875 1.41125,1.17875c0.08625,0 0.1725,-0.00625 0.26,-0.02375c5.6975,-1.04125 11.4225,-2.2675 17.01375,-3.64375c0.77125,-0.19 1.24125,-0.96875 1.05125,-1.73875c-0.18875,-0.77 -0.96875,-1.24375 -1.73875,-1.05125" id="path72"/>
   <path fill="#dddddd" fill-rule="nonzero" d="m521.607435,680.981745c5.25625,-2.37 10.51125,-4.935 15.61875,-7.6225c0.70125,-0.36875 0.97125,-1.2375 0.60125,-1.94c-0.36875,-0.70125 -1.24,-0.97 -1.94,-0.6025c-5.05625,2.66 -10.25875,5.19875 -15.46125,7.54625c-0.72375,0.32625 -1.045,1.1775 -0.71875,1.9c0.23875,0.53125 0.7625,0.84625 1.31,0.84625c0.1975,0 0.3975,-0.04125 0.59,-0.1275" id="path74"/>
   <path fill="#dddddd" fill-rule="nonzero" d="m616.767436,607.381743c-3.795,4.27875 -7.77,8.5 -11.815,12.545c-0.56125,0.56125 -0.56125,1.47125 0,2.0325c0.28,0.28 0.6475,0.42 1.015,0.42c0.3675,0 0.73625,-0.14 1.01625,-0.42c4.08625,-4.08625 8.1,-8.34875 11.93375,-12.67c0.52625,-0.59375 0.4725,-1.5025 -0.1225,-2.02875c-0.59125,-0.52625 -1.5025,-0.47375 -2.0275,0.12125" id="path76"/>
   <path fill="#dddddd" fill-rule="nonzero" d="m437.787434,701.387995c-5.67125,0.685 -11.44375,1.20625 -17.155,1.55c-0.7925,0.0475 -1.39625,0.7275 -1.34875,1.51875c0.045,0.76375 0.68,1.35125 1.4325,1.35125c0.03,0 0.0575,-0.00125 0.0875,-0.0025c5.77,-0.34625 11.59875,-0.8725 17.32875,-1.5625c0.7875,-0.09625 1.34875,-0.81125 1.25375,-1.6c-0.095,-0.78625 -0.8025,-1.34125 -1.59875,-1.255" id="path78"/>
   <path fill="#dddddd" fill-rule="nonzero" d="m567.317436,653.349244c-0.45375,-0.6525 -1.3475,-0.81625 -2,-0.36375c-4.68875,3.245 -9.55125,6.395 -14.4475,9.3625c-0.6775,0.41125 -0.895,1.295 -0.48375,1.97375c0.27,0.44625 0.745,0.6925 1.23,0.6925c0.25375,0 0.51125,-0.0675 0.74375,-0.20875c4.94625,-2.9975 9.855,-6.17875 14.59375,-9.45625c0.6525,-0.4525 0.815,-1.34625 0.36375,-2" id="path80"/>
   <path fill="#dddddd" fill-rule="nonzero" d="m134.473679,318.129239c0.16625,0.0625 0.33875,0.0925 0.5075,0.0925c0.58,0 1.12625,-0.35375 1.34375,-0.92875c2.02625,-5.35625 4.24375,-10.72125 6.5925,-15.9475c0.325,-0.7225 0.00125,-1.57375 -0.72125,-1.89875c-0.725,-0.325 -1.575,-0.00375 -1.9,0.7225c-2.3725,5.2775 -4.6125,10.69625 -6.65875,16.1075c-0.28125,0.7425 0.09375,1.57125 0.83625,1.8525" id="path82"/>
   <path fill="#dddddd" fill-rule="nonzero" d="m118.391179,385.36299c0.0575,0.00625 0.115,0.01 0.17125,0.01c0.71875,0 1.33875,-0.5375 1.42625,-1.2675c0.67625,-5.685 1.535,-11.41625 2.55125,-17.03625c0.14125,-0.78125 -0.37625,-1.52875 -1.1575,-1.67c-0.78625,-0.14375 -1.52875,0.3775 -1.67,1.1575c-1.0275,5.6775 -1.895,11.46625 -2.57875,17.20875c-0.0925,0.78875 0.47,1.5025 1.2575,1.5975" id="path84"/>
   <path fill="#dddddd" fill-rule="nonzero" d="m124.381179,351.27299c0.115,0.0275 0.23,0.04125 0.3425,0.04125c0.64625,0 1.23375,-0.43875 1.39375,-1.09625c1.35875,-5.55625 2.905,-11.14125 4.5975,-16.60125c0.235,-0.7575 -0.18875,-1.5625 -0.9475,-1.7975c-0.7575,-0.23625 -1.5625,0.18875 -1.79625,0.9475c-1.71,5.515 -3.2725,11.15625 -4.64375,16.77c-0.18875,0.77125 0.2825,1.5475 1.05375,1.73625" id="path86"/>
   <path fill="#dddddd" fill-rule="nonzero" d="m240.464931,655.669244c0.45625,0 0.905,-0.21625 1.18375,-0.62c0.45,-0.6525 0.2875,-1.54875 -0.36625,-2c-4.69875,-3.245 -9.37,-6.685 -13.88125,-10.22c-0.62375,-0.48875 -1.5275,-0.37875 -2.0175,0.24375c-0.49,0.62625 -0.38,1.5275 0.245,2.0175c4.55625,3.57125 9.27375,7.04375 14.02125,10.3225c0.24875,0.17375 0.53375,0.25625 0.815,0.25625" id="path88"/>
   <path fill="#dddddd" fill-rule="nonzero" d="m122.651179,469.894241c-0.1425,-0.78 -0.88625,-1.2925 -1.6725,-1.155c-0.78125,0.14375 -1.2975,0.89125 -1.155,1.6725c1.04,5.6825 2.26875,11.405 3.6525,17.01375c0.16125,0.65375 0.7475,1.09125 1.3925,1.09125c0.115,0 0.23,-0.0125 0.34625,-0.04125c0.77,-0.19 1.24,-0.96875 1.05,-1.73875c-1.36875,-5.55125 -2.585,-11.2175 -3.61375,-16.8425" id="path90"/>
   <path fill="#dddddd" fill-rule="nonzero" d="m117.973679,418.485491l0,-0.3075c0,-5.62125 0.16625,-11.31125 0.49375,-16.915c0.045,-0.79125 -0.55875,-1.47125 -1.35125,-1.5175c-0.78625,-0.05125 -1.4725,0.55875 -1.51875,1.35125c-0.33,5.6575 -0.4975,11.405 -0.4975,17.08125l0,0.3075c0,0.7925 0.64375,1.43625 1.4375,1.43625c0.79375,0 1.43625,-0.64375 1.43625,-1.43625" id="path92"/>
   <path fill="#dddddd" fill-rule="nonzero" d="m167.35368,582.624243c0.2825,0 0.5675,-0.0825 0.81625,-0.255c0.6525,-0.45125 0.81625,-1.3475 0.36375,-2c-3.25375,-4.69875 -6.40625,-9.5575 -9.36875,-14.44125c-0.41125,-0.68 -1.29375,-0.89375 -1.97375,-0.48375c-0.67875,0.41125 -0.895,1.295 -0.48375,1.97375c2.9925,4.9325 6.1775,9.84125 9.46375,14.5875c0.27875,0.4025 0.72625,0.61875 1.1825,0.61875" id="path94"/>
   <path fill="#dddddd" fill-rule="nonzero" d="m201.61368,619.984244c-0.56,-0.56125 -1.47125,-0.56125 -2.0325,0c-0.56,0.56125 -0.56,1.4725 0.00125,2.03125c4.0925,4.09125 8.3575,8.10375 12.67625,11.92875c0.27375,0.24125 0.6125,0.36 0.95125,0.36c0.3975,0 0.7925,-0.16375 1.07625,-0.48375c0.52625,-0.59375 0.47125,-1.5025 -0.1225,-2.02875c-4.275,-3.785 -8.4975,-7.75875 -12.55,-11.8075" id="path96"/>
   <path fill="#dddddd" fill-rule="nonzero" d="m130.898679,503.327992c-0.2375,-0.75875 -1.04125,-1.17875 -1.80125,-0.9425c-0.75625,0.235 -1.17875,1.04125 -0.9425,1.79875c1.72375,5.515 3.6375,11.05 5.69125,16.44625c0.21875,0.57375 0.76375,0.92625 1.3425,0.92625c0.17,0 0.34375,-0.03 0.51125,-0.095c0.74125,-0.28125 1.11375,-1.1125 0.8325,-1.85375c-2.03375,-5.3425 -3.92875,-10.82 -5.63375,-16.28" id="path98"/>
   <path fill="#dddddd" fill-rule="nonzero" d="m118.503679,435.706741c-0.0475,-0.7925 -0.73625,-1.40375 -1.52125,-1.34625c-0.79125,0.0475 -1.395,0.72875 -1.34625,1.52c0.35,5.77375 0.87875,11.6025 1.5725,17.3275c0.08875,0.73 0.7075,1.265 1.425,1.265c0.0575,0 0.115,-0.00375 0.17375,-0.01125c0.7875,-0.095 1.34875,-0.81125 1.25375,-1.59875c-0.68625,-5.6675 -1.21125,-11.44 -1.5575,-17.15625" id="path100"/>
   <path fill="#dddddd" fill-rule="nonzero" d="m148.522429,286.440489c0.2125,0.1125 0.4425,0.165 0.66625,0.165c0.5175,0 1.01625,-0.28 1.27375,-0.77c2.65625,-5.06375 5.5075,-10.1175 8.47125,-15.02125c0.41,-0.68 0.1925,-1.5625 -0.4875,-1.97375c-0.67875,-0.40875 -1.56125,-0.19125 -1.9725,0.4875c-2.99375,4.9525 -5.8725,10.0575 -8.55625,15.17375c-0.36875,0.70125 -0.0975,1.57 0.605,1.93875" id="path102"/>
   <path fill="#dddddd" fill-rule="nonzero" d="m302.223682,685.051745c-5.35625,-2.0275 -10.72,-4.2475 -15.94125,-6.59875c-0.725,-0.3225 -1.57375,-0.0025 -1.9,0.72125c-0.32625,0.7225 -0.00375,1.57375 0.72,1.9c5.275,2.37375 10.69375,4.6175 16.105,6.66625c0.1675,0.0625 0.33875,0.0925 0.50875,0.0925c0.57875,0 1.125,-0.35375 1.3425,-0.9275c0.28125,-0.7425 -0.0925,-1.57125 -0.835,-1.85375" id="path104"/>
   <path fill="#dddddd" fill-rule="nonzero" d="m178.75743,594.225493c-0.49125,-0.625 -1.39375,-0.735 -2.0175,-0.2425c-0.62375,0.49 -0.7325,1.39375 -0.2425,2.01625c3.56125,4.5375 7.31375,9.03125 11.15,13.355c0.285,0.32 0.67875,0.4825 1.07625,0.4825c0.33875,0 0.67875,-0.11875 0.9525,-0.36125c0.59375,-0.52625 0.64875,-1.43625 0.12125,-2.03c-3.79875,-4.28 -7.51375,-8.72875 -11.04,-13.22" id="path106"/>
   <path fill="#dddddd" fill-rule="nonzero" d="m167.10993,256.954238c0.4575,0 0.905,-0.21625 1.18375,-0.62125c3.2525,-4.71125 6.69,-9.38375 10.215,-13.88625c0.49,-0.625 0.38,-1.5275 -0.245,-2.01625c-0.62375,-0.49125 -1.5275,-0.38 -2.01625,0.245c-3.56125,4.5475 -7.03375,9.26625 -10.31875,14.02625c-0.45,0.6525 -0.28625,1.5475 0.3675,1.9975c0.24875,0.1725 0.5325,0.255 0.81375,0.255" id="path108"/>
   <path fill="#dddddd" fill-rule="nonzero" d="m188.46118,229.687988c0.3975,0 0.7925,-0.16375 1.07625,-0.485c3.79,-4.2825 7.76125,-8.5075 11.8025,-12.555c0.56,-0.5625 0.55875,-1.4725 -0.0025,-2.0325c-0.5625,-0.56125 -1.4725,-0.56 -2.0325,0.0025c-4.08125,4.08875 -8.09125,8.355 -11.92,12.68125c-0.525,0.59375 -0.47,1.50125 0.125,2.0275c0.2725,0.2425 0.6125,0.36125 0.95125,0.36125" id="path110"/>
   <path fill="#dddddd" fill-rule="nonzero" d="m269.438681,673.441744c0.21375,0.11125 0.44125,0.165 0.6675,0.165c0.51625,0 1.01625,-0.28 1.2725,-0.76875c0.37,-0.70375 0.1,-1.57125 -0.60375,-1.94125c-5.06,-2.65625 -10.1125,-5.50875 -15.0175,-8.4775c-0.6775,-0.41 -1.56125,-0.19375 -1.9725,0.48625c-0.41125,0.67875 -0.19375,1.56125 0.485,1.9725c4.955,2.99875 10.05875,5.88 15.16875,8.56375" id="path112"/>
   <path fill="#dddddd" fill-rule="nonzero" d="m211.96243,202.675487c-0.59375,0.5275 -0.6475,1.435 -0.12,2.02875c0.28375,0.32 0.67875,0.4825 1.075,0.4825c0.33875,0 0.67875,-0.12 0.9525,-0.3625c4.2775,-3.8 8.72375,-7.5175 13.21625,-11.0475c0.62375,-0.49 0.73125,-1.39375 0.24125,-2.0175c-0.49125,-0.62375 -1.39375,-0.73125 -2.0175,-0.24125c-4.5375,3.565 -9.0275,7.31875 -13.3475,11.1575" id="path114"/>
   <path fill="#dddddd" fill-rule="nonzero" d="m149.416179,553.054243c0.22625,0 0.455,-0.05375 0.66875,-0.16625c0.7025,-0.37 0.97125,-1.23875 0.60125,-1.94c-2.6625,-5.05625 -5.20375,-10.25625 -7.55375,-15.45875c-0.3275,-0.7225 -1.18,-1.045 -1.90125,-0.7175c-0.7225,0.3275 -1.04375,1.1775 -0.7175,1.90125c2.37375,5.25375 4.94125,10.5075 7.63,15.61375c0.2575,0.4875 0.75625,0.7675 1.2725,0.7675" id="path116"/>
   <path fill="#dddddd" fill-rule="nonzero" d="m269.681181,165.849237c0.22625,0 0.455,-0.05375 0.67,-0.16625c5.05,-2.66375 10.24875,-5.21 15.4525,-7.56375c0.72375,-0.32625 1.04375,-1.17875 0.7175,-1.90125c-0.3275,-0.7225 -1.1775,-1.04375 -1.90125,-0.71625c-5.25625,2.3775 -10.50875,4.9475 -15.61125,7.64c-0.70125,0.37 -0.97,1.23875 -0.59875,1.94c0.2575,0.48875 0.755,0.7675 1.27125,0.7675" id="path118"/>
   <path fill="#dddddd" fill-rule="nonzero" d="m240.121181,183.801737c0.28125,0 0.5675,-0.08375 0.8175,-0.25625c4.69125,-3.2525 9.54875,-6.4075 14.4375,-9.3775c0.67875,-0.41125 0.895,-1.29625 0.4825,-1.97375c-0.41125,-0.6775 -1.295,-0.8925 -1.97375,-0.48125c-4.9375,3 -9.845,6.18625 -14.58375,9.47125c-0.6525,0.45125 -0.815,1.34625 -0.3625,1.99875c0.27875,0.4025 0.72625,0.61875 1.1825,0.61875" id="path120"/>
   <path fill="#dddddd" fill-rule="nonzero" d="m549.347435,748.597996c-0.72125,0 -1.30375,0.58375 -1.30375,1.30375l0,11.8625c0,0.72 0.5825,1.3025 1.30375,1.3025c0.72,0 1.3025,-0.5825 1.3025,-1.3025l0,-11.8625c0,-0.72 -0.5825,-1.30375 -1.3025,-1.30375" id="path122"/>
   <path fill="#dddddd" fill-rule="nonzero" d="m531.452435,755.997996c-0.50875,-0.50875 -1.33375,-0.50875 -1.8425,0c-0.51,0.50875 -0.51,1.33375 0,1.8425l8.38875,8.3875c0.25375,0.255 0.5875,0.3825 0.92125,0.3825c0.3325,0 0.66625,-0.1275 0.92125,-0.3825c0.50875,-0.50875 0.50875,-1.33375 0,-1.8425l-8.38875,-8.3875" id="path124"/>
   <path fill="#dddddd" fill-rule="nonzero" d="m535.353685,775.186746c0,-0.72 -0.5825,-1.3025 -1.3025,-1.3025l-11.86375,0c-0.72,0 -1.3025,0.5825 -1.3025,1.3025c0,0.72125 0.5825,1.30375 1.3025,1.30375l11.86375,0c0.72,0 1.3025,-0.5825 1.3025,-1.30375" id="path126"/>
   <path fill="#dddddd" fill-rule="nonzero" d="m536.673685,784.692996l-8.38875,8.388875c-0.50875,0.50875 -0.50875,1.3335 0,1.84225c0.25375,0.254875 0.5875,0.38275 0.92125,0.38275c0.33375,0 0.66625,-0.127875 0.92125,-0.38275l8.38875,-8.388625c0.50875,-0.50875 0.50875,-1.33375 0,-1.8425c-0.50875,-0.50875 -1.33375,-0.50875 -1.8425,0" id="path128"/>
   <path fill="#dddddd" fill-rule="nonzero" d="m547.473685,789.180496c-0.72,0 -1.30375,0.5825 -1.30375,1.3025l0,11.861c0,0.72175 0.58375,1.30425 1.30375,1.30425c0.72,0 1.3025,-0.5825 1.3025,-1.30425l0,-11.861c0,-0.72 -0.5825,-1.3025 -1.3025,-1.3025" id="path130"/>
   <path fill="#dddddd" fill-rule="nonzero" d="m558.823685,786.017996c-0.50875,-0.50875 -1.33375,-0.50875 -1.8425,0c-0.50875,0.50875 -0.50875,1.33375 0,1.8425l8.3875,8.38875c0.25375,0.255 0.5875,0.381375 0.92125,0.381375c0.3325,0 0.66625,-0.126375 0.92125,-0.381375c0.50875,-0.50875 0.50875,-1.333875 0,-1.84275l-8.3875,-8.3885" id="path132"/>
   <path fill="#dddddd" fill-rule="nonzero" d="m574.632436,775.756746l-11.8625,0c-0.72,0 -1.30375,0.58375 -1.30375,1.30375c0,0.72 0.58375,1.3025 1.30375,1.3025l11.8625,0c0.72,0 1.30375,-0.5825 1.30375,-1.3025c0,-0.72 -0.58375,-1.30375 -1.30375,-1.30375" id="path134"/>
   <path fill="#dddddd" fill-rule="nonzero" d="m558.306185,765.710496c-0.51,0.50875 -0.51,1.33375 0,1.8425c0.25375,0.255 0.5875,0.3825 0.92125,0.3825c0.3325,0 0.66625,-0.1275 0.92125,-0.3825l8.3875,-8.3875c0.50875,-0.50875 0.50875,-1.33375 0,-1.8425c-0.51,-0.50875 -1.33375,-0.50875 -1.84375,0l-8.38625,8.3875" id="path136"/>
   <path fill="#dddddd" fill-rule="nonzero" d="m59.328678,161.119237c-0.72,0 -1.3025,0.5825 -1.3025,1.3025l0,11.8625c0,0.72 0.5825,1.30375 1.3025,1.30375c0.72,0 1.30375,-0.58375 1.30375,-1.30375l0,-11.8625c0,-0.72 -0.58375,-1.3025 -1.30375,-1.3025" id="path138"/>
   <path fill="#dddddd" fill-rule="nonzero" d="m41.433678,168.519237c-0.50875,-0.51 -1.3325,-0.51 -1.8425,0c-0.50875,0.50875 -0.50875,1.3325 0,1.8425l8.38875,8.3875c0.255,0.25375 0.58875,0.38125 0.92125,0.38125c0.33375,0 0.6675,-0.1275 0.92125,-0.38125c0.51,-0.51 0.51,-1.33375 0,-1.84375l-8.38875,-8.38625" id="path140"/>
   <path fill="#dddddd" fill-rule="nonzero" d="m32.169928,189.010487l11.8625,0c0.72,0 1.30375,-0.5825 1.30375,-1.3025c0,-0.72125 -0.58375,-1.30375 -1.30375,-1.30375l-11.8625,0c-0.72,0 -1.3025,0.5825 -1.3025,1.30375c0,0.72 0.5825,1.3025 1.3025,1.3025" id="path142"/>
   <path fill="#dddddd" fill-rule="nonzero" d="m46.654928,197.212987l-8.3875,8.38875c-0.51,0.50875 -0.51,1.33375 0,1.8425c0.25375,0.255 0.5875,0.3825 0.92125,0.3825c0.3325,0 0.66625,-0.1275 0.92125,-0.3825l8.38875,-8.38875c0.50875,-0.50875 0.50875,-1.3325 0,-1.8425c-0.51,-0.50875 -1.33375,-0.50875 -1.84375,0" id="path144"/>
   <path fill="#dddddd" fill-rule="nonzero" d="m57.454928,216.167988c0.72125,0 1.30375,-0.5825 1.30375,-1.3025l0,-11.8625c0,-0.72 -0.5825,-1.3025 -1.30375,-1.3025c-0.72,0 -1.3025,0.5825 -1.3025,1.3025l0,11.8625c0,0.72 0.5825,1.3025 1.3025,1.3025" id="path146"/>
   <path fill="#dddddd" fill-rule="nonzero" d="m68.804928,198.537987c-0.50875,-0.50875 -1.3325,-0.50875 -1.8425,0c-0.50875,0.50875 -0.50875,1.33375 0,1.8425l8.3875,8.38875c0.255,0.255 0.58875,0.3825 0.92125,0.3825c0.33375,0 0.6675,-0.1275 0.92125,-0.3825c0.51,-0.50875 0.51,-1.33375 0,-1.8425l-8.3875,-8.38875" id="path148"/>
   <path fill="#dddddd" fill-rule="nonzero" d="m84.614928,188.277987l-11.86375,0c-0.72,0 -1.3025,0.5825 -1.3025,1.3025c0,0.72 0.5825,1.30375 1.3025,1.30375l11.86375,0c0.72,0 1.3025,-0.58375 1.3025,-1.30375c0,-0.72 -0.5825,-1.3025 -1.3025,-1.3025" id="path150"/>
   <path fill="#dddddd" fill-rule="nonzero" d="m69.208678,180.455487c0.33375,0 0.6675,-0.1275 0.92125,-0.3825l8.3875,-8.3875c0.50875,-0.50875 0.50875,-1.33375 0,-1.8425c-0.50875,-0.50875 -1.33375,-0.50875 -1.8425,0l-8.3875,8.3875c-0.50875,0.50875 -0.50875,1.33375 0,1.8425c0.255,0.255 0.5875,0.3825 0.92125,0.3825" id="path152"/>
   <path fill="#dddddd" fill-rule="nonzero" d="m510.928685,50.116735c0.72,0 1.30375,-0.58375 1.30375,-1.30375l0,-11.8625c0,-0.72 -0.58375,-1.30375 -1.30375,-1.30375c-0.72,0 -1.3025,0.58375 -1.3025,1.30375l0,11.8625c0,0.72 0.5825,1.30375 1.3025,1.30375" id="path154"/>
   <path fill="#dddddd" fill-rule="nonzero" d="m499.579935,53.276735c0.255,0.255 0.58875,0.3825 0.92125,0.3825c0.33375,0 0.6675,-0.1275 0.92125,-0.3825c0.51,-0.50875 0.51,-1.3325 0,-1.8425l-8.38875,-8.3875c-0.50875,-0.50875 -1.33375,-0.50875 -1.8425,0c-0.50875,0.51 -0.50875,1.33375 0,1.84375l8.38875,8.38625" id="path156"/>
   <path fill="#dddddd" fill-rule="nonzero" d="m483.769934,63.539235l11.8625,0c0.72,0 1.30375,-0.5825 1.30375,-1.30375c0,-0.72 -0.58375,-1.3025 -1.30375,-1.3025l-11.8625,0c-0.72,0 -1.3025,0.5825 -1.3025,1.3025c0,0.72125 0.5825,1.30375 1.3025,1.30375" id="path158"/>
   <path fill="#dddddd" fill-rule="nonzero" d="m498.254935,71.741735l-8.38875,8.38875c-0.50875,0.50875 -0.50875,1.33375 0,1.8425c0.255,0.255 0.58875,0.3825 0.9225,0.3825c0.3325,0 0.66625,-0.1275 0.92125,-0.3825l8.3875,-8.38875c0.51,-0.50875 0.51,-1.3325 0,-1.8425c-0.50875,-0.50875 -1.3325,-0.50875 -1.8425,0" id="path160"/>
   <path fill="#dddddd" fill-rule="nonzero" d="m509.056185,90.696736c0.72,0 1.3025,-0.5825 1.3025,-1.3025l0,-11.8625c0,-0.72 -0.5825,-1.3025 -1.3025,-1.3025c-0.72125,0 -1.30375,0.5825 -1.30375,1.3025l0,11.8625c0,0.72 0.5825,1.3025 1.30375,1.3025" id="path162"/>
   <path fill="#dddddd" fill-rule="nonzero" d="m526.949935,83.297986c0.255,0.255 0.58875,0.3825 0.92125,0.3825c0.33375,0 0.6675,-0.1275 0.92125,-0.3825c0.51,-0.50875 0.51,-1.33375 0,-1.8425l-8.3875,-8.38875c-0.50875,-0.50875 -1.3325,-0.50875 -1.8425,0c-0.50875,0.50875 -0.50875,1.33375 0,1.8425l8.3875,8.38875" id="path164"/>
   <path fill="#dddddd" fill-rule="nonzero" d="m523.048685,64.109235c0,0.72 0.5825,1.30375 1.3025,1.30375l11.86375,0c0.72,0 1.3025,-0.58375 1.3025,-1.30375c0,-0.72 -0.5825,-1.3025 -1.3025,-1.3025l-11.86375,0c-0.72,0 -1.3025,0.5825 -1.3025,1.3025" id="path166"/>
   <path fill="#dddddd" fill-rule="nonzero" d="m520.808685,54.984235c0.33375,0 0.6675,-0.1275 0.92125,-0.3825l8.3875,-8.3875c0.50875,-0.50875 0.50875,-1.33375 0,-1.8425c-0.50875,-0.50875 -1.33375,-0.50875 -1.8425,0l-8.3875,8.3875c-0.50875,0.50875 -0.50875,1.33375 0,1.8425c0.255,0.255 0.5875,0.3825 0.92125,0.3825" id="path168"/>
   <path fill="#dddddd" fill-rule="nonzero" d="m811.737439,386.02174l-12.695,0l0,-12.695c0,-0.72 -0.5825,-1.3025 -1.30375,-1.3025c-0.72,0 -1.3025,0.5825 -1.3025,1.3025l0,12.695l-12.69375,0c-0.72,0 -1.30375,0.58375 -1.30375,1.30375c0,0.72 0.58375,1.3025 1.30375,1.3025l12.69375,0l0,12.695c0,0.72 0.5825,1.30375 1.3025,1.30375c0.72125,0 1.30375,-0.58375 1.30375,-1.30375l0,-12.695l12.695,0c0.72,0 1.3025,-0.5825 1.3025,-1.3025c0,-0.72 -0.5825,-1.30375 -1.3025,-1.30375" id="path170"/>
   <path fill="#dddddd" fill-rule="nonzero" d="m197.02368,122.206736l12.69375,0l0,12.695c0,0.72 0.5825,1.30375 1.3025,1.30375c0.72125,0 1.30375,-0.58375 1.30375,-1.30375l0,-12.695l12.695,0c0.72,0 1.3025,-0.5825 1.3025,-1.3025c0,-0.72125 -0.5825,-1.30375 -1.3025,-1.30375l-12.695,0l0,-12.695c0,-0.72 -0.5825,-1.3025 -1.30375,-1.3025c-0.72,0 -1.3025,0.5825 -1.3025,1.3025l0,12.695l-12.69375,0c-0.72,0 -1.3025,0.5825 -1.3025,1.30375c0,0.72 0.5825,1.3025 1.3025,1.3025" id="path172"/>
   <path fill="#dddddd" fill-rule="nonzero" d="m177.31493,683.126745l-12.695,0l0,-12.695c0,-0.72 -0.58375,-1.30375 -1.30375,-1.30375c-0.72,0 -1.3025,0.58375 -1.3025,1.30375l0,12.695l-12.69375,0c-0.72,0 -1.30375,0.5825 -1.30375,1.3025c0,0.72125 0.58375,1.30375 1.30375,1.30375l12.69375,0l0,12.695c0,0.72 0.5825,1.3025 1.3025,1.3025c0.72,0 1.30375,-0.5825 1.30375,-1.3025l0,-12.695l12.695,0c0.72,0 1.3025,-0.5825 1.3025,-1.30375c0,-0.72 -0.5825,-1.3025 -1.3025,-1.3025" id="path174"/>
   <path fill="#dddddd" fill-rule="nonzero" d="m712.231188,704.879245c-3.93125,0 -7.12875,-3.1975 -7.12875,-7.12875c0,-3.93125 3.1975,-7.12875 7.12875,-7.12875c3.93125,0 7.12875,3.1975 7.12875,7.12875c0,3.93125 -3.1975,7.12875 -7.12875,7.12875zm0,-16.86375c-5.3675,0 -9.735,4.3675 -9.735,9.735c0,5.3675 4.3675,9.735 9.735,9.735c5.3675,0 9.735,-4.3675 9.735,-9.735c0,-5.3675 -4.3675,-9.735 -9.735,-9.735" id="path176"/>
   <path fill="#dddddd" fill-rule="nonzero" d="m340.032432,6.665485c3.93,0 7.12875,3.1975 7.12875,7.12875c0,3.93125 -3.19875,7.12875 -7.12875,7.12875c-3.93125,0 -7.12875,-3.1975 -7.12875,-7.12875c0,-3.93125 3.1975,-7.12875 7.12875,-7.12875zm0,16.86375c5.3675,0 9.735,-4.3675 9.735,-9.735c0,-5.3675 -4.3675,-9.735 -9.735,-9.735c-5.36875,0 -9.735,4.3675 -9.735,9.735c0,5.3675 4.36625,9.735 9.735,9.735" id="path178"/>
   <path fill="#dddddd" fill-rule="nonzero" d="m719.741188,243.872988c-3.93125,0 -7.12875,-3.1975 -7.12875,-7.12875c0,-3.93125 3.1975,-7.12875 7.12875,-7.12875c3.93125,0 7.12875,3.1975 7.12875,7.12875c0,3.93125 -3.1975,7.12875 -7.12875,7.12875zm0,-16.86375c-5.3675,0 -9.735,4.3675 -9.735,9.735c0,5.3675 4.3675,9.735 9.735,9.735c5.3675,0 9.735,-4.3675 9.735,-9.735c0,-5.3675 -4.3675,-9.735 -9.735,-9.735" id="path180"/>
   <path fill="#dddddd" fill-rule="nonzero" d="m21.694927,609.772993c-3.93125,0 -7.129,-3.1975 -7.129,-7.12875c0,-3.93 3.19775,-7.12875 7.129,-7.12875c3.930625,0 7.12875,3.19875 7.12875,7.12875c0,3.93125 -3.198125,7.12875 -7.12875,7.12875zm0,-16.86375c-5.36775,0 -9.734875,4.3675 -9.734875,9.735c0,5.3675 4.367125,9.735 9.734875,9.735c5.367625,0 9.735,-4.3675 9.735,-9.735c0,-5.3675 -4.367375,-9.735 -9.735,-9.735" id="path182"/>
   <path fill="#dddddd" fill-rule="nonzero" d="m245.497431,795.751746c0.5075,0 1.0025,-0.19625 1.38,-0.57375c0.77,-0.769 0.77,-2.00725 0,-2.7625c-0.76875,-0.76875 -2.00625,-0.76875 -2.7625,0c-0.76875,0.768875 -0.755,2.006125 0,2.7625c0.3925,0.390125 0.8875,0.57375 1.3825,0.57375" id="path184"/>
   <path fill="#dddddd" fill-rule="nonzero" d="m244.154931,813.291747c-0.75625,0.768625 -0.75625,2.006375 0,2.76225c0.0125,0 0.0125,0 0.0125,0c0.3775,0.377875 0.87375,0.57275 1.36875,0.57275c0.5075,0 1.0025,-0.194875 1.39375,-0.57275c0.75625,-0.77 0.75625,-2.007375 -0.0125,-2.76225c-0.75625,-0.769 -1.995,-0.769 -2.7625,0" id="path186"/>
   <path fill="#dddddd" fill-rule="nonzero" d="m265.031181,813.264497c-0.75625,0.7685 -0.75625,2.00725 0,2.762125c0.39,0.391125 0.885,0.57525 1.38,0.57525c0.5075,0 1.00375,-0.184125 1.3825,-0.57525c0.76875,-0.754875 0.76875,-1.993625 0,-2.762125c-0.75625,-0.755375 -1.995,-0.755375 -2.7625,0" id="path188"/>
   <path fill="#dddddd" fill-rule="nonzero" d="m255.934931,791.399246c1.06875,0 1.94125,-0.88625 1.94125,-1.95375c0,-1.0825 -0.8725,-1.955 -1.955,-1.955c-1.08125,0 -1.95375,0.885 -1.95375,1.9675c0,1.0675 0.885,1.94125 1.9675,1.94125" id="path190"/>
   <path fill="#dddddd" fill-rule="nonzero" d="m255.986181,817.031497c-1.08125,0 -1.95375,0.872625 -1.95375,1.955125c0,1.0815 0.8725,1.954125 1.95375,1.954125c1.0825,0 1.955,-0.88625 1.955,-1.954125c0,-1.0825 -0.88625,-1.955125 -1.955,-1.955125" id="path192"/>
   <path fill="#dddddd" fill-rule="nonzero" d="m266.372431,795.685371c0.50875,0 1.00375,-0.194875 1.39375,-0.57225c0.75625,-0.769125 0.74375,-2.006375 -0.0125,-2.762625c-0.76875,-0.76875 -2.00625,-0.75625 -2.7625,0c-0.76875,0.768875 -0.75625,2.00625 0,2.77475c0.39125,0.3775 0.88625,0.560125 1.38125,0.560125" id="path194"/>
   <path fill="#dddddd" fill-rule="nonzero" d="m241.197431,802.292746c-1.0825,0 -1.955,0.872625 -1.955,1.954125c0,1.0825 0.885,1.955125 1.9675,1.955125c1.06875,0 1.94125,-0.88525 1.94125,-1.967875c0,-1.06875 -0.8725,-1.941375 -1.95375,-1.941375" id="path196"/>
   <path fill="#dddddd" fill-rule="nonzero" d="m270.724931,802.200496c-1.08125,0 -1.94125,0.875 -1.94125,1.955c0,0.027375 0,0.040125 0,0.05225c0,1.081625 0.8725,1.96875 1.95375,1.96875c1.0825,0 1.955,-0.887125 1.955,-1.96875c0,0 0,-0.012125 0,-0.024875c0,-0.013625 0,-0.027375 0,-0.04c-0.0125,-1.081125 -0.88625,-1.955125 -1.9675,-1.942375" id="path198"/>
   <path fill="#dddddd" fill-rule="nonzero" d="m692.506187,112.014236c-1.08125,0 -1.95375,0.87375 -1.95375,1.955c0,1.08125 0.8725,1.955 1.95375,1.955c1.0825,0 1.955,-0.8875 1.955,-1.955c0,-1.08125 -0.885,-1.955 -1.955,-1.955" id="path200"/>
   <path fill="#dddddd" fill-rule="nonzero" d="m704.313688,111.010486c0.76875,-0.75625 0.76875,-1.99375 0,-2.7625c-0.75625,-0.75625 -1.99375,-0.75625 -2.7625,0c-0.75625,0.76875 -0.75625,2.00625 0,2.7625c0.39,0.39125 0.885,0.57375 1.38,0.57375c0.5075,0 1.00375,-0.1825 1.3825,-0.57375" id="path202"/>
   <path fill="#dddddd" fill-rule="nonzero" d="m702.892438,90.669236c0.50875,0 1.00375,-0.195 1.39375,-0.5725c0.75625,-0.76875 0.74375,-2.0075 -0.0125,-2.76375c-0.76875,-0.7675 -2.00625,-0.755 -2.7625,0c-0.76875,0.76875 -0.75625,2.0075 0,2.77625c0.39125,0.3775 0.88625,0.56 1.38125,0.56" id="path204"/>
   <path fill="#dddddd" fill-rule="nonzero" d="m680.674937,108.274236c-0.75625,0.76875 -0.75625,2.0075 0,2.7625c0.0125,0 0.0125,0 0.0125,0c0.3775,0.37875 0.87375,0.57375 1.36875,0.57375c0.5075,0 1.0025,-0.195 1.39375,-0.57375c0.75625,-0.76875 0.75625,-2.00625 -0.0125,-2.7625c-0.75625,-0.76875 -1.99375,-0.76875 -2.7625,0" id="path206"/>
   <path fill="#dddddd" fill-rule="nonzero" d="m682.017437,90.735486c0.5075,0 1.0025,-0.19625 1.38,-0.575c0.77,-0.7675 0.77,-2.00625 0,-2.7625c-0.76875,-0.7675 -2.00625,-0.7675 -2.7625,0c-0.76875,0.76875 -0.755,2.0075 0,2.7625c0.3925,0.39125 0.8875,0.575 1.3825,0.575" id="path208"/>
   <path fill="#dddddd" fill-rule="nonzero" d="m707.258688,101.159236c1.08125,0 1.95375,-0.88625 1.95375,-1.9675c0,0 0,-0.01375 0,-0.02625c0,-0.0125 0,-0.02625 0,-0.03875c-0.0125,-1.0825 -0.88625,-1.955 -1.9675,-1.9425c-1.08125,0 -1.94125,0.875 -1.94125,1.955c0,0.02625 0,0.03875 0,0.0525c0,1.08125 0.8725,1.9675 1.955,1.9675" id="path210"/>
   <path fill="#dddddd" fill-rule="nonzero" d="m692.454937,86.382986c1.06875,0 1.94125,-0.8875 1.94125,-1.955c0,-1.08125 -0.8725,-1.95375 -1.955,-1.95375c-1.08125,0 -1.95375,0.885 -1.95375,1.96625c0,1.06875 0.885,1.9425 1.9675,1.9425" id="path212"/>
   <path fill="#dddddd" fill-rule="nonzero" d="m677.729937,101.185486c1.06875,0 1.94125,-0.88625 1.94125,-1.9675c0,-1.06875 -0.8725,-1.9425 -1.95375,-1.9425c-1.0825,0 -1.955,0.87375 -1.955,1.955c0,1.0825 0.88625,1.955 1.9675,1.955" id="path214"/>
   <path fill="#dddddd" fill-rule="nonzero" d="m31.779928,425.561741c-0.76875,0.76875 -0.755,2.0075 0,2.7625c0.39125,0.39125 0.88625,0.57375 1.38125,0.57375c0.50875,0 1.00375,-0.195 1.38125,-0.57375c0.77,-0.76875 0.77,-2.00625 0,-2.7625c-0.76875,-0.76875 -2.00625,-0.76875 -2.7625,0" id="path216"/>
   <path fill="#dddddd" fill-rule="nonzero" d="m28.874928,439.349241c1.06875,0 1.94125,-0.88625 1.94125,-1.9675c0,-1.07 -0.8725,-1.9425 -1.955,-1.9425c-1.081375,0 -1.953875,0.8725 -1.953875,1.955c0,1.08125 0.88575,1.955 1.967625,1.955" id="path218"/>
   <path fill="#dddddd" fill-rule="nonzero" d="m52.694928,446.411741c-0.755,0.76875 -0.755,2.00625 0,2.7625c0.39125,0.39 0.88625,0.57375 1.38125,0.57375c0.5075,0 1.00375,-0.18375 1.3825,-0.57375c0.76875,-0.75625 0.76875,-1.99375 0,-2.7625c-0.75625,-0.75625 -1.995,-0.75625 -2.76375,0" id="path220"/>
   <path fill="#dddddd" fill-rule="nonzero" d="m54.036178,428.831741c0.51,0 1.005,-0.19375 1.395,-0.5725c0.75625,-0.76875 0.74375,-2.00625 -0.0125,-2.7625c-0.76875,-0.76875 -2.00625,-0.75625 -2.7625,0c-0.76875,0.76875 -0.75625,2.0075 0,2.77625c0.39,0.3775 0.885,0.55875 1.38,0.55875" id="path222"/>
   <path fill="#dddddd" fill-rule="nonzero" d="m58.389928,435.347991c-1.08125,0 -1.94125,0.87375 -1.94125,1.955c0,0.02625 0,0.03875 0,0.05125c0,1.0825 0.8725,1.96875 1.95375,1.96875c1.0825,0 1.955,-0.88625 1.955,-1.96875c0,0 0,-0.0125 0,-0.025c0,-0.0125 0,-0.02625 0,-0.04c-0.0125,-1.08125 -0.8875,-1.95375 -1.9675,-1.94125" id="path224"/>
   <path fill="#dddddd" fill-rule="nonzero" d="m43.598678,424.546741c1.07,0 1.9425,-0.8875 1.9425,-1.955c0,-1.08125 -0.8725,-1.955 -1.955,-1.955c-1.08125,0 -1.95375,0.88625 -1.95375,1.9675c0,1.0675 0.885,1.9425 1.96625,1.9425" id="path226"/>
   <path fill="#dddddd" fill-rule="nonzero" d="m43.651178,450.177991c-1.08125,0 -1.955,0.87375 -1.955,1.955c0,1.08125 0.87375,1.95375 1.955,1.95375c1.0825,0 1.955,-0.88625 1.955,-1.95375c0,-1.08125 -0.88625,-1.955 -1.955,-1.955" id="path228"/>
   <path fill="#dddddd" fill-rule="nonzero" d="m31.818678,446.437991c-0.755,0.76875 -0.755,2.0075 0,2.7625c0.01375,0 0.01375,0 0.01375,0c0.3775,0.37875 0.87375,0.5725 1.36875,0.5725c0.5075,0 1.0025,-0.19375 1.39375,-0.5725c0.75625,-0.77 0.75625,-2.00625 -0.0125,-2.7625c-0.75625,-0.76875 -1.995,-0.76875 -2.76375,0" id="path230"/>
   <path fill="#dddddd" fill-rule="nonzero" d="m737.249938,533.550492c0.50875,0 1.00375,-0.195 1.395,-0.5725c0.755,-0.76875 0.7425,-2.0075 -0.01375,-2.7625c-0.7675,-0.76875 -2.00625,-0.75625 -2.7625,0c-0.76875,0.76875 -0.755,2.00625 0,2.775c0.39125,0.3775 0.88625,0.56 1.38125,0.56" id="path232"/>
   <path fill="#dddddd" fill-rule="nonzero" d="m741.603688,540.065492c-1.0825,0 -1.9425,0.875 -1.9425,1.955c0,0.0275 0,0.04 0,0.0525c0,1.08125 0.8725,1.96875 1.955,1.96875c1.08125,0 1.95375,-0.8875 1.95375,-1.96875c0,0 0,-0.0125 0,-0.025c0,-0.01375 0,-0.0275 0,-0.04c-0.0125,-1.08125 -0.88625,-1.955 -1.96625,-1.9425" id="path234"/>
   <path fill="#dddddd" fill-rule="nonzero" d="m735.908688,551.129243c-0.75625,0.76875 -0.75625,2.0075 0,2.7625c0.39,0.39125 0.885,0.575 1.38,0.575c0.50875,0 1.005,-0.18375 1.3825,-0.575c0.76875,-0.755 0.76875,-1.99375 0,-2.7625c-0.75625,-0.755 -1.99375,-0.755 -2.7625,0" id="path236"/>
   <path fill="#dddddd" fill-rule="nonzero" d="m726.812438,529.264242c1.06875,0 1.94125,-0.88625 1.94125,-1.95375c0,-1.0825 -0.8725,-1.955 -1.95375,-1.955c-1.0825,0 -1.955,0.885 -1.955,1.9675c0,1.0675 0.88625,1.94125 1.9675,1.94125" id="path238"/>
   <path fill="#dddddd" fill-rule="nonzero" d="m726.864938,554.896743c-1.0825,0 -1.955,0.8725 -1.955,1.95375c0,1.0825 0.8725,1.955 1.955,1.955c1.08125,0 1.95375,-0.88625 1.95375,-1.955c0,-1.08125 -0.885,-1.95375 -1.95375,-1.95375" id="path240"/>
   <path fill="#dddddd" fill-rule="nonzero" d="m714.992438,530.280492c-0.76875,0.76875 -0.75375,2.00625 0,2.7625c0.3925,0.39 0.8875,0.57375 1.3825,0.57375c0.5075,0 1.0025,-0.19625 1.38,-0.57375c0.77,-0.76875 0.77,-2.0075 0,-2.7625c-0.7675,-0.76875 -2.00625,-0.76875 -2.7625,0" id="path242"/>
   <path fill="#dddddd" fill-rule="nonzero" d="m714.029938,542.099242c0,-1.06875 -0.87375,-1.94125 -1.955,-1.94125c-1.08125,0 -1.955,0.8725 -1.955,1.95375c0,1.0825 0.88625,1.955 1.9675,1.955c1.06875,0 1.9425,-0.885 1.9425,-1.9675" id="path244"/>
   <path fill="#dddddd" fill-rule="nonzero" d="m715.032438,551.156743c-0.75625,0.76875 -0.75625,2.00625 0,2.7625c0.0125,0 0.0125,0 0.0125,0c0.3775,0.3775 0.87375,0.5725 1.36875,0.5725c0.50875,0 1.00375,-0.195 1.39375,-0.5725c0.75625,-0.77 0.75625,-2.0075 -0.0125,-2.7625c-0.75625,-0.76875 -1.99375,-0.76875 -2.7625,0" id="path246"/>
  </g>
  <g id="svg_2">
   <path fill="#fbd6b1" fill-rule="nonzero" d="m751.943688,342.68799c-1.68625,-1.526251 -4.28875,-1.397501 -5.815,0.29c-2.7775,3.07 -5.61625,4.9875 -8.29125,6.19125c3.86375,-2.70125 7.73,-6.84875 10.66375,-13.238751c0.9475,-2.06625 0.0425,-4.51 -2.025,-5.45875c-2.06375,-0.94625 -4.51,-0.04125 -5.45875,2.025c-2.07625,4.5225 -4.7325,7.49875 -7.3775,9.491251c2.38875,-3.120001 4.4775,-7.155001 5.78125,-12.387501c0.54875,-2.20625 -0.79375,-4.44 -3.00125,-4.99c-2.2075,-0.55125 -4.43875,0.79375 -4.98875,3c-0.615,2.4675 -1.46375,4.54625 -2.4325,6.3425c-0.44875,-6.215 -4.2375,-11.20625 -10.03,-12.71c-2.20875,-0.56375 -4.4475,0.75125 -5.01875,2.9525c-0.5725,2.2 0.75,4.4475 2.95,5.01875c3.225,0.835 4.24625,4.2975 3.82875,7.3575c-0.4925,3.6025 -2.995,7.416251 -8.54,7.325001c-0.00375,0 -0.01,0 -0.015,0c-5.42625,-0.0975 -7.90875,-4.037501 -8.385,-7.382501c-0.40875,-2.86625 0.51875,-6.35125 4.34375,-7.53625c2.17125,-0.67375 3.385,-2.98 2.71125,-5.1525c-0.6725,-2.17 -2.97375,-3.39 -5.15125,-2.71125c-7.11,2.205 -11.15125,8.86 -10.055,16.56c0.5775,4.058751 2.7775,8.316251 6.52375,11.153751l-15.343751,15.8625l17.710001,17.16625l20.74125,-23.00125c1.12125,0.18375 2.45375,0.33125 3.9725,0.35625c6.05625,0.10125 14.85125,-1.715 22.99125,-10.70875c1.5275,-1.68625 1.39625,-4.28875 -0.28875,-5.815" id="svg_27"/>
   <path fill="#f5f5f5" fill-rule="nonzero" d="m691.632437,355.58424l4.441251,-5.23875l22.43125,19.65375l-4.45625,4.8275l-22.416251,-19.2425" id="svg_28"/>
   <path fill="#3c3b3d" fill-rule="nonzero" d="m501.274935,389.45424c0,0 99.572501,119.053752 215.492503,-14.9625l-23.957501,-22.895c0,0 -83.788751,109.191251 -162.317502,24.14l-29.2175,13.7175" id="svg_29"/>
   <path fill="#7a7b7c" fill-rule="nonzero" d="m702.564938,384.05299c0.935,-1.3925 0.565,-3.27625 -0.82,-4.21125c-1.3975,-0.93125 -3.27875,-0.56125 -4.2125,0.82625c-0.935,1.385 -0.56375,3.27375 0.82,4.21c1.3925,0.93375 3.27875,0.56375 4.2125,-0.825" id="svg_30"/>
   <path fill="#7a7b7c" fill-rule="nonzero" d="m709.743688,376.63799c0.935,-1.39375 0.565,-3.27375 -0.825,-4.2125c-1.38625,-0.93375 -3.2725,-0.565 -4.205,0.825c-0.93375,1.3925 -0.5675,3.27625 0.8225,4.21125c1.38875,0.93375 3.27375,0.56625 4.2075,-0.82375" id="svg_31"/>
   <path fill="#fbd6b1" fill-rule="nonzero" d="m281.066181,379.75299c0,0 -20.575,-210.653753 112.365002,-224.907503c169.466253,-18.171251 133.286252,228.991253 133.286252,228.991253l-245.651254,-4.08375" id="svg_32"/>
   <path fill="#3c3b3d" fill-rule="nonzero" d="m377.229933,267.691738c0,0 0.22125,1.16625 0.55,3.2125c0.2175,0.98625 0.47625,2.1325 0.79625,3.45875c0.37875,1.326251 0.805,2.808751 1.405,4.360001c0.5925,1.5525 1.3725,3.1525 2.2775,4.76125c1,1.5375 2.0825,3.1425 3.485,4.46c1.37625,1.34375 2.9875,2.4625 4.73375,3.25875c1.75125,0.79 3.67375,1.1625 5.57625,1.0825c3.845,-0.0825 7.45625,-2.22125 10.00375,-5.09c1.31,-1.42 2.29125,-3.0925 3.1825,-4.7c0.785,-1.675 1.4675,-3.32125 1.94375,-4.91625c0.21625,-0.80375 0.45375,-1.5675 0.6325,-2.3125c0.16125,-0.753751 0.31375,-1.467501 0.4575,-2.138751c0.23,-1.3575 0.39875,-2.56125 0.54375,-3.555c0.175,-1.9975 0.30625,-3.15875 0.30625,-3.15875l0.01,-0.0825c0.075,-0.66 0.67,-1.135 1.33125,-1.06c0.56625,0.06375 0.99625,0.51125 1.06,1.055c0,0 0.14125,1.19875 0.335,3.32875c0.025,1.065 0.0875,2.37 0.02875,3.87125c-0.0525,0.7525 -0.1075,1.553751 -0.1675,2.398751c-0.06875,0.84625 -0.25875,1.7275 -0.39625,2.65625c-0.33625,1.85 -0.88125,3.845 -1.6875,5.90125c-0.91,2.00875 -1.91125,4.1775 -3.53375,6.095c-1.57,1.92875 -3.51,3.765 -5.88875,5.09625c-2.365,1.33125 -5.12125,2.17 -7.93875,2.295c-2.82,0.125 -5.6425,-0.5175 -8.1075,-1.665c-2.48625,-1.13375 -4.5625,-2.835 -6.265,-4.65375c-1.75625,-1.80375 -2.93625,-3.88375 -3.96625,-5.83875c-0.95125,-1.99625 -1.6475,-3.945 -2.10125,-5.7725c-0.20375,-0.9175 -0.4575,-1.78375 -0.585,-2.62375c-0.11875,-0.83875 -0.23125,-1.63375 -0.3375,-2.38125c-0.15875,-1.506251 -0.20625,-2.851251 -0.24625,-3.912501c0.045,-2.0725 0.10375,-3.25875 0.10375,-3.25875c0.0325,-0.685 0.61375,-1.21375 1.29875,-1.18c0.585,0.0275 1.05625,0.4575 1.16,1.00875" id="svg_33"/>
   <path fill="#3c3b3d" fill-rule="nonzero" d="m469.124934,264.319238c0,0 0.22,1.16625 0.55,3.2125c0.21625,0.985 0.475,2.13125 0.795,3.45875c0.38,1.32625 0.805,2.80875 1.405,4.358751c0.5925,1.55375 1.3725,3.15375 2.2775,4.7625c1,1.5375 2.0825,3.1425 3.48625,4.46c1.375,1.34375 2.98625,2.4625 4.7325,3.25875c1.75125,0.79 3.67375,1.1625 5.57625,1.0825c3.845,-0.0825 7.457501,-2.22125 10.003751,-5.09125c1.31,-1.41875 2.29125,-3.09125 3.1825,-4.7c0.78625,-1.67375 1.46875,-3.32 1.94375,-4.915001c0.21625,-0.80375 0.455,-1.5675 0.6325,-2.31375c0.16125,-0.7525 0.31375,-1.4675 0.4575,-2.13875c0.23,-1.3575 0.4,-2.56125 0.54375,-3.55375c0.17625,-1.9975 0.3075,-3.15875 0.3075,-3.15875l0.00875,-0.0825c0.075,-0.66125 0.67125,-1.13625 1.33125,-1.06125c0.5675,0.06375 0.9975,0.5125 1.06125,1.05625c0,0 0.14,1.1975 0.33375,3.3275c0.02625,1.06625 0.08875,2.37125 0.02875,3.8725c-0.05125,0.7525 -0.1075,1.55375 -0.16625,2.3975c-0.06875,0.8475 -0.26,1.7275 -0.3975,2.657501c-0.33625,1.85 -0.88125,3.845 -1.6875,5.9c-0.91,2.01 -1.91125,4.1775 -3.53375,6.09625c-1.56875,1.92875 -3.51,3.765 -5.88875,5.095c-2.365,1.3325 -5.121251,2.17125 -7.938751,2.29625c-2.82,0.125 -5.64125,-0.5175 -8.10625,-1.665c-2.4875,-1.13375 -4.56375,-2.835 -6.26625,-4.65375c-1.755,-1.80375 -2.93625,-3.88375 -3.96625,-5.83875c-0.95125,-1.99625 -1.64625,-3.94625 -2.10125,-5.7725c-0.20375,-0.9175 -0.45625,-1.78375 -0.585,-2.623751c-0.11875,-0.83875 -0.23125,-1.635 -0.3375,-2.3825c-0.15875,-1.505 -0.205,-2.85125 -0.245,-3.91125c0.045,-2.0725 0.1025,-3.25875 0.1025,-3.25875c0.0325,-0.685 0.615,-1.21375 1.29875,-1.18125c0.585,0.0275 1.05625,0.45875 1.16125,1.01" id="svg_34"/>
   <path fill="#3c3b3d" fill-rule="nonzero" d="m427.328684,673.495494c18.86625,-20.49625 -2.127501,-43.1975 -2.127501,-43.1975c0,0 158.458753,51.035001 166.331253,-1.41c5.165,-34.410001 -39.207501,-48.957501 -68.412501,-53.161251c6.8375,-68.363751 8.545,-150.653752 7.3725,-199.990003l-22.0225,-0.30625l-75.212501,99.885001l-76.872502,-100.485001l-81.621251,0.9275c0.03125,56.142501 7.78625,142.357502 13.71875,200.127503c-43.74875,9.67 -77.465001,45.030001 -62.4875,85.566251c16.4825,44.611251 170.857502,47.882501 170.857502,47.882501c0,0 -21.965,27.7725 6.4625,48.915001c23.010001,17.11375 10.035,-64.223751 10.035,-64.223751c0,0 -164.472502,-6.99875 -164.113752,-47.771251c0.62375,-70.952501 316.336255,-64.625001 312.342505,-18.6975c-2.350001,27.035 -152.191253,-15 -152.191253,-15c0,0 -12.39,93.890001 17.941251,60.93875" id="svg_35"/>
   <path fill="#f5f5f5" fill-rule="nonzero" d="m508.469935,375.43049l-75.212501,99.885001l-76.872502,-100.485001l152.085003,0.6" id="svg_36"/>
   <path fill="#7a7b7c" fill-rule="nonzero" d="m508.469935,375.43049l0.71125,42.963751l-24.287501,4.77125l3.16875,32.72l-54.805,19.43l75.212501,-99.885001" id="svg_37"/>
   <path fill="#7a7b7c" fill-rule="nonzero" d="m433.257434,475.315491l-52.732501,-26.1l2.045,-23.76125l-25.456251,-9.4275l-0.72875,-41.196251l76.872502,100.485001" id="svg_38"/>
   <path fill="#b24929" fill-rule="nonzero" d="m455.462434,396.14299l-7.925,-12.03l-20.645,-0.86875l-7.695001,14.37125l8.237501,9.79875l-11.547501,45.297501l17.370001,22.60375l19.9925,-26.5275l-7.505,-40.786251l9.7175,-11.85875" id="svg_39"/>
   <path fill="#7a7b7c" fill-rule="nonzero" d="m426.776184,492.529242c0.775,3.76875 4.4575,6.19 8.22625,5.41625c3.7675,-0.7725 6.18875,-4.455 5.41625,-8.225c-0.77375,-3.76625 -4.45875,-6.1875 -8.22,-5.41625c-3.77125,0.77875 -6.1975,4.4575 -5.4225,8.225" id="svg_40"/>
   <path fill="#7a7b7c" fill-rule="nonzero" d="m426.333684,521.370492c0.77625,3.76875 4.46125,6.1925 8.2225,5.41875c3.76875,-0.775 6.19375,-4.45625 5.41375,-8.22125c-0.76875,-3.76875 -4.4525,-6.195 -8.21875,-5.41875c-3.76625,0.77125 -6.19625,4.455 -5.4175,8.22125" id="svg_41"/>
   <path fill="#3c3b3d" fill-rule="nonzero" d="m558.102435,99.242986c0,0 25.510001,160.703752 -213.623753,121.900002l-9.54875,45.94375c0,0 -20.7775,-24.8575 -26.8025,-0.75125c-6.93875,27.756251 20.13625,20.387501 20.13625,20.387501c0,0 -25.1575,57.005001 -50.612501,80.543751c-1.42,1.31375 -68.838751,-247.388754 31.560001,-223.082503c0,0 7.1975,-50.573751 83.771251,-56.196251c99.643752,-7.315 100.950002,80.510001 165.120002,11.255" id="svg_42"/>
   <path fill="#ec6180" fill-rule="nonzero" d="m482.741184,321.189239c1.27,0.09625 2.21375,1.19875 2.1675,2.4725c-0.76125,20.698751 -17.56375,37.453751 -38.53625,37.890001c-20.97,0.43625 -38.451251,-15.6025 -40.075001,-36.250001c-0.1,-1.2725 0.80375,-2.415 2.0725,-2.56c25.090001,-2.88625 49.881251,-3.41 74.371251,-1.5525" id="svg_43"/>
   <path fill="#fbd6b1" fill-rule="nonzero" d="m53.313678,342.70924c1.685,-1.526251 4.28875,-1.397501 5.81375,0.29c2.7775,3.07 5.61625,4.9875 8.29125,6.19125c-3.86375,-2.70125 -7.73,-6.84875 -10.66375,-13.238751c-0.9475,-2.06625 -0.0425,-4.51 2.025,-5.45875c2.06375,-0.94625 4.51125,-0.04125 5.45875,2.025c2.07625,4.5225 4.7325,7.49875 7.3775,9.491251c-2.38875,-3.120001 -4.4775,-7.155001 -5.78,-12.387501c-0.55,-2.20625 0.7925,-4.44 3,-4.99c2.2075,-0.55125 4.44,0.79375 4.98875,3c0.615,2.4675 1.46375,4.54625 2.4325,6.3425c0.45,-6.215 4.2375,-11.20625 10.03,-12.71c2.20875,-0.56375 4.448751,0.75125 5.018751,2.9525c0.5725,2.2 -0.74875,4.4475 -2.950001,5.01875c-3.225,0.835 -4.245,4.2975 -3.8275,7.3575c0.4925,3.6025 2.99375,7.416251 8.540001,7.325001c0.0025,0 0.00875,0 0.01375,0c5.4275,-0.0975 7.90875,-4.037501 8.38625,-7.382501c0.4075,-2.86625 -0.51875,-6.35125 -4.34375,-7.53625c-2.17125,-0.67375 -3.38625,-2.98 -2.7125,-5.1525c0.67375,-2.17 2.97375,-3.39 5.15125,-2.71125c7.11125,2.205 11.1525,8.86 10.05625,16.56c-0.57875,4.058751 -2.77875,8.316251 -6.525,11.153751l15.34375,15.8625l-17.71,17.16625l-20.741251,-23.00125c-1.12,0.18375 -2.45375,0.33125 -3.9725,0.35625c-6.05625,0.10125 -14.85125,-1.715 -22.99125,-10.70875c-1.5275,-1.68625 -1.39625,-4.28875 0.29,-5.815" id="svg_44"/>
   <path fill="#f5f5f5" fill-rule="nonzero" d="m113.623679,355.60549l-4.44125,-5.23875l-22.431251,19.655l4.457501,4.82625l22.415,-19.2425" id="svg_45"/>
   <path fill="#3c3b3d" fill-rule="nonzero" d="m303.981182,389.47549c0,0 -99.572502,119.053752 -215.492504,-14.9625l23.957501,-22.895c0,0 83.788751,109.191251 162.317502,24.14l29.217501,13.7175" id="svg_46"/>
   <path fill="#7a7b7c" fill-rule="nonzero" d="m102.691179,384.07424c-0.935,-1.3925 -0.565,-3.27625 0.82125,-4.21125c1.39625,-0.93125 3.27875,-0.56125 4.21125,0.82625c0.935,1.38625 0.565,3.27375 -0.82,4.21c-1.3925,0.93375 -3.2775,0.56375 -4.2125,-0.825" id="svg_47"/>
   <path fill="#7a7b7c" fill-rule="nonzero" d="m95.512429,376.65924c-0.935,-1.3925 -0.565,-3.27375 0.825,-4.2125c1.3875,-0.93375 3.2725,-0.565 4.205,0.825c0.93375,1.3925 0.5675,3.27625 -0.8225,4.21125c-1.3875,0.93375 -3.27375,0.56625 -4.2075,-0.82375" id="svg_48"/>
  </g>
 </g>
</svg>