<svg width="1000" height="1000" xmlns="http://www.w3.org/2000/svg">
 <metadata id="metadata8">image/svg+xml</metadata>

 <g>
  <title>background</title>
  <rect fill="none" id="canvas_background" height="402" width="582" y="-1" x="-1"/>
 </g>
 <g>
  <title>Layer 1</title>
  <path fill="#eeeeee" fill-rule="nonzero" d="m267.512504,460.543742c-1.19,0 -2.35,0.1225 -3.485,0.315c0.01625,-0.39375 0.06,-0.78 0.06,-1.1775c0,-15.9275 -12.91375,-28.84 -28.84125,-28.84c-13.77,0 -25.2675,9.6575 -28.13625,22.565c-0.235,-0.0075 -0.46625,-0.03625 -0.70375,-0.03625c-13.44125,0 -24.33625,10.89625 -24.33625,24.33625c0,13.44 10.895,24.33625 24.33625,24.33625l61.106251,0c11.46,0 20.75,-9.29 20.75,-20.75c0,-11.46 -9.29,-20.74875 -20.75,-20.74875" id="path16"/>
  <path fill="#eeeeee" fill-rule="nonzero" d="m851.390013,695.973745c-1.105,0 -2.1825,0.1125 -3.23875,0.28125c0.16625,-1.355 0.26375,-2.73375 0.26375,-4.135c0,-18.4075 -14.92375,-33.3325 -33.3325,-33.3325c-17.565,0 -31.9475,13.59125 -33.22875,30.83c-1.83375,-0.4475 -3.74,-0.7125 -5.7125,-0.7125c-13.24625,0 -23.9825,10.73875 -23.9825,23.985c0,13.245 10.73625,23.98375 23.9825,23.98375l75.248751,0c11.29375,0 20.45,-9.15625 20.45,-20.45c0,-11.29375 -9.15625,-20.45 -20.45,-20.45" id="path18"/>
  <path fill="#eeeeee" fill-rule="nonzero" d="m152.580002,578.489994c-0.715,0 -1.4125,0.0725 -2.0975,0.1825c0.10875,-0.87875 0.17125,-1.77125 0.17125,-2.6775c0,-11.91875 -9.6625,-21.58125 -21.58,-21.58125c-11.3735,0 -20.685125,8.8 -21.514625,19.96125c-1.187,-0.29 -2.421,-0.46125 -3.69775,-0.46125c-8.57625,0 -15.528875,6.95125 -15.528875,15.5275c0,8.57625 6.952625,15.52875 15.528875,15.52875l48.718626,0c7.3125,0 13.24,-5.92875 13.24,-13.24c0,-7.3125 -5.9275,-13.24 -13.24,-13.24" id="path20"/>
  <path fill="#eeeeee" fill-rule="nonzero" d="m732.017511,819.253747c-0.82625,0 -1.63,0.08375 -2.42,0.21c0.12375,-1.0125 0.1975,-2.0425 0.1975,-3.09c0,-13.75875 -11.15375,-24.9125 -24.9125,-24.9125c-13.12875,0 -23.8775,10.15875 -24.835,23.0425c-1.37125,-0.335 -2.795,-0.5325 -4.27,-0.5325c-9.9,0 -17.925,8.025 -17.925,17.925c0,9.9 8.025,17.925 17.925,17.925l56.240001,0c8.44125,0 15.28375,-6.8425 15.28375,-15.28375c0,-8.44125 -6.8425,-15.28375 -15.28375,-15.28375" id="path22"/>
  <path fill="#eeeeee" fill-rule="nonzero" d="m902.545013,888.738748c-0.47625,0 -0.93875,0.047375 -1.39375,0.121125c0.0725,-0.5835 0.11375,-1.17625 0.11375,-1.778875c0,-7.918375 -6.41875,-14.3385 -14.3375,-14.3385c-7.55625,0 -13.7425,5.847375 -14.295,13.262375c-0.7875,-0.193875 -1.6075,-0.306125 -2.45625,-0.306125c-5.6975,0 -10.31625,4.618625 -10.31625,10.316375c0,5.69725 4.61875,10.315875 10.31625,10.315875l32.36875,0c4.85875,0 8.79625,-3.9375 8.79625,-8.795875c0,-4.857375 -3.9375,-8.796375 -8.79625,-8.796375" id="path24"/>
  <path fill="#eeeeee" fill-rule="nonzero" d="m131.017502,386.248741c-0.475,0 -0.93875,0.04875 -1.39375,0.12125c0.0725,-0.58375 0.115,-1.17625 0.115,-1.77875c0,-7.91875 -6.420375,-14.33875 -14.338875,-14.33875c-7.556125,0 -13.742625,5.84625 -14.293375,13.2625c-0.789125,-0.19375 -1.609,-0.3075 -2.457125,-0.3075c-5.69775,0 -10.316875,4.62 -10.316875,10.3175c0,5.6975 4.619125,10.31625 10.316875,10.31625l32.368125,0c4.85875,0 8.79625,-3.93875 8.79625,-8.79625c0,-4.85875 -3.9375,-8.79625 -8.79625,-8.79625" id="path26"/>
  <path fill="#fbd6b1" fill-rule="nonzero" d="m677.83876,375.906241c0,0 6.40625,-20.19875 -7.62,-21.4175c-13.19875,-1.1475 -12.355,18.23125 -12.355,18.23125l19.975,3.18625" id="path28"/>
  <path fill="#f9a726" fill-rule="nonzero" d="m815.481262,219.911238c1.16875,77.982501 -61.101251,142.150002 -139.086252,143.318752c-77.983751,1.17125 -142.151252,-61.100001 -143.321252,-139.083752c-1.17,-77.982501 61.101251,-142.150002 139.086252,-143.320002c77.983751,-1.17 142.151252,61.101251 143.321252,139.085002" id="path30"/>
  <path fill="#d68818" fill-rule="nonzero" d="m672.49751,103.349987c-65.441251,0.98125 -117.882502,55.020001 -116.900002,120.458752c0.98125,65.438751 55.018751,117.880002 120.461252,116.898752c65.440001,-0.98125 117.880002,-55.020001 116.898752,-120.458752c-0.98125,-65.438751 -55.018751,-117.880002 -120.460002,-116.898752zm3.71,247.303754c-70.926251,1.065 -129.493752,-55.771251 -130.557502,-126.695002c-1.06375,-70.925001 55.771251,-129.492502 126.698752,-130.556252c70.923751,-1.06375 129.492502,55.772501 130.555002,126.697502c1.065,70.922501 -55.771251,129.490002 -126.696252,130.553752" id="path32"/>
  <path fill="#d68818" fill-rule="nonzero" d="m683.72001,149.588737l0.25875,17.24c1.89125,0.8575 3.65,1.93625 5.2725,3.2375c1.61875,1.3025 3.00125,2.88625 4.1325,4.74875l1.1875,-9.305l24.205,-0.36375l0.58125,38.795001l-25.53,0.3825c-0.08875,-5.8575 -1.895,-10.36125 -5.4275,-13.51625c-3.53,-3.15125 -7.9475,-4.68875 -13.25125,-4.61c-0.995,0.01625 -2.07,0.1975 -3.225,0.54625c-1.15625,0.35 -2.22625,0.89 -3.21,1.62375c-0.98375,0.73375 -1.7725,1.63 -2.36375,2.68875c-0.59375,1.06125 -0.87875,2.30875 -0.85625,3.74375c0.04125,2.76375 1.45875,5.00875 4.24625,6.73375c2.78875,1.7275 6.27,3.36375 10.4375,4.9025c4.17,1.54125 8.6725,3.18625 13.505,4.9375c4.83625,1.75125 9.34875,3.98 13.53375,6.67875c4.1875,2.7025 7.69125,6.0775 10.5175,10.1225c2.81875,4.05 4.2825,9.1675 4.37625,15.3575c0.09,6.07875 -0.97,11.18125 -3.1725,15.3025c-2.20375,4.125 -5.0575,7.455 -8.555,9.99375c-3.5025,2.54125 -7.42625,4.37 -11.775,5.48375c-4.3525,1.11875 -8.68,1.7625 -12.9875,1.93625l0.25625,17.07625l-23.375,0.35l-0.32625,-21.7175c-3.01125,-1.6125 -5.91625,-3.6125 -8.715,-6.005l-1.6725,9.975l-24.20625,0.3625l-0.59875,-39.953751l26.02625,-0.39125c0.05,3.31625 0.83875,5.98625 2.3625,8.0075c1.52,2.02375 3.34125,3.59875 5.46,4.7275c2.115,1.12875 4.34,1.87 6.66625,2.22c2.32375,0.35375 4.26125,0.57375 5.81375,0.66c1.21375,-0.01875 2.51125,-0.1475 3.89125,-0.39c1.375,-0.24125 2.6675,-0.64625 3.8775,-1.21875c1.205,-0.57 2.21625,-1.41375 3.02875,-2.5325c0.8125,-1.11625 1.20625,-2.505 1.18125,-4.16375c-0.03,-1.98875 -1.37875,-3.6825 -4.05625,-5.08c-2.67375,-1.395 -6.01,-2.78375 -10.01125,-4.16c-3.99875,-1.3775 -8.36125,-2.915 -13.08625,-4.61375c-4.725,-1.69625 -9.09625,-3.9525 -13.11875,-6.76875c-4.0225,-2.8125 -7.39,-6.2725 -10.105,-10.3775c-2.71375,-4.105 -4.11875,-9.24875 -4.21125,-15.44125c-0.08375,-5.525 0.78375,-10.2925 2.60625,-14.3c1.81875,-4.00625 4.17125,-7.33 7.0625,-9.9725c2.8875,-2.64 6.11875,-4.6775 9.6925,-6.115c3.5675,-1.435 7.065,-2.2875 10.49125,-2.5625l-0.21,-13.92375l23.37625,-0.35125" id="path34"/>
  <path fill="#ba452f" fill-rule="nonzero" d="m415.637506,569.146244c-106.320002,32.20875 -127.252502,149.691252 -216.307503,149.897502c67.221251,75.828751 146.430002,0.19 172.371253,91.610001c114.922502,-11.2875 132.840002,-153.182502 185.263753,-160.852502l-141.327502,-80.655001" id="path36"/>
  <path fill="#7baa89" fill-rule="nonzero" d="m371.701256,810.653747l0,0c0.04875,-0.00375 0.09125,-0.00875 0.14,-0.01375c-0.04625,0.005 -0.09375,0.01 -0.14,0.01375m-0.07625,-0.26625c0,0 0,0 0,-0.00125l0,0.00125m-0.03875,-0.13375l0,0l0,0m-0.03625,-0.1275c-0.00125,-0.00375 -0.0025,-0.0075 -0.00375,-0.01125l0.00375,0.01125m-0.0375,-0.13125c-0.0025,-0.00625 -0.00375,-0.0125 -0.00625,-0.0175c0.0025,0.005 0.00375,0.0125 0.00625,0.0175m-0.0375,-0.12875c-0.00375,-0.01125 -0.0075,-0.02375 -0.01,-0.035c0.0025,0.01125 0.00625,0.02375 0.01,0.035m-0.0325,-0.11125c-0.0075,-0.025 -0.015,-0.05 -0.02125,-0.075c0.0075,0.0275 0.01375,0.0475 0.02125,0.075m-0.03375,-0.11625c-0.0125,-0.04125 -0.02375,-0.08125 -0.03625,-0.12125c0.01125,0.0375 0.025,0.0825 0.03625,0.12125m-0.03625,-0.1225c-3.41875,-11.665 -7.73625,-20.5275 -12.7925,-27.32125l0.0125,-0.01625c5.05625,6.795 9.36125,15.67 12.78,27.3375m44.040001,-240.301254c0.01875,-0.005 0.03625,-0.01125 0.05375,-0.01625c-0.01875,0.00625 -0.03375,0.01 -0.05375,0.01625m0.08,-0.02375c0.04875,-0.015 0.09625,-0.03 0.145,-0.045c-0.04625,0.01375 -0.1,0.03 -0.145,0.045" id="path38"/>
  <path fill="#a63f29" fill-rule="nonzero" d="m371.701256,810.653747l0,0c-0.025,-0.08875 -0.05125,-0.1775 -0.07625,-0.26625l0,-0.00125c-0.0125,-0.04375 -0.02625,-0.08875 -0.03875,-0.1325l0,0c-0.0125,-0.0425 -0.02375,-0.08625 -0.03625,-0.1275l-0.00375,-0.01125c-0.01125,-0.04 -0.0225,-0.08 -0.03375,-0.12c-0.0025,-0.005 -0.00375,-0.0125 -0.00625,-0.0175c-0.01,-0.0375 -0.02125,-0.07375 -0.03125,-0.11125c-0.00375,-0.01125 -0.0075,-0.02375 -0.01,-0.035c-0.0075,-0.025 -0.015,-0.05 -0.0225,-0.07625c-0.0075,-0.0275 -0.01375,-0.0475 -0.02125,-0.075c-0.005,-0.01375 -0.00875,-0.0275 -0.0125,-0.04125c-0.01125,-0.03875 -0.025,-0.08375 -0.03625,-0.12125l0,-0.00125c-3.41875,-11.6675 -7.72375,-20.5425 -12.78,-27.3375l37.576251,-43.890001l9.18375,-40.835001l-0.00625,-0.00125c1.05375,-5.6525 1.89875,-11.56375 2.57125,-17.605c-139.536252,-68.820001 -0.225,-103.756252 -0.225,-103.756252l4.205,-0.75125c-0.2525,-0.23 -1.1275,-1.6925 -2.4625,-4.17c1.96625,-0.67875 3.95125,-1.3375 5.9775,-1.955c0.02,-0.00625 0.035,-0.01 0.05375,-0.01625c0.00875,-0.0025 0.0175,-0.005 0.02625,-0.0075c0.045,-0.015 0.09875,-0.03125 0.145,-0.045l0,0l141.327502,80.655001l0,0c-26.17,3.8275 -43.741251,41.106251 -69.073751,78.886251c-18.26875,-3.0275 -39.821251,-7.50625 -63.800001,-14.15l-11.93375,30.50375l-44.401251,39.368751c0,0 12.48,12.04875 12.655,25.09125c-2.8,0.455 -5.64625,0.84875 -8.57,1.13875c-0.04875,0.005 -0.09125,0.01 -0.14,0.01375m37.616251,-211.600003c-69.073751,14.41875 -23.1775,42.083751 0.55125,53.631251c0.7575,-20.01375 0.1925,-39.377501 -0.55125,-53.631251m2.635,-23.78875l-0.05375,0.075l0.0675,-0.01125l-0.01375,-0.06375" id="path40"/>
  <path fill="#a63f29" fill-rule="nonzero" d="m256.756254,748.294996c-20.7175,-4.77 -38.611251,-21.145 -38.611251,-21.145c60.041251,-17.35125 96.980001,-76.782501 96.980001,-76.782501c-23.76375,56.860001 -81.722501,80.636251 -81.722501,80.636251c5.4475,7.24875 23.35375,17.29125 23.35375,17.29125" id="path42"/>
  <path fill="#f8f8f8" fill-rule="nonzero" d="m655.90251,375.672491l0.6375,-5.325l22.63875,4.25l-0.975,5.2725l-22.30125,-4.1975" id="path44"/>
  <path fill="#3b393d" fill-rule="nonzero" d="m594.496259,563.904994c0,0 63.960001,-62.582501 85.510001,-185.361253l-25.03,-5.8125c0,0 -12.0925,89.650001 -68.138751,163.666252l7.65875,27.5075" id="path46"/>
  <path fill="#7baa89" fill-rule="nonzero" d="m594.496259,563.904994l-7.65875,-27.5075l0,0l7.65875,27.5075l0,0l0,0m0,0c0,0 0,0 0,-0.00125c0,0.00125 0,0.00125 0,0.00125m0,-0.00125l0.00125,0l-0.00125,0m0.0025,-0.0025c0.00125,0 0.00125,0 0.00125,0c0,0 0,0 -0.00125,0m0.0025,-0.00125l0,0l0,0m12.13,-13.93875c0.195,-0.245 0.39125,-0.4925 0.58875,-0.74375l0,0c-0.1975,0.25125 -0.39375,0.5 -0.58875,0.74375m-19.79375,-13.56375c5.30375,-7.005 10.21375,-14.15 14.75625,-21.34625c0.00125,0.00125 0.00125,0.00125 0.00125,0.0025c-4.5425,7.1925 -9.455,14.34125 -14.7575,21.34375" id="path48"/>
  <path fill="#353336" fill-rule="nonzero" d="m594.496259,563.904994l-7.65875,-27.5075l0,0c5.3025,-7.0025 10.215,-14.15125 14.7575,-21.34375c1.56625,6.55875 4.24,19.23375 5.625,34.163751c-0.1975,0.25125 -0.39375,0.49875 -0.58875,0.74375c-7.2225,9.09375 -11.945,13.7575 -12.13,13.93875l0,0c0,0 -0.00125,0 -0.00125,0.00125c0,0 0,0 -0.00125,0c0,0.00125 -0.00125,0.00125 -0.00125,0.0025l-0.00125,0l0,0c0,0.00125 0,0.00125 0,0.00125l0,0l0,0" id="path50"/>
  <path fill="#66686d" fill-rule="nonzero" d="m674.30626,390.533741c0.075,-1.2975 -0.91625,-2.40875 -2.21,-2.485c-1.3,-0.07 -2.41,0.92 -2.485,2.215c-0.075,1.29375 0.9175,2.4075 2.21125,2.485c1.2975,0.0725 2.41,-0.91875 2.48375,-2.215" id="path52"/>
  <path fill="#66686d" fill-rule="nonzero" d="m676.16751,382.751241c0.07375,-1.29875 -0.91625,-2.40875 -2.21375,-2.485c-1.295,-0.075 -2.4075,0.91625 -2.48,2.21125c-0.07375,1.29875 0.915,2.41 2.21125,2.485c1.295,0.075 2.40875,-0.915 2.4825,-2.21125" id="path54"/>
  <path fill="#fbd6b1" fill-rule="nonzero" d="m411.811256,575.526244c0,0 -36.967501,-163.603752 63.476251,-189.268753c122.141252,-31.20875 125.598752,166.016252 125.598752,166.016252l-189.075003,23.2525" id="path56"/>
  <path fill="#3b393d" fill-rule="nonzero" d="m571.143759,723.329996l-24.6975,55.098751l-44.133751,39.258751c0,0 26.105,4.705 17.42375,31.865c-7.695,24.07375 -32.9175,-30.3125 -32.9175,-30.3125l46.206251,-48.517501l12.77125,-37.105001c0,0 -51.595001,-0.85875 -126.566252,-23.77125l-12.73125,30.18l-45.421251,38.186251c0,0 27.1425,27.5725 -0.17625,43.788751c-14.29625,8.48625 -11.42875,-43.485001 -11.42875,-43.485001l41.221251,-45.661251l10.26625,-40.630001c0,0 70.736251,-7.37625 170.183753,31.105" id="path58"/>
  <path fill="#3b393d" fill-rule="nonzero" d="m469.057507,561.536243l69.823751,68.906251l47.027501,-84.783751l16.94375,-2.12875c0,0 8.6125,83.053751 -31.7275,179.848753l-170.183753,-31.105c10.71375,-50.128751 5.5375,-121.257502 5.5375,-121.257502l62.578751,-9.48" id="path60"/>
  <path fill="#f8f8f8" fill-rule="nonzero" d="m585.908759,545.658743l-47.027501,84.783751l-69.823751,-68.906251l116.851252,-15.8775" id="path62"/>
  <path fill="#66686d" fill-rule="nonzero" d="m585.908759,545.658743l5.16,32.91625l-18.13625,6.27375l5.9475,24.785l-39.998751,20.80875l47.027501,-84.783751" id="path64"/>
  <path fill="#66686d" fill-rule="nonzero" d="m538.881258,630.442494l-43.296251,-14.37875l-0.9825,-18.46625l-20.56125,-4.505l-4.98375,-31.55625l69.823751,68.906251" id="path66"/>
  <path fill="#3b393d" fill-rule="nonzero" d="m547.427508,567.259994l-7.37625,-8.3875l-15.9475,1.55l-4.365,11.8625l7.3775,6.64l-4.00125,36.023751l15.76625,15.49375l12.5025,-22.51875l-10.14375,-30.51375l6.1875,-10.15" id="path68"/>
  <path fill="#66686d" fill-rule="nonzero" d="m533.377508,646.764995c1,2.81125 4.08875,4.275 6.89875,3.275c2.81125,-0.9975 4.275,-4.085 3.2775,-6.89625c-1,-2.80875 -4.09,-4.27375 -6.89625,-3.27625c-2.81125,1.00125 -4.28,4.0875 -3.28,6.8975" id="path70"/>
  <path fill="#66686d" fill-rule="nonzero" d="m531.123758,668.763745c1,2.81125 4.08875,4.275 6.89875,3.275c2.81,-0.9975 4.275,-4.085 3.27625,-6.8975c-0.99875,-2.80875 -4.0875,-4.27375 -6.895,-3.27625c-2.8125,1.0025 -4.27875,4.09 -3.28,6.89875" id="path72"/>
  <path fill="#483a34" fill-rule="nonzero" d="m581.412509,308.37874c0,0 47.177501,124.112502 -141.238752,131.543752l1.87125,42.026251c0,0 -18.81375,-13.36 -20.85125,5.79875c-2.34625,22.06 17.84125,9.995 17.84125,9.995c0,0 -11.31375,51.823751 -28.33125,72.633751c-2.9475,-2.82 -89.288751,-182.390003 -3.38,-183.193753c0.05625,-5.08875 6.06,-39.965001 53.548751,-54.158751c71.827501,-21.4675 78.702501,35.428751 120.540002,-24.645" id="path74"/>
  <path fill="#483a34" fill-rule="nonzero" d="m487.602507,473.371242c1.9375,7.18875 0.495,13.82625 -3.22125,14.82875c-3.715,1.00125 -8.29875,-4.01375 -10.23625,-11.20125c-1.93625,-7.1875 -0.49375,-13.82625 3.2225,-14.82875c3.715,-1.00125 8.29875,4.01375 10.235,11.20125" id="path76"/>
  <path fill="#483a34" fill-rule="nonzero" d="m566.102508,451.423742c1.9375,7.1875 0.495,13.82625 -3.22,14.8275c-3.71625,1.00125 -8.3,-4.01375 -10.2375,-11.20125c-1.9375,-7.1875 -0.49375,-13.82625 3.22125,-14.8275c3.71625,-1.0025 8.29875,4.0125 10.23625,11.20125" id="path78"/>
  <path fill="#fbd6b1" fill-rule="nonzero" d="m408.800006,674.293745c0,0 18.3325,12.49625 24.6375,-2.75c6.30625,-15.245 -16.0275,-15.555 -16.0275,-15.555l-8.61,18.305" id="path80"/>
  <path fill="#f8f8f8" fill-rule="nonzero" d="m415.037506,653.747495l5.01875,1.63l-10.29,20.08875l-4.79625,-2.40125l10.0675,-19.3175" id="path82"/>
  <path fill="#3b393d" fill-rule="nonzero" d="m406.478756,571.016244c0,0 -141.388752,31.51375 -0.815,104.626252l12.53625,-22.43c0,0 -101.106252,-43.538751 -9.115,-59.490001l-2.60625,-22.70625" id="path84"/>
  <path fill="#66686d" fill-rule="nonzero" d="m395.728756,666.836245c1.22625,0.43 2.57,-0.2125 3.0025,-1.435c0.4275,-1.2275 -0.215,-2.56875 -1.43875,-3c-1.22125,-0.43375 -2.56625,0.21125 -3.00125,1.43125c-0.43,1.2275 0.21375,2.57125 1.4375,3.00375" id="path86"/>
  <path fill="#66686d" fill-rule="nonzero" d="m402.688756,670.784995c1.2275,0.4325 2.5675,-0.21125 3.0025,-1.43625c0.43125,-1.2225 -0.21125,-2.56625 -1.43625,-2.9975c-1.22625,-0.43 -2.56875,0.21125 -3.00125,1.435c-0.43125,1.22375 0.21,2.5675 1.435,2.99875" id="path88"/>
  <path fill="#ec6180" fill-rule="nonzero" d="m556.852508,497.603743c0,0 -35.502501,4.69125 -55.937501,15.1625c0,0 2.79375,29.09125 35.687501,21.185c32.55875,-7.82625 20.25,-36.347501 20.25,-36.347501" id="path90"/>
  <path fill="#dddddd" fill-rule="nonzero" d="m252.177504,896.492123c0,0 4.65625,-4.437 11.725,-10.929625c7.07125,-6.47025 16.50125,-15.09625 25.93,-23.7225c4.75,-4.2675 9.42125,-8.62125 13.8525,-12.64875c4.4225,-4.045 8.55,-7.81875 12.0875,-11.055c3.5625,-3.22375 6.53125,-5.91125 8.61,-7.7925c2.0975,-1.8675 3.32625,-2.91 3.32625,-2.91c0,0 -0.98375,1.27125 -2.75375,3.45625c-1.76625,2.1875 -4.32875,5.2825 -7.56,8.8525c-0.8025,0.9 -1.6375,1.83625 -2.50125,2.80375c-0.89,0.94625 -1.81,1.9225 -2.755,2.92625c-1.89875,2.00125 -3.87375,4.14125 -6.02625,6.2425c-2.14375,2.1125 -4.29125,4.36625 -6.61375,6.50875c-2.295,2.17 -4.61625,4.3875 -6.9875,6.55c-2.38125,2.15375 -4.77875,4.28625 -7.16,6.3625c-2.355,2.10625 -4.77875,4.056125 -7.07625,5.9975c-2.29875,1.9415 -4.59375,3.73 -6.75,5.44875c-2.16625,1.7085 -4.235,3.296375 -6.17125,4.73c-7.69875,5.787625 -13.17625,9.179625 -13.17625,9.179625" id="path92"/>
  <path fill="#dddddd" fill-rule="nonzero" d="m248.347504,977.296375c0,0 8.2125,-7.985375 20.74875,-19.693875c3.13625,-2.92375 6.53375,-6.09125 10.1275,-9.442375c3.60375,-3.34025 7.4025,-6.860375 11.3325,-10.502875c7.8775,-7.26375 16.27875,-15.00975 24.68125,-22.755875c8.40875,-7.736375 16.8175,-15.47125 24.7,-22.724125c3.92875,-3.638625 7.7275,-7.15475 11.33,-10.48975c3.58875,-3.351125 6.98125,-6.517625 10.11375,-9.44125c3.14875,-2.90875 5.9575,-5.65125 8.50375,-8.03c1.2675,-1.195 2.455,-2.31375 3.5525,-3.3475c1.08125,-1.05 2.07375,-2.01375 2.97125,-2.88375c3.6175,-3.46625 5.68375,-5.445 5.68375,-5.445c0,0 -1.8575,2.1775 -5.11,5.98875c-0.82,0.9475 -1.72875,1.9975 -2.71625,3.14125c-1.0175,1.115 -2.1175,2.32125 -3.2925,3.61125c-2.3675,2.56125 -4.9825,5.515 -7.9825,8.585c-2.98,3.08975 -6.165,6.48875 -9.6575,9.952625c-3.485,3.471125 -7.10625,7.193875 -10.98625,10.897375c-3.86875,3.717375 -7.7975,7.634875 -11.93375,11.457625c-4.11875,3.844625 -8.3025,7.7485 -12.48625,11.65375c-4.23875,3.841375 -8.47875,7.683625 -12.6525,11.46725c-4.165,3.790125 -8.36625,7.40625 -12.38375,10.96c-4.015,3.556125 -7.97375,6.90625 -11.7,10.11375c-3.7325,3.20025 -7.29375,6.189 -10.59,8.936c-6.585,5.505375 -12.14625,10.005375 -16.06375,13.1265c-3.9175,3.120125 -6.19,4.86525 -6.19,4.86525" id="path94"/>
  <path fill="#dddddd" fill-rule="nonzero" d="m366.875005,940.196249c0,0 5.495,-5.022375 13.8075,-12.4125c8.3125,-7.3765 19.39625,-17.2115 30.47875,-27.045c11.1,-9.816375 22.2,-19.631375 30.525,-26.99375c4.19875,-3.6575 7.6975,-6.70625 10.14625,-8.83875c2.47125,-2.1175 3.91,-3.3 3.91,-3.3c0,0 -1.20125,1.42 -3.35375,3.8625c-2.15375,2.44 -5.24875,5.91125 -9.12125,9.922375c-1.92,2.0225 -3.99875,4.21625 -6.27875,6.452625c-2.2675,2.2485 -4.61875,4.666 -7.15875,7.04975c-2.5375,2.38625 -5.09125,4.93025 -7.81375,7.375c-2.71375,2.45275 -5.43375,4.985375 -8.22,7.445375c-2.81125,2.431125 -5.6225,4.86225 -8.38875,7.255875c-2.765,2.3965 -5.5725,4.65275 -8.265,6.86525c-2.675,2.231375 -5.35375,4.27725 -7.85875,6.25725c-2.5175,1.96875 -4.92375,3.7955 -7.16625,5.452625c-4.46125,3.34525 -8.2825,6 -10.97,7.835c-2.69625,1.826125 -4.2725,2.816375 -4.2725,2.816375" id="path96"/>
  <path fill="#fbd6b1" fill-rule="nonzero" d="m657.88751,370.599991c0.62625,-7.96375 -2.17,-14.345 0.23875,-14.955c3.35625,-0.85 5.63375,10.09625 5.63375,10.09625l-5.8725,4.85875" id="path98"/>
 </g>
</svg>