<svg width="999.9999999999999" height="750" xmlns="http://www.w3.org/2000/svg">
 <metadata id="metadata8">image/svg+xml</metadata>
 <defs>
  <clipPath clipPathUnits="userSpaceOnUse" id="clipPath130">
   <path d="m4822.77,4450.85c-6.3,25.95 -11.43,52.42 -15.35,79.36c40.34,13.97 79.92,27.48 117.01,39.88c3.8,-33 9.73,-65.28 17.61,-96.6c-37.84,-7.4 -78.18,-15.04 -119.27,-22.64m320.59,66.97c-9.41,36.19 -15.25,74.42 -17.03,113.93c45.17,11.66 104.39,26.37 134.3,32.49c7.87,1.61 15.56,2.91 23.06,3.93c-0.93,-37.28 3.15,-73.33 11.36,-106.72c-2.2,-0.76 -4.42,-1.51 -6.67,-2.24c-31.73,-10.34 -99,-29.06 -145.02,-41.39" id="path132"/>
  </clipPath>
 </defs>
 <g>
  <title>background</title>
  <rect fill="none" id="canvas_background" height="402" width="582" y="-1" x="-1"/>
 </g>
 <g>
  <title>Layer 1</title>
  <path fill="#eeeeee" fill-rule="nonzero" d="m246.197504,697.580999c-60.447501,0 -109.448752,-6.219625 -109.448752,-13.8935c0,-7.673875 49.001251,-13.8935 109.448752,-13.8935c60.446251,0 109.447502,6.219625 109.447502,13.8935c0,7.673875 -49.001251,13.8935 -109.447502,13.8935" id="path16"/>
  <path fill="#fbd6b1" fill-rule="nonzero" d="m354.905005,326.487494c0,0 -3.78375,-17.5875 -14.9375,-12.745c-11.09375,4.8175 -1.3875,18.9725 -1.3875,18.9725l16.325,-6.2275" id="path18"/>
  <path fill="#f8f8f8" fill-rule="nonzero" d="m338.385005,335.769994l-1.81875,-4.26125l18.77625,-6.5775l1.54375,4.3675l-18.50125,6.47125" id="path20"/>
  <path fill="#3c3b3d" fill-rule="nonzero" d="m303.852505,471.467496c0,0 104.156252,-32.0975 53.810001,-143.938752l-20.7925,7.82c0,0 38.735001,85.236251 -35.793751,115.812502l2.77625,20.30625" id="path22"/>
  <path fill="#7a7b7c" fill-rule="nonzero" d="m358.566255,338.958744c-0.50375,-1.0025 -1.725,-1.4075 -2.72625,-0.90625c-1.0025,0.5075 -1.4075,1.7275 -0.90375,2.72875c0.5,1.00125 1.72375,1.40625 2.725,0.90625c1.0025,-0.50375 1.4075,-1.72625 0.905,-2.72875" id="path24"/>
  <path fill="#7a7b7c" fill-rule="nonzero" d="m356.603755,332.331244c-0.505,-1.00375 -1.72375,-1.40625 -2.72875,-0.905c-1.00125,0.5025 -1.40625,1.72375 -0.9025,2.725c0.505,1.0025 1.725,1.40875 2.7275,0.90625c1.00125,-0.5025 1.4075,-1.7225 0.90375,-2.72625" id="path26"/>
  <path fill="#fbd6b1" fill-rule="nonzero" d="m150.952502,482.578746c0,0 -34.576001,-128.601252 44.173751,-151.772502c100.386251,-29.53625 104.673752,127.335002 104.673752,127.335002l-148.847502,24.4375" id="path28"/>
  <path fill="#3c3b3d" fill-rule="nonzero" d="m301.076254,451.161246l-13.33875,2.22625l-34.496251,68.578751l-57.445001,-52.285001l-49.207501,9.5c10.15,35.411251 22.8525,94.922501 22.88875,148.736252l-8.46125,52.077626c0,0 47.761251,14.376 39.962501,-1.180125c-10.92375,-21.787625 -31.3025,-7.65 -31.3025,-7.65l14.3025,-40.959876l8.0125,-29.653875c61.383751,4.6825 94.421251,-3.58625 94.421251,-3.58625l1.16625,31.96375l-10.01125,50.718751c0,0 55.487501,14.856375 37.541251,-6.68125c-13.735,-16.483875 -29.4425,-1.083875 -29.4425,-1.083875l17.55125,-42.466376c9.10375,-66.082251 12.955,-115.956002 -2.14125,-178.254753" id="path30"/>
  <path fill="#f8f8f8" fill-rule="nonzero" d="m287.737504,453.387496l-34.496251,68.578751l-57.445001,-52.285001l91.941251,-16.29375" id="path32"/>
  <path fill="#7a7b7c" fill-rule="nonzero" d="m287.737504,453.387496l5.13625,25.87625l-14.15,5.5425l5.4975,19.42l-30.98,17.74l34.496251,-68.578751" id="path34"/>
  <path fill="#7a7b7c" fill-rule="nonzero" d="m253.241254,521.966247l-34.715001,-9.9925l-1.3675,-14.5775l-16.41125,-2.90875l-4.95125,-24.80625l57.445001,52.285001" id="path36"/>
  <path fill="#b24929" fill-rule="nonzero" d="m257.983754,471.704996l-6.10375,-6.39875l-12.56875,1.735l-3.07375,9.525l6.04875,5.0175l-2.01375,28.62875l12.96875,11.75375l9.17125,-18.215l-9,-23.8175l4.57125,-8.22875" id="path38"/>
  <path fill="#7a7b7c" fill-rule="nonzero" d="m249.407504,535.057497c0.88125,2.19125 3.37125,3.25125 5.5625,2.37c2.19125,-0.87875 3.25125,-3.36875 2.3725,-5.56125c-0.88,-2.19125 -3.3725,-3.25 -5.56,-2.3725c-2.1925,0.88375 -3.25625,3.3725 -2.375,5.56375" id="path40"/>
  <path fill="#7a7b7c" fill-rule="nonzero" d="m248.327504,552.533747c0.88125,2.1925 3.37125,3.25125 5.5625,2.37125c2.19125,-0.88 3.25125,-3.36875 2.37125,-5.5625c-0.88,-2.19 -3.37125,-3.25 -5.55875,-2.37125c-2.19375,0.8825 -3.25625,3.37125 -2.375,5.5625" id="path42"/>
  <path fill="#52423b" fill-rule="nonzero" d="m278.421254,266.688743c0,0 44.752501,95.701251 -109.362502,107.697502l2.82375,33.19c0,0 -15.31125,-9.96875 -16.31125,5.255c-1.15125,17.5275 14.43375,7.3375 14.43375,7.3375c0,0 -7.295,41.362501 -20.09375,58.371251c-2.4225,-2.1375 -76.469876,-141.450002 -8.52625,-144.831252c-0.1175,-4.02625 3.5175,-31.81125 40.635001,-44.558751c56.142501,-19.28 65.220001,26.40375 96.401251,-22.46125" id="path44"/>
  <path fill="#52423b" fill-rule="nonzero" d="m208.811253,400.143745c1.585,5.6775 0.49,10.94375 -2.445,11.76375c-2.935,0.81875 -6.6,-3.11875 -8.18375,-8.79625c-1.585,-5.6775 -0.49,-10.94375 2.445,-11.76375c2.935,-0.81875 6.59875,3.11875 8.18375,8.79625" id="path46"/>
  <path fill="#52423b" fill-rule="nonzero" d="m270.810004,382.207495c1.585,5.6775 0.49,10.94375 -2.445,11.7625c-2.935,0.82 -6.6,-3.11875 -8.18375,-8.79625c-1.585,-5.6775 -0.49125,-10.94375 2.44375,-11.7625c2.93625,-0.82 6.6,3.11875 8.185,8.79625" id="path48"/>
  <path fill="#ec6180" fill-rule="nonzero" d="m262.875004,416.026245c0,0 -27.97125,4.66 -43.861251,13.4925c0,0 2.9875,22.9475 28.8075,15.81125c25.55625,-7.0625 15.05375,-29.30375 15.05375,-29.30375" id="path50"/>
  <path fill="#fbd6b1" fill-rule="nonzero" d="m159.693752,588.241248c0,0 13.7675,10.9125 19.615,-0.76875c5.8475,-11.68125 -11.77375,-13.1975 -11.77375,-13.1975l-7.84125,13.96625" id="path52"/>
  <path fill="#f8f8f8" fill-rule="nonzero" d="m165.790002,572.369997l3.87125,1.5725l-9.27125,15.28l-3.65125,-2.17l9.05125,-14.6825" id="path54"/>
  <path fill="#3c3b3d" fill-rule="nonzero" d="m146.588752,479.181246c0,0 -91.492126,53.826251 10.55125,109.946252l11.1775,-17c0,0 -81.278376,-34.390001 -15.91625,-76.303751l-5.8125,-16.6425" id="path56"/>
  <path fill="#7a7b7c" fill-rule="nonzero" d="m149.795002,581.607497c0.94375,0.41 2.04125,-0.02125 2.4525,-0.96125c0.4075,-0.94625 -0.0225,-2.0425 -0.965,-2.4525c-0.94,-0.41125 -2.03875,0.02125 -2.45125,0.96c-0.41,0.94375 0.02125,2.0425 0.96375,2.45375" id="path58"/>
  <path fill="#7a7b7c" fill-rule="nonzero" d="m155.067502,585.122498c0.94375,0.41125 2.03875,-0.02 2.4525,-0.96375c0.41,-0.94125 -0.02125,-2.03875 -0.96375,-2.44875c-0.94375,-0.41 -2.04125,0.02 -2.45125,0.9625c-0.41125,0.94125 0.01875,2.04 0.9625,2.45" id="path60"/>
  <path fill="#eeeeee" fill-rule="nonzero" d="m768.885011,693.958499c-48.032501,0 -86.971251,-4.942375 -86.971251,-11.0395c0,-4.05525 17.22375,-7.600125 42.888751,-9.519125c-1.935,3.455125 -2.2475,6.838875 1.63125,8.8765c0.8425,0.442375 1.68875,0.642625 2.53375,0.642625c4.35875,0 8.62875,-5.358 11.7025,-10.446375c8.8475,-0.38525 18.3375,-0.59375 28.215,-0.59375c48.032501,0 86.971251,4.942375 86.971251,11.040125c0,6.097125 -38.938751,11.0395 -86.971251,11.0395" id="path62"/>
  <path fill="#fbd6b1" fill-rule="nonzero" d="m671.53876,415.739995c-1.0825,-8.115 -6.00625,-12.66 -10.50375,-8.67c-3.96125,3.51625 -0.3775,8.8025 -0.24125,11.605l10.745,-2.935" id="path64"/>
  <path fill="#fbd6b1" fill-rule="nonzero" d="m746.050011,537.054997l-6.12125,69.612501l5.31875,56.823751c0,0 -9.685,23.578625 -18.81375,18.785125c-10.485,-5.505375 9.655,-20.848625 9.655,-20.848625l-12.46125,-51.265251l-5.50125,-68.322501l27.92375,-4.785" id="path66"/>
  <path fill="#52423b" fill-rule="nonzero" d="m745.247511,663.491249l2.0625,17.7885l-2.64375,0.004l-1.24125,-5.266125c0,0 -2.86625,6.7275 -13.24375,9.898375c-21.18375,6.472625 -5.1125,-17.09475 5.9075,-24.48825c0,0 -14.94375,11.148375 -8.28375,14.55075c10.41875,5.32125 17.4425,-12.48725 17.4425,-12.48725" id="path68"/>
  <path fill="#fbd6b1" fill-rule="nonzero" d="m788.066262,533.377497l-5.0575,64.693751l36.191251,22.9525c0,0 10.6575,23.155 0.92875,26.57c-11.17375,3.921375 -8.68,-21.273875 -8.68,-21.273875l-45.806251,-19.834875l-5.5,-68.323751l27.92375,-4.78375" id="path70"/>
  <path fill="#52423b" fill-rule="nonzero" d="m819.200012,621.023748l12.5125,7.106125l-1.34875,2.683625l-4.38,-1.379875c0,0 4.11375,8.140125 -0.6375,17.8965c-9.6975,19.916 -15.995,-7.90625 -13.8975,-21.01025c0,0 -2.02375,18.535125 5.005,15.979c10.99375,-4 2.74625,-21.275125 2.74625,-21.275125" id="path72"/>
  <path fill="#b24929" fill-rule="nonzero" d="m710.515011,563.626247l83.171251,7.88l-0.035,-35.741251l-78.330001,-5.54375l-4.80625,33.405" id="path74"/>
  <path fill="#80a992" fill-rule="nonzero" d="m794.093762,545.604997l-0.4325,-0.0675l-0.01,-9.7725l0.4425,9.84m-79.207501,-12.36l0,0l0.435,-3.02375l-0.435,3.02375" id="path76"/>
  <path fill="#9e4126" fill-rule="nonzero" d="m793.661262,545.537497l-78.775001,-12.2925l0.435,-3.02375l78.330001,5.54375l0.01,9.7725" id="path78"/>
  <path fill="#fbd6b1" fill-rule="nonzero" d="m775.585012,402.513745l-1.64375,23.23125c0,0 10.955,28.41 -14.4625,27.24625c-25.4175,-1.16375 -10.48,-29.0125 -10.48,-29.0125l1.645,-23.23125l24.94125,1.76625" id="path80"/>
  <path fill="#f9ad2b" fill-rule="nonzero" d="m803.195012,436.633745l-29.25375,-10.88875c0,0 10.955,28.41 -14.4625,27.24625c-25.4175,-1.16375 -10.48,-29.0125 -10.48,-29.0125l-28.43125,6.205l0.31875,67.455001l-11.71125,32.1475l89.945001,6.52875l-5.92875,-33.558751l10.00375,-66.122501" id="path82"/>
  <path fill="#8bb79a" fill-rule="nonzero" d="m774.368762,419.697495l1.21625,-17.18375l-24.94125,-1.76625l24.9425,1.76625l-1.2175,17.18375l0,0" id="path84"/>
  <path fill="#f3ceaa" fill-rule="nonzero" d="m767.266261,420.191245c-2.36875,0 -4.7525,-0.165 -7.14,-0.505c-3.7175,-0.53 -7.2675,-1.4625 -10.63,-2.745l1.1475,-16.19375l24.94125,1.76625l-1.21625,17.18375c-2.34375,0.32625 -4.715,0.49375 -7.1025,0.49375" id="path86"/>
  <path fill="#52423b" fill-rule="nonzero" d="m810.907512,329.071244c0,0 31.8075,-33.3525 59.531251,-10.41625c36.708751,30.3725 -33.606251,88.637501 16.505,102.226252c-27.84125,30.06125 -71.751251,-1.21625 -45.830001,-44.735001c25.70625,-43.160001 -0.575,-69.192501 -30.20625,-47.075001" id="path88"/>
  <path fill="#fbd6b1" fill-rule="nonzero" d="m722.610011,341.966244c-7.74625,33.925001 4.3375,65.153751 33.602501,73.512501c29.26375,8.36 61.785001,-10.8575 71.071251,-43.368751c9.2875,-32.51125 -6.9075,-65.643751 -36.172501,-74.002501c-50.766251,-14.50125 -60.973751,10.89625 -68.501251,43.858751" id="path90"/>
  <path fill="#52423b" fill-rule="nonzero" d="m811.643762,335.438744c0,0 -50.030001,-1.25 -89.852501,-17.3025c13.85625,-37.023751 55.022501,-56.728751 100.121251,-25.76c49.965001,34.310001 9.7975,96.306251 -17.465,113.220002c-3.70875,-18.23375 -0.9475,-34.761251 -0.9475,-34.761251c0,0 10.55625,7.85 11.71,-4.245c0.825,-8.64875 -9.86875,-5.99875 -9.86875,-5.99875l6.3025,-25.1525" id="path92"/>
  <path fill="#52423b" fill-rule="nonzero" d="m780.415012,356.316244c-1.15625,4.5225 -0.2975,8.6475 1.91875,9.215c2.21625,0.5675 4.95125,-2.63875 6.10875,-7.16c1.15625,-4.5225 0.2975,-8.6475 -1.91875,-9.215c-2.21625,-0.56625 -4.95125,2.63875 -6.10875,7.16" id="path94"/>
  <path fill="#52423b" fill-rule="nonzero" d="m736.035011,344.959994c-1.1575,4.5225 -0.29875,8.6475 1.91875,9.215c2.21625,0.5675 4.95125,-2.63875 6.1075,-7.16c1.1575,-4.5225 0.29875,-8.6475 -1.9175,-9.215c-2.21625,-0.5675 -4.95125,2.63875 -6.10875,7.16" id="path96"/>
  <path fill="#ec6180" fill-rule="nonzero" d="m741.631261,380.816244c4.7425,-0.08125 23.8325,4.0525 28.95125,5.77875c0,0 -2.83,14.16375 -17.315,11.42c-13.4225,-2.5425 -11.63625,-17.19875 -11.63625,-17.19875" id="path98"/>
  <path fill="#f9ad2b" fill-rule="nonzero" d="m732.722511,435.549995c-23.5475,72.900001 -59.285001,60.145001 -73.545001,-17.545l13.73125,-3.41625c5.25,26.1675 22.99375,91.218751 47.658751,15.595l12.155,5.36625" id="path100"/>
  <path fill="#fbd6b1" fill-rule="nonzero" d="m848.275013,426.119995c1.79375,-7.9875 7.0975,-12.08125 11.22625,-7.71c3.63625,3.85 -0.39875,8.80125 -0.78125,11.58125l-10.445,-3.87125" id="path102"/>
  <path fill="#f9ad2b" fill-rule="nonzero" d="m790.615012,440.908745c17.035,74.691251 48.725001,64.688751 69.773751,-11.4425l-13.37625,-4.61375c-7.535,25.605 -25.90875,89.285001 -43.817501,11.78125l-12.58,4.275" id="path104"/>
  <path fill="#f8f8f8" fill-rule="nonzero" d="m678.46751,264.273743l2.39875,0.1325c-0.805,-0.045 -1.5975,-0.1325 -2.395,-0.20125l-0.00375,0.06875" id="path106"/>
  <path fill="#e9e8e7" fill-rule="nonzero" d="m746.510011,82.68749c-11.63875,-7.90125 -25.12875,-12.77375 -39.698751,-13.57875l-15.11875,-0.8825c47.692501,2.6325 83.930001,48.682501 80.941251,102.856252c-2.99,54.172501 -44.075001,95.955001 -91.767501,93.323751l15.11875,0.8825c12.97125,0.71625 25.44375,-1.875 36.805001,-7.08625c30.4075,-13.9475 52.785001,-46.798751 54.961251,-86.237501c2.0775,-37.625001 -14.77875,-71.313751 -41.241251,-89.277501" id="path108"/>
  <path fill="#f5f5f5" fill-rule="nonzero" d="m772.633762,171.081241c-2.99,54.173751 -44.075001,95.956251 -91.767501,93.325001c-47.691251,-2.6325 -83.930001,-48.682501 -80.940001,-102.855002c2.99,-54.173751 44.075001,-95.956251 91.766251,-93.325001c47.692501,2.6325 83.930001,48.682501 80.941251,102.855002" id="path110"/>
  <path fill="#f5f5f5" fill-rule="nonzero" d="m772.633762,171.081241c-2.99,54.173751 -44.075001,95.956251 -91.767501,93.325001c-47.691251,-2.6325 -83.930001,-48.682501 -80.940001,-102.855002c2.99,-54.173751 44.075001,-95.956251 91.766251,-93.325001c47.692501,2.6325 83.930001,48.682501 80.941251,102.855002" id="path112"/>
  <path fill="#f5f5f5" fill-rule="nonzero" d="m680.86626,264.406243l24.7525,21.13125l-3.3925,-22.93875l-21.36,1.8075" id="path114"/>
  <path fill="#e3e2e0" fill-rule="nonzero" d="m705.618761,285.537493l17.875,-2.5225l-1.52375,-20.75875l-19.74375,0.3425l3.3925,22.93875" id="path116"/>
  <path fill="#b24929" fill-rule="nonzero" d="m731.728761,168.823741c-1.74,31.5325 -23.545,56.061251 -48.605001,54.677501c-25.06125,-1.3825 -44.033751,-28.16125 -42.293751,-59.693751c1.74,-31.53125 23.545,-56.058751 48.605001,-54.676251c25.06,1.38375 44.033751,28.16125 42.293751,59.692501m-40.872501,-85.446251c-39.262501,-2.1675 -73.256251,33.27625 -75.781251,79.008751c-2.52375,45.733751 27.365,84.703751 66.627501,86.870001c39.261251,2.16625 73.256251,-33.2775 75.780001,-79.011251c2.52375,-45.732501 -27.36375,-84.701251 -66.626251,-86.867501" id="path118"/>
  <path fill="#b24929" fill-rule="nonzero" d="m684.21001,203.807492c-13.96,-0.77125 -24.80625,-18.59125 -23.685,-38.912501c1.12125,-20.3225 13.8625,-36.838751 27.82375,-36.068751c13.96,0.77 24.80625,18.58875 23.685,38.911251c-1.12125,20.32125 -13.86375,36.840001 -27.82375,36.070001" id="path120"/>
  <path fill="#f8ab29" fill-rule="nonzero" d="m594.523759,147.534991l-38.058751,-8.1275l-5.9725,-15.51c-0.73875,-1.9175 0.855,-3.9225 2.89,-3.63625l27.90625,3.92375c5.3975,0.75875 9.7125,4.86875 10.73375,10.2225l2.50125,13.1275" id="path122"/>
  <path fill="#f0a627" fill-rule="nonzero" d="m594.523759,147.534991l-38.058751,-8.1275l-11.7875,11.71875c-1.4575,1.44875 -0.82125,3.92875 1.1525,4.49875l27.07625,7.81875c5.235,1.51125 10.85375,-0.4775 13.97125,-4.9475l7.64625,-10.96125" id="path124"/>
  <g transform="matrix(0.12500000186264515,0,0,-0.12500000186264515,0,749.9999999999999) " id="g126">
   <g id="g128" clip-path="url(#clipPath130)">
    <path fill="#dcdbd9" fill-rule="nonzero" d="m4807.42,4450.85l487.629,0l0,217.32l-487.629,0l0,-217.32z" id="path134"/>
   </g>
  </g>
  <path fill="#9e4125" fill-rule="nonzero" d="m617.755009,190.813742c-0.985,-3.915 -1.72625,-7.95 -2.20125,-12.075c9.0325,-3.02125 16.88375,-5.51 21.95,-6.84875c0.98375,-0.26 2.09625,-0.55125 3.2875,-0.85875c0.2225,4.93875 0.9525,9.7175 2.12875,14.24125c-0.62,0.165 -1.2075,0.3225 -1.75625,0.4675c-5.23625,1.3825 -13.66375,3.1675 -23.40875,5.07375" id="path136"/>
  <path fill="#9e4125" fill-rule="nonzero" d="m661.88126,179.818742c-1.02625,-4.17375 -1.53625,-8.68 -1.42,-13.34c2.0625,-0.28125 4.00375,-0.395 5.7975,-0.395c4.3075,0 7.76875,0.66 10.0225,1.25625l6.98,-1.845l1.54875,3.0125l-7.68375,2.03125c-2.58,2.52875 -7.6075,6.62375 -15.245,9.28" id="path138"/>
  <path fill="#f9ad2b" fill-rule="nonzero" d="m641.07876,150.153741c-17.12875,-3.65875 -67.801251,-9.9025 -88.275001,-12.3575c-0.9875,-0.1175 -1.2875,1.29125 -0.33875,1.58625c19.69125,6.12375 68.492501,21.1225 85.621251,24.78c5.7125,1.22 15.7225,3.24375 20.28875,3.95125l2.835,-13.28c-4.45625,-1.21875 -14.42,-3.46125 -20.13125,-4.68" id="path140"/>
  <path fill="#e9e8e7" fill-rule="nonzero" d="m684.79001,165.119991l-7.06125,-1.5075c-2.79625,-2.49 -8.29375,-6.53 -16.51875,-8.77875l-2.835,13.28c8.425,1.30625 15.09375,-0.135 18.6625,-1.26625l7.7725,1.66l-0.02,-3.3875" id="path142"/>
  <path id="svg_1" stroke-opacity="null" stroke-width="null" fill="#91bea0"/>
  <path d="m199.499725,177.499741c0.5,0 4.5,0 12.999985,0c11.999985,0 24.528427,-0.322235 31.999954,0.5c6.537003,0.719391 10,2 14.5,3.5c2.999969,1 5.882111,2.763519 8.999969,4c4.852509,1.924393 8.885864,3.692627 13,5.999985c1.950287,1.093796 4.499969,2.5 4.999969,3.5l0.5,0" id="svg_5" stroke-opacity="null" stroke-width="null" fill="none"/>
  <path d="m260.499664,218.499695c0,-0.5 0.371338,-2.24675 2.999969,-6.5c4.114471,-6.657394 5.52417,-11.779633 9.5,-17.999969c2.69278,-4.212952 5.157867,-7.414291 7.5,-8.999985c3.153198,-2.134811 8.08783,-2.803513 10.499969,-4c2.611816,-1.295532 4,-1.5 6.5,-1.5c2,0 3.796722,0.741928 5.5,3c3.100006,4.109756 4.765503,9.812225 5.999969,16.499969c1.364441,7.391769 0.5,11.499985 0.5,15.499985l0,2.5l-0.5,1l-0.5,0" id="svg_6" stroke-opacity="null" stroke-width="3" fill="none"/>
  <g id="svg_8">
   <path fill="#dddddd" fill-rule="nonzero" d="m528.135008,137.503741l-0.15625,-0.01c-0.0275,-0.0025 -2.72625,-0.33625 -7.37,-0.51375c-0.68875,-0.02625 -1.2275,-0.60625 -1.20125,-1.29625c0.0275,-0.69125 0.6575,-1.215 1.29625,-1.2025c4.76625,0.1825 7.4725,0.51875 7.58625,0.5325c0.685,0.08625 1.16875,0.71125 1.08375,1.395c-0.07875,0.6325 -0.6175,1.095 -1.23875,1.095" id="path144"/>
   <path fill="#dddddd" fill-rule="nonzero" d="m488.61705,139.24881c-0.69215,0 -1.29323,-0.5462 -1.3871,-1.29892c-0.10229,-0.81855 0.43714,-1.57126 1.20356,-1.68051c5.61708,-0.7976 11.31822,-1.35727 16.94651,-1.66404c0.751,-0.0434 1.43055,0.59109 1.46978,1.41713c0.04063,0.82604 -0.55485,1.52937 -1.32826,1.57127c-5.55263,0.30228 -11.17672,0.85447 -16.71814,1.6416l-0.18635,0.01347zm-32.97671,7.70221c-0.59687,0 -1.15031,-0.41302 -1.33666,-1.05499c-0.22979,-0.78863 0.18354,-1.62664 0.92193,-1.87206c5.34667,-1.77179 10.88108,-3.3281 16.45053,-4.62402c0.7594,-0.18107 1.5034,0.3367 1.66733,1.14329c0.16533,0.80658 -0.31385,1.60419 -1.07046,1.78077c-5.49098,1.27796 -10.94693,2.81182 -16.21653,4.55818c-0.13871,0.04639 -0.27883,0.06883 -0.41614,0.06883zm-31.14965,13.80622c-0.5016,0 -0.98498,-0.28732 -1.23858,-0.79312c-0.36289,-0.72876 -0.10369,-1.63561 0.58006,-2.02469c4.94594,-2.81332 10.12448,-5.41863 15.39128,-7.7471c0.71457,-0.31575 1.53422,0.04639 1.82986,0.80957c0.29563,0.76319 -0.04344,1.63861 -0.75801,1.95436c-5.18413,2.29256 -10.28,4.85747 -15.14748,7.6259c-0.20877,0.11971 -0.43575,0.17508 -0.65713,0.17508zm-27.99573,20.03892c-0.40212,0 -0.80144,-0.18406 -1.07746,-0.54022c-0.49459,-0.63449 -0.41333,-1.57875 0.18215,-2.10699c4.34066,-3.85186 8.92652,-7.51067 13.63147,-10.87468c0.64171,-0.45941 1.51321,-0.27684 1.94335,0.41002c0.43014,0.68687 0.25781,1.61617 -0.38391,2.07707c-4.62509,3.30715 -9.13388,6.90461 -13.40029,10.68912c-0.262,0.23345 -0.58006,0.34568 -0.89531,0.34568zm-23.5682,25.71046c-0.30545,0 -0.61509,-0.10625 -0.8729,-0.32773c-0.60528,-0.51477 -0.70336,-1.45604 -0.21997,-2.1025c3.54763,-4.74673 7.33765,-9.32586 11.25938,-13.60869c0.54223,-0.5896 1.42914,-0.60157 1.98118,-0.02394c0.55344,0.57762 0.56325,1.52637 0.02242,2.11597c-3.85728,4.2125 -7.58425,8.71531 -11.07444,13.38422c-0.27602,0.36962 -0.68374,0.56267 -1.09567,0.56267zm-13.38208,33.03107c-0.15132,0 -0.30544,-0.02694 -0.45676,-0.08231c-0.73139,-0.27085 -1.11949,-1.12233 -0.86729,-1.90348c1.87329,-5.78227 3.93293,-11.46727 6.12568,-16.89787c0.30545,-0.7587 1.13211,-1.11037 1.84247,-0.78265c0.71037,0.32773 1.03683,1.20764 0.73139,1.96783c-2.16473,5.36327 -4.20055,10.97794 -6.05003,16.68987c-0.20036,0.61953 -0.74399,1.00861 -1.32546,1.00861zm-8.90971,34.72355l-0.28863,-0.03292c-0.758,-0.1691 -1.24279,-0.96221 -1.08306,-1.7703c1.17274,-5.98578 2.5066,-11.90722 3.96096,-17.6012c0.20456,-0.79611 0.97518,-1.2645 1.72057,-1.05051c0.7468,0.21848 1.18675,1.04153 0.98359,1.83764c-1.44035,5.63861 -2.7602,11.50019 -3.92313,17.42762c-0.13871,0.70482 -0.72158,1.18967 -1.3703,1.18967" id="path146"/>
   <path fill="#dddddd" fill-rule="nonzero" d="m347.278755,298.796243l-0.16125,-0.01c-0.685,-0.08875 -1.16875,-0.715 -1.08,-1.4c0.32,-2.48625 0.675,-4.995 1.05375,-7.4575c0.10375,-0.6825 0.74625,-1.1475 1.425,-1.045c0.6825,0.105 1.15,0.7425 1.045,1.425c-0.375,2.4425 -0.72625,4.93125 -1.045,7.3975c-0.08,0.63 -0.61875,1.09 -1.2375,1.09" id="path148"/>
  </g>
 </g>
</svg>