<svg width="1000" height="750" xmlns="http://www.w3.org/2000/svg">
 <metadata id="metadata8">image/svg+xml</metadata>

 <g>
  <title>background</title>
  <rect fill="none" id="canvas_background" height="402" width="582" y="-1" x="-1"/>
 </g>
 <g>
  <title>Layer 1</title>
  <path fill="#dddddd" fill-rule="nonzero" d="m153.387502,107.27874c-1.095,0 -2.16125,0.11375 -3.20625,0.29c0.015,-0.36125 0.05375,-0.71625 0.05375,-1.0825c0,-14.6575 -11.88125,-26.54 -26.53925,-26.54c-12.67225,0 -23.253375,8.88875 -25.892,20.76625c-0.217375,-0.0075 -0.42975,-0.03375 -0.649,-0.03375c-12.367625,0 -22.395,10.02625 -22.395,22.395c0,12.36875 10.027375,22.395 22.395,22.395l56.232751,0c10.54625,0 19.095,-8.54875 19.095,-19.095c0,-10.545 -8.54875,-19.095 -19.095,-19.095" id="path16"/>
  <path fill="#dddddd" fill-rule="nonzero" d="m543.610008,105.85124c-0.97625,0 -1.92625,0.10125 -2.85875,0.25875c0.01375,-0.3225 0.05,-0.63875 0.05,-0.965c0,-13.06 -10.5875,-23.64625 -23.64625,-23.64625c-11.2925,0 -20.71875,7.91875 -23.07,18.50125c-0.19375,-0.00625 -0.3825,-0.03 -0.5775,-0.03c-11.02,0 -19.95375,8.93375 -19.95375,19.95375c0,11.02 8.93375,19.95375 19.95375,19.95375l50.102501,0c9.395,0 17.0125,-7.6175 17.0125,-17.0125c0,-9.39625 -7.6175,-17.01375 -17.0125,-17.01375" id="path18"/>
  <path fill="#dddddd" fill-rule="nonzero" d="m911.431264,183.769992c-0.65875,0 -1.3,0.06625 -1.93125,0.1675c0.10125,-0.8075 0.1575,-1.62875 0.1575,-2.46375c0,-10.96875 -8.89,-19.86 -19.8575,-19.86c-10.46625,0 -19.03625,8.09875 -19.79875,18.36875c-1.0925,-0.2675 -2.2275,-0.425 -3.40375,-0.425c-7.89125,0 -14.28875,6.3975 -14.28875,14.29c0,7.8925 6.3975,14.29 14.28875,14.29l44.833751,0c6.72875,0 12.1825,-5.455 12.1825,-12.18375c0,-6.72875 -5.45375,-12.18375 -12.1825,-12.18375" id="path20"/>
  <path fill="#dddddd" fill-rule="nonzero" d="m199.702503,225.068742c-0.65875,0 -1.3,0.0675 -1.93,0.1675c0.1,-0.8075 0.1575,-1.62875 0.1575,-2.46375c0,-10.9675 -8.89125,-19.86 -19.86,-19.86c-10.46625,0 -19.035,8.09875 -19.7975,18.37c-1.0925,-0.2675 -2.22875,-0.425 -3.40375,-0.425c-7.8925,0 -14.29,6.3975 -14.29,14.28875c0,7.8925 6.3975,14.29 14.29,14.29l44.833751,0c6.72875,0 12.18375,-5.455 12.18375,-12.18375c0,-6.72875 -5.455,-12.18375 -12.18375,-12.18375" id="path22"/>
  <path fill="#865128" fill-rule="nonzero" d="m306.001255,574.384997l12.2461,0l0,-494.573757l-12.2461,0l0,494.573757z" id="path24"/>
  <path fill="#dddddd" fill-rule="nonzero" d="m145.270002,442.496245c77.720001,-97.887501 132.771252,-193.772503 160.731252,-287.261254l0,287.261254l-160.731252,0" id="path26"/>
  <path fill="#dddddd" fill-rule="nonzero" d="m523.713758,522.448747c-31.47125,-143.052502 -101.826252,-265.495004 -205.467503,-367.213755c16.94125,124.905002 16.6025,247.258754 0,367.213755l205.467503,0" id="path28"/>
  <path fill="#d9541e" fill-rule="nonzero" d="m420.980006,155.234991l-102.732502,0l0,-75.423751l102.732502,0l-35.262501,38.742501l35.262501,36.681251" id="path30"/>
  <path fill="#77a688" fill-rule="nonzero" d="m524.048758,522.448747l-10.8,0l10.465,0c-0.0825,-0.375 -0.16625,-0.75375 -0.25,-1.12875l0.585,1.12875m-25.81375,-88.970001c-12.75125,-35.768751 -28.1775,-70.073751 -46.175001,-102.910002c1.4325,0.2525 2.80875,0.46875 4.125,0.60625c17.27625,32.47 32.165,66.292501 44.563751,101.482502c-0.83375,0.28 -1.6725,0.55375 -2.51375,0.82125" id="path32"/>
  <path fill="#cccccc" fill-rule="nonzero" d="m523.713758,522.448747l-10.465,0l-10.24125,-10.5625c-15.61375,5.8275 -32.8925,8.92125 -46.408751,10.5625l-48.160001,0c-16.45875,-9.49625 -39.107501,-29.715 -12.98,-61.616251c0.12375,-0.1525 0.24875,-0.30375 0.375,-0.455c0.35625,-0.42875 0.7175,-0.85875 1.09,-1.29125c0.2575,-0.2975 0.5225,-0.5975 0.7875,-0.89625c0.28875,-0.32625 0.5725,-0.65125 0.87125,-0.9775c0.5975,-0.65875 1.21,-1.31875 1.85,-1.985c0,0 -46.971251,-90.583751 -5.21,-95.078751c0,0 -0.7975,-16.08 20.89625,-27.19125c6.84625,-3.50625 13.16125,-4.5975 18.92375,-4.5975c6.355,0 12.0375,1.3275 17.0175,2.20875c17.9975,32.83625 33.42375,67.141251 46.175001,102.910002c-39.082501,12.4375 -86.846251,12.6075 -89.425001,12.6075c-0.07125,0 -0.10875,0 -0.10875,0l20.0875,67.560001c37.116251,-1.8075 66.815001,-8.37625 84.101251,-13.13625l0.08375,0.5625l10.49,20.2475c0.08375,0.375 0.1675,0.75375 0.25,1.12875m-119.353752,-54.011251l-0.14625,0.1825c-7.31375,9.42625 -15.0175,27.01125 12.51875,41.430001l-12.3725,-41.612501" id="path34"/>
  <path fill="#dddddd" fill-rule="nonzero" d="m831.451262,299.708743c-0.54625,0 -1.07875,0.055 -1.6025,0.13875c0.0825,-0.67125 0.13125,-1.3525 0.13125,-2.04625c0,-9.105 -7.3825,-16.4875 -16.4875,-16.4875c-8.68875,0 -15.80375,6.72375 -16.4375,15.25125c-0.90625,-0.2225 -1.85,-0.35375 -2.825,-0.35375c-6.55375,0 -11.865,5.31125 -11.865,11.86375c0,6.5525 5.31125,11.86375 11.865,11.86375l37.221251,0c5.5875,0 10.11625,-4.52875 10.11625,-10.115c0,-5.58625 -4.52875,-10.115 -10.11625,-10.115" id="path36"/>
  <path fill="#eeeeee" fill-rule="nonzero" d="m521.045008,685.769999c-194.745003,0 -426.002506,-7.90375 -426.002506,-17.65525c0,-9.751 231.257503,-17.65475 426.002506,-17.65475c194.745003,0 279.230004,7.90375 279.230004,17.65475c0,9.7515 -84.485001,17.65525 -279.230004,17.65525" id="path38"/>
  <path fill="#eaaa38" fill-rule="nonzero" d="m473.035007,666.733874l-41.626251,-91.888876c4.9325,-1.23 9.87,-2.27125 14.8125,-3.16l-0.00125,-0.00125c0.33625,-0.06125 0.67125,-0.11625 1.00625,-0.1725c0.28,-0.0475 0.56,-0.09625 0.84,-0.145l0.00125,0.00625c5.345,-0.9175 10.69625,-1.63875 16.0525,-2.155l-0.0025,-0.01625c0.36125,-0.03375 0.7225,-0.0625 1.085,-0.09375c0.2575,-0.02125 0.51375,-0.04375 0.77,-0.06625l0.00125,0.00375c5.97125,-0.52125 11.95,-0.79375 17.935,-0.8175l0,-0.0125c0.2875,-0.00125 0.575,0.00125 0.8625,0.0025c0.33125,0.00125 0.6625,0.00125 0.99375,0.0025l0,0.0075c5.145,0.025 10.2975,0.24375 15.45375,0.64l0,-0.00625c0.61875,0.04625 1.23625,0.09 1.85375,0.1425l-0.00125,0.00875c5.44,0.46375 10.88625,1.12875 16.3375,2.00625l0.0025,-0.00875c0.3625,0.05875 0.72625,0.1225 1.08875,0.185c0.25,0.04375 0.50125,0.08625 0.75125,0.12875l0,0.0025c5.005,0.84375 10.015,1.83875 15.03,3.03625c1.0275,0.245 1.57875,1.37625 1.1425,2.3375l-40.786251,90.033876l9.3425,0l49.946251,-110.253877c0.92375,-2.04125 2.9575,-3.3525 5.1975,-3.3525l-139.553752,0l51.465001,113.606377" id="path40"/>
  <path fill="#fab73e" fill-rule="nonzero" d="m409.621256,554.407497c-1.1125,-2.4575 0.68375,-5.24375 3.38125,-5.24375l-331.250005,0c-2.69775,0 -4.49425,2.78625 -3.381375,5.24375l50.885126,112.326377l331.250005,0l-50.885001,-112.326377" id="path42"/>
  <path fill="#bd8828" fill-rule="nonzero" d="m409.621256,554.407497l50.885001,112.326377l12.52875,0l-51.465001,-113.606377l-0.1175,-0.26125l-0.15875,-0.35125c-0.925,-2.04 -2.95875,-3.35125 -5.19875,-3.35125l-3.0925,0c-2.6975,0 -4.49375,2.78625 -3.38125,5.24375" id="path44"/>
  <path fill="#f0f6c5" fill-rule="nonzero" d="m431.408756,574.844997l41.626251,91.888876l2.7325,0l-29.54625,-95.048876c-4.9425,0.88875 -9.88,1.93 -14.8125,3.16" id="path46"/>
  <path fill="#f0f6c5" fill-rule="nonzero" d="m465.973757,569.044997l15.635,97.688876l2.3,0l0,-98.506376c-5.985,0.02375 -11.96375,0.29625 -17.935,0.8175" id="path48"/>
  <path fill="#f0f6c5" fill-rule="nonzero" d="m536.281258,574.362497c-5.015,-1.1975 -10.025,-2.1925 -15.03,-3.03625l-27.84625,95.407626l3.2325,0l40.786251,-90.033876c0.43625,-0.96125 -0.115,-2.0925 -1.1425,-2.3375" id="path50"/>
  <path fill="#f0f6c5" fill-rule="nonzero" d="m448.067507,571.372497l29.6425,95.361376l2.01625,0l-15.60625,-97.516376c-5.35625,0.51625 -10.7075,1.2375 -16.0525,2.155" id="path52"/>
  <path fill="#f0f6c5" fill-rule="nonzero" d="m503.071257,569.012497l-13.6575,97.721376l2.06,0l27.935,-95.715126c-5.45125,-0.8775 -10.8975,-1.5425 -16.3375,-2.00625" id="path54"/>
  <path fill="#f0f6c5" fill-rule="nonzero" d="m485.765007,568.227497l0,98.506376l1.77625,0l13.6775,-97.866376c-5.15625,-0.39625 -10.30875,-0.615 -15.45375,-0.64" id="path56"/>
  <path fill="#bd8828" fill-rule="nonzero" d="m555.926258,556.479997l-49.946251,110.253877l12.53,0l49.088751,-108.362627c1.11375,-2.45625 -0.68375,-5.24375 -3.38125,-5.24375l-3.09375,0c-2.24,0 -4.27375,1.31125 -5.1975,3.3525" id="path58"/>
  <path fill="#e0e7b5" fill-rule="nonzero" d="m464.131257,569.201247l0.21625,-0.01875l-0.21625,0.01875zm19.78,-0.98625c0.24625,-0.00125 0.49,-0.01125 0.73625,-0.01125l-56.247501,0l3.00875,6.64125c4.9325,-1.23 9.87,-2.27 14.8125,-3.15875l29.54625,95.047626l1.9425,0l-29.6425,-95.361376l0,-0.00375c5.34375,-0.915 10.69375,-1.6525 16.05,-2.16625l0.0025,0.015l15.60625,97.516376l1.8825,0l-15.63375,-97.682626c5.97125,-0.52125 11.94875,-0.8125 17.93375,-0.83625l0,98.518876l1.85625,0l0,-98.513876c-0.33125,-0.00125 -0.6625,-0.00125 -0.99375,-0.0025c-0.2875,-0.00125 -0.57375,-0.00375 -0.86,-0.0025" id="path60"/>
  <path fill="#e0e7b5" fill-rule="nonzero" d="m520.500008,571.194997c-0.3625,-0.0625 -0.72625,-0.12625 -1.08875,-0.185l-0.0025,0.00875l-27.935,95.715126l1.93125,0l27.84625,-95.407626l0,-0.0025c-0.25,-0.0425 -0.50125,-0.085 -0.75125,-0.12875" id="path62"/>
  <path fill="#e0e7b5" fill-rule="nonzero" d="m503.072507,569.003747c-0.6175,-0.0525 -1.235,-0.09625 -1.85375,-0.1425l0,0.00625l-13.6775,97.866376l1.8725,0l13.6575,-97.721376l0.00125,-0.00875" id="path64"/>
  <path fill="#e0e7b5" fill-rule="nonzero" d="m484.837507,568.203747l-0.19,0l0.16875,0.00375l0.02125,-0.00375" id="path66"/>
  <path fill="#56331d" fill-rule="nonzero" d="m428.788756,513.646246l6.48,25.91l-1.965,31.045c0,0 37.120001,2.40125 23.89375,-10.005c-10.275,-9.6375 -19.155,4.53 -19.155,4.53l6.52875,-29.7175l-1.1425,-15.16875c0,0 41.400001,-0.625 75.406251,-13.32l15.25375,15.7325l-5.71625,29.175c0,0 38.731251,5.29625 26.73875,-8.195c-8.05625,-9.0625 -20.9375,3.2725 -20.9375,3.2725l9.14375,-24.99625l-13.78125,-26.59875l-100.747502,18.33625" id="path68"/>
  <path fill="#fdfef7" fill-rule="nonzero" d="m519.025008,425.069995l10.51125,70.240001c0,0 -40.651251,15.41 -100.747502,18.33625l-20.0875,-67.560001c0,0 69.083751,0.25125 110.323752,-21.01625" id="path70"/>
  <path fill="#fcd9b6" fill-rule="nonzero" d="m519.025008,425.069995c0,0 -8.0925,-123.040002 -94.410001,-68.590001c0,0 -25.4675,29.26625 -15.91375,89.606251c86.073751,1.70375 110.323752,-21.01625 110.323752,-21.01625" id="path72"/>
  <path fill="#56331d" fill-rule="nonzero" d="m488.078757,291.456243c0,0 60.482501,67.137501 -61.616251,81.081251l2.86625,26.2c0,0 -11.56875,-8.4025 -12.76,2.79875c-1.18875,11.2 11.51,5.375 11.51,5.375c0,0 -7.205,29.83375 -19.3775,39.175001c0,0 -50.433751,-97.260001 -5.595,-102.086252c0,0 -0.855,-17.265 22.43625,-29.195c33.2275,-17.01625 54.825001,18.95125 62.536251,-23.34875" id="path74"/>
  <path fill="#56331d" fill-rule="nonzero" d="m493.350007,382.457495c1.2175,4.09125 3.78,6.9425 5.7225,6.37125c1.9425,-0.5725 2.5325,-4.355 1.31375,-8.445c-1.22125,-4.09125 -3.78375,-6.9425 -5.72375,-6.37c-1.94375,0.57125 -2.53,4.35375 -1.3125,8.44375" id="path76"/>
  <path fill="#56331d" fill-rule="nonzero" d="m444.432507,398.867495c1.2175,4.0925 3.7775,6.94875 5.72625,6.375c1.9375,-0.575 2.52875,-4.36 1.30625,-8.45125c-1.21625,-4.09375 -3.77875,-6.94625 -5.7225,-6.37375c-1.94375,0.57375 -2.5325,4.35625 -1.31,8.45" id="path78"/>
  <path fill="#f47184" fill-rule="nonzero" d="m495.152507,407.394995c0,0 -20.66875,3.27625 -32.44625,9.7025c0,0 2.07125,16.9475 21.16625,11.8325c18.90125,-5.06375 11.28,-21.535 11.28,-21.535" id="path80"/>
  <path fill="#e5e5dc" fill-rule="nonzero" d="m463.523757,493.134996l-11.6225,-9.985l10.26375,-10.19375c2.0625,0.16625 4.005,0.24375 5.83125,0.24375c28.63625,0.00125 28.9575,-19.1575 28.9575,-19.1575l-5.00625,-4.75125l1.325,-4.0525l9.1525,-2.92875l3.27125,3.9775l-2.29,5.90125c0,0 1.645,34.675001 -39.882501,40.946251" id="path82"/>
  <path fill="#56331d" fill-rule="nonzero" d="m502.425007,442.309995l3.2725,3.9775l-2.29125,5.90125c0,0 1.61875,31.53875 -39.908751,37.808751l-11.6225,-9.985l10.26375,-10.1925c34.425001,2.76625 34.815001,-15.7775 34.815001,-15.7775l-5.00625,-4.75125l1.325,-4.05125l9.1525,-2.93" id="path84"/>
  <path fill="#fcd9b6" fill-rule="nonzero" d="m562.392508,365.616244c-1.42,0.52625 -1.43125,2.29375 -1.2875,3.37125c-0.2575,-1.0825 -0.96625,-2.89625 -2.77375,-2.42c-2.085,0.55 -1.7975,3.28625 -1.62875,4.24375l-0.02125,0.005c-0.2625,-0.87375 -1.1325,-3.16125 -2.885,-2.67125c-1.74,0.485 -1.295,2.93125 -1.0575,3.865c-0.31,-0.99875 -1.31125,-3.55875 -3.3975,-2.88625c-1.56,0.505 -0.18875,3.97875 -0.18875,3.97875c23.675,60.588751 -30.1275,51.967501 -30.1275,51.967501l1.93125,12.90125c70.818751,2.62375 46.213751,-62.977501 43.857501,-69.298751c0,0 -0.835,-3.6425 -2.42125,-3.05625" id="path86"/>
  <path fill="#fdfef7" fill-rule="nonzero" d="m519.025008,425.069995l1.93125,12.90125c3.61875,0.135 6.9775,0.0825 10.11375,-0.125l-2.08,-12.47125c-5.6475,0.385 -9.965,-0.305 -9.965,-0.305" id="path88"/>
  <path fill="#fcd9b6" fill-rule="nonzero" d="m435.152506,525.158747c0.5525,-1.41 -0.75875,-2.5925 -1.66,-3.2025c0.98125,0.52625 2.805,1.205 3.6525,-0.4625c0.9775,-1.9225 -1.2575,-3.5275 -2.08375,-4.0375l0.01,-0.02125c0.8275,0.385 3.1125,1.25875 3.91375,-0.375c0.795,-1.62125 -1.3275,-2.9175 -2.18375,-3.36125c0.9525,0.43375 3.53,1.3875 4.41625,-0.6175c0.66125,-1.5 -2.845,-2.78625 -2.845,-2.78625c-60.985001,-22.635 -18.75375,-57.067501 -18.75375,-57.067501l-10.9175,-7.14125c-49.072501,51.127501 16.2725,76.401251 22.56,78.847501c0,0 3.275,1.8 3.89125,0.225" id="path90"/>
  <path fill="#fdfef7" fill-rule="nonzero" d="m419.618756,453.227496l-10.9175,-7.14125c-2.50875,2.61375 -4.7025,5.155 -6.63625,7.635l10.695,6.74375c3.47125,-4.47375 6.85875,-7.2375 6.85875,-7.2375" id="path92"/>
  <path fill="#865128" fill-rule="nonzero" d="m539.233758,360.653744l-7.87125,3.05125c0,0 -2.8875,3.00875 -0.71875,11.63625c2.16625,8.62625 5.74875,9.4625 5.74875,9.4625l7.45875,-0.67375l-4.6175,-23.47625" id="path94"/>
  <path fill="#fab73e" fill-rule="nonzero" d="m547.108758,370.199994c0,0 -3.21375,-10.76125 -7.875,-9.54625c-4.6625,1.21375 -5.10375,6.19625 -4.20625,10.76375c1.14375,5.81625 3.305,13.8825 8.82375,12.7125c5.5175,-1.17125 3.2575,-13.93 3.2575,-13.93" id="path96"/>
  <path fill="#865128" fill-rule="nonzero" d="m568.447508,354.268744l-28.80375,11.7825c-1.73875,3.23375 0.975,12.4525 3.45625,12.65875l30.305,-6.435l-4.9575,-18.00625" id="path98"/>
  <path fill="#fab73e" fill-rule="nonzero" d="m595.385009,330.064994l-36.780001,15.21625c0,0 -4.1925,22.3775 11.26,39.592501l35.835001,-6.70375l-10.315,-48.105001" id="path100"/>
  <path fill="#865128" fill-rule="nonzero" d="m636.236259,296.267493l-45.918751,21.59125c-13.1175,19.07375 1.535,66.118751 20.685,73.647501l50.543751,-6.26625l-25.31,-88.972501" id="path102"/>
  <path fill="#fab73e" fill-rule="nonzero" d="m687.45126,330.657494c6.40625,24.89375 -3.97375,49.082501 -23.18375,54.026251c-19.21125,4.94375 -39.977501,-11.22875 -46.385001,-36.122501c-6.40625,-24.89375 3.9725,-49.082501 23.1825,-54.026251c19.2125,-4.945 39.978751,11.2275 46.386251,36.122501" id="path104"/>
  <path fill="#fdfef7" fill-rule="nonzero" d="m683.82876,331.588744c-5.74,-22.30125 -24.34375,-36.791251 -41.555001,-32.36125c-17.21,4.42875 -26.51,26.1 -20.77,48.402501c5.74,22.30125 24.345,36.790001 41.555001,32.36c17.21125,-4.42875 26.51,-26.09875 20.77,-48.401251" id="path106"/>
  <path fill="#e3a638" fill-rule="nonzero" d="m662.25751,380.182494c0.2675,-0.05875 0.535,-0.12375 0.80125,-0.1925c13.765,-3.54125 22.47,-18.11375 22.46625,-35.216251c0.00375,17.1025 -8.70125,31.675 -22.46625,35.216251c-0.26625,0.06875 -0.53375,0.13375 -0.80125,0.1925" id="path108"/>
  <path fill="#e5e5dc" fill-rule="nonzero" d="m659.71126,380.611244c15.80625,-5.62875 24.0925,-26.38125 18.59875,-47.723751c-5.04375,-19.595 -20.01625,-33.155 -35.251251,-33.155c-0.985,0 -1.97125,0.0575 -2.95625,0.1725c0.71,-0.2525 1.43,-0.48625 2.17125,-0.6775c2.09,-0.5375 4.19875,-0.79625 6.30375,-0.79625c15.23375,0 30.20875,13.56375 35.251251,33.1575c1.15,4.465 1.69625,8.905 1.69625,13.185c0.00375,17.1025 -8.70125,31.675 -22.46625,35.216251c-0.26625,0.06875 -0.53375,0.13375 -0.80125,0.1925c-0.84625,0.18875 -1.695,0.33 -2.54625,0.42875" id="path110"/>
  <path fill="#666666" fill-rule="nonzero" d="m706.131261,213.098742c-2.415,0 -4.375,-1.95875 -4.375,-4.375c0,-7.79125 -6.8525,-14.13 -15.2775,-14.13c-8.4225,0 -15.275,6.33875 -15.275,14.13c0,2.41625 -1.96,4.375 -4.375,4.375c-2.41625,0 -4.375,-1.95875 -4.375,-4.375c0,-7.79125 -6.85375,-14.13 -15.27625,-14.13c-8.4225,0 -15.27625,6.33875 -15.27625,14.13c0,2.41625 -1.95875,4.375 -4.375,4.375c-2.415,0 -4.375,-1.95875 -4.375,-4.375c0,-12.61625 10.7775,-22.88 24.02625,-22.88c8.1125,0 15.29875,3.84875 19.65125,9.72875c4.35125,-5.88 11.5375,-9.72875 19.65,-9.72875c13.24875,0 24.0275,10.26375 24.0275,22.88c0,2.41625 -1.95875,4.375 -4.375,4.375" id="path112"/>
  <path fill="#666666" fill-rule="nonzero" d="m806.748762,145.084991c-2.415,0 -4.375,-1.95875 -4.375,-4.375c0,-7.79125 -6.8525,-14.13 -15.275,-14.13c-8.42375,0 -15.27625,6.33875 -15.27625,14.13c0,2.41625 -1.95875,4.375 -4.375,4.375c-2.41625,0 -4.375,-1.95875 -4.375,-4.375c0,-7.79125 -6.85375,-14.13 -15.27625,-14.13c-8.4225,0 -15.27625,6.33875 -15.27625,14.13c0,2.41625 -1.95875,4.375 -4.375,4.375c-2.415,0 -4.375,-1.95875 -4.375,-4.375c0,-12.61625 10.77875,-22.88 24.02625,-22.88c8.1125,0 15.29875,3.8475 19.65125,9.73c4.35125,-5.8825 11.5375,-9.73 19.65125,-9.73c13.2475,0 24.025,10.26375 24.025,22.88c0,2.41625 -1.95875,4.375 -4.375,4.375" id="path114"/>
 </g>
</svg>