<svg width="812" height="702" xmlns="http://www.w3.org/2000/svg">
 <metadata id="metadata8">image/svg+xml</metadata>

 <g>
  <title>background</title>
  <rect fill="none" id="canvas_background" height="704" width="814" y="-1" x="-1"/>
 </g>
 <g>
  <title>Layer 1</title>
  <g id="svg_1">
   <path fill="#fbc287" fill-rule="nonzero" d="m688.393122,410.213141c8.285,8.1525 13.54875,19.93375 13.54875,33.0275c0,20.54125 -12.88375,37.872501 -30.19625,42.888751c7.71625,7.43 12.61875,18.3 12.61875,30.3675l0,1.3675c0,18.3375 -11.25,33.901251 -26.5475,38.803751c8.665,7.65875 14.2525,19.36375 14.2525,32.4575l0,3.9525c0,22.9175 -17.065,41.653751 -37.911251,41.653751l-209.810003,0c0,0 -56.211251,0.17125 -66.757501,-13.34c-6.8225,-8.74125 -19.535,-16.26625 -27.65,-20.485c-4.4275,-2.29875 -7.4875,-3.62875 -7.4875,-3.62875l-64.418751,0l0,-222.638753c0,0 56.818751,-3.6675 91.403751,-21.8725c6.36625,-3.34375 11.97125,-7.1825 16.3425,-11.5725c28.105,-28.31375 70.272501,-106.815002 76.145001,-147.995002c5.8525,-41.178751 -4.69375,-69.492501 0,-90.073751c4.67375,-20.59875 74.947501,-36.028751 96.040001,74.625001c9.17875,48.133751 6.385,87.261251 0.285,116.107502c-1.3675,6.42375 -2.88875,12.3325 -4.465,17.73l137.408752,0c9.08375,0 17.57875,2.88875 24.7425,7.88625c13.07375,9.06375 21.815,25.1025 21.815,43.268751c0,21.455 -12.2,39.906251 -29.35875,47.470001" id="path18"/>
   <path fill="#f9a764" fill-rule="nonzero" d="m329.940617,600.906894l0,0c-4.4275,-2.29875 -7.4875,-3.62875 -7.4875,-3.62875l-8.95,0l0,-231.518753c12.54875,-3.16625 25.29375,-7.39125 35.935001,-12.9925l-19.4975,248.140004" id="path20"/>
   <path fill="#264687" fill-rule="nonzero" d="m313.503116,354.21189l0,258.857504c0,11.97125 -9.69125,21.6625 -21.6625,21.6625l-173.933753,0c-13.455,0 -23.65875,-12.12375 -21.34,-25.3875l21.92875,-125.703752l23.22125,-133.153752c1.805,-10.375 10.8125,-17.93875 21.34,-17.93875l128.783752,0c11.97125,0 21.6625,9.69125 21.6625,21.66375" id="path22"/>
   <path fill="#a0b6cd" fill-rule="nonzero" d="m307.746866,627.781894c3.57375,-3.8625 5.75625,-9.03125 5.75625,-14.7125l0,-15.79125l0,15.79125c0,5.68125 -2.1825,10.85 -5.75625,14.7125" id="path24"/>
   <path fill="#b48458" fill-rule="nonzero" d="m313.503116,597.278144l0,0l0,-39.972626l0,0l0,39.972626z" id="path26"/>
   <path fill="#24396f" fill-rule="nonzero" d="m291.839366,634.731894l-173.932503,0c-11.6,0 -20.78375,-9.01 -21.61,-19.995c-0.11,-1.47 -0.07125,-2.97625 0.1325,-4.5c0.03875,-0.2975 0.085,-0.595 0.1375,-0.8925l0,0l9.0775,-52.038751l40.048751,0c-1.75,3.31 -2.74125,7.08375 -2.74125,11.0875l0,0c0,11.2775 7.85875,20.72 18.4,23.1475c3.415,1.9 7.345,2.98125 11.53,2.98125c13.11875,0 23.75375,-10.635 23.75375,-23.75375c0,-4.99875 -1.54375,-9.63625 -4.18125,-13.4625l121.048752,0l0,55.763751c0,5.68125 -2.1825,10.85 -5.75625,14.7125c-3.95625,4.275 -9.6175,6.95 -15.9075,6.95" id="path28"/>
   <path fill="#24396f" fill-rule="nonzero" d="m192.454365,557.305643l-4.73625,0c-2.15375,-4.075 -5.45875,-7.4475 -9.4825,-9.685c5.86875,1.3525 10.90625,4.87875 14.21875,9.685" id="path30"/>
   <path fill="#212f5c" fill-rule="nonzero" d="m172.881864,594.521894c-4.185,0 -8.115,-1.08125 -11.53,-2.98125c1.72,0.39625 3.51375,0.60625 5.35375,0.60625c13.11875,0 23.75375,-10.635 23.75375,-23.75375l0,0c0,-0.0225 0,-0.04625 0,-0.06875c0,-0.0075 0,-0.015 0,-0.0225c0,-0.01625 0,-0.0325 0,-0.04875c0,-0.0075 0,-0.01625 0,-0.02375c0,-0.0175 0,-0.03625 -0.00125,-0.05375c0,-0.005 0,-0.01125 0,-0.01625c0,-0.02125 0,-0.04375 0,-0.06625c0,-0.00875 0,-0.0175 -0.00125,-0.02625c0,-0.01375 0,-0.02875 0,-0.0425c0,-0.01 0,-0.02 0,-0.03c-0.00125,-0.0125 -0.00125,-0.02625 -0.00125,-0.04c0,-0.01 0,-0.02 0,-0.02875c-0.00125,-0.02 -0.00125,-0.04 -0.00125,-0.05875c-0.00125,-0.0125 -0.00125,-0.02625 -0.00125,-0.04c0,-0.00875 0,-0.02 -0.00125,-0.03c0,-0.01375 0,-0.0275 -0.00125,-0.04125c0,-0.0075 0,-0.015 0,-0.0225c0,-0.015 -0.00125,-0.03 -0.00125,-0.04375c0,-0.00375 0,-0.00625 0,-0.01c-0.0025,-0.05625 -0.00375,-0.11 -0.00625,-0.16625c0,-0.00125 0,-0.0025 0,-0.00375c-0.13375,-3.675 -1.10375,-7.13875 -2.725,-10.20375l4.73625,0c2.6375,3.82625 4.18125,8.46375 4.18125,13.4625c0,13.11875 -10.635,23.75375 -23.75375,23.75375" id="path32"/>
   <path fill="#255592" fill-rule="nonzero" d="m190.459365,568.393143c0,13.11875 -10.635,23.75375 -23.75375,23.75375c-13.11875,0 -23.75375,-10.635 -23.75375,-23.75375c0,-13.11875 10.635,-23.75375 23.75375,-23.75375c13.11875,0 23.75375,10.635 23.75375,23.75375" id="path34"/>
   <path fill="#1d294f" fill-rule="nonzero" d="m190.459365,568.393143c0,-0.02375 0,-0.04625 0,-0.06875c0,0.0225 0,0.04625 0,0.06875m0,-0.09125c0,-0.01625 0,-0.0325 0,-0.04875c0,0.01625 0,0.0325 0,0.04875m0,-0.0725c0,-0.01875 0,-0.035 -0.00125,-0.05375c0.00125,0.0175 0.00125,0.03625 0.00125,0.05375m-0.00125,-0.07c0,-0.02125 0,-0.04375 0,-0.06625c0,0.0225 0,0.045 0,0.06625m-0.00125,-0.0925c0,-0.015 0,-0.02875 0,-0.0425c0,0.01375 0,0.02875 0,0.0425m0,-0.0725c-0.00125,-0.01375 -0.00125,-0.02625 -0.00125,-0.04c0,0.01375 0,0.0275 0.00125,0.04m-0.00125,-0.06875c-0.00125,-0.02 -0.00125,-0.03875 -0.00125,-0.05875c0,0.01875 0,0.03875 0.00125,0.05875m-0.0025,-0.09875c0,-0.01 0,-0.02 -0.00125,-0.03c0.00125,0.01 0.00125,0.02125 0.00125,0.03m-0.0025,-0.07125c0,-0.0075 0,-0.015 0,-0.0225c0,0.0075 0,0.015 0,0.0225m-0.00125,-0.06625c0,-0.00375 0,-0.0075 0,-0.01c0,0.00375 0,0.00625 0,0.01m-0.00625,-0.17625c0,0 0,-0.0025 0,-0.00375c0,0.00125 0,0.0025 0,0.00375" id="path36"/>
   <path fill="#20497d" fill-rule="nonzero" d="m166.705614,592.146894c-13.11875,0 -23.75375,-10.635 -23.75375,-23.75375l0.0075,-0.13375c3.28375,6.3175 9.87625,10.63875 17.4875,10.63875c10.8875,0 19.7125,-8.825 19.7125,-19.7125c0,-4.94375 -1.83375,-9.45 -4.84,-12.91125c8.595,3.35125 14.76875,11.5425 15.12375,21.235c0,0.00125 0,0.00375 0,0.00375c0.0025,0.055 0.00375,0.11125 0.00625,0.16625c0,0.0025 0,0.00625 0,0.01c0,0.01375 0.00125,0.02875 0.00125,0.04375c0,0.0075 0,0.015 0,0.0225c0.00125,0.01375 0.00125,0.0275 0.00125,0.04125c0.00125,0.01 0.00125,0.02 0.00125,0.03c0,0.01375 0,0.02625 0.00125,0.04c0,0.02 0,0.03875 0.00125,0.05875c0,0.01 0,0.01875 0,0.02875c0,0.01375 0,0.02625 0.00125,0.04c0,0.01 0,0.02 0,0.03c0,0.01375 0,0.0275 0,0.0425c0.00125,0.00875 0.00125,0.0175 0.00125,0.02625c0,0.0225 0,0.045 0,0.06625c0,0.00625 0,0.01125 0,0.01625c0.00125,0.01875 0.00125,0.035 0.00125,0.05375c0,0.0075 0,0.01625 0,0.02375c0,0.01625 0,0.0325 0,0.04875c0,0.0075 0,0.01375 0,0.0225c0,0.0225 0,0.045 0,0.06875l0,0c0,13.11875 -10.635,23.75375 -23.75375,23.75375" id="path38"/>
   <path fill="#fce1c5" fill-rule="nonzero" d="m526.20687,137.605637l0,0c-8.03875,-18.87625 -18.05625,-31.22125 -28.34875,-38.811251c10.29375,7.58875 20.30875,19.9325 28.3575,38.820001m-28.3625,-38.823751c-0.01125,-0.0075 -0.0225,-0.01625 -0.0325,-0.02375c0.01125,0.0075 0.02125,0.015 0.0325,0.02375m-0.06125,-0.045c-0.0025,-0.0025 -0.00625,-0.005 -0.00875,-0.00625c0.0025,0.00125 0.00625,0.005 0.00875,0.00625" id="path40"/>
   <path fill="#daceb7" fill-rule="nonzero" d="m717.751872,362.52439c-0.00125,-0.3175 -0.005,-0.6325 -0.0125,-0.94875c0.0075,0.31625 0.01125,0.63125 0.0125,0.94875m-179.521253,-68.568751c0.00625,-0.0325 0.01375,-0.065 0.02,-0.0975l0,0c-0.00625,0.0325 -0.01375,0.065 -0.02,0.0975m-0.2875,-116.321252c-0.02375,-0.1275 -0.05,-0.26125 -0.07375,-0.38875c0.025,0.13 0.04875,0.25875 0.07375,0.38875m-0.075,-0.395c-0.01125,-0.05375 -0.01875,-0.09625 -0.02875,-0.15c0.00875,0.05125 0.01875,0.09875 0.02875,0.15m-0.12375,-0.6325c-2.99375,-15.3375 -6.94375,-28.23125 -11.52875,-38.992501l-0.00875,-0.00875c4.595,10.7725 8.54375,23.6575 11.5375,39.001251" id="path42"/>
   <path fill="#f9a764" fill-rule="nonzero" d="m634.158121,634.731894l-41.806251,0c20.84625,0 37.911251,-18.73625 37.911251,-41.653751l0,-3.9525c0,-13.09375 -5.5875,-24.79875 -14.2525,-32.4575c15.2975,-4.9025 26.5475,-20.46625 26.5475,-38.803751l0,-1.3675c0,-12.0675 -4.90375,-22.9375 -12.61875,-30.3675c17.3125,-5.01625 30.19625,-22.3475 30.19625,-42.888751c0,-13.09375 -5.26375,-24.875 -13.54875,-33.0275c17.15875,-7.56375 29.35875,-26.015 29.35875,-47.470001c0,-0.1725 -0.00125,-0.345 -0.0025,-0.51625c-0.15125,-16.515 -13.9225,-29.67875 -30.4375,-29.67875l-153.527502,0l0,-20.96c8.7225,-29.60625 15.3925,-74.986251 4.18125,-133.837502c-9.4225,-49.430001 -28.6575,-73.687501 -47.476251,-83.576251c4.825,-3.38625 11.8,-5.66375 19.8125,-5.66375c8.98,0 19.2625,2.85875 29.2875,10.22875c0.0025,0.00125 0.00625,0.00375 0.00875,0.00625c0.00875,0.00625 0.02,0.015 0.02875,0.02125c0.01,0.0075 0.02125,0.01625 0.0325,0.02375c0.00125,0.00125 0.0025,0.0025 0.005,0.00375c10.2925,7.59 20.31,19.935 28.3575,38.820001c4.585,10.76125 8.535,23.655 11.52875,38.992501c0.03125,0.1575 0.06375,0.32375 0.095,0.4825c0.01,0.05375 0.0175,0.09625 0.02875,0.15l0.00125,0.00625c0.02375,0.1275 0.05,0.26125 0.07375,0.38875c0.0075,0.04 0.015,0.07625 0.0225,0.11625c9.17125,48.142501 6.3725,87.255001 0.2775,116.107502l0.0075,0c-0.00625,0.0325 -0.01375,0.065 -0.02,0.0975c-0.365,1.7075 -0.7425,3.37125 -1.12625,5.00625c-0.21,0.8975 -0.42625,1.765 -0.6425,2.64125c-0.22,0.89375 -0.44125,1.78 -0.6675,2.65125c-0.23,0.89 -0.46,1.77625 -0.695,2.6425c-0.4325,1.60125 -0.87,3.17125 -1.31375,4.69125l137.408752,0c1.01125,0 2.01125,0.04875 3.00625,0.11875c0.28125,0.02 0.5625,0.04625 0.8425,0.07125c0.795,0.0725 1.58625,0.16625 2.37,0.2825c0.21375,0.0325 0.42875,0.05625 0.6425,0.09125c0.94375,0.155 1.87875,0.34375 2.80375,0.56c0.26375,0.0625 0.52375,0.13375 0.785,0.2c0.66125,0.17 1.32,0.3475 1.97,0.55125c0.3325,0.105 0.66625,0.2025 0.99625,0.31375c0.88625,0.29375 1.7625,0.61125 2.625,0.9625c0.18125,0.07375 0.35875,0.1575 0.53875,0.23375c0.7275,0.3075 1.445,0.635 2.155,0.98c0.25375,0.12375 0.505,0.24875 0.75625,0.3775c0.82375,0.42 1.6375,0.86 2.43375,1.33125l0.085,0.04875c0.9025,0.535 1.78125,1.11 2.64625,1.7075l0.08625,0.05625l0,0.005c12.795,8.88625 21.4375,24.41375 21.8025,42.096251c0.0075,0.31625 0.01125,0.63125 0.0125,0.94875c0,0.0725 0,0.14625 0,0.21875c0,21.455 -12.2,39.906251 -29.35875,47.470001l0,0c8.285,8.1525 13.54875,19.93375 13.54875,33.0275c0,20.54125 -12.88375,37.872501 -30.19625,42.888751l0,0c7.71625,7.43 12.61875,18.3 12.61875,30.3675l0,1.3675c0,18.3375 -11.25,33.901251 -26.5475,38.803751l0,0c8.665,7.65875 14.2525,19.36375 14.2525,32.4575l0,3.9525c0,22.9175 -17.065,41.653751 -37.911251,41.653751" id="path44"/>
   <path fill="#ffffff" fill-rule="nonzero" d="m165.161864,551.413143c2.1925,2.38 1.2575,6.8075 -2.0875,9.8875c-3.345,3.08125 -7.83375,3.65 -10.02625,1.27c-2.1925,-2.38 -1.2575,-6.8075 2.0875,-9.88875c3.345,-3.08125 7.83375,-3.65 10.02625,-1.26875" id="path46"/>
  </g>
 </g>
</svg>