<svg width="400" height="250" xmlns="http://www.w3.org/2000/svg">
 <metadata id="metadata8">image/svg+xml</metadata>

 <g>
  <title>background</title>
  <rect fill="none" id="canvas_background" height="252" width="402" y="-1" x="-1"/>
 </g>
 <g>
  <title>Layer 1</title>
  <g id="svg_3">
   <path fill="#efeded" fill-rule="nonzero" d="m54.647504,224.682505c0.0075,-0.265 0.0175,-0.53 0.0175,-0.79875c-0.02625,-13.84375 -11.2575,-25.04625 -25.095,-25.04625c-0.01625,0 -0.03375,0 -0.05125,0l-0.0325,0.00125l-0.06625,-32.8425l-0.14625,-73.815001l-0.065,-32.84125l0.03375,0.00125c13.86125,-0.0275 25.07375,-11.28625 25.0475,-25.1475c-0.00125,-0.2675 -0.01375,-0.53125 -0.0225,-0.7975l296.858754,-0.59c-0.00875,0.26625 -0.02,0.53125 -0.02,0.79875c0.0275,13.84375 11.2575,25.0475 25.095,25.04625c0.01625,0 0.03375,0 0.05125,0l0.03375,0l0.065,32.84125l0.14625,73.815001l0.06625,32.84125l-0.03375,0c-13.86,0.0275 -25.075,11.28625 -25.04625,25.14625c0,0.2675 0.01125,0.5325 0.02125,0.79875l-296.857504,0.58875" id="path366"/>
   <path fill="#fbc009" fill-rule="nonzero" d="m370.481249,51.162497c-13.86125,0.0275 -25.12,-11.18625 -25.14625,-25.04625c-0.00125,-0.26875 0.01,-0.53375 0.0175,-0.79875l-296.8575,0.58875c0.00875,0.26625 0.02125,0.53125 0.02125,0.79875c0.0275,13.86 -11.18625,25.11875 -25.04625,25.14625l-0.03375,-0.00125l0.06625,32.8425l0.14625,73.81375l0.065,32.8425l0.03375,-0.00125c13.86,-0.0275 25.11875,11.18625 25.145,25.04625c0.00125,0.26875 -0.01,0.53375 -0.0175,0.8l296.8575,-0.59c-0.00875,-0.26625 -0.02125,-0.53 -0.0225,-0.79875c-0.02625,-13.86 11.1875,-25.11875 25.04625,-25.14625l0.035,0.00125l-0.065,-32.8425l-0.14625,-73.81375l-0.06625,-32.8425l-0.0325,0.00125" id="path368"/>
   <path fill="#f14d1c" fill-rule="nonzero" d="m326.867501,54.048749l-259.507504,0l6.05125,20.46875l-6.05125,19.57875l259.507504,0l-5.5175,-19.57875l5.5175,-20.46875" id="path370"/>
   <path fill="#ffffff" fill-rule="nonzero" d="m44.154997,175.680001c9.0125,4.51875 16.31875,11.93375 20.7025,21.00875l264.811254,-0.52625c4.34625,-9.09125 11.62375,-16.535 20.61875,-21.09l-0.215,-108.242502c-9.0125,-4.51875 -16.31875,-11.935 -20.7025,-21.00875l-264.812504,0.525c-4.345,9.0925 -11.6225,16.53625 -20.6175,21.09l0.215,108.243752zm19.11125,23.5125l-0.335,-0.72875c-4.20625,-9.11625 -11.51,-16.53125 -20.565,-20.8775l-0.70875,-0.33875l-0.22,-111.367502l0.70625,-0.3425c9.03875,-4.3825 16.3125,-11.825 20.48125,-20.9575l0.3325,-0.73l0.8025,-0.00125l267.201254,-0.53125l0.335,0.72875c4.205,9.11625 11.51,16.53125 20.565,20.8775l0.70875,0.33875l0.22,111.367502l-0.705,0.3425c-9.04,4.3825 -16.31375,11.825 -20.4825,20.9575l-0.3325,0.72875l-0.8025,0.0025l-267.201254,0.53125" id="path372"/>
   <text x="-418.627003" y="-196.16099" font-weight="normal" font-size="29.4489px" font-family="NexaBold" fill="#ffffff" fill-rule="nonzero" transform="matrix(1.2500000186264513,0,0,1.2500000186264513,635.1362594493665,333.44249006751926) " id="text376">KONZERT</text>
   <path fill="#2d4d64" fill-rule="nonzero" d="m81.322497,161.725001l3.4025,6.89625l7.61125,1.105l-5.50625,5.36875l1.3,7.57875l-6.8075,-3.5775l-6.8075,3.5775l1.3,-7.57875l-5.50625,-5.36875l7.61,-1.105l3.40375,-6.89625" id="path384"/>
   <path fill="#2d4d64" fill-rule="nonzero" d="m114.404998,161.725001l3.40375,6.89625l7.61125,1.105l-5.5075,5.36875l1.3,7.57875l-6.8075,-3.5775l-6.80625,3.5775l1.3,-7.57875l-5.5075,-5.36875l7.61125,-1.105l3.4025,-6.89625" id="path386"/>
   <path fill="#2d4d64" fill-rule="nonzero" d="m147.488748,161.725001l3.40375,6.89625l7.61,1.105l-5.5075,5.36875l1.3,7.57875l-6.80625,-3.5775l-6.80625,3.5775l1.3,-7.57875l-5.5075,-5.36875l7.61125,-1.105l3.4025,-6.89625" id="path388"/>
   <path fill="#2d4d64" fill-rule="nonzero" d="m180.572499,161.725001l3.40375,6.89625l7.61,1.105l-5.5075,5.36875l1.3,7.57875l-6.80625,-3.5775l-6.8075,3.5775l1.3,-7.57875l-5.5075,-5.36875l7.61125,-1.105l3.40375,-6.89625" id="path390"/>
   <path fill="#2d4d64" fill-rule="nonzero" d="m213.656249,161.725001l3.4025,6.89625l7.61,1.105l-5.50625,5.36875l1.3,7.57875l-6.80625,-3.5775l-6.80875,3.5775l1.30125,-7.57875l-5.5075,-5.36875l7.61,-1.105l3.405,-6.89625" id="path392"/>
   <path fill="#2d4d64" fill-rule="nonzero" d="m246.73875,161.725001l3.4025,6.89625l7.61125,1.105l-5.50625,5.36875l1.3,7.57875l-6.8075,-3.5775l-6.8075,3.5775l1.3,-7.57875l-5.50625,-5.36875l7.61,-1.105l3.40375,-6.89625" id="path394"/>
   <path fill="#2d4d64" fill-rule="nonzero" d="m279.82125,161.725001l3.40375,6.89625l7.61125,1.105l-5.5075,5.36875l1.3,7.57875l-6.8075,-3.5775l-6.80625,3.5775l1.3,-7.57875l-5.5075,-5.36875l7.61125,-1.105l3.4025,-6.89625" id="path396"/>
   <path fill="#2d4d64" fill-rule="nonzero" d="m312.905001,161.725001l3.40375,6.89625l7.61,1.105l-5.5075,5.36875l1.3,7.57875l-6.80625,-3.5775l-6.80625,3.5775l1.29875,-7.57875l-5.50625,-5.36875l7.61125,-1.105l3.4025,-6.89625" id="path398"/>
   <text x="-423.427003" y="-150.56099" font-weight="normal" font-size="40" font-family="NexaBold" fill="#ffffff" fill-rule="nonzero" transform="matrix(1.2500000186264513,0,0,1.2500000186264513,635.1362594493665,333.44249006751926) " id="svg_2">TICKET</text>
  </g>
 </g>
</svg>