<?xml version="1.0"?>
<svg width="1000" height="750" xmlns="http://www.w3.org/2000/svg" xmlns:svg="http://www.w3.org/2000/svg">
 <metadata id="metadata8">image/svg+xml</metadata>

 <g>
  <title>Layer 1</title>
  <path fill="#fbd8b6" fill-rule="nonzero" d="m455.103757,519.103747c0,0 11.13,-7.78625 3.76875,-14.7025c-7.3625,-6.91625 -12.3825,5.80375 -12.3825,5.80375l8.61375,8.89875" id="path20"/>
  <path fill="#f8f8f8" fill-rule="nonzero" d="m444.615007,511.586246l1.9375,-2.585l9.6,9.94l-2.16125,2.59875l-9.37625,-9.95375" id="path22"/>
  <path fill="#2e2d2d" fill-rule="nonzero" d="m365.523755,517.172497c0,0 38.133751,59.660001 89.918751,4.18l-10.51125,-11.70375c0,0 -31.11875,42.412501 -69.348751,0.675l-10.05875,6.84875" id="path24"/>
  <path fill="#4f5052" fill-rule="nonzero" d="m444.617507,528.726247c0.4925,-0.625 0.385,-1.52875 -0.23625,-2.02c-0.6275,-0.495 -1.5325,-0.3875 -2.0225,0.23625c-0.49625,0.62375 -0.3875,1.5275 0.23625,2.02125c0.625,0.4925 1.53,0.38875 2.0225,-0.2375" id="path26"/>
  <path fill="#4f5052" fill-rule="nonzero" d="m448.373757,525.363747c0.4925,-0.625 0.38625,-1.52875 -0.23625,-2.0225c-0.6275,-0.49125 -1.53125,-0.385 -2.0225,0.2375c-0.49375,0.6225 -0.38625,1.53 0.235,2.02375c0.625,0.49125 1.53125,0.385 2.02375,-0.23875" id="path28"/>
  <path fill="#4f5052" fill-rule="nonzero" d="m452.040007,522.114997c0.4925,-0.625 0.38625,-1.53 -0.23875,-2.025c-0.6225,-0.49125 -1.5275,-0.385 -2.02,0.24c-0.49125,0.62375 -0.38625,1.52875 0.2375,2.02125c0.6225,0.49375 1.52875,0.3875 2.02125,-0.23625" id="path30"/>
  <path fill="#fbd8b6" fill-rule="nonzero" d="m258.911254,523.523747c0,0 -20.62125,-98.336251 41.372501,-111.948752c79.026251,-17.3525 74.756251,101.152502 74.756251,101.152502l-116.128752,10.79625" id="path32"/>
  <path fill="#4c3625" fill-rule="nonzero" d="m309.075005,467.246246c0.9275,4.335 -0.00125,8.20875 -2.07625,8.6525c-2.075,0.44375 -4.5075,-2.71 -5.43625,-7.045c-0.9275,-4.335 0.00125,-8.2075 2.07625,-8.6525c2.07375,-0.44375 4.50875,2.71 5.43625,7.045" id="path34"/>
  <path fill="#4c3625" fill-rule="nonzero" d="m360.048755,456.334996c0.9275,4.33375 -0.00125,8.20875 -2.07625,8.65125c-2.075,0.445 -4.50875,-2.71 -5.43625,-7.04375c-0.9275,-4.335 0.00125,-8.20875 2.075,-8.6525c2.075,-0.445 4.50875,2.71 5.4375,7.045" id="path36"/>
  <path fill="#ec6180" fill-rule="nonzero" d="m317.138755,487.523746c0,0 20.565,-5.99375 34.273751,-5.19125c0,0 5.48625,17.70625 -14.425,21.31125c-19.70875,3.56875 -19.84875,-16.12 -19.84875,-16.12" id="path38"/>
  <path fill="#2e2d2d" fill-rule="nonzero" d="m380.355006,587.971248l-2.035,40.075126l-7.02125,33.610876c0,0 15.20875,-8.5 20.1775,1.752875c6.9975,14.442375 -27.3725,4.6285 -27.3725,4.6285l4.86375,-41.504876l-2.86625,-25.295c0,0 -29.34,9.3025 -74.591251,8l0.25375,22.0825l-7.31,34.176251c0,0 9.4425,-9.971125 18.72375,0.487375c12.45375,14.033625 -25.9575,5.305125 -25.9575,5.305125l3.94,-40.658626l-4.94625,-27.535125c0,0 38.858751,-15.66625 104.141252,-15.125" id="path40"/>
  <path fill="#2e2d2d" fill-rule="nonzero" d="m294.197504,517.299997l41.478751,43.435001l30.3175,-51.030001l10.4075,-0.99625l3.95375,79.262501c0,0 -10.35875,5.29 -30.9575,9.1425c-8.59625,1.7625 -21.8625,3.335 -21.8625,3.335c-13.55375,1.34875 -31.98125,2.50125 -51.321251,2.6475l-20.48375,-81.131251l38.467501,-4.665" id="path42"/>
  <path fill="#f8f8f8" fill-rule="nonzero" d="m365.993755,509.704996l-30.3175,51.030001l-41.478751,-43.435001l71.796251,-7.595" id="path44"/>
  <path fill="#4f5052" fill-rule="nonzero" d="m365.993755,509.704996l2.56125,20.23625l-11.21375,3.51l3.19,15.27625l-24.855,12.0075l30.3175,-51.030001" id="path46"/>
  <path fill="#4f5052" fill-rule="nonzero" d="m335.676255,560.734997l-26.235,-9.585l-0.26625,-11.31875l-12.50125,-3.13l-2.47625,-19.40125l41.478751,43.435001" id="path48"/>
  <path fill="#2e2d2d" fill-rule="nonzero" d="m342.053755,522.223747l-4.3625,-5.265l-9.7875,0.65875l-2.88625,7.18l4.39375,4.19625l-3.1025,21.975l9.3675,9.76625l8.06,-13.55375l-5.65375,-18.8575l3.97125,-6.1" id="path50"/>
  <path fill="#4f5052" fill-rule="nonzero" d="m333.510005,569.193747c0.56,1.7375 2.42375,2.68875 4.16125,2.12875c1.73875,-0.56 2.69,-2.4225 2.13125,-4.16125c-0.56125,-1.7375 -2.425,-2.69 -4.16,-2.13c-1.74,0.5625 -2.69375,2.42375 -2.1325,4.1625" id="path52"/>
  <path fill="#4f5052" fill-rule="nonzero" d="m334.520005,584.277498c0.56125,1.73875 2.425,2.69 4.16,2.13125c1.73875,-0.56125 2.6925,-2.42375 2.12875,-4.16c-0.5575,-1.73875 -2.4225,-2.6925 -4.15875,-2.13125c-1.7375,0.55875 -2.6925,2.4225 -2.13,4.16" id="path54"/>
  <path fill="#4c3625" fill-rule="nonzero" d="m366.690005,367.713744c0,0 35.200001,79.105001 -88.138751,75.615001l-0.05875,24.24125c0,0 -11.0925,-10.655 -12.6875,1.03375c-1.83625,13.4575 10.55875,8.57625 10.55875,8.57625c0,0 -8.91875,28.20375 -19.71125,40.628751c-0.6025,0.69375 -50.563751,-107.968752 2.02375,-106.901252c0,0 0.59625,-27.09 33.752501,-34.377501c46.323751,-10.18125 47.567501,27.18875 74.261251,-8.81625" id="path56"/>
  <path fill="#fbd8b6" fill-rule="nonzero" d="m191.830003,569.833747c0,0 -13.52125,-1.305 -10.51375,-10.9475c3.00625,-9.64125 13.635,-1.0375 13.635,-1.0375l-3.12125,11.985" id="path58"/>
  <path fill="#f8f8f8" fill-rule="nonzero" d="m197.263753,558.128747l-2.95875,-1.2975l-3.46875,13.3775l3.16,1.19875l3.2675,-13.27875" id="path60"/>
  <path fill="#2e2d2d" fill-rule="nonzero" d="m268.871254,524.084997c0,0 -3.85125,70.701251 -76.230001,47.873751l3.39375,-15.3625c0,0 47.956251,21.6175 60.708751,-33.52625l12.1275,1.015" id="path62"/>
  <path fill="#4f5052" fill-rule="nonzero" d="m205.692503,573.052497c-0.73625,-0.3025 -1.0875,-1.1425 -0.7875,-1.87375c0.3025,-0.74 1.1425,-1.0925 1.8775,-0.79c0.73875,0.29875 1.08875,1.14 0.78875,1.87625c-0.3025,0.73625 -1.1425,1.09 -1.87875,0.7875" id="path64"/>
  <path fill="#4f5052" fill-rule="nonzero" d="m200.768753,571.972497c-0.73625,-0.30125 -1.08875,-1.14125 -0.79,-1.8775c0.305,-0.73625 1.145,-1.0875 1.87875,-0.7875c0.73625,0.3 1.08875,1.14125 0.79,1.8775c-0.3025,0.73625 -1.1425,1.08875 -1.87875,0.7875" id="path66"/>
  <path fill="#4f5052" fill-rule="nonzero" d="m195.977503,570.947497c-0.73625,-0.30125 -1.0875,-1.14125 -0.7875,-1.87875c0.3,-0.735 1.14125,-1.0875 1.87625,-0.78625c0.73625,0.30125 1.08875,1.14125 0.78875,1.8775c-0.3,0.735 -1.14125,1.08875 -1.8775,0.7875" id="path68"/>
  <path fill="#d78c30" fill-rule="nonzero" d="m839.326263,644.233873c-0.745,14.203625 -12.97625,25.82375 -27.17875,25.82375l-332.268755,0c-14.20375,0 -25.215,-11.620125 -24.46875,-25.82375l24.5675,-468.275132c0.74625,-14.2025 12.97625,-25.82375 27.17875,-25.82375l332.268755,0c14.20375,0 25.215,11.62125 24.46875,25.82375l-24.5675,468.275132" id="path72"/>
  <path fill="#ee9f22" fill-rule="nonzero" d="m832.805012,644.233873c-0.745,14.203625 -12.97625,25.82375 -27.17875,25.82375l-332.268755,0c-14.2025,0 -25.21375,-11.620125 -24.46875,-25.82375l24.56875,-468.275132c0.745,-14.2025 12.975,-25.82375 27.1775,-25.82375l332.268755,0c14.20375,0 25.215,11.62125 24.46875,25.82375l-24.5675,468.275132" id="path74"/>
  <path fill="#ee9f22" fill-rule="nonzero" d="m537.421258,529.264997c0.69,0 1.29625,-0.75625 0.31125,-0.75625c-0.69,0 -1.29625,0.75625 -0.31125,0.75625" id="path76"/>
  <path fill="#d78c30" fill-rule="nonzero" d="m652.86126,190.838742c-35.172501,-2.49625 -70.081251,-6.85 -104.923752,-11.43c-24.48875,-3.21875 -49.267501,-5.0475 -73.723751,-8.45375c-0.1375,0.54375 -0.2525,1.09375 -0.355,1.65c14.9275,2.06125 29.975,3.5175 45.020001,4.8975c27.27625,2.50125 54.302501,7.0075 81.501251,10.06125c54.513751,6.1225 109.355002,8.45 164.598752,6.76375c30.58625,-0.9325 61.183751,-2.99 91.743751,-5.95375l0.07375,-1.43c-68.071251,6.645 -136.331252,8.69375 -203.935003,3.895" id="path78"/>
  <path fill="#d78c30" fill-rule="nonzero" d="m703.78876,175.201241c26.985,2.07875 54.107501,3.10375 81.311251,2.51625c24.14375,-0.52 48.190001,-2.66375 72.180001,-5.68c-0.0525,-0.505 -0.1225,-1.0025 -0.20375,-1.4975c-20.395,2.55875 -40.837501,4.47625 -61.356251,5.28c-28.04,1.09625 -56.018751,0.24125 -83.845001,-1.6875c-27.80125,-1.9275 -55.343751,-5.9375 -82.810001,-9.91875c-27.74125,-4.02 -55.477501,-8.36375 -82.826251,-14.07875l-8.6225,0c27.51,5.9875 55.440001,10.5075 83.406251,14.665c27.43125,4.07625 55.008751,8.26375 82.766251,10.40125" id="path80"/>
  <path fill="#d78c30" fill-rule="nonzero" d="m470.593757,230.533742l-0.08875,1.67375c43.412501,-6.68 87.163751,-9.51 130.790002,-10.66375c55.530001,-1.46625 111.138752,-1.25625 166.421252,1.28125c29.03875,1.3325 58.026251,3.4425 86.857501,6.49625l0.08875,-1.7075c-57.201251,-5.9825 -115.021252,-8.31875 -172.836253,-8.49875c-70.236251,-0.22 -141.138752,0.60875 -211.232503,11.41875" id="path82"/>
  <path fill="#d78c30" fill-rule="nonzero" d="m652.55501,241.792492c-62.316251,2.24375 -125.521252,11.63625 -184.418753,35.565001l-0.08625,1.645c92.942501,-38.267501 195.826253,-39.698751 292.737504,-34.523751c31.00625,1.65625 61.947501,4.61375 92.500001,9.35625l0.08375,-1.595c-14.37,-2.205 -28.82,-4.035 -43.318751,-5.51375c-51.995001,-5.305 -104.896252,-6.82875 -157.497502,-4.93375" id="path84"/>
  <path fill="#d78c30" fill-rule="nonzero" d="m602.783759,315.522494c-45.457501,-1.61875 -90.968751,-2.11125 -136.570002,-1.49875l-0.085,1.59875c10.49,-0.1775 20.98,-0.26625 31.47625,-0.3c57.132501,-0.1825 114.082502,1.97 171.065003,3.86125c22.6375,0.75 45.257501,1.725 67.807501,3.3225c22.4225,1.58625 44.662501,4.36 66.843751,7.45c15.24625,2.125 30.445,4.49375 45.603751,7.0475l0.09,-1.735c-25.705,-4.30625 -51.531251,-8.055 -77.483751,-11.12c-55.757501,-6.58375 -112.465002,-6.62125 -168.747503,-8.62625" id="path86"/>
  <path fill="#d78c30" fill-rule="nonzero" d="m603.021259,263.929993c-4.18625,1.07125 -9.86625,2.29875 -12.9975,5.67375c-3.49,3.765 5.3075,7.6075 7.27625,8.65c8.34625,4.41875 18.04375,6.50125 27.4075,8.0825c11.9925,2.02625 24.10875,3.66625 36.277501,4.71625c13.56625,1.17125 27.20625,1.7475 40.766251,2.95625c13.8475,1.2325 27.595,3.27125 41.371251,4.945c27.66625,3.36125 55.366251,6.5175 83.095001,9.48875c8.0225,0.85875 16.04625,1.695 24.0725,2.52l0.0975,-1.83375c-27.53625,-2.83625 -55.040001,-5.865 -82.512501,-9.08625c-27.49375,-3.2225 -54.871251,-7.245 -82.575001,-9.07125c-13.6375,-0.9 -27.28,-1.72625 -40.783751,-3.565c-10.82125,-1.475 -21.83,-2.915 -32.29875,-5.835c-4.915,-1.37125 -9.69625,-3.1825 -14.1075,-5.67125c-1.3925,-0.78625 -6.195,-3 -5.49375,-5.3175c1.1525,-3.815 11.47625,-5.24 14.53625,-5.9625c16.99375,-4.0075 33.873751,-5.34375 51.150001,-5.64875c57.021251,-1.00375 113.378752,8.22875 168.547503,19.08375c8.31625,1.635 16.6125,3.3525 24.89875,5.1025l0.11,-2.1025c-40.518751,-8.70875 -81.451251,-16.3375 -122.837502,-20.36125c-41.281251,-4.015 -84.653751,-7.33875 -126.000002,3.23625" id="path88"/>
  <path fill="#d78c30" fill-rule="nonzero" d="m524.807508,335.993744c-19.83125,-1.49 -39.747501,-1.42375 -59.685001,-1.1775l-0.08875,1.67625c16.59625,-0.395 33.2,-0.595 49.558751,0.76375c27.76,2.30375 55.643751,3.6525 83.546251,4.67375c57.272501,2.095 114.520002,4.02375 171.708753,7.055c26.0825,1.38125 52.151251,2.87 78.216251,4.4175l0.10625,-2.0275c-75.058751,-4.44125 -150.175002,-8.35 -225.446253,-10.63625c-32.69625,-0.9925 -65.370001,-2.29875 -97.916251,-4.745" id="path90"/>
  <path fill="#d78c30" fill-rule="nonzero" d="m743.172511,398.556245c-28.3275,-1.73375 -56.560001,-4.27 -84.743751,-7.08125c-27.64875,-2.7575 -55.341251,-5.12375 -82.908751,-8.41125c-37.626251,-4.48875 -75.058751,-10.25 -111.985002,-17.9925l-0.12875,2.45875c41.220001,8.5375 83.043751,14.645 125.077502,19.35125c27.7025,3.1 55.516251,5.525 83.287501,8.185c28.18625,2.69875 56.435001,4.98125 84.776251,6.45625c29.555,1.5375 59.227501,2.105 88.926251,1.2575l0.1125,-2.13875c-34.217501,0.94 -68.398751,-0.00125 -102.413752,-2.085" id="path92"/>
  <path fill="#d78c30" fill-rule="nonzero" d="m738.347511,434.758745c-55.630001,-3.79625 -110.610002,-12.12125 -165.572502,-19.91125c-26.66125,-3.78 -53.171251,-8.39625 -79.301251,-14.4425c-10.60125,-2.4525 -21.01,-5.37125 -31.3475,-8.48375l-0.11875,2.2525c10.125,3.01 20.3225,5.83375 30.69875,8.235c26.38,6.1025 53.177501,10.6475 80.088751,14.465c54.982501,7.79375 109.962502,15.995 165.606252,19.7925c27.70625,1.89 55.403751,3.2775 83.293751,3.04375c7.285,-0.06 14.57375,-0.2025 21.8625,-0.40375l0.09625,-1.8425c-6.5,0.1775 -13.00125,0.31625 -19.5,0.39125c-28.735,0.335 -57.268751,-1.14875 -85.806251,-3.09625" id="path94"/>
  <path fill="#d78c30" fill-rule="nonzero" d="m629.800009,465.761246c-41.815001,5.24 -83.792501,13.2025 -124.605002,25.0125c-16.78375,4.8575 -32.93875,11.02625 -49.170001,17.4325l-0.10625,2.015c2.9525,-1.18125 5.90375,-2.36 8.85125,-3.5425c25.115,-10.06375 51.171251,-17.3725 77.332501,-23.4c53.983751,-12.4375 108.828752,-19.34625 163.632502,-22.26375c45.660001,-2.43 91.272501,-2.02375 136.650002,0.62l0.11,-2.08625c-70.618751,-4.03375 -141.801252,-2.67375 -212.695003,6.2125" id="path96"/>
  <path fill="#d78c30" fill-rule="nonzero" d="m548.331258,453.252496c10.68625,-3.41375 22.2675,-4.885 32.05,-10.86c0.82875,-0.505 0.15375,-1.03375 -0.44125,-1.155c-4.4525,-0.91 -8.82875,-0.37 -13.3775,-0.05375c-5.34625,0.37375 -10.8025,-0.4775 -16.01625,-1.28375c-10.0425,-1.55 -20.10875,-3.10625 -30.10375,-4.8775c-20.355,-3.60625 -40.340001,-8.80625 -59.768751,-15.435l-0.10875,2.0975c18.51875,6.19875 37.516251,11.0375 56.850001,14.615c10.04875,1.85875 20.20875,3.235 30.295,4.9375c4.54125,0.7675 9.1075,1.2875 13.73625,1.5225c2.275,0.115 4.5525,-0.035 6.82375,-0.18625c2.785,-0.185 5.56125,-0.37 8.31625,-0.065c-9.8075,5.435 -21.7275,6.9325 -32.22125,10.35875c-12.175,3.97625 -24.37625,7.6625 -36.700001,11.09125c-16.60125,4.62 -33.27625,8.91 -49.998751,12.96l-0.08375,1.6c17.62125,-4.265 35.188751,-8.79375 52.682501,-13.66c12.795,-3.56125 25.40375,-7.5625 38.066251,-11.60625" id="path98"/>
  <path fill="#d78c30" fill-rule="nonzero" d="m715.811261,498.792496c-54.008751,0.6 -108.201252,6.26625 -161.653752,17.0925c-13.965,2.82875 -27.86375,6.09625 -41.653751,9.85125c-14.28,3.88875 -28.16625,8.9025 -42.256251,13.46625c-5.345,1.7325 -10.74375,3.455 -16.125,5.2675l-0.12,2.285c5.42,-1.84875 10.86375,-3.59375 16.26125,-5.3325c12.455,-4.01875 24.735,-8.50625 37.305001,-12.13375c13.37,-3.86 26.88,-7.125 40.440001,-10.03125c54.025001,-11.56625 108.928752,-17.36 163.601252,-18.2725c28.495,-0.47625 56.851251,0.52125 85.033751,3.39375c14.4675,1.475 28.86375,3.38125 43.207501,5.55125l0.1225,-2.3425c-13.7575,-2.05 -27.56125,-3.85875 -41.432501,-5.30375c-27.415,-2.85625 -55.011251,-3.79875 -82.730001,-3.49125" id="path100"/>
  <path fill="#d78c30" fill-rule="nonzero" d="m591.882509,549.679997c-47.223751,3.2625 -95.095001,11.3 -139.578752,29.44625l-0.1175,2.255c34.921251,-14.50625 72.080001,-22.57375 109.245002,-26.955c54.648751,-6.4425 109.615002,-5.9375 163.957502,-2.7625c37.355001,2.1825 74.675001,5.0975 111.790002,9.20875l0.11125,-2.11c-27.1025,-2.95875 -54.306251,-5.29 -81.550001,-7.20125c-54.463751,-3.82 -108.932502,-5.67375 -163.857502,-1.88125" id="path102"/>
  <path fill="#d78c30" fill-rule="nonzero" d="m696.34876,596.916248c-27.38625,-1.3825 -54.776251,-2.73 -82.310001,-2.07625c-55.113751,1.31 -110.440002,9.68375 -163.911252,25.77l-0.075,1.42c40.763751,-12.3325 82.621251,-20.11375 124.665002,-23.7075c55.436251,-4.74 110.827502,-1.09125 165.782502,2.56875c31.48,2.0975 62.892501,4.8925 94.122501,8.68875l0.07875,-1.48125c-18.7475,-2.265 -37.561251,-4.17375 -56.413751,-5.7825c-27.2475,-2.32875 -54.578751,-4.01875 -81.938751,-5.4" id="path104"/>
  <path fill="#d78c30" fill-rule="nonzero" d="m739.700011,655.913624c-27.77125,-1.8585 -55.603751,-3.223625 -83.481251,-4.020125c-41.307501,-1.181125 -82.605001,-1.42725 -124.065002,0.899c-26.2325,1.46975 -52.455001,3.90475 -78.603751,7.307625c0.4,0.54875 0.81875,1.078625 1.2625,1.59125c97.325001,-12.182625 194.923753,-10.30025 291.825004,-3.556625c20.1075,1.399 40.185001,3.05375 60.236251,4.881375c4.98,0.453625 9.9525,0.9775 14.92,1.54c0.61,-0.461375 1.20125,-0.943875 1.7725,-1.451125l-0.315,-0.04c-27.63875,-3.517625 -55.671251,-5.28625 -83.551251,-7.151375" id="path106"/>
  <path fill="#d4901d" fill-rule="nonzero" d="m799.681262,646.753873c0,0 -85.272501,-8.546375 -150.693752,-8.546375c-65.421251,0 -151.588752,8.546375 -151.588752,8.546375l0.49625,-9.46875l297.040004,0l1.67125,-31.843875c1.74,0.16875 3.47625,0.33875 5.21625,0.5125l-2.14125,40.800126m2.2175,-42.260126c-1.7375,-0.1725 -3.4775,-0.3425 -5.21625,-0.51l2.46125,-46.917501c1.73875,0.15625 3.48,0.315 5.21875,0.47625l-2.46375,46.951251m2.57125,-49.017501c-1.74,-0.15875 -3.4775,-0.31625 -5.2175,-0.47l2.62625,-50.075001c1.73875,0.19 3.47625,0.385 5.2125,0.58625l-2.62125,49.958751" id="path108"/>
  <path fill="#d4901d" fill-rule="nonzero" d="m807.211262,503.233746c-1.73625,-0.19875 -3.47375,-0.39375 -5.2125,-0.5825l2.24,-42.696251c1.74375,0.05125 3.49125,0.10625 5.23375,0.165l-2.26125,43.113751m2.37,-45.165001c-1.74625,-0.0575 -3.48875,-0.11 -5.235,-0.16l0.9575,-18.24c1.745,0.0225 3.4925,0.04 5.24,0.05125l-0.9625,18.34875m1.05875,-20.185c-1.74875,-0.0125 -3.4925,-0.03125 -5.24,-0.055l1.82,-34.705001c1.7475,0.0175 3.49375,0.03 5.24125,0.03875l-1.82125,34.721251m1.935,-36.895001c-1.7475,-0.01 -3.4925,-0.02375 -5.24,-0.0425l2.61,-49.758751c1.7425,0.09875 3.485,0.1975 5.2275,0.2975l-2.5975,49.503751m2.70375,-51.522501c-1.74125,-0.09875 -3.48625,-0.1975 -5.2275,-0.29625l0.95125,-18.1225c1.73375,0.25125 3.46875,0.50625 5.2025,0.7625l-0.92625,17.65625m1.015,-19.35875c-1.73375,-0.25625 -3.4675,-0.50875 -5.2025,-0.76l1.17625,-22.415c1.7375,0.19 3.475,0.37875 5.2125,0.5675l-1.18625,22.6075m2.92625,-55.767501c-1.73125,-0.3375 -3.4575,-0.67125 -5.19,-1.0025l1.285,-24.4925c1.7375,0.18875 3.47625,0.3825 5.2125,0.5825l-1.3075,24.9125m1.38875,-26.47375c-1.73625,-0.19875 -3.47375,-0.39125 -5.2125,-0.57875l1.12625,-21.45625c1.74,0.13625 3.48125,0.275 5.22125,0.41625l-1.135,21.61875m1.2225,-23.29125c-1.73875,-0.14125 -3.4825,-0.27875 -5.22125,-0.4125l1.7075,-32.55875c1.755,-0.12375 3.50875,-0.25125 5.26375,-0.3825l-1.75,33.35375m-3.43875,-34.386251l0.065,-1.255l5.24375,0l-0.04625,0.87125c-1.75375,0.13125 -3.50875,0.26 -5.2625,0.38375" id="path110"/>
  <path fill="#c17f2e" fill-rule="nonzero" d="m818.317512,191.603742l0.075,-1.415c1.75375,-0.12375 3.50875,-0.2525 5.2625,-0.38375l-0.07375,1.41625c-1.755,0.13125 -3.50875,0.25875 -5.26375,0.3825" id="path112"/>
  <path fill="#c17f2e" fill-rule="nonzero" d="m821.743762,226.247492c-1.74,-0.14125 -3.48125,-0.28 -5.22125,-0.41625l0.0875,-1.66875c1.73875,0.13375 3.4825,0.27125 5.22125,0.4125l-0.0875,1.6725" id="path114"/>
  <path fill="#c17f2e" fill-rule="nonzero" d="m820.527512,249.427493c-1.73625,-0.2 -3.475,-0.39375 -5.2125,-0.5825l0.08125,-1.5575c1.73875,0.1875 3.47625,0.38 5.2125,0.57875l-0.08125,1.56125" id="path116"/>
  <path fill="#d4901d" fill-rule="nonzero" d="m817.577512,305.656243c-1.73875,-0.18875 -3.47625,-0.37875 -5.21375,-0.56875l1.55,-29.54c1.73,0.33 3.46375,0.6625 5.19125,0.99625l-1.5275,29.1125" id="path118"/>
  <path fill="#c17f2e" fill-rule="nonzero" d="m816.205012,331.809994c-1.73375,-0.25625 -3.46875,-0.51125 -5.2025,-0.7625l0.08875,-1.7c1.735,0.25125 3.46875,0.50375 5.2025,0.76l-0.08875,1.7025" id="path120"/>
  <path fill="#c17f2e" fill-rule="nonzero" d="m817.480012,307.499993c-1.7375,-0.18875 -3.475,-0.3775 -5.2125,-0.5675l0.09625,-1.845c1.7375,0.19 3.475,0.38 5.21375,0.56875l-0.0975,1.84375m1.625,-30.95625c-1.7275,-0.33375 -3.46125,-0.66625 -5.19125,-0.99625l0.11625,-2.21c1.7325,0.33125 3.45875,0.665 5.19,1.0025l-0.115,2.20375" id="path122"/>
  <path fill="#c17f2e" fill-rule="nonzero" d="m815.172512,351.484994c-1.7425,-0.1 -3.485,-0.19875 -5.2275,-0.2975l0.10625,-2.0175c1.74125,0.09875 3.48625,0.1975 5.2275,0.29625l-0.10625,2.01875" id="path124"/>
  <path fill="#c17f2e" fill-rule="nonzero" d="m812.461262,403.162495c-1.7475,-0.00875 -3.49375,-0.02125 -5.24125,-0.03875l0.115,-2.1775c1.7475,0.01875 3.4925,0.0325 5.24,0.0425l-0.11375,2.17375" id="path126"/>
  <path fill="#c17f2e" fill-rule="nonzero" d="m810.543762,439.719995c-1.7475,-0.01125 -3.495,-0.02875 -5.24,-0.05125l0.09625,-1.84c1.7475,0.02375 3.49125,0.0425 5.24,0.055l-0.09625,1.83625" id="path128"/>
  <path fill="#c17f2e" fill-rule="nonzero" d="m809.472512,460.119996c-1.7425,-0.05875 -3.49,-0.11375 -5.23375,-0.165l0.1075,-2.04625c1.74625,0.05 3.48875,0.1025 5.235,0.16l-0.10875,2.05125" id="path130"/>
  <path fill="#c17f2e" fill-rule="nonzero" d="m807.091262,505.517496c-1.73625,-0.20125 -3.47375,-0.39625 -5.2125,-0.58625l0.12,-2.28c1.73875,0.18875 3.47625,0.38375 5.2125,0.5825l-0.12,2.28375" id="path132"/>
  <path fill="#c17f2e" fill-rule="nonzero" d="m804.362512,557.542497c-1.73875,-0.16125 -3.48,-0.32 -5.21875,-0.47625l0.10875,-2.06c1.74,0.15375 3.4775,0.31125 5.2175,0.47l-0.1075,2.06625" id="path134"/>
  <path fill="#c17f2e" fill-rule="nonzero" d="m801.822512,605.953748c-1.74,-0.17375 -3.47625,-0.34375 -5.21625,-0.5125l0.07625,-1.4575c1.73875,0.1675 3.47875,0.3375 5.21625,0.51l-0.07625,1.46" id="path136"/>
  <path fill="#f8f8f8" fill-rule="nonzero" d="m818.773762,182.907492l-307.447505,0l-23.83875,454.377632l307.447505,0l23.83875,-454.377632" id="path138"/>
  <path fill="#d4901d" fill-rule="nonzero" d="m783.782512,182.907492l-206.866253,0l1.05,-1.56125c2.04875,-3.04875 5.39125,-5.42 8.76875,-6.21625l40.102501,-9.465c25.51375,3.7925 51.153751,7.55 76.951251,9.53625c21.90625,1.6875 43.905001,2.68 65.961251,2.68c4.565,0 9.12875,-0.0425 13.6975,-0.13c0.51,1.01125 0.70375,2.235 0.53125,3.59375l-0.19625,1.5625m-13.3975,-6.60375c-19.5575,0 -39.071251,-0.82375 -58.510001,-2.17125c-26.9825,-1.87125 -53.721251,-5.7025 -80.381251,-9.56625l26.3775,-6.22625l6.38375,-8.205l58.342501,0l-0.16375,8.205l57.738751,16.79c0.79625,0.23125 1.4825,0.595 2.04875,1.07125c-3.9475,0.06875 -7.8925,0.1025 -11.83625,0.1025" id="path140"/>
  <path fill="#c17f2e" fill-rule="nonzero" d="m769.750011,177.881241c-22.05625,0 -44.055001,-0.9925 -65.961251,-2.68c-25.7975,-1.98625 -51.437501,-5.74375 -76.951251,-9.53625l4.65625,-1.09875c26.66,3.86375 53.398751,7.695 80.381251,9.56625c19.43875,1.3475 38.952501,2.17125 58.510001,2.17125c3.94375,0 7.88875,-0.03375 11.83625,-0.1025c0.5125,0.43 0.925,0.95375 1.22625,1.55c-4.56875,0.0875 -9.1325,0.13 -13.6975,0.13" id="path142"/>
  <path fill="#dfe0df" fill-rule="nonzero" d="m767.183761,222.899992l-205.581253,0c-5.81875,0 -7.83625,-5.5325 -4.06625,-11.14625l19.38,-28.84625l206.866253,0l-3.63875,28.84625c-0.7075,5.61375 -7.14125,11.14625 -12.96,11.14625" id="path144"/>
  <path fill="#bbbcbd" fill-rule="nonzero" d="m672.53876,86.88124c4.75375,0 8.40625,3.8525 8.15625,8.6075c-0.25,4.755 -4.30625,8.60875 -9.05875,8.60875c-4.75375,0 -8.40625,-3.85375 -8.1575,-8.60875c0.24875,-4.755 4.305,-8.6075 9.06,-8.6075zm92.225001,85.640001l-63.555001,-16.78875l-5.6725,-17.365c7.61625,-6.95 12.58125,-16.8025 12.9025,-27.69875c0.5625,-19.10125 -13.87875,-35.031251 -32.88625,-36.210001c-21.5225,-1.33625 -40.348751,15.78 -41.466251,37.085001c-0.55375,10.5475 3.34875,20.06125 10.05125,26.82375l-7.49375,17.365l-65.317501,16.78875c-3.1,0.79625 -5.6225,3.1675 -6.615,6.21625l-9.89125,30.4075c-1.82625,5.61375 2.11,11.14625 7.92875,11.14625l205.581253,0c5.81875,0 10.335,-5.5325 9.0975,-11.14625l-6.70125,-30.4075c-0.6725,-3.04875 -2.94625,-5.42 -5.9625,-6.21625" id="path146"/>
  <path fill="#d3d4d3" fill-rule="nonzero" d="m670.08876,86.88124c4.75375,0 8.40625,3.8525 8.15625,8.6075c-0.25,4.755 -4.30625,8.60875 -9.05875,8.60875c-4.755,0 -8.40625,-3.85375 -8.1575,-8.60875c0.24875,-4.755 4.30625,-8.6075 9.06,-8.6075zm92.226251,85.640001l-63.556251,-16.78875l-5.6725,-17.365c7.61625,-6.95 12.58125,-16.8025 12.9025,-27.69875c0.5625,-19.10125 -13.87875,-35.031251 -32.88625,-36.210001c-21.5225,-1.33625 -40.348751,15.78 -41.465001,37.085001c-0.555,10.5475 3.3475,20.06125 10.05125,26.82375l-7.495,17.365l-65.316251,16.78875c-3.10125,0.79625 -5.625,3.1675 -6.615,6.21625l-9.8925,30.4075c-1.82625,5.61375 2.11,11.14625 7.92875,11.14625l205.581253,0c5.8175,0 10.335,-5.5325 9.0975,-11.14625l-6.70125,-30.4075c-0.6725,-3.04875 -2.94625,-5.42 -5.96125,-6.21625" id="path148"/>
  <path fill="#f6bd51" fill-rule="nonzero" d="m146.381252,358.727494c0,0 -5.295,4.24625 -9.32875,4.895c-4.03375,0.6475 -10.3925,-1.72625 -10.3925,-1.72625l45.351251,282.222379l19.72125,-3.168375l-45.351251,-282.222754" id="path150"/>
  <path fill="#ee9f22" fill-rule="nonzero" d="m126.660002,361.896244c0,0 -2.115625,2.4625 -4.770375,2.88875c-2.32175,0.3725 -4.741625,-0.8625 -5.3105,-1.1775c-0.0035,0.4125 0.015625,0.805 0.069375,1.13625c0,0 42.136501,262.220129 45.156501,281.015004l10.20625,-1.640125l-45.351251,-282.222379" id="path152"/>
  <path fill="#2e2d2d" fill-rule="nonzero" d="m131.828752,324.687494c-0.35625,-0.45375 -0.76125,-0.6425 -1.12625,-0.58375c-0.365,0.05875 -0.69,0.365 -0.8875,0.90625l-4.2,11.73125l13.87875,-2.23125l-7.665,-9.8225" id="path154"/>
  <path fill="#e24d1e" fill-rule="nonzero" d="m203.267503,647.583498l-40.132501,6.44925c0.27625,1.721125 0.97625,6.0795 0.98625,6.145c1.78125,11.081 11.6775,15.3125 22.76,13.53075c11.0825,-1.78125 19.15375,-8.8985 17.37375,-19.981c-0.01125,-0.0625 -0.71125,-4.42375 -0.9875,-6.144" id="path156"/>
  <path fill="#f8f8f8" fill-rule="nonzero" d="m201.937503,639.308623l-40.132501,6.450125c0.555,3.455125 1.01625,6.32225 1.33,8.274l40.132501,-6.44925c-0.31375,-1.951125 -0.775,-4.818375 -1.33,-8.274875" id="path158"/>
  <path fill="#f8cd98" fill-rule="nonzero" d="m155.151252,354.581244l-15.6575,-20.07125l-13.87875,2.23125l-8.58175,23.965c-0.279375,0.7675 -0.443875,1.9 -0.454125,2.90125c0.568875,0.315 2.98875,1.55 5.3105,1.1775c2.65475,-0.42625 4.770375,-2.88875 4.770375,-2.88875c0,0 6.35875,2.37375 10.3925,1.72625c4.03375,-0.64875 9.32875,-4.895 9.32875,-4.895c0,0 2.78125,1.675 5.43625,1.24875c2.32125,-0.3725 4.2325,-2.305 4.67375,-2.7825c-0.3225,-0.9475 -0.835,-1.97125 -1.34,-2.6125" id="path160"/>
  <path fill="#ee9f22" fill-rule="nonzero" d="m146.381252,358.727494l45.351251,282.222754l10.205,-1.641625c-3.02,-18.793625 -45.156251,-281.013629 -45.156251,-281.013629c-0.05375,-0.3325 -0.1575,-0.71 -0.29,-1.10125c-0.44125,0.4775 -2.3525,2.41 -4.67375,2.7825c-2.655,0.42625 -5.43625,-1.24875 -5.43625,-1.24875" id="path162"/>
  <g id="svg_1">
   <path fill="#eeeeee" fill-rule="nonzero" d="m659.43376,682.802249c-123.793752,0 -224.148753,-5.3975 -224.148753,-12.056125c0,-1.935125 8.46875,-3.76225 23.5175,-5.382375c4.04375,2.953625 9.06125,4.693875 14.555,4.693875l332.268755,0l6.52125,0c6.86125,0 13.2625,-2.712875 18.13125,-7.117625c33.245,2.1035 53.303751,4.8285 53.303751,7.806125c0,6.658625 -100.355001,12.056125 -224.148753,12.056125" id="path16"/>
   <path fill="#eeeeee" fill-rule="nonzero" d="m332.646255,682.802249c-42.811251,0 -77.517501,-4.3325 -77.517501,-9.67625c0,-5.34325 34.706251,-9.67725 77.517501,-9.67725c42.812501,0 77.517501,4.334 77.517501,9.67725c0,5.34375 -34.705001,9.67625 -77.517501,9.67625" id="path18"/>
   <path fill="#eeeeee" fill-rule="nonzero" d="m169.683753,679.052249c-26.84875,0 -48.613876,-2.852 -48.613876,-6.371125c0,-3.52 21.765125,-6.3735 48.613876,-6.3735c26.8475,0 48.612501,2.8535 48.612501,6.3735c0,3.519125 -21.765,6.371125 -48.612501,6.371125" id="path70"/>
  </g>
 </g>
</svg>