<?xml version="1.0"?>
<svg width="1000.8" height="750" xmlns="http://www.w3.org/2000/svg" xmlns:svg="http://www.w3.org/2000/svg" stroke="null" style="vector-effect: non-scaling-stroke;">
 <metadata stroke="null" style="vector-effect: non-scaling-stroke;" id="metadata8">image/svg+xml</metadata>

 <g stroke="null">
  <title stroke="null">Layer 1</title>
  <path fill="#fbd6b1" fill-rule="nonzero" d="m630.540009,466.528746c0,0 -16.41875,-3.50625 -10.9875,-15.69125c5.43375,-12.185 17.13375,-0.1175 17.13375,-0.1175l-6.14625,15.80875" id="path16"/>
  <path fill="#f8f8f8" fill-rule="nonzero" d="m640.59001,452.304996l-3.68125,-2.15875l-6.615,17.01125l3.96125,2.06l6.335,-16.9125" id="path18"/>
  <path fill="#3b393d" fill-rule="nonzero" d="m739.773761,418.696245c0,0 -15.96125,92.148751 -107.381252,51.035001l6.82125,-19.625c0,0 59.572501,35.756251 84.810001,-34.613751l15.75,3.20375" id="path20"/>
  <path fill="#66686d" fill-rule="nonzero" d="m649.34376,473.181246c-0.92,-0.51 -1.25,-1.665 -0.7425,-2.58125c0.51,-0.9225 1.66625,-1.25375 2.5825,-0.745c0.92375,0.505 1.2525,1.66375 0.74625,2.58125c-0.51,0.92 -1.66625,1.255 -2.58625,0.745" id="path22"/>
  <path fill="#66686d" fill-rule="nonzero" d="m643.05126,471.006246c-0.91875,-0.51 -1.2525,-1.66625 -0.745,-2.58625c0.5125,-0.9175 1.66875,-1.25 2.585,-0.74125c0.9175,0.505 1.25125,1.665 0.7475,2.5825c-0.51,0.91875 -1.6675,1.2525 -2.5875,0.745" id="path24"/>
  <path fill="#66686d" fill-rule="nonzero" d="m636.925009,468.921246c-0.91875,-0.51 -1.25125,-1.66625 -0.74375,-2.58625c0.5075,-0.91875 1.665,-1.2525 2.5825,-0.7425c0.91875,0.51 1.25375,1.66625 0.745,2.585c-0.5075,0.9175 -1.665,1.2525 -2.58375,0.74375" id="path26"/>
  <path style="vector-effect: non-scaling-stroke;" fill="#eeeeee" fill-rule="nonzero" d="m784.782512,653.327624c-56.546251,0 -102.385002,-8.756375 -102.385002,-19.557625c0,-10.8025 45.838751,-19.56 102.385002,-19.56c56.546251,0 102.385002,8.7575 102.385002,19.56c0,10.80125 -45.838751,19.557625 -102.385002,19.557625" id="path28"/>
  <path fill="#fbd6b1" fill-rule="nonzero" d="m878.123763,424.536245c0,0 26.03625,-133.481252 -55.843751,-151.461252c-104.378752,-22.91875 -97.538751,137.200002 -97.538751,137.200002l153.382502,14.26125" id="path30"/>
  <path fill="#3b393d" fill-rule="nonzero" d="m717.721261,524.094997l5.385,52.930001l7.92375,41.697501c0,0 -17.3875,-9.88125 -23.95,3.66125c-9.24125,19.077625 36.152501,6.11475 36.152501,6.11475l-7.7725,-53.471001l1.08625,-33.4075c0,0 40.101251,12.285 99.870001,10.565l1.01375,26.4675l9.65625,49.187376c0,0 -11.1225,-15.867375 -23.38125,-2.05375c-16.45,18.535125 34.285001,7.007375 34.285001,7.007375l-6.555,-55.053501l3.83625,-33.667501c0,0 -51.326251,-20.69125 -137.550002,-19.9775" id="path32"/>
  <path fill="#3b393d" fill-rule="nonzero" d="m831.518762,414.601245l-54.786251,57.367501l-40.042501,-67.400001l-13.7475,-1.315l-5.22125,120.883752c0,0 13.68125,6.985 40.887501,12.07375c11.35625,2.32875 28.87625,4.405 28.87625,4.405c17.90125,1.7825 42.241251,3.30625 67.786251,3.4975l27.05375,-123.351252l-50.806251,-6.16125" id="path34"/>
  <path fill="#f8f8f8" fill-rule="nonzero" d="m736.690011,404.568745l40.042501,67.400001l54.786251,-57.367501l-94.828751,-10.0325" id="path36"/>
  <path fill="#66686d" fill-rule="nonzero" d="m736.690011,404.568745l-3.3825,26.72875l14.80875,4.635l-4.2125,20.1775l32.82875,15.85875l-40.042501,-67.400001" id="path38"/>
  <path fill="#66686d" fill-rule="nonzero" d="m776.732512,471.968746l34.651251,-12.65875l0.35125,-14.95l16.51125,-4.13375l3.2725,-25.625l-54.786251,57.367501" id="path40"/>
  <path fill="#3b393d" fill-rule="nonzero" d="m768.308761,421.104995l5.7625,-6.95625l12.9275,0.87125l3.81125,9.48375l-5.8025,5.54375l4.09625,29.02125l-12.37125,12.9l-10.64625,-17.90125l7.46875,-24.90625l-5.24625,-8.05625" id="path42"/>
  <path fill="#66686d" fill-rule="nonzero" d="m779.593762,484.856246c-0.74,2.29625 -3.20125,3.5525 -5.4975,2.8125c-2.29625,-0.74 -3.55125,-3.2 -2.81375,-5.4975c0.74,-2.295 3.20375,-3.55125 5.495,-2.81375c2.2975,0.74375 3.55875,3.20375 2.81625,5.49875" id="path44"/>
  <path fill="#66686d" fill-rule="nonzero" d="m778.258762,504.779996c-0.74,2.295 -3.2025,3.55375 -5.495,2.81375c-2.295,-0.74125 -3.555,-3.2 -2.81125,-5.49375c0.7375,-2.29625 3.19875,-3.55625 5.49375,-2.815c2.29375,0.73875 3.55625,3.2 2.8125,5.495" id="path46"/>
  <path fill="#483a34" fill-rule="nonzero" d="m723.452511,222.358742c0,0 -28.13875,96.717501 127.381252,92.807501l0.22875,31.8675c0,0 14.65,-14.07125 16.75625,1.36625c2.425,17.7725 -13.945,11.3275 -13.945,11.3275c0,0 10.76875,44.206251 25.0225,60.618751c2.315,-2.35 67.797501,-149.562502 -1.66125,-148.152502c0,0 -0.78875,-32.86625 -44.580001,-42.491251c-61.185001,-13.4475 -73.946251,40.210001 -109.202502,-7.34375" id="path48"/>
  <path fill="#483a34" fill-rule="nonzero" d="m813.131262,348.614994c-0.82625,5.96375 1.0025,11.14375 4.08375,11.57c3.08375,0.4275 6.2525,-4.06 7.08,-10.0225c0.82625,-5.9625 -1.00375,-11.1425 -4.08625,-11.57c-3.0825,-0.4275 -6.25125,4.06 -7.0775,10.0225" id="path50"/>
  <path fill="#483a34" fill-rule="nonzero" d="m744.751261,338.472494c-0.82625,5.9625 1.0025,11.1425 4.085,11.57c3.0825,0.42625 6.25125,-4.06 7.0775,-10.0225c0.8275,-5.9625 -1.00125,-11.1425 -4.08375,-11.57c-3.08375,-0.4275 -6.2525,4.06 -7.07875,10.0225" id="path52"/>
  <path fill="#fbd6b1" fill-rule="nonzero" d="m861.231263,536.296247c0,0 -13.635,11.66125 -20.0475,-0.0375c-6.4125,-11.7 11.51375,-13.91625 11.51375,-13.91625l8.53375,13.95375" id="path54"/>
  <path fill="#f8f8f8" fill-rule="nonzero" d="m854.406263,520.331247l-3.89125,1.7525l10.04375,15.24l3.26375,-2.7575l-9.41625,-14.235" id="path56"/>
  <path fill="#3b393d" fill-rule="nonzero" d="m881.560013,423.452495c0,0 67.472501,59.723751 -17.68875,113.651252l-12.055,-16.9225c0,0 63.392501,-29.33875 24.9975,-77.432501l4.74625,-19.29625" id="path58"/>
  <path fill="#66686d" fill-rule="nonzero" d="m876.496263,525.278747c-0.9475,0.45375 -2.08125,0.05625 -2.53375,-0.8875c-0.4575,-0.95125 -0.05875,-2.08625 0.8875,-2.54c0.94625,-0.45875 2.08125,-0.0575 2.53625,0.88625c0.45375,0.94875 0.05875,2.08625 -0.89,2.54125" id="path60"/>
  <path fill="#66686d" fill-rule="nonzero" d="m871.080013,529.148747c-0.9475,0.45625 -2.08375,0.05625 -2.53875,-0.8875c-0.45125,-0.94875 -0.05375,-2.085 0.89125,-2.53875c0.94375,-0.455 2.0825,-0.05625 2.53875,0.8875c0.45375,0.9475 0.055,2.085 -0.89125,2.53875" id="path62"/>
  <path fill="#66686d" fill-rule="nonzero" d="m865.833763,532.938747c-0.9475,0.455 -2.08125,0.05625 -2.53875,-0.89c-0.45625,-0.945 -0.05625,-2.0825 0.89,-2.53625c0.94625,-0.455 2.08375,-0.05875 2.53875,0.88875c0.455,0.945 0.0575,2.08125 -0.89,2.5375" id="path64"/>
  <path fill="#89b498" fill-rule="nonzero" d="m635.210009,454.516246l1.0025,-2.57875l0,0l-1.0025,2.57875l0,0l0,0m9.2475,-1.76125c-1.45875,-0.65625 -2.6525,-1.25 -3.5275,-1.70625l0.0025,-0.00125c0.8775,0.4575 2.06875,1.05 3.5275,1.70625c0,0 -0.00125,0 -0.0025,0.00125" id="path66"/>
  <path fill="#f0cca7" fill-rule="nonzero" d="m624.090009,455.279996c-1.8925,0 -3.76375,-0.0875 -5.625,-0.21125c0.035,-0.69875 0.15125,-1.435 0.36125,-2.2125c1.4175,0.0725 2.84625,0.10875 4.2825,0.10875c4.46,0 8.835,-0.35125 13.10375,-1.0275l-1.0025,2.57875c-3.64,0.4875 -7.3475,0.76375 -11.12,0.76375" id="path68"/>
  <path fill="#ecebeb" fill-rule="nonzero" d="m635.210009,454.516246l1.0025,-2.57875c0.8425,-0.13375 1.685,-0.28125 2.5175,-0.43875l-0.91375,2.63c-0.865,0.14125 -1.73375,0.27125 -2.60625,0.3875" id="path70"/>
  <path fill="#383639" fill-rule="nonzero" d="m637.81626,454.128746l0.91375,-2.63c0.7375,-0.14125 1.46875,-0.29 2.2,-0.45c0.875,0.45625 2.06875,1.05 3.5275,1.70625c-2.18,0.55 -4.39625,1.005 -6.64125,1.37375" id="path72"/>
  <path fill="#fbc131" fill-rule="nonzero" d="m706.163761,369.912494c-0.00125,45.868751 -37.185001,83.052501 -83.055001,83.052501c-45.867501,0 -83.052501,-37.183751 -83.052501,-83.052501c0.00125,-45.870001 37.185001,-83.053751 83.053751,-83.053751c45.870001,0 83.053751,37.185001 83.053751,83.053751" id="path74"/>
  <path fill="#e09715" fill-rule="nonzero" d="m555.506258,369.912494c0,-37.336251 30.2675,-67.603751 67.602501,-67.603751c37.337501,0 67.603751,30.2675 67.603751,67.603751c0,37.336251 -30.2675,67.603751 -67.603751,67.603751c-37.336251,0 -67.603751,-30.2675 -67.602501,-67.603751" id="path76"/>
  <path fill="#c9881a" fill-rule="nonzero" d="m690.68251,371.111244c-0.6425,-36.781251 -30.63875,-66.403751 -67.573751,-66.403751c-36.933751,0 -66.930001,29.6225 -67.572501,66.403751c-0.00625,-0.4 -0.03,-0.7975 -0.03,-1.19875l0,0c0,-37.336251 30.2675,-67.603751 67.602501,-67.603751c37.337501,0 67.603751,30.2675 67.603751,67.603751l0,0c0,0.40125 -0.0225,0.79875 -0.03,1.19875" id="path78"/>
  <path fill="#c9881a" fill-rule="nonzero" d="m627.037509,417.107495l-9.50625,0l0,-9.3c-6.54625,-0.69 -11.50625,-2.53125 -14.88125,-5.52875c-3.37625,-2.99625 -5.06375,-7.76625 -5.06375,-14.3125l0,-2.79l18.60125,0l0,1.96375c0,3.1 0.585,5.23625 1.7575,6.40625c1.16875,1.1725 2.72125,1.7575 4.65,1.7575c1.99875,0 3.5275,-0.65375 4.59875,-1.96375c1.06625,-1.3075 1.60125,-2.89375 1.60125,-4.75375c0,-2.34125 -0.7425,-4.20125 -2.2225,-5.58c-1.48125,-1.3775 -3.3425,-2.565 -5.5775,-3.565c-2.2425,-0.9975 -4.66875,-1.9975 -7.2875,-2.9975c-2.61875,-0.9975 -5.04625,-2.3075 -7.285,-3.92625c-2.24,-1.6175 -4.1,-3.73625 -5.58,-6.35625c-1.48375,-2.61625 -2.2225,-6.0275 -2.2225,-10.23c0,-12.8825 6.30375,-20.3575 18.91125,-22.425l0,-5.99375l9.50625,0l0,5.99375c6.89,0.69 11.885,2.77375 14.985,6.2525c3.10125,3.48 4.65,8.7675 4.65,15.8625l-17.9825,0l0,-1.55c0,-2.0675 -0.4475,-3.875 -1.34,-5.42625c-0.89875,-1.55 -2.27375,-2.32375 -4.13625,-2.32375c-2.06625,0 -3.5825,0.67125 -4.545,2.01375c-0.96625,1.34375 -1.4475,2.80875 -1.4475,4.3925c0,2.4125 0.77375,4.30625 2.325,5.68375c1.55,1.37875 3.49625,2.5675 5.83875,3.565c2.3425,1 4.8575,1.96375 7.5425,2.89375c2.6875,0.93 5.2025,2.22125 7.54625,3.87625c2.34,1.6525 4.28875,3.8225 5.8375,6.50875c1.54875,2.6875 2.32625,6.27125 2.32625,10.74875c0,7.02625 -1.82875,12.22875 -5.48,15.60375c-3.65125,3.375 -9.0225,5.44125 -16.12,6.2l0,9.3" id="path80"/>
  <path fill="#fbc131" fill-rule="nonzero" d="m602.650009,399.879995c-3.37625,-2.99625 -5.06375,-7.76625 -5.06375,-14.31125l0,-2.79l18.60125,0l0,1.9625c0,3.1 0.585,5.23625 1.75625,6.4075c1.17,1.1725 2.7225,1.75625 4.65125,1.75625c1.99875,0 3.5275,-0.65375 4.59875,-1.96375c1.06625,-1.3075 1.60125,-2.89375 1.60125,-4.7525c0,-2.3425 -0.7425,-4.20125 -2.2225,-5.58125c-1.48125,-1.37625 -3.3425,-2.565 -5.5775,-3.565c-2.2425,-0.9975 -4.66875,-1.99625 -7.2875,-2.99625c-2.61875,-0.99875 -5.04625,-2.3075 -7.285,-3.9275c-2.24,-1.6175 -4.1,-3.73625 -5.58,-6.355c-1.48375,-2.6175 -2.2225,-6.0275 -2.2225,-10.23125c0,-12.88125 6.30375,-20.35625 18.91125,-22.42375l0,-5.995l9.50625,0l0,5.995c6.89,0.68875 11.885,2.7725 14.985,6.25125c3.10125,3.48 4.65,8.7675 4.65,15.8625l-17.9825,0l0,-1.55c0,-2.06625 -0.4475,-3.875 -1.34,-5.425c-0.89875,-1.55 -2.27375,-2.325 -4.13625,-2.325c-2.06625,0 -3.5825,0.67125 -4.545,2.015c-0.96625,1.34375 -1.4475,2.8075 -1.4475,4.3925c0,2.41125 0.77375,4.30625 2.325,5.68375c1.55,1.37875 3.49625,2.56625 5.83875,3.565c2.3425,0.99875 4.8575,1.9625 7.5425,2.89375c2.6875,0.92875 5.2025,2.22125 7.54625,3.875c2.34,1.6525 4.28875,3.82375 5.8375,6.51c1.54875,2.68625 2.32625,6.27 2.32625,10.7475c0,7.0275 -1.82875,12.23 -5.48,15.60375c-3.65125,3.37625 -9.0225,5.4425 -16.12,6.2l0,9.3025l-9.50625,0l0,-9.3025c-6.54625,-0.68875 -11.50625,-2.53125 -14.88125,-5.52875" id="path82"/>
  <path style="vector-effect: non-scaling-stroke;" fill="#eeeeee" fill-rule="nonzero" d="m258.277504,653.327624c-56.546251,0 -102.386252,-8.756375 -102.386252,-19.557625c0,-10.8025 45.840001,-19.56 102.386252,-19.56c56.546251,0 102.386252,8.7575 102.386252,19.56c0,10.80125 -45.840001,19.557625 -102.386252,19.557625" id="path84"/>
  <path fill="#ec6180" fill-rule="nonzero" d="m804.843762,375.692494c0,0 -28.07875,-7.085 -46.561251,-5.3225c0,0 -6.59375,22.69375 20.48625,26.5825c26.8025,3.84875 26.075,-21.26 26.075,-21.26" id="path86"/>
  <path fill="#fbd6b1" fill-rule="nonzero" d="m312.871255,433.099995l13.355,-6.1c14.73375,65.393751 73.971251,31.49125 93.531251,11.6575c0.64875,-0.66 4.94875,-4.53875 6.755,-2.525c0.8725,0.96875 0.62625,2.185 0.06125,3.2625c1.07,-0.48375 2.26,-0.6775 3.07125,0.2225c0.785,0.87625 0.6575,1.955 0.2075,2.955c0.98375,-0.3825 2.02375,-0.4625 2.75625,0.35125c0.8675,0.96625 0.62375,2.18125 0.06,3.25875c1.07125,-0.485 2.26,-0.6775 3.0675,0.2225c1.68875,1.88375 -0.08,4.05125 -1.73125,5.6175c-43.251251,41.002501 -105.313752,54.577501 -121.133752,-18.9225" id="path88"/>
  <path fill="#f8f8f8" fill-rule="nonzero" d="m326.226255,426.999995l-13.355,6.1c2.74875,12.765 6.88,23.0325 12.0575,31.05625l11.9975,-12.21c-4.5425,-5.90875 -8.2425,-14.04125 -10.7,-24.94625" id="path90"/>
  <path fill="#e2c19e" fill-rule="nonzero" d="m332.323755,472.762496c-2.17125,-2.105 -4.225,-4.49 -6.14625,-7.17l0.00625,-2.7125l4.4075,-4.48625l1.7325,14.36875" id="path92"/>
  <path fill="#81a991" fill-rule="nonzero" d="m327.342505,431.463745c-0.3775,-1.36625 -0.73375,-2.7825 -1.0675,-4.24875c-0.0025,-0.01125 -0.005,-0.02125 -0.0075,-0.0325c0,-0.0025 -0.00125,-0.005 -0.00125,-0.0075l0,0c0.33125,1.4575 0.6925,2.85 1.0675,4.21l0.00875,0.07875" id="path94"/>
  <path fill="#e2c19e" fill-rule="nonzero" d="m326.275005,427.214995c-0.0025,-0.01 -0.005,-0.0225 -0.0075,-0.0325c0.0025,0.01125 0.005,0.02125 0.0075,0.0325" id="path96"/>
  <path fill="#dfdfdd" fill-rule="nonzero" d="m326.183755,462.879996l0.0825,-35.705001c0,0.0025 0.00125,0.005 0.00125,0.0075c0.0025,0.01 0.005,0.0225 0.0075,0.0325c0.33375,1.46625 0.69,2.8825 1.0675,4.24875l3.24875,26.93l-4.4075,4.48625" id="path98"/>
  <path fill="#fbd6b1" fill-rule="nonzero" d="m326.273755,423.738745c0,0 -1.375,-197.792503 -141.943752,-132.110002c0,0 -42.217501,30.86625 -26.7675,138.717502c113.665002,21.015 168.711253,-6.6075 168.711253,-6.6075" id="path100"/>
  <path fill="#4c3625" fill-rule="nonzero" d="m187.081253,368.493744l1.7075,-31.72c74.456251,-1.44 129.197502,-18.82125 129.197502,-18.82125c-13.36625,-67.182501 -73.957501,-70.822501 -104.251252,-65.346251c-38.396251,6.17375 -54.210001,31.6625 -57.916251,40.536251c-2.89875,-3.69375 -3.26375,-8.34625 -3.26375,-8.34625c-5.36125,6.6225 -2.47625,12.20875 -2.47625,12.20875c-7.4925,0.18625 -10.00875,7.30625 -10.00875,7.30625c2.4625,-0.74125 4.765,-0.67375 6.74125,-0.27375c-39.135501,17.9725 10.75375,126.426252 10.75375,126.426252c16.32375,-10.0475 28.66875,-50.611251 28.66875,-50.611251c0,0 -17.48,6.43625 -15.28625,-7.41125c2.1925,-13.84875 16.13375,-3.9475 16.13375,-3.9475" id="path102"/>
  <path fill="#fbd6b1" fill-rule="nonzero" d="m134.367502,325.628744c-0.13875,-0.00125 -0.21875,-0.00375 -0.21875,-0.00375c0,0 0.0825,0 0.21875,0.00375" id="path104"/>
  <path fill="#fbd6b1" fill-rule="nonzero" d="m83.874501,382.118745c-5.9375,-40.583751 24.434125,-61.671251 24.434125,-61.671251c0,0 26.960125,-19.1425 36.488876,-3.6725c0,0 2.20625,3.16 -1.15,3.0125c-3.355,-0.1475 -7.60375,-5.22875 -12.23625,-2.48125c0,0 4.625,-1.4 4.7875,2.33625c0.07625,1.79 -3.5175,1.88625 -4.44125,1.8825c-0.135,-0.005 -0.2175,-0.005 -0.2175,-0.005c0,0 0.07875,0.0025 0.2175,0.005c0.8725,0.025 4.13125,0.25875 4.285,2.32375c0.22625,3.03375 -2.46125,3.07125 -3.3275,3.0075c-0.16375,-0.02375 -0.27,-0.02875 -0.27,-0.02875c0,0 0.1075,0.015 0.27,0.02875c0.79375,0.11 3.0425,0.6725 2.19625,3.495c-0.9025,3.00625 -5.55625,0.91375 -5.55625,0.91375c0,0 -10.628375,-0.21625 -15.644,5.9275c-39.264751,50.658751 17.33025,88.387501 43.854001,93.271251l3.17,21.38625c-33.20875,-7.20875 -70.923001,-29.1475 -76.860501,-69.731251" id="path106"/>
  <path fill="#fbd6b1" fill-rule="nonzero" d="m135.325002,330.961244c-0.16375,-0.01375 -0.27125,-0.02875 -0.27125,-0.02875c0,0 0.1075,0.005 0.27125,0.02875" id="path108"/>
  <path fill="#4c3625" fill-rule="nonzero" d="m173.001253,534.616247l5.045,46.797501l-3.5175,51.581376c0,0 49.938751,15.7685 36.406251,-5.412625c-12.4975,-19.56 -28.24875,-3.30875 -28.24875,-3.30875l9.465,-44.910001l1.13,-31.89c0,0 61.421251,7.83625 114.452502,-3.75875l-0.255,33.06375l-7.65375,55.487376c0,0 50.862501,16.681125 37.103751,-6.423875c-10.655,-16.5835 -27.62,-3.52225 -27.62,-3.52225l12.01625,-45.612501l4.7075,-47.916251l-153.031252,5.825" id="path110"/>
  <path fill="#f8f8f8" fill-rule="nonzero" d="m326.273755,423.738745l-0.24125,105.052502c0,0 -63.443751,14.21125 -153.031252,5.825l-15.43625,-104.152502c0,0 103.155002,16.0325 168.708753,-6.725" id="path112"/>
  <path fill="#dfdfdd" fill-rule="nonzero" d="m275.755004,527.831247l-14.27625,-14.4l17.78375,-59.486251l-5.21,-7.1925l2.63375,-4.80875l12.2675,-1.54375l3.19625,5.805l-4.29,6.92l4.42625,61.037501l-16.53125,13.66875" id="path114"/>
  <path fill="#4c3625" fill-rule="nonzero" d="m288.953754,440.399995l3.19625,5.805l-4.28875,6.92l8.0575,59.951251l-16.53,13.6675l-14.27625,-14.39875l14.15,-58.400001l-5.21,-7.1925l2.63375,-4.80875l12.2675,-1.54375" id="path116"/>
  <path fill="#f8f8f8" fill-rule="nonzero" d="m157.565002,430.463745c-6.0275,-1.11 -13.60625,-3.92 -21.26,-8.1875l-2.2275,20.6625c8.75375,4.04875 17.86125,7.0025 26.6575,8.91125l-3.17,-21.38625" id="path118"/>
  <path fill="#81a991" fill-rule="nonzero" d="m414.040006,443.883745l-0.00125,-0.00125c0.4425,-0.37 0.87625,-0.73875 1.3,-1.10625c0,0 0.00125,0.00125 0.0025,0.0025c-0.425,0.3675 -0.85625,0.73375 -1.30125,1.105" id="path120"/>
  <path fill="#e2c19e" fill-rule="nonzero" d="m431.720006,450.591246c-6.75875,0 -12.94875,-2.5375 -17.68,-6.7075c0.445,-0.37125 0.87625,-0.7375 1.30125,-1.105c4.53875,3.515 10.22875,5.6 16.3775,5.6c0.26375,0 0.52875,-0.005 0.795,-0.0125c1.32875,-0.03875 2.6325,-0.17375 3.90375,-0.3975c0.035,0.79 -0.3325,1.58875 -0.87,2.3375c-0.99625,0.1425 -2.0075,0.2425 -3.0375,0.27375c-0.265,0.0075 -0.5275,0.01125 -0.79,0.01125" id="path122"/>
  <path fill="#fbc131" fill-rule="nonzero" d="m458.507507,420.809995c0.43125,14.7875 -11.20625,27.125 -25.99375,27.55625c-14.7875,0.43125 -27.125,-11.20625 -27.55625,-25.99375c-0.43125,-14.7875 11.20625,-27.125 25.99375,-27.555c14.7875,-0.4325 27.12375,11.205 27.55625,25.9925" id="path124"/>
  <path fill="#e09715" fill-rule="nonzero" d="m409.937506,422.227495c-0.35125,-12.0375 9.1225,-22.07875 21.15875,-22.43c12.03625,-0.35125 22.07875,9.1225 22.43,21.15875c0.35125,12.03625 -9.1225,22.07875 -21.1575,22.43c-12.0375,0.35 -22.08,-9.1225 -22.43125,-21.15875" id="path126"/>
  <path fill="#e2ae2c" fill-rule="nonzero" d="m431.152506,399.796245c0.19875,-0.00625 0.395,-0.00875 0.5925,-0.00875c-0.1975,0 -0.395,0.0025 -0.5925,0.00875m0.60375,-0.00875c-0.00375,0 -0.00875,0 -0.01125,0l0,0c0.0025,0 0.0075,0 0.01125,0" id="path128"/>
  <path fill="#c9881a" fill-rule="nonzero" d="m409.958756,422.613745c-0.00625,-0.13 -0.01625,-0.25625 -0.02125,-0.38625l0,0c-0.00625,-0.21125 -0.00875,-0.4225 -0.00875,-0.6325c-0.00875,-11.755 9.3425,-21.4525 21.1675,-21.7975c0.01875,-0.00125 0.0375,-0.00125 0.05625,-0.00125c0.1975,-0.00625 0.395,-0.00875 0.5925,-0.00875l0,0c0.0025,0 0.0075,0 0.01125,0c11.74125,0.0075 21.425,9.35375 21.77,21.16875c0.00375,0.12875 0,0.2575 0.00125,0.38625c-0.5425,-11.63625 -10.1425,-20.78125 -21.7625,-20.78125c-0.21375,0 -0.43,0.0025 -0.64625,0.00875c-11.90625,0.3475 -21.29875,10.18125 -21.16,22.04375" id="path130"/>
  <path fill="#c9881a" fill-rule="nonzero" d="m430.377506,436.858745l-0.0875,-2.9975c-2.1175,-0.16125 -3.73375,-0.70875 -4.84875,-1.64375c-1.1175,-0.93375 -1.70625,-2.455 -1.7675,-4.565l-0.02625,-0.9l5.99625,-0.175l0.01875,0.63375c0.03,0.99875 0.2375,1.68125 0.6275,2.0475c0.37,0.35125 0.8475,0.525 1.4325,0.525c0.0275,0 0.055,0 0.0825,-0.00125c0.64375,-0.01875 1.13125,-0.24375 1.46375,-0.6775c0.3325,-0.43125 0.48875,-0.9475 0.47125,-1.54625c-0.02125,-0.75625 -0.2775,-1.3475 -0.76875,-1.77875c-0.49,-0.43 -1.10125,-0.79625 -1.83125,-1.09625c-0.7325,-0.30125 -1.52375,-0.6 -2.3775,-0.89875c-0.85375,-0.29625 -1.64875,-0.695 -2.385,-1.1975c-0.7375,-0.5 -1.3575,-1.165 -1.85875,-1.995c-0.50375,-0.83 -0.77375,-1.9225 -0.81375,-3.2775c-0.12,-4.15375 1.84125,-6.6225 5.88625,-7.4075l-0.05625,-1.9325l3.06375,-0.08875l0.0575,1.93125c2.2275,0.15875 3.85625,0.7825 4.89,1.87375c1.0325,1.095 1.58125,2.78375 1.6475,5.07125l-5.79625,0.17l-0.015,-0.50125c-0.02,-0.66625 -0.18125,-1.245 -0.48375,-1.735c-0.2925,-0.475 -0.7225,-0.71125 -1.29125,-0.71125c-0.02125,0 -0.0425,0 -0.06375,0c-0.66625,0.01875 -1.14875,0.25125 -1.44625,0.6925c-0.29875,0.4425 -0.44,0.91875 -0.425,1.43c0.0225,0.7775 0.29,1.38 0.8025,1.81c0.5125,0.43 1.15125,0.795 1.91625,1.09375c0.76375,0.3 1.58375,0.58875 2.45875,0.86125c0.875,0.275 1.6975,0.66875 2.46875,1.18c0.77,0.51 1.41875,1.1925 1.94375,2.04375c0.52375,0.85125 0.80875,1.99875 0.85125,3.4425c0.06625,2.265 -0.475,3.96 -1.62,5.0825c-1.14625,1.1225 -2.8575,1.83875 -5.13875,2.15125l0.0875,2.9975l-3.065,0.08875" id="path132"/>
  <path fill="#fbc131" fill-rule="nonzero" d="m425.417506,431.444995c-1.11625,-0.93375 -1.705,-2.45625 -1.76625,-4.56625l-0.02625,-0.9l5.99625,-0.17375l0.01875,0.63125c0.02875,1 0.2375,1.68375 0.62625,2.05c0.38875,0.3675 0.895,0.54125 1.51625,0.5225c0.64375,-0.01875 1.13125,-0.24375 1.46375,-0.67625c0.3325,-0.43125 0.48875,-0.9475 0.4725,-1.5475c-0.0225,-0.755 -0.28,-1.34625 -0.77,-1.7775c-0.49,-0.43 -1.10125,-0.79625 -1.83125,-1.0975c-0.7325,-0.3 -1.52375,-0.6 -2.3775,-0.8975c-0.85375,-0.29625 -1.64875,-0.69625 -2.38625,-1.1975c-0.73625,-0.5 -1.35625,-1.165 -1.8575,-1.99625c-0.50375,-0.83 -0.77375,-1.9225 -0.81375,-3.2775c-0.12,-4.1525 1.84125,-6.62125 5.88625,-7.40625l-0.05625,-1.9325l3.065,-0.09l0.05625,1.9325c2.2275,0.1575 3.85625,0.7825 4.89,1.87375c1.0325,1.0925 1.58125,2.78375 1.6475,5.07125l-5.79625,0.16875l-0.015,-0.5c-0.02,-0.66625 -0.18125,-1.245 -0.48375,-1.73625c-0.30375,-0.49125 -0.755,-0.7275 -1.355,-0.71125c-0.66625,0.02 -1.14875,0.25125 -1.44625,0.6925c-0.29875,0.44375 -0.44,0.91875 -0.425,1.43c0.0225,0.77875 0.29,1.38125 0.8025,1.81125c0.5125,0.43 1.15125,0.795 1.91625,1.09375c0.76375,0.3 1.585,0.5875 2.45875,0.86125c0.875,0.275 1.6975,0.6675 2.46875,1.18c0.77,0.51 1.41875,1.19125 1.94375,2.0425c0.525,0.85125 0.80875,2 0.85125,3.4425c0.065,2.26625 -0.475,3.96 -1.62,5.08375c-1.14625,1.12125 -2.8575,1.8375 -5.13875,2.14875l0.0875,3l-3.065,0.08875l-0.0875,-2.99875c-2.11625,-0.16 -3.7325,-0.70875 -4.85,-1.6425" id="path134"/>
  <path fill="#4c3625" fill-rule="nonzero" d="m290.038754,362.458744c0.90625,5.9525 4.13375,10.39625 7.21,9.92875c3.0775,-0.46875 4.8375,-5.67125 3.9325,-11.62375c-0.90625,-5.95 -4.13375,-10.39625 -7.21125,-9.9275c-3.07625,0.4675 -4.83625,5.6725 -3.93125,11.6225" id="path148"/>
  <path fill="#4c3625" fill-rule="nonzero" d="m221.602503,372.206244c0.905,5.95125 4.1325,10.39625 7.21,9.9275c3.07625,-0.4675 4.83625,-5.67125 3.93125,-11.6225c-0.905,-5.9525 -4.13375,-10.39625 -7.21,-9.92875c-3.0775,0.46875 -4.8375,5.6725 -3.93125,11.62375" id="path150"/>
  <path fill="#ec6180" fill-rule="nonzero" d="m243.043754,419.503745c0,0 28.94875,0.7525 46.595001,-5.02125c0,0 1.175,-25.8875 -25.81875,-21.44125c-26.1775,4.3125 -20.77625,26.4625 -20.77625,26.4625" id="path152"/>
  <g stroke="null" id="svg_1">
   <path fill="#dddddd" fill-rule="nonzero" d="m435.352506,384.719995l3.73625,-16.4125l4.5425,2.4675l-6.3,14.45125l-1.97875,-0.50625" id="path138"/>
   <path fill="#dddddd" fill-rule="nonzero" d="m425.426256,385.338745l-5.2375,-20.7775l6.9825,-1.42875l1.0275,21.725l-2.7725,0.48125" id="path136"/>
   <path fill="#dddddd" fill-rule="nonzero" d="m418.380006,387.579995l-9.67,-15.25125l-3.73375,5.03125l11.51375,11.66l1.89,-1.44" id="path140"/>
   <path fill="#dddddd" fill-rule="nonzero" d="m628.806259,274.051243l10.335,-45.400001l12.56375,6.8275l-17.42375,39.968751l-5.475,-1.39625" id="path144"/>
   <path fill="#dddddd" fill-rule="nonzero" d="m600.008759,274.414993l-14.48625,-57.466251l19.31375,-3.9525l2.84,60.088751l-7.6675,1.33" id="path142"/>
   <path fill="#dddddd" fill-rule="nonzero" d="m581.862509,281.959993l-26.74625,-42.182501l-10.32625,13.9125l31.8475,32.25l5.225,-3.98" id="path146"/>
   <path fill="#dddddd" fill-rule="nonzero" d="m270.263754,215.213742l1.30125,0.21c3.02125,0.48875 5.075,3.335 4.58625,6.35625l-0.3,1.855c-0.48875,3.02125 -3.33375,5.075 -6.355,4.58625l-1.3025,-0.21125c-3.02125,-0.48875 -5.07375,-3.33375 -4.585,-6.355l0.3,-1.855c0.48875,-3.02125 3.33375,-5.075 6.355,-4.58625zm-7.42,-73.707501c5.93875,-4.57375 13.33125,-6.14625 22.17375,-4.715c8.18,1.32375 14.35625,4.69 18.52875,10.09875c4.175,5.41125 5.68125,11.70625 4.52125,18.8825c-0.705,4.3475 -2.16625,7.73125 -4.39,10.15c-2.22125,2.4175 -6.52125,5.805 -12.8975,10.16c-4.64,3.16375 -7.77875,5.97125 -9.42,8.42c-1.07,1.595 -1.96875,3.76875 -2.69625,6.52c-0.7275,2.75375 -3.42625,4.51625 -6.23875,4.06c-3.22875,-0.52125 -5.325,-3.725 -4.47875,-6.8825c0.83875,-3.13 1.8825,-5.7575 3.1325,-7.88625c1.97375,-3.3625 5.7425,-6.97375 11.3025,-10.83l5.8075,-4.0475c1.73125,-1.15125 3.1875,-2.41 4.3725,-3.77625c2.1325,-2.38875 3.4325,-5.02 3.89625,-7.89125c0.65125,-4.02 -0.01,-7.70375 -1.98125,-11.0525c-1.9725,-3.35 -5.78375,-5.48125 -11.4375,-6.39625c-6.99375,-1.13125 -12.24125,0.63 -15.745,5.28c-1.36375,1.79375 -2.51125,4.24 -3.44375,7.3375c-0.7725,2.5625 -3.36625,4.125 -6.00875,3.6975l-0.1375,-0.0225c-3.3875,-0.54875 -5.47875,-3.9775 -4.415,-7.2125c1.92,-5.835 5.105,-10.46625 9.555,-13.89375" id="path156"/>
   <path transform="matrix(1,0,0,1,0,0) matrix(1,0,0,1,0,0) matrix(1,0,0,1,0,0) " fill="#dddddd" fill-rule="nonzero" d="m190.532503,214.423742l1.77375,-0.35375c3.58875,-0.71625 7.0775,1.6125 7.7925,5.20125l0.48625,2.43875c0.71625,3.58875 -1.6125,7.07625 -5.2,7.7925l-1.77375,0.35375c-3.58875,0.71625 -7.0775,-1.61375 -7.7925,-5.20125l-0.48625,-2.44c-0.71625,-3.5875 1.6125,-7.07625 5.2,-7.79125zm-39.628751,-80.707501c4.8125,-7.7225 12.5525,-12.64875 23.21875,-14.77625c9.86375,-1.96625 18.32,-0.75875 25.3625,3.6225c7.04375,4.3825 11.43,10.90125 13.15625,19.55875c1.04625,5.24375 0.81875,9.7125 -0.68375,13.40625c-1.49875,3.69375 -4.95375,9.3725 -10.35625,17.03125c-3.93375,5.56875 -6.3125,10.09375 -7.14,13.575c-0.5475,2.305 -0.6425,5.2125 -0.28375,8.72125c0.345,3.36625 -1.9825,6.4275 -5.3,7.09l-0.16625,0.0325c-3.86625,0.77125 -7.5475,-1.94125 -7.9275,-5.83125c-0.38625,-3.96125 -0.3175,-7.43125 0.20625,-10.41c0.8175,-4.665 3.57125,-10.36875 8.2575,-17.11625l4.8875,-7.07125c1.48125,-2.04375 2.60375,-4.0925 3.37,-6.1475c1.4125,-3.62625 1.77375,-7.17 1.08375,-10.6325c-0.96875,-4.8475 -3.285,-8.75625 -6.94875,-11.72875c-3.665,-2.9725 -8.905,-3.78 -15.725,-2.42c-8.43375,1.6825 -13.655,5.9125 -15.66375,12.69c-0.775,2.575 -1.04625,5.77875 -0.815,9.61125c0.20125,3.32875 -2.04,6.31125 -5.30875,6.9625l-0.2275,0.045c-3.98,0.79375 -7.77375,-2.075 -7.95625,-6.08625c-0.34375,-7.56125 1.31,-14.26875 4.96,-20.12625" id="path154"/>
  </g>
 </g>
</svg>