<?xml version="1.0"?>
<svg width="1000" height="750" xmlns="http://www.w3.org/2000/svg" xmlns:svg="http://www.w3.org/2000/svg">
 <metadata id="metadata8">image/svg+xml</metadata>

 <g>
  <title>Layer 1</title>
  <path fill="#eeeeee" fill-rule="nonzero" d="m548.091258,580.763747c-57.441251,0 -104.006252,-5.23 -104.006252,-11.6825c0,-6.45125 46.565001,-11.6825 104.006252,-11.6825c57.440001,0 104.005002,5.23125 104.005002,11.6825c0,6.4525 -46.565001,11.6825 -104.005002,11.6825" id="path16"/>
  <path fill="#eeeeee" fill-rule="nonzero" d="m787.378762,580.274997c-55.036251,0 -99.651251,-5.01125 -99.651251,-11.19375c0,-6.1825 44.615001,-11.19375 99.651251,-11.19375c55.036251,0 99.652501,5.01125 99.652501,11.19375c0,6.1825 -44.616251,11.19375 -99.652501,11.19375" id="path18"/>
  <path fill="#eeeeee" fill-rule="nonzero" d="m262.960004,580.274997c-71.315001,0 -129.126252,-5.01125 -129.126252,-11.19375c0,-6.1825 57.811251,-11.19375 129.126252,-11.19375c71.313751,0 129.125002,5.01125 129.125002,11.19375c0,6.1825 -57.811251,11.19375 -129.125002,11.19375" id="path20"/>
  <path fill="#fbd6b1" fill-rule="nonzero" d="m712.801261,395.953745c0,0 -21.07125,-108.028752 45.193751,-122.580002c84.477501,-18.5475 78.940001,111.037502 78.940001,111.037502l-124.133752,11.5425" id="path22"/>
  <path fill="#3c3c3d" fill-rule="nonzero" d="m833.432512,230.381242c0,0 32.03625,82.065001 -98.545001,77.057501l-0.18625,25.79125c0,0 -11.8575,-11.38875 -13.56,1.10375c-1.96375,14.38625 11.28375,9.16875 11.28375,9.16875c0,0 -8.71375,35.778751 -20.25,49.060001c-1.87125,-1.90375 -54.868751,-121.042502 1.345,-119.902502c0,0 0.63875,-26.5975 36.080001,-34.387501c49.517501,-10.88375 55.298751,30.59375 83.832501,-7.89125" id="path24"/>
  <path fill="#3c3c3d" fill-rule="nonzero" d="m765.177511,333.523744c0.66875,4.825 -0.8125,9.0175 -3.3075,9.365c-2.49375,0.345 -5.05875,-3.2875 -5.7275,-8.1125c-0.67125,-4.825 0.81125,-9.01875 3.305,-9.36375c2.49625,-0.34625 5.06,3.28625 5.73,8.11125" id="path26"/>
  <path fill="#3c3c3d" fill-rule="nonzero" d="m821.300012,325.313744c0.66875,4.8275 -0.81,9.01875 -3.305,9.365c-2.49625,0.34625 -5.05875,-3.2875 -5.72875,-8.1125c-0.67,-4.82375 0.81375,-9.0175 3.30625,-9.3625c2.49375,-0.345 5.06,3.285 5.7275,8.11" id="path28"/>
  <path fill="#ec6180" fill-rule="nonzero" d="m808.968762,351.449994c-5.35,0.05875 -22.6425,0.54375 -34.581251,4.265c-0.87625,0.27375 -1.43125,1.1275 -1.35625,2.0425c0.37,4.5325 3.02,17.15125 21.14875,15.4c17.89125,-1.73 17.485,-15.2325 16.76125,-20.03c-0.1475,-0.9775 -0.98375,-1.68875 -1.9725,-1.6775" id="path30"/>
  <path fill="#3c3c3d" fill-rule="nonzero" d="m866.532513,561.998747c-8.30125,-12.04 -23.5275,-0.79 -23.5275,-0.79l1.5825,-37.357501l-6.1975,-145.123752l-11.12375,1.06625l-32.4075,54.547501l-44.338751,-46.430001l-41.118751,4.9875c9.09,41.143751 17.685,82.452501 20.73125,131.937502l-28.105,22.785c0,0 16.57,30.4275 20.2275,19.705c5.6625,-16.59875 -10.7725,-19.63 -10.7725,-19.63l29.76375,-16.97375l5.30875,-31.4625c49.351251,-1.1525 80.826251,-8.55 80.826251,-8.55l6.14125,34.726251l3.7525,43.375001c0,0 37.560001,5.225 29.2575,-6.8125" id="path32"/>
  <path fill="#f8f8f8" fill-rule="nonzero" d="m827.266262,379.793744l-32.4075,54.547501l-44.338751,-46.430001l76.746251,-8.1175" id="path34"/>
  <path fill="#7a7b7c" fill-rule="nonzero" d="m827.266262,379.793744l2.73625,21.6325l-11.985,3.75125l3.40875,16.3275l-26.5675,12.83625l32.4075,-54.547501" id="path36"/>
  <path fill="#7a7b7c" fill-rule="nonzero" d="m794.858762,434.341245l-28.045,-10.2475l-0.28375,-12.09375l-13.36375,-3.34875l-2.64625,-20.74l44.338751,46.430001" id="path38"/>
  <path fill="#b24928" fill-rule="nonzero" d="m801.677512,393.174995l-4.66625,-5.6275l-10.4625,0.70375l-3.085,7.67375l4.6975,4.4875l-3.31625,23.4875l10.01375,10.44125l8.615,-14.4875l-6.045,-20.15875l4.24875,-6.52" id="path40"/>
  <path fill="#7a7b7c" fill-rule="nonzero" d="m792.542512,444.768745c0.6,1.8575 2.59125,2.87625 4.44875,2.2775c1.85875,-0.59875 2.87625,-2.59 2.27875,-4.45c-0.6,-1.855 -2.5925,-2.87375 -4.45,-2.275c-1.8575,0.60125 -2.87625,2.5925 -2.2775,4.4475" id="path42"/>
  <path fill="#7a7b7c" fill-rule="nonzero" d="m793.621262,460.896246c0.6025,1.855 2.595,2.87625 4.44875,2.27625c1.8575,-0.6 2.875,-2.59125 2.27375,-4.4475c-0.595,-1.85625 -2.5875,-2.87375 -4.445,-2.27625c-1.8575,0.59625 -2.8775,2.58875 -2.2775,4.4475" id="path44"/>
  <path fill="#fbd6b1" fill-rule="nonzero" d="m649.74501,464.699996c0,0 -1.19875,14.47125 9.51875,13.13875c10.7125,-1.335 3.68,-14.145 3.68,-14.145l-13.19875,1.00625" id="path46"/>
  <path fill="#f8f8f8" fill-rule="nonzero" d="m663.45501,461.617496l0.69,3.38375l-14.7575,0.62625l-0.18125,-3.505l14.24875,-0.505" id="path48"/>
  <path fill="#3c3c3d" fill-rule="nonzero" d="m709.401261,392.898745c0,0 -68.958751,-2.24 -61.437501,70.453751l16.81375,-0.10625c0,0 -10.945,-56.178751 50.251251,-50.545001l-5.6275,-19.8025" id="path50"/>
  <path fill="#7a7b7c" fill-rule="nonzero" d="m649.76751,454.852496c0.15375,0.84 0.95,1.3925 1.78625,1.24375c0.8375,-0.1525 1.3925,-0.95 1.2425,-1.7875c-0.14625,-0.835 -0.9475,-1.3925 -1.78125,-1.2475c-0.8375,0.15375 -1.395,0.95625 -1.2475,1.79125" id="path52"/>
  <path fill="#7a7b7c" fill-rule="nonzero" d="m649.76626,460.088746c0.15125,0.83625 0.95,1.39375 1.7875,1.24375c0.83375,-0.1475 1.3925,-0.94625 1.2425,-1.78125c-0.14875,-0.84 -0.94875,-1.39875 -1.785,-1.245c-0.83375,0.14625 -1.39375,0.945 -1.245,1.7825" id="path54"/>
  <path fill="#dda035" fill-rule="nonzero" d="m265.316254,412.126245l10.66125,18.75l16.67375,29.325l29.23,51.406251l9.4875,16.68625l11.77625,20.71125c-12.7375,7.23 -26.56875,13.01125 -41.342501,17.0575c-1.33125,0.365 -2.6625,0.70625 -3.99375,1.04l0.0725,0.02125l35.701251,-9.65625l0.04625,-0.045c14.1675,-4.02 27.465,-9.62625 39.737501,-16.59125l-84.057501,-147.832502l-34.915001,-0.08125l10.9225,19.20875" id="path56"/>
  <path fill="#eba936" fill-rule="nonzero" d="m237.203754,211.598742c-4.9075,1.34375 -9.70375,2.88875 -14.39875,4.605c90.465001,-16.2775 179.992503,38.947501 204.733753,129.302502c4.37375,15.9775 6.435,32.0375 6.40625,47.835001l30.22125,-8.17375c0.0275,-15.79625 -2.0325,-31.85875 -6.4075,-47.835001c-26.18375,-95.625001 -124.928752,-151.917502 -220.555003,-125.733752" id="path58"/>
  <path fill="#fab63c" fill-rule="nonzero" d="m386.073756,356.862494c-19.88125,-72.607501 -95.130001,-115.506252 -167.737502,-95.623751c-72.607501,19.88125 -115.504752,95.128751 -95.623376,167.736252c19.880875,72.607501 95.128376,115.505002 167.737127,95.623751c11.23,-3.075 21.745,-7.4825 31.43125,-12.99125l-29.23,-51.406251c-3.00875,1.59625 -6.2725,3.09125 -9.8075,4.47625l5.31,19.39125l-19.8175,5.42625l-5.30875,-19.39125c-14.04125,2.30125 -25.43375,1.29 -34.180001,-3.03125c-8.75,-4.32 -14.99125,-13.2975 -18.7275,-26.94625l-1.5925,-5.8175l38.778751,-10.6175l1.12125,4.09375c1.77,6.4625 4.20875,10.5825 7.32,12.3525c3.1075,1.7775 6.67625,2.11 10.69875,1.00875c4.165,-1.14 6.98125,-3.3775 8.465,-6.71875c0.51,-1.15 0.8575,-2.33625 1.06625,-3.55125l-10.66125,-18.75c-3.32375,-1.43 -7.06625,-2.4875 -11.26375,-3.13625c-5.24125,-0.79875 -10.87375,-1.4975 -16.9,-2.08875c-6.03125,-0.58375 -11.84125,-1.9275 -17.43125,-4.02625c-5.5925,-2.09375 -10.67875,-5.45 -15.26125,-10.065c-4.585,-4.60875 -8.07125,-11.2975 -10.47125,-20.06c-7.3525,-26.85375 1.52,-46.038751 26.62375,-57.545001l-3.42125,-12.49625l19.8175,-5.42625l3.4225,12.49625c14.755,-2.495 26.35875,-1.00125 34.808751,4.47875c8.45125,5.485 14.7,15.625 18.74875,30.41625l-37.487501,10.265l-0.885,-3.23125c-1.18,-4.31 -3.1475,-7.82375 -5.8925,-10.545c-2.75625,-2.72 -6.06875,-3.54875 -9.94875,-2.4875c-4.30875,1.18125 -7.08625,3.445 -8.3275,6.7975c-1.24625,3.35125 -1.4125,6.67875 -0.50875,9.98125c1.3775,5.02875 4.0725,8.535 8.0925,10.52125c4.01625,1.99125 8.75125,3.3575 14.205,4.1c5.455,0.7475 11.24875,1.32125 17.3775,1.72625c6.1325,0.405 12.115,1.6625 17.94375,3.77125c5.82125,2.11125 11.12375,5.52375 15.88625,10.24c2.01125,1.9925 3.815,4.42125 5.43375,7.235l81.020001,0.1925c0.0325,-12.02 -1.49875,-24.23375 -4.82375,-36.377501" id="path60"/>
  <path fill="#fab63c" fill-rule="nonzero" d="m222.805003,216.203742c-5.275,0.94875 -10.55375,2.12625 -15.8225,3.56875c-95.624626,26.18375 -151.917502,124.930002 -125.734502,220.555003c25.819875,94.295001 122.195752,150.338752 216.560753,126.775002c1.33125,-0.33375 2.6625,-0.675 3.99375,-1.04c14.77375,-4.04625 28.605,-9.8275 41.342501,-17.0575l-11.77625,-20.71125c-11.04875,6.28375 -23.04125,11.31 -35.850001,14.81625c-82.815001,22.6775 -168.641253,-26.25125 -191.317628,-109.066252c-22.67575,-82.816251 26.251375,-168.641253 109.067627,-191.317503c82.815001,-22.67625 168.640003,26.25125 191.316253,109.067502c3.79375,13.85125 5.54,27.78125 5.5025,41.491251l23.8575,0.05625c0.02875,-15.7975 -2.0325,-31.8575 -6.40625,-47.835001c-24.74125,-90.355001 -114.268752,-145.580002 -204.733753,-129.302502" id="path62"/>
  <path fill="#d99422" fill-rule="nonzero" d="m404.585006,351.793744c-22.67625,-82.816251 -108.501252,-131.743752 -191.316253,-109.067502c-82.816251,22.67625 -131.743377,108.501252 -109.067627,191.317503c22.676375,82.815001 108.502627,131.743752 191.317628,109.066252c12.80875,-3.50625 24.80125,-8.5325 35.850001,-14.81625l-9.4875,-16.68625c-9.68625,5.50875 -20.20125,9.91625 -31.43125,12.99125c-72.608751,19.88125 -147.856252,-23.01625 -167.737127,-95.623751c-19.881375,-72.607501 23.015875,-147.855002 95.623376,-167.736252c72.607501,-19.8825 147.856252,23.01625 167.737502,95.623751c3.325,12.14375 4.85625,24.3575 4.82375,36.377501l19.19,0.045c0.0375,-13.71 -1.70875,-27.64 -5.5025,-41.491251" id="path64"/>
  <path fill="#d99422" fill-rule="nonzero" d="m274.911254,434.427495c-1.48375,3.34125 -4.3,5.57875 -8.465,6.71875c-4.0225,1.10125 -7.59125,0.76875 -10.69875,-1.00875c-3.11125,-1.77 -5.55,-5.89 -7.32,-12.3525l-1.12125,-4.09375l-38.778751,10.6175l1.5925,5.8175c3.73625,13.64875 9.9775,22.62625 18.7275,26.94625c8.74625,4.32125 20.13875,5.3325 34.180001,3.03125l5.30875,19.39125l19.8175,-5.42625l-5.31,-19.39125c3.535,-1.385 6.79875,-2.88 9.8075,-4.47625l-16.67375,-29.325c-0.20875,1.215 -0.55625,2.40125 -1.06625,3.55125" id="path66"/>
  <path fill="#d99422" fill-rule="nonzero" d="m304.443755,385.812495c-4.7625,-4.71625 -10.065,-8.12875 -15.88625,-10.24c-5.82875,-2.10875 -11.81125,-3.36625 -17.94375,-3.77125c-6.12875,-0.405 -11.9225,-0.97875 -17.3775,-1.72625c-5.45375,-0.7425 -10.18875,-2.10875 -14.205,-4.1c-4.02,-1.98625 -6.715,-5.4925 -8.0925,-10.52125c-0.90375,-3.3025 -0.7375,-6.63 0.50875,-9.98125c1.24125,-3.3525 4.01875,-5.61625 8.3275,-6.7975c3.88,-1.06125 7.1925,-0.2325 9.94875,2.4875c2.745,2.72125 4.7125,6.235 5.8925,10.545l0.885,3.23125l37.487501,-10.265c-4.04875,-14.79125 -10.2975,-24.93125 -18.74875,-30.41625c-8.45,-5.48 -20.05375,-6.97375 -34.808751,-4.47875l-3.4225,-12.49625l-19.8175,5.42625l3.42125,12.49625c-25.10375,11.50625 -33.976251,30.69125 -26.62375,57.545001c2.4,8.7625 5.88625,15.45125 10.47125,20.06c4.5825,4.615 9.66875,7.97125 15.26125,10.065c5.59,2.09875 11.4,3.4425 17.43125,4.02625c6.02625,0.59125 11.65875,1.29 16.9,2.08875c4.1975,0.64875 7.94,1.70625 11.26375,3.13625l-10.9225,-19.20875l34.915001,0.08125l20.56875,0.04875c-1.61875,-2.81375 -3.4225,-5.2425 -5.43375,-7.235" id="path68"/>
  <path fill="#eba936" fill-rule="nonzero" d="m536.998758,434.986245l8.1175,-14.19875l10.09125,-17.65125l-31.30625,0l-75.953751,132.847502l31.30625,0l23.47125,-41.052501l34.273751,-59.945001" id="path70"/>
  <path fill="#eba936" fill-rule="nonzero" d="m498.087507,535.983747l47.133751,0l-47.133751,0" id="path72"/>
  <path fill="#eba936" fill-rule="nonzero" d="m545.221258,535.983747l55.757501,0l-55.757501,0" id="path74"/>
  <path fill="#fab63c" fill-rule="nonzero" d="m536.998758,434.986245l-34.273751,59.945001c3.7875,-0.0175 7.9775,0.54125 12.59375,1.71875c12.54375,3.2 20.99875,8.8325 25.36,16.885c3.29,6.07375 4.8,13.5575 4.5425,22.44875l50.398751,0c-0.00625,-41.636251 -22.5725,-80.371251 -58.621251,-100.997502" id="path76"/>
  <path fill="#fab63c" fill-rule="nonzero" d="m510.896258,533.247497c-4.18,-1.0675 -7.8375,-0.59 -10.9725,1.425c-0.62,0.4 -1.22875,0.8525 -1.83625,1.31125l18.3825,0c-1.545,-1.265 -3.39875,-2.1825 -5.57375,-2.73625" id="path78"/>
  <path fill="#fab63c" fill-rule="nonzero" d="m611.980009,535.983747l20.305,0c0.04,-54.813751 -29.59875,-105.738752 -77.077501,-132.847502l-10.09125,17.65125c41.116251,23.52625 66.856251,67.706251 66.863751,115.196252" id="path80"/>
  <path fill="#d99422" fill-rule="nonzero" d="m545.116258,420.787495l-8.1175,14.19875c36.048751,20.62625 58.615001,59.361251 58.621251,100.997502l16.36,0c-0.0075,-47.490001 -25.7475,-91.670001 -66.863751,-115.196252" id="path82"/>
  <path fill="#d99422" fill-rule="nonzero" d="m540.678758,513.534996c-4.36125,-8.0525 -12.81625,-13.685 -25.36,-16.885c-4.61625,-1.1775 -8.80625,-1.73625 -12.59375,-1.71875l-23.47125,41.052501l18.83375,0c0.6075,-0.45875 1.21625,-0.91125 1.83625,-1.31125c3.135,-2.015 6.7925,-2.4925 10.9725,-1.425c2.175,0.55375 4.02875,1.47125 5.57375,2.73625l28.75125,0c0.2575,-8.89125 -1.2525,-16.375 -4.5425,-22.44875" id="path84"/>
  <path fill="#3c3c3d" fill-rule="nonzero" d="m489.446257,557.643747c0,6.65375 -5.39375,12.04625 -12.04625,12.04625c-6.65375,0 -12.04625,-5.3925 -12.04625,-12.04625c0,-6.6525 5.3925,-12.04625 12.04625,-12.04625c6.6525,0 12.04625,5.39375 12.04625,12.04625" id="path86"/>
  <path fill="#f5f6f5" fill-rule="nonzero" d="m482.631257,557.643747c0,2.89 -2.3425,5.2325 -5.23125,5.2325c-2.89,0 -5.2325,-2.3425 -5.2325,-5.2325c0,-2.88875 2.3425,-5.23125 5.2325,-5.23125c2.88875,0 5.23125,2.3425 5.23125,5.23125" id="path88"/>
  <path fill="#3c3c3d" fill-rule="nonzero" d="m624.582509,557.643747c0,6.65375 -5.3925,12.04625 -12.04625,12.04625c-6.6525,0 -12.045,-5.3925 -12.045,-12.04625c0,-6.6525 5.3925,-12.04625 12.045,-12.04625c6.65375,0 12.04625,5.39375 12.04625,12.04625" id="path90"/>
  <path fill="#f5f6f5" fill-rule="nonzero" d="m617.768759,557.643747c0,2.89 -2.3425,5.2325 -5.2325,5.2325c-2.88875,0 -5.23125,-2.3425 -5.23125,-5.2325c0,-2.88875 2.3425,-5.23125 5.23125,-5.23125c2.89,0 5.2325,2.3425 5.2325,5.23125" id="path92"/>
  <path fill="#fbd6b1" fill-rule="nonzero" d="m914.626264,344.758744c0,0 4.7875,-13.71125 -5.92,-15.1075c-10.70625,-1.39375 -7.11,12.77125 -7.11,12.77125l13.03,2.33625" id="path94"/>
  <path fill="#f8f8f8" fill-rule="nonzero" d="m900.582513,344.304994l0.1775,-3.44875l14.445,3.09375l-0.70375,3.4375l-13.91875,-3.0825" id="path96"/>
  <path fill="#3c3c3d" fill-rule="nonzero" d="m838.875013,399.308745c0,0 66.193751,19.4575 77.138751,-52.798751l-16.30375,-4.11375c0,0 -3.49,57.127501 -61.320001,36.331251l0.485,20.58125" id="path98"/>
  <path fill="#7a7b7c" fill-rule="nonzero" d="m912.135014,354.284994c0.0625,-0.85125 -0.57,-1.58625 -1.4175,-1.6525c-0.84875,-0.06125 -1.58625,0.57125 -1.65,1.41875c-0.06875,0.845 0.56625,1.585 1.4125,1.65375c0.84875,0.06125 1.58875,-0.575 1.655,-1.42" id="path100"/>
  <path fill="#7a7b7c" fill-rule="nonzero" d="m913.450014,349.216244c0.06375,-0.84875 -0.57125,-1.58625 -1.42,-1.6525c-0.84375,-0.065 -1.58625,0.5675 -1.64875,1.41375c-0.0675,0.85 0.56875,1.59125 1.41625,1.6525c0.84375,0.0675 1.58625,-0.56625 1.6525,-1.41375" id="path102"/>
  <path fill="#f5f6f5" fill-rule="nonzero" d="m632.285009,543.706247l-190.276253,0c-2.1325,0 -3.86125,-1.7275 -3.86125,-3.86125c0,-2.1325 1.72875,-3.86125 3.86125,-3.86125l190.276253,0c5.8925,0 10.6875,-4.79375 10.6875,-10.68875l0,-37.270001c0,-5.82625 2.2675,-11.30375 6.38875,-15.42375l4.58375,-4.58375c1.50875,-1.50875 3.95125,-1.50875 5.46,0c1.50875,1.5075 1.50875,3.9525 0,5.46l-4.58375,4.58375c-2.66,2.66125 -4.12625,6.2 -4.12625,9.96375l0,37.270001c0,10.15125 -8.25875,18.41125 -18.41,18.41125" id="path104"/>
 </g>
</svg>