<svg width="1600" height="1600" xmlns="http://www.w3.org/2000/svg"><title>background</title><path fill="none" d="M-1-1h582v402H-1z"/><title>Layer 1</title><path fill="#5e6061" d="M737.745 1339.693l-119.477-947.7 5.628-.709 119.477 947.703-5.628.706m287.883-106.465L991.073 350.42l5.668-.221 34.556 882.808-5.669.221"/><path fill="#fbd8b5" d="M957.499 1060.552c132.237-48.072 122.053 86.212 122.053 86.212-.272 1.821-1.321 13.293 4.045 13.767 2.567.225 4.22-1.615 5.259-3.796.508 2.281 1.623 4.405 4.01 4.624 2.342.2 3.905-1.291 4.955-3.199.57 2.02 1.684 3.781 3.847 3.97 2.579.235 4.217-1.613 5.264-3.79.504 2.287 1.616 4.404 4.015 4.62 5.006.432 6.845-2.821 6.873-9.463 0 0 6.481-176.14-161.964-123.553l1.643 30.608m-291.935 38.295c-140.444-8.546-92.55 117.32-92.55 117.32.778 1.669 5.04 12.37.03 14.348-2.397.945-4.504-.351-6.12-2.147.161 2.332-.304 4.684-2.532 5.573-2.188.856-4.11-.129-5.66-1.661.028 2.099-.541 4.104-2.561 4.9-2.404.957-4.502-.35-6.123-2.14.165 2.335-.299 4.681-2.537 5.57-4.678 1.837-7.366-.762-9.278-7.122 0 0-56.228-167.05 120.216-164.456l7.115 29.815"/><path fill="#4e2e22" d="M967.232 1225.419l72.38-2.402 35.67 66.211s11.642-42.312 38.791-32.737c38.251 13.493-42.842 50.646-42.842 50.646l-42.764-64.392-62.563 7.303s-100.932 36.479-225.557 33.848l17.228 55.45-24.032 61.254s33.29-30.013 44.752 0c15.329 40.16-61.124 13.68-61.124 13.68l17.277-76.627-26.801-70.934s94.66-37.358 259.585-41.3"/><path fill="#fbd8b5" d="M956.924 1027.475s-4.364-323.496-243.717-189.348c0 0-72.656 67.044-55.42 230.378 250.43 20.887 299.137-41.03 299.137-41.03"/><path fill="#4e2e22" d="M959.475 713.764s21.48 205.855-231.396 175.943l-9.158 61.896s-29.55-21.62-34.308 8.284c-4.762 29.912 29.822 13.492 29.822 13.492s-22.66 71.752-56.648 95.126c1.517 2.262-110.942-300.838 19.005-272.729 0 0 12.58-59.479 93.988-71.477 84.37-12.436 129.61 88.272 188.695-10.535"/><path fill="#f8f8f8" d="M956.924 1027.475l10.308 197.944s-98.95 38.714-259.585 41.3l-49.86-198.214s202.788 4.874 299.137-41.03"/><path fill="#4e2e22" d="M883.575 1074.056l7.333 11.107-7.47 14.552 31.938 82.133-26.287 38.16-32.988-28.87 10.26-88.405-11.584-13.55 4.492-10.055 24.306-5.072"/><path fill="#f8f8f8" d="M665.564 1098.847l-7.115-29.815c-15.974-.235-30.017.937-42.392 3.233l8.739 28.482c11.413-2.099 24.873-2.867 40.768-1.9m290.292-68.903l1.643 30.608c12.068-4.387 22.937-7.24 32.749-8.83l-1.059-29.638c-10.278 1.57-21.349 4.119-33.333 7.86"/><path fill="#4e2e22" d="M813.125 972.107l-6.124 8.633-51.721-36.688 6.124-8.635 51.721 36.69"/><path fill="#4e2e22" d="M798.785 929.55l7.522 5.335-36.688 51.723-7.522-5.336 36.688-51.721m125.452 22.799l-5.485 7.731-51.721-36.689 5.484-7.732 51.722 36.69"/><path fill="#4e2e22" d="M909.712 908.985l8.53 6.05-36.689 51.721-8.529-6.05 36.688-51.72m-95.316 123.655s-3.081-27.873 38.033-33.448c41.114-5.574 43.204 28.282 43.204 28.282s-51.677 10.045-81.237 5.166"/><path fill="#5e6061" d="M585.515 1091.797L546.81 608.223l5.653-.452 38.704 483.573-5.653.453m454.165-50.233l-5.65-.492 40.764-467.923 5.651.494-40.765 467.921"/><path fill="#fbd8b5" d="M561.737 554.401c16.619 68.214 62.792 103.486 95.538 88.459 54.334-24.935-16.096-74.863-22.019-102.336-2.992-13.875 2.945-27.304 15.123-40.02l-89.618 49.33a99.2 99.2 0 0 0 .976 4.567"/><path fill="#c2955c" d="M510.933 567.807L975.83 311.913l62.316 12.054-450.192 268.086-77.02-24.246"/><path fill="#a17445" d="M588.341 648.083l-.388-56.03 450.192-268.086 1.574 45.301L588.34 648.083"/><path fill="#c2955c" d="M1121.156 528.216l-478.91-177.907-57.514 19.843 468.06 188.453 68.364-30.389"/><path fill="#a17445" d="M1049.843 607.996l2.949-49.39-468.06-188.454-2.343 39.893 467.454 197.951"/><path fill="#936942" d="M510.933 567.807l1.962 51.293 75.446 28.983-.388-56.03-77.02-24.246m610.223-39.591l-.724 44.979-70.59 34.801 2.95-49.39 68.364-30.39"/><path fill="#fbd8b5" d="M940.861 342.337c-45.549-4.501-136.118 11.474-136.118 11.474 25.846-12.958 51.32-22.735 73.825-27.126 56.756-11.076 100.364 20.368 112.768-4.097 20.34-40.121-39.787-58.801-126.587-32.9-36.249 10.816-83.002 48.363-83.002 48.363 9.98-18.555 25.973-33.042 40.296-42.666 47.118-31.678 89.746-16.842 72.38-53.945-12.863-27.467-66.827-6.827-107.786 29.264-35.132 30.956-45.574 55.2-45.574 55.2l-158.448-55.375-41.35 150.54 83.538 16.507c-27.466 10.448-75.306 44.916-64.042 102.804l89.618-49.33c15.08-15.746 39.738-30.397 68.978-43.43 55.743-24.845 155.628-7.864 193.708 16.599 26.9 17.282-10.257 86.37 73.602 90.252 36.521 1.69 32.208-94.631-25-129.982-41.958-25.925-161.018-32.077-161.018-32.077 33.039-10.961 104.048-.055 134.239 3.837 66.724 8.604 69.037 66.946 107.824 39.342 48.51-34.526-39.585-87.103-101.85-93.254"/><path fill="#f9fafa" d="M646.007 269.335l-69.334 174.593L480.4 413.24l58.061-184.547 107.547 40.642"/><path fill="#2a231b" d="M614.621 241.213L0 0v301.821L539.552 443.74l75.07-202.527"/><path fill="#f9fafa" d="M519.265 267.05c3.228 11.826 15.434 18.795 27.26 15.563 11.826-3.226 18.791-15.429 15.563-27.253-3.227-11.827-15.432-18.8-27.255-15.573-11.825 3.226-18.796 15.44-15.568 27.264m-85.269-35.318c3.232 11.827 15.435 18.787 27.26 15.56 11.823-3.226 18.796-15.44 15.568-27.253-3.227-11.827-15.435-18.8-27.259-15.573-11.828 3.226-18.796 15.44-15.569 27.266"/><path fill="#eee" d="M836.735 1457.293c-167.58 0-303.428-20.32-303.428-45.373 0-19.28 80.464-35.76 193.938-42.333l-10.074 44.693s24.728 8.56 43.237 8.56c14.036 0 24.497-4.92 17.887-22.24-3.822-10-10.066-13.333-16.696-13.333-13.259 0-28.056 13.333-28.056 13.333l12.552-31.987c28.625-1.346 59.065-2.066 90.64-2.066 167.578 0 303.428 20.32 303.428 45.373 0 25.053-135.85 45.373-303.428 45.373"/><path fill="#462a1f" d="M760.408 1422.84c-18.51 0-43.237-8.56-43.237-8.56l10.074-44.693c6.183-.347 12.48-.68 18.85-.974l-12.552 31.987s14.797-13.333 28.056-13.333c6.63 0 12.874 3.333 16.696 13.333 6.61 17.32-3.851 22.24-17.887 22.24"/></svg>