<svg width="200" height="225" xmlns="http://www.w3.org/2000/svg"><title>background</title><path fill="none" d="M-1-1h202v227H-1z"/><title>Layer 1</title><path fill="#7c554c" d="M87.037 25.932l-5.148-7.26-16.222-17.12h70.888l-16.147 17.5-33.371 6.88"/><path fill="#7c554c" d="M199.688 155.788c0 55.278-44.632 67.66-99.688 67.66-55.056 0-99.688-12.382-99.688-67.66S86.582 23.27 100 23.27c14.62 0 99.688 77.24 99.688 132.518"/><path fill="#bfbcba" d="M118.11 33.192H81.889c-3.994 0-7.23-3.25-7.23-7.26s3.236-7.26 7.23-7.26h36.22c3.994 0 7.233 3.25 7.233 7.26s-3.239 7.26-7.232 7.26"/></svg>