<svg width="1500" height="1500" xmlns="http://www.w3.org/2000/svg"><title>background</title><path fill="none" d="M-1-1h582v402H-1z"/><title>Layer 1</title><path fill="#ddd" d="M1254.725 1270.275c0 27.162-88.791 49.187-198.316 49.187s-198.313-22.025-198.313-49.187c0-27.17 88.788-49.193 198.313-49.193 109.525 0 198.316 22.023 198.316 49.193"/><path fill="#aaa" d="M869.158 1286.475c27.005 19.2 100.617 32.987 187.25 32.987 86.636 0 160.248-13.787 187.253-32.987-27.005-19.213-100.617-32.988-187.252-32.988-86.634 0-160.246 13.775-187.251 32.988"/><path fill="#ccc" d="M1095.995 1166.991s30.774-29.304 70.86-29.304c40.088 0 70.861 29.304 70.861 29.304h-141.721"/><path fill="#e9e8e7" d="M1093.414 1056.979l-14.738 71.407a12.335 12.335 0 0 0 2.245 9.94l30.444 40.244a12.313 12.313 0 0 0 6.94 4.55l27.458-113.474-52.35-12.667"/><path fill="#d5d5d3" d="M1145.763 1069.646l-27.458 113.474a12.32 12.32 0 0 0 8.251-.874l45.475-21.872a12.338 12.338 0 0 0 6.542-7.815l19.538-70.247-52.348-12.666"/><path fill="#d5d5d3" d="M1163.361 1040.737l-20.033-4.848-7.583 31.332 20.035 4.849 7.581-31.333"/><path fill="#6f4324" d="M1208.114 855.792l-20.035-4.847-44.751 184.944 20.033 4.848 44.753-184.945"/><path fill="#9b9b9a" d="M1154.288 1045.725a2.659 2.659 0 0 1-3.212 1.959 2.66 2.66 0 1 1 3.211-1.959m-4.196 17.341a2.659 2.659 0 1 1-5.17-1.251 2.66 2.66 0 0 1 5.17 1.251"/><path fill="#6f4324" d="M1220.939 846.592c-5.889 4.015-13.258 4.992-21.904 2.9-8.631-2.09-14.734-6.315-18.136-12.56-2.864-5.253-3.519-11.283-3.315-16.576l53.866 13.034c-2.23 4.781-5.561 9.826-10.511 13.202zm22.526-25.303l-71.051-17.193c-.296.839-7.151 20.761 1.454 36.61 4.52 8.33 12.36 13.895 23.29 16.54 10.932 2.645 20.447 1.279 28.276-4.062 14.899-10.162 17.911-31.013 18.031-31.895"/><path fill="#ddd" d="M1043.874 1184.907s37.631-35.833 86.652-35.833c49.02 0 86.653 35.833 86.653 35.833h-173.305"/><path fill="#ccc" d="M1274.35 1331.775s18.188-37.163 69.025-37.163c50.85 0 73.663 37.163 73.663 37.163H1274.35"/><path fill="#ddd" d="M1179.258 1354.5s47.726-45.45 109.892-45.45c62.175 0 109.9 45.45 109.9 45.45h-219.792"/><path fill="#ccc" d="M954.143 1373.55s-9.45-42.65-67.8-42.65c-58.348 0-71.012 42.65-71.012 42.65h138.812"/><path fill="#ddd" d="M1065.351 1399.625s-54.775-52.15-126.127-52.15c-71.354 0-126.129 52.15-126.129 52.15h252.256m-194.796-171.52H695.048l-26.608-27.145 66.158-24.304H919.17l22.549 12.471-71.165 38.978"/><path fill="#b2901d" d="M749.918 926.886l-1.235-8.04c-.57-3.701 2.247-6.7 6.29-6.7h62.575c4.043 0 7.78 2.999 8.35 6.7l1.235 8.04c.567 3.7-2.25 6.7-6.292 6.7h-62.575c-4.042 0-7.781-3-8.348-6.7zm117.833-37.38H697.816c-4.042 0-6.858 3-6.291 6.7l43.073 280.45h48.927l5.14-24.802c.569-2.745 3.086-4.6 6.244-4.6h54.92c3.159 0 6.245 1.855 7.657 4.6l12.758 24.802h48.927L876.1 896.206c-.569-3.7-4.306-6.7-8.349-6.7"/><path fill="#f2be0b" d="M805.169 937.317h-62.575c-4.043 0-7.158-3.253-6.956-7.267l.435-8.721c.2-4.014 3.64-7.267 7.682-7.267h62.575c4.043 0 7.158 3.253 6.958 7.267l-.437 8.721c-.2 4.014-3.638 7.267-7.682 7.267zm-121.551-40.543L668.44 1200.96h48.928l10.29-26.903c1.14-2.977 4.042-4.987 7.2-4.987h54.92c3.16 0 5.86 2.01 6.702 4.987l7.608 26.903h48.927l15.176-304.186c.202-4.014-2.913-7.268-6.957-7.268H691.3c-4.042 0-7.482 3.254-7.682 7.268"/><path fill="#b2901d" d="M705.359 959.845c-2.825 0-5.238 2.282-5.378 5.087l-7.591 152.128c-.14 2.804 2.045 5.086 4.87 5.086h134.8c2.825 0 5.238-2.282 5.378-5.086l7.59-152.128c.14-2.805-2.045-5.087-4.87-5.087h-134.8zm126.484 166.662h-134.8c-5.247 0-9.304-4.238-9.044-9.447l7.59-152.128c.26-5.21 4.74-9.447 9.987-9.447h134.799c5.248 0 9.305 4.237 9.045 9.447l-7.591 152.128c-.26 5.209-4.74 9.447-9.986 9.447"/><path fill="#211c1d" d="M770.884 997.407c-.635 0-2.225.177-3.261 1.818l-47.29 74.891c-1.034 1.639-.47 3.086-.18 3.633.29.546 1.172 1.817 3.078 1.817h87.105c1.908 0 2.917-1.271 3.26-1.817.345-.547 1.054-1.993.182-3.633l-39.815-74.892c-.873-1.64-2.443-1.817-3.08-1.817zm39.09 89.427h-87.105c-3.97 0-7.423-2.038-9.236-5.452-1.815-3.413-1.612-7.488.543-10.9l47.289-74.892c2.156-3.413 5.813-5.45 9.781-5.45 3.97 0 7.423 2.037 9.237 5.45l39.816 74.892c1.814 3.412 1.611 7.487-.543 10.9-2.156 3.414-5.812 5.452-9.782 5.452"/><path fill="#211c1d" d="M767.776 1060.751c1.94 0 3.568.686 4.882 2.059 1.313 1.374 1.923 3.022 1.827 4.949-.096 1.925-.87 3.575-2.321 4.947-1.451 1.373-3.148 2.06-5.086 2.06-1.942 0-3.56-.687-4.855-2.06-1.297-1.372-1.898-3.022-1.802-4.947.097-1.927.853-3.575 2.268-4.949 1.416-1.373 3.111-2.059 5.087-2.059zm1.223-6.154h-1.885c-.051-3.28-.519-7.238-1.403-11.876l-1.792-9.415c-1.086-5.599-1.566-9.629-1.444-12.09.11-2.21.863-3.994 2.26-5.349 1.396-1.355 3.174-2.032 5.329-2.032 2.046 0 3.727.686 5.042 2.059 1.314 1.373 1.92 3.112 1.815 5.216-.108 2.175-1.03 6.241-2.763 12.196l-2.787 9.415c-.993 3.318-1.783 7.276-2.372 11.876"/><path fill="#ddd" d="M338.019 1304.812c-97.291 0-176.163-9.212-176.163-20.587s78.872-20.6 176.163-20.6c97.292 0 176.162 9.225 176.162 20.6 0 11.375-78.87 20.587-176.162 20.587"/><path fill="#fbd8b5" d="M467.761 876.564c-2.477.891-2.523 3.963-2.291 5.84-.432-1.887-1.634-5.05-4.786-4.25-3.634.922-3.175 5.685-2.896 7.351l-.04.01c-.443-1.523-1.918-5.514-4.973-4.691-3.032.817-2.297 5.077-1.897 6.705-.524-1.742-2.227-6.208-5.864-5.07-2.723.851-.39 6.912-.39 6.912C496.74 998.376 406.7 975.66 406.7 975.66l3.978 28.311c123.096 5.667 65.245-111.028 61.247-122.058 0 0-1.399-6.345-4.164-5.348"/><path fill="#f8f8f8" d="M406.7 975.659l3.978 28.311c5.02.231 9.71.239 14.145.079l-1.117-26.429c-9.457-.061-17.006-1.961-17.006-1.961"/><path fill="#fbd8b5" d="M125.711 1162.645c2.227-1.408 1.605-4.418.973-6.199.83 1.749 2.689 4.578 5.592 3.114 3.348-1.688 1.869-6.239 1.238-7.804l.034-.019c.763 1.392 3.067 4.97 5.872 3.503 2.784-1.454 1.144-5.454.4-6.956.89 1.587 3.519 5.578 6.824 3.681 2.472-1.421-1.116-6.834-1.116-6.834-74.479-95.136 18.343-92.451 18.343-92.451l-10.011-26.779c-121.405 21.116-39.662 122.52-33.372 132.423 0 0 2.739 5.891 5.223 4.321"/><path fill="#f8f8f8" d="M163.871 1052.68l-10.011-26.779a171.821 171.821 0 0 0-13.827 2.985l6.81 25.561c9.247-1.987 17.028-1.767 17.028-1.767"/><path fill="#281a15" d="M504.02 1150.731c-7.772-25.535-34.641 15.371-34.641 15.371s7.515-34.232-1.351-45.726c-8.494-11.009-29.465 3.991-35.014 7.771l-228.054 50.145 8.9 36.574-26.252-3.081s-19.15 40.465 1.21 43.09c20.362 2.625 6.82-27.125 6.82-27.125s19.423 10.766 33.452 6.666c10.94-3.197 2.244-34.799.744-44.566 149.846-9.156 219.707-49.748 221.78-51.313 0 0 3.744 36.858 7.712 55.24 0 0 52.467-17.51 44.694-43.046"/><path fill="#eeeded" d="M418.728 1004.152c-2.228 0-4.513-.04-6.877-.132l-4.822-28.283c.12.028.27.063.45.103l11.249 28.312"/><path fill="#fbd8b5" d="M406.698 973.792S384.47 698.075 187.96 826.2c0 0-58.14 61.35-34.1 199.702 214.831 3.49 252.838-52.109 252.838-52.109"/><path fill="#281a15" d="M337.37 690.601s141.135 153.449-144.61 172.44l6.875 53.326s-26.877-18.915-29.229 6.87c-2.346 25.782 26.64 11.96 26.64 11.96s-15.532 68.814-43.186 90.704c0 0-118.653-215.004-15.764-227.645 0 0-2.562-39.651 50.56-67.872 75.778-40.257 132.448 57.702 148.714-39.783"/><path fill="#f8f8f8" d="M406.698 973.791l26.316 154.355s-91.17 38.751-228.054 50.146l-51.1-152.39s173.271-7.438 252.838-52.11"/><path fill="#ec6180" d="M346.769 931.212s-47.544 7.298-74.69 21.933c0 0 4.566 38.98 48.517 27.437 43.502-11.423 26.173-49.37 26.173-49.37"/><path fill="#dfdfdd" d="M270.576 1130.046l-27.631-24.14 24.776-24.205c5.41.48 10.484.704 15.218.704 67.34.006 68.464-45.306 68.464-45.306l-11.897-11.478 3.255-9.674 21.975-6.833 7.754 9.591-5.599 14.084s3.253 83.063-96.315 97.257"/><path fill="#281a15" d="M364.736 1009.114l7.754 9.591-5.599 14.084s3.253 75.552-96.315 89.746l-27.631-24.141 24.776-24.205c82.38 7.305 83.682-37.09 83.682-37.09l-11.897-11.478 3.255-9.675 21.975-6.832m-113.242-73.589c-3.884 0-7.459-1.084-10.683-3.245-10.741-7.204-13.407-23.94-13.516-24.649a2.945 2.945 0 0 1 2.465-3.354 2.955 2.955 0 0 1 3.359 2.463c.024.147 2.4 14.909 10.987 20.655 3.333 2.23 7.125 2.786 11.594 1.702 4.035-.977 6.789-3.015 8.42-6.227 4.915-9.678-1.866-26.275-1.935-26.439a2.947 2.947 0 0 1 5.44-2.266c.325.781 7.893 19.254 1.756 31.36-2.422 4.781-6.558 7.91-12.292 9.3-1.928.466-3.794.7-5.595.7m89.926-25.778c-3.884 0-7.46-1.083-10.682-3.245-10.743-7.205-13.41-23.94-13.518-24.648a2.946 2.946 0 0 1 5.824-.894c.024.15 2.401 14.911 10.989 20.657 3.33 2.228 7.125 2.787 11.593 1.703 4.039-.979 6.794-3.019 8.425-6.235 4.085-8.06-.016-21.811-1.941-26.43a2.948 2.948 0 0 1 1.586-3.854 2.951 2.951 0 0 1 3.854 1.586c.325.782 7.894 19.253 1.756 31.36-2.421 4.782-6.557 7.91-12.291 9.3-1.929.467-3.795.7-5.595.7"/><path fill="#eee" d="M529.966 741.861l.003-.071c0-13.211-10.709-23.921-23.92-23.921-5.56 0-10.663 1.913-14.724 5.095a23.92 23.92 0 0 0-6.336-.875c-13.21 0-23.92 10.71-23.92 23.92a23.845 23.845 0 0 0 6.974 16.88c-.11.926-.18 1.865-.18 2.821 0 13.211 10.708 23.921 23.92 23.921 6.778 0 12.886-2.832 17.238-7.364 1.293.217 2.612.357 3.965.357 13.21 0 23.92-10.71 23.92-23.922 0-6.57-2.652-12.518-6.94-16.84m-87.71 74.168c-1.16-7.078-7.837-11.873-14.913-10.713-7.077 1.162-11.873 7.838-10.713 14.915 1.161 7.077 7.839 11.872 14.915 10.712 7.076-1.16 11.873-7.838 10.711-14.914m632.139-485.35c4.403-91.643-65.707-170.03-157.546-175.58-21.755-1.313-42.791 1.587-62.319 7.975-27.139-24.113-62.266-39.65-101.32-42-53.937-3.263-103.452 19.337-136.489 57.075-10.745-2.888-21.937-4.725-33.472-5.425-92.541-5.588-172.089 64.912-177.674 157.447a169.343 169.343 0 0 0-.299 9.918c-35.133 28.614-58.647 71.271-61.592 120.066-5.586 92.541 64.906 172.089 157.447 177.674.53.032 1.059.049 1.589.076 26.57 49.788 77.611 85.011 138.073 88.66 45.53 2.749 87.908-12.929 119.887-40.577 24.948 18.051 55.153 29.462 88.166 31.455 65.59 3.96 124.643-30.305 155.47-83.543 76.119-12.029 136.365-75.595 141.2-155.692 3.642-60.334-25.06-115.137-71.121-147.529"/><path fill="#5b7f38" d="M932.03 258.544l.851 28.097 42.035-1.509-73.463 60.505-56.002-48.153L547.77 488.987l-51.611-45.55-102.078 69.53 8.288 13.794 90.195-55.965 55.99 48.526 296.591-190.416 55.166 47.299 94.272-70.346-6.492 41.248 27.795 3.47 16.037-97.727-99.893 5.694"/><path fill="#ddd" d="M738.205 631.679c-112.74 0-202.322-19.172-202.322-36.117 0-12.64 50.863-23.496 123.512-28.195 17.978 9.022 41.891 14.137 73.723 14.138 6.603.001 13.528-.219 20.832-.67 28.645-1.766 51.286-6.373 69.096-13.309 71.358 4.781 121.104 15.536 121.104 28.036 0 16.945-93.205 36.117-205.945 36.117"/><path fill="#a47443" d="M703.945 285.635c-32.314 22.6-104.234 100.702-98.496 177.452 5.214 69.767 28.005 125.182 148.501 117.748 120.494-7.431 134.83-65.136 129.615-134.903-5.736-76.75-93.474-143.245-123.999-163.728l31.389-59.429-126.635 7.812 39.625 55.048"/><path fill="#402617" d="M749.908 366.762l1.43 19.158a30.686 30.686 0 0 1 6.56 3.296 21.106 21.106 0 0 1 5.287 5.041l.826-10.415 29.132-1.797 3.222 43.104-30.729 1.895c-.487-6.509-2.96-11.412-7.412-14.715-4.458-3.304-9.876-4.759-16.261-4.365-1.197.073-2.485.34-3.852.792a12.737 12.737 0 0 0-3.758 1.99c-1.14.874-2.03 1.914-2.673 3.126-.649 1.214-.907 2.62-.789 4.212.23 3.071 2.08 5.486 5.552 7.246 3.47 1.76 7.773 3.376 12.89 4.846a2717.695 2717.695 0 0 0 16.59 4.715c5.938 1.669 11.516 3.888 16.732 6.65 5.223 2.759 9.66 6.314 13.328 10.649 3.662 4.339 5.755 9.947 6.268 16.821.505 6.758-.441 12.491-2.825 17.201-2.388 4.71-5.61 8.58-9.656 11.605-4.05 3.027-8.661 5.283-13.826 6.775-5.171 1.492-10.339 2.46-15.518 2.9l1.418 18.973-28.135 1.735-1.803-24.13c-3.73-1.619-7.362-3.679-10.885-6.174l-1.371 11.186-29.13 1.797-3.317-44.39 31.327-1.933c.275 3.681 1.395 6.606 3.36 8.764 1.964 2.165 4.259 3.81 6.885 4.944a26.496 26.496 0 0 0 8.174 2.085c2.824.26 5.171.392 7.042.398a32.041 32.041 0 0 0 4.664-.656 19.432 19.432 0 0 0 4.593-1.579 9.154 9.154 0 0 0 3.482-2.99c.909-1.288 1.294-2.857 1.156-4.698-.165-2.209-1.906-4.013-5.216-5.414-3.311-1.399-7.424-2.749-12.329-4.05a1276.326 1276.326 0 0 1-16.065-4.379c-5.801-1.61-11.215-3.87-16.241-6.766-5.027-2.9-9.307-6.55-12.846-10.96-3.538-4.411-5.561-10.048-6.075-16.926-.459-6.142.272-11.49 2.206-16.053 1.93-4.559 4.551-8.39 7.86-11.495a38.58 38.58 0 0 1 11.276-7.357c4.209-1.8 8.367-2.95 12.473-3.454l-1.156-15.473 28.135-1.735m19.322-83.997c-.106-1.415-.991-2.613-2.247-3.271 1.147-.809 1.845-2.104 1.74-3.518-.17-2.257-2.32-3.964-4.807-3.81l-66.316 4.09c-2.485.154-4.362 2.109-4.195 4.365.106 1.415.991 2.613 2.248 3.273-1.148.807-1.845 2.102-1.74 3.517.168 2.256 2.32 3.963 4.806 3.81l66.316-4.091c2.485-.154 4.364-2.109 4.195-4.365"/><path fill="#9b6d40" d="M812.495 570.036l-.012-3.08h.03c-.03-1.882.786-3.725 2.293-5.471l-.018-4.22h.03c-.03-1.838.74-3.638 2.18-5.348-3.108-2.376-4.53-4.805-4.58-7.176l-.03-6.885h.03c-.153-9.53 21.593-18.052 42.713-18.052 5.718 0 11.393.625 16.572 2.023-10.478 21.082-28.775 37.85-59.208 48.21"/><path fill="#b2901d" d="M900.579 576.491c-2.541-3.284-7.798-6.409-16.521-8.991-21.35-6.125-51.594 1.281-58.553 11.452h-1.494l.029 6.887c.066 2.966 2.229 6.026 7.226 8.957 28.734 16.854 71.159 3.344 71.169-10.842l.006-2.463.004-4.385-1.866-.615"/><path fill="#f2be0b" d="M884.058 563.115c-30.25-8.678-78.427 9.801-52.792 24.836 38.897 22.813 102.898-10.01 52.792-24.836"/><path fill="#b2901d" d="M869.993 579.626c0-.37-.172-.709-.518-1.02-.345-.31-.794-.584-1.345-.822a9.41 9.41 0 0 0-1.885-.564 12.203 12.203 0 0 0-2.094-.229 38.88 38.88 0 0 1-.062 2.349c-.013.257-.034.5-.061.732-.028.232-.05.523-.063.872-.012.348-.027.791-.04 1.327-.016.533-.021 1.23-.021 2.089.91-.185 1.74-.433 2.485-.744a9.245 9.245 0 0 0 1.926-1.06c.539-.396.953-.821 1.243-1.276.29-.458.435-.916.435-1.378v-.276zm-8.782-6.08c-.525.264-1.015.539-1.471.825-.454.281-.752.576-.889.88.385.065.772.118 1.158.159.387.037.775.076 1.161.117.055-.423.11-.783.165-1.08.055-.296.11-.65.166-1.06-.138.068-.236.12-.29.16zm2.9-6.655c.055.453.117.835.187 1.153a14.448 14.448 0 0 1 .268 1.721c.027.276.043.607.043.99.385-.068.771-.115 1.16-.149.386-.034.759-.051 1.117-.051 1.493 0 2.845.291 4.059.874v-.02c.25.117.374.276.374.473 0 .16-.119.294-.351.407a1.856 1.856 0 0 1-.81.167c-.387 0-.732-.071-1.035-.216h.043a6.107 6.107 0 0 0-2.405-.475c-.717 0-1.477.117-2.278.357 0 .463-.013.862-.04 1.198-.03.336-.055.642-.083.921-.027.276-.062.54-.104.79-.042.253-.075.515-.105.794 1.299.077 2.48.224 3.543.432 1.062.213 1.969.492 2.714.834.745.345 1.325.759 1.738 1.249.415.487.623 1.047.623 1.68 0 .635-.223 1.246-.663 1.832-.442.59-1.051 1.13-1.822 1.625-.775.495-1.699.928-2.776 1.298a20.312 20.312 0 0 1-3.522.849c.028.317.057.58.084.783.026.205.061.427.104.664.04.239.109.531.206.88.096.351.229.83.394 1.436 0 .132.027.252.082.358a.76.76 0 0 1 .083.356c0 .131-.151.233-.456.308a3.5 3.5 0 0 1-.787.107 1.96 1.96 0 0 1-.662-.117c-.221-.08-.346-.212-.373-.397a49.41 49.41 0 0 1-.393-1.525c-.098-.408-.18-.763-.248-1.06-.07-.295-.132-.56-.189-.793a12.008 12.008 0 0 0-.206-.743 6.764 6.764 0 0 1-.496.031c-.194.008-.374.01-.54.01-.993 0-1.858-.08-2.588-.247a9.697 9.697 0 0 1-1.927-.625 8.2 8.2 0 0 1-1.47-.841 19.974 19.974 0 0 1-1.18-.919v.019c-.166-.133-.325-.26-.476-.387a23.663 23.663 0 0 0-.435-.346v-.039a1.523 1.523 0 0 1-.373-.247l-.166-.248c0-.12.096-.22.291-.307a1.69 1.69 0 0 1 .703-.13c.248 0 .476.036.682.11.209.072.401.161.581.267.179.105.345.218.497.337.15.117.297.218.435.297.415.276.815.539 1.202.781.385.244.821.455 1.304.635.484.177 1.016.323 1.595.434.581.113 1.27.178 2.071.189a6.351 6.351 0 0 1-.102-.959 78.851 78.851 0 0 1-.063-3.546v-3.335h-.041c-.333-.029-.808-.066-1.43-.12a35.066 35.066 0 0 1-1.844-.206 13.109 13.109 0 0 1-1.595-.318c-.454-.127-.682-.281-.682-.466 0-.329.158-.664.476-1a6.533 6.533 0 0 1 1.222-.981 15.63 15.63 0 0 1 1.637-.899 91.843 91.843 0 0 1 1.718-.803h-.042l.996-.473v-1.21c0-.329-.007-.644-.021-.94-.016-.298-.029-.61-.043-.94-.012-.332-.035-.74-.062-1.228v-.14c0-.224.145-.391.435-.505.29-.114.615-.169.974-.169.276 0 .526.037.746.11a.933.933 0 0 1 .497.364"/><path fill="#b2901d" d="M895.966 566.8c-2.54-3.284-7.797-6.409-16.52-8.991-21.35-6.127-51.593 1.281-58.552 11.453H819.4l.028 6.885c.067 2.967 2.228 6.027 7.227 8.958 28.734 16.855 71.159 3.344 71.168-10.843l.007-2.462.004-4.385-1.868-.615"/><path fill="#f2be0b" d="M879.446 553.424c-30.25-8.677-78.426 9.801-52.791 24.836 38.895 22.812 102.898-10.01 52.791-24.836"/><path fill="#b2901d" d="M865.381 569.935c0-.37-.172-.709-.518-1.02-.345-.31-.793-.584-1.344-.821a9.317 9.317 0 0 0-1.886-.565 12.3 12.3 0 0 0-2.093-.229 40.669 40.669 0 0 1-.062 2.349c-.013.257-.035.5-.062.733a11.3 11.3 0 0 0-.062.87 88.178 88.178 0 0 0-.061 3.417 13.44 13.44 0 0 0 2.485-.743 9.247 9.247 0 0 0 1.926-1.061c.539-.396.952-.821 1.242-1.276.29-.457.435-.917.435-1.378v-.276zm-8.781-6.08a18.21 18.21 0 0 0-1.471.825c-.454.281-.753.576-.89.88.386.064.772.117 1.159.159.387.037.775.076 1.16.117.056-.424.11-.784.166-1.08.056-.295.11-.651.166-1.06-.139.068-.235.12-.29.159zm2.9-6.655c.055.452.116.835.186 1.152.069.315.124.613.165.89.042.277.077.554.104.832.026.276.043.608.043.99.385-.068.77-.115 1.16-.149.385-.034.757-.05 1.117-.05 1.491 0 2.844.29 4.058.872v-.02c.25.12.375.277.375.474 0 .159-.12.294-.352.406a1.839 1.839 0 0 1-.808.17c-.388 0-.733-.073-1.037-.217h.043a6.075 6.075 0 0 0-2.404-.476 7.95 7.95 0 0 0-2.279.357c0 .463-.012.861-.04 1.198-.028.336-.055.642-.083.921-.027.276-.062.541-.103.79-.042.254-.075.515-.105.794 1.299.077 2.48.223 3.541.433 1.064.212 1.969.49 2.715.834.745.344 1.324.758 1.739 1.248a2.52 2.52 0 0 1 .623 1.681c0 .634-.223 1.245-.664 1.831-.443.589-1.05 1.13-1.821 1.625-.775.495-1.7.928-2.777 1.298a20.425 20.425 0 0 1-3.521.85c.028.317.056.578.084.782.026.205.061.426.104.664.04.239.108.531.206.88.096.351.229.83.394 1.435a.77.77 0 0 0 .082.359.758.758 0 0 1 .083.355c0 .132-.152.233-.457.308a3.509 3.509 0 0 1-.786.11c-.221 0-.441-.04-.662-.12-.222-.078-.347-.21-.373-.396a46.046 46.046 0 0 1-.394-1.525c-.097-.409-.18-.764-.248-1.06l-.188-.792a11.794 11.794 0 0 0-.206-.744 7.597 7.597 0 0 1-.496.031c-.194.008-.374.01-.54.01-.993 0-1.858-.081-2.59-.247a9.63 9.63 0 0 1-1.925-.625 8.125 8.125 0 0 1-1.47-.842 19.46 19.46 0 0 1-1.18-.918v.018a19.172 19.172 0 0 1-.477-.386 23.663 23.663 0 0 0-.435-.346v-.039a1.5 1.5 0 0 1-.372-.247l-.166-.248c0-.12.096-.221.29-.307.192-.088.427-.13.703-.13.249 0 .477.036.684.11.208.072.4.161.58.267.179.105.345.218.496.336.152.118.298.22.435.3.415.275.815.537 1.203.78.385.243.821.454 1.304.634.483.176 1.016.323 1.595.433.58.113 1.27.178 2.07.19a6.528 6.528 0 0 1-.103-.959 92.337 92.337 0 0 1-.063-3.546v-3.334h-.04l-1.43-.121a33.784 33.784 0 0 1-1.843-.207 13.012 13.012 0 0 1-1.595-.317c-.454-.128-.683-.281-.683-.466 0-.329.159-.664.477-1a6.533 6.533 0 0 1 1.222-.982 15.505 15.505 0 0 1 1.636-.898c.593-.284 1.165-.55 1.719-.803h-.042l.995-.474v-1.21c0-.328-.008-.643-.02-.94a53.59 53.59 0 0 1-.043-.94c-.012-.33-.035-.74-.062-1.227v-.14c0-.224.145-.391.435-.505.29-.113.615-.168.973-.168.277 0 .527.035.747.108.22.075.386.197.497.365"/><path fill="#b2901d" d="M898.273 557.109c-2.542-3.284-7.798-6.409-16.52-8.992-21.35-6.125-51.595 1.282-58.554 11.453h-1.494l.029 6.886c.066 2.966 2.229 6.026 7.227 8.958 28.733 16.855 71.158 3.343 71.168-10.843l.007-2.461.004-4.385-1.867-.616"/><path fill="#f2be0b" d="M881.753 543.732c-30.25-8.676-78.427 9.802-52.792 24.837 38.895 22.812 102.897-10.01 52.792-24.837"/><path fill="#b2901d" d="M867.686 560.244c0-.37-.171-.709-.517-1.019-.345-.31-.794-.585-1.345-.823a9.36 9.36 0 0 0-1.885-.565 12.3 12.3 0 0 0-2.093-.228 38.53 38.53 0 0 1-.062 2.348c-.014.258-.035.5-.061.734a10.7 10.7 0 0 0-.063.87 74.157 74.157 0 0 0-.061 3.416 13.43 13.43 0 0 0 2.484-.742 9.27 9.27 0 0 0 1.926-1.06c.54-.398.954-.823 1.242-1.278.292-.456.435-.915.435-1.377v-.276zm-8.78-6.08a17.77 17.77 0 0 0-1.472.825c-.454.281-.751.576-.889.88.386.065.771.117 1.159.158.387.038.774.077 1.16.118.055-.423.111-.784.166-1.08.055-.295.109-.651.165-1.06-.137.067-.235.12-.289.159zm2.899-6.654c.055.451.116.834.186 1.151a14.575 14.575 0 0 1 .27 1.721c.027.277.042.608.042.99a14.08 14.08 0 0 1 2.278-.198c1.492 0 2.844.29 4.058.872v-.019c.25.117.374.277.374.473 0 .159-.118.294-.352.407a1.852 1.852 0 0 1-.808.168 2.41 2.41 0 0 1-1.037-.216h.044a6.08 6.08 0 0 0-2.404-.477c-.718 0-1.477.118-2.28.36 0 .46-.011.86-.038 1.195-.03.338-.057.643-.084.922a12.45 12.45 0 0 1-.104.791 13.38 13.38 0 0 0-.104.794 26.26 26.26 0 0 1 3.542.432c1.063.211 1.968.49 2.713.834.747.344 1.325.757 1.739 1.247.415.49.624 1.05.624 1.68 0 .635-.223 1.247-.664 1.833-.442.589-1.051 1.13-1.822 1.625-.774.495-1.7.927-2.775 1.299-1.078.37-2.252.651-3.523.848a15.954 15.954 0 0 0 .188 1.448c.04.237.11.531.206.879.096.351.229.83.394 1.436 0 .131.027.252.082.357a.76.76 0 0 1 .084.357c0 .131-.153.233-.458.307a3.438 3.438 0 0 1-.786.109c-.221 0-.44-.039-.661-.119-.221-.079-.348-.211-.374-.396a48.959 48.959 0 0 1-.392-1.524c-.1-.409-.18-.765-.25-1.061l-.187-.793a11.794 11.794 0 0 0-.206-.743 7.509 7.509 0 0 1-.496.032 17.65 17.65 0 0 1-.54.009c-.994 0-1.858-.081-2.589-.248a9.63 9.63 0 0 1-1.926-.625 8.04 8.04 0 0 1-1.47-.84 19.012 19.012 0 0 1-1.181-.92v.02a21.798 21.798 0 0 1-.477-.387 23.663 23.663 0 0 0-.435-.346v-.039a1.547 1.547 0 0 1-.372-.248l-.165-.247c0-.12.095-.221.29-.308.192-.086.427-.13.704-.13.248 0 .476.037.682.11.208.073.4.162.581.268.179.106.344.219.497.336a3.7 3.7 0 0 0 .435.299c.415.276.815.537 1.2.781.387.243.822.454 1.306.635.482.175 1.015.321 1.595.433.58.112 1.269.177 2.071.19a6.546 6.546 0 0 1-.104-.96 78.457 78.457 0 0 1-.062-3.547v-3.333h-.04c-.333-.029-.809-.068-1.43-.12a35.063 35.063 0 0 1-1.844-.208 13.012 13.012 0 0 1-1.595-.317c-.455-.128-.682-.282-.682-.467 0-.328.158-.663.475-1a6.481 6.481 0 0 1 1.222-.98 15.632 15.632 0 0 1 1.636-.9c.594-.283 1.167-.55 1.719-.802h-.041l.995-.474v-1.209c0-.33-.008-.645-.021-.94-.015-.298-.028-.61-.042-.94a85.356 85.356 0 0 0-.062-1.228v-.14c0-.224.144-.392.435-.505.29-.113.615-.168.974-.168.275 0 .525.036.746.108.22.075.386.197.496.366"/><path fill="#b2901d" d="M905.19 547.417c-2.541-3.283-7.797-6.408-16.521-8.99-21.35-6.126-51.594 1.282-58.553 11.453h-1.493l.028 6.885c.067 2.966 2.229 6.027 7.227 8.957 28.733 16.855 71.158 3.344 71.168-10.842l.008-2.461.004-4.385-1.868-.617"/><path fill="#f2be0b" d="M888.669 534.041c-30.249-8.676-78.425 9.803-52.791 24.838 38.896 22.812 102.897-10.012 52.79-24.838"/><path fill="#b2901d" d="M874.604 550.552c0-.37-.171-.708-.518-1.018-.346-.31-.793-.585-1.345-.823a9.41 9.41 0 0 0-1.885-.565 12.329 12.329 0 0 0-2.093-.229 39.002 39.002 0 0 1-.062 2.35c-.013.257-.035.5-.062.733a10.37 10.37 0 0 0-.061.87 82.203 82.203 0 0 0-.063 3.416 13.44 13.44 0 0 0 2.485-.742 9.303 9.303 0 0 0 1.926-1.06c.54-.398.953-.823 1.243-1.278.291-.456.435-.916.435-1.377v-.277zm-8.781-6.08c-.525.265-1.015.54-1.472.825-.453.282-.752.578-.888.88.385.065.77.118 1.158.16.387.038.774.075 1.16.117.055-.424.11-.784.165-1.08.057-.295.11-.652.167-1.06a2.636 2.636 0 0 0-.29.158zm2.9-6.653c.055.451.116.833.186 1.151a14.606 14.606 0 0 1 .269 1.721c.026.276.042.609.042.99a14.01 14.01 0 0 1 2.278-.199c1.492 0 2.845.29 4.058.873v-.02c.25.119.374.277.374.474 0 .158-.117.293-.351.406a1.839 1.839 0 0 1-.809.169 2.39 2.39 0 0 1-1.036-.217h.044a6.086 6.086 0 0 0-2.405-.476c-.718 0-1.478.118-2.28.359 0 .461-.012.86-.04 1.197-.028.335-.054.642-.082.92a12.45 12.45 0 0 1-.103.792c-.042.252-.075.515-.105.793a26.28 26.28 0 0 1 3.542.433c1.063.211 1.969.49 2.714.834.745.343 1.325.757 1.739 1.247.415.489.622 1.049.622 1.681 0 .634-.221 1.245-.662 1.832-.443.59-1.052 1.13-1.823 1.625-.774.496-1.699.928-2.775 1.298-1.077.37-2.252.652-3.522.85a14.104 14.104 0 0 0 .188 1.448c.04.236.108.53.205.879.097.35.229.828.394 1.435 0 .131.028.252.083.357a.76.76 0 0 1 .082.356c0 .133-.151.234-.456.308a3.438 3.438 0 0 1-.786.109 1.93 1.93 0 0 1-.663-.119c-.221-.079-.345-.211-.372-.396a45.647 45.647 0 0 1-.393-1.524c-.099-.409-.18-.765-.249-1.06l-.187-.794a12.414 12.414 0 0 0-.206-.742 8.64 8.64 0 0 1-.498.031c-.194.006-.374.009-.54.009-.992 0-1.856-.082-2.587-.248a9.563 9.563 0 0 1-1.928-.625 8.125 8.125 0 0 1-1.47-.841 18.973 18.973 0 0 1-1.18-.919v.02c-.166-.132-.325-.26-.476-.387-.153-.125-.298-.238-.435-.347v-.038a1.547 1.547 0 0 1-.373-.248l-.166-.247c0-.12.096-.222.291-.308.193-.086.427-.13.704-.13.249 0 .475.036.683.11.207.073.4.161.58.268.18.105.345.218.496.336a3.9 3.9 0 0 0 .436.299c.414.276.814.538 1.201.781.387.242.822.454 1.304.635.484.175 1.016.321 1.596.432.58.113 1.269.178 2.07.19a6.351 6.351 0 0 1-.102-.96 78.851 78.851 0 0 1-.063-3.546v-3.334h-.041l-1.429-.12a33.506 33.506 0 0 1-1.843-.207 13.012 13.012 0 0 1-1.595-.318c-.455-.126-.684-.28-.684-.465 0-.33.159-.663.476-1a6.481 6.481 0 0 1 1.223-.98 15.632 15.632 0 0 1 1.636-.9c.594-.285 1.166-.55 1.719-.803h-.043l.996-.474v-1.209c0-.33-.007-.645-.021-.94a77.354 77.354 0 0 1-.041-.94 87.728 87.728 0 0 0-.064-1.229v-.14c0-.223.145-.39.435-.503.29-.114.615-.169.975-.169.275 0 .525.036.746.107a.93.93 0 0 1 .497.367"/><path fill="#b2901d" d="M895.871 537.7c-2.538-3.284-7.796-6.409-16.521-8.991-21.347-6.125-51.591 1.281-58.551 11.453h-1.493l.029 6.885c.065 2.967 2.226 6.028 7.226 8.958 28.734 16.855 71.157 3.344 71.167-10.843l.008-2.46.003-4.386-1.868-.616"/><path fill="#f2be0b" d="M879.35 524.324c-30.249-8.677-78.426 9.801-52.789 24.836 38.894 22.812 102.895-10.01 52.789-24.836"/><path fill="#b2901d" d="M865.286 540.835c0-.37-.172-.709-.518-1.019-.344-.31-.794-.585-1.344-.822a9.466 9.466 0 0 0-1.885-.565 12.315 12.315 0 0 0-2.094-.229 36.348 36.348 0 0 1-.064 2.35c-.011.256-.032.499-.058.732a10.67 10.67 0 0 0-.064.87c-.011.35-.026.792-.04 1.328-.015.534-.02 1.23-.02 2.089a13.456 13.456 0 0 0 2.484-.743 9.27 9.27 0 0 0 1.926-1.06c.537-.397.951-.822 1.242-1.277.292-.457.435-.915.435-1.378v-.276zm-8.78-6.08c-.526.265-1.016.539-1.471.825-.456.281-.755.576-.889.88.384.065.769.117 1.159.159.384.038.774.076 1.159.117.055-.422.11-.784.165-1.079.055-.296.109-.652.166-1.06-.139.067-.235.12-.289.158zm2.9-6.654c.053.451.115.834.185 1.151a14.764 14.764 0 0 1 .269 1.722c.026.276.041.607.041.99a14.11 14.11 0 0 1 2.279-.199c1.49 0 2.844.29 4.059.872v-.018c.25.117.375.276.375.472 0 .159-.12.294-.351.406a1.84 1.84 0 0 1-.81.17c-.388 0-.734-.072-1.037-.217h.043a6.07 6.07 0 0 0-2.404-.476c-.716 0-1.476.117-2.279.358 0 .462-.012.86-.038 1.198l-.084.92c-.026.276-.063.541-.104.791-.044.253-.077.514-.105.794 1.298.076 2.48.222 3.543.432 1.063.212 1.967.49 2.712.834.745.344 1.326.758 1.74 1.248a2.53 2.53 0 0 1 .624 1.681c0 .634-.225 1.245-.665 1.831-.441.59-1.05 1.13-1.821 1.625-.775.495-1.7.928-2.778 1.299-1.076.37-2.25.651-3.52.847.028.32.056.58.083.785.028.204.062.425.106.663.037.239.107.532.206.88l.391 1.436a.74.74 0 0 0 .085.358.79.79 0 0 1 .082.356c0 .132-.152.232-.457.307a3.456 3.456 0 0 1-.786.11c-.221 0-.44-.04-.661-.12-.221-.078-.346-.21-.375-.396a48.468 48.468 0 0 1-.391-1.524 67.822 67.822 0 0 1-.248-1.06 63.285 63.285 0 0 1-.189-.793 14.626 14.626 0 0 0-.206-.743 8.64 8.64 0 0 1-.497.031c-.195.007-.373.01-.542.01-.99 0-1.856-.082-2.587-.248a9.696 9.696 0 0 1-1.928-.625 8.07 8.07 0 0 1-1.468-.842c-.428-.307-.82-.615-1.18-.918v.02c-.167-.133-.325-.26-.477-.388-.153-.125-.297-.237-.435-.346v-.039a1.547 1.547 0 0 1-.372-.247l-.166-.248c0-.12.096-.221.29-.307.193-.087.428-.13.702-.13.25 0 .476.036.684.111.209.071.401.16.581.266.178.106.346.219.495.338.155.116.299.217.438.297.413.276.813.539 1.202.781.385.243.82.454 1.303.634.483.176 1.015.323 1.596.434.58.112 1.27.177 2.07.19a6.554 6.554 0 0 1-.103-.96 77.141 77.141 0 0 1-.062-3.546v-3.334h-.041c-.333-.029-.808-.068-1.432-.12a35.118 35.118 0 0 1-1.841-.208 13.1 13.1 0 0 1-1.596-.316c-.454-.129-.683-.282-.683-.467 0-.329.159-.664.477-1a6.602 6.602 0 0 1 1.22-.98 15.783 15.783 0 0 1 1.638-.9c.594-.284 1.167-.55 1.719-.803h-.044l.995-.474v-1.208c0-.33-.003-.645-.018-.94-.014-.299-.03-.612-.044-.94a52.07 52.07 0 0 0-.063-1.229v-.14c0-.223.145-.391.439-.505a2.65 2.65 0 0 1 .97-.168c.276 0 .526.037.749.108a.939.939 0 0 1 .497.366"/><path fill="#b2901d" d="M877.819 525.406c-23.211-6.426-61.124 3.901-54.989 17.41 2.88 6.333 16.53 11.634 29.518 12.728 11.462.966 23.01-1.328 31.21-5.098 7.038-3.237 11.567-7.81 11.318-12.515-.285-5.431-7.852-9.741-17.057-12.525-.99-.301-1.899.446-.916.745 12.118 3.666 19.11 9.695 14.78 16.514-3.642 5.731-14.323 10.27-26.3 11.767-15.05 1.88-30.073-2.268-37.855-8.37-8.972-7.037.47-14.908 13.46-18.872 10.675-3.26 24.686-4.148 35.915-1.039 1.015.281 1.923-.466.916-.745"/><path fill="#9b6d40" d="M713.213 580.72c-39.824-3.33-65.005-17.098-81.003-37.665.208-.181.386-.366.609-.544l-.009-2.021h.029c-.153-9.531 21.606-18.063 42.731-18.063 5.983 0 11.916.685 17.285 2.225 13.086 3.873 18.378 8.972 18.376 13.988l.013.004-.003 4.385-.01 2.461c-.001 2.645-1.48 5.265-4.065 7.67 1.2 1.6 1.76 3.235 1.76 4.862l.012.004v.454c4.81 2.894 6.906 6.08 6.906 9.234l.011.003-.002 4.385-.01 2.462c-.002 2.1-.947 4.183-2.63 6.156"/><path fill="#b2901d" d="M632.728 576.86c-2.54-3.284-7.797-6.41-16.522-8.991-21.347-6.127-51.591 1.281-58.551 11.452h-1.492l.028 6.885c.065 2.966 2.227 6.028 7.228 8.958 28.732 16.855 71.155 3.345 71.165-10.843l.01-2.461.002-4.385-1.868-.615"/><path fill="#f2be0b" d="M616.206 563.482c-30.247-8.675-78.425 9.803-52.787 24.838 38.892 22.812 102.894-10.011 52.787-24.838"/><path fill="#b2901d" d="M602.143 579.994c0-.37-.173-.709-.52-1.019-.343-.31-.793-.584-1.343-.823a9.441 9.441 0 0 0-1.885-.565 12.285 12.285 0 0 0-2.094-.227c0 .596-.005 1.07-.018 1.425-.015.356-.03.664-.044.924-.013.257-.034.498-.06.732-.026.231-.05.523-.063.87-.012.35-.026.791-.041 1.328a86.194 86.194 0 0 0-.019 2.09 13.538 13.538 0 0 0 2.483-.744 9.213 9.213 0 0 0 1.926-1.06c.539-.396.951-.823 1.243-1.276.29-.458.435-.917.435-1.378v-.277zm-8.78-6.079c-.527.264-1.017.537-1.47.824-.458.281-.755.577-.89.88.383.065.768.118 1.158.158.384.04.774.078 1.159.12.055-.425.11-.786.166-1.08.055-.297.108-.652.165-1.06-.138.067-.235.12-.287.158zm2.9-6.655c.052.452.115.834.185 1.151.07.316.122.614.166.89.041.276.076.555.102.831.028.277.042.61.042.992.387-.068.775-.117 1.16-.149.388-.035.758-.051 1.12-.051 1.49 0 2.843.291 4.057.872v-.019c.25.118.375.277.375.474 0 .159-.12.293-.351.406a1.854 1.854 0 0 1-.81.168c-.388 0-.734-.071-1.036-.216h.043a6.081 6.081 0 0 0-2.405-.477c-.716 0-1.475.12-2.278.36 0 .462-.012.86-.04 1.197-.028.336-.057.641-.083.92-.026.277-.062.541-.102.791a11.58 11.58 0 0 0-.107.794c1.298.076 2.482.223 3.544.432 1.063.213 1.966.49 2.711.834.745.344 1.328.757 1.742 1.249a2.53 2.53 0 0 1 .622 1.68c0 .635-.224 1.245-.664 1.832-.442.589-1.05 1.129-1.822 1.625-.774.495-1.7.928-2.776 1.298-1.078.37-2.252.651-3.52.848.026.318.055.58.08.784.03.204.065.425.107.664.039.237.109.531.208.88l.39 1.435a.74.74 0 0 0 .085.359.782.782 0 0 1 .082.355c0 .132-.152.233-.457.308a3.509 3.509 0 0 1-.787.108 1.94 1.94 0 0 1-.66-.118c-.221-.08-.346-.21-.375-.397a51.753 51.753 0 0 1-.392-1.524c-.099-.409-.18-.764-.248-1.06-.072-.296-.135-.56-.187-.794a15.082 15.082 0 0 0-.208-.742 8.568 8.568 0 0 1-.497.031c-.195.008-.373.01-.541.01-.99 0-1.855-.082-2.587-.247a9.75 9.75 0 0 1-1.927-.625 8.03 8.03 0 0 1-1.469-.843 19.9 19.9 0 0 1-1.181-.917v.018c-.165-.132-.324-.26-.476-.387a28.406 28.406 0 0 0-.435-.345v-.04a1.559 1.559 0 0 1-.373-.248l-.166-.246c0-.121.096-.222.291-.309.193-.086.428-.128.703-.128.25 0 .476.035.682.11.209.072.401.161.581.266.179.106.348.22.497.337.153.118.297.218.436.298.414.276.814.539 1.202.781.385.243.82.455 1.304.635a10.26 10.26 0 0 0 1.596.433c.579.112 1.269.177 2.07.19a6.547 6.547 0 0 1-.103-.959 79.25 79.25 0 0 1-.063-3.546v-3.335h-.041c-.331-.029-.808-.068-1.43-.12a35.12 35.12 0 0 1-1.841-.207 13.3 13.3 0 0 1-1.598-.317c-.454-.128-.682-.281-.682-.466 0-.33.158-.664.476-1a6.554 6.554 0 0 1 1.221-.982 15.781 15.781 0 0 1 1.638-.898c.593-.284 1.166-.552 1.718-.804h-.043l.996-.474v-1.209c0-.328-.005-.643-.02-.94-.014-.297-.029-.61-.043-.94-.012-.33-.033-.74-.062-1.228v-.14c0-.223.144-.392.437-.504a2.63 2.63 0 0 1 .972-.169c.276 0 .526.036.747.109a.926.926 0 0 1 .498.365"/><path fill="#b2901d" d="M635.034 567.169c-2.539-3.285-7.796-6.409-16.521-8.992-21.35-6.125-51.592 1.282-58.552 11.453h-1.492l.029 6.885c.065 2.967 2.226 6.027 7.226 8.959 28.734 16.855 71.156 3.343 71.165-10.843l.01-2.462.002-4.385-1.867-.615"/><path fill="#f2be0b" d="M618.513 553.792c-30.248-8.676-78.427 9.802-52.79 24.837 38.895 22.812 102.896-10.01 52.79-24.837"/><path fill="#b2901d" d="M604.449 570.304c0-.372-.174-.71-.519-1.02-.345-.31-.794-.584-1.345-.822a9.346 9.346 0 0 0-1.884-.566 12.313 12.313 0 0 0-2.095-.227 36.657 36.657 0 0 1-.062 2.348 9.87 9.87 0 0 1-.06.733c-.026.231-.05.522-.063.871-.011.348-.026.791-.041 1.326a86.194 86.194 0 0 0-.019 2.09 13.36 13.36 0 0 0 2.484-.743 9.227 9.227 0 0 0 1.925-1.06c.539-.397.953-.822 1.244-1.277.291-.457.435-.916.435-1.377v-.276zm-8.78-6.08a17.07 17.07 0 0 0-1.471.825c-.457.281-.754.576-.89.878.385.065.77.12 1.16.16.383.038.773.077 1.158.118.055-.424.11-.784.165-1.08.055-.295.109-.651.167-1.06-.14.067-.237.12-.29.159zm2.9-6.655c.052.452.115.833.185 1.151.07.315.122.614.165.89.041.276.077.556.104.832.026.277.04.608.04.99a13.18 13.18 0 0 1 1.162-.148c.388-.034.758-.052 1.118-.052 1.49 0 2.843.292 4.058.873v-.019c.25.118.375.276.375.474 0 .159-.121.294-.351.406a1.858 1.858 0 0 1-.81.168c-.387 0-.734-.072-1.036-.215h.042a6.07 6.07 0 0 0-2.403-.477c-.717 0-1.477.118-2.28.358 0 .461-.012.861-.038 1.197-.029.337-.057.643-.084.922a11.6 11.6 0 0 1-.103.79c-.044.252-.078.515-.107.793 1.299.077 2.482.224 3.545.433 1.062.211 1.965.491 2.712.834.745.345 1.326.757 1.74 1.248.413.488.622 1.048.622 1.68 0 .635-.222 1.245-.662 1.833-.443.589-1.052 1.129-1.823 1.625-.775.495-1.7.927-2.777 1.297a20.31 20.31 0 0 1-3.52.85c.027.317.056.58.082.783.029.205.063.426.106.664.038.238.108.531.207.88l.392 1.435c0 .132.026.252.084.358a.785.785 0 0 1 .081.355c0 .133-.151.234-.456.31a3.518 3.518 0 0 1-.786.107c-.222 0-.44-.039-.662-.118-.221-.08-.346-.211-.375-.396a64.655 64.655 0 0 1-.639-2.585c-.072-.296-.134-.56-.188-.794a15.384 15.384 0 0 0-.206-.742c-.14.015-.305.023-.498.031-.195.007-.372.01-.541.01-.99 0-1.855-.083-2.586-.249a9.602 9.602 0 0 1-1.93-.625 8.07 8.07 0 0 1-1.468-.841c-.427-.308-.82-.615-1.18-.918v.02c-.166-.133-.325-.26-.476-.387-.154-.125-.299-.239-.435-.346v-.039a1.515 1.515 0 0 1-.373-.249l-.166-.246c0-.121.096-.221.291-.308a1.69 1.69 0 0 1 .703-.13c.249 0 .475.037.681.11.21.073.403.162.583.267.177.106.346.22.495.337.153.118.297.219.437.298.414.276.813.538 1.203.781.385.242.82.455 1.302.635a10.35 10.35 0 0 0 1.596.432c.58.114 1.27.18 2.07.19a6.517 6.517 0 0 1-.102-.958c-.015-.352-.029-.81-.044-1.378a102.11 102.11 0 0 1-.019-2.169v-3.335h-.041c-.332-.028-.807-.066-1.431-.12a35.12 35.12 0 0 1-1.841-.206 13.084 13.084 0 0 1-1.597-.317c-.453-.128-.682-.282-.682-.467 0-.33.159-.663.476-1a6.604 6.604 0 0 1 1.221-.98 15.781 15.781 0 0 1 1.638-.9c.594-.283 1.166-.55 1.719-.803h-.044l.996-.473v-1.21c0-.33-.005-.644-.02-.94-.015-.297-.029-.61-.044-.94-.011-.331-.033-.74-.062-1.229v-.138c0-.224.145-.393.437-.505.289-.114.614-.169.972-.169.277 0 .526.036.747.109a.94.94 0 0 1 .499.365"/><path fill="#b2901d" d="M630.423 557.477c-2.54-3.283-7.797-6.408-16.522-8.99-21.348-6.127-51.591 1.28-58.551 11.452h-1.494l.03 6.886c.064 2.966 2.227 6.026 7.227 8.956 28.733 16.856 71.156 3.345 71.165-10.841l.01-2.463.002-4.385-1.867-.615"/><path fill="#f2be0b" d="M613.901 544.101c-30.248-8.676-78.426 9.801-52.788 24.836 38.892 22.813 102.895-10.01 52.788-24.836"/><path fill="#b2901d" d="M599.838 560.612c0-.37-.173-.708-.52-1.02-.343-.31-.793-.583-1.344-.82a9.256 9.256 0 0 0-1.885-.566 12.288 12.288 0 0 0-2.094-.229 36.657 36.657 0 0 1-.062 2.35c-.012.257-.034.5-.06.733a11.3 11.3 0 0 0-.063.87c-.012.349-.026.791-.041 1.327a84.62 84.62 0 0 0-.019 2.09 13.456 13.456 0 0 0 2.484-.743 9.26 9.26 0 0 0 1.925-1.062c.539-.396.952-.82 1.244-1.276.29-.456.435-.916.435-1.377v-.277zm-8.78-6.08c-.527.264-1.018.54-1.472.825-.456.282-.755.577-.89.88.385.064.77.118 1.159.158.385.039.775.077 1.16.119.054-.424.11-.784.165-1.08.055-.295.109-.652.166-1.06a2.04 2.04 0 0 0-.288.158zm2.9-6.655c.052.453.115.835.185 1.152a14.731 14.731 0 0 1 .268 1.722c.027.276.042.608.042.99a13.59 13.59 0 0 1 1.16-.149c.387-.033.758-.05 1.118-.05 1.49 0 2.844.29 4.058.872v-.019c.25.117.376.276.376.474 0 .158-.121.293-.351.406a1.858 1.858 0 0 1-.81.169 2.39 2.39 0 0 1-1.036-.217h.042a6.07 6.07 0 0 0-2.404-.476c-.716 0-1.476.118-2.278.358 0 .462-.013.861-.04 1.197-.028.336-.057.643-.083.921-.027.277-.062.54-.104.792-.043.252-.077.513-.106.792 1.299.078 2.481.224 3.544.434 1.062.211 1.966.49 2.711.834.746.343 1.328.756 1.741 1.247.414.488.623 1.048.623 1.68 0 .635-.224 1.245-.664 1.833-.442.588-1.05 1.13-1.821 1.625-.775.495-1.701.927-2.778 1.297-1.077.371-2.25.653-3.52.849.028.317.057.58.083.784.029.205.062.426.105.663.039.24.109.532.207.88l.393 1.435c0 .133.026.253.084.36a.785.785 0 0 1 .08.354c0 .133-.15.234-.455.309a3.446 3.446 0 0 1-.787.107c-.221 0-.44-.037-.661-.117-.221-.079-.346-.211-.375-.396a52.73 52.73 0 0 1-.392-1.525c-.1-.409-.18-.764-.248-1.06-.071-.297-.134-.56-.187-.793a15.022 15.022 0 0 0-.207-.744 7.96 7.96 0 0 1-.497.032c-.195.007-.374.01-.541.01-.99 0-1.857-.082-2.587-.248-.731-.164-1.376-.37-1.928-.625a8 8 0 0 1-1.47-.842c-.427-.308-.82-.615-1.18-.918v.019a21.931 21.931 0 0 1-.477-.386c-.152-.127-.297-.239-.433-.347v-.038a1.547 1.547 0 0 1-.373-.248l-.166-.247c0-.12.096-.222.291-.308.191-.087.428-.13.701-.13.25 0 .477.035.683.11.21.073.402.161.582.268a4.2 4.2 0 0 1 .495.336c.154.117.298.219.438.299.414.276.812.537 1.202.781.384.242.82.454 1.303.634a10.35 10.35 0 0 0 1.596.432c.58.114 1.27.179 2.07.19a6.536 6.536 0 0 1-.102-.959 76.952 76.952 0 0 1-.063-3.546v-3.335h-.041c-.333-.027-.808-.066-1.431-.12a35.12 35.12 0 0 1-1.842-.206 13.084 13.084 0 0 1-1.596-.318c-.454-.127-.682-.28-.682-.466 0-.33.158-.664.476-1a6.604 6.604 0 0 1 1.221-.981 15.781 15.781 0 0 1 1.638-.899c.592-.284 1.165-.55 1.718-.802h-.043l.995-.475v-1.209c0-.329-.005-.644-.02-.94l-.043-.94a55.1 55.1 0 0 0-.062-1.228v-.14c0-.223.145-.392.437-.505.289-.112.614-.167.971-.167.277 0 .527.035.748.107a.94.94 0 0 1 .499.365"/><path fill="#b2901d" d="M612.37 545.182c-23.211-6.425-61.124 3.903-54.989 17.41 2.88 6.334 16.53 11.634 29.518 12.728 11.462.967 23.009-1.326 31.21-5.096 7.039-3.239 11.569-7.812 11.317-12.517-.282-5.43-7.851-9.74-17.056-12.525-.991-.3-1.9.448-.916.745 12.119 3.667 19.11 9.697 14.78 16.515-3.643 5.732-14.324 10.27-26.3 11.768-15.05 1.88-30.073-2.27-37.855-8.371-8.973-7.037.471-14.908 13.46-18.873 10.675-3.26 24.685-4.146 35.915-1.039 1.015.283 1.924-.465.916-.745m90.089 53.299c-2.539-3.285-7.796-6.41-16.521-8.992-21.35-6.125-51.592 1.282-58.552 11.453h-1.493l.028 6.885c.065 2.968 2.227 6.028 7.228 8.958 28.734 16.855 71.156 3.345 71.166-10.843l.009-2.46.002-4.386-1.867-.615"/><path fill="#f2be0b" d="M685.938 585.105c-30.248-8.678-78.427 9.801-52.79 24.836 38.895 22.811 102.896-10.011 52.79-24.836"/><path fill="#b2901d" d="M671.874 601.616c0-.371-.174-.71-.519-1.02-.345-.31-.794-.584-1.345-.822a9.428 9.428 0 0 0-1.884-.565 12.313 12.313 0 0 0-2.095-.228c0 .596-.005 1.069-.018 1.425-.014.356-.03.664-.044.924-.011.256-.034.5-.06.732-.026.232-.05.523-.063.872-.011.348-.026.79-.04 1.326-.015.534-.02 1.231-.02 2.09a13.552 13.552 0 0 0 2.484-.744 9.17 9.17 0 0 0 1.925-1.06c.539-.396.953-.822 1.244-1.276.291-.458.435-.916.435-1.378v-.276zm-8.78-6.08a17.41 17.41 0 0 0-1.471.824c-.457.281-.755.577-.89.88.385.065.77.117 1.158.159.385.038.775.077 1.16.118.055-.423.11-.785.165-1.08.055-.296.109-.65.167-1.06-.14.068-.237.12-.29.16zm2.9-6.655c.052.453.115.834.185 1.151.07.315.122.613.165.89.041.277.077.555.104.832.026.276.04.608.04.991a13.594 13.594 0 0 1 2.28-.2c1.49 0 2.843.291 4.058.872v-.018c.25.117.374.276.374.473 0 .158-.12.293-.35.407a1.858 1.858 0 0 1-.81.167 2.37 2.37 0 0 1-1.036-.216h.042a6.07 6.07 0 0 0-2.403-.476 7.96 7.96 0 0 0-2.28.358c0 .463-.012.862-.038 1.198a88.96 88.96 0 0 1-.084.92c-.026.277-.062.541-.103.791-.044.253-.078.515-.107.794 1.299.076 2.482.224 3.545.432 1.063.212 1.965.49 2.712.834.745.344 1.326.758 1.74 1.249.413.487.622 1.047.622 1.68 0 .635-.224 1.245-.662 1.832-.443.59-1.052 1.13-1.823 1.624-.775.496-1.7.929-2.777 1.299-1.077.37-2.25.651-3.52.849.027.317.056.58.082.783.029.204.063.425.106.664.038.238.108.531.207.88l.39 1.435c0 .133.028.253.086.359a.781.781 0 0 1 .081.355c0 .132-.151.234-.456.307a3.456 3.456 0 0 1-.786.11c-.222 0-.44-.04-.662-.118-.221-.08-.346-.213-.375-.398a47.596 47.596 0 0 1-.391-1.524c-.1-.408-.181-.765-.249-1.06a82.97 82.97 0 0 1-.187-.793 14.626 14.626 0 0 0-.206-.743 8.64 8.64 0 0 1-.498.031c-.195.008-.372.01-.541.01-.99 0-1.856-.082-2.586-.247a9.68 9.68 0 0 1-1.93-.626 8.07 8.07 0 0 1-1.468-.842c-.427-.307-.82-.615-1.18-.917v.019c-.166-.133-.325-.26-.476-.388-.154-.125-.299-.237-.435-.346v-.038a1.551 1.551 0 0 1-.373-.248l-.166-.248c0-.12.096-.221.291-.307.193-.087.428-.13.702-.13.25 0 .476.036.683.111.209.071.402.161.582.266.177.106.346.219.495.338.153.117.298.218.437.297.414.276.813.539 1.203.781.383.243.82.455 1.302.635.484.175 1.015.323 1.596.433.58.112 1.27.177 2.07.19a6.723 6.723 0 0 1-.103-.959 94.183 94.183 0 0 1-.043-1.377 102.11 102.11 0 0 1-.019-2.169v-3.335h-.041c-.332-.029-.809-.068-1.431-.12a35.12 35.12 0 0 1-1.841-.206 13.326 13.326 0 0 1-1.597-.318c-.453-.127-.682-.281-.682-.467 0-.329.159-.663.476-.999a6.503 6.503 0 0 1 1.221-.981 15.781 15.781 0 0 1 1.638-.899c.594-.284 1.166-.551 1.719-.804h-.044l.995-.472v-1.21c0-.329-.004-.645-.019-.94-.015-.299-.029-.61-.044-.94a49.68 49.68 0 0 0-.062-1.229v-.139c0-.224.145-.392.437-.506.289-.113.614-.168.972-.168.276 0 .527.037.747.11.22.073.388.195.499.364"/><path fill="#b2901d" d="M697.848 588.79c-2.54-3.285-7.798-6.409-16.522-8.991-21.348-6.127-51.591 1.28-58.551 11.452h-1.494l.029 6.885c.065 2.968 2.226 6.028 7.228 8.959 28.733 16.855 71.156 3.344 71.166-10.843l.009-2.462.002-4.385-1.867-.615"/><path fill="#f2be0b" d="M681.326 575.414c-30.248-8.677-78.426 9.801-52.788 24.836 38.892 22.812 102.893-10.011 52.788-24.836"/><path fill="#b2901d" d="M667.263 591.925c0-.37-.174-.71-.52-1.02-.344-.31-.793-.584-1.344-.821a9.334 9.334 0 0 0-1.885-.567 12.285 12.285 0 0 0-2.094-.227c0 .596-.005 1.07-.019 1.425-.015.356-.028.664-.043.924-.012.257-.034.5-.06.732-.027.231-.05.523-.063.871-.011.35-.026.79-.04 1.327-.015.533-.02 1.231-.02 2.09a13.581 13.581 0 0 0 2.484-.744 9.26 9.26 0 0 0 1.925-1.06c.539-.396.952-.823 1.244-1.276.29-.458.435-.917.435-1.378v-.276zm-8.78-6.08c-.527.264-1.018.539-1.472.824-.456.281-.755.577-.888.88.383.065.768.118 1.157.158.385.04.775.078 1.159.12.056-.425.111-.785.166-1.08.055-.297.109-.652.166-1.06a2.04 2.04 0 0 0-.288.158zm2.9-6.655c.052.452.115.834.185 1.151a14.554 14.554 0 0 1 .268 1.721c.027.278.042.61.042.992.386-.068.773-.115 1.16-.149a12.86 12.86 0 0 1 1.118-.051c1.49 0 2.844.291 4.058.872v-.019c.25.118.376.277.376.474 0 .159-.121.294-.351.406a1.86 1.86 0 0 1-.811.168 2.38 2.38 0 0 1-1.037-.216h.044a6.074 6.074 0 0 0-2.404-.475c-.716 0-1.476.117-2.278.357 0 .461-.013.861-.04 1.198-.028.336-.057.641-.083.921-.027.275-.062.54-.104.79-.043.252-.077.515-.106.794 1.299.076 2.481.223 3.544.432 1.062.211 1.966.491 2.712.834.745.345 1.327.757 1.74 1.247.414.49.623 1.05.623 1.682 0 .635-.224 1.245-.664 1.832-.442.589-1.05 1.13-1.822 1.625-.774.495-1.7.928-2.777 1.299-1.077.37-2.25.651-3.52.847.028.318.057.58.083.784.029.205.062.426.105.664.039.237.109.531.207.88.097.351.227.83.392 1.435a.73.73 0 0 0 .085.359.787.787 0 0 1 .08.356c0 .131-.15.232-.455.306a3.456 3.456 0 0 1-.787.109c-.221 0-.44-.039-.661-.118-.221-.08-.346-.21-.375-.396a52.73 52.73 0 0 1-.392-1.525c-.098-.409-.18-.764-.248-1.06a82.97 82.97 0 0 1-.187-.794 14.626 14.626 0 0 0-.207-.742 13.027 13.027 0 0 1-1.038.041c-.99 0-1.857-.082-2.588-.247a9.778 9.778 0 0 1-1.927-.625 8.147 8.147 0 0 1-1.47-.843 19.46 19.46 0 0 1-1.18-.917v.018c-.165-.132-.324-.26-.475-.387-.154-.125-.3-.238-.435-.346v-.038a1.584 1.584 0 0 1-.373-.247l-.166-.249c0-.12.096-.221.291-.308a1.71 1.71 0 0 1 .701-.128c.25 0 .477.035.683.11.21.072.402.161.582.266.178.106.347.219.495.337.154.118.299.22.438.298.414.277.812.539 1.202.781.384.244.819.455 1.303.635.484.175 1.015.323 1.596.433.58.113 1.269.177 2.07.19a6.703 6.703 0 0 1-.104-.959c-.013-.351-.028-.81-.042-1.378-.013-.567-.02-1.29-.02-2.168v-3.335h-.04c-.333-.029-.809-.067-1.431-.12a35.12 35.12 0 0 1-1.842-.207 13.326 13.326 0 0 1-1.596-.317c-.454-.128-.682-.281-.682-.466 0-.33.158-.664.476-1a6.472 6.472 0 0 1 1.221-.982 15.654 15.654 0 0 1 1.636-.898c.594-.284 1.167-.552 1.72-.804h-.043l.995-.473v-1.21c0-.328-.005-.645-.02-.94l-.043-.94c-.011-.33-.034-.74-.062-1.228v-.139c0-.224.143-.393.437-.505.289-.114.614-.169.971-.169.277 0 .528.036.748.109a.934.934 0 0 1 .499.365"/><path fill="#b2901d" d="M702.459 579.099c-2.539-3.284-7.796-6.41-16.521-8.992-21.35-6.126-51.592 1.282-58.552 11.453h-1.493l.028 6.885c.065 2.967 2.227 6.027 7.228 8.959 28.734 16.853 71.156 3.343 71.166-10.843l.009-2.462.002-4.385-1.867-.615"/><path fill="#f2be0b" d="M685.938 565.722c-30.248-8.676-78.427 9.802-52.79 24.837 38.895 22.812 102.896-10.01 52.79-24.837"/><path fill="#b2901d" d="M671.874 582.234c0-.37-.174-.71-.519-1.02-.345-.31-.794-.584-1.345-.823a9.349 9.349 0 0 0-1.884-.564 12.316 12.316 0 0 0-2.095-.228c0 .596-.005 1.07-.018 1.425-.014.356-.03.663-.044.923-.011.258-.034.5-.06.733-.026.231-.05.522-.063.871-.011.349-.026.79-.04 1.326a79.37 79.37 0 0 0-.02 2.09 13.553 13.553 0 0 0 2.484-.742 9.229 9.229 0 0 0 1.925-1.061c.539-.397.953-.823 1.244-1.277.291-.457.435-.916.435-1.377v-.276zm-8.78-6.08a18.17 18.17 0 0 0-1.471.823c-.457.283-.755.578-.89.882.385.063.77.117 1.158.157.385.039.775.078 1.16.119.055-.424.11-.784.165-1.08.055-.296.109-.651.167-1.06-.14.067-.237.12-.29.159zm2.9-6.655c.052.452.115.835.185 1.152.07.314.122.613.165.889a10.768 10.768 0 0 1 .144 1.822 13.514 13.514 0 0 1 2.28-.2c1.49 0 2.843.292 4.058.873v-.019c.25.118.374.276.374.474 0 .159-.12.292-.35.406a1.858 1.858 0 0 1-.81.169 2.39 2.39 0 0 1-1.036-.216h.042a6.07 6.07 0 0 0-2.403-.477c-.717 0-1.477.118-2.28.358 0 .462-.012.861-.038 1.197-.029.337-.057.643-.084.922a11.6 11.6 0 0 1-.103.79c-.044.252-.078.515-.107.793 1.299.078 2.482.224 3.545.433 1.063.212 1.965.491 2.712.835.745.344 1.326.757 1.74 1.247.413.488.622 1.048.622 1.68 0 .635-.224 1.247-.662 1.833-.443.589-1.052 1.13-1.823 1.625-.775.495-1.7.927-2.777 1.297a20.31 20.31 0 0 1-3.52.85c.027.317.056.58.082.783.029.205.063.426.106.664.038.238.108.531.207.88l.39 1.435c0 .132.028.252.086.358a.79.79 0 0 1 .081.357c0 .131-.151.232-.456.307a3.518 3.518 0 0 1-.786.108c-.222 0-.44-.039-.662-.118-.221-.079-.346-.212-.375-.397a66.113 66.113 0 0 1-.64-2.584 82.97 82.97 0 0 1-.187-.794 15.384 15.384 0 0 0-.206-.742c-.14.015-.305.025-.498.031-.195.007-.372.01-.541.01-.99 0-1.856-.081-2.586-.248a9.764 9.764 0 0 1-1.93-.625 8 8 0 0 1-1.468-.842c-.427-.308-.82-.615-1.18-.918v.02c-.166-.133-.325-.26-.476-.387-.154-.125-.299-.239-.435-.346v-.039a1.547 1.547 0 0 1-.373-.248l-.166-.247c0-.12.096-.221.291-.309.193-.086.428-.129.702-.129.25 0 .476.035.683.11.209.073.402.162.582.268.177.105.346.219.495.336.153.118.298.219.437.298.414.277.813.538 1.203.781.383.244.82.455 1.302.635a10.35 10.35 0 0 0 1.596.432c.58.114 1.27.18 2.07.19a6.703 6.703 0 0 1-.103-.958c-.014-.352-.03-.81-.043-1.378a102.11 102.11 0 0 1-.019-2.169v-3.333h-.041c-.332-.03-.809-.068-1.431-.12a36.509 36.509 0 0 1-1.841-.208 13.084 13.084 0 0 1-1.597-.317c-.453-.128-.682-.282-.682-.467 0-.328.159-.663.476-1a6.554 6.554 0 0 1 1.221-.98 15.781 15.781 0 0 1 1.638-.9 99.936 99.936 0 0 1 1.719-.802h-.044l.995-.474v-1.21c0-.329-.004-.644-.019-.94-.015-.297-.029-.61-.044-.94-.011-.331-.033-.74-.062-1.229v-.138c0-.224.145-.393.437-.505.289-.114.614-.169.972-.169.276 0 .527.036.747.109.22.075.388.197.499.365"/><path fill="#b2901d" d="M707.07 569.407c-2.539-3.283-7.796-6.408-16.521-8.99-21.348-6.127-51.591 1.28-58.551 11.453h-1.493l.029 6.885c.065 2.966 2.226 6.026 7.226 8.957 28.734 16.855 71.156 3.344 71.166-10.842l.009-2.463.003-4.385-1.868-.615"/><path fill="#f2be0b" d="M690.549 556.031c-30.249-8.676-78.426 9.801-52.789 24.836 38.894 22.813 102.895-10.01 52.789-24.836"/><path fill="#b2901d" d="M676.485 572.542c0-.37-.172-.71-.519-1.02-.343-.31-.793-.583-1.343-.82a9.304 9.304 0 0 0-1.885-.566 12.315 12.315 0 0 0-2.094-.229 36.237 36.237 0 0 1-.064 2.35c-.011.257-.032.5-.059.733-.027.23-.051.521-.063.87a79.382 79.382 0 0 0-.06 3.416 13.456 13.456 0 0 0 2.483-.742 9.329 9.329 0 0 0 1.927-1.06c.537-.398.95-.823 1.242-1.278.291-.456.435-.916.435-1.377v-.277zm-8.78-6.08a18.48 18.48 0 0 0-1.471.824c-.456.283-.755.578-.889.881.384.064.769.118 1.159.16.385.037.774.075 1.159.117.055-.424.11-.784.165-1.08.056-.295.108-.652.166-1.06-.139.067-.235.12-.289.158zm2.9-6.653c.053.451.115.833.185 1.15a14.075 14.075 0 0 1 .269 1.722c.026.276.041.608.041.99a14.014 14.014 0 0 1 2.279-.199c1.491 0 2.844.29 4.059.873v-.02c.25.117.375.276.375.474 0 .158-.12.293-.352.406a1.84 1.84 0 0 1-.81.169 2.39 2.39 0 0 1-1.036-.217h.043a6.07 6.07 0 0 0-2.404-.476c-.716 0-1.476.118-2.279.358 0 .462-.012.861-.039 1.197-.028.338-.057.643-.083.921-.027.277-.063.54-.104.792-.043.251-.078.513-.105.792 1.297.078 2.48.224 3.542.433 1.064.212 1.968.491 2.713.835.745.343 1.327.757 1.74 1.247.414.489.622 1.049.622 1.68 0 .635-.222 1.246-.662 1.833-.443.588-1.051 1.13-1.823 1.625-.773.495-1.7.928-2.777 1.298-1.076.37-2.25.652-3.519.848.026.317.055.58.081.785.029.204.063.425.107.662.038.24.107.532.206.88l.391 1.435c0 .133.028.253.085.36a.79.79 0 0 1 .081.355c0 .132-.151.233-.456.308a3.518 3.518 0 0 1-.786.107c-.221 0-.44-.037-.661-.117-.222-.079-.347-.211-.375-.396a49.374 49.374 0 0 1-.392-1.524c-.098-.41-.181-.765-.247-1.061-.073-.295-.135-.56-.189-.793a15.022 15.022 0 0 0-.206-.744c-.14.015-.305.024-.498.032-.195.007-.372.01-.541.01-.99 0-1.856-.083-2.587-.248a9.696 9.696 0 0 1-1.928-.625 8.187 8.187 0 0 1-1.469-.841c-.427-.309-.82-.616-1.18-.919v.019a19.172 19.172 0 0 1-.476-.386 28.818 28.818 0 0 0-.435-.347v-.038a1.547 1.547 0 0 1-.372-.248l-.167-.247c0-.122.097-.222.292-.308.192-.087.427-.13.7-.13.25 0 .477.036.685.11.208.073.4.161.58.268.178.105.347.218.496.336.154.117.299.219.439.297.412.278.812.54 1.2.782.386.243.82.455 1.303.635a10.22 10.22 0 0 0 1.597.432c.58.114 1.27.179 2.07.191a6.554 6.554 0 0 1-.103-.96 76.952 76.952 0 0 1-.062-3.546v-3.334h-.042l-1.43-.12a34.818 34.818 0 0 1-1.841-.207 13.06 13.06 0 0 1-1.597-.318c-.454-.127-.683-.28-.683-.466 0-.33.159-.664.476-1a6.554 6.554 0 0 1 1.222-.981 15.781 15.781 0 0 1 1.637-.899c.594-.284 1.165-.55 1.719-.804h-.044l.995-.472v-1.21c0-.329-.004-.644-.019-.94l-.043-.94c-.012-.331-.034-.74-.063-1.228v-.14c0-.223.145-.39.439-.505a2.65 2.65 0 0 1 .97-.168 2.4 2.4 0 0 1 .749.108.943.943 0 0 1 .497.367"/><path fill="#b2901d" d="M700.153 559.716c-2.54-3.284-7.797-6.409-16.522-8.991-21.347-6.126-51.591 1.281-58.551 11.452h-1.492l.028 6.887c.065 2.966 2.227 6.026 7.227 8.957 28.733 16.855 71.156 3.344 71.166-10.842l.01-2.463.002-4.384-1.868-.616"/><path fill="#f2be0b" d="M683.631 546.34c-30.247-8.676-78.425 9.801-52.788 24.836 38.893 22.813 102.895-10.01 52.788-24.836"/><path fill="#b2901d" d="M669.568 562.851c0-.37-.173-.709-.52-1.019-.343-.31-.793-.585-1.343-.822a9.385 9.385 0 0 0-1.885-.565 12.301 12.301 0 0 0-2.094-.229c0 .596-.005 1.07-.018 1.426-.015.355-.03.663-.044.923-.013.257-.034.5-.06.734a10.2 10.2 0 0 0-.063.87 80.239 80.239 0 0 0-.06 3.416 13.442 13.442 0 0 0 2.483-.743 9.24 9.24 0 0 0 1.926-1.06c.539-.397.953-.822 1.243-1.277.29-.456.435-.915.435-1.378v-.276zm-8.78-6.08a17.37 17.37 0 0 0-1.47.825c-.458.281-.757.576-.89.88.383.064.768.118 1.158.159.385.039.774.076 1.159.117.055-.423.11-.783.166-1.08.055-.295.108-.65.165-1.06a2.37 2.37 0 0 0-.288.16zm2.9-6.655c.052.453.115.835.185 1.153a14.575 14.575 0 0 1 .268 1.721c.028.276.042.607.042.99a13.719 13.719 0 0 1 2.278-.199c1.492 0 2.845.29 4.059.873v-.02c.25.118.375.276.375.473 0 .16-.12.294-.351.407a1.837 1.837 0 0 1-.81.168 2.39 2.39 0 0 1-1.036-.216h.043a6.081 6.081 0 0 0-2.405-.476c-.716 0-1.476.117-2.278.359 0 .461-.012.86-.04 1.196-.028.337-.057.642-.083.921-.026.276-.062.541-.104.791a12.47 12.47 0 0 0-.105.793c1.298.077 2.482.224 3.544.432 1.063.213 1.966.492 2.711.835.745.344 1.328.758 1.74 1.248a2.53 2.53 0 0 1 .624 1.681c0 .634-.224 1.245-.664 1.831-.442.59-1.05 1.13-1.822 1.625-.774.495-1.7.928-2.776 1.3-1.078.37-2.252.65-3.52.848.026.317.055.579.08.784.03.203.065.425.107.662.039.239.109.531.206.88l.393 1.436a.74.74 0 0 0 .084.358.775.775 0 0 1 .082.356c0 .133-.152.233-.457.308a3.447 3.447 0 0 1-.787.108c-.221 0-.44-.038-.661-.118-.221-.079-.346-.212-.375-.397a56.53 56.53 0 0 1-.639-2.585c-.072-.295-.135-.56-.187-.792a13.84 13.84 0 0 0-.208-.744 6.803 6.803 0 0 1-.497.031c-.195.008-.373.01-.541.01-.99 0-1.855-.08-2.587-.247a9.71 9.71 0 0 1-1.928-.625 8.058 8.058 0 0 1-1.468-.841 19.9 19.9 0 0 1-1.181-.919v.02c-.166-.133-.324-.26-.476-.388a28.818 28.818 0 0 0-.435-.346v-.039a1.597 1.597 0 0 1-.373-.247l-.166-.248c0-.12.096-.22.291-.307.193-.086.428-.13.703-.13a2 2 0 0 1 .682.11c.209.072.401.161.581.267.179.105.347.22.497.337a4.1 4.1 0 0 0 .436.298c.414.277.814.538 1.202.782.385.242.82.453 1.304.633.483.177 1.014.323 1.596.434a11.87 11.87 0 0 0 2.07.19 6.38 6.38 0 0 1-.103-.96 78.851 78.851 0 0 1-.063-3.546v-3.334h-.041c-.331-.029-.808-.067-1.43-.12a34.967 34.967 0 0 1-1.841-.207 13.244 13.244 0 0 1-1.597-.317c-.455-.128-.683-.282-.683-.467 0-.329.158-.664.476-1a6.551 6.551 0 0 1 1.221-.98 15.913 15.913 0 0 1 1.638-.9c.593-.284 1.166-.55 1.718-.803h-.043l.996-.473v-1.21c0-.329-.005-.644-.02-.939-.014-.299-.029-.611-.043-.94a60.363 60.363 0 0 0-.062-1.23v-.139c0-.224.144-.392.437-.505.289-.112.613-.167.972-.167.276 0 .526.035.747.107a.943.943 0 0 1 .498.365"/><path fill="#b2901d" d="M697.848 550.026c-2.54-3.285-7.798-6.41-16.522-8.992-21.348-6.125-51.591 1.281-58.551 11.453h-1.494l.029 6.885c.065 2.967 2.226 6.028 7.228 8.958 28.733 16.855 71.156 3.344 71.166-10.843l.009-2.46.002-4.386-1.867-.615"/><path fill="#f2be0b" d="M681.326 536.649c-30.248-8.677-78.426 9.801-52.788 24.837 38.892 22.813 102.893-10.011 52.788-24.837"/><path fill="#b2901d" d="M667.263 553.16c0-.37-.174-.709-.52-1.019-.344-.31-.793-.585-1.344-.822a9.416 9.416 0 0 0-1.885-.565 12.288 12.288 0 0 0-2.094-.229 38.8 38.8 0 0 1-.019 1.426c-.015.355-.028.664-.043.923-.012.257-.034.5-.06.733a11.3 11.3 0 0 0-.063.87c-.011.35-.026.792-.04 1.328-.015.534-.02 1.23-.02 2.089a13.485 13.485 0 0 0 2.484-.743 9.26 9.26 0 0 0 1.925-1.06c.539-.397.952-.822 1.244-1.276.29-.458.435-.916.435-1.379v-.276zm-8.78-6.08c-.527.265-1.018.539-1.472.825-.456.281-.755.577-.888.88a18.8 18.8 0 0 0 1.157.159c.385.038.775.077 1.159.117.056-.422.111-.784.166-1.08.055-.295.109-.651.166-1.06-.14.068-.236.121-.288.159zm2.9-6.654c.052.451.115.834.185 1.151a14.38 14.38 0 0 1 .268 1.722c.027.276.042.607.042.99a13.625 13.625 0 0 1 2.278-.199c1.49 0 2.844.29 4.058.872v-.02c.25.12.376.278.376.474 0 .159-.121.294-.351.406a1.842 1.842 0 0 1-.811.17c-.387 0-.733-.073-1.037-.217h.044a6.075 6.075 0 0 0-2.404-.476c-.716 0-1.476.117-2.278.358 0 .462-.013.86-.04 1.198-.028.336-.057.641-.083.92a12.45 12.45 0 0 1-.104.791c-.043.253-.077.514-.106.794a26.3 26.3 0 0 1 3.544.432c1.062.212 1.966.49 2.712.834.745.344 1.327.758 1.74 1.248.414.487.623 1.048.623 1.681 0 .634-.224 1.245-.664 1.831-.442.589-1.05 1.13-1.822 1.625-.774.495-1.7.929-2.777 1.299-1.077.37-2.25.651-3.52.849.028.317.057.578.083.783.029.204.062.425.105.664.039.238.109.531.207.88.097.35.227.829.392 1.434a.72.72 0 0 0 .085.359.79.79 0 0 1 .08.356c0 .132-.15.232-.455.307a3.456 3.456 0 0 1-.787.11c-.221 0-.44-.04-.661-.12-.221-.078-.346-.21-.375-.396a52.79 52.79 0 0 1-.64-2.585 83.44 83.44 0 0 1-.187-.792 14.626 14.626 0 0 0-.207-.743 8.64 8.64 0 0 1-.497.031c-.195.007-.374.01-.541.01-.99 0-1.857-.082-2.588-.248a9.696 9.696 0 0 1-1.927-.625 8.07 8.07 0 0 1-1.47-.842 19.46 19.46 0 0 1-1.18-.918v.02c-.165-.133-.324-.26-.475-.388-.154-.125-.3-.237-.435-.346v-.039a1.51 1.51 0 0 1-.373-.247l-.166-.248c0-.12.096-.221.291-.307.191-.087.428-.13.701-.13.25 0 .477.036.683.11.21.072.402.162.582.267a4.6 4.6 0 0 1 .495.336c.154.12.299.22.438.3.414.275.812.538 1.202.78.384.243.819.454 1.303.634.484.176 1.015.323 1.596.434.58.112 1.269.177 2.07.19a6.721 6.721 0 0 1-.104-.96c-.013-.351-.028-.81-.042-1.378-.013-.567-.02-1.29-.02-2.168v-3.334h-.04c-.333-.029-.809-.068-1.431-.12a35.118 35.118 0 0 1-1.842-.208 12.85 12.85 0 0 1-1.596-.317c-.454-.126-.682-.281-.682-.465 0-.33.158-.665.476-1.001a6.47 6.47 0 0 1 1.221-.98 15.89 15.89 0 0 1 1.636-.9c.594-.284 1.167-.55 1.72-.803h-.043l.995-.474v-1.208c0-.33-.005-.645-.02-.94l-.043-.94a52.07 52.07 0 0 0-.062-1.229v-.14c0-.224.143-.391.437-.505.289-.113.614-.168.971-.168.277 0 .528.037.748.108a.942.942 0 0 1 .499.366"/><path fill="#b2901d" d="M702.459 540.334c-2.539-3.283-7.796-6.409-16.521-8.992-21.35-6.125-51.592 1.283-58.552 11.454h-1.493l.028 6.885c.065 2.966 2.227 6.028 7.228 8.958 28.734 16.855 71.156 3.343 71.166-10.843l.009-2.461.002-4.385-1.867-.616"/><path fill="#f2be0b" d="M685.938 526.957c-30.248-8.676-78.427 9.803-52.79 24.838 38.895 22.811 102.896-10.011 52.79-24.838"/><path fill="#b2901d" d="M671.874 543.469c0-.37-.174-.709-.519-1.019-.345-.31-.794-.585-1.345-.823a9.428 9.428 0 0 0-1.884-.565 12.313 12.313 0 0 0-2.095-.227 41.6 41.6 0 0 1-.018 1.425c-.014.355-.03.664-.044.924-.011.256-.034.5-.06.732-.026.231-.05.523-.063.87-.011.349-.026.791-.04 1.328-.015.533-.02 1.231-.02 2.088a13.456 13.456 0 0 0 2.484-.742 9.227 9.227 0 0 0 1.925-1.06c.539-.396.953-.823 1.244-1.276.291-.458.435-.917.435-1.379v-.276zm-8.78-6.079a17.41 17.41 0 0 0-1.471.824c-.457.281-.755.577-.89.88.385.065.77.117 1.158.158.385.04.775.077 1.16.118.055-.423.11-.784.165-1.079.055-.296.109-.652.167-1.061-.14.069-.237.121-.29.16zm2.9-6.655c.052.451.115.834.185 1.151.07.315.122.613.165.89.041.276.077.555.104.831.026.277.04.61.04.99a14.11 14.11 0 0 1 2.28-.198c1.49 0 2.843.29 4.058.872v-.019c.25.118.374.277.374.473 0 .159-.12.294-.35.406a1.84 1.84 0 0 1-.81.169 2.37 2.37 0 0 1-1.036-.216h.042a6.07 6.07 0 0 0-2.403-.477c-.717 0-1.477.118-2.28.36 0 .46-.012.86-.038 1.197a88.96 88.96 0 0 1-.084.92c-.026.276-.062.541-.103.791a11.58 11.58 0 0 0-.107.794 26.45 26.45 0 0 1 3.545.432c1.063.211 1.965.49 2.712.834.745.344 1.326.757 1.74 1.247.413.49.622 1.05.622 1.682 0 .635-.224 1.245-.662 1.831-.443.59-1.052 1.13-1.823 1.625-.775.496-1.7.929-2.777 1.299a20.5 20.5 0 0 1-3.52.848c.027.318.056.58.082.784.029.204.063.425.106.664.038.237.108.531.207.88l.39 1.435c0 .132.028.252.086.357a.79.79 0 0 1 .081.357c0 .132-.151.233-.456.307a3.456 3.456 0 0 1-.786.109c-.222 0-.44-.039-.662-.118-.221-.08-.346-.212-.375-.397a47.596 47.596 0 0 1-.391-1.524c-.1-.409-.181-.765-.249-1.06a82.97 82.97 0 0 1-.187-.794 14.626 14.626 0 0 0-.206-.742 8.64 8.64 0 0 1-.498.031c-.195.006-.372.009-.541.009-.99 0-1.856-.081-2.586-.248a9.683 9.683 0 0 1-1.93-.625 8.07 8.07 0 0 1-1.468-.84 19.61 19.61 0 0 1-1.18-.92v.02c-.166-.132-.325-.26-.476-.387-.154-.125-.299-.238-.435-.346v-.039a1.51 1.51 0 0 1-.373-.248l-.166-.247c0-.12.096-.221.291-.308.193-.086.428-.13.702-.13.25 0 .476.037.683.11.209.073.402.163.582.268.177.106.346.219.495.337.153.118.298.218.437.298.414.276.813.539 1.203.781.383.243.82.454 1.302.635.484.175 1.015.323 1.596.433.58.112 1.27.177 2.07.19a6.721 6.721 0 0 1-.103-.96c-.014-.35-.03-.81-.043-1.377a102.11 102.11 0 0 1-.019-2.168v-3.335h-.041c-.332-.029-.809-.068-1.431-.12a35.12 35.12 0 0 1-1.841-.207 13.326 13.326 0 0 1-1.597-.317c-.453-.128-.682-.281-.682-.468 0-.328.159-.662.476-1a6.602 6.602 0 0 1 1.221-.98 15.783 15.783 0 0 1 1.638-.9c.594-.283 1.166-.55 1.719-.802h-.044l.995-.474v-1.209c0-.33-.004-.645-.019-.94-.015-.298-.029-.61-.044-.94-.011-.332-.033-.74-.062-1.228v-.14c0-.223.145-.392.437-.504.289-.114.614-.169.972-.169.276 0 .527.036.747.109.22.074.388.196.499.365"/><path fill="#b2901d" d="M684.406 528.04c-23.211-6.426-61.123 3.901-54.988 17.41 2.88 6.332 16.53 11.634 29.517 12.727 11.463.967 23.01-1.327 31.21-5.096 7.039-3.239 11.568-7.811 11.319-12.516-.285-5.43-7.853-9.741-17.058-12.525-.991-.3-1.898.447-.916.745 12.119 3.666 19.11 9.695 14.781 16.514-3.642 5.731-14.323 10.27-26.301 11.767-15.05 1.881-30.072-2.269-37.855-8.37-8.972-7.036.471-14.907 13.46-18.872 10.675-3.26 24.686-4.148 35.915-1.039 1.015.281 1.924-.466.916-.745"/></svg>