<svg width="1000" height="100" xmlns="http://www.w3.org/2000/svg"><title>background</title><path fill="none" d="M-1-1h1002v102H-1z"/><title>Layer 1</title><path stroke="null" fill="#fff" d="M226.176 0H-.002v57.069c12.067 3.8 27.182 6.064 43.605 6.064 2.52 0 5.009-.054 7.46-.158C61.437 83.611 106.173 99.13 159.79 99.13c45.63 0 84.823-11.242 101.88-27.31 10.708 3.743 24.602 6.01 39.803 6.01 11.397 0 22.055-1.275 31.196-3.488 3.24.26 6.588.4 10.016.4 14.08 0 26.837-2.31 36.134-6.05 14.357 7.634 36.925 12.559 62.323 12.559 36.212 0 66.687-10.008 75.766-23.618 10.425 3.339 23.49 5.33 37.683 5.33 16.344 0 31.193-2.639 42.235-6.94 12.74 7.456 32.978 12.277 55.772 12.277 10.672 0 20.775-1.065 29.818-2.955 17.525 8.656 44 14.17 73.63 14.17 12.312 0 24.068-.963 34.875-2.696 11.273 12.373 40.42 21.189 74.609 21.189 29.117 0 54.571-6.395 68.45-15.935 10.056 2.547 21.908 4.02 34.607 4.02 11.331 0 21.992-1.17 31.302-3.232V0H226.176z"/></svg>