<svg width="100" height="100" xmlns="http://www.w3.org/2000/svg"><title>background</title><path fill="none" d="M-1-1h102v102H-1z"/><title>Layer 1</title><g stroke="null"><path d="M99.75 49.875c0 27.544-22.33 49.875-49.875 49.875S0 77.42 0 49.875C0 22.329 22.33 0 49.875 0s49.874 22.33 49.874 49.875" fill="#f9c041"/><path d="M49.875 89.097c-21.662 0-39.222-17.56-39.222-39.222 0-21.662 17.56-39.222 39.222-39.222 21.662 0 39.222 17.56 39.222 39.222 0 21.661-17.56 39.222-39.222 39.222zm0-82.964c-24.158 0-43.742 19.584-43.742 43.742 0 24.158 19.584 43.74 43.742 43.74 24.157 0 43.741-19.582 43.741-43.74S74.032 6.133 49.875 6.133" fill="#cc8d00"/></g></svg>