<svg width="300" height="300" xmlns="http://www.w3.org/2000/svg"><title>background</title><path fill="none" d="M-1-1h302v302H-1z"/><title>Layer 1</title><path d="M62.289 121.187c0-49.644 40.246-89.89 89.89-89.89 49.643 0 89.89 40.246 89.89 89.89 0 49.643-40.247 89.89-89.89 89.89-49.644 0-89.89-40.247-89.89-89.89" fill="#ddd"/><path d="M207.087 100.5v148.577" fill="#bfd9c3"/><path stroke="null" d="M95.885 245.232l56.294 16.15V71.438l-56.294 29.327v144.466" fill="#007fff"/><path d="M207.087 250.077l-54.908 11.304V71.44l54.908 29.327v149.31" fill="#005fbf"/><path d="M151.313 61.253l-3.836 2.11-53.697 29.33-4.585 2.3v155.229l6.137 1.737 53.496 16.15 2.062.594 2.059-.413 54.53-11.305 6.068-1.328V94.924l-3.868-2.28-54.707-29.327-3.659-2.064zm-.75 9.186l54.909 29.327v149.31l-54.908 11.305-53.294-16.15V99.767l53.294-29.327" fill="#fff"/><path d="M152.825 118.054V97.81c-15.766 8.46-23.651 12.696-39.417 21.156v17.22c15.767-7.25 23.651-10.881 39.417-18.132m0 40.503v-20.252c-15.766 6.042-23.651 9.07-39.418 15.113l.001 17.228c15.766-4.835 23.651-7.256 39.417-12.09m0 40.497v-20.248l-39.418 9.068V205.1c15.767-2.42 23.652-3.629 39.418-6.047" fill="#fff"/><path d="M152.017 118.054V97.81c15.765 8.46 23.651 12.696 39.418 21.156v17.22c-15.769-7.25-23.653-10.881-39.418-18.132m0 40.503v-20.252c15.765 6.042 23.653 9.07 39.42 15.113v17.228c-15.767-4.835-23.655-7.256-39.42-12.09m0 40.497v-20.248l39.418 9.068.001 17.227c-15.766-2.42-23.654-3.629-39.419-6.047" fill="#fff"/><g stroke="null"><path d="M261.415 203.656l-1.179 2.744c-.843 1.758-1.794 4.437-3.666 7.606-.906 1.587-1.823 3.448-3.009 5.321-1.172 1.878-2.53 3.855-3.953 6.006-1.565 2.053-3.23 4.233-4.985 6.534a231.948 231.948 0 0 1-6.116 6.806c-4.537 4.483-9.666 9.244-15.744 13.446-2.94 2.262-6.247 4.136-9.56 6.19-1.656 1.03-3.444 1.862-5.203 2.79-1.773.908-3.548 1.863-5.43 2.62l-5.647 2.424c-1.937.704-3.913 1.36-5.89 2.046-.996.33-1.98.704-2.99.998-1.018.276-2.038.551-3.059.829-2.056.517-4.1 1.14-6.203 1.536-8.37 1.849-17.075 2.604-25.768 2.789l-6.415-.241c-1.048-.06-2.005-.042-3.125-.163l-3.325-.349c-2.195-.268-4.47-.392-6.573-.825l-6.335-1.194c-2.104-.387-4.146-1.025-6.205-1.526-1.02-.278-2.041-.554-3.058-.83-1.013-.289-1.997-.667-2.991-.995-1.977-.688-3.942-1.37-5.893-2.046l-5.648-2.419c-1.883-.757-3.66-1.707-5.43-2.618-1.763-.93-3.554-1.754-5.21-2.786-3.313-2.056-6.619-3.932-9.561-6.187-6.082-4.203-11.213-8.963-15.75-13.446-2.192-2.33-4.22-4.623-6.12-6.803l-4.985-6.535c-1.421-2.156-2.783-4.129-3.955-6.01-1.184-1.87-2.087-3.712-2.991-5.297-1.859-3.146-2.846-5.885-3.68-7.636a3342.28 3342.28 0 0 1-1.178-2.74l1.894 2.312c1.23 1.505 2.922 3.768 5.343 6.42 1.21 1.325 2.438 2.866 3.96 4.386 1.542 1.505 3.115 3.19 4.831 4.946l5.792 5.254c2.156 1.712 4.328 3.588 6.694 5.415 1.208.878 2.441 1.775 3.698 2.687.623.457 1.253.917 1.89 1.382.644.456 1.332.86 2.004 1.296l4.095 2.646c1.38.9 2.886 1.651 4.347 2.5 2.9 1.741 6.057 3.203 9.223 4.768 1.583.783 3.276 1.384 4.915 2.12 1.657.703 3.312 1.447 5.061 1.998 6.825 2.653 14.186 4.399 21.658 5.917 1.886.292 3.78.586 5.678.883.958.18 1.887.241 2.815.325l2.79.275 2.795.282c.92.104 2.023.08 3.026.126l5.916.178c3.87-.175 7.763-.068 11.595-.575l2.881-.278c.961-.073 1.92-.153 2.867-.33l5.68-.883c7.475-1.506 14.828-3.275 21.66-5.917 1.75-.55 3.402-1.298 5.059-2.002 1.64-.737 3.338-1.328 4.917-2.12 3.167-1.564 6.32-3.034 9.223-4.77 5.966-3.228 11.21-6.981 16.034-10.521 2.362-1.828 4.533-3.708 6.69-5.418l5.787-5.26c1.713-1.76 3.29-3.443 4.83-4.95 1.518-1.521 2.731-3.041 3.937-4.367 2.407-2.632 4.133-4.955 5.356-6.452 1.232-1.506 1.889-2.312 1.889-2.312" fill="#fff"/><path d="M261.415 206.345l-1.298 2.673c-.906 1.714-1.985 4.335-3.947 7.414-.956 1.544-1.922 3.348-3.162 5.16-1.234 1.817-2.63 3.745-4.1 5.832l-5.12 6.32a241.92 241.92 0 0 1-6.23 6.557c-4.58 4.327-9.705 8.95-15.79 12.952-2.943 2.156-6.205 3.993-9.493 5.97-1.639.997-3.407 1.793-5.153 2.68-1.756.867-3.514 1.78-5.376 2.497-1.845.764-3.703 1.536-5.577 2.31-1.909.685-3.851 1.319-5.797 1.986-.98.318-1.948.683-2.943.967l-3.008.798c-2.022.492-4.035 1.088-6.102 1.46-8.236 1.715-16.768 2.485-25.308 2.687l-6.33-.231c-1.04-.057-2.022-.037-3.11-.155l-3.235-.338c-2.14-.26-4.341-.374-6.412-.788l-6.225-1.141c-2.07-.37-4.077-.989-6.1-1.472l-3.009-.8c-.996-.279-1.965-.645-2.942-.962a5371.52 5371.52 0 0 0-5.8-1.983c-1.873-.775-3.732-1.547-5.576-2.312-1.864-.716-3.624-1.625-5.38-2.496-1.744-.886-3.518-1.674-5.156-2.674-3.288-1.977-6.552-3.811-9.494-5.967-6.087-4.004-11.22-8.62-15.798-12.95-2.223-2.24-4.289-4.451-6.232-6.552-1.802-2.227-3.512-4.34-5.12-6.323-1.469-2.088-2.867-4.015-4.1-5.833-1.24-1.812-2.198-3.601-3.154-5.145-1.952-3.064-3.057-5.722-3.958-7.432l-1.295-2.67 1.775 2.384c1.163 1.547 2.737 3.889 5.066 6.623 1.158 1.37 2.332 2.958 3.797 4.538 1.48 1.566 3.02 3.3 4.686 5.124l5.657 5.467c2.113 1.79 4.251 3.748 6.58 5.665l3.674 2.802 1.883 1.439c.643.473 1.33.896 2.002 1.353 1.357.89 2.704 1.835 4.085 2.775 1.377.944 2.882 1.742 4.344 2.637 2.902 1.84 6.1 3.346 9.292 4.987.79.431 1.631.765 2.466 1.124.829.366 1.662.738 2.499 1.108 1.673.744 3.346 1.529 5.114 2.122 6.906 2.824 14.42 4.597 22.027 6.203 1.923.311 3.853.621 5.79.936 1.939.34 3.84.403 5.763.637l2.884.294c.953.106 2.032.084 3.043.132l5.998.189c7.91-.087 15.826-.685 23.484-2.169 7.602-1.634 15.118-3.398 22.022-6.227 1.77-.593 3.441-1.383 5.114-2.125 1.656-.779 3.37-1.404 4.966-2.23 3.195-1.64 6.39-3.15 9.291-4.99 1.462-.899 2.967-1.697 4.344-2.643a9329.38 9329.38 0 0 0 4.086-2.774c1.376-.868 2.649-1.829 3.884-2.793 1.249-.952 2.473-1.888 3.673-2.805 2.327-1.918 4.463-3.88 6.577-5.668 1.99-1.929 3.88-3.757 5.653-5.473 1.665-1.825 3.205-3.558 4.685-5.126 1.461-1.58 2.626-3.157 3.782-4.525 2.316-2.722 3.914-5.104 5.072-6.646l1.772-2.384" fill="#eee"/></g></svg>