<svg width="300" height="300" xmlns="http://www.w3.org/2000/svg"><title>background</title><path fill="none" d="M-1-1h602v602H-1z"/><title>Layer 1</title><path d="M73.027 138.71h15.976v-37.76H73.027v37.76z" fill="#ddd"/><path d="M46.028 166.304l80.908-90.951 78.28 90.95H46.027" fill="#5fbf00"/><path d="M126.98 70.524l-5.515 6.2-72.774 81.829-10.754 12.108H213.13l-10.328-12.02-70.41-81.817-5.414-6.3zm-.09 11.068l70.409 81.807H54.117l72.772-81.807" fill="#fff"/><path d="M94.612 186.636l80.908-90.951 78.28 90.951H94.612" fill="#00bf00"/><path d="M175.567 90.22l-5.516 6.201-72.776 82.145-10.753 12.427h175.193l-10.326-12.337-70.41-81.976-5.412-6.46zm-.092 11.706l70.408 81.805H102.701l72.774-81.805" fill="#fff"/><path d="M46.028 208.42l80.908-90.95 78.28 90.95H46.027" fill="#00bf5f"/><path d="M126.98 111.23l-5.515 6.2-72.774 81.808-10.754 12.087H213.13l-10.328-11.999-70.41-81.807-5.414-6.29zm-.09 11.026l70.409 81.808H54.117l72.772-81.808" fill="#fff"/><path d="M24.375 225.122l2.822-.25c1.84-.137 4.538-.39 7.974-.612 3.435-.234 7.606-.546 12.39-.798 4.786-.277 10.184-.594 16.071-.83 5.89-.27 12.27-.565 19.017-.75 6.747-.212 13.862-.482 21.223-.587 7.361-.113 14.967-.358 22.696-.376l23.432-.15c7.851.021 15.704.028 23.433.127 7.728.04 15.334.269 22.695.39 7.36.107 14.476.364 21.223.585 6.747.187 13.127.473 19.017.749 5.887.24 11.285.552 16.07.835 4.785.253 8.956.564 12.39.8 3.437.224 6.135.477 7.975.616l2.822.251-2.822.252c-1.84.139-4.538.392-7.974.615-3.435.237-7.606.548-12.39.8-4.786.284-10.184.596-16.071.836-5.89.276-12.27.562-19.017.749-6.747.22-13.862.478-21.223.585-7.361.12-14.967.349-22.695.39-7.73.098-15.582.106-23.433.127l-23.432-.15c-7.729-.018-15.335-.264-22.696-.377-7.36-.104-14.476-.375-21.223-.587-6.747-.184-13.127-.479-19.017-.749-5.887-.237-11.285-.553-16.07-.83-4.785-.252-8.956-.564-12.39-.798-3.437-.222-6.135-.475-7.975-.613l-2.822-.25" fill="#eee"/></svg>