<svg width="1000" height="1000" xmlns="http://www.w3.org/2000/svg"><title>background</title><path fill="none" d="M-1-1h582v402H-1z"/><title>Layer 1</title><path fill="#fbd8b6" d="M714.774 244.354c-4.2-4.199-34.775 24.518-37.658 27.423-2.252 2.264-65.152 59.004-126.613 101.807l12.115 15.642c69.242-46.685 130.058-96.567 132.805-98.786 3.433-2.776 6.797-5.341 5.98-8.385-.55-2.05-2.577-2.304-4.048-1.355 1.438-1.689 3.194-3.124 1.374-5.551-.815-1.087-2.79-1.079-3.936-.194 2.157-2.19 3.447-4.58 2.553-6.23-.96-1.771-3.805-2.368-5.281-1.429 1.673-1.976 25.63-20.025 22.709-22.942"/><path fill="#f8f8f8" d="M550.503 373.584l12.115 15.642a1535.149 1535.149 0 0 0 21.876-15.039l-11.691-16.662a922.964 922.964 0 0 1-22.3 16.059"/><path fill="#77a789" d="M550.864 373.332a889.55 889.55 0 0 0 16.035-11.46h.001a893.997 893.997 0 0 1-16.036 11.46"/><path fill="#dfe0df" d="M564.923 387.667c.178-5.44.46-10.672.72-15.588l-14.78 1.253a893.997 893.997 0 0 0 16.037-11.46l4.885 21.11a1683.7 1683.7 0 0 1-6.862 4.685"/><path fill="#f8f8f8" d="M364.056 717.794l44.049 54.18c3.805 4.678 9.525 7.433 15.555 7.353 63.74-.85 131.793-24.802 189.895-72.04 72.386-58.85 112.59-140.202 115.219-216.973a28.36 28.36 0 0 0-23.535-28.949c-75.693-13.096-163.538 9.656-235.925 68.507-58.1 47.237-95.439 108.968-109.281 171.193-1.31 5.886.22 12.047 4.023 16.729"/><path fill="#af412c" d="M437.948 780.319c21.826 26.846 20.185 65.103-2.34 89.983-3.142 3.473-3.394 8.672-.44 12.304l.877 1.08c2.794 3.436 7.629 4.474 11.554 2.423a185.823 185.823 0 0 0 31.124-20.488c36.99-30.072 59.367-71.445 66.245-115.101-35.494 16.664-72.405 26.1-108.292 28.314.425.492.858.976 1.272 1.485m-75.983-93.402c-21.826-26.846-59.614-33.048-88.567-16.076-4.04 2.368-9.182 1.553-12.135-2.08l-.88-1.08c-2.793-3.436-2.82-8.381-.012-11.804a185.818 185.818 0 0 1 26.409-26.287c36.991-30.074 82.059-43.535 126.2-41.356-23.557 31.343-40.329 65.552-49.82 100.232-.397-.517-.781-1.04-1.195-1.549m343.45-225.518c-33.124-5.752-68.581-4.622-104.055 3.381l102.869 126.529c15.072-33.095 23.416-67.575 24.549-101.175.472-14.053-9.51-26.332-23.363-28.735"/><path fill="#9c3b29" d="M619.918 476.935a3.7 3.7 0 0 1-.394-.02 3.939 3.939 0 0 1-2.614-1.418 3.925 3.925 0 0 1-.845-2.836 3.914 3.914 0 0 1 1.409-2.626 3.9 3.9 0 0 1 2.859-.843c2.03.21 3.666 2.223 3.457 4.254a3.889 3.889 0 0 1-1.417 2.614 3.893 3.893 0 0 1-2.455.875m13.488 16.576a3.884 3.884 0 1 1 3.01-6.331 3.882 3.882 0 0 1-3.01 6.331m40.443 49.744a3.883 3.883 0 1 1 3.009-6.332 3.885 3.885 0 0 1-3.01 6.332m-13.48-16.581a3.878 3.878 0 0 1-3.015-1.433 3.885 3.885 0 0 1 3.01-6.332 3.88 3.88 0 0 1 3.015 1.432 3.886 3.886 0 0 1-.563 5.463c-.72.585-1.586.87-2.447.87m-13.48-16.582a3.882 3.882 0 1 1 2.446-.869 3.864 3.864 0 0 1-2.446.87"/><path fill="#dfe0df" d="M670.898 554.674l-72.54-89.225c1-.237 2-.443 3.002-.669l71.344 87.752c-.601.717-1.198 1.424-1.806 2.142"/><path fill="#77a789" d="M361.811 686.73l-.026-.033.026.033m-.058-.071a69.669 69.669 0 0 0-6.508-6.899l.004-.011a69.766 69.766 0 0 1 6.504 6.91m51.218-98.425a204.588 204.588 0 0 0 .002-.002l-.002.002"/><path fill="#dfe0df" d="M412.98 588.234h-.009l.002-.002h.007"/><path fill="#9c3b29" d="M363.16 688.466c-.397-.517-.781-1.04-1.195-1.549a4.522 4.522 0 0 1-.086-.105l-.068-.082-.026-.033-.032-.038a69.766 69.766 0 0 0-6.504-6.91c10.405-31.74 26.549-62.874 48.099-91.733h.488c2.539 0 5.075.046 7.609.148.51.021 1.018.045 1.526.07h.009c-22.131 29.446-38.274 61.42-48.016 93.938a269.359 269.359 0 0 0-1.804 6.294"/><path fill="#77a789" d="M443.611 788.404a69.559 69.559 0 0 0-5.416-7.779 69.652 69.652 0 0 1 5.428 7.777c-.004 0-.008 0-.012.002m-5.471-7.849l-.002-.001.002.001m-.125-.154a.027.027 0 0 1-.005-.006l.005.006m106.901-29.559l.008-.045-.008.045m.018-.108l.034-.214-.034.214"/><path fill="#9c3b29" d="M443.623 788.402a69.652 69.652 0 0 0-5.428-7.777l-.055-.07-.002-.001-.06-.075a.01.01 0 0 0-.005-.005l-.058-.073-.005-.006-.062-.076c-.413-.508-.845-.992-1.27-1.483 3.268-.202 6.54-.465 9.823-.787 32.77-3.208 66.205-12.383 98.467-27.529l-.034.214c-.004.021-.008.042-.01.063l-.008.045a186.566 186.566 0 0 1-1.718 9.22c-32.637 15.194-66.394 24.635-99.575 28.34"/><path fill="#af412c" d="M375.746 826.525c-47.93 38.967-143.152 43.145-143.152 43.145s23.526-92.363 71.457-131.331c24.353-19.799 52.915-10.232 72.713 14.121 19.799 24.351 23.335 54.265-1.018 74.065"/><path fill="#ee9f22" d="M372.299 814.9c-19.558 15.901-60.189 22.605-76.088 3.049-15.9-19.555-1.042-57.965 18.514-73.864 19.556-15.9 41.069-7.059 56.968 12.496 15.9 19.556 20.16 42.421.606 58.319"/><path fill="#f8f8f8" d="M370.485 792.367c-11.572 9.408-35.926 13.627-45.335 2.054-9.409-11.572-.309-34.552 11.264-43.962 11.572-9.407 21.355-1.779 30.762 9.793 9.409 11.574 14.88 22.707 3.309 32.115"/><path fill="#af412c" d="M360.033 701.065c-1.31 5.886.22 12.047 4.023 16.729l44.049 54.18c3.805 4.678 9.525 7.433 15.555 7.353a271.15 271.15 0 0 0 13.011-.5l-73.505-90.353a265.566 265.566 0 0 0-3.133 12.591"/><path fill="#dfe0df" d="M369.829 696.664l-.629-.774.629.774"/><path fill="#9c3b29" d="M359.63 706.325a19.45 19.45 0 0 1 .026-2.671l9.544-7.764.629.774.667.82-10.866 8.841m3.78 10.576a20.029 20.029 0 0 1-1.127-1.732l13.6-11.065 1.296 1.595L363.41 716.9m6.633 8.255l-1.298-1.595 13.819-11.241 1.297 1.593-13.818 11.243m6.678 8.216l-.022-.027-1.274-1.568 13.821-11.244 1.298 1.594-13.823 11.245m6.68 8.216l-.852-1.048-.444-.547 13.824-11.246 1.297 1.595-13.825 11.246"/><path fill="#dfe0df" d="M403.876 738.515l-1.265-1.555 1.265 1.555"/><path fill="#9c3b29" d="M390.081 749.804l-1.296-1.595 13.826-11.249 1.265 1.555.033.04-13.828 11.249m8.129 6.923c-.985 0-1.829-.167-2.504-.5l13.588-11.052 1.297 1.594-12.24 9.957-.141.001"/><path fill="#81b290" d="M423.403 779.329c-5.935 0-11.548-2.743-15.298-7.355l-13.502-16.608 1.796 2.209.362.445 11.344 13.954c3.75 4.612 9.363 7.355 15.298 7.355.085 0 .17 0 .257-.002-.086.002-.172.002-.257.002"/><path fill="#ededed" d="M423.66 779.327a271.15 271.15 0 0 0 13.011-.5l-6.035-7.418-1.296-1.594-6.421-7.893-.261-.32-6.228-7.656-.454-.559-1.841-2.26c46.408-20.318 101.038-54.182 155.205-98.222 39.861-32.408 74.396-66.195 101.558-98.231l32.062 39.436c.436-.931.844-1.869 1.269-2.801l-31.525-38.777 31.525 38.777c15.072-33.095 23.416-67.575 24.549-101.175l.01-.328c-.003.169-.008.338-.014.506-2.629 76.773-42.833 158.124-115.22 216.975-51.208 41.633-110.15 65.18-167.053 70.762-3.282.321-6.556.582-9.825.785.002 0 .002.001.003.002-4.358.27-8.698.434-13.019.491"/><path fill="#a73f2b" d="M704.229 591.309l-31.525-38.777c21.292-25.36 37.92-49.58 48.856-71.093 2.311-4.547 2.499-8.012.88-10.009a28.319 28.319 0 0 1 6.348 18.376l-.01.328c-1.133 33.6-9.477 68.08-24.55 101.175m-3.388-22.658c-.896 0-1.782.304-2.482.871a3.966 3.966 0 0 0-1.418 2.614 3.96 3.96 0 0 0 .855 2.849 3.96 3.96 0 0 0 2.613 1.417 3.948 3.948 0 0 0 2.849-.854 3.963 3.963 0 0 0 1.417-2.614c.21-2.032-1.435-4.055-3.468-4.265a3.99 3.99 0 0 0-.366-.018m-13.515-16.579"/><path fill="#963827" d="M687.33 559.837a3.882 3.882 0 1 1 2.446-.87c-.72.585-1.586.87-2.446.87m13.444 16.583a3.99 3.99 0 0 1-.366-.018 3.96 3.96 0 0 1-2.613-1.417 3.96 3.96 0 0 1-.855-2.849 3.966 3.966 0 0 1 1.418-2.614 3.955 3.955 0 0 1 2.848-.853c2.033.21 3.678 2.233 3.468 4.265a3.963 3.963 0 0 1-1.418 2.615c-.7.568-1.586.871-2.482.871"/><path fill="#d6d6d6" d="M702.96 594.11l-32.062-39.436c.608-.718 1.205-1.425 1.806-2.142l31.525 38.777c-.425.932-.833 1.87-1.269 2.801"/><path fill="#963827" d="M436.679 778.836c-.001-.001-.001-.002-.003-.002a277.767 277.767 0 0 0 .003.002"/><path fill="#a73f2b" d="M423.403 779.329c-5.935 0-11.548-2.743-15.298-7.355l-11.344-13.954 1.59-1.294c1.607-.025 3.579-.485 5.807-1.389a401.205 401.205 0 0 0 9.977-4.21l1.84 2.26-13.831 11.253 1.297 1.595 13.832-11.251-.843-1.038 6.228 7.655-13.784 11.215c.466.513.955.998 1.467 1.455l13.614-11.074-1.036-1.275 6.42 7.893-10.87 8.844c.86.226 1.734.407 2.624.515l9.543-7.765 6.035 7.418a271.15 271.15 0 0 1-13.011.5c-.086.002-.172.002-.257.002m-27.004-21.754l-1.795-2.209v-.001a3.26 3.26 0 0 0 1.102.862l-.241.198.934 1.15"/><path fill="#72a183" d="M396.761 758.02l-.362-.445.362.445"/><path fill="#963827" d="M396.761 758.02l-.362-.445-.934-1.15.241-.198c.675.333 1.519.5 2.504.5h.141l-1.59 1.293"/><path fill="#d6d6d6" d="M416.43 753.946l-.455-.559h.001l.454.56"/><path fill="#963827" d="M403.441 766.235l-1.297-1.595 13.832-11.253.454.56.843 1.037-13.832 11.251"/><path fill="#d6d6d6" d="M422.919 761.922l-.261-.32.26.32"/><path fill="#963827" d="M410.341 774.271a19.89 19.89 0 0 1-1.467-1.455l13.784-11.215.26.321 1.037 1.275-13.614 11.074"/><path fill="#d6d6d6" d="M430.636 771.409l-1.297-1.594h.001l1.296 1.594"/><path fill="#963827" d="M421.093 779.174a19.508 19.508 0 0 1-2.624-.515l10.871-8.844 1.296 1.594-9.543 7.765"/><path fill="#dfe0df" d="M465.446 638.617c-2.697 0-6.122-2.22-9.731-5.53.035-.148.069-.298.103-.45 6.717-30.283-20.713-31.088-20.713-31.088l35.12-32.113-9.616-32.244a357.032 357.032 0 0 1 3.347-2.873l13.61 31.247-30.99 36.115s.534-.049 1.447-.049c5.605 0 25.458 1.858 22.865 28.41-.6 6.15-2.623 8.575-5.442 8.575"/><path fill="#f8f8f8" d="M390.966 386.891l174.678-14.812c-1.246 23.495-2.963 54.2 8.189 80.455-22.045 26.493-107.03 78.853-138.978 80.538-21.82-37.008-38.009-92.012-43.889-146.18"/><path fill="#4c3625" d="M573.833 452.534l-138.978 80.538 17.444 31.595L421.38 602.7s28.083 58.584 34.437 29.937c6.717-30.283-20.713-31.088-20.713-31.088l35.12-32.113-10.261-34.404s50.335-34.893 103.127-61.94l1.87 2.335a307.815 307.815 0 0 1 18.672-6.083l-9.8-16.81"/><path fill="#fbd8b6" d="M565.644 372.079s11.639-177.289-127.115-135.147c0 0-44.303 52.35-47.563 149.96 117.025 30.363 174.678-14.813 174.678-14.813"/><path fill="#4c3625" d="M552.77 153.621c12.971 49.568 20.205 120.035-125.059 127.54l-1.751 37.674s-16.424-12.514-18.955 5.309c-2.535 17.835 17.823 9.082 17.823 9.082s-16.098 33.248-33.862 53.665c-1.063 1.223-77.221-154.819 1.805-162.711 0 0 3.372-39.355 58.522-46.02 50.346-6.084 76.037 40.016 101.477-24.539"/><path fill="#ec6180" d="M484.618 347.441s21.95-5.954 51.25-8.49c0 0 3.562 27.748-21.12 31.836-27.198 4.505-30.13-23.346-30.13-23.346"/><path fill="#4c3625" d="M474.241 313.842c1.752 7.17.495 13.637-2.806 14.444-3.302.806-7.399-4.352-9.151-11.522-1.751-7.17-.495-13.637 2.807-14.444 3.302-.806 7.399 4.352 9.15 11.522m70.038-17.111c1.751 7.17.494 13.636-2.808 14.443-3.302.807-7.398-4.352-9.151-11.522-1.751-7.17-.495-13.636 2.806-14.443 3.303-.807 7.4 4.352 9.153 11.522"/><path fill="#dfe0df" d="M545.653 522.811c-1.655 0-3.507-.179-5.292-.362-3.307-.132-18.17-3.64-39.185-14.142a1059.23 1059.23 0 0 1 27.583-16.476c9.761 4.376 15.676 6.199 16.539 6.324 3.708.532 11.106 2.186 10.168 5.622-.431 1.578-1.487 2.227-3.433 2.227-.207 0-.424-.008-.652-.023 1.497.573 3.055 1.348 2.953 3.006-.084 1.44-2.591 2.592-4.276 2.593-.043 0-.084-.001-.125-.003l-.043-.007.043.007c1.43.237 3.027 1.8 2.945 3.155-.083 1.59-1.975 2.203-3.63 2.203-.2 0-.395-.009-.584-.025 1.5.565 2.572 1.431 2.48 3.077-.129 2.233-2.486 2.824-5.491 2.824m3.855-11.28l-.014.001h.014m.013 0h.025-.025m-60.601-9.791c-26.137-14.944-58.87-39.689-90.392-79.477l13.18-14.757c41.993 41.787 79.978 65.69 104.635 78.343l-27.423 15.891"/><path fill="#453122" d="M501.176 508.307a248.212 248.212 0 0 1-12.256-6.566l27.423-15.891a260.787 260.787 0 0 0 12.416 5.981 1059.23 1059.23 0 0 0-27.583 16.476"/><path fill="#fbd8b6" d="M411.593 407.404c71.65 70.188 131.397 89.203 134.296 89.598 3.712.504 11.121 2.1 10.212 5.542-.463 1.751-1.702 2.368-4.067 2.237 1.5.561 3.064 1.324 2.975 2.983-.075 1.477-2.698 2.671-4.381 2.625-.148-.023-.298-.047-.44-.043.142-.004.292.02.44.043 1.432.225 3.04 1.776 2.968 3.132-.077 1.779-2.437 2.355-4.197 2.209 1.507.554 2.586 1.411 2.505 3.057-.17 3.465-6.763 1.883-10.685.907-3.136-.783-65.755-20.338-142.691-97.432l13.065-14.858"/><path fill="#f8f8f8" d="M411.593 407.404l-13.065 14.86a564.245 564.245 0 0 0 16.626 15.975l12.489-15.783a517.835 517.835 0 0 1-16.05-15.052"/><path fill="#ededed" d="M502.78 467.64l-17.315-12.809 13.343-15.339c.278.003.562.004.837.004 47.69.003 45.995-30.077 45.995-30.077l-7.506-6.148 1.444-5.814 12.53-5.043 4.993 5.242-2.605 8.505s5.855 48.439-51.716 61.479"/><path fill="#4c3625" d="M552.108 392.414l4.993 5.242-2.605 8.505s5.498 44.044-52.075 57.084l-17.313-12.808L498.45 435.1c48.541.353 47.19-25.68 47.19-25.68l-7.506-6.148 1.444-5.815 12.53-5.042"/><path fill="#ddd" d="M295.713 454.151c-.54 0-.98-.44-.98-.981v-5.951c0-.542.44-.982.98-.982s.98.44.98.982v5.951c0 .541-.44.981-.98.981m-5.232 1.776a.97.97 0 0 1-.693-.287l-4.21-4.208a.975.975 0 0 1-.287-.693c0-.262.103-.508.288-.693a.971.971 0 0 1 .692-.287c.263 0 .509.101.695.287l4.208 4.208a.975.975 0 0 1 0 1.387.973.973 0 0 1-.693.286m-8.395 4.958a.981.981 0 0 1 0-1.961h5.953a.982.982 0 0 1 0 1.961h-5.953m3.52 9.44a.969.969 0 0 1-.692-.288.974.974 0 0 1-.288-.692c0-.263.103-.509.288-.694l4.209-4.209a.98.98 0 0 1 1.674.694.976.976 0 0 1-.287.694l-4.21 4.207a.97.97 0 0 1-.694.288m9.165 4.186c-.54 0-.98-.44-.98-.981v-5.951a.982.982 0 0 1 1.962 0v5.951c0 .541-.44.981-.982.981m9.442-3.52a.98.98 0 0 1-.694-.287l-4.208-4.209a.975.975 0 0 1-.287-.694c0-.261.102-.507.287-.692a.972.972 0 0 1 .694-.288c.261 0 .508.101.694.288l4.207 4.208a.974.974 0 0 1 .288.693.98.98 0 0 1-.981.981m-1.767-9.165a.982.982 0 0 1 0-1.962l5.953.001c.541 0 .981.44.981.98a.984.984 0 0 1-.981.981h-5.953m-1.776-5.232a.975.975 0 0 1-.694-.288.98.98 0 0 1 0-1.388l4.209-4.207a.974.974 0 0 1 .694-.286c.261 0 .507.101.692.286a.982.982 0 0 1 0 1.388l-4.208 4.207a.974.974 0 0 1-.693.288m488.51-152.102c-.72 0-1.306-.585-1.306-1.306v-18.709a1.307 1.307 0 0 1 2.612 0v18.71c0 .72-.586 1.305-1.306 1.305"/><path fill="#ddd" d="M779.825 295.139a1.307 1.307 0 0 1 0-2.612h18.71a1.307 1.307 0 0 1 0 2.612h-18.71m-527.522 20.873c-.61 0-1.105-.495-1.105-1.105V299.08a1.106 1.106 0 0 1 2.21 0v15.828c0 .61-.497 1.105-1.105 1.105"/><path fill="#ddd" d="M244.39 308.099a1.107 1.107 0 0 1 0-2.211h15.828a1.106 1.106 0 0 1 0 2.21H244.39m646.324 111.401a1.596 1.596 0 0 1-1.594-1.594v-22.836c0-.879.715-1.595 1.594-1.595.879 0 1.595.716 1.595 1.595v22.836c0 .879-.716 1.594-1.595 1.594"/><path fill="#ddd" d="M879.296 408.081a1.596 1.596 0 0 1 0-3.189h22.835a1.595 1.595 0 0 1 0 3.19h-22.835M347.389 104.1a3.495 3.495 0 0 0-3.491 3.491 3.494 3.494 0 0 0 3.49 3.49 3.493 3.493 0 0 0 3.49-3.49 3.494 3.494 0 0 0-3.49-3.491zm0 9.089a5.603 5.603 0 0 1-5.598-5.598 5.603 5.603 0 0 1 5.598-5.597 5.604 5.604 0 0 1 5.597 5.597 5.604 5.604 0 0 1-5.597 5.598m401.712 302.326a3.223 3.223 0 0 0-3.322 3.112 3.222 3.222 0 0 0 3.112 3.324 3.221 3.221 0 0 0 3.323-3.114 3.222 3.222 0 0 0-3.113-3.322zm-.273 8.379a5.169 5.169 0 0 1-4.992-5.329 5.168 5.168 0 0 1 5.329-4.991 5.168 5.168 0 0 1 4.991 5.327 5.168 5.168 0 0 1-5.328 4.993M129.076 201.781a4.667 4.667 0 0 0-4.662 4.661 4.667 4.667 0 0 0 4.662 4.663 4.667 4.667 0 0 0 4.663-4.663 4.667 4.667 0 0 0-4.663-4.66zm0 12.139c-4.122 0-7.476-3.355-7.476-7.478 0-4.12 3.354-7.476 7.476-7.476 4.123 0 7.477 3.355 7.477 7.476 0 4.123-3.354 7.478-7.477 7.478m707.665-49.681a2.21 2.21 0 0 1-2.217-2.198c0-1.222.99-2.216 2.207-2.216 1.217 0 2.207.989 2.207 2.206a2.204 2.204 0 0 1-2.197 2.208zm8.839 3.63a2.22 2.22 0 0 1-1.552-.63c-.855-.87-.863-2.282-.007-3.137a2.19 2.19 0 0 1 1.562-.646c.587 0 1.142.229 1.558.646a2.22 2.22 0 0 1 .014 3.117c-.436.421-.985.65-1.575.65zm-17.679.055a2.2 2.2 0 0 1-1.56-.648 2.212 2.212 0 0 1 0-3.12 2.16 2.16 0 0 1 1.557-.65c.59 0 1.145.23 1.563.65a2.196 2.196 0 0 1 0 3.12 2.197 2.197 0 0 1-1.56.648zm21.377 8.828a2.216 2.216 0 0 1-2.208-2.218c0-1.242.985-2.252 2.195-2.252s2.206.983 2.219 2.19c0 1.277-.969 2.28-2.206 2.28zm-25.007.022a2.214 2.214 0 0 1-2.217-2.208 2.21 2.21 0 0 1 2.206-2.207c1.218 0 2.208.985 2.208 2.196 0 1.224-.985 2.219-2.197 2.219zm21.342 8.807c-.59 0-1.142-.23-1.56-.649a2.22 2.22 0 0 1-.003-3.116 2.23 2.23 0 0 1 1.568-.645c.59 0 1.142.229 1.555.643.42.421.653.98.65 1.572a2.17 2.17 0 0 1-.653 1.55 2.133 2.133 0 0 1-1.557.645zm-17.678.02c-.446 0-.875-.134-1.239-.386l-.141-.099h-.014l-.172-.167c-.848-.848-.849-2.245.004-3.112a2.202 2.202 0 0 1 3.125 0c.863.85.865 2.243.01 3.113a2.232 2.232 0 0 1-1.573.651zm8.85 3.654a2.212 2.212 0 0 1-2.207-2.208c0-1.216.988-2.206 2.205-2.206s2.208.991 2.208 2.208a2.21 2.21 0 0 1-2.206 2.206M110.945 413.01c-1.296 0-2.35-1.045-2.35-2.329a2.348 2.348 0 0 1 2.34-2.351c1.29 0 2.34 1.05 2.34 2.34a2.337 2.337 0 0 1-2.33 2.34zm9.371 3.847a2.357 2.357 0 0 1-1.647-.667c-.904-.921-.912-2.419-.006-3.325a2.33 2.33 0 0 1 1.656-.685c.624 0 1.21.244 1.652.685.907.907.914 2.39.015 3.304a2.37 2.37 0 0 1-1.67.688zm-18.74.06c-.623 0-1.21-.243-1.654-.686a2.345 2.345 0 0 1 0-3.309 2.293 2.293 0 0 1 1.65-.688 2.33 2.33 0 0 1 1.658.69 2.29 2.29 0 0 1 .688 1.638 2.331 2.331 0 0 1-.69 1.67 2.313 2.313 0 0 1-1.652.684zm22.66 9.36a2.35 2.35 0 0 1-2.339-2.353c0-1.317 1.043-2.387 2.328-2.387a2.36 2.36 0 0 1 2.351 2.322c0 1.352-1.028 2.417-2.34 2.417zm-26.508.022a2.348 2.348 0 0 1-2.352-2.34c0-1.29 1.05-2.339 2.34-2.339 1.29 0 2.34 1.044 2.34 2.327 0 1.297-1.045 2.352-2.328 2.352zm22.624 9.336a2.32 2.32 0 0 1-1.653-.686 2.354 2.354 0 0 1-.003-3.305 2.367 2.367 0 0 1 1.66-.684c.625 0 1.21.242 1.65.68a2.328 2.328 0 0 1-.003 3.311 2.259 2.259 0 0 1-1.651.684zm-18.742.022c-.471 0-.925-.14-1.311-.41l-.15-.103h-.015l-.183-.179c-.899-.896-.9-2.379.003-3.296a2.33 2.33 0 0 1 1.66-.694c.627 0 1.214.246 1.653.692.916.9.919 2.378.013 3.302a2.38 2.38 0 0 1-1.67.688zm9.384 3.874c-1.29 0-2.34-1.05-2.34-2.34 0-1.291 1.05-2.34 2.34-2.34a2.342 2.342 0 0 1 2.339 2.34c0 1.29-1.05 2.34-2.34 2.34M620.691 98.187a1.39 1.39 0 0 1-1.388-1.388v-7.894a1.39 1.39 0 0 1 2.777 0v7.894a1.39 1.39 0 0 1-1.389 1.388m-6.938 2.358a1.38 1.38 0 0 1-.98-.406l-5.583-5.583a1.375 1.375 0 0 1-.407-.981c0-.37.143-.72.407-.983.261-.262.609-.406.981-.406.37 0 .72.145.982.408l5.58 5.58a1.392 1.392 0 0 1 0 1.965 1.38 1.38 0 0 1-.98.406m-11.133 6.574a1.39 1.39 0 1 1 0-2.778h7.893a1.39 1.39 0 0 1 0 2.778h-7.893m4.669 12.521a1.38 1.38 0 0 1-.981-.408 1.377 1.377 0 0 1-.407-.982c0-.37.144-.719.407-.983l5.582-5.58a1.37 1.37 0 0 1 .981-.407c.372 0 .719.145.983.407.54.54.54 1.422 0 1.963l-5.584 5.582c-.261.263-.61.408-.981.408m12.156 5.55a1.39 1.39 0 0 1-1.389-1.389v-7.892a1.39 1.39 0 0 1 2.778 0v7.892a1.39 1.39 0 0 1-1.389 1.389m12.52-4.67c-.371 0-.72-.144-.981-.406l-5.581-5.583a1.37 1.37 0 0 1-.408-.981c0-.37.144-.719.408-.983a1.385 1.385 0 0 1 1.962.002l5.581 5.582c.263.261.409.61.409.981 0 .372-.146.72-.409.982a1.37 1.37 0 0 1-.981.406m-2.342-12.155a1.39 1.39 0 0 1-1.39-1.389c0-.765.625-1.389 1.39-1.389h7.895a1.39 1.39 0 0 1 0 2.778h-7.895m-2.358-6.939a1.386 1.386 0 0 1-1.389-1.389c0-.37.145-.72.408-.982l5.58-5.58a1.385 1.385 0 0 1 1.965 0c.54.54.54 1.422 0 1.962l-5.581 5.583a1.389 1.389 0 0 1-.983.406M215.18 616.232c-1.095 0-2.162.112-3.206.29.014-.362.054-.717.054-1.083 0-14.658-11.883-26.54-26.54-26.54-12.673 0-23.253 8.888-25.892 20.766-.217-.008-.43-.034-.648-.034-12.37 0-22.395 10.026-22.395 22.394 0 12.37 10.026 22.395 22.395 22.395h56.232c10.545 0 19.095-8.549 19.095-19.094 0-10.546-8.55-19.094-19.095-19.094m633.395 29.782c-.976 0-1.926.1-2.857.257.013-.322.048-.639.048-.965 0-13.06-10.587-23.647-23.647-23.647-11.29 0-20.716 7.92-23.069 18.502-.192-.006-.381-.029-.577-.029-11.02 0-19.954 8.933-19.954 19.954 0 11.019 8.934 19.953 19.954 19.953h50.102c9.396 0 17.014-7.617 17.014-17.013s-7.618-17.012-17.014-17.012m67.848 181.948c-.7 0-1.38.072-2.05.18.107-.86.168-1.73.168-2.616 0-11.639-9.435-21.072-21.073-21.072-11.104 0-20.198 8.592-21.007 19.49a15.223 15.223 0 0 0-3.611-.45c-8.374 0-15.164 6.788-15.164 15.162s6.79 15.164 15.164 15.164h47.573c7.14 0 12.927-5.789 12.927-12.929 0-7.14-5.787-12.929-12.927-12.929m-781.977-25.875c-.658 0-1.3.068-1.93.168.1-.808.158-1.629.158-2.464 0-10.967-8.892-19.86-19.86-19.86-10.466 0-19.035 8.099-19.798 18.37a14.274 14.274 0 0 0-3.404-.425c-7.891 0-14.29 6.398-14.29 14.29 0 7.891 6.399 14.289 14.29 14.289h44.834c6.729 0 12.184-5.454 12.184-12.184 0-6.729-5.455-12.184-12.184-12.184m535.26 96.71c-.581 0-1.145.06-1.701.148.088-.711.14-1.435.14-2.17 0-9.663-7.834-17.495-17.497-17.495-9.22 0-16.77 7.134-17.44 16.181a12.592 12.592 0 0 0-2.998-.375c-6.954 0-12.589 5.637-12.589 12.59 0 6.951 5.635 12.588 12.589 12.588h39.496c5.928 0 10.732-4.806 10.732-10.733 0-5.929-4.804-10.734-10.732-10.734"/></svg>