<svg width="1000" height="1000" xmlns="http://www.w3.org/2000/svg"><title>background</title><path fill="none" d="M-1-1h582v402H-1z"/><title>Layer 1</title><path fill="#f8f8f8" d="M633.894 555.267l-29.549-10.678s5.64-11.56 14.674-33.957l28.374 11.075a3479.137 3479.137 0 0 1-13.5 33.56"/><path fill="#fbd8b6" d="M619.019 510.632c15.16-37.588 48.671-145.208 72.362-240.595 0 0 2.279-7.256 6.35-6.06 4.678 1.374 1.778 9.605 1.778 9.605s2.179-7.48 6.456-5.92c4.278 1.56 2.038 9.852 2.038 9.852s3.113-7.949 7.29-6.19c4.076 1.716 1.147 9.822 1.147 9.822s2.521-7.332 7.055-6.326c4.535 1.006 1.393 10.29 1.393 10.29-4.7 13.215-27.988 111.677-77.495 236.597l-28.374-11.075"/><path fill="#89b498" d="M629.358 482.467c-.002-.006 0 .003-.002-.003 3.075-8.912 6.428-18.982 9.969-29.952l.001.005c-3.542 10.974-6.895 21.043-9.968 29.95"/><path fill="#ecebeb" d="M633.894 555.267l-29.549-10.678s3.205-6.57 8.654-19.399c11.322-4.63 17.775-8.228 19.566-9.27l14.828 5.787a3510.604 3510.604 0 0 1-13.387 33.287l-.112.273"/><path fill="#f0cdaa" d="M647.393 521.707l-14.828-5.787c.345-.201.518-.308.518-.308s-.692-13.147-3.725-33.145c3.073-8.907 6.426-18.976 9.968-29.95 2.824 12.864 7.907 37.497 11.085 61.498-1.001 2.56-1.996 5.112-3.018 7.692"/><path fill="#eee" d="M536.918 911.639c-100.332 0-181.628-12.244-181.578-27.349.05-15.106 81.426-27.351 181.759-27.351 100.332 0 181.629 12.245 181.577 27.351-.05 15.105-81.425 27.349-181.758 27.349"/><path fill="#fbd8b6" d="M633.083 515.612s-17.12-327.567-258.242-201.36c0 0-39.365 82.91-24.613 237.308 194.315 18.625 282.855-35.948 282.855-35.948"/><path fill="#504133" d="M568.25 175.957s138.271 182.76-163.266 198.745l1.731 58.92s-28.6-22.035-32.404 6.152c-3.798 28.185 31.954 14.322 31.954 14.322s-23.595 74.854-54.984 97.566c0 0-120.023-241.592-6.502-250.586 0 0-.931-43.639 58.709-72.092 34.188-16.31 63.877-10.922 88.62-5.534 36.827 8.021 62.697 16.041 76.142-47.493M391.458 720.321l7.546 49.554a141.92 141.92 0 0 1 .921 35.372l-7.815 78.688s100.915 27.289 75.48-12.523c-23.491-36.766-60.146-6.22-60.146-6.22l15.35-68.965a141.84 141.84 0 0 0 3.255-24.657l1.417-32.601s102.294 4.186 189.803-23.127l2.307 21.283a250.228 250.228 0 0 1-1.943 68.097l-11.315 67.942s93.408 31.356 67.547-12.073c-14.339-24.077-49.567-8.969-49.567-8.969l13.888-50.253a250.223 250.223 0 0 0 9.009-62.509l.853-51.363-256.59 32.324"/><path fill="#f8f8f8" d="M633.083 515.612l14.965 172.385s-104.64 33.247-256.59 32.324l-41.23-168.761s175.922 11.987 282.855-35.948"/><path fill="#f5f6f5" d="M572.749 549.136l6.234 9.294-6.198 12.274 16.428 102.033-25.798 25.427-26.137-22.122L558.44 573.35l-9.824-11.333 3.723-8.48 20.41-4.4"/><path fill="#504133" d="M572.749 549.136l6.234 9.294-6.198 12.274 22.381 99.671-25.798 25.426-26.137-22.122 15.209-100.33-9.824-11.333 3.723-8.48 20.41-4.4"/><path fill="#ec6180" d="M567.344 461.921c-13.036 1.675-48.948 7.015-73.819 17.651-2.635 1.127-4.044 3.99-3.402 6.783 2.512 10.946 12.51 35.889 50.938 27.722 37.94-8.062 35.543-36.042 32.78-47.647a5.905 5.905 0 0 0-6.497-4.509"/><path fill="#504133" d="M472.435 432.384c2.205 10.285-.297 19.543-5.592 20.68-5.295 1.135-11.377-6.283-13.583-16.569-2.205-10.285.299-19.544 5.594-20.68 5.294-1.135 11.375 6.282 13.581 16.569m119.704-25.673c2.206 10.286-.298 19.544-5.594 20.68-5.294 1.135-11.374-6.282-13.58-16.567-2.207-10.287.296-19.545 5.593-20.68 5.293-1.135 11.373 6.282 13.58 16.567"/><path fill="#f8f8f8" d="M357.6 580.465l18.975-25.041s-11.024-6.628-30.791-20.499l-17.775 24.736a3469.057 3469.057 0 0 0 29.591 20.804"/><path fill="#fbd8b6" d="M345.784 534.925c-33.178-23.283-119.868-95.321-191.661-162.446 0 0-5.86-4.848-8.625-1.628-3.175 3.699 3.737 9.026 3.737 9.026s-5.9-5.09-8.637-1.452c-2.74 3.637 3.65 9.374 3.65 9.374s-6.937-4.974-9.483-1.227c-2.485 3.66 4.384 8.867 4.384 8.867s-6.106-4.78-9.363-1.468c-3.255 3.311 4.433 9.389 4.433 9.389 11.136 8.529 84.265 78.454 193.79 156.301l17.775-24.736"/><path fill="#ddd" d="M236.104 742.709a3.322 3.322 0 0 1-3.319-3.32v-47.55a3.322 3.322 0 0 1 3.319-3.32c1.83 0 3.32 1.488 3.32 3.32v47.55c0 1.831-1.49 3.32-3.32 3.32"/><path fill="#ddd" d="M212.331 718.932a3.323 3.323 0 0 1-3.32-3.318 3.323 3.323 0 0 1 3.32-3.32h47.548a3.323 3.323 0 0 1 3.32 3.32 3.323 3.323 0 0 1-3.32 3.318H212.33m627.073-435.236a3.097 3.097 0 0 1-3.094-3.094v-44.3a3.097 3.097 0 0 1 3.094-3.092 3.096 3.096 0 0 1 3.092 3.092v44.3a3.097 3.097 0 0 1-3.092 3.094"/><path fill="#ddd" d="M817.255 261.546a3.097 3.097 0 0 1-3.094-3.092 3.097 3.097 0 0 1 3.094-3.094h44.296a3.098 3.098 0 0 1 3.094 3.094 3.098 3.098 0 0 1-3.094 3.092h-44.296M262.37 200.542a3.097 3.097 0 0 1-3.094-3.093V153.15a3.097 3.097 0 0 1 3.094-3.094 3.097 3.097 0 0 1 3.093 3.094v44.299a3.097 3.097 0 0 1-3.093 3.093"/><path fill="#ddd" d="M240.223 178.391a3.095 3.095 0 0 1-3.094-3.091 3.097 3.097 0 0 1 3.094-3.094h44.297a3.097 3.097 0 0 1 3.093 3.094 3.095 3.095 0 0 1-3.093 3.091h-44.297m293.472-86.656c-4.774 0-8.659 3.885-8.659 8.657 0 4.774 3.885 8.658 8.659 8.658 4.774 0 8.658-3.884 8.658-8.658 0-4.772-3.884-8.657-8.658-8.657zm0 22.54c-7.656 0-13.882-6.228-13.882-13.883 0-7.655 6.226-13.883 13.882-13.883s13.884 6.228 13.884 13.883c0 7.655-6.228 13.883-13.884 13.883M127.404 536.429c-2.475 0-4.489-1.995-4.489-4.449 0-2.476 2.005-4.491 4.47-4.491a4.476 4.476 0 0 1 4.47 4.47c0 2.465-1.997 4.47-4.451 4.47zm17.904 7.35a4.503 4.503 0 0 1-3.147-1.274c-1.728-1.761-1.745-4.62-.013-6.354a4.45 4.45 0 0 1 3.165-1.309c1.192 0 2.31.465 3.156 1.31 1.732 1.734 1.746 4.565.027 6.312-.881.853-1.991 1.315-3.188 1.315zm-35.803.115a4.455 4.455 0 0 1-3.16-1.313 4.479 4.479 0 0 1 0-6.32 4.38 4.38 0 0 1 3.152-1.315c1.193 0 2.317.468 3.166 1.318a4.376 4.376 0 0 1 1.316 3.13 4.452 4.452 0 0 1-1.318 3.19 4.431 4.431 0 0 1-3.156 1.31zm43.291 17.878c-2.463 0-4.47-2.015-4.47-4.493 0-2.514 1.995-4.559 4.449-4.559 2.446 0 4.461 1.99 4.491 4.435 0 2.584-1.963 4.617-4.47 4.617zm-50.644.044c-2.477 0-4.492-2.004-4.492-4.47a4.475 4.475 0 0 1 4.47-4.47c2.464 0 4.47 1.995 4.47 4.448 0 2.478-1.995 4.492-4.448 4.492zm43.223 17.838a4.434 4.434 0 0 1-3.157-1.313c-1.727-1.729-1.73-4.561-.007-6.314a4.514 4.514 0 0 1 3.173-1.305c1.192 0 2.312.462 3.15 1.3a4.451 4.451 0 0 1 1.319 3.183 4.408 4.408 0 0 1-1.323 3.142c-.821.85-1.935 1.307-3.155 1.307zm-79.027-17.795a4.372 4.372 0 0 1-2.506-.784l-.288-.198h-.026l-.352-.342c-1.715-1.713-1.717-4.544.007-6.299a4.462 4.462 0 0 1 3.174-1.321c1.195 0 2.317.469 3.155 1.321 1.75 1.72 1.755 4.544.027 6.306-.884.854-1.995 1.317-3.191 1.317zm17.926 7.4a4.475 4.475 0 0 1-4.47-4.47 4.475 4.475 0 0 1 4.47-4.472 4.476 4.476 0 0 1 4.47 4.472 4.476 4.476 0 0 1-4.47 4.47m657.592 101.383c-2.473 0-4.488-1.995-4.488-4.448 0-2.477 2.006-4.493 4.47-4.493a4.477 4.477 0 0 1 4.47 4.471c0 2.465-1.998 4.47-4.452 4.47zm17.904 7.352a4.504 4.504 0 0 1-3.146-1.275c-1.729-1.762-1.744-4.622-.013-6.354a4.445 4.445 0 0 1 3.164-1.309c1.191 0 2.311.465 3.156 1.309 1.733 1.734 1.747 4.565.028 6.311-.881.855-1.993 1.318-3.189 1.318zm-35.802.112a4.459 4.459 0 0 1-3.16-1.31 4.48 4.48 0 0 1 0-6.321 4.377 4.377 0 0 1 3.15-1.315 4.45 4.45 0 0 1 3.167 1.316 4.373 4.373 0 0 1 1.316 3.131 4.45 4.45 0 0 1-1.317 3.19 4.433 4.433 0 0 1-3.156 1.31zm43.292 17.88c-2.465 0-4.471-2.015-4.471-4.494 0-2.513 1.995-4.56 4.449-4.56a4.51 4.51 0 0 1 4.492 4.437c0 2.582-1.965 4.617-4.47 4.617zm-50.645.044c-2.477 0-4.492-2.005-4.492-4.47a4.476 4.476 0 0 1 4.47-4.47c2.463 0 4.47 1.995 4.47 4.447 0 2.478-1.995 4.493-4.448 4.493zm43.223 17.836a4.438 4.438 0 0 1-3.158-1.311c-1.726-1.73-1.73-4.56-.006-6.314a4.514 4.514 0 0 1 3.172-1.305c1.193 0 2.313.461 3.15 1.298a4.452 4.452 0 0 1 1.319 3.185 4.408 4.408 0 0 1-1.322 3.142c-.822.849-1.934 1.305-3.155 1.305zm-35.804.044a4.376 4.376 0 0 1-2.506-.784l-.29-.199h-.024l-.353-.34c-1.715-1.713-1.717-4.545.007-6.3a4.464 4.464 0 0 1 3.173-1.32c1.197 0 2.319.468 3.158 1.32 1.75 1.72 1.754 4.543.025 6.307-.884.853-1.994 1.316-3.19 1.316zm17.925 7.399a4.476 4.476 0 0 1-4.47-4.47 4.474 4.474 0 0 1 4.47-4.469 4.476 4.476 0 0 1 4.471 4.469 4.477 4.477 0 0 1-4.471 4.47m122.214-236.16a2.979 2.979 0 0 1-2.977-2.978v-16.924a2.979 2.979 0 0 1 2.977-2.977 2.982 2.982 0 0 1 2.978 2.977v16.924a2.982 2.982 0 0 1-2.978 2.978m-14.875 5.055c-.794 0-1.54-.309-2.104-.872l-11.968-11.967a2.95 2.95 0 0 1-.875-2.105c0-.794.31-1.541.875-2.105a2.947 2.947 0 0 1 2.104-.871c.795 0 1.544.31 2.105.871l11.966 11.966a2.984 2.984 0 0 1 0 4.21 2.955 2.955 0 0 1-2.103.873m-23.87 14.093a2.98 2.98 0 0 1-2.978-2.976 2.98 2.98 0 0 1 2.978-2.977h16.923a2.98 2.98 0 0 1 2.977 2.977 2.98 2.98 0 0 1-2.977 2.976h-16.923m10.012 26.845c-.795 0-1.544-.31-2.105-.872a2.956 2.956 0 0 1-.872-2.106c0-.794.31-1.542.872-2.104l11.968-11.968a2.948 2.948 0 0 1 2.105-.872c.796 0 1.54.31 2.105.872a2.986 2.986 0 0 1 0 4.21l-11.97 11.968c-.56.562-1.31.872-2.103.872m26.06 11.9a2.98 2.98 0 0 1-2.976-2.977v-16.921a2.98 2.98 0 0 1 2.976-2.978 2.98 2.98 0 0 1 2.978 2.978v16.921a2.98 2.98 0 0 1-2.978 2.977m26.845-10.01a2.959 2.959 0 0 1-2.105-.872l-11.966-11.968a2.958 2.958 0 0 1-.873-2.105c0-.795.31-1.543.873-2.106a2.964 2.964 0 0 1 2.105-.871c.794 0 1.541.31 2.104.872l11.966 11.968c.564.564.874 1.31.874 2.105 0 .795-.31 1.542-.874 2.106a2.951 2.951 0 0 1-2.104.871m-5.022-26.062a2.982 2.982 0 0 1-2.978-2.978 2.981 2.981 0 0 1 2.978-2.976h16.923a2.978 2.978 0 0 1 0 5.954h-16.923m-5.054-14.878a2.96 2.96 0 0 1-2.104-.87 2.957 2.957 0 0 1-.874-2.107c0-.794.31-1.541.874-2.105l11.964-11.964a2.958 2.958 0 0 1 2.106-.872c.794 0 1.541.308 2.105.872a2.982 2.982 0 0 1 0 4.208l-11.966 11.967a2.97 2.97 0 0 1-2.105.871"/><path fill="#f0cdaa" d="M446.759 475.94c-14.483 0-28.001-6.733-36.796-17.788l-4.645-1.173c.622-1.853.947-2.883.947-2.883s-2.235.868-5.529 1.726l-5.111-1.29a6.902 6.902 0 0 1-5.051-5.21l-.024-.105-14.199 3.125c-1.923-2.727-2.823-6.752-2.04-12.568 1.484-10.997 6.74-14.349 12.603-14.349 6.229 0 13.141 3.789 16.927 6.214 5.175 21.452 24.388 36.001 45.68 36.001 3.349 0 6.747-.36 10.153-1.109l45.082-9.919c3.904-.858 7.505-2.648 10.775-4.947l.007-.005.043-.03a19.78 19.78 0 0 1 7.172-3.16c.077-.018.156-.034.233-.05.37-.078.74-.143 1.109-.198h.001l.065-.01.027-.003.04-.007a.314.314 0 0 0 .035-.005l.033-.003.048-.008.019-.002.04-.005.027-.004a19.79 19.79 0 0 1 6.159.152c2.037.374 4.099.587 6.156.587 1.931 0 3.86-.188 5.761-.607l45.082-9.917a46.836 46.836 0 0 0 20.345-10.075l9.286-2.044a404.597 404.597 0 0 1 2.004 7.253l-14.075 3.096a46.757 46.757 0 0 1-6.267 4.485l-.106.066a49.47 49.47 0 0 1-1.61.914l-.151.081a47.092 47.092 0 0 1-12.194 4.526l-45.081 9.918a26.628 26.628 0 0 1-5.725.599 31.99 31.99 0 0 1-2.634-.11l-.001-.002a33.386 33.386 0 0 1-1.719-.182l-.09-.011a37.64 37.64 0 0 1-1.749-.274 19.781 19.781 0 0 0-3.568-.325l-.297.002a19.917 19.917 0 0 0-11.142 3.624 37.85 37.85 0 0 1-1.476.985l-.064.04c-2.865 1.818-5.964 3.228-9.285 3.958l-45.083 9.918a47.183 47.183 0 0 1-10.147 1.108"/><path fill="#4c3d30" d="M316.148 465.586c-4.084-12.185-7.93-24.917-11.15-37.677l77.276-17a6.888 6.888 0 0 1 2.542-5.508l11.494-9.302a47.137 47.137 0 0 1 2.64-7.793 46.848 46.848 0 0 0-.097 20.699l4.77 21.69c.07.316.143.631.218.944-3.786-2.425-10.698-6.214-16.927-6.214-5.863 0-11.119 3.352-12.603 14.349-.783 5.816.117 9.841 2.04 12.568l-60.203 13.244m89.17-8.607l-4.582-1.157c3.294-.858 5.529-1.726 5.529-1.726s-.325 1.03-.947 2.883"/><path fill="#abaaa9" d="M562.601 324.814l-127.913 28.141c-25.374 5.582-41.418 30.676-35.835 56.05l4.77 21.69c5.582 25.374 30.677 41.417 56.05 35.836l45.083-9.919c3.924-.862 7.542-2.667 10.825-4.982a19.78 19.78 0 0 1 7.172-3.16 19.813 19.813 0 0 1 7.836-.143c3.952.725 7.991.844 11.917-.02l45.082-9.917c25.373-5.581 41.417-30.676 35.836-56.05l-4.771-21.689c-5.583-25.374-30.678-41.419-56.052-35.837"/><path fill="#9d9d9c" d="M419.969 390.247l10.41 47.324c3.947 17.939 21.689 29.283 39.629 25.336l42.54-9.358a36.411 36.411 0 0 0 3.033-1.919 19.78 19.78 0 0 1 7.172-3.16 19.813 19.813 0 0 1 7.836-.143c1.18.218 2.367.37 3.557.47l63.953-14.07c19.095-9.292 30.089-30.733 25.325-52.387l-4.771-21.689c-5.583-25.375-30.678-41.419-56.052-35.837L445.305 350.62c-17.94 3.946-29.284 21.689-25.336 39.627"/><path fill="#f8f8f8" d="M622.104 425.197l-144.499 31.788c-17.94 3.947-35.681-7.396-39.629-25.336l-9.518-43.269c-3.947-17.939 7.397-35.681 25.337-39.629l144.498-31.789c17.938-3.946 35.68 7.398 39.627 25.338l9.519 43.269c3.946 17.94-7.396 35.682-25.335 39.628"/><path fill="#abaaa9" d="M398.393 446.231l15.137 3.821-13.81-62.775-12.136 9.823a6.898 6.898 0 0 0-2.399 6.847l8.155 37.074a6.906 6.906 0 0 0 5.053 5.21"/><path fill="#f4f3f3" d="M469.186 345.366l-15.391 3.385c-17.94 3.948-29.284 21.69-25.337 39.629l9.518 43.269c3.948 17.94 21.689 29.283 39.629 25.336l144.499-31.788a33.128 33.128 0 0 0 14.586-7.3l-167.504-72.53"/><path fill="#9d9d9c" d="M393.015 398.219a2.204 2.204 0 0 0-1.68 2.626l8.58 38.999a2.205 2.205 0 0 0 4.305-.948l-8.58-38.999a2.203 2.203 0 0 0-2.625-1.678"/><path fill="#717374" d="M310.853 459.059l93.288-20.523-8.421-38.279-93.289 20.524a4.354 4.354 0 0 0-3.318 5.191l6.547 29.768a4.357 4.357 0 0 0 5.193 3.319"/><path fill="#89b498" d="M637.839 341.94l-.001-.004v.004m0-.006l-.04-.168.04.168m-32.358-25.755h-.011.011"/><path fill="#ecebeb" d="M622.173 425.182a33.115 33.115 0 0 0 14.517-7.285l-7.287-3.155c8.865-5.827 13.692-16.725 11.28-27.687l-9.518-43.269c-2.704-12.287-13.627-20.685-25.722-20.685-1.868 0-3.765.2-5.664.618l-119.746 26.343-10.847-4.696-15.391 3.385 144.498-31.789a33.486 33.486 0 0 1 7.175-.783h.013c15.094.006 28.707 10.35 32.317 25.587l.04.168v.006l.04.171.042.189 9.519 43.269c.529 2.4.782 4.796.784 7.156.01 15.261-10.55 29.012-26.05 32.457"/><path fill="#e7e6e5" d="M470.428 457.769c-15.274 0-29.034-10.588-32.452-26.12l-9.518-43.269a33.397 33.397 0 0 1-.784-7.158c-.009-15.282 10.581-29.052 26.121-32.47l15.391-3.386 10.847 4.696-24.752 5.445c-14.186 3.122-23.187 17.202-20.067 31.388l9.52 43.267c2.702 12.29 13.626 20.685 25.721 20.685 1.868 0 3.766-.2 5.664-.617l144.497-31.79a26.195 26.195 0 0 0 8.787-3.698l7.287 3.155a33.115 33.115 0 0 1-14.524 7.287c-.02.003-.041.008-.062.013l-144.499 31.788a33.35 33.35 0 0 1-7.177.784"/></svg>