<svg width="1000" height="100" xmlns="http://www.w3.org/2000/svg"><title>background</title><path fill="none" d="M-1-1h1002v102H-1z"/><title>Layer 1</title><path fill="#a2d847" d="M973.008 55.252c-.334 2.348-1.196 6.525-2.9 8.163-1.212 1.165-2.85 1.046-5.023-1.929-2.528-3.461-.57-9.125.167-12.652a64.994 64.994 0 0 1 2.615-9.14c1.127-2.85 2.3-5.499 3.546-7.668l.87-1.571c.241-.388.465-.746.687-1.1.106.784.208 1.572.303 2.377.397 3.82.6 7.87.575 11.878-.077 4.015-.361 7.979-.84 11.642zm-90.281 8.492c-.131.206-.263.407-.394.611h-3.883c.422-3.3 1.142-7.466 2.131-11.621.347-1.45.726-2.893 1.122-4.298.554 2.775.93 5.51 1.089 8.078.123 2.647.108 5.078-.065 7.23zm-18.437-1.529c-1.308 2.162-2.323 2.551-3.102 1.984-1.79-1.308-2.332-7.68-2.316-9.199.078-2.544.325-5.095.725-7.476.448-2.369.953-4.587 1.572-6.444.274-.94.579-1.786.867-2.533.138-.38.267-.735.396-1.06.019.078.04.147.059.225.633 2.344 1.153 5.112 1.581 8.027.384 2.932.605 6.035.628 9.092a74.077 74.077 0 0 1-.41 7.384zm-39.63 2.114a.254.254 0 0 1-.015.026h-2.7a278.88 278.88 0 0 0 2.824-14.215 84.504 84.504 0 0 1 1.104 6.39c.086.704.163 1.406.232 2.105.193 1.98-.342 3.952-1.444 5.694zm-17.4-3.765a49.182 49.182 0 0 1-.527 3.666l-.173.125c-1.625 0-2.861-1.251-2.626-2.644.088-.519.173-1.044.257-1.576.454-3.18.753-6.58.873-9.976a94.877 94.877 0 0 0-.21-8.728c.624 1.723 1.175 3.768 1.647 5.91a49.06 49.06 0 0 1 .887 6.714 46.39 46.39 0 0 1-.128 6.509zM674.802 62.09c-.013.831-.03 1.59-.048 2.265-2.016 0-3.756-1.208-4.2-2.911-.046-.178-.094-.355-.142-.534a80.462 80.462 0 0 0 2.52-10.735c.49-3.463.744-6.931.776-10.271.338 2.95.66 6.361.834 9.747.26 4.563.319 9.076.26 12.439zm-16.726-1.864c-.203.293-.407.581-.61.866a30.803 30.803 0 0 0-.527-1.792c-1.564-4.673-4.04-8.614-6.022-11.528.756-4.35 1.012-8.627.992-12.617.182.329.362.664.553 1.009 1.202 2.121 2.295 4.702 3.27 7.42a49.825 49.825 0 0 1 2.032 8.595c.345 2.787.443 5.52.312 8.047zm-9.648.656a21.342 21.342 0 0 1-.863 3.473h-2.372c.24-.44.476-.88.702-1.33 1.097-2.144 2.022-4.408 2.843-6.723.01 1.53-.07 3.078-.31 4.58zm-45.423-13.278c-.763 3.396-1.307 6.892-1.56 10.231-.04.631-.073 1.257-.098 1.875-.108 2.587-2.533 4.645-5.521 4.645a59.52 59.52 0 0 1 1.666-7.149 60.993 60.993 0 0 1 3.574-8.701c1.048-1.949 2.11-3.784 3.189-5.41a72.136 72.136 0 0 0-1.25 4.509zM570.12 54.73l-.009.026a84.319 84.319 0 0 1-.945-5.722 81.6 81.6 0 0 1-.524-9.098c.02-1.202.06-2.364.116-3.49.209.259.42.519.639.784 1.727 2.025 3.403 4.467 5.007 7.104-1.612 3.458-3.08 6.99-4.284 10.396zm-16.722.522c-.18 1.264-.37 2.488-.572 3.665-.537 3.132-3.654 5.438-7.307 5.438a121.627 121.627 0 0 0-.92-4.744c-.002-.486-.006-.97 0-1.469a62.876 62.876 0 0 1 1.044-9.303 64.87 64.87 0 0 1 2.615-9.145c1.126-2.85 2.3-5.499 3.546-7.668l.87-1.571c.241-.388.465-.746.687-1.1.105.784.208 1.572.304 2.377.396 3.82.6 7.87.573 11.878-.076 4.015-.36 7.979-.84 11.642zm-97.019 4.36a121.627 121.627 0 0 0-.92 4.743c-3.653 0-6.77-2.306-7.307-5.438a132.147 132.147 0 0 1-.572-3.665c-.48-3.663-.764-7.627-.84-11.642a109.35 109.35 0 0 1 .574-11.878 152.2 152.2 0 0 1 .303-2.377c.222.354.446.712.687 1.1l.87 1.571c1.247 2.169 2.42 4.818 3.546 7.668a64.87 64.87 0 0 1 2.615 9.145c.59 3.158.943 6.332 1.044 9.303.006.5.002.983 0 1.47zm-24.567-10.578a84.32 84.32 0 0 1-.945 5.722l-.009-.026c-1.204-3.406-2.672-6.938-4.284-10.396 1.603-2.637 3.28-5.079 5.007-7.104.22-.265.43-.525.64-.784.056 1.126.095 2.288.116 3.49 0 2.918-.177 6.02-.525 9.098zM399.631 59.71a77.662 77.662 0 0 0-.099-1.875c-.252-3.339-.796-6.835-1.56-10.231a72.136 72.136 0 0 0-1.249-4.509c1.078 1.626 2.141 3.461 3.189 5.41a60.993 60.993 0 0 1 3.574 8.701 59.578 59.578 0 0 1 1.666 7.149c-2.988 0-5.413-2.058-5.521-4.645zm-46.218 4.645c-.37-1.096-.67-2.26-.863-3.473-.24-1.502-.32-3.05-.31-4.58.821 2.315 1.746 4.58 2.842 6.723.227.45.464.89.703 1.33h-2.372zM344.04 59.3c-.195.591-.368 1.19-.527 1.792a86.647 86.647 0 0 1-.61-.866c-.131-2.527-.033-5.26.312-8.047a49.825 49.825 0 0 1 2.031-8.595c.975-2.718 2.07-5.299 3.271-7.42.19-.345.37-.68.553-1.009-.02 3.99.236 8.267.992 12.617-1.982 2.914-4.458 6.855-6.022 11.528zm-13.615 2.144c-.443 1.703-2.184 2.911-4.2 2.911a174.774 174.774 0 0 1 .212-14.704c.173-3.386.496-6.797.834-9.747.032 3.34.286 6.808.776 10.271a80.462 80.462 0 0 0 2.52 10.735c-.048.179-.096.356-.142.534zm-136.006 2.911l-.173-.125a49.182 49.182 0 0 1-.527-3.666 46.39 46.39 0 0 1-.128-6.509 49.06 49.06 0 0 1 .887-6.714c.472-2.142 1.023-4.187 1.648-5.91a94.877 94.877 0 0 0-.21 8.728 94.6 94.6 0 0 0 .872 9.976c.084.532.169 1.057.257 1.576.236 1.393-1.002 2.644-2.626 2.644zm-18.085 0l-.016-.026c-1.102-1.742-1.637-3.714-1.444-5.694.07-.699.146-1.401.232-2.105a84.504 84.504 0 0 1 1.104-6.39 278.88 278.88 0 0 0 2.824 14.215h-2.7zm-36.543-.156c-.78.567-1.794.178-3.102-1.984a74.077 74.077 0 0 1-.41-7.384c.023-3.057.244-6.16.628-9.092.428-2.915.948-5.683 1.581-8.027.019-.078.04-.147.06-.225.128.325.257.68.395 1.06.29.747.593 1.593.867 2.533.619 1.857 1.124 4.075 1.572 6.444.4 2.381.647 4.932.725 7.476.016 1.519-.525 7.891-2.316 9.199zm-21.145.156c-.131-.204-.263-.405-.394-.611-.173-2.152-.188-4.583-.065-7.23.159-2.568.535-5.303 1.09-8.078.395 1.405.774 2.848 1.12 4.298.99 4.155 1.71 8.321 2.132 11.621h-3.883zm-82.752-2.869c-2.174 2.975-3.81 3.094-5.022 1.929-1.704-1.638-2.568-5.815-2.9-8.163-.48-3.663-.764-7.627-.84-11.642a109.39 109.39 0 0 1 .573-11.878c.096-.805.2-1.593.304-2.377l.687 1.1.87 1.571c1.245 2.169 2.419 4.818 3.546 7.668a64.954 64.954 0 0 1 2.614 9.14c.738 3.527 2.697 9.191.168 12.652zm975.215-43.236a58.866 58.866 0 0 0-2.098 2.474 73.246 73.246 0 0 0-2.623 3.3c-1.913 2.443-3.944 5.415-6.043 8.695a123 123 0 0 0-5.898 10.675c-1.787 3.756-3.404 7.622-4.717 11.336l-.009.026a84.319 84.319 0 0 1-.945-5.722 81.957 81.957 0 0 1-.525-9.098c.05-2.912.185-5.645.486-7.972.116-1.169.274-2.234.436-3.177.143-.946.279-1.77.43-2.442l.431-2.123-1.16 1.975c-.383.63-.805 1.408-1.277 2.312a52.63 52.63 0 0 0-1.545 3.073c-1.12 2.277-2.215 5.013-3.297 8.03a83.22 83.22 0 0 0-.584 1.804 121.177 121.177 0 0 0-3.59-10.962c-1.482-3.715-2.977-7.139-4.463-9.998a72.982 72.982 0 0 0-2.056-3.885c-.626-1.149-1.187-2.144-1.69-2.947l-1.533-2.538.851 2.804c.283.884.576 1.971.89 3.217.332 1.24.681 2.64.992 4.178.434 1.894.805 4.011 1.137 6.244-.298.255-.598.515-.925.807l-1.338 1.178c-.459.425-.916.89-1.41 1.368-2.012 1.905-4.116 4.32-6.29 7.052a74.833 74.833 0 0 0-3.609 5.208c-.368-.926-.741-1.84-1.124-2.727-1.257-2.836-2.499-5.453-3.69-7.645a70.89 70.89 0 0 0-1.644-2.98c-.5-.881-.942-1.646-1.332-2.266l-1.199-1.954.515 2.219c.172.7.348 1.558.536 2.542.199.978.405 2.081.587 3.29.411 2.401.721 5.219.962 8.194.204 2.987.28 6.149.204 9.271a103.61 103.61 0 0 1-.33 5.419c-.086.24-.184.482-.266.722-.32.973-.61 1.933-.886 2.882a158.35 158.35 0 0 0-.37-3.21 118.26 118.26 0 0 0-1.923-10.372 119.06 119.06 0 0 0-2.939-10.146c-1.124-3.189-2.255-6.134-3.375-8.61a71.762 71.762 0 0 0-1.55-3.367 57.013 57.013 0 0 0-1.272-2.564l-1.154-2.215s.164.889.454 2.442c.153.772.3 1.717.455 2.797a65.8 65.8 0 0 1 .473 3.617c.325 2.64.51 5.73.607 8.993a106.87 106.87 0 0 1-.313 10.146 105.095 105.095 0 0 1-1.344 9.894c-.478 2.423-.984 4.678-1.521 6.697.063-1.385.098-2.83.1-4.324a80.782 80.782 0 0 0-.793-10.105 81.909 81.909 0 0 0-2.174-9.89c-.948-3.1-1.945-5.958-3.003-8.347-.492-1.204-1-2.288-1.473-3.241-.453-.958-.863-1.788-1.24-2.457l-1.143-2.112.445 2.347c.153.738.289 1.645.422 2.683a44.75 44.75 0 0 1 .386 3.464c.253 2.522.289 5.472.195 8.56a72.43 72.43 0 0 1-1.1 9.52 74.615 74.615 0 0 1-1.227 5.185c-.218-.507-.434-1.014-.664-1.518a76.525 76.525 0 0 0-4.102-7.577c-1.489-2.333-2.956-4.462-4.356-6.205a47.64 47.64 0 0 0-1.928-2.362 39.196 39.196 0 0 0-1.556-1.77l-1.398-1.51.78 1.875c.254.59.525 1.318.82 2.154.307.829.63 1.765.932 2.799.653 2.04 1.216 4.456 1.694 6.997.44 2.56.73 5.267.835 7.933.127 3.176 1.515 8.536-3.544 7.795-3.47-.509-4.511-4.236-4.063-6.745a45.659 45.659 0 0 1 4.017-12.161c-4.804 4.598-7.59 10.518-11.606 15.131.262-4.069 1.265-8.199 2.536-12.119a68.591 68.591 0 0 1 2.953-7.671c.282-.6.56-1.19.833-1.766l.859-1.67c.27-.549.579-1.06.856-1.567.265-.47.522-.923.767-1.36.436-.73.846-1.26 1.13-1.583l.299-.317c.041-.06.203-.162.297-.217.218-.124.418-.175.555-.201l.212-.024-.26-.135a2.81 2.81 0 0 0-.839-.219c-.424-.009-.753-.08-1.394.123-.629.215-1.438.661-2.298 1.315-.423.307-.895.743-1.38 1.168-.479.432-1.002.868-1.493 1.345l-1.547 1.463-1.564 1.58a82.26 82.26 0 0 0-4.71 5.331 89.043 89.043 0 0 0-.246-4.186c-.312-3.16-.701-6.094-1.212-8.584a55.176 55.176 0 0 0-.724-3.389 44.896 44.896 0 0 0-.651-2.592l-.623-2.245s-.04.856-.114 2.354a44.927 44.927 0 0 1-.202 2.678 54.26 54.26 0 0 1-.391 3.442c-.308 2.503-.88 5.395-1.59 8.416a87.992 87.992 0 0 1-2.06 6.959 81.11 81.11 0 0 0-1.646-2.982 83.667 83.667 0 0 0-4.015-6c.66-1.713 1.105-2.755 1.105-2.755L885.1 36.17c-.162.155-.345.335-.53.516a73.59 73.59 0 0 0-1.758-2.244c-2.346-2.78-4.656-5.29-6.844-7.28l-1.548-1.44-1.463-1.243c-.912-.784-1.72-1.454-2.424-1.973l-2.172-1.657 1.64 2.113c.53.66 1.12 1.494 1.77 2.457.326.476.672.983 1.039 1.517.35.543.692 1.126 1.059 1.724 1.493 2.371 2.933 5.261 4.284 8.326a67.331 67.331 0 0 1 1.7 4.568 135.042 135.042 0 0 0-7.625 9.062 93.586 93.586 0 0 0-2.99-6.54c-1.454-2.765-2.898-5.297-4.299-7.392a53.954 53.954 0 0 0-1.933-2.839 44.335 44.335 0 0 0-1.573-2.141c-.903-1.169-1.42-1.835-1.42-1.835l.77 2.156a41.5 41.5 0 0 1 .806 2.475c.179.566.36 1.187.54 1.837-.465.45-.989 1.018-1.58 1.687a38.225 38.225 0 0 0-1.946 2.273c-1.418 1.698-2.882 3.803-4.379 6.172a62.968 62.968 0 0 0-4.017 7.832c-1.145 2.79-2.116 5.699-2.813 8.511a79.14 79.14 0 0 0-.342 1.543h-.576c.654-1.675 1.273-3.531 1.856-5.493a65.218 65.218 0 0 0 1.762-8.518c.314-2.579.466-5.153.471-7.603a56.532 56.532 0 0 1 2.64-3.157c.8-.937 1.58-1.762 2.29-2.482.696-.73 1.312-1.363 1.853-1.856 1.06-1.007 1.665-1.584 1.665-1.584l-2.189 1.122c-.712.35-1.543.812-2.491 1.36a52.322 52.322 0 0 0-3.916 2.377c-.127-1.505-.274-2.921-.487-4.192a36.982 36.982 0 0 0-.522-2.934c-.172-.87-.333-1.625-.506-2.241l-.505-1.939-.235 2.032a29.66 29.66 0 0 1-.351 2.3c-.144.882-.33 1.867-.596 2.93-.479 2.215-1.294 4.76-2.267 7.367l-.837 1.101c-.196.147-.393.297-.594.451a92.925 92.925 0 0 0-8.025 7.206 99.687 99.687 0 0 0-1.999 2.137c-1.49-3.305-3.144-6.477-4.77-9.418a238.493 238.493 0 0 0-2.33-3.967c.683-5.274 1.18-10.289 1.473-14.335.22-2.828.35-5.185.429-6.835l.121-2.593-.866 2.529a242.03 242.03 0 0 1-2.385 6.614 245.933 245.933 0 0 1-3.056 7.78c-1.158-1.785-2.158-3.274-2.907-4.394l-1.557-2.315.89 2.609c.562 1.66 1.373 4.038 2.274 6.915l.054.168a272.554 272.554 0 0 1-3.92 8.818 271.862 271.862 0 0 1-2.508 5.222 64.53 64.53 0 0 0-3.118-4.513c-1.466-1.879-2.899-3.583-4.24-4.963a40.987 40.987 0 0 0-1.848-1.865 55.615 55.615 0 0 0-.764-.737c-.256-2.112-.551-4.088-.91-5.837a55.176 55.176 0 0 0-.724-3.388 46.12 46.12 0 0 0-.65-2.593l-.624-2.245-.115 2.354a43.33 43.33 0 0 1-.202 2.68 53.214 53.214 0 0 1-.39 3.44c-.307 2.504-.881 5.395-1.59 8.416a88.647 88.647 0 0 1-2.871 9.24 88.094 88.094 0 0 1-3.899 8.718c-.518.976-1.033 1.913-1.542 2.808l-.023.04c-1.265 2.18-5.02 1.378-5.028-1.06-.008-2.32.474-4.79.932-6.707 1.077-4.516 2.468-8.991 3.68-12.309 1.2-3.322 2.136-5.507 2.136-5.507l-1.299 1.248c-.826.798-1.997 1.952-3.36 3.38-2.75 2.843-6.256 6.82-9.511 11.065-.226.295-.446.593-.67.888.046-2.54.261-5.081.646-7.46.462-2.49.995-4.821 1.666-6.768l.457-1.405.485-1.246c.295-.787.567-1.471.834-2.017l.79-1.742-1.468 1.468c-.487.466-1.028 1.057-1.64 1.755l-.99 1.114-1.031 1.281c-1.475 1.79-2.97 4.021-4.484 6.539a59.935 59.935 0 0 0-3.957 8.34 62.774 62.774 0 0 0-1.383 4.28c.083-.649.176-1.289.282-1.917.448-2.368.954-4.587 1.573-6.443.274-.94.577-1.787.866-2.533.271-.752.52-1.406.762-1.931l.718-1.67-1.4 1.405c-.463.446-.982 1.01-1.57 1.672a37.842 37.842 0 0 0-1.943 2.274c-1.164 1.393-2.36 3.07-3.578 4.931.935-6.55 1.594-12.937 1.952-17.886.22-2.827.35-5.185.429-6.835l.122-2.592-.867 2.528a239.654 239.654 0 0 1-2.383 6.614c-2.025 5.448-4.965 12.605-8.223 19.581a269.916 269.916 0 0 1-3.293 6.792c-.216-4.624-.82-9.127-1.512-12.52a73.775 73.775 0 0 0-.99-4.404l-.428-1.658-.312 1.748a72.287 72.287 0 0 1-.978 4.534c-.887 3.712-2.434 8.523-4.427 13.051-.4.91-.818 1.802-1.245 2.681.097-.305.195-.597.297-.916.765-2.259 1.328-4.954 1.742-7.829a48.8 48.8 0 0 0 .235-9.016 49.05 49.05 0 0 0-1.576-8.828c-.83-2.752-1.761-5.276-2.822-7.352-.257-.521-.49-1.023-.737-1.491l-.75-1.314c-.465-.826-.886-1.536-1.286-2.101l-1.203-1.787.53 2.07c.178.644.332 1.445.477 2.358l.24 1.437c.066.51.106 1.048.16 1.6.248 2.204.196 4.778-.03 7.42a41.83 41.83 0 0 1-1.71 8.007 42.735 42.735 0 0 1-2.01 4.861 128.324 128.324 0 0 0-.242-6.913c-.236-3.18-.516-6.125-.825-8.613-.6-4.988-1.082-8.244-1.082-8.244s-.603 3.33-1.636 8.341c-.507 2.5-1.182 5.424-1.965 8.51-.829 3.088-1.788 6.343-2.957 9.498-1.194 3.148-2.528 6.198-4.024 8.886l-.013.021c-1.094 1.943-4.542 1.428-4.69-.73a2.457 2.457 0 0 1 .01-.46c.098-.937.22-1.886.366-2.835a60.163 60.163 0 0 1 1.469-6.484c.623-2.045 1.271-3.953 1.956-5.548a34.49 34.49 0 0 1 .951-2.177 28.71 28.71 0 0 1 .8-1.66l.735-1.435-1.395 1.13c-.456.358-.98.812-1.577 1.344a43.137 43.137 0 0 0-1.992 1.826c-1.158 1.082-2.39 2.377-3.673 3.817a72.212 72.212 0 0 1 1.403-6.663c.81-2.87 1.668-5.546 2.61-7.777l.655-1.612c.23-.502.452-.98.658-1.428.405-.903.772-1.687 1.115-2.314l1.035-1.995-1.698 1.697c-.559.54-1.19 1.22-1.905 2.014a50.416 50.416 0 0 0-2.366 2.723c-1.729 2.025-3.53 4.528-5.384 7.325a82.69 82.69 0 0 0-5.064 9.216c-1.48 3.274-2.775 6.674-3.757 9.957-.2.702-.388 1.393-.569 2.08-.93-1.31-5.267-8.483-2.728-3.983.861 1.526-1.843-2.975-2.54-4.5-.434-.799-.702-1.667-1.083-2.504l-.001-.054a25.193 25.193 0 0 1 2.341-4.386c1.075-1.468 2.182-2.82 3.32-3.808.279-.253.534-.51.797-.736l.777-.6c.482-.39.915-.721 1.305-.946l1.189-.775-1.587.227c-.53.058-1.145.19-1.857.372-.365.087-.754.181-1.163.281-.404.115-.814.264-1.26.409-1.717.53-3.606 1.421-5.629 2.561a33.094 33.094 0 0 1-.209-4.93 32.567 32.567 0 0 1 1.531-8.873c.821-2.543 1.824-4.573 2.568-5.973l1.282-2.155s-.707.642-1.937 1.841c-1.176 1.227-2.832 3.054-4.49 5.529a37.513 37.513 0 0 0-4.442 9.198 38.24 38.24 0 0 0-1.833 10.998 158.113 158.113 0 0 0-1.542-2.664c-3.564-6.135-7.58-11.992-9.262-14.397-.237-2.379-.564-4.605-1.013-6.605-.171-.818-.317-1.604-.492-2.345-.2-.738-.39-1.438-.57-2.095l-.505-1.838c-.164-.565-.362-1.076-.516-1.541l-1.01-2.913.281 3.06c.038.484.104 1.015.129 1.598l.041 1.887.04 2.127c-.01.748-.063 1.537-.097 2.352-.088 3.258-.648 7.023-1.443 10.924-.807 3.506-1.947 7.114-3.343 10.612a62.794 62.794 0 0 0-4.363-6.465c-1.999-2.482-3.984-4.712-5.893-6.47l-1.35-1.27-1.283-1.09c-.036-.032-.067-.056-.103-.086-.122-3.372-.407-6.486-.7-9.185-.386-3.42-.796-6.225-1.087-8.177l-.464-3.062-.282 3.112a239.006 239.006 0 0 1-.885 8.237c-.87 6.796-2.45 15.995-6.24 24.226a53.674 53.674 0 0 1-3.177 5.882c-1.198 1.848-2.436 3.603-3.786 5.18a41.217 41.217 0 0 1-4.273 4.388c.342-1.736.738-3.51 1.195-5.282a94.029 94.029 0 0 1 2.557-8.014c.974-2.521 1.95-4.869 2.916-6.834.459-.993.916-1.89 1.334-2.68.409-.795.77-1.486 1.097-2.043l.993-1.768-1.644 1.449a50.778 50.778 0 0 0-1.861 1.706 64.716 64.716 0 0 0-2.356 2.29c-1.726 1.699-3.61 3.783-5.59 6.099a106.161 106.161 0 0 0-5.777 7.609 108.167 108.167 0 0 0-3.38 5.333 25.94 25.94 0 0 1-.45-2.4 24.667 24.667 0 0 1 .041-5.435c.28-1.72.636-3.345 1.18-4.66.129-.332.235-.658.361-.96l.405-.833c.243-.532.47-.992.705-1.344.434-.731.68-1.149.68-1.149s-.477.294-1.315.805c-.445.254-.932.603-1.486 1.029l-.908.684c-.307.252-.606.535-.936.828-1.358 1.164-2.71 2.733-4.072 4.595a29.945 29.945 0 0 0-1.766 2.937 68.438 68.438 0 0 1-1.169-7.322 67.43 67.43 0 0 1-.164-9.016c.207-2.879.505-5.579.985-7.861l.319-1.644.362-1.47c.22-.926.424-1.732.64-2.385l.624-2.067-1.336 1.868c-.444.597-.93 1.34-1.475 2.205l-.881 1.387-.903 1.572c-1.296 2.2-2.56 4.879-3.81 7.855-.402.289-.81.568-1.245.868-.506.367-1.014.775-1.564 1.195-2.226 1.657-4.598 3.821-7.073 6.3a71.645 71.645 0 0 0-4.198 4.835 72.932 72.932 0 0 1-.182-3.578 70.448 70.448 0 0 1 .421-8.319c.345-2.646.753-5.123 1.284-7.216.231-1.055.494-2.011.746-2.855.234-.849.45-1.587.665-2.186l.634-1.895-1.338 1.677c-.441.535-.935 1.2-1.492 1.978a45.756 45.756 0 0 0-1.836 2.652c-1.34 1.97-2.706 4.372-4.094 7.042a76.978 76.978 0 0 0-3.68 8.706l-.03.09-.095-.123c.111-.695.223-1.39.345-2.086a112.875 112.875 0 0 1 2.64-10.822c1.076-3.413 2.175-6.588 3.31-9.252a65.316 65.316 0 0 1 1.573-3.63c.482-1.078.915-2.015 1.31-2.77l1.2-2.396-1.87 2.109a58.866 58.866 0 0 0-2.098 2.474 74.284 74.284 0 0 0-2.624 3.3c-1.913 2.443-3.943 5.415-6.042 8.695a124.551 124.551 0 0 0-4.2 7.347c-1.765-1.692-3.51-3.219-5.212-4.501-.708-.548-1.37-1.085-2.027-1.57l-.36-.248c.054-.616.117-1.212.191-1.783a44.25 44.25 0 0 1 .436-3.177c.143-.946.278-1.77.43-2.442l.431-2.123-1.16 1.975a40.51 40.51 0 0 0-1.275 2.312c-.49.901-1.022 1.93-1.546 3.073-.055.112-.11.237-.164.35l-.605-.412c-.53-.349-1.05-.634-1.502-.909l-2.87-1.691 2.409 2.202c.375.353.806.724 1.237 1.162l.783.825c-.873 1.94-1.735 4.13-2.586 6.503a83.22 83.22 0 0 0-.584 1.804 121.177 121.177 0 0 0-3.59-10.962c-1.482-3.715-2.977-7.139-4.463-9.998a72.982 72.982 0 0 0-2.056-3.885c-.626-1.149-1.188-2.144-1.69-2.947l-1.533-2.538.85 2.804c.284.884.577 1.971.891 3.217.332 1.24.681 2.64.991 4.178.435 1.894.805 4.011 1.137 6.244-.297.255-.597.515-.925.807l-1.337 1.178c-.459.425-.916.89-1.411 1.368-2.012 1.905-4.115 4.32-6.29 7.052a74.833 74.833 0 0 0-3.608 5.208c-.368-.926-.742-1.84-1.124-2.727-1.257-2.836-2.5-5.453-3.691-7.645a70.89 70.89 0 0 0-1.643-2.98c-.5-.881-.943-1.646-1.332-2.266l-1.2-1.954.516 2.219c.172.7.348 1.558.535 2.542.2.978.406 2.081.588 3.29.41 2.401.72 5.219.962 8.194.203 2.987.28 6.149.203 9.271a103.61 103.61 0 0 1-.329 5.419c-.086.24-.184.482-.267.722-.318.973-.61 1.933-.885 2.88a167.5 167.5 0 0 0-.37-3.208 118.242 118.242 0 0 0-1.922-10.372 120.124 120.124 0 0 0-2.939-10.146c-1.125-3.189-2.256-6.134-3.376-8.61a71.762 71.762 0 0 0-1.551-3.367 57.013 57.013 0 0 0-1.271-2.564l-1.155-2.215.455 2.442c.153.772.3 1.717.454 2.797.17 1.076.34 2.29.474 3.617.324 2.64.509 5.73.607 8.993a106.87 106.87 0 0 1-.313 10.146 104.622 104.622 0 0 1-1.345 9.894 106.813 106.813 0 0 1-1.52 6.697c.063-1.385.098-2.83.1-4.324a80.782 80.782 0 0 0-.793-10.105 81.909 81.909 0 0 0-2.174-9.89c-.947-3.1-1.945-5.958-3.003-8.347-.492-1.204-1-2.288-1.473-3.241-.453-.958-.863-1.788-1.24-2.457l-1.144-2.112.446 2.347c.153.738.289 1.645.423 2.683a45.81 45.81 0 0 1 .385 3.464c.254 2.522.289 5.472.195 8.56a72.67 72.67 0 0 1-1.1 9.52c-.15.751-.316 1.493-.487 2.232a49.195 49.195 0 0 1-.345 4.133c-.371 2.972-5.502 2.663-5.441-.325l.001-.039c.106-2.666.396-5.374.836-7.933.477-2.54 1.039-4.957 1.694-6.997.301-1.034.624-1.97.932-2.799.294-.836.565-1.565.82-2.154l.78-1.876-1.398 1.511a39.196 39.196 0 0 0-1.557 1.77 47.64 47.64 0 0 0-1.928 2.362c-1.4 1.743-2.867 3.872-4.356 6.205a76.525 76.525 0 0 0-4.102 7.577c-.23.504-.446 1.011-.664 1.518a74.615 74.615 0 0 1-1.226-5.185 72.43 72.43 0 0 1-1.1-9.52c-.095-3.088-.059-6.038.194-8.56.09-1.272.234-2.433.387-3.464.132-1.038.268-1.945.42-2.683l.447-2.347-1.144 2.112c-.377.67-.787 1.5-1.24 2.457a48.819 48.819 0 0 0-1.473 3.241c-1.058 2.389-2.056 5.246-3.003 8.347a81.909 81.909 0 0 0-2.174 9.89 80.783 80.783 0 0 0-.793 10.105c.002 1.494.037 2.94.1 4.324a106.813 106.813 0 0 1-1.52-6.697 105.095 105.095 0 0 1-1.345-9.894c-.268-3.413-.37-6.873-.313-10.146.098-3.263.283-6.353.607-8.993.135-1.327.305-2.541.474-3.617.154-1.08.301-2.025.454-2.797l.455-2.442-1.155 2.215a55.926 55.926 0 0 0-1.27 2.564 71.762 71.762 0 0 0-1.552 3.367c-1.12 2.476-2.25 5.421-3.376 8.61a119.592 119.592 0 0 0-2.938 10.146c-.81 3.5-1.464 7.034-1.923 10.372a164.885 164.885 0 0 0-.37 3.208 88.955 88.955 0 0 0-.885-2.88c-.083-.24-.18-.482-.267-.722a103.61 103.61 0 0 1-.33-5.419c-.076-3.122 0-6.284.204-9.271.241-2.975.551-5.793.962-8.194.182-1.209.389-2.312.588-3.29a51.01 51.01 0 0 1 .535-2.542l.515-2.219-1.199 1.954c-.39.62-.832 1.385-1.332 2.266-.51.879-1.07 1.876-1.643 2.98-1.192 2.192-2.434 4.809-3.69 7.645a99.609 99.609 0 0 0-1.125 2.727 74.833 74.833 0 0 0-3.608-5.208c-2.175-2.732-4.279-5.147-6.29-7.052-.495-.478-.952-.943-1.411-1.368l-1.337-1.178a60.344 60.344 0 0 0-.925-.807c.332-2.233.702-4.35 1.137-6.244.31-1.538.659-2.938.99-4.178.315-1.246.608-2.333.891-3.217l.851-2.804-1.533 2.538c-.502.803-1.064 1.798-1.69 2.947a72.982 72.982 0 0 0-2.056 3.885c-1.486 2.859-2.98 6.283-4.463 9.998a121.177 121.177 0 0 0-3.59 10.962 83.22 83.22 0 0 0-.584-1.804c-.851-2.373-1.711-4.563-2.586-6.503l.782-.825c.432-.438.863-.809 1.238-1.162a3610.44 3610.44 0 0 1 2.409-2.202l-2.87 1.691c-.452.275-.973.56-1.502.909l-.605.412c-.055-.113-.11-.238-.164-.35a50.475 50.475 0 0 0-1.546-3.073 40.882 40.882 0 0 0-1.275-2.312c-.737-1.257-1.16-1.975-1.16-1.975l.431 2.123c.152.672.287 1.496.43 2.442.162.943.32 2.008.436 3.177.074.571.137 1.167.192 1.783l-.36.248c-.657.485-1.32 1.022-2.028 1.57-1.701 1.282-3.447 2.809-5.212 4.501a124.551 124.551 0 0 0-4.2-7.347c-2.1-3.28-4.13-6.252-6.042-8.695a73.247 73.247 0 0 0-2.624-3.3 58.865 58.865 0 0 0-2.097-2.474l-1.87-2.109 1.199 2.396c.395.755.828 1.692 1.31 2.77a65.317 65.317 0 0 1 1.574 3.63c1.134 2.664 2.233 5.84 3.308 9.252a112.875 112.875 0 0 1 2.64 10.822c.125.696.235 1.391.346 2.086l-.096.123-.028-.09a76.978 76.978 0 0 0-3.681-8.706c-1.388-2.67-2.755-5.072-4.094-7.042a45.756 45.756 0 0 0-1.836-2.652 37.716 37.716 0 0 0-1.492-1.978l-1.338-1.677.634 1.895a32.2 32.2 0 0 1 .666 2.186c.251.844.514 1.8.745 2.855.53 2.093.94 4.57 1.284 7.216.299 2.657.443 5.493.421 8.32a72.93 72.93 0 0 1-.182 3.577 71.645 71.645 0 0 0-4.198-4.835c-2.475-2.479-4.847-4.643-7.073-6.3-.55-.42-1.058-.828-1.564-1.195-.436-.3-.843-.579-1.245-.868-1.25-2.976-2.514-5.655-3.81-7.855l-.903-1.572-.881-1.387c-.544-.866-1.03-1.608-1.475-2.205l-1.336-1.868.625 2.067c.215.653.42 1.459.639 2.385l.362 1.47.32 1.644c.48 2.282.777 4.982.984 7.861a67.43 67.43 0 0 1-.164 9.016 68.438 68.438 0 0 1-1.169 7.322 29.945 29.945 0 0 0-1.766-2.937c-1.362-1.862-2.714-3.43-4.072-4.595-.33-.293-.629-.576-.936-.828l-.908-.684c-.554-.426-1.041-.775-1.486-1.029a447.09 447.09 0 0 1-1.316-.805l.681 1.149c.236.352.462.812.706 1.344l.404.833c.126.302.234.628.36.96.545 1.315.901 2.94 1.181 4.66.216 1.742.225 3.604.042 5.435a25.94 25.94 0 0 1-.452 2.4 108.167 108.167 0 0 0-3.379-5.333 106.161 106.161 0 0 0-5.777-7.609c-1.98-2.316-3.864-4.4-5.59-6.099a64.716 64.716 0 0 0-2.356-2.29 50.778 50.778 0 0 0-1.861-1.706l-1.644-1.449.993 1.768a45.13 45.13 0 0 1 1.097 2.043c.418.79.875 1.687 1.334 2.68.966 1.965 1.942 4.313 2.916 6.834a94.028 94.028 0 0 1 2.557 8.014 93.496 93.496 0 0 1 1.195 5.282 41.217 41.217 0 0 1-4.273-4.388c-1.35-1.577-2.588-3.332-3.786-5.18a53.674 53.674 0 0 1-3.177-5.882c-3.79-8.23-5.37-17.43-6.24-24.226a242.24 242.24 0 0 1-.885-8.237l-.282-3.112s-.17 1.113-.464 3.062a224.789 224.789 0 0 0-1.087 8.177c-.293 2.699-.578 5.813-.7 9.185l-.103.085c-.402.343-.83.708-1.284 1.091l-1.347 1.27c-1.91 1.758-3.896 3.988-5.895 6.47a63.026 63.026 0 0 0-4.363 6.465c-1.396-3.498-2.536-7.106-3.343-10.612-.793-3.901-1.355-7.666-1.443-10.924-.034-.815-.088-1.604-.098-2.352l.04-2.127c.016-.673.03-1.303.042-1.887.025-.583.091-1.114.129-1.598l.281-3.06-1.01 2.913c-.154.465-.352.976-.516 1.541l-.505 1.838c-.18.657-.37 1.357-.57 2.095-.175.741-.32 1.527-.492 2.345-.449 2-.777 4.226-1.013 6.605-1.683 2.405-5.698 8.262-9.262 14.397-.526.888-1.04 1.779-1.542 2.664a38.24 38.24 0 0 0-1.833-10.998 37.513 37.513 0 0 0-4.442-9.198c-1.658-2.475-3.314-4.302-4.49-5.529-1.23-1.199-1.937-1.841-1.937-1.841l1.282 2.155c.744 1.4 1.747 3.43 2.568 5.973a32.567 32.567 0 0 1 1.53 8.873 33.094 33.094 0 0 1-.208 4.93c-2.023-1.14-3.912-2.031-5.63-2.561-.445-.145-.855-.294-1.259-.409-.41-.1-.798-.194-1.163-.281-.712-.182-1.327-.314-1.857-.372l-1.587-.227 1.19.775c.389.225.822.556 1.304.946l.777.6c.263.225.518.483.797.736 1.138.988 2.245 2.34 3.32 3.808.912 1.345 1.698 2.845 2.341 4.386l-.001.054c-.38.837-.65 1.705-1.084 2.504-.695 1.525-3.4 6.026-2.539 4.5 2.54-4.5-1.798 2.673-2.728 3.982a99.705 99.705 0 0 0-.569-2.079c-.982-3.283-2.277-6.683-3.757-9.957a82.69 82.69 0 0 0-5.065-9.216c-1.852-2.797-3.654-5.3-5.383-7.325a50.417 50.417 0 0 0-2.366-2.723c-.714-.795-1.346-1.475-1.905-2.014l-1.698-1.697 1.035 1.995c.343.627.71 1.411 1.115 2.314l.66 1.428c.206.513.425 1.05.653 1.612.942 2.231 1.8 4.907 2.61 7.777a72.212 72.212 0 0 1 1.403 6.663c-1.283-1.44-2.515-2.735-3.673-3.817a43.137 43.137 0 0 0-1.992-1.826 35.191 35.191 0 0 0-1.577-1.345l-1.395-1.129.735 1.435c.244.452.507 1.014.8 1.66.304.64.633 1.37.95 2.177.686 1.595 1.334 3.503 1.959 5.548a60.86 60.86 0 0 1 1.468 6.484c.145.949.267 1.898.365 2.835.018.155.02.309.01.46-.148 2.158-3.596 2.673-4.69.73l-.013-.021c-1.496-2.688-2.83-5.738-4.024-8.886-1.169-3.155-2.128-6.41-2.957-9.498a183.715 183.715 0 0 1-1.965-8.51A390.143 390.143 0 0 1 270.286 27s-.482 3.256-1.082 8.244c-.309 2.488-.589 5.433-.825 8.613a128.324 128.324 0 0 0-.241 6.913 42.735 42.735 0 0 1-2.01-4.861 41.83 41.83 0 0 1-1.71-8.007c-.227-2.642-.279-5.216-.03-7.42.053-.552.093-1.09.16-1.6.083-.506.164-.986.24-1.437.145-.913.298-1.714.477-2.359.336-1.317.53-2.069.53-2.069l-1.204 1.787c-.398.565-.82 1.275-1.286 2.101l-.75 1.314c-.247.468-.48.97-.737 1.491-1.06 2.076-1.991 4.6-2.822 7.352a49.05 49.05 0 0 0-1.576 8.828 48.8 48.8 0 0 0 .235 9.016c.414 2.875.977 5.57 1.742 7.829.102.319.2.611.297.916a76.616 76.616 0 0 1-1.245-2.681c-1.993-4.528-3.54-9.339-4.427-13.051a72.287 72.287 0 0 1-.978-4.534l-.312-1.748-.428 1.658a73.775 73.775 0 0 0-.99 4.404c-.691 3.393-1.296 7.896-1.512 12.52a269.916 269.916 0 0 1-3.293-6.792c-3.258-6.976-6.198-14.133-8.223-19.58a239.654 239.654 0 0 1-2.383-6.615l-.867-2.528.122 2.592c.08 1.65.21 4.008.429 6.835.358 4.949 1.017 11.335 1.952 17.886-1.218-1.86-2.414-3.538-3.578-4.93a37.842 37.842 0 0 0-1.944-2.275 30.343 30.343 0 0 0-1.568-1.672l-1.401-1.405.718 1.67c.243.525.49 1.179.762 1.931.289.746.592 1.593.866 2.533.619 1.856 1.125 4.075 1.574 6.443.105.628.198 1.268.281 1.917a62.774 62.774 0 0 0-1.383-4.28 59.934 59.934 0 0 0-3.957-8.34c-1.515-2.518-3.01-4.749-4.484-6.539-.36-.446-.704-.875-1.03-1.281l-.991-1.114c-.61-.698-1.153-1.289-1.64-1.755l-1.468-1.468.79 1.742c.267.546.538 1.23.834 2.017l.485 1.246.457 1.405c.671 1.947 1.204 4.278 1.666 6.768.385 2.379.6 4.92.646 7.46-.224-.295-.444-.593-.67-.888-3.255-4.245-6.76-8.222-9.51-11.066a116.842 116.842 0 0 0-3.361-3.379l-1.299-1.248s.937 2.185 2.136 5.507c1.212 3.318 2.602 7.793 3.68 12.309.458 1.917.94 4.387.932 6.706-.008 2.439-3.763 3.24-5.028 1.061l-.023-.04a108.56 108.56 0 0 1-1.542-2.808 88.094 88.094 0 0 1-3.899-8.718 88.646 88.646 0 0 1-2.871-9.24c-.709-3.021-1.283-5.912-1.59-8.416a53.215 53.215 0 0 1-.39-3.44 42.655 42.655 0 0 1-.202-2.68l-.115-2.354-.624 2.245a46.12 46.12 0 0 0-.65 2.593 55.24 55.24 0 0 0-.723 3.388c-.36 1.75-.655 3.725-.91 5.837-.24.226-.494.471-.765.737a40.987 40.987 0 0 0-1.847 1.865c-1.342 1.38-2.775 3.084-4.24 4.963a64.53 64.53 0 0 0-3.119 4.513 271.862 271.862 0 0 1-2.509-5.222 272.554 272.554 0 0 1-3.919-8.818l.054-.168c.901-2.877 1.712-5.255 2.274-6.915l.89-2.609-1.557 2.315c-.749 1.12-1.747 2.609-2.907 4.394a249.483 249.483 0 0 1-3.056-7.78 242.033 242.033 0 0 1-2.385-6.614l-.866-2.529.121 2.593c.08 1.65.21 4.007.429 6.835.293 4.046.79 9.061 1.473 14.335a238.493 238.493 0 0 0-2.33 3.967c-1.626 2.941-3.28 6.113-4.77 9.418a99.687 99.687 0 0 0-1.999-2.137 92.925 92.925 0 0 0-8.025-7.206c-.2-.154-.398-.304-.594-.451l-.837-1.101c-.973-2.608-1.788-5.152-2.267-7.367a36.089 36.089 0 0 1-.596-2.93 30.376 30.376 0 0 1-.35-2.3l-.236-2.032-.505 1.939c-.173.616-.334 1.371-.506 2.241a37.65 37.65 0 0 0-.522 2.934c-.213 1.271-.36 2.687-.487 4.192a52.322 52.322 0 0 0-3.916-2.377 43.994 43.994 0 0 0-2.491-1.36l-2.19-1.122 1.666 1.584c.54.493 1.157 1.125 1.852 1.856.71.72 1.49 1.545 2.292 2.482.86.946 1.743 2.012 2.639 3.157.005 2.45.157 5.024.471 7.603a65.218 65.218 0 0 0 1.762 8.518c.585 1.962 1.202 3.818 1.856 5.493h-.576c-.108-.51-.22-1.023-.342-1.543-.697-2.812-1.668-5.72-2.813-8.51a62.968 62.968 0 0 0-4.017-7.833c-1.497-2.369-2.961-4.474-4.38-6.172a38.225 38.225 0 0 0-1.944-2.273 30.047 30.047 0 0 0-1.582-1.687c.18-.65.362-1.27.541-1.837a41.5 41.5 0 0 1 .805-2.475l.77-2.156-1.419 1.835a44.335 44.335 0 0 0-1.573 2.141 53.954 53.954 0 0 0-1.933 2.839c-1.401 2.095-2.845 4.627-4.298 7.392a93.586 93.586 0 0 0-2.991 6.54 134.614 134.614 0 0 0-7.626-9.062 67.331 67.331 0 0 1 1.701-4.568c1.35-3.065 2.79-5.955 4.284-8.326.367-.598.71-1.181 1.06-1.724l1.038-1.517c.65-.963 1.24-1.798 1.77-2.457l1.64-2.113-2.172 1.657c-.704.519-1.512 1.189-2.424 1.973l-1.463 1.243-1.548 1.44c-2.188 1.99-4.498 4.5-6.844 7.28a73.59 73.59 0 0 0-1.757 2.244c-.186-.181-.37-.361-.531-.516l-1.297-1.248s.444 1.042 1.105 2.754a84.152 84.152 0 0 0-4.015 6.001 81.109 81.109 0 0 0-1.647 2.982 87.993 87.993 0 0 1-2.059-6.959c-.71-3.021-1.282-5.913-1.59-8.416a54.26 54.26 0 0 1-.39-3.442 44.928 44.928 0 0 1-.203-2.678l-.114-2.354-.623 2.245a46.12 46.12 0 0 0-.65 2.592 54.776 54.776 0 0 0-.725 3.39c-.51 2.49-.9 5.423-1.212 8.583a89.043 89.043 0 0 0-.247 4.186 82.26 82.26 0 0 0-4.71-5.331l-1.563-1.58-1.547-1.463c-.49-.477-1.014-.913-1.493-1.345-.485-.425-.957-.86-1.38-1.168-.86-.654-1.67-1.1-2.298-1.315-.64-.203-.97-.132-1.394-.123a2.81 2.81 0 0 0-.838.219l-.261.135.212.024c.137.026.337.077.557.201.092.055.254.156.295.217l.299.317c.284.323.694.852 1.13 1.583.245.437.502.89.767 1.36.277.507.586 1.018.856 1.567l.86 1.67.832 1.766a68.591 68.591 0 0 1 2.953 7.671c1.27 3.92 2.273 8.05 2.536 12.119-4.015-4.613-6.802-10.533-11.605-15.131a45.707 45.707 0 0 1 4.016 12.161c.448 2.509-.593 6.236-4.063 6.745-5.059.741-3.671-4.619-3.544-7.795a61.94 61.94 0 0 1 .835-7.933c.478-2.54 1.04-4.957 1.694-6.997.302-1.034.625-1.97.932-2.799a35.51 35.51 0 0 1 .82-2.154c.498-1.193.78-1.876.78-1.876l-1.398 1.511a39.196 39.196 0 0 0-1.556 1.77 47.64 47.64 0 0 0-1.928 2.362c-1.4 1.743-2.867 3.872-4.356 6.205a76.525 76.525 0 0 0-4.102 7.577c-.23.504-.446 1.011-.664 1.518a74.615 74.615 0 0 1-1.226-5.185 72.43 72.43 0 0 1-1.101-9.52c-.094-3.088-.058-6.038.195-8.56.09-1.272.233-2.433.386-3.464.133-1.038.269-1.945.422-2.683l.445-2.347-1.142 2.112c-.378.67-.788 1.5-1.241 2.457a48.812 48.812 0 0 0-1.474 3.241c-1.057 2.389-2.055 5.246-3.001 8.347a81.633 81.633 0 0 0-2.175 9.89 80.92 80.92 0 0 0-.794 10.105c.003 1.494.037 2.94.1 4.324a107.341 107.341 0 0 1-1.52-6.697 104.817 104.817 0 0 1-1.344-9.894c-.27-3.413-.37-6.873-.314-10.146.098-3.263.284-6.353.608-8.993.134-1.327.305-2.541.473-3.617.155-1.08.303-2.025.455-2.797.29-1.553.454-2.442.454-2.442L60.94 21.84c-.378.701-.8 1.566-1.272 2.564a71.375 71.375 0 0 0-1.55 3.367c-1.12 2.476-2.252 5.421-3.377 8.61a119.696 119.696 0 0 0-2.939 10.146 117.93 117.93 0 0 0-1.923 10.372 158.431 158.431 0 0 0-.368 3.21 86.723 86.723 0 0 0-.888-2.882c-.081-.24-.18-.482-.265-.722a103.597 103.597 0 0 1-.33-5.419c-.076-3.122 0-6.284.204-9.271.241-2.975.55-5.793.962-8.194.181-1.209.39-2.312.588-3.29.188-.984.363-1.842.535-2.542l.515-2.219-1.199 1.954c-.39.62-.833 1.385-1.332 2.266-.51.879-1.07 1.876-1.643 2.98-1.192 2.192-2.435 4.809-3.692 7.645-.381.886-.755 1.801-1.123 2.727a74.633 74.633 0 0 0-3.609-5.208c-2.174-2.732-4.278-5.147-6.29-7.052-.495-.478-.952-.943-1.41-1.368l-1.338-1.178a61.822 61.822 0 0 0-.924-.807c.331-2.233.703-4.35 1.136-6.244.31-1.538.66-2.938.992-4.178.315-1.246.607-2.333.89-3.217l.85-2.804-1.533 2.538c-.502.803-1.063 1.798-1.69 2.947a73.534 73.534 0 0 0-2.055 3.885c-1.486 2.859-2.981 6.283-4.463 9.998a121.132 121.132 0 0 0-3.59 10.962 87.392 87.392 0 0 0-.584-1.804c-1.082-3.017-2.178-5.753-3.298-8.03a50.98 50.98 0 0 0-1.545-3.073 41.035 41.035 0 0 0-1.276-2.312l-1.16-1.975.432 2.123c.15.672.286 1.496.43 2.442.16.943.32 2.008.435 3.177.302 2.327.435 5.06.485 7.972a81.916 81.916 0 0 1-.524 9.098 84.14 84.14 0 0 1-.945 5.722l-.008-.026c-1.314-3.714-2.931-7.58-4.717-11.336a123.156 123.156 0 0 0-5.9-10.675c-2.1-3.28-4.13-6.252-6.043-8.695a74.211 74.211 0 0 0-2.622-3.3 58.917 58.917 0 0 0-2.099-2.474L-12 16.141l1.2 2.396c.394.755.827 1.692 1.31 2.77a64.715 64.715 0 0 1 1.573 3.63c1.134 2.664 2.235 5.84 3.309 9.252a112.531 112.531 0 0 1 2.64 10.822A110.299 110.299 0 0 1-.566 55.96c.184 3.035 0 44.041 0 44.041h1002.11s-.184-41.006 0-44.041c.263-3.502.74-7.23 1.402-10.948a112.875 112.875 0 0 1 2.64-10.822c1.075-3.413 2.174-6.588 3.308-9.252a65.316 65.316 0 0 1 1.575-3.63c.482-1.078.914-2.015 1.31-2.77l1.199-2.396-1.87 2.109"/></svg>