<svg width="400" height="400" xmlns="http://www.w3.org/2000/svg"><title>background</title><path fill="none" d="M-1-1h402v402H-1z"/><title>Layer 1</title><path fill="#211d19" d="M150.886 57.145C81.548 83.32 41.58 146.195 68.163 214.432l16.498-6.225c-23.3-59.787 30.994-105.225 77.273-122.7 46.282-17.462 117.521-19.4 140.817 40.4l16.498-6.225c-26.588-68.237-99.029-88.7-168.363-62.537"/><path fill="#e93421" d="M211.476 317.389l-45.248-60.728c-9.87-13.249-28.788-16.111-42.25-6.395-9.254 6.679-13.474 17.56-12.015 28.019L84.66 208.207l-16.498 6.225 32.927 84.5 25.018 33.372c12.967 17.402 29.746 26.987 37.476 21.41.022-.019.035-.034.052-.051 10.087 12.275 28.27 14.73 41.34 5.3 13.458-9.713 16.373-28.326 6.5-41.574"/><path fill="#211d19" d="M234.929 330.673c8.397 11.273 6.751 21.813-4.703 30.075-11.455 8.27-22.16 6.65-30.56-4.62l-74.528-100.025c-8.405-11.272-6.75-21.812 4.702-30.08 11.453-8.265 22.163-6.64 30.56 4.632l74.529 100.018"/><path fill="#e93421" d="M282.624 290.541l-7.609-74.934c-1.657-16.35 10.464-30.925 27.07-32.55a30.297 30.297 0 0 1 27.97 12.925l-27.304-70.075 16.498-6.225 32.922 84.5 4.068 41.277c2.181 21.474-3.785 39.642-13.323 40.582-.027 0-.048-.005-.075-.005.84 15.762-11.012 29.554-27.136 31.142-16.609 1.635-31.42-10.292-33.081-26.637"/><path fill="#211d19" d="M274.211 315.848c1.412 13.915 9.798 20.666 23.928 19.276 14.131-1.39 20.994-9.645 19.584-23.553L305.19 188.157c-1.41-13.912-9.795-20.662-23.93-19.275-14.133 1.388-20.993 9.638-19.578 23.55l12.528 123.416"/></svg>