<svg width="1000" height="750" xmlns="http://www.w3.org/2000/svg"><title>background</title><path fill="none" d="M-1-1h582v402H-1z"/><title>Layer 1</title><path fill="#eee" d="M283.77 704.272c-61.212 0-110.835-5.54-110.835-12.372 0-3.189 10.801-6.095 28.545-8.289l-.597 8.086s19.298 5.219 32.767 5.219c9.825 0 16.546-2.776 10.409-12.382a29.052 29.052 0 0 0-3.088-4.05c13.17-.616 27.627-.957 42.799-.957 14.283 0 27.93.302 40.468.85l-.822 5.16s18.654 6.26 30.867 6.26c6.956 0 11.822-2.03 9.966-8.404 18.815 2.217 30.356 5.212 30.356 8.507 0 6.832-49.622 12.372-110.835 12.372"/><path fill="#f8f8f8" d="M340.565 507.299L322.898 504s2.117-7.048 5.147-20.525l17.041 3.632a1961.241 1961.241 0 0 1-4.521 20.192"/><path fill="#fbd8b6" d="M328.045 483.475c5.086-22.621 14.064-86.47 18.628-142.509 0 0 .768-4.761 2.833-4.291 2.759.63 2.184 4.131 1.869 5.445.351-1.194 1.471-4.204 3.723-3.594 2.268.614 1.723 3.725 1.438 4.87l.029.006c.444-1.172 1.93-4.4 4.606-3.635 2.019.578 1.972 2.525 1.643 3.928a5.59 5.59 0 0 0-.159.589c.055-.18.11-.379.159-.589.447-1.354 1.499-2.77 3.174-2.461 1.857.441.992 5.146.992 5.146-1.432 7.895-5.484 65.631-21.894 140.727l-17.041-3.632"/><path fill="#77a688" d="M328.058 483.421a.218.218 0 0 1 .006-.027.107.107 0 0 0-.006.027m.01-.044c1.696-7.568 3.823-19.71 6.072-34.588l.001.003c-2.25 14.883-4.377 27.014-6.073 34.585"/><path fill="#dfdfdd" d="M340.606 507.119l-1.115-16.889c-4.573 1.937-9.36 3.682-14.302 5.254a465.82 465.82 0 0 0 2.662-11.149l.194-.86 17.041 3.632a1984.56 1984.56 0 0 1-4.407 19.697l-.073.315"/><path fill="#e3c1a0" d="M345.086 487.107l-17.041-3.632.013-.054c0-.01.003-.019.006-.027l.004-.017c1.696-7.57 3.823-19.702 6.073-34.585 2.783 7 7.928 20.438 11.939 33.693-.329 1.537-.655 3.07-.994 4.622"/><path fill="#fbd8b6" d="M339.491 490.23s-5.923-187.545-145.316-118.211c0 0-23.492 46.952-16.879 135.431 110.913 12.945 162.195-17.22 162.195-17.22"/><path fill="#504133" d="M306.423 295.209s76.922 106.156-95.723 111.738l.295 33.718s-16.097-12.939-18.605 3.136c-2.505 16.074 18.105 8.569 18.105 8.569s-14.377 42.532-32.597 55.151c0 0-65.791-139.59-.76-143.392 0 0-.018-24.97 34.428-40.539 49.135-22.209 80.748 32.102 94.857-28.381M198.884 604.455l5.384 41.496-3.385 45.746s57.726 15.61 43.176-7.163c-13.438-21.031-34.405-3.559-34.405-3.559l8.239-37.002 1.365-28.428s58.453 3.601 108.825-10.986l2.947 33.173-7.614 47.804s53.435 17.937 38.64-6.907c-8.201-13.772-28.353-5.129-28.353-5.129l10.702-35.835 1.61-48.668-147.131 15.458"/><path fill="#f8f8f8" d="M339.491 490.23l6.524 98.767s-60.239 17.78-147.131 15.458l-21.588-97.005s100.473 8.932 162.195-17.22"/><path fill="#dfdfdd" d="M297.491 593.812l-14.687-12.96 13.316-58.483-5.485-6.597 2.23-4.806 11.725-2.276 3.454 5.39-3.689 6.946 8.191 58.549-15.055 14.237"/><path fill="#504133" d="M304.59 508.69l3.455 5.39-3.69 6.946 11.624 57.269-15.055 14.235-14.688-12.96 9.884-57.2-5.485-6.598 2.23-4.806 11.725-2.276"/><path fill="#ec6180" d="M305.375 458.464s-30.084 2.54-47.706 10.546c0 0 1.197 24.607 29.211 19.255 27.729-5.296 18.495-29.801 18.495-29.801"/><path fill="#f8f8f8" d="M181.978 529.357l14.258-10.94s-5.077-5.325-13.882-15.97l-13.55 10.954a1949.519 1949.519 0 0 0 13.174 15.956"/><path fill="#fbd8b6" d="M182.354 502.446c-14.776-17.866-50.238-67.356-79.679-115.255 0 0-2.84-3.897-4.469-2.542-2.174 1.81-.076 4.671.8 5.7-.854-.904-3.215-3.082-4.947-1.519-1.745 1.575.15 4.102.921 4.994l-.022.018c-.927-.845-3.713-3.05-5.752-1.156-1.54 1.43-.614 3.145.313 4.246.149.148.286.3.408.453a8.199 8.199 0 0 1-.408-.453c-1.012-1.003-2.59-1.792-3.944-.758-1.457 1.236 1.445 5.04 1.445 5.04 4.852 6.39 33.151 52.66 81.784 112.187l13.55-10.955"/><path fill="#504133" d="M248.595 440.732c1.141 5.91-.4 11.174-3.441 11.762-3.043.587-6.431-3.727-7.573-9.637-1.14-5.907.402-11.173 3.443-11.76 3.041-.587 6.431 3.727 7.571 9.635m68.765-13.268c1.14 5.908-.401 11.173-3.442 11.761-3.042.587-6.432-3.728-7.572-9.636-1.14-5.909.4-11.175 3.443-11.76 3.041-.588 6.431 3.726 7.571 9.635"/><path fill="#eee" d="M673.635 703.938c-65.901 0-119.324-5.962-119.324-13.32 0-7.356 53.423-13.32 119.324-13.32 65.9 0 119.323 5.964 119.323 13.32 0 7.358-53.423 13.32-119.323 13.32"/><path fill="#6a5f50" d="M673.635 694.369a3.75 3.75 0 0 1-3.75-3.75V138.352a3.75 3.75 0 1 1 7.5 0V690.62a3.75 3.75 0 0 1-3.75 3.75"/><path fill="#6a5f50" d="M673.635 275.312a3.739 3.739 0 0 1-2.651-1.098l-61.135-61.135a3.748 3.748 0 0 1 0-5.303 3.748 3.748 0 0 1 5.302 0l61.135 61.135a3.748 3.748 0 0 1-2.651 6.401m.483 120.493a3.75 3.75 0 0 1-2.651-6.402L822.51 238.356a3.748 3.748 0 0 1 5.303 0 3.748 3.748 0 0 1 0 5.303L676.769 394.706a3.737 3.737 0 0 1-2.651 1.099"/><path fill="#6a5f50" d="M733.428 336.494a3.75 3.75 0 0 1-3.75-3.75V266.61a3.75 3.75 0 1 1 7.5 0v66.133a3.75 3.75 0 0 1-3.75 3.75m-59.793 172.084a3.739 3.739 0 0 1-2.651-1.098L486.139 322.635a3.748 3.748 0 0 1 0-5.303 3.748 3.748 0 0 1 5.302 0l184.845 184.844a3.748 3.748 0 0 1-2.651 6.401"/><path fill="#6a5f50" d="M621.54 456.485a3.75 3.75 0 0 1-3.75-3.75v-66.249a3.75 3.75 0 1 1 7.5 0v66.249a3.749 3.749 0 0 1-3.75 3.75m-47.562-47.564h-53.844a3.75 3.75 0 1 1 0-7.5h53.844a3.75 3.75 0 1 1 0 7.5m100.346 195.614a3.748 3.748 0 0 1-2.651-6.401L817.535 452.27a3.752 3.752 0 0 1 5.304 0 3.752 3.752 0 0 1 0 5.304L676.975 603.436a3.737 3.737 0 0 1-2.651 1.099"/><path fill="#6a5f50" d="M715.72 563.139a3.75 3.75 0 0 1-3.75-3.75v-69.392a3.75 3.75 0 1 1 7.5 0v69.392a3.75 3.75 0 0 1-3.75 3.75m77.238-32.023h-45.215a3.75 3.75 0 1 1 0-7.5h45.215a3.75 3.75 0 1 1 0 7.5"/><path fill="#fbc131" d="M853.585 454.93c0 19.371-15.702 35.075-35.074 35.075-19.371 0-35.075-15.704-35.075-35.075 0-19.371 15.704-35.074 35.075-35.074 19.372 0 35.074 15.703 35.074 35.074"/><path fill="#d7a62a" d="M847.06 454.93c0 15.769-12.781 28.55-28.549 28.55-15.768 0-28.55-12.781-28.55-28.55 0-15.768 12.782-28.55 28.55-28.55s28.549 12.782 28.549 28.55"/><path fill="#fbc131" d="M809.87 467.586c-1.425-1.265-2.137-3.28-2.137-6.045v-1.177h7.855v.828c0 1.31.247 2.213.74 2.707.496.496 1.15.742 1.966.742.844 0 1.49-.277 1.941-.83.451-.552.676-1.222.676-2.007 0-.989-.312-1.775-.937-2.357-.625-.58-1.411-1.083-2.356-1.505a61.75 61.75 0 0 0-3.078-1.266 13.248 13.248 0 0 1-3.076-1.659c-.946-.682-1.731-1.577-2.358-2.683-.626-1.107-.937-2.545-.937-4.322 0-5.438 2.661-8.597 7.986-9.47v-2.53h4.015v2.53c2.909.292 5.018 1.172 6.328 2.64 1.31 1.47 1.965 3.704 1.965 6.7h-7.595v-.655c0-.872-.19-1.636-.567-2.29-.378-.655-.96-.982-1.746-.982-.872 0-1.512.284-1.92.851a3.1 3.1 0 0 0-.611 1.854c0 1.02.327 1.819.981 2.4.655.582 1.476 1.085 2.466 1.506a49.51 49.51 0 0 0 3.185 1.223 12.74 12.74 0 0 1 3.188 1.636c.989.699 1.811 1.614 2.465 2.749.655 1.135.984 2.648.984 4.538 0 2.968-.774 5.165-2.315 6.592-1.542 1.423-3.812 2.297-6.808 2.617v3.928h-4.015v-3.928c-2.765-.291-4.86-1.069-6.285-2.335"/><path fill="#eaf4ed" d="M857.465 430.301a2.404 2.404 0 0 1 .744-3.304 2.4 2.4 0 0 1 3.305.744 2.4 2.4 0 0 1-.744 3.305 2.402 2.402 0 0 1-3.305-.745zm-15.289-17.759a2.392 2.392 0 0 1 3.294-.755 2.39 2.39 0 0 1-2.533 4.054 2.39 2.39 0 0 1-.761-3.299zm22.108 37.087a2.396 2.396 0 0 1 2.109-2.652 2.389 2.389 0 0 1 2.645 2.105 2.385 2.385 0 0 1-2.098 2.65 2.38 2.38 0 0 1-1.967-.682 2.383 2.383 0 0 1-.69-1.421zm-42.828-43.144a2.384 2.384 0 0 1 2.633-2.115 2.395 2.395 0 0 1-.519 4.761 2.42 2.42 0 0 1-1.431-.689 2.38 2.38 0 0 1-.683-1.957zm40.605 63.525a2.398 2.398 0 0 1 3.047-1.478 2.39 2.39 0 1 1-1.564 4.518 2.334 2.334 0 0 1-.914-.564 2.408 2.408 0 0 1-.569-2.476zm-61.912-60.016a2.387 2.387 0 0 1 1.461-3.052 2.388 2.388 0 0 1 3.051 1.462 2.386 2.386 0 0 1-1.46 3.05 2.396 2.396 0 0 1-2.493-.564 2.403 2.403 0 0 1-.56-.896zm50.949 77.522l.045-.045.068-.079a2.405 2.405 0 0 1 3.384-.012c.936.936.941 2.454.011 3.384l-.068.068-.062.063.005.005a2.394 2.394 0 0 1-3.383-3.384zm-68.624-68.487a2.397 2.397 0 0 1 3.39-.007 2.393 2.393 0 1 1-3.39.007zm49.799 82.451a2.4 2.4 0 0 1 1.47-3.051 2.398 2.398 0 0 1 3.053 1.472 2.404 2.404 0 0 1-1.472 3.05 2.4 2.4 0 0 1-2.486-.57 2.486 2.486 0 0 1-.565-.901zm-61.812-63.276a2.397 2.397 0 0 1 3.047-1.479 2.389 2.389 0 0 1 1.477 3.045 2.395 2.395 0 0 1-3.954.909 2.392 2.392 0 0 1-.57-2.475zm40.268 64.63a2.38 2.38 0 0 1 2.64-2.11c1.314.141 2.255 1.332 2.115 2.645a2.386 2.386 0 0 1-2.645 2.103l-.006.007a2.369 2.369 0 0 1-1.42-.689 2.36 2.36 0 0 1-.684-1.956zm-42.76-42.152l.006.007a2.386 2.386 0 0 1 2.104-2.645 2.385 2.385 0 0 1 2.645 2.102 2.386 2.386 0 0 1-2.104 2.645 2.38 2.38 0 0 1-1.969-.681 2.425 2.425 0 0 1-.682-1.428zm22.75 34.042a2.391 2.391 0 0 1 3.3-.75 2.386 2.386 0 0 1 .749 3.298 2.39 2.39 0 0 1-3.298.75 2.277 2.277 0 0 1-.417-.327 2.407 2.407 0 0 1-.334-2.971zm-15.255-12.684a2.38 2.38 0 0 1 .745-3.294 2.39 2.39 0 0 1 3.299.74 2.402 2.402 0 0 1-.744 3.304c-.965.604-2.2.44-2.973-.333a1.99 1.99 0 0 1-.327-.417"/><path fill="#fbc131" d="M523.873 319.979c0 19.371-15.704 35.075-35.074 35.075-19.371 0-35.075-15.704-35.075-35.075 0-19.372 15.704-35.074 35.075-35.074 19.37 0 35.074 15.702 35.074 35.074"/><path fill="#d7a62a" d="M517.348 319.979c0 15.767-12.783 28.55-28.55 28.55-15.768 0-28.55-12.783-28.55-28.55 0-15.768 12.782-28.549 28.55-28.549 15.767 0 28.55 12.781 28.55 28.549"/><path fill="#fbc131" d="M480.158 332.635c-1.427-1.265-2.138-3.28-2.138-6.045v-1.178h7.855v.83c0 1.31.246 2.212.741 2.705.494.495 1.15.742 1.965.742.844 0 1.49-.275 1.942-.829.45-.553.676-1.221.676-2.008 0-.988-.314-1.773-.939-2.356-.625-.581-1.411-1.084-2.355-1.505a61.542 61.542 0 0 0-3.077-1.266 13.329 13.329 0 0 1-3.078-1.659c-.945-.682-1.73-1.577-2.356-2.684-.626-1.106-.938-2.545-.938-4.32 0-5.44 2.663-8.597 7.987-9.47v-2.532h4.015v2.532c2.908.29 5.017 1.172 6.327 2.64 1.31 1.47 1.964 3.703 1.964 6.7h-7.594v-.656c0-.872-.19-1.636-.566-2.291-.38-.655-.96-.981-1.746-.981-.874 0-1.514.283-1.92.85a3.106 3.106 0 0 0-.612 1.855c0 1.018.328 1.818.982 2.401.655.581 1.477 1.084 2.466 1.505.99.422 2.051.829 3.185 1.222a12.69 12.69 0 0 1 3.187 1.637c.988.697 1.812 1.615 2.465 2.748.654 1.135.983 2.65.983 4.54 0 2.967-.773 5.164-2.314 6.59-1.542 1.425-3.811 2.298-6.807 2.618v3.927h-4.015v-3.927c-2.765-.291-4.86-1.069-6.285-2.335"/><path fill="#eaf4ed" d="M464.169 281.025a2.403 2.403 0 0 1-3.304-.745 2.4 2.4 0 0 1 .744-3.304 2.4 2.4 0 0 1 3.305.744 2.4 2.4 0 0 1-.745 3.305zm-17.759 15.289a2.392 2.392 0 0 1-.755-3.294 2.384 2.384 0 0 1 3.299-.761 2.394 2.394 0 0 1-2.544 4.055zm37.086-22.108a2.395 2.395 0 0 1-2.65-2.109 2.386 2.386 0 0 1 2.103-2.645 2.386 2.386 0 0 1 2.651 2.098 2.38 2.38 0 0 1-.681 1.967 2.39 2.39 0 0 1-1.423.69zm-43.142 42.828a2.384 2.384 0 0 1-2.116-2.633 2.395 2.395 0 0 1 4.76.519 2.42 2.42 0 0 1-.688 1.432 2.38 2.38 0 0 1-1.956.682zm63.525-40.605a2.395 2.395 0 0 1-1.478-3.047 2.389 2.389 0 1 1 4.517 1.564 2.335 2.335 0 0 1-.564.913 2.408 2.408 0 0 1-2.475.57zM443.86 338.34a2.387 2.387 0 0 1-3.051-1.46 2.387 2.387 0 0 1 1.46-3.051 2.387 2.387 0 0 1 3.051 1.46 2.395 2.395 0 0 1-.563 2.493 2.385 2.385 0 0 1-.897.558zm77.522-50.948l-.045-.046-.078-.067a2.405 2.405 0 0 1-.011-3.384 2.395 2.395 0 0 1 3.384-.011l.067.068.063.062.005-.005a2.394 2.394 0 0 1-3.385 3.383zm-68.487 68.624a2.393 2.393 0 0 1 3.373-3.396 2.394 2.394 0 0 1-3.373 3.396zm82.452-49.799a2.4 2.4 0 0 1-3.052-1.472 2.399 2.399 0 0 1 1.473-3.051 2.405 2.405 0 0 1 3.051 1.472c.31.896.061 1.855-.57 2.486a2.519 2.519 0 0 1-.902.565zm-63.277 61.81a2.394 2.394 0 0 1-1.477-3.045 2.388 2.388 0 0 1 3.045-1.477 2.396 2.396 0 0 1 1.477 3.045 2.39 2.39 0 0 1-3.045 1.478zm64.63-40.267a2.377 2.377 0 0 1-2.107-2.639c.14-1.315 1.33-2.256 2.645-2.115a2.386 2.386 0 0 1 2.103 2.645l.005.006a2.378 2.378 0 0 1-.687 1.42 2.36 2.36 0 0 1-1.959.683zm-42.15 42.761l.006-.006a2.386 2.386 0 0 1-2.645-2.104 2.386 2.386 0 0 1 2.104-2.645 2.388 2.388 0 0 1 2.645 2.104 2.385 2.385 0 0 1-.682 1.969 2.429 2.429 0 0 1-1.428.682zm34.041-22.751a2.391 2.391 0 0 1-.751-3.299 2.388 2.388 0 0 1 3.3-.75 2.391 2.391 0 0 1 .751 3.299 2.333 2.333 0 0 1-.327.417 2.407 2.407 0 0 1-2.973.333zm-12.682 15.255a2.38 2.38 0 0 1-3.295-.744 2.39 2.39 0 0 1 .74-3.299 2.4 2.4 0 0 1 3.304.744c.603.965.44 2.2-.332 2.973-.125.123-.26.236-.417.326"/><path fill="#fbc131" d="M860.241 241.016c0 19.373-15.703 35.075-35.073 35.075-19.372 0-35.075-15.702-35.075-35.075 0-19.37 15.703-35.074 35.075-35.074 19.37 0 35.073 15.704 35.073 35.074"/><path fill="#d7a62a" d="M853.718 241.016c0 15.769-12.783 28.551-28.55 28.551-15.768 0-28.55-12.782-28.55-28.55 0-15.767 12.782-28.55 28.55-28.55 15.767 0 28.55 12.783 28.55 28.55"/><path fill="#fbc131" d="M816.528 253.672c-1.428-1.265-2.14-3.278-2.14-6.043v-1.179h7.856v.83c0 1.309.246 2.211.742 2.705.493.496 1.149.742 1.964.742.844 0 1.489-.276 1.941-.83.452-.55.677-1.22.677-2.006 0-.99-.313-1.775-.938-2.357-.626-.582-1.412-1.083-2.356-1.505a62.751 62.751 0 0 0-3.078-1.267 13.282 13.282 0 0 1-3.077-1.658c-.945-.683-1.731-1.578-2.356-2.684-.627-1.105-.94-2.545-.94-4.32 0-5.44 2.663-8.598 7.988-9.47v-2.531h4.015v2.531c2.909.291 5.019 1.171 6.328 2.64 1.31 1.47 1.965 3.702 1.965 6.699h-7.594v-.655c0-.873-.191-1.637-.567-2.292-.38-.653-.96-.98-1.747-.98-.872 0-1.513.283-1.92.85a3.11 3.11 0 0 0-.61 1.855c0 1.02.327 1.82.982 2.4.653.582 1.475 1.084 2.465 1.505.988.423 2.05.83 3.185 1.223a12.74 12.74 0 0 1 3.187 1.636c.988.699 1.811 1.615 2.466 2.75.653 1.134.982 2.648.982 4.539 0 2.967-.772 5.165-2.314 6.59-1.541 1.426-3.811 2.297-6.808 2.619v3.927h-4.015v-3.927c-2.765-.292-4.86-1.07-6.283-2.337"/><path fill="#eaf4ed" d="M864.121 216.389a2.403 2.403 0 0 1 .745-3.305 2.399 2.399 0 0 1 3.304.745 2.4 2.4 0 0 1-.744 3.305 2.402 2.402 0 0 1-3.305-.745zm-15.29-17.76a2.392 2.392 0 0 1 3.294-.755 2.383 2.383 0 0 1 .763 3.298 2.391 2.391 0 0 1-3.294.755 2.53 2.53 0 0 1-.429-.337 2.393 2.393 0 0 1-.334-2.961zm22.109 37.087a2.395 2.395 0 0 1 2.109-2.651 2.386 2.386 0 0 1 2.645 2.104 2.386 2.386 0 0 1-2.098 2.65 2.376 2.376 0 0 1-1.968-.683 2.381 2.381 0 0 1-.688-1.42zm-42.829-43.144a2.386 2.386 0 0 1 2.635-2.115 2.394 2.394 0 1 1-1.952 4.071 2.389 2.389 0 0 1-.683-1.956zm40.607 63.525a2.396 2.396 0 0 1 3.045-1.477 2.39 2.39 0 0 1 1.483 3.04 2.398 2.398 0 0 1-3.046 1.477 2.326 2.326 0 0 1-.912-.563 2.407 2.407 0 0 1-.57-2.477zm-61.913-60.017a2.387 2.387 0 0 1 1.46-3.051 2.389 2.389 0 0 1 3.053 1.461 2.39 2.39 0 0 1-1.46 3.051 2.4 2.4 0 0 1-2.494-.564 2.408 2.408 0 0 1-.559-.897zm50.949 77.522l.045-.045.067-.078a2.407 2.407 0 0 1 3.385-.012c.937.937.942 2.454.012 3.384l-.07.068-.062.062.007.005a2.394 2.394 0 0 1-3.384-3.384zm-68.623-68.487a2.393 2.393 0 1 1 3.393 3.373 2.393 2.393 0 0 1-3.393-3.373zm49.799 82.451a2.398 2.398 0 0 1 1.47-3.051 2.4 2.4 0 0 1 3.053 1.472 2.406 2.406 0 0 1-1.473 3.052 2.403 2.403 0 0 1-2.486-.57 2.482 2.482 0 0 1-.564-.903zm-61.812-63.276a2.397 2.397 0 0 1 3.046-1.478 2.388 2.388 0 0 1 1.477 3.045 2.396 2.396 0 0 1-3.045 1.478 2.5 2.5 0 0 1-.91-.569 2.396 2.396 0 0 1-.568-2.476zm40.267 64.63a2.378 2.378 0 0 1 2.64-2.109c1.314.141 2.255 1.331 2.115 2.645a2.386 2.386 0 0 1-2.645 2.104l-.006.005a2.384 2.384 0 0 1-1.421-.688 2.37 2.37 0 0 1-.683-1.957zm-42.76-42.15l.006.005a2.386 2.386 0 0 1 2.104-2.645 2.387 2.387 0 0 1 2.645 2.104 2.387 2.387 0 0 1-2.105 2.645 2.384 2.384 0 0 1-1.967-.683 2.414 2.414 0 0 1-.683-1.426zm22.75 34.04a2.392 2.392 0 0 1 3.3-.75 2.388 2.388 0 0 1 .75 3.3 2.392 2.392 0 0 1-3.3.75 2.487 2.487 0 0 1-.417-.328 2.41 2.41 0 0 1-.333-2.972zm-15.255-12.684a2.378 2.378 0 0 1 .745-3.292 2.39 2.39 0 0 1 3.3.738 2.404 2.404 0 0 1-.745 3.305c-.965.603-2.2.44-2.972-.333a1.958 1.958 0 0 1-.328-.418"/><path fill="#fbc131" d="M708.72 138.355c0 19.371-15.704 35.074-35.075 35.074-19.371 0-35.076-15.703-35.076-35.074 0-19.373 15.704-35.075 35.075-35.075 19.371 0 35.075 15.704 35.076 35.075"/><path fill="#d7a62a" d="M702.195 138.355c0 15.767-12.782 28.549-28.55 28.549-15.767 0-28.551-12.782-28.551-28.549 0-15.769 12.782-28.55 28.55-28.55 15.767 0 28.551 12.782 28.551 28.55"/><path fill="#fbc131" d="M665.004 151.011c-1.426-1.266-2.139-3.28-2.139-6.045v-1.179h7.856v.83c0 1.31.247 2.212.743 2.705.492.495 1.149.743 1.964.743.843 0 1.49-.276 1.94-.829.452-.552.677-1.222.677-2.007 0-.989-.312-1.775-.939-2.358-.625-.581-1.411-1.084-2.355-1.505a61.542 61.542 0 0 0-3.077-1.266 13.256 13.256 0 0 1-3.078-1.659c-.945-.682-1.73-1.577-2.355-2.684-.626-1.105-.938-2.545-.938-4.32 0-5.44 2.66-8.597 7.985-9.47v-2.53h4.015v2.53c2.91.292 5.02 1.172 6.328 2.64 1.31 1.47 1.964 3.703 1.964 6.7h-7.594v-.656c0-.872-.19-1.636-.566-2.291-.379-.654-.961-.981-1.747-.981-.872 0-1.513.283-1.92.851a3.111 3.111 0 0 0-.61 1.854c0 1.02.327 1.818.982 2.401.654.582 1.476 1.084 2.465 1.505.99.422 2.051.829 3.185 1.222 1.136.393 2.198.938 3.188 1.637.987.698 1.81 1.615 2.465 2.75.653 1.133.982 2.647.982 4.538 0 2.968-.771 5.164-2.314 6.59-1.541 1.425-3.81 2.298-6.808 2.618v3.929h-4.014v-3.929c-2.765-.291-4.859-1.069-6.285-2.334"/><path fill="#eaf4ed" d="M683.774 93.395a2.406 2.406 0 0 1-1.811-2.864 2.4 2.4 0 0 1 2.862-1.81 2.4 2.4 0 0 1 1.813 2.863 2.404 2.404 0 0 1-2.864 1.811zm-23.369-1.748a2.39 2.39 0 0 1 1.795-2.862 2.386 2.386 0 0 1 2.871 1.794 2.394 2.394 0 0 1-1.796 2.863 2.55 2.55 0 0 1-.541.064 2.39 2.39 0 0 1-2.329-1.859zm41.856 10.593a2.397 2.397 0 0 1-.383-3.366 2.387 2.387 0 0 1 3.357-.383 2.385 2.385 0 0 1 .391 3.358 2.387 2.387 0 0 1-3.365.391zm-60.791-.224a2.384 2.384 0 0 1 .368-3.357 2.395 2.395 0 0 1 2.998 3.732 2.42 2.42 0 0 1-1.5.526 2.38 2.38 0 0 1-1.866-.9zm73.631 16.206a2.396 2.396 0 0 1 1.11-3.197 2.388 2.388 0 0 1 3.198 1.1 2.397 2.397 0 0 1-1.109 3.199 2.336 2.336 0 0 1-1.045.247 2.408 2.408 0 0 1-2.154-1.349zm-86.217 1.34a2.385 2.385 0 0 1-1.124-3.19 2.389 2.389 0 0 1 3.191-1.125 2.387 2.387 0 0 1 1.124 3.19 2.396 2.396 0 0 1-2.161 1.365c-.344 0-.694-.08-1.03-.24zm90.844 18.792v-.064l-.01-.104a2.407 2.407 0 0 1 2.387-2.401c1.324 0 2.4 1.069 2.4 2.385v.184h.008a2.394 2.394 0 0 1-2.393 2.392 2.39 2.39 0 0 1-2.392-2.392zm-96.953.096a2.393 2.393 0 1 1 2.401 2.384 2.394 2.394 0 0 1-2.401-2.384zm93.515 23.089a2.398 2.398 0 0 1-1.116-3.198 2.397 2.397 0 0 1 3.197-1.117 2.406 2.406 0 0 1 1.118 3.198 2.403 2.403 0 0 1-2.163 1.355 2.508 2.508 0 0 1-1.036-.238zm-88.451-1.037a2.4 2.4 0 0 1 1.109-3.198 2.39 2.39 0 0 1 3.2 1.108 2.397 2.397 0 0 1-1.11 3.2 2.397 2.397 0 0 1-3.199-1.109zm74.174 17.228a2.378 2.378 0 0 1 .376-3.358c1.029-.83 2.535-.653 3.366.375a2.386 2.386 0 0 1-.384 3.358v.007a2.373 2.373 0 0 1-1.491.518 2.362 2.362 0 0 1-1.867-.9zm-60.04.43h.008a2.386 2.386 0 0 1-.383-3.358 2.387 2.387 0 0 1 3.358-.382 2.387 2.387 0 0 1 .383 3.357 2.38 2.38 0 0 1-3.366.383zm40.157 7.985a2.39 2.39 0 0 1 1.803-2.864 2.387 2.387 0 0 1 2.863 1.803 2.391 2.391 0 0 1-1.802 2.862 2.38 2.38 0 0 1-.528.065 2.407 2.407 0 0 1-2.336-1.866zm-19.756 1.817a2.38 2.38 0 0 1-1.801-2.856 2.39 2.39 0 0 1 2.855-1.809 2.401 2.401 0 0 1 1.81 2.863 2.406 2.406 0 0 1-2.338 1.866c-.174 0-.35-.016-.526-.064"/><path fill="#fbc131" d="M638.569 386.486c0 9.405-7.624 17.03-17.029 17.03-9.405 0-17.029-7.625-17.029-17.03 0-9.405 7.624-17.029 17.029-17.029 9.405 0 17.029 7.624 17.029 17.03m111.887-119.876c0 9.405-7.622 17.029-17.028 17.029-9.404 0-17.03-7.624-17.03-17.029 0-9.405 7.626-17.029 17.03-17.029 9.406 0 17.028 7.624 17.028 17.03M732.75 489.997c0 9.405-7.624 17.03-17.03 17.03-9.404 0-17.029-7.625-17.029-17.03 0-9.403 7.625-17.028 17.029-17.028 9.406 0 17.03 7.625 17.03 17.028m77.236 38.45c0 9.404-7.623 17.03-17.028 17.03-9.405 0-17.03-7.626-17.03-17.03 0-9.406 7.625-17.028 17.03-17.028 9.405 0 17.028 7.622 17.028 17.028m-180.457-318.02c0 9.405-7.625 17.03-17.029 17.03-9.405 0-17.029-7.625-17.029-17.03 0-9.405 7.624-17.028 17.029-17.028 9.404 0 17.029 7.623 17.029 17.028m-92.366 194.744c0 9.405-7.624 17.029-17.03 17.029-9.404 0-17.03-7.624-17.03-17.029 0-9.405 7.626-17.029 17.03-17.029 9.406 0 17.03 7.624 17.03 17.03"/><path fill="#ddd" d="M889.126 373.362a1.875 1.875 0 0 1-1.875-1.875V338.62a1.875 1.875 0 1 1 3.75 0v32.868c0 1.037-.84 1.875-1.875 1.875"/><path fill="#ddd" d="M900.043 356.929H878.21a1.875 1.875 0 1 1 0-3.75h21.833a1.875 1.875 0 1 1 0 3.75"/><path fill="#eaf4ed" d="M577.463 552.462a1.876 1.876 0 0 1-1.875-1.875v-32.87a1.876 1.876 0 0 1 3.75 0v32.87c0 1.035-.84 1.875-1.875 1.875"/><path fill="#eaf4ed" d="M588.379 536.026h-21.833a1.876 1.876 0 0 1 0-3.75h21.833a1.876 1.876 0 0 1 0 3.75"/><path fill="#ddd" d="M505 183.964a1.875 1.875 0 0 1-1.875-1.875v-32.87a1.876 1.876 0 0 1 3.75 0v32.87c0 1.036-.84 1.875-1.875 1.875"/><path fill="#ddd" d="M515.916 167.53h-21.832a1.874 1.874 0 1 1 0-3.75h21.832a1.874 1.874 0 1 1 0 3.75m300.973-65.083a1.875 1.875 0 0 1-1.875-1.875v-32.87a1.876 1.876 0 0 1 3.75 0v32.87c0 1.037-.84 1.875-1.875 1.875"/><path fill="#ddd" d="M827.804 86.014H805.97a1.876 1.876 0 0 1 0-3.75h21.833a1.875 1.875 0 1 1 0 3.75"/></svg>