<svg width="1000" height="1000" xmlns="http://www.w3.org/2000/svg"><title>background</title><path fill="none" d="M-1-1h582v402H-1z"/><title>Layer 1</title><path fill="#ddd" d="M1000 929.074L746.364 776.759a700.362 700.362 0 0 0-338.418-87.19H0V530.076 673.32h407.946a700.362 700.362 0 0 1 338.418 87.19L1000 913.369v15.705M748.65 601.697l-14.671-8.125L1000 446.246v16.25L748.65 601.697"/><path fill="#eee" d="M1000 277.946L746.364 426.637a700.361 700.361 0 0 1-338.418 87.19H0v159.492h407.946a700.362 700.362 0 0 1 338.418 87.19L1000 913.369v-172.47L733.979 593.572 1000 446.246v-168.3"/><path fill="#ddd" d="M288.259 625.24c-54.93 0-99.459-5.765-99.459-12.876 0-7.112 44.529-12.877 99.459-12.877 54.929 0 99.457 5.765 99.457 12.877 0 7.111-44.528 12.876-99.457 12.876"/><path fill="#fbd8b6" d="M258.935 319.701c1.3-.346 2.159.911 2.451 1.914-.367-.919-.783-2.598.774-3.179 1.795-.67 2.989 1.465 3.356 2.246l.02-.006c-.257-.77-.798-2.875.725-3.419 1.512-.538 2.443 1.465 2.748 2.265-.288-.883-.87-3.256.989-3.836 1.39-.434 2.175 2.791 2.175 2.791 11.493 66.554 30.528 135.94 30.528 135.94l-17.045-.082c-18.846-60.093-25.596-125.251-27.125-131.049 0 0-.847-3.181.404-3.585"/><path fill="#e3c1a0" d="M277.183 348.964c-4.527 0-9.625-1.26-15.18-2.824-.35-2.318-.67-4.494-.967-6.511 5.704 1.638 10.985 3.177 15.728 3.692.369 1.885.74 3.759 1.116 5.631-.231.008-.464.012-.697.012"/><path fill="#52423b" d="M366.408 559.052c-3.973-13.05-17.705 7.855-17.705 7.855s3.84-17.495-.69-23.368c-4.342-5.627-15.06 2.04-17.895 3.971l-116.553 25.627 4.549 18.693-13.416-1.575s-9.788 20.684.618 22.025c10.407 1.341 3.485-13.865 3.485-13.865s9.927 5.501 17.097 3.406c5.59-1.635 1.147-17.785.38-22.776 76.582-4.68 112.287-25.425 113.346-26.225 0 0 1.912 18.837 3.941 28.232 0 0 26.815-8.95 22.843-22"/><path fill="#fbd8b6" d="M316.668 468.622s-11.36-140.91-111.79-75.43c0 0-29.714 31.354-17.428 102.063 109.794 1.784 129.218-26.633 129.218-26.633"/><path fill="#52423b" d="M296.996 323.427s48.144 78.867-82.405 85.69l-3.747 30.158s-13.736-9.666-14.938 3.51c-1.2 13.177 13.615 6.112 13.615 6.112s-7.938 35.17-22.071 46.358c0 0-65.175-123.713.656-122.153 0 0-1.942-24.21 33.199-31.822 12.653-2.74 24.648.282 35.261 3.305 19.937 5.677 35.005 11.355 40.43-21.158"/><path fill="#e3c2a3" d="M188.051 495.226a57.937 57.937 0 0 0-.098-.382c4.957-4.167 9.136-11.259 12.453-18.64 1.86 9.125 3.24 15.392 3.817 17.912-5.01.069-9.57.589-15.02 1.051l-1.152.06"/><path fill="#493b36" d="M187.953 494.844c-11.685-45.499-16.625-93.263-18.884-116.854 3.571-2.591 8.207-4.241 14.071-4.733 5.539 42.542 12.793 81.003 17.266 102.947-3.317 7.381-7.496 14.473-12.453 18.64"/><path fill="#f8f8f8" d="M316.668 468.622l13.45 78.888s-46.594 19.804-116.553 25.629l-26.115-77.884s88.554-3.801 129.218-26.633"/><path fill="#dfdfdd" d="M246.175 541.669l-13.027-11.382 11.68-11.41c2.552.225 4.943.332 7.175.332 31.748.002 32.278-21.36 32.278-21.36l-5.608-5.412 1.533-4.56 10.362-3.222 3.655 4.522-2.64 6.64s1.533 39.16-45.408 45.852"/><path fill="#52423b" d="M290.568 484.655l3.655 4.522-2.64 6.64s1.533 35.62-45.408 42.31l-13.027-11.38 11.68-11.412c38.838 3.444 39.453-17.486 39.453-17.486l-5.608-5.412 1.533-4.56 10.362-3.222"/><path fill="#e9f3eb" d="M177.411 597.639a7.69 7.69 0 0 0-7.69-7.692 7.68 7.68 0 0 0-1.052.082 7.893 7.893 0 0 0-5.506-2.232 7.93 7.93 0 0 0-7.932 7.93c0 1.58.468 3.045 1.263 4.282-.78 1.015-1.263 2.27-1.263 3.648a6.02 6.02 0 0 0 6.019 6.02c.928 0 1.794-.227 2.579-.602a6.294 6.294 0 0 0 3.775 1.27 6.35 6.35 0 0 0 6.346-6.286 7.68 7.68 0 0 0 3.461-6.42m-38.79-14.979c0-4.565-3.7-8.265-8.263-8.265-.18 0-.357.016-.533.027a7.452 7.452 0 0 0-7.287-5.9c-4.043 0-7.326 3.222-7.44 7.237-5.055.277-9.072 4.452-9.072 9.576 0 4.859 3.613 8.865 8.297 9.504 1.681 2.782 4.726 4.648 8.215 4.648 5.016 0 9.128-3.846 9.56-8.75a8.264 8.264 0 0 0 6.523-8.077"/><path fill="#89ab95" d="M202.336 348.756l.003-.001-.003.001m.059-.039l.035-.022-.035.022m.048-.03l.053-.035-.053.034m.058-.037c4.589-2.975 10.632-5.577 18.593-7.323-7.958 1.746-14.004 4.348-18.593 7.323m18.709-7.349l.096-.021-.096.021"/><path fill="#493b36" d="M189.651 364.166c1.714-4.736 5.284-10.56 12.685-15.41l.003-.001.056-.038.035-.022.013-.009.053-.034a.017.017 0 0 1 .005-.003c4.589-2.975 10.635-5.577 18.593-7.323l.009-.001a2.59 2.59 0 0 1 .095-.021c.003-.002.007-.002.01-.003l.097-.021c3.485-.755 6.92-1.071 10.289-1.071 5.99 0 11.772 1.001 17.267 2.325-10.231 5.695-22.846 11.015-38.28 15.903-7.427 2.354-14.387 4.247-20.93 5.73"/><path fill="#ddd" d="M152.068 213.899c-15.267 16.135-45.626 66.146-32.4 104.235 12.022 34.622 32.08 59.423 99.016 38.218 66.934-21.203 67.5-52.538 55.476-87.162-13.225-38.088-71.325-59.11-91.194-65.08l9.95-34.678-70.345 22.285 29.497 22.182"/><path fill="#52423b" d="M188.686 248.346l3.302 9.508c1.423.09 2.8.33 4.125.722 1.325.391 2.536.989 3.636 1.791l-.891-5.4 16.182-5.127 7.428 21.39-17.07 5.407c-1.122-3.23-3.153-5.358-6.093-6.388-2.942-1.03-6.185-.984-9.732.14a9.769 9.769 0 0 0-2.067.958 7.7 7.7 0 0 0-1.858 1.553 5.189 5.189 0 0 0-1.1 1.972c-.207.71-.17 1.46.105 2.25.528 1.524 1.885 2.48 4.07 2.872 2.186.388 4.82.586 7.896.591 3.079.007 6.4.002 9.964-.01 3.563-.013 6.995.305 10.293.951 3.303.644 6.267 1.804 8.897 3.471 2.63 1.67 4.54 4.212 5.723 7.623 1.165 3.354 1.378 6.397.648 9.131a17.705 17.705 0 0 1-3.93 7.283c-1.889 2.12-4.194 3.931-6.909 5.436a51.66 51.66 0 0 1-8.367 3.715l3.268 9.416-15.628 4.95-4.16-11.975a36.285 36.285 0 0 1-6.935-1.555l.683 5.87-16.182 5.126-7.649-22.028 17.401-5.513c.635 1.826 1.648 3.148 3.035 3.958a11.568 11.568 0 0 0 4.524 1.51c1.624.195 3.253.153 4.878-.125s2.966-.55 4.02-.817c.813-.257 1.66-.593 2.543-1.008a12.159 12.159 0 0 0 2.383-1.465 5.204 5.204 0 0 0 1.572-2.02c.345-.785.358-1.637.04-2.55-.381-1.097-1.596-1.759-3.643-1.99-2.05-.23-4.542-.32-7.475-.27-2.937.05-6.145.086-9.624.103-3.479.024-6.824-.338-10.034-1.08-3.21-.742-6.097-1.975-8.666-3.698-2.568-1.725-4.441-4.29-5.628-7.704-1.057-3.048-1.341-5.866-.846-8.46.494-2.591 1.473-4.913 2.933-6.966 1.46-2.05 3.26-3.839 5.396-5.363 2.137-1.521 4.331-2.706 6.58-3.555l-2.668-7.679 15.63-4.95m-.048-45.39c-.244-.702-.9-1.18-1.693-1.333.541-.577.766-1.334.523-2.037-.39-1.12-1.824-1.673-3.204-1.236l-36.839 11.67c-1.381.438-2.185 1.701-1.796 2.821.244.702.899 1.182 1.692 1.334-.541.575-.766 1.333-.522 2.035.39 1.12 1.824 1.674 3.205 1.236l36.839-11.67c1.38-.437 2.183-1.7 1.795-2.82"/><path fill="#fbd8b6" d="M160.219 362.791c.047.14.099.274.149.393a3.42 3.42 0 0 0-.15-.393"/><path fill="#f8f8f8" d="M182.605 479.996a501.886 501.886 0 0 0 4.845 15.259l17.043-.26s-2.21-7.124-5.65-19.218l-16.238 4.22"/><path fill="#fbd8b6" d="M171.089 359.831s-.848-3.209-2.23-2.746c-1.846.617-1.216 2.976-.911 3.855-.322-.794-1.293-2.779-2.793-2.21-1.512.574-.929 2.667-.657 3.432l-.02.007c-.382-.773-1.618-2.884-3.4-2.178-1.343.531-1.178 1.863-.86 2.8.06.133.11.264.15.393a5.946 5.946 0 0 1-.15-.393c-.397-.896-1.212-1.796-2.34-1.471-1.242.427-.332 3.592-.332 3.592 1.507 5.277 8.517 60.063 25.059 115.084l16.238-4.219c-6.918-24.32-18.815-68.76-27.754-115.946"/><path fill="#52423b" d="M245.971 434.544c1.067 4.502.144 8.575-2.06 9.096-2.203.521-4.853-2.706-5.918-7.209-1.065-4.502-.143-8.576 2.06-9.097 2.203-.522 4.853 2.706 5.918 7.21m49.542-12.392c1.065 4.503.142 8.575-2.06 9.097-2.204.522-4.854-2.705-5.92-7.209-1.065-4.503-.143-8.575 2.06-9.096 2.205-.522 4.855 2.706 5.92 7.208"/><path fill="#ec6180" d="M283.683 461.569c0 6.988-3.92 12.656-8.753 12.656-4.834 0-8.752-5.668-8.752-12.656 0-6.99 3.918-12.657 8.752-12.657 4.834 0 8.753 5.667 8.753 12.657"/><path fill="#ddd" d="M470.214 333.839a33.625 33.625 0 0 0-5.463-18.412 33.838 33.838 0 0 0 1.004-8.185c0-18.66-15.127-33.79-33.789-33.79-2.32 0-4.585.235-6.772.68a33.636 33.636 0 0 0-16.184-4.123c-.952 0-1.892.05-2.825.127a33.62 33.62 0 0 0-19.259-6.032c-17.858 0-32.471 13.857-33.696 31.405-7.22 6.197-11.8 15.382-11.8 25.643 0 1.963.178 3.882.498 5.752a33.645 33.645 0 0 0-3.705 15.378c0 18.662 15.128 33.79 33.79 33.79a33.81 33.81 0 0 0 7.077-.75 33.619 33.619 0 0 0 19.086 5.91c.824 0 1.638-.04 2.447-.098a33.648 33.648 0 0 0 21.343 7.597c16.218 0 29.762-11.429 33.032-26.67 9.163-6.044 15.216-16.424 15.216-28.222"/><path fill="#52423b" d="M393.156 341.941h18.385v16.216h-18.385v-16.216zm17.753-4.562h-17.165v-1.717c0-2.92.331-5.292.995-7.115a15.745 15.745 0 0 1 2.957-4.99c1.31-1.506 4.254-4.156 8.832-7.95 2.438-1.988 3.658-3.81 3.658-5.466 0-1.656-.49-2.944-1.468-3.862-.98-.918-2.462-1.378-4.448-1.378-2.139 0-3.907.708-5.31 2.123-1.4 1.416-2.295 3.885-2.686 7.408l-17.526-2.168c.6-6.444 2.942-11.632 7.023-15.562 4.08-3.93 10.337-5.895 18.769-5.895 6.564 0 11.865 1.372 15.9 4.112 5.481 3.703 8.221 8.642 8.221 14.816 0 2.559-.707 5.029-2.122 7.407-1.416 2.38-4.308 5.285-8.674 8.718-3.041 2.41-4.961 4.345-5.759 5.805-.798 1.461-1.197 3.365-1.197 5.714"/><path fill="#ddd" d="M358.476 392.227c0 5.688-4.611 10.298-10.298 10.298-5.688 0-10.298-4.61-10.298-10.298 0-5.687 4.61-10.298 10.298-10.298 5.687 0 10.298 4.611 10.298 10.298"/><path fill="#f8f8f8" d="M330.761 404.887a6.112 6.112 0 1 1-12.223 0 6.112 6.112 0 1 1 12.223 0"/></svg>