<svg width="195" height="100" xmlns="http://www.w3.org/2000/svg"><title>background</title><path fill="none" d="M-1-1h197v102H-1z"/><title>Layer 1</title><g stroke="null"><path fill="#a4b751" d="M.127 99.953h194.746V.047H.127v99.906z"/><path fill="#8b9b2c" d="M8.543 16.522v65.151a9.14 9.14 0 0 1 8.96 10.945h159.994a9.14 9.14 0 0 1 8.96-10.944V16.521a9.14 9.14 0 0 1-9.14-9.139H17.683a9.14 9.14 0 0 1-9.14 9.14"/><path fill="#a4b751" d="M143.828 50c0 25.586-20.742 46.328-46.328 46.328-25.586 0-46.328-20.742-46.328-46.328 0-25.586 20.742-46.328 46.328-46.328 25.586 0 46.328 20.742 46.328 46.328M37.411 50a7.689 7.689 0 1 1-15.378.001A7.689 7.689 0 0 1 37.411 50m135.556 0a7.689 7.689 0 1 1-15.378.001A7.689 7.689 0 0 1 172.967 50"/><path fill="#8b9b2c" d="M97.5 86.433C77.38 86.433 61.067 70.12 61.067 50S77.379 13.568 97.5 13.568c20.12 0 36.433 16.311 36.433 36.432 0 20.12-16.312 36.433-36.433 36.433zm0-77.063C75.06 9.37 56.87 27.56 56.87 50S75.06 90.63 97.5 90.63 138.13 72.44 138.13 50 119.94 9.37 97.5 9.37"/></g></svg>