<svg width="1500" height="1500" xmlns="http://www.w3.org/2000/svg"><title>background</title><path fill="none" d="M-1-1h582v402H-1z"/><title>Layer 1</title><path fill="#eee" d="M0 745.105h1500v-15H0v15zM0 979.19h1500v-15H0v15zm0 234.084h1500v-15H0v15zm1050.141-281.417H763.738L517.874 797.852h284.061l248.206 134.005"/><path fill="#c05241" d="M515.53 394.621l248.208 134.005h-64.015L453.859 394.621h61.671"/><path fill="#9e4337" d="M699.723 931.857h64.014v-403.23h-64.014v403.23z"/><path fill="#a9483a" d="M453.859 394.621v403.231l245.864 134.005v-403.23L453.859 394.62"/><path fill="#eee" d="M295.64 886.164c-67.941 0-122.924-10.217-122.927-22.864-.003-6.725 15.547-12.786 40.322-17.003l-2.94 20.248s20.903 5.652 35.489 5.652c10.641 0 17.92-3.006 11.274-13.41-5.468-8.557-12.088-11.23-18.222-11.23-10.192 0-19.041 7.375-19.041 7.375l3.556-10.183c20.448-2.808 45.689-4.475 73.005-4.495h.523c17.441 0 34.027.672 49.052 1.887l-4.285 17.731s20.677 6.782 34.292 6.782c9.428 0 15.47-3.253 8.915-14.262-1.858-3.12-4.285-5.18-6.958-6.483 25.71 4.187 41.926 10.337 41.931 17.205.002 12.678-55.268 23-123.452 23.05h-.534m58.305-39.328l1.581-3.805c3.26.331 6.43.688 9.504 1.07-6.141.614-11.085 2.735-11.085 2.735"/><path fill="#fbd8b5" d="M362.643 659.422s-25.88-226.805-157.383-128.026c0 0-41.921 35.163-18.281 146.676 120.122 14.022 175.664-18.65 175.664-18.65"/><path fill="#4c3f3a" d="M211.89 615.22l-3.925-38.245c70.384-10.698 124.918-40.029 124.918-40.029-21.243-60.641-78.482-58.581-109.282-49.16-39.132 11.143-52.578 38.273-55.337 47.949-3.466-3.481-4.418-8.269-4.418-8.269-4.755 7.54-1.07 12.99-1.07 12.99-7.761 1.115-9.498 8.824-9.498 8.824 2.467-1.075 4.867-1.289 6.97-1.116-38.448 23.492 26.742 130.03 26.742 130.03 15.724-12.449 23.988-52.242 23.988-52.242s-16.067 8.713-15.493-5.946c.573-14.659 16.405-4.786 16.405-4.786"/><path fill="#fbd8b5" d="M155.471 570.37a36.73 36.73 0 0 1-.228.011s.087-.006.228-.011"/><path fill="#fbd8b5" d="M106.694 632.857c-9.025-41.952 21.212-66.08 21.212-66.08s26.812-21.862 37.838-6.377c0 0 2.522 3.145-.991 3.225-3.513.08-8.302-4.929-12.947-1.738 0 0 4.73-1.785 5.16 2.105.205 1.863-3.541 2.215-4.505 2.274-.141.005-.228.011-.228.011s.083-.002.228-.01c.912-.035 4.332-.017 4.635 2.128.448 3.151-2.356 3.377-3.263 3.371-.173-.014-.285-.011-.285-.011s.113.007.285.011c.835.06 3.222.49 2.535 3.495-.733 3.201-5.737 1.34-5.737 1.34s-11.11.516-15.918 7.279c-37.461 55.62 24.247 91.064 52.277 94.314l4.799 22.106c-35.169-5.214-76.07-25.489-85.095-67.443"/><path fill="#fbd8b5" d="M156.843 575.869c-.173-.003-.285-.01-.285-.01s.112-.003.285.01"/><path fill="#4c3f3a" d="M210.359 785.847l5.831 38.728-6.095 41.97s62.52 16.906 46.763-7.759c-14.554-22.779-37.263-3.854-37.263-3.854l11.353-32.5 1.477-24.573s64.665 3.901 119.22-11.898l.051 31.495-10.25 42.416s59.229 19.427 43.207-7.48c-8.883-14.917-30.708-5.556-30.708-5.556l12.238-29.455 3.525-48.274-159.35 16.74"/><path fill="#f8f8f8" d="M362.643 659.422l7.065 109.685s-65.242 19.255-159.35 16.74L186.99 678.194s108.804 9.552 175.653-18.772"/><path fill="#dfdfdd" d="M317.155 771.606l-15.906-14.037 14.42-63.339-5.94-7.145 2.415-5.204 12.699-2.465 3.74 5.836-3.994 7.524 8.871 63.41-16.305 15.42"/><path fill="#4c3f3a" d="M324.843 679.416l3.74 5.836-3.994 7.524 12.587 62.023-16.303 15.42-15.907-14.038 10.704-61.951-5.941-7.144 2.415-5.205 12.699-2.465"/><path fill="#76a685" d="M368.443 786.429l1.265-17.322-.014 16.438c-.401.307-.823.614-1.251.884"/><path fill="#443935" d="M365.904 787.35c-.664 0-1.303-.251-1.879-.886-.85-.938-.522-2.154.098-3.218-.532.213-1.085.354-1.618.354-.649 0-1.265-.211-1.767-.765-.77-.85-.573-1.924-.07-2.906-.428.141-.863.23-1.284.23-.65 0-1.266-.212-1.769-.764-.85-.941-.52-2.16.099-3.22-.531.212-1.085.354-1.618.354-.65 0-1.267-.213-1.77-.769-.698-.77-.533-1.805-.008-2.836 9.967-2.217 15.39-3.817 15.39-3.817l-1.265 17.322c-.838.528-1.708.921-2.54.921"/><path fill="#dfdfdd" d="M354.318 772.924c.906-1.775 2.882-3.54 3.36-3.923 3.41-2.732 7.35-6.177 11.37-10.115l.66 10.221s-5.423 1.6-15.39 3.817"/><path fill="#fbd8b5" d="M362.643 659.422l1.338 20.783c63.967 18.239 17.605 68.019-5.137 86.244-.756.605-5.255 4.662-3.353 6.758.914 1.012 2.207.887 3.388.415-.619 1.06-.949 2.28-.099 3.22.828.912 1.964.894 3.053.534-.503.981-.7 2.056.07 2.906.912 1.007 2.202.883 3.385.412-.622 1.063-.948 2.28-.098 3.217 1.778 1.96 4.154.266 6.033-1.199 52-40.572 74.046-103.3-8.58-123.29"/><path fill="#f8f8f8" d="M362.643 659.422l1.338 20.783c6.883 1.962 12.48 4.291 16.975 6.905l8.618-17.934c-7.343-3.87-16.256-7.171-26.931-9.754"/><path fill="#e9e8e7" d="M363.981 680.205c1.673.476 3.268.976 4.792 1.496l-6.13-22.279 1.338 20.783"/><path fill="#f8f8f8" d="M186.99 678.194c-6.369-.738-14.476-3.144-22.764-7.067l-.887 21.725c9.421 3.618 19.135 6.068 28.45 7.448l-4.799-22.106"/><path fill="#ec6180" d="M277.198 648.249s31.9-3.958 50.315-13.21c0 0-2.267-28.219-31.848-21.357-29.279 6.792-18.467 34.567-18.467 34.567"/><path fill="#4c3f3a" d="M317.245 589.344c1.668 5.075 4.975 8.55 7.385 7.767 2.41-.785 3.014-5.537 1.345-10.611-1.671-5.075-4.979-8.551-7.385-7.766-2.412.782-3.012 5.535-1.345 10.61m-67.032 24.613c1.665 5.075 4.968 8.555 7.383 7.768 2.402-.786 3.009-5.539 1.335-10.611-1.666-5.075-4.97-8.553-7.381-7.768-2.409.786-3.011 5.536-1.337 10.611m.537-24.506l-14.381 23.578 3.095 2.25 15.549-23.562-4.263-2.266m62.159-23.32l23.854 13.918-1.958 3.337-23.165-13.526 1.269-3.729"/><path fill="#75332b" d="M656.298 592.175l-37.852-20.63-4.2-2.289-36.406-19.842v-40.027l36.324 19.8 4.2 2.288 37.934 20.675v40.025zm-37.75 29.009l37.75 20.573v40.025l-37.667-20.528-4.2-2.29-36.591-19.944v-40.025l36.509 19.899 4.2 2.29zm.186 89.707l37.564 20.474v40.025l-37.48-20.429-4.202-2.29-36.776-20.044v-40.025l36.694 20 4.2 2.29zm.185 89.708l37.379 20.372v40.025l-37.295-20.326-4.202-2.29-36.961-20.145v-40.026l36.879 20.101 4.2 2.289zm-45.275-29.455l-37.255-20.305-.043-40.049 37.298 20.329 4.196 2.286 36.786 20.05.083 40.071-36.869-20.095-4.196-2.287zm0 44.803l-37.209-20.28-4.197-2.288-37.053-20.194v-40.026l37.01 20.172 4.199 2.288 37.25 20.303v40.025zm-41.5-112.226l-36.959-20.144v-40.025l36.916 20.12 4.199 2.29 37.344 20.353v40.025l-37.303-20.331-4.197-2.288zm-.094-89.659l-36.865-20.09v-40.027l36.823 20.07 4.198 2.287 37.438 20.405v40.027l-37.396-20.383-4.198-2.289zm-.094-89.657l-36.771-20.041v-40.027l36.729 20.02 4.199 2.288 37.53 20.456v40.025l-37.49-20.434-4.197-2.287zm45.884 119.394l36.601 19.948.083 40.072-36.684-19.995-4.196-2.288-37.349-20.356-.042-40.048 37.39 20.38 4.197 2.287zm-4.196-51.869L536.2 571.522l-.042-40.048 37.485 20.43 4.196 2.287 36.416 19.849.083 40.07-36.499-19.894-4.196-2.286zm123.98-17.255l1.095.596.42.23.584.026h64.015v-4.196h-63.482l-2.632-1.434-79.269-43.206-.08-42.457-.002-.002h63.238l-4.238-2.287h-63.2l.08 42.457-78.045-42.538-.04-42.437h62.455l-4.24-2.287H531.87l.04 42.435-78.05-42.54v4.779l37.131 20.237v40.025l-37.131-20.237v4.778l37.131 20.238 4.195 2.286 36.776 20.045.042 40.048-36.818-20.068-4.195-2.286-37.131-20.238v4.778l37.131 20.237v40.027l-37.131-20.238v4.779l37.131 20.236 4.195 2.288 36.87 20.095.041 40.048-36.911-20.118-4.195-2.287-37.131-20.237v4.777l37.131 20.238v40.025l-37.131-20.236v4.777l37.131 20.238 4.195 2.287 36.963 20.146.042 40.048-37.005-20.169-4.195-2.287-37.131-20.238v4.779l37.131 20.237v40.025L453.86 750.66v4.779l37.131 20.237 4.195 2.286 37.056 20.198.064 42.449 4.199 2.288-.064-42.448 37.204 20.276 4.196 2.287 36.971 20.152.12 42.48 4.203 2.29-.121-42.482 37.285 20.323 4.195 2.286 37.13 20.239 1.096.596.551.255h64.468v-4.195h-63.482l-2.632-1.435-37.131-20.237v-40.025l37.13 20.237 1.096.596.42.25.584.007h64.015v-4.197h-63.482l-2.632-1.433-37.131-20.239-4.195-2.286-37.388-20.379-.084-40.07 37.472 20.422 4.195 2.288 37.13 20.237 1.096.597.486.241.518.015h64.015v-4.196h-63.482l-2.632-1.435-37.131-20.238v-40.025l37.13 20.238 1.096.597.454.231.55.024h64.015v-4.195h-63.482l-2.632-1.435-37.131-20.237-4.195-2.288-37.573-20.479-.084-40.07 37.657 20.523 4.195 2.287 37.13 20.238 1.096.596.387.224.617.032h64.015v-4.196h-63.482l-2.632-1.434-37.131-20.238v-40.025l37.13 20.238 1.096.597.486.246.518.01h64.015v-4.196h-63.482l-2.632-1.435-37.131-20.238-4.195-2.287L618.54 616.4l-.084-40.071 37.842 20.625 4.195 2.286 37.13 20.239 1.096.596.486.239.518.017h64.015v-4.196h-63.482l-2.632-1.435-37.131-20.238v-40.025l37.13 20.238"/><path fill="#f5f5f5" d="M326.525 396.129l.385-.959c.116-.303.465-.933.791-1.525.357-.573.725-1.169 1.239-1.8 1.98-2.541 5.674-5.45 10.888-6.705a20.641 20.641 0 0 1 8.712-.168c3.124.625 6.414 2.205 9.001 4.777 1.308 1.267 2.367 2.772 3.245 4.355a22.563 22.563 0 0 1 1.902 4.966c.247.849.35 1.689.523 2.541.113.841.203 1.686.277 2.528l.046 1.248.019.625.007.314-.019.519-.117 2.147c.001.632-.175 1.648-.311 2.534-.142.909-.284 1.828-.544 2.636-.413 1.69-1.049 3.3-1.736 4.844-1.443 3.084-3.267 5.491-4.733 7.675-1.487 2.183-2.857 4.11-3.874 6.071a40.292 40.292 0 0 0-2.637 5.664c-.406.888-.656 1.81-.948 2.664-.278.861-.568 1.666-.755 2.469-.395 1.591-.838 2.951-1.045 4.137a105.769 105.769 0 0 1-.806 3.691l-.057.235a3.538 3.538 0 0 1-4.277 2.595 3.54 3.54 0 0 1-2.693-3.53s.04-1.497.21-4.132c.023-1.319.342-2.923.572-4.77.095-.926.354-1.901.579-2.936.244-1.033.442-2.129.819-3.25.682-2.244 1.553-4.687 2.763-7.122 1.177-2.46 2.688-4.882 4.194-7.163 1.519-2.283 2.98-4.4 3.935-6.448.458-1.036.891-2.07 1.16-3.164.196-.55.254-1.052.344-1.557.082-.53.229-.919.246-1.728l.136-2.147-.013-1.586-.14-1.729c-.108-.54-.145-1.12-.292-1.629-.471-2.116-1.353-3.857-2.53-5.151-1.178-1.298-2.717-2.144-4.396-2.6-1.68-.44-3.47-.499-5.077-.213-1.617.245-3.072.754-4.228 1.382-1.159.627-2.042 1.338-2.652 1.993-.313.31-.582.645-.777.872-.16.252-.285.307-.45.617l-.491.909a3.536 3.536 0 0 1-6.395-2.996m19.368 71.968a5.276 5.276 0 1 1-10.342-2.095 5.276 5.276 0 0 1 10.342 2.095m-121.499-122.03s.125-.4.357-1.153c.107-.363.453-1.132.777-1.853.36-.701.733-1.43 1.272-2.215 2.066-3.15 6.093-6.892 12.049-8.851a24.153 24.153 0 0 1 10.137-1.025c3.7.431 7.685 1.959 10.944 4.71 1.646 1.351 3.023 3.005 4.198 4.765 1.12 1.782 2.04 3.676 2.687 5.607.37.965.571 1.934.854 2.912.21.97.396 1.945.562 2.918l.173 1.452.081.726.039.364.026.607.069 2.514c.061.735-.048 1.936-.121 2.981-.078 1.074-.158 2.158-.384 3.125-.319 2.008-.908 3.944-1.56 5.81-1.389 3.73-3.285 6.71-4.785 9.395-1.526 2.685-2.939 5.061-3.936 7.444a47.168 47.168 0 0 0-2.535 6.852c-.39 1.073-.593 2.172-.85 3.194-.243 1.03-.504 1.996-.645 2.949-.308 1.892-.697 3.519-.824 4.921-.333 2.778-.589 4.379-.589 4.379l-.044.279a4.135 4.135 0 0 1-8.212-.425s-.096-1.75-.149-4.837c-.097-1.54.121-3.438.214-5.613.022-1.089.231-2.25.395-3.478.185-1.226.312-2.522.645-3.865.581-2.68 1.364-5.609 2.542-8.562 1.137-2.979 2.667-5.945 4.204-8.748 1.554-2.804 3.054-5.411 3.973-7.889.433-1.25.842-2.496 1.05-3.796.176-.66.195-1.251.252-1.847.046-.627.179-1.093.123-2.038l-.047-2.515-.166-1.847-.327-2.002c-.178-.618-.275-1.29-.494-1.87-.751-2.42-1.946-4.366-3.44-5.762-1.498-1.4-3.37-2.239-5.371-2.611a14.072 14.072 0 0 0-5.937.236c-1.861.44-3.508 1.17-4.795 2.012-1.291.84-2.252 1.755-2.901 2.575-.335.392-.617.808-.821 1.09-.164.31-.304.387-.466.763l-.487 1.105a4.134 4.134 0 0 1-5.447 2.126 4.137 4.137 0 0 1-2.29-5.009m29.422 82.025a6.167 6.167 0 0 1-6.851 5.4 6.168 6.168 0 1 1 1.452-12.251 6.168 6.168 0 0 1 5.4 6.851m-118.913-7.527l-.035-.758c-.015-.236.025-.763.062-1.258.064-.492.128-1.002.279-1.579.546-2.3 2.125-5.369 5.223-7.796a15.137 15.137 0 0 1 5.765-2.769c2.276-.536 4.955-.484 7.465.444 1.26.446 2.425 1.128 3.495 1.916a16.547 16.547 0 0 1 2.783 2.737c.424.49.75 1.02 1.125 1.537.332.527.649 1.062.955 1.602l.412.819.203.412.1.207.145.352.578 1.47c.192.42.385 1.153.565 1.785.182.651.366 1.308.44 1.926.24 1.254.305 2.523.319 3.763-.024 2.499-.507 4.662-.82 6.567-.328 1.91-.654 3.614-.734 5.234a29.711 29.711 0 0 0-.034 4.586c0 .715.114 1.408.18 2.067.076.66.129 1.286.249 1.878.222 1.183.34 2.225.564 3.08.396 1.71.587 2.71.587 2.71l.034.175a2.597 2.597 0 0 1-4.939 1.502s-.43-1.013-1.12-2.823c-.386-.889-.662-2.056-1.072-3.359-.22-.648-.343-1.377-.51-2.137-.152-.764-.353-1.556-.443-2.419-.229-1.706-.392-3.602-.326-5.597.034-2.002.304-4.079.614-6.062.318-1.986.647-3.845.66-5.503-.01-.832-.035-1.654-.19-2.465-.037-.428-.152-.78-.245-1.145-.107-.379-.128-.683-.363-1.229l-.564-1.474-.492-1.055-.62-1.111c-.238-.329-.439-.704-.691-.999-.96-1.269-2.082-2.162-3.26-2.667-1.184-.507-2.468-.603-3.728-.395a8.846 8.846 0 0 0-3.455 1.406c-1.004.657-1.82 1.44-2.4 2.211-.582.773-.956 1.516-1.164 2.14-.113.303-.191.608-.251.819-.031.217-.097.292-.112.549l-.052.756a2.596 2.596 0 0 1-5.182-.05m34.875 42.137a3.871 3.871 0 1 1-7.541 1.757 3.871 3.871 0 0 1 7.54-1.757"/><path fill="#eee" d="M1316.85 1162.632h-157.574l-16.888-8.335 90.172-.08-267.655-130.632H889.99v-8.873h125.193l301.667 147.92"/><path fill="#4c3f3a" d="M889.99 1023.585h10.217V815.949H889.99v207.636z"/><path fill="#a17445" d="M882.826 869.782l262.289 142.947v-57.733L882.826 812.05v57.732"/><path fill="#936334" d="M882.826 812.05h14.162l262.288 142.946h-14.161L882.826 812.05"/><path fill="#4c3f3a" d="M1152.196 951.137l7.08 3.86v207.635h-14.161l-7.164-3.898V951.097l14.245.04M904.151 815.949H889.99l-7.164-3.899h14.162l7.163 3.899"/><path fill="#4c3f3a" d="M882.826 1023.585h7.164V812.05h-7.164v211.535z"/><path fill="#fbd8b5" d="M852.54 684.71c.413 2.039 2.744 2.365 4.333 2.08-1.524.122-4.135.7-3.87 3.256.306 2.946 4.082 3.133 5.416 3.105l.004.031c-1.242.173-4.53.87-4.237 3.353.293 2.464 3.708 2.375 5.025 2.249-1.421.211-5.107 1.031-4.633 4.005.355 2.225 5.36 1.095 5.36 1.095 91.168-28.282 137.842-29.8 137.842-29.8l-7.576-21.278c-96.166 15.173-123.898 27.018-132.976 28.883 0 0-4.99 1.012-4.688 3.021m385.661-149.889c-1.957.705-1.993 3.133-1.81 4.615-.341-1.49-1.291-3.991-3.781-3.359-2.871.73-2.509 4.493-2.289 5.81l-.03.007c-.351-1.204-1.516-4.357-3.93-3.707-2.396.645-1.815 4.012-1.498 5.298-.415-1.376-1.76-4.904-4.634-4.006-2.15.672-.308 5.462-.308 5.462 41.179 86.118-29.961 68.171-29.961 68.171l3.143 22.367c97.247 4.477 51.546-87.718 48.387-96.43 0 0-1.104-5.014-3.289-4.228"/><path fill="#f8f8f8" d="M1189.96 613.112l3.143 22.367c3.966.183 7.67.19 11.175.062l-.882-20.88c-7.472-.049-13.436-1.549-13.436-1.549"/><path fill="#4c3f3a" d="M1266.85 751.427c-6.137-20.173-27.371 12.144-27.371 12.144s5.937-27.045-1.068-36.125c-6.71-8.699-23.278 3.153-27.662 6.139l-180.174 39.617 7.031 28.897-20.74-2.437s-15.13 31.975.957 34.05c16.086 2.073 5.387-21.436 5.387-21.436s15.346 8.506 26.43 5.266c8.643-2.526 1.773-27.492.586-35.208 118.387-7.234 173.58-39.304 175.218-40.54 0 0 2.957 29.118 6.094 43.643 0 0 41.45-13.835 35.312-34.01"/><path fill="#80b28d" d="M1190.575 613.255l-.355-.08.355.08"/><path fill="#eeeded" d="M1199.463 635.624a142.39 142.39 0 0 1-5.434-.105l-3.809-22.344.355.08 8.888 22.369"/><path fill="#fbd8b5" d="M1189.958 611.637s-17.56-217.83-172.813-116.606c0 0-45.934 48.47-26.941 157.775 169.727 2.758 199.754-41.169 199.754-41.169"/><path fill="#4c3f3a" d="M1135.185 387.902s111.505 121.233-114.249 136.237l5.432 42.13s-21.234-14.944-23.092 5.427c-1.853 20.369 21.047 9.449 21.047 9.449s-12.272 54.367-34.12 71.661c0 0-93.742-169.864-12.453-179.85 0 0-2.025-31.327 39.945-53.624 59.868-31.805 104.639 45.588 117.49-31.43m4.775 157.949c1.519 6.435 5.229 11.071 8.284 10.36 3.056-.712 4.304-6.509 2.782-12.941-1.523-6.436-5.233-11.074-8.285-10.361-3.057.71-4.3 6.507-2.781 12.942"/><path fill="#4c3f3a" d="M1054.69 569.104c1.516 6.433 5.221 11.075 8.283 10.36 3.046-.717 4.297-6.513 2.77-12.945-1.515-6.435-5.223-11.073-8.28-10.36-3.053.713-4.3 6.507-2.773 12.945"/><path fill="#f8f8f8" d="M1189.958 611.637l20.79 121.948s-72.028 30.615-180.173 39.617l-40.371-120.396s136.892-5.876 199.754-41.169"/><path fill="#ec6180" d="M1141.06 573.341s-37.562 5.766-59.009 17.329c0 0 3.608 30.796 38.332 21.677 34.367-9.026 20.677-39.006 20.677-39.006"/><path fill="#fbd8b5" d="M856.229 686.866a5.62 5.62 0 0 0 .644-.076 9.184 9.184 0 0 0-.644.076"/><path fill="#f8f8f8" d="M990.204 652.806a1791.98 1791.98 0 0 0-14.459 2.344l5.426 20.517c11.038-1.4 16.608-1.583 16.608-1.583l-7.575-21.278"/><path fill="#dfdfdd" d="M1082.416 735.085l-21.831-19.071 19.575-19.123c4.274.379 8.283.556 12.021.556 53.203.004 54.092-35.795 54.092-35.795l-9.4-9.067 2.572-7.644 17.361-5.399 6.127 7.578-4.424 11.127s2.57 65.625-76.093 76.838"/><path fill="#4c3f3a" d="M1156.806 639.542l6.127 7.578-4.424 11.127s2.57 59.69-76.093 70.904l-21.831-19.072 19.575-19.123c65.084 5.77 66.113-29.304 66.113-29.304l-9.4-9.067 2.572-7.644 17.361-5.399"/><path fill="#ddd" d="M962.886 828.347a3.778 3.778 0 0 1-.546-7.515 364.567 364.567 0 0 1 29.71-3.108 3.771 3.771 0 0 1 4.011 3.528 3.779 3.779 0 0 1-3.53 4.012c-9.902.635-19.691 1.657-29.088 3.045a4.002 4.002 0 0 1-.557.038zm-57.327 14.104a3.777 3.777 0 0 1-1.27-7.335c9.214-3.289 18.867-6.174 28.692-8.574a3.77 3.77 0 0 1 4.567 2.774 3.777 3.777 0 0 1-2.773 4.565c-9.575 2.339-18.977 5.148-27.946 8.351a3.83 3.83 0 0 1-1.27.22zm-52.976 26.008a3.774 3.774 0 0 1-3.177-1.727 3.78 3.78 0 0 1 1.123-5.223 254.094 254.094 0 0 1 26.129-14.764 3.78 3.78 0 0 1 3.322 6.789 245.815 245.815 0 0 0-25.35 14.32 3.758 3.758 0 0 1-2.047.605zM807.21 906.24c-.93 0-1.863-.341-2.592-1.033a3.775 3.775 0 0 1-.15-5.338 253.975 253.975 0 0 1 21.876-20.565 3.778 3.778 0 0 1 4.838 5.803 246.605 246.605 0 0 0-21.225 19.95 3.76 3.76 0 0 1-2.747 1.183zm-35.575 47.186c-.66 0-1.331-.172-1.938-.539a3.777 3.777 0 0 1-1.3-5.18 288.357 288.357 0 0 1 16.727-24.893 3.78 3.78 0 0 1 5.29-.75 3.78 3.78 0 0 1 .75 5.29 279.834 279.834 0 0 0-16.285 24.238 3.777 3.777 0 0 1-3.244 1.834zm-25.488 53.389a3.776 3.776 0 0 1-3.54-5.095 344.505 344.505 0 0 1 11.652-27.589 3.776 3.776 0 1 1 6.821 3.246 336.626 336.626 0 0 0-11.393 26.98 3.778 3.778 0 0 1-3.54 2.458zm-16.13 56.981a3.777 3.777 0 0 1-3.707-4.517 385.374 385.374 0 0 1 7.01-29.103 3.77 3.77 0 0 1 4.663-2.607 3.777 3.777 0 0 1 2.607 4.662 378.618 378.618 0 0 0-6.872 28.529 3.778 3.778 0 0 1-3.7 3.036"/></svg>