<svg width="825" height="825" xmlns="http://www.w3.org/2000/svg"><title>background</title><path fill="none" d="M-1-1h827v827H-1z"/><title>Layer 1</title><path d="M403.254 190.36c-125.822 0-227.82 101.998-227.82 227.818 0 125.821 101.998 227.82 227.82 227.82 125.82 0 227.818-101.999 227.818-227.82 0-125.82-101.998-227.819-227.818-227.819m175.612 2.981a1.436 1.436 0 0 0 1.771-2.263 292.376 292.376 0 0 0-14.032-10.309 1.436 1.436 0 1 0-1.631 2.365 289.132 289.132 0 0 1 13.892 10.207m25.811 22.817a1.432 1.432 0 0 0 2.031-.003 1.438 1.438 0 0 0-.002-2.032 291.486 291.486 0 0 0-12.689-11.913 1.439 1.439 0 0 0-2.027.125 1.435 1.435 0 0 0 .125 2.028 288.682 288.682 0 0 1 12.562 11.795m22.885 25.735a1.434 1.434 0 0 0 2.018.24c.624-.49.731-1.394.241-2.018a292.733 292.733 0 0 0-11.166-13.341 1.436 1.436 0 1 0-2.146 1.91 287.713 287.713 0 0 1 11.053 13.209m19.623 28.281a1.438 1.438 0 0 0 1.974.481 1.437 1.437 0 0 0 .48-1.975 290.753 290.753 0 0 0-9.478-14.579 1.436 1.436 0 1 0-2.36 1.64 286.153 286.153 0 0 1 9.384 14.433m40.797 130.175a1.436 1.436 0 0 0 1.433 1.349l.09-.003a1.436 1.436 0 0 0 1.345-1.522 291.344 291.344 0 0 0-1.591-17.327 1.432 1.432 0 0 0-1.6-1.252 1.436 1.436 0 0 0-1.252 1.6 288.918 288.918 0 0 1 1.575 17.155M369.027 701.427a286.054 286.054 0 0 1-17.035-2.562 1.437 1.437 0 1 0-.512 2.829 290.52 290.52 0 0 0 17.207 2.586 1.437 1.437 0 0 0 .34-2.854M534.856 163.38a1.434 1.434 0 0 0 .606 1.938 287.796 287.796 0 0 1 15.028 8.464 1.437 1.437 0 0 0 1.484-2.46 288.821 288.821 0 0 0-15.18-8.549 1.434 1.434 0 0 0-1.938.606M335.145 695.277a284.595 284.595 0 0 1-16.6-4.605 1.437 1.437 0 0 0-.852 2.744 289.424 289.424 0 0 0 16.768 4.653 1.438 1.438 0 0 0 1.737-1.054 1.438 1.438 0 0 0-1.053-1.738m168.851-544.079a283.816 283.816 0 0 1 15.95 6.582 1.438 1.438 0 0 0 1.899-.722 1.437 1.437 0 0 0-.723-1.899 287.655 287.655 0 0 0-16.11-6.65 1.436 1.436 0 1 0-1.016 2.689m-171.187-11.021a1.437 1.437 0 0 0 1.74 1.05 285.162 285.162 0 0 1 16.838-3.624 1.436 1.436 0 1 0-.518-2.826 287.985 287.985 0 0 0-17.012 3.66c-.768.19-1.24.97-1.048 1.74m70.598 563.281h-.153c-5.682 0-11.424-.17-17.067-.503a1.436 1.436 0 1 0-.17 2.869 293.96 293.96 0 0 0 17.237.508h.153a1.436 1.436 0 0 0 0-2.874M301.17 151.605c.17 0 .342-.03.511-.095a284.378 284.378 0 0 1 16.278-5.642 1.435 1.435 0 0 0 .94-1.8 1.439 1.439 0 0 0-1.8-.943 286.878 286.878 0 0 0-16.44 5.7 1.437 1.437 0 1 0 .511 2.78M402.792 132.9h.462c5.58 0 11.22.162 16.762.484l.085.001a1.437 1.437 0 0 0 .081-2.87 294.466 294.466 0 0 0-16.935-.49l-.455.002a1.436 1.436 0 0 0 0 2.872m68.273 8.111a283.828 283.828 0 0 1 16.605 4.587 1.438 1.438 0 0 0 .85-2.746 288.415 288.415 0 0 0-16.773-4.634 1.44 1.44 0 0 0-1.737 1.055 1.439 1.439 0 0 0 1.055 1.737m-33.886-6.114c4.515.535 9.05 1.215 13.552 1.97v7.16h-12.694a1.303 1.303 0 1 0 0 2.604h12.694v12.695a1.302 1.302 0 1 0 2.606 0V146.63h12.695a1.302 1.302 0 1 0 0-2.605h-12.695v-6.731c.29.051.588.092.878.145a1.438 1.438 0 0 0 1.67-1.159 1.437 1.437 0 0 0-1.159-1.669c-.46-.083-.929-.148-1.389-.228v-3.054a1.303 1.303 0 0 0-2.606 0v2.624c-4.392-.728-8.812-1.389-13.216-1.912a1.448 1.448 0 0 0-1.595 1.26 1.438 1.438 0 0 0 1.259 1.595m-68.937.119c.058 0 .117-.003.177-.01a289.186 289.186 0 0 1 17.155-1.568 1.436 1.436 0 1 0-.177-2.868c-5.78.354-11.61.886-17.327 1.583a1.439 1.439 0 0 0-1.253 1.6 1.44 1.44 0 0 0 1.425 1.263m303.684 383.5a1.436 1.436 0 0 0-1.852.834 283.6 283.6 0 0 1-6.61 15.938 1.44 1.44 0 0 0 1.31 2.027c.547 0 1.07-.314 1.31-.846a288.04 288.04 0 0 0 6.676-16.1 1.435 1.435 0 0 0-.834-1.853m10.126-33.132a1.438 1.438 0 0 0-1.736 1.052 286.824 286.824 0 0 1-4.615 16.597 1.436 1.436 0 1 0 2.744.853 286.666 286.666 0 0 0 4.66-16.765 1.436 1.436 0 0 0-1.053-1.737m-5.163-151.635a1.436 1.436 0 0 0 1.371-1.866 286.901 286.901 0 0 0-5.708-16.442 1.438 1.438 0 0 0-2.686 1.025 283.725 283.725 0 0 1 5.653 16.275 1.436 1.436 0 0 0 1.37 1.008m-12.33-32.311a1.437 1.437 0 0 0 1.308-2.031 288.255 288.255 0 0 0-7.65-15.607 1.435 1.435 0 1 0-2.54 1.343 285.212 285.212 0 0 1 7.57 15.45c.242.53.764.845 1.312.845m-6.718 248.753a1.438 1.438 0 0 0-1.94.602 283.835 283.835 0 0 1-8.487 15.012 1.438 1.438 0 0 0 2.458 1.49 289.552 289.552 0 0 0 8.572-15.164c.37-.702.1-1.57-.603-1.94m32.128-134.058c-.794 0-1.437.642-1.437 1.436v.61c0 5.741-.172 11.534-.512 17.219a1.437 1.437 0 0 0 1.349 1.52l.087.002c.755 0 1.388-.587 1.433-1.351.343-5.741.517-11.593.517-17.39v-.61c0-.794-.642-1.436-1.437-1.436m-4.754-48.79a1.436 1.436 0 0 0 1.415-1.696 288.845 288.845 0 0 0-3.671-17.01 1.437 1.437 0 0 0-2.789.691 284.479 284.479 0 0 1 3.634 16.838 1.436 1.436 0 0 0 1.41 1.177m2.867 83.958a1.437 1.437 0 0 0-1.599 1.255 286.055 286.055 0 0 1-2.568 17.034 1.437 1.437 0 1 0 2.828.514 291.672 291.672 0 0 0 2.594-17.205 1.437 1.437 0 0 0-1.255-1.598M592.41 631.735a289.12 289.12 0 0 1-13.229 11.033 1.438 1.438 0 0 0 1.773 2.262 290.637 290.637 0 0 0 13.36-11.145 1.436 1.436 0 1 0-1.904-2.15m-87.869 53.22a285.647 285.647 0 0 1-16.284 5.624 1.437 1.437 0 0 0 .857 2.744 287.896 287.896 0 0 0 16.448-5.683 1.437 1.437 0 1 0-1.02-2.685m133.497-104.681a287.657 287.657 0 0 1-10.23 13.876 1.438 1.438 0 0 0 2.262 1.773 290.657 290.657 0 0 0 10.331-14.014 1.437 1.437 0 0 0-2.363-1.635M471.662 695.203a285.974 285.974 0 0 1-16.842 3.607 1.437 1.437 0 0 0 .516 2.827 288.54 288.54 0 0 0 17.014-3.644 1.436 1.436 0 1 0-.688-2.79m49.945-14.221a287.26 287.26 0 0 0 15.62-7.623 1.436 1.436 0 1 0-1.34-2.542 286.065 286.065 0 0 1-15.46 7.546 1.436 1.436 0 1 0 1.18 2.619m95.16-73.6a289.73 289.73 0 0 1-11.815 12.545 1.437 1.437 0 0 0 2.032 2.032c4.086-4.086 8.1-8.349 11.933-12.67a1.436 1.436 0 0 0-2.15-1.907m-178.98 94.006a288.009 288.009 0 0 1-17.155 1.55 1.436 1.436 0 0 0 .084 2.87 291.749 291.749 0 0 0 17.416-1.565 1.438 1.438 0 0 0 1.254-1.6 1.44 1.44 0 0 0-1.599-1.255m129.53-48.038a1.437 1.437 0 0 0-2-.365 285.83 285.83 0 0 1-14.447 9.363 1.438 1.438 0 0 0 1.49 2.457 289.87 289.87 0 0 0 14.594-9.456 1.438 1.438 0 0 0 .363-2M134.474 318.13a1.437 1.437 0 0 0 1.851-.836 285.543 285.543 0 0 1 6.592-15.949 1.437 1.437 0 0 0-2.62-1.176 287.257 287.257 0 0 0-6.66 16.108 1.437 1.437 0 0 0 .837 1.852m-16.083 67.234a1.439 1.439 0 0 0 1.597-1.257 286.046 286.046 0 0 1 2.552-17.037 1.436 1.436 0 1 0-2.828-.512 288.778 288.778 0 0 0-2.578 17.208 1.44 1.44 0 0 0 1.257 1.598m5.99-34.09a1.435 1.435 0 0 0 1.736-1.055 284.844 284.844 0 0 1 4.598-16.601 1.436 1.436 0 1 0-2.744-.85 286.141 286.141 0 0 0-4.644 16.77 1.435 1.435 0 0 0 1.054 1.736M240.465 655.67a1.439 1.439 0 0 0 .817-2.62 287.404 287.404 0 0 1-13.88-10.22 1.436 1.436 0 1 0-1.773 2.261 289.66 289.66 0 0 0 14.02 10.322c.25.174.535.256.816.256M122.651 469.894a1.437 1.437 0 0 0-2.828.518 287.165 287.165 0 0 0 3.653 17.013 1.436 1.436 0 0 0 2.789-.688 284.365 284.365 0 0 1-3.614-16.843m-4.677-51.409v-.307c0-5.621.166-11.311.493-16.915a1.438 1.438 0 0 0-2.87-.166 294.666 294.666 0 0 0-.497 17.081v.307a1.437 1.437 0 0 0 2.874 0m49.38 164.139a1.437 1.437 0 0 0 1.18-2.255 286.349 286.349 0 0 1-9.37-14.441 1.437 1.437 0 1 0-2.457 1.49 289.846 289.846 0 0 0 9.464 14.587c.279.403.726.62 1.183.62m34.26 37.359a1.437 1.437 0 0 0-2.032 2.031 289.49 289.49 0 0 0 12.677 11.93 1.434 1.434 0 0 0 2.027-.124 1.438 1.438 0 0 0-.122-2.03 287.31 287.31 0 0 1-12.55-11.807m-70.715-116.656a1.437 1.437 0 0 0-2.744.856 287.946 287.946 0 0 0 5.691 16.446 1.437 1.437 0 1 0 2.686-1.022 283.44 283.44 0 0 1-5.633-16.28m-12.395-67.621a1.433 1.433 0 0 0-1.522-1.347 1.435 1.435 0 0 0-1.346 1.52c.35 5.774.879 11.603 1.573 17.328a1.437 1.437 0 1 0 2.852-.345 288.45 288.45 0 0 1-1.557-17.156m30.018-149.267a1.437 1.437 0 0 0 1.94-.605 286.215 286.215 0 0 1 8.472-15.02 1.438 1.438 0 0 0-2.46-1.487 288.69 288.69 0 0 0-8.557 15.174 1.436 1.436 0 0 0 .605 1.938m153.702 398.612a282.937 282.937 0 0 1-15.942-6.599 1.437 1.437 0 1 0-1.18 2.621 287.437 287.437 0 0 0 16.105 6.666 1.437 1.437 0 0 0 1.016-2.689m-123.466-90.826a1.436 1.436 0 1 0-2.26 1.774 289.913 289.913 0 0 0 11.15 13.355 1.435 1.435 0 0 0 2.03.121 1.438 1.438 0 0 0 .12-2.03 287.044 287.044 0 0 1-11.04-13.22M167.11 256.954c.457 0 .905-.216 1.184-.621a288.693 288.693 0 0 1 10.215-13.886c.49-.625.38-1.528-.245-2.017a1.434 1.434 0 0 0-2.017.245 290.127 290.127 0 0 0-10.318 14.027 1.436 1.436 0 0 0 1.18 2.252m21.352-27.266a1.43 1.43 0 0 0 1.076-.485 287.766 287.766 0 0 1 11.803-12.555 1.438 1.438 0 0 0-2.035-2.03 291.334 291.334 0 0 0-11.92 12.681 1.436 1.436 0 0 0 1.076 2.389m80.978 443.754a1.436 1.436 0 0 0 1.336-2.545 284.655 284.655 0 0 1-15.018-8.478 1.436 1.436 0 0 0-1.487 2.459 288.628 288.628 0 0 0 15.169 8.564m-57.477-470.767a1.436 1.436 0 1 0 1.908 2.15c4.277-3.8 8.724-7.518 13.216-11.048a1.437 1.437 0 0 0-1.776-2.259 288.689 288.689 0 0 0-13.348 11.157m-62.546 350.379a1.435 1.435 0 0 0 1.27-2.106 286.102 286.102 0 0 1-7.554-15.459 1.438 1.438 0 0 0-2.618 1.184 289.53 289.53 0 0 0 7.63 15.614c.257.487.756.767 1.272.767M269.681 165.85c.226 0 .455-.055.67-.167a285.196 285.196 0 0 1 15.453-7.564 1.437 1.437 0 1 0-1.184-2.617 287.335 287.335 0 0 0-15.611 7.64 1.435 1.435 0 0 0-.6 1.94c.258.488.756.767 1.272.767m-29.56 17.953c.281 0 .568-.084.818-.257a286.844 286.844 0 0 1 14.437-9.377 1.436 1.436 0 1 0-1.491-2.455 290.21 290.21 0 0 0-14.584 9.471 1.435 1.435 0 0 0 .82 2.618m309.226 564.796c-.72 0-1.303.584-1.303 1.304v11.862a1.302 1.302 0 1 0 2.606 0v-11.862c0-.72-.583-1.304-1.303-1.304m-17.895 7.4a1.303 1.303 0 0 0-1.842 1.842l8.389 8.388a1.3 1.3 0 0 0 1.842 0 1.303 1.303 0 0 0 0-1.843l-8.389-8.387m3.902 19.189c0-.72-.583-1.303-1.303-1.303h-11.864c-.72 0-1.302.583-1.302 1.303 0 .721.582 1.303 1.302 1.303h11.864c.72 0 1.303-.582 1.303-1.303m1.32 9.506l-8.39 8.389a1.303 1.303 0 1 0 1.843 1.842l8.39-8.389a1.303 1.303 0 0 0-1.843-1.842m10.8 4.487c-.72 0-1.304.583-1.304 1.303v11.861a1.303 1.303 0 1 0 2.606 0v-11.861c0-.72-.582-1.303-1.302-1.303m11.35-3.162a1.303 1.303 0 0 0-1.843 1.842l8.388 8.39c.253.254.587.38.92.38a1.303 1.303 0 0 0 .921-2.224l-8.386-8.388m15.808-10.261H562.77a1.304 1.304 0 0 0 0 2.606h11.862a1.303 1.303 0 1 0 0-2.606m-16.326-10.047a1.3 1.3 0 0 0 0 1.843 1.3 1.3 0 0 0 1.842 0l8.388-8.388a1.303 1.303 0 1 0-1.844-1.842l-8.386 8.387M59.329 161.12c-.72 0-1.303.582-1.303 1.302v11.862a1.303 1.303 0 1 0 2.606 0v-11.862c0-.72-.583-1.303-1.303-1.303m-17.895 7.401a1.303 1.303 0 0 0-1.843 1.843l8.389 8.386a1.304 1.304 0 0 0 1.842-1.844l-8.388-8.386M32.17 189.01h11.862a1.303 1.303 0 1 0 0-2.606H32.17a1.303 1.303 0 1 0 0 2.606m14.485 8.203l-8.388 8.389a1.3 1.3 0 0 0 0 1.842 1.3 1.3 0 0 0 1.843 0l8.389-8.389a1.303 1.303 0 1 0-1.844-1.842m10.8 18.955c.721 0 1.304-.583 1.304-1.303v-11.862a1.303 1.303 0 1 0-2.607 0v11.862c0 .72.583 1.303 1.303 1.303m11.35-17.63a1.303 1.303 0 0 0-1.843 1.842l8.388 8.39a1.3 1.3 0 0 0 1.842 0 1.3 1.3 0 0 0 0-1.843l-8.387-8.389m15.81-10.26H72.75a1.303 1.303 0 1 0 0 2.606h11.864a1.303 1.303 0 0 0 0-2.606m-15.405-7.823c.333 0 .667-.127.92-.382l8.388-8.388a1.303 1.303 0 0 0-1.842-1.842l-8.388 8.387a1.303 1.303 0 0 0 .922 2.225m441.72-130.338c.72 0 1.303-.584 1.303-1.304V36.95a1.304 1.304 0 0 0-2.606 0v11.863c0 .72.583 1.304 1.303 1.304m-11.349 3.16a1.3 1.3 0 0 0 1.842 0 1.3 1.3 0 0 0 0-1.843l-8.388-8.387a1.303 1.303 0 1 0-1.843 1.843l8.389 8.387M483.77 63.54h11.862a1.303 1.303 0 1 0 0-2.607H483.77a1.302 1.302 0 1 0 0 2.606m14.485 8.203l-8.389 8.388a1.303 1.303 0 1 0 1.844 1.843l8.387-8.389a1.303 1.303 0 0 0-1.842-1.843m10.801 18.956c.72 0 1.303-.583 1.303-1.303V77.532a1.303 1.303 0 1 0-2.607 0v11.862c0 .72.583 1.303 1.304 1.303m17.894-7.399a1.3 1.3 0 0 0 1.842 0 1.3 1.3 0 0 0 0-1.843l-8.387-8.388a1.303 1.303 0 0 0-1.843 1.842l8.388 8.389m-3.901-19.188c0 .72.582 1.303 1.302 1.303h11.864a1.303 1.303 0 0 0 0-2.606H524.35a1.3 1.3 0 0 0-1.302 1.302m-2.239-9.125c.333 0 .667-.127.92-.382l8.388-8.388a1.303 1.303 0 0 0-1.842-1.842l-8.388 8.387a1.303 1.303 0 0 0 .922 2.225m290.928 331.038h-12.695v-12.695a1.302 1.302 0 1 0-2.606 0v12.695h-12.694a1.304 1.304 0 0 0 0 2.606h12.694v12.695a1.303 1.303 0 1 0 2.606 0v-12.695h12.695a1.303 1.303 0 1 0 0-2.606M197.024 122.207h12.693v12.695a1.303 1.303 0 1 0 2.607 0v-12.695h12.695c.72 0 1.302-.583 1.302-1.303 0-.721-.582-1.304-1.302-1.304h-12.695v-12.695c0-.72-.583-1.302-1.304-1.302-.72 0-1.303.582-1.303 1.302V119.6h-12.693a1.303 1.303 0 1 0 0 2.607m-19.709 560.92H164.62v-12.695a1.304 1.304 0 0 0-2.606 0v12.695H149.32a1.303 1.303 0 1 0 0 2.606h12.694v12.695a1.303 1.303 0 1 0 2.606 0v-12.695h12.695c.72 0 1.302-.583 1.302-1.304a1.3 1.3 0 0 0-1.302-1.302m534.916 21.753a7.136 7.136 0 0 1-7.129-7.13 7.136 7.136 0 0 1 7.13-7.128 7.136 7.136 0 0 1 7.128 7.128 7.136 7.136 0 0 1-7.129 7.13zm0-16.865c-5.367 0-9.735 4.368-9.735 9.735 0 5.368 4.368 9.735 9.735 9.735 5.368 0 9.735-4.367 9.735-9.735 0-5.367-4.367-9.735-9.735-9.735M340.032 6.665c3.93 0 7.13 3.198 7.13 7.13 0 3.93-3.2 7.128-7.13 7.128a7.136 7.136 0 0 1-7.128-7.129 7.136 7.136 0 0 1 7.128-7.129zm0 16.864c5.368 0 9.735-4.367 9.735-9.735 0-5.367-4.367-9.735-9.735-9.735-5.368 0-9.735 4.368-9.735 9.735 0 5.368 4.367 9.735 9.735 9.735m379.709 220.344a7.136 7.136 0 0 1-7.129-7.129 7.136 7.136 0 0 1 7.13-7.129 7.136 7.136 0 0 1 7.128 7.13 7.136 7.136 0 0 1-7.129 7.128zm0-16.864c-5.367 0-9.735 4.368-9.735 9.735 0 5.368 4.368 9.735 9.735 9.735 5.368 0 9.735-4.367 9.735-9.735 0-5.367-4.367-9.735-9.735-9.735M21.695 609.773a7.136 7.136 0 0 1-7.13-7.129c0-3.93 3.199-7.129 7.13-7.129 3.93 0 7.129 3.2 7.129 7.13a7.137 7.137 0 0 1-7.13 7.128zm0-16.864c-5.368 0-9.735 4.368-9.735 9.735 0 5.368 4.367 9.735 9.735 9.735 5.368 0 9.735-4.367 9.735-9.735 0-5.367-4.367-9.735-9.735-9.735m223.802 202.843c.508 0 1.003-.197 1.38-.574a1.94 1.94 0 0 0 0-2.763 1.943 1.943 0 0 0-2.762 0 1.955 1.955 0 0 0 1.382 3.337m-1.342 17.54a1.965 1.965 0 0 0 0 2.762h.012c.378.378.874.573 1.37.573.507 0 1.002-.195 1.393-.573a1.954 1.954 0 0 0-.013-2.762 1.942 1.942 0 0 0-2.762 0m20.876-.028a1.965 1.965 0 0 0 0 2.763c.39.39.885.575 1.38.575.508 0 1.004-.184 1.383-.575a1.942 1.942 0 0 0 0-2.763 1.967 1.967 0 0 0-2.763 0m-9.096-21.864a1.957 1.957 0 0 0 1.941-1.955 1.951 1.951 0 0 0-1.955-1.955 1.962 1.962 0 0 0-1.954 1.968c0 1.067.885 1.941 1.968 1.941m.051 25.632a1.951 1.951 0 0 0-1.954 1.956c0 1.081.873 1.954 1.954 1.954a1.96 1.96 0 0 0 1.955-1.954 1.96 1.96 0 0 0-1.955-1.956m10.386-21.346c.51 0 1.004-.195 1.394-.572a1.966 1.966 0 0 0-.012-2.763 1.954 1.954 0 0 0-2.763 0 1.969 1.969 0 0 0 0 2.775c.391.378.886.56 1.381.56m-25.175 6.608a1.951 1.951 0 0 0-1.955 1.954c0 1.082.885 1.955 1.968 1.955 1.069 0 1.941-.885 1.941-1.968a1.948 1.948 0 0 0-1.954-1.941m29.528-.093a1.942 1.942 0 0 0-1.941 1.955v.053c0 1.081.872 1.968 1.953 1.968a1.964 1.964 0 0 0 1.955-1.968v-.065a1.953 1.953 0 0 0-1.967-1.943m421.781-690.186a1.952 1.952 0 0 0-1.954 1.955c0 1.081.873 1.955 1.954 1.955a1.961 1.961 0 0 0 1.955-1.955 1.96 1.96 0 0 0-1.955-1.955m11.808-1.004a1.943 1.943 0 0 0 0-2.762 1.965 1.965 0 0 0-2.763 0 1.965 1.965 0 0 0 0 2.762c.39.392.885.574 1.38.574.508 0 1.004-.182 1.383-.574m-1.422-20.34c.51 0 1.004-.196 1.394-.573a1.967 1.967 0 0 0-.012-2.764 1.956 1.956 0 0 0-2.763 0 1.97 1.97 0 0 0 0 2.776c.391.378.886.56 1.381.56m-22.217 17.605a1.965 1.965 0 0 0 0 2.763h.012c.378.378.874.573 1.37.573.507 0 1.002-.195 1.393-.573a1.954 1.954 0 0 0-.013-2.763 1.943 1.943 0 0 0-2.762 0m1.342-17.539c.508 0 1.003-.196 1.38-.575a1.94 1.94 0 0 0 0-2.762 1.945 1.945 0 0 0-2.762 0 1.955 1.955 0 0 0 1.382 3.337m25.242 10.425a1.963 1.963 0 0 0 1.953-1.968v-.065a1.952 1.952 0 0 0-1.967-1.943 1.942 1.942 0 0 0-1.941 1.955v.053c0 1.081.872 1.967 1.955 1.967m-14.804-14.776c1.069 0 1.941-.888 1.941-1.955a1.951 1.951 0 0 0-1.955-1.954 1.962 1.962 0 0 0-1.954 1.966c0 1.07.885 1.943 1.968 1.943m-14.725 14.802c1.069 0 1.941-.886 1.941-1.967a1.95 1.95 0 0 0-1.954-1.943 1.952 1.952 0 0 0-1.955 1.955c0 1.083.887 1.955 1.968 1.955M31.78 425.562a1.955 1.955 0 0 0 1.381 3.336c.509 0 1.004-.195 1.381-.574a1.94 1.94 0 0 0 0-2.762 1.943 1.943 0 0 0-2.762 0m-2.905 13.788c1.069 0 1.941-.887 1.941-1.968 0-1.07-.872-1.943-1.955-1.943a1.951 1.951 0 0 0-1.954 1.955c0 1.081.886 1.955 1.968 1.955m23.82 7.063a1.968 1.968 0 0 0 0 2.762c.391.39.886.574 1.381.574a1.9 1.9 0 0 0 1.383-.574 1.943 1.943 0 0 0 0-2.762 1.967 1.967 0 0 0-2.764 0m1.341-17.58c.51 0 1.005-.194 1.395-.573a1.965 1.965 0 0 0-.012-2.762 1.954 1.954 0 0 0-2.763 0 1.97 1.97 0 0 0 0 2.776c.39.377.885.559 1.38.559m4.354 6.516a1.941 1.941 0 0 0-1.941 1.955v.051c0 1.083.872 1.969 1.953 1.969a1.963 1.963 0 0 0 1.955-1.969v-.065a1.953 1.953 0 0 0-1.967-1.941m-14.791-10.801c1.07 0 1.942-.888 1.942-1.955a1.952 1.952 0 0 0-1.955-1.955 1.963 1.963 0 0 0-1.954 1.967c0 1.068.885 1.943 1.967 1.943m.052 25.631a1.953 1.953 0 0 0-1.955 1.955c0 1.081.874 1.954 1.955 1.954a1.96 1.96 0 0 0 1.955-1.954 1.961 1.961 0 0 0-1.955-1.955m-11.832-3.74a1.968 1.968 0 0 0 0 2.762h.013c.378.38.874.573 1.37.573a1.99 1.99 0 0 0 1.393-.573 1.954 1.954 0 0 0-.013-2.762 1.944 1.944 0 0 0-2.763 0M737.25 533.55c.509 0 1.004-.195 1.395-.572a1.967 1.967 0 0 0-.014-2.763 1.954 1.954 0 0 0-2.762 0 1.97 1.97 0 0 0 0 2.775c.39.378.886.56 1.38.56m4.355 6.515a1.942 1.942 0 0 0-1.943 1.955v.053c0 1.081.873 1.969 1.955 1.969a1.964 1.964 0 0 0 1.954-1.969v-.065a1.953 1.953 0 0 0-1.966-1.943m-5.695 11.065a1.965 1.965 0 0 0 0 2.762c.39.391.885.575 1.38.575.508 0 1.005-.184 1.382-.575a1.943 1.943 0 0 0 0-2.763 1.968 1.968 0 0 0-2.762 0m-9.097-21.865a1.957 1.957 0 0 0 1.942-1.954 1.951 1.951 0 0 0-1.954-1.955 1.962 1.962 0 0 0-1.955 1.968c0 1.067.886 1.941 1.967 1.941m.053 25.633a1.951 1.951 0 0 0-1.955 1.953 1.95 1.95 0 0 0 1.955 1.955 1.96 1.96 0 0 0 1.954-1.955 1.959 1.959 0 0 0-1.954-1.953m-11.873-24.617a1.956 1.956 0 0 0 1.383 3.337c.507 0 1.002-.197 1.38-.574a1.94 1.94 0 0 0 0-2.763 1.943 1.943 0 0 0-2.763 0m-.962 11.82a1.95 1.95 0 0 0-1.955-1.942 1.952 1.952 0 0 0-1.955 1.954c0 1.082.886 1.955 1.967 1.955 1.07 0 1.943-.885 1.943-1.968m1.002 9.058a1.965 1.965 0 0 0 0 2.762h.013c.377.378.874.573 1.369.573a1.99 1.99 0 0 0 1.393-.573 1.954 1.954 0 0 0-.012-2.762 1.943 1.943 0 0 0-2.763 0" fill="#ddd"/><path fill="#fbd6b1" d="M751.944 342.688a4.115 4.115 0 0 0-5.815.29c-2.778 3.07-5.617 4.987-8.292 6.191 3.864-2.701 7.73-6.849 10.664-13.239a4.117 4.117 0 0 0-7.484-3.433c-2.076 4.522-4.732 7.498-7.377 9.491 2.389-3.12 4.477-7.155 5.781-12.388a4.118 4.118 0 0 0-7.99-1.99c-.615 2.468-1.464 4.547-2.432 6.343-.45-6.215-4.238-11.206-10.03-12.71a4.12 4.12 0 0 0-5.02 2.952 4.116 4.116 0 0 0 2.95 5.02c3.226.834 4.247 4.297 3.83 7.357-.493 3.602-2.995 7.416-8.54 7.325h-.015c-5.427-.098-7.91-4.038-8.385-7.383-.41-2.866.518-6.351 4.343-7.536a4.117 4.117 0 0 0 2.712-5.153 4.11 4.11 0 0 0-5.152-2.71c-7.11 2.204-11.15 8.86-10.055 16.56.578 4.058 2.778 8.315 6.524 11.153l-15.344 15.862 17.71 17.167 20.742-23.002a27.21 27.21 0 0 0 3.972.357c6.056.101 14.851-1.715 22.991-10.709a4.116 4.116 0 0 0-.288-5.815"/><path fill="#f5f5f5" d="M691.632 355.584l4.442-5.239L718.504 370l-4.455 4.828-22.417-19.243"/><path fill="#3c3b3d" d="M501.275 389.454s99.572 119.054 215.492-14.962l-23.957-22.895s-83.789 109.191-162.318 24.14l-29.217 13.717"/><path fill="#7a7b7c" d="M702.565 384.053a3.038 3.038 0 0 0-.82-4.211 3.041 3.041 0 0 0-4.213.826 3.04 3.04 0 0 0 .82 4.21 3.038 3.038 0 0 0 4.213-.825m7.179-7.415a3.037 3.037 0 0 0-.825-4.213 3.03 3.03 0 0 0-4.205.825 3.032 3.032 0 1 0 5.03 3.387"/><path fill="#fbd6b1" d="M281.066 379.753s-20.575-210.654 112.365-224.908c169.466-18.17 133.286 228.992 133.286 228.992l-245.65-4.084"/><path fill="#3c3b3d" d="M377.23 267.692s.221 1.166.55 3.212c.217.986.476 2.133.796 3.459.379 1.326.805 2.809 1.405 4.36.593 1.552 1.373 3.152 2.278 4.761 1 1.538 2.082 3.143 3.485 4.46a16.785 16.785 0 0 0 4.733 3.259 12.348 12.348 0 0 0 5.577 1.082c3.845-.082 7.456-2.22 10.003-5.09 1.31-1.42 2.292-3.092 3.183-4.7.785-1.675 1.467-3.32 1.944-4.916.216-.804.453-1.567.632-2.312l.458-2.139c.23-1.358.398-2.561.543-3.555.175-1.998.307-3.159.307-3.159l.01-.082a1.203 1.203 0 0 1 2.39-.005s.142 1.198.336 3.328c.025 1.065.087 2.37.029 3.872l-.168 2.398c-.069.847-.259 1.728-.396 2.657a31.8 31.8 0 0 1-1.688 5.901c-.91 2.009-1.91 4.177-3.533 6.095-1.57 1.929-3.51 3.765-5.89 5.096-2.364 1.331-5.12 2.17-7.938 2.295-2.82.125-5.642-.517-8.107-1.665-2.487-1.134-4.563-2.835-6.265-4.654-1.757-1.803-2.937-3.883-3.967-5.838-.95-1.997-1.647-3.945-2.1-5.773-.205-.917-.458-1.784-.586-2.624l-.337-2.38c-.16-1.507-.207-2.852-.247-3.913.045-2.073.104-3.259.104-3.259a1.241 1.241 0 1 1 2.459-.171m91.895-3.372s.22 1.165.55 3.212c.216.985.475 2.131.795 3.458.38 1.327.805 2.81 1.405 4.36.592 1.553 1.372 3.153 2.277 4.762 1 1.537 2.083 3.142 3.487 4.46a16.761 16.761 0 0 0 4.732 3.258 12.348 12.348 0 0 0 5.576 1.083c3.845-.083 7.458-2.221 10.004-5.091 1.31-1.419 2.291-3.092 3.183-4.7.786-1.674 1.468-3.32 1.943-4.915.217-.804.455-1.568.633-2.314l.457-2.139c.23-1.357.4-2.561.544-3.554.176-1.997.308-3.158.308-3.158l.008-.083a1.204 1.204 0 0 1 2.393-.005s.14 1.198.334 3.328c.026 1.066.088 2.371.028 3.872-.05.753-.107 1.554-.166 2.398-.069.847-.26 1.727-.397 2.657a31.762 31.762 0 0 1-1.688 5.9c-.91 2.01-1.911 4.178-3.534 6.096-1.568 1.93-3.51 3.765-5.888 5.095-2.365 1.333-5.122 2.172-7.94 2.297-2.82.125-5.64-.518-8.105-1.665-2.488-1.134-4.564-2.835-6.267-4.654-1.755-1.804-2.936-3.884-3.966-5.839-.951-1.996-1.646-3.946-2.101-5.772-.204-.918-.456-1.784-.585-2.624l-.338-2.383c-.158-1.505-.205-2.85-.245-3.91.045-2.073.103-3.26.103-3.26a1.242 1.242 0 0 1 2.46-.17m-41.796 409.175c18.866-20.496-2.128-43.197-2.128-43.197s158.459 51.035 166.331-1.41c5.165-34.41-39.207-48.958-68.412-53.161 6.837-68.364 8.545-150.654 7.372-199.99l-22.022-.307-75.213 99.885-76.872-100.485-81.621.928c.03 56.142 7.786 142.357 13.718 200.127-43.748 9.67-77.465 45.03-62.487 85.567 16.482 44.611 170.857 47.882 170.857 47.882s-21.965 27.773 6.463 48.915c23.01 17.114 10.035-64.224 10.035-64.224s-164.473-6.998-164.114-47.77c.624-70.953 316.336-64.626 312.343-18.698-2.35 27.035-152.192-15-152.192-15s-12.39 93.89 17.942 60.938"/><path fill="#f5f5f5" d="M508.47 375.43l-75.213 99.885-76.872-100.485 152.085.6"/><path fill="#7a7b7c" d="M508.47 375.43l.711 42.964-24.287 4.771 3.168 32.72-54.805 19.43 75.213-99.885m-75.213 99.885l-52.732-26.1 2.045-23.76-25.456-9.428-.73-41.197 76.873 100.485"/><path fill="#b24929" d="M455.462 396.143l-7.925-12.03-20.645-.869-7.695 14.371 8.238 9.8-11.548 45.297 17.37 22.603 19.993-26.527-7.505-40.786 9.717-11.859"/><path fill="#7a7b7c" d="M426.776 492.53a6.964 6.964 0 0 0 8.226 5.415c3.768-.772 6.19-4.455 5.417-8.225-.774-3.766-4.46-6.187-8.22-5.416a6.966 6.966 0 0 0-5.423 8.225m-.442 28.841a6.966 6.966 0 0 0 8.222 5.42 6.954 6.954 0 0 0 5.414-8.222 6.954 6.954 0 0 0-8.219-5.419 6.957 6.957 0 0 0-5.417 8.221"/><path fill="#3c3b3d" d="M558.102 99.243s25.51 160.704-213.623 121.9l-9.55 45.944s-20.777-24.858-26.802-.752c-6.938 27.757 20.137 20.388 20.137 20.388s-25.158 57.005-50.613 80.544c-1.42 1.313-68.839-247.389 31.56-223.083 0 0 7.198-50.574 83.771-56.196 99.644-7.315 100.95 80.51 165.12 11.255"/><path fill="#ec6180" d="M482.741 321.19c1.27.095 2.214 1.198 2.168 2.472-.762 20.698-17.564 37.453-38.537 37.89-20.97.436-38.45-15.603-40.075-36.25-.1-1.273.804-2.415 2.073-2.56 25.09-2.887 49.881-3.41 74.371-1.553"/><path fill="#fbd6b1" d="M53.314 342.71a4.113 4.113 0 0 1 5.813.29c2.778 3.07 5.617 4.987 8.292 6.19-3.864-2.7-7.73-6.848-10.664-13.238a4.117 4.117 0 0 1 7.484-3.434c2.076 4.522 4.732 7.499 7.377 9.491-2.389-3.12-4.477-7.155-5.78-12.387a4.116 4.116 0 1 1 7.989-1.99 27.012 27.012 0 0 0 2.432 6.342c.45-6.215 4.238-11.206 10.03-12.71a4.119 4.119 0 0 1 2.07 7.971c-3.226.835-4.246 4.298-3.828 7.358.492 3.602 2.993 7.416 8.54 7.325h.013c5.428-.098 7.91-4.038 8.387-7.383.407-2.866-.52-6.35-4.344-7.536a4.118 4.118 0 0 1 2.439-7.864c7.11 2.205 11.152 8.86 10.056 16.56-.579 4.06-2.779 8.317-6.525 11.154l15.344 15.863-17.71 17.166-20.742-23.001c-1.12.183-2.453.331-3.972.356-6.056.101-14.851-1.715-22.991-10.709a4.115 4.115 0 0 1 .29-5.815"/><path fill="#f5f5f5" d="M113.624 355.605l-4.442-5.238-22.43 19.655 4.457 4.826 22.415-19.243"/><path fill="#3c3b3d" d="M303.981 389.475S204.41 508.53 88.49 374.513l23.957-22.895s83.789 109.191 162.318 24.14l29.217 13.717"/><path fill="#7a7b7c" d="M102.691 384.074a3.037 3.037 0 0 1 .821-4.211 3.04 3.04 0 0 1 4.212.826 3.038 3.038 0 0 1-.82 4.21 3.039 3.039 0 0 1-4.213-.825m-7.179-7.414a3.037 3.037 0 0 1 .825-4.213 3.029 3.029 0 0 1 4.205.825 3.032 3.032 0 1 1-5.03 3.387"/></svg>