<svg width="1000" height="1000" xmlns="http://www.w3.org/2000/svg"><title>background</title><path fill="none" d="M-1-1h582v402H-1z"/><title>Layer 1</title><path fill="#eee" d="M267.513 460.544c-1.19 0-2.35.122-3.485.315.016-.394.06-.78.06-1.178 0-15.927-12.914-28.84-28.842-28.84-13.77 0-25.267 9.658-28.136 22.565-.235-.007-.466-.036-.704-.036-13.441 0-24.336 10.896-24.336 24.336 0 13.44 10.895 24.336 24.336 24.336h61.107c11.46 0 20.75-9.29 20.75-20.75s-9.29-20.748-20.75-20.748m583.877 235.43c-1.105 0-2.182.112-3.239.281a33.92 33.92 0 0 0 .264-4.135c0-18.408-14.924-33.333-33.332-33.333-17.565 0-31.948 13.592-33.23 30.83a24.034 24.034 0 0 0-5.712-.712c-13.246 0-23.982 10.739-23.982 23.985 0 13.245 10.736 23.984 23.982 23.984h75.249c11.294 0 20.45-9.157 20.45-20.45 0-11.294-9.156-20.45-20.45-20.45M152.58 578.49c-.715 0-1.412.072-2.097.182.108-.878.17-1.77.17-2.677 0-11.919-9.662-21.581-21.58-21.581-11.373 0-20.684 8.8-21.514 19.961a15.541 15.541 0 0 0-3.698-.461c-8.576 0-15.528 6.951-15.528 15.527s6.952 15.529 15.528 15.529h48.719c7.313 0 13.24-5.929 13.24-13.24 0-7.313-5.927-13.24-13.24-13.24m579.438 240.764c-.827 0-1.63.083-2.42.21a25.44 25.44 0 0 0 .197-3.09c0-13.759-11.154-24.913-24.912-24.913-13.13 0-23.878 10.159-24.835 23.043a17.94 17.94 0 0 0-4.27-.533c-9.9 0-17.925 8.025-17.925 17.925s8.025 17.925 17.925 17.925h56.24c8.44 0 15.283-6.842 15.283-15.284 0-8.44-6.842-15.283-15.283-15.283m170.527 69.485c-.476 0-.939.047-1.394.12.073-.583.114-1.175.114-1.778 0-7.918-6.419-14.339-14.337-14.339-7.557 0-13.743 5.848-14.295 13.263a10.25 10.25 0 0 0-2.457-.306c-5.697 0-10.316 4.618-10.316 10.316 0 5.697 4.619 10.316 10.316 10.316h32.369a8.796 8.796 0 0 0 0-17.592m-771.527-502.49c-.475 0-.94.048-1.394.121a14.41 14.41 0 0 0 .115-1.779c0-7.919-6.42-14.339-14.34-14.339-7.555 0-13.742 5.847-14.292 13.263a10.278 10.278 0 0 0-2.458-.308c-5.697 0-10.316 4.62-10.316 10.318 0 5.697 4.619 10.316 10.316 10.316h32.369a8.796 8.796 0 0 0 8.796-8.796 8.795 8.795 0 0 0-8.796-8.796"/><path fill="#fbd6b1" d="M677.839 375.906s6.406-20.199-7.62-21.417c-13.199-1.148-12.355 18.231-12.355 18.231l19.975 3.186"/><path fill="#f9a726" d="M815.481 219.911c1.169 77.983-61.101 142.15-139.086 143.319-77.984 1.171-142.151-61.1-143.321-139.084-1.17-77.982 61.101-142.15 139.086-143.32 77.984-1.17 142.151 61.101 143.321 139.085"/><path fill="#d68818" d="M672.498 103.35c-65.442.981-117.883 55.02-116.9 120.459.98 65.438 55.018 117.88 120.46 116.898 65.44-.98 117.88-55.02 116.9-120.458-.982-65.439-55.02-117.88-120.46-116.899zm3.71 247.304c-70.927 1.065-129.494-55.772-130.558-126.695-1.064-70.925 55.771-129.493 126.699-130.557C743.273 92.34 801.84 149.175 802.904 220.1c1.065 70.922-55.771 129.49-126.696 130.554"/><path fill="#d68818" d="M683.72 149.589l.259 17.24a24.694 24.694 0 0 1 5.272 3.237 18.098 18.098 0 0 1 4.133 4.749l1.187-9.305 24.205-.364.582 38.795-25.53.383c-.09-5.858-1.895-10.362-5.428-13.517-3.53-3.15-7.947-4.688-13.251-4.61-.995.017-2.07.198-3.225.547-1.156.35-2.226.89-3.21 1.623a8.483 8.483 0 0 0-2.364 2.69c-.594 1.06-.879 2.308-.856 3.743.041 2.764 1.459 5.009 4.246 6.734 2.789 1.727 6.27 3.363 10.438 4.902a2275.04 2275.04 0 0 0 13.505 4.938c4.836 1.751 9.348 3.98 13.533 6.678a37.521 37.521 0 0 1 10.518 10.123c2.819 4.05 4.282 9.167 4.376 15.357.09 6.08-.97 11.182-3.172 15.303-2.204 4.125-5.058 7.455-8.555 9.994-3.503 2.541-7.427 4.37-11.775 5.483-4.353 1.12-8.68 1.763-12.988 1.937l.256 17.076-23.375.35-.326-21.718c-3.011-1.612-5.916-3.612-8.715-6.005l-1.672 9.975-24.207.363-.598-39.954 26.026-.391c.05 3.316.839 5.986 2.362 8.007 1.52 2.024 3.342 3.6 5.46 4.728a20.577 20.577 0 0 0 6.667 2.22c2.323.354 4.26.574 5.813.66a24.747 24.747 0 0 0 3.892-.39 15.134 15.134 0 0 0 3.877-1.219 7.848 7.848 0 0 0 3.029-2.532c.812-1.117 1.206-2.505 1.181-4.164-.03-1.989-1.379-3.683-4.056-5.08-2.674-1.395-6.01-2.784-10.011-4.16a1041.827 1041.827 0 0 1-13.087-4.614 55.382 55.382 0 0 1-13.118-6.769 38.384 38.384 0 0 1-10.105-10.377c-2.714-4.105-4.12-9.249-4.212-15.441-.083-5.525.784-10.293 2.607-14.3 1.818-4.007 4.17-7.33 7.062-9.973a31.91 31.91 0 0 1 9.693-6.115c3.567-1.435 7.065-2.287 10.49-2.562l-.21-13.924 23.377-.351"/><path fill="#ba452f" d="M415.638 569.146c-106.32 32.209-127.253 149.691-216.308 149.898 67.221 75.828 146.43.19 172.371 91.61C486.624 799.366 504.541 657.47 556.965 649.8l-141.327-80.655"/><path fill="#7baa89" d="M371.701 810.654l.14-.014-.14.014m-.151-.528l-.004-.011.004.011m-.037-.131l-.007-.018.007.018m-.07-.24a1.684 1.684 0 0 1-.022-.075l.022.075m-.034-.116l-.036-.122c.01.038.025.083.036.122m-.036-.123c-3.42-11.665-7.737-20.527-12.793-27.321l.013-.016c5.056 6.795 9.36 15.67 12.78 27.337m44.04-240.301l.053-.016-.053.016m.08-.024l.145-.045-.145.045"/><path fill="#a63f29" d="M371.701 810.654l-.076-.267c-.012-.045-.026-.09-.039-.133-.012-.043-.023-.087-.036-.128l-.004-.011-.033-.12-.007-.018-.031-.11a5.954 5.954 0 0 1-.032-.111l-.022-.076a.518.518 0 0 1-.012-.041l-.036-.122c-3.42-11.668-7.724-20.543-12.78-27.338l37.576-43.89 9.184-40.835-.007-.002c1.054-5.652 1.899-11.563 2.572-17.605-139.537-68.82-.225-103.756-.225-103.756l4.205-.751c-.253-.23-1.128-1.693-2.463-4.17a171.53 171.53 0 0 1 5.978-1.955l.053-.016.027-.008.145-.045 141.327 80.655c-26.17 3.828-43.741 41.106-69.074 78.886-18.268-3.027-39.821-7.506-63.8-14.15l-11.933 30.504-44.402 39.369s12.48 12.049 12.655 25.091c-2.8.455-5.646.849-8.57 1.139l-.14.014m37.617-211.6c-69.074 14.418-23.178 42.083.55 53.631.758-20.014.193-39.378-.55-53.631m2.635-23.789l-.054.075.067-.011-.013-.064m-155.197 173.03c-20.717-4.77-38.611-21.145-38.611-21.145 60.041-17.351 96.98-76.783 96.98-76.783-23.764 56.86-81.722 80.637-81.722 80.637 5.447 7.248 23.353 17.291 23.353 17.291"/><path fill="#f8f8f8" d="M655.903 375.672l.637-5.325 22.639 4.25-.975 5.273-22.301-4.198"/><path fill="#3b393d" d="M594.496 563.905s63.96-62.583 85.51-185.361l-25.03-5.813s-12.092 89.65-68.138 163.666l7.658 27.508"/><path fill="#7baa89" d="M594.496 563.905l-7.658-27.508 7.658 27.508m0 0v-.001.001m0-.001h.002-.002m12.134-13.943c.195-.245.392-.492.589-.744-.197.252-.394.5-.589.744m-19.793-13.564a305.542 305.542 0 0 0 14.756-21.346l.001.003a306.245 306.245 0 0 1-14.757 21.343"/><path fill="#353336" d="M594.496 563.905l-7.658-27.508a306.245 306.245 0 0 0 14.757-21.343c1.566 6.558 4.24 19.233 5.625 34.163-.197.252-.394.5-.589.744-7.222 9.094-11.945 13.758-12.13 13.939l-.001.001h-.001l-.001.003h-.002v.001"/><path fill="#66686d" d="M674.306 390.534a2.354 2.354 0 0 0-2.21-2.485c-1.3-.07-2.41.92-2.485 2.215a2.358 2.358 0 0 0 2.212 2.485 2.355 2.355 0 0 0 2.483-2.215m1.862-7.783a2.354 2.354 0 0 0-2.214-2.485 2.352 2.352 0 0 0-.269 4.696 2.35 2.35 0 0 0 2.483-2.21"/><path fill="#fbd6b1" d="M411.811 575.526s-36.967-163.604 63.477-189.269c122.14-31.208 125.598 166.017 125.598 166.017l-189.075 23.252"/><path fill="#3b393d" d="M571.144 723.33l-24.698 55.099-44.133 39.258s26.105 4.705 17.423 31.865c-7.695 24.074-32.917-30.312-32.917-30.312l46.206-48.518 12.771-37.105s-51.595-.858-126.566-23.77l-12.731 30.18-45.421 38.185s27.142 27.573-.177 43.79c-14.296 8.485-11.428-43.486-11.428-43.486l41.22-45.661 10.267-40.63s70.736-7.376 170.184 31.105"/><path fill="#3b393d" d="M469.058 561.536l69.823 68.906 47.028-84.783 16.944-2.129s8.612 83.054-31.728 179.849l-170.184-31.105c10.714-50.129 5.538-121.258 5.538-121.258l62.579-9.48"/><path fill="#f8f8f8" d="M585.909 545.659l-47.028 84.783-69.823-68.906 116.85-15.877"/><path fill="#66686d" d="M585.909 545.659l5.16 32.916-18.136 6.274 5.947 24.785-39.999 20.808 47.028-84.783m-47.028 84.783l-43.296-14.378-.982-18.467-20.562-4.505-4.983-31.556 69.823 68.906"/><path fill="#3b393d" d="M547.428 567.26l-7.377-8.388-15.947 1.55-4.365 11.863 7.377 6.64-4.001 36.024 15.766 15.493 12.503-22.518-10.144-30.514 6.188-10.15"/><path fill="#66686d" d="M533.378 646.765a5.398 5.398 0 0 0 6.898 3.275 5.398 5.398 0 1 0-3.618-10.173 5.4 5.4 0 0 0-3.28 6.898m-2.254 21.999a5.398 5.398 0 0 0 6.899 3.275 5.4 5.4 0 1 0-6.899-3.275"/><path fill="#483a34" d="M581.413 308.379s47.177 124.112-141.24 131.543l1.872 42.027s-18.814-13.36-20.851 5.798c-2.346 22.06 17.841 9.995 17.841 9.995s-11.314 51.824-28.331 72.634c-2.948-2.82-89.289-182.39-3.38-183.194.056-5.088 6.06-39.965 53.549-54.158 71.827-21.468 78.702 35.428 120.54-24.645"/><path fill="#483a34" d="M487.603 473.371c1.937 7.189.495 13.826-3.222 14.829-3.715 1.001-8.298-4.014-10.236-11.201-1.936-7.188-.494-13.827 3.223-14.829 3.715-1.001 8.298 4.014 10.235 11.201m78.5-21.947c1.937 7.187.495 13.826-3.22 14.827-3.717 1.001-8.3-4.014-10.238-11.201-1.937-7.188-.494-13.826 3.221-14.828 3.717-1.002 8.299 4.013 10.237 11.202"/><path fill="#fbd6b1" d="M408.8 674.294s18.333 12.496 24.638-2.75c6.306-15.245-16.028-15.555-16.028-15.555l-8.61 18.305"/><path fill="#f8f8f8" d="M415.038 653.747l5.018 1.63-10.29 20.09-4.796-2.402 10.068-19.318"/><path fill="#3b393d" d="M406.479 571.016s-141.389 31.514-.815 104.626l12.536-22.43s-101.106-43.538-9.115-59.49l-2.606-22.706"/><path fill="#66686d" d="M395.729 666.836a2.357 2.357 0 0 0 3.002-1.435 2.357 2.357 0 0 0-1.438-3 2.356 2.356 0 0 0-3.002 1.431 2.358 2.358 0 0 0 1.438 3.004m6.96 3.949a2.35 2.35 0 1 0 1.566-4.434 2.35 2.35 0 1 0-1.566 4.434"/><path fill="#ec6180" d="M556.853 497.604s-35.503 4.691-55.938 15.162c0 0 2.794 29.091 35.688 21.185 32.558-7.826 20.25-36.347 20.25-36.347"/><path fill="#ddd" d="M252.178 896.492s4.656-4.437 11.725-10.93c7.07-6.47 16.5-15.096 25.93-23.722 4.75-4.268 9.42-8.621 13.852-12.649l12.088-11.055c3.562-3.224 6.53-5.911 8.61-7.792a205.833 205.833 0 0 1 3.326-2.91s-.984 1.271-2.754 3.456a205.477 205.477 0 0 1-7.56 8.852c-.802.9-1.637 1.837-2.501 2.804l-2.755 2.926c-1.899 2.002-3.874 4.142-6.026 6.243-2.144 2.112-4.292 4.366-6.614 6.509-2.295 2.17-4.616 4.387-6.988 6.55a527.903 527.903 0 0 1-7.16 6.362c-2.355 2.106-4.778 4.056-7.076 5.998-2.299 1.941-4.594 3.73-6.75 5.448a257.262 257.262 0 0 1-6.171 4.73c-7.699 5.788-13.176 9.18-13.176 9.18m-3.83 80.804s8.212-7.985 20.748-19.694c3.137-2.923 6.534-6.09 10.128-9.442l11.332-10.503 24.682-22.756c8.408-7.736 16.817-15.47 24.7-22.724l11.33-10.49c3.588-3.35 6.98-6.517 10.113-9.44 3.149-2.91 5.958-5.652 8.504-8.03l3.553-3.348 2.97-2.884 5.685-5.445-5.11 5.989c-.82.947-1.73 1.997-2.717 3.141a5239.152 5239.152 0 0 0-3.292 3.611c-2.368 2.562-4.983 5.515-7.983 8.585-2.98 3.09-6.165 6.489-9.657 9.953-3.485 3.471-7.106 7.194-10.986 10.897-3.87 3.718-7.798 7.635-11.934 11.458-4.119 3.845-8.303 7.748-12.486 11.654-4.24 3.841-8.48 7.683-12.653 11.467-4.165 3.79-8.366 7.406-12.384 10.96-4.015 3.556-7.973 6.906-11.7 10.114a982.495 982.495 0 0 1-10.59 8.936 890.777 890.777 0 0 1-16.063 13.126 494.788 494.788 0 0 1-6.19 4.865m118.527-37.1s5.495-5.022 13.808-12.412l30.478-27.045 30.525-26.994 10.147-8.839c2.47-2.117 3.91-3.3 3.91-3.3s-1.202 1.42-3.354 3.863a294.695 294.695 0 0 1-9.121 9.922c-1.92 2.023-4 4.216-6.28 6.453-2.267 2.248-4.618 4.666-7.158 7.05-2.537 2.386-5.091 4.93-7.814 7.374-2.713 2.453-5.433 4.986-8.22 7.446l-8.388 7.256c-2.765 2.396-5.573 4.652-8.265 6.865-2.675 2.231-5.354 4.277-7.86 6.257a331.355 331.355 0 0 1-7.165 5.453 300.77 300.77 0 0 1-10.97 7.835 165.476 165.476 0 0 1-4.273 2.816"/><path fill="#fbd6b1" d="M657.888 370.6c.626-7.964-2.17-14.345.238-14.955 3.357-.85 5.634 10.096 5.634 10.096l-5.872 4.859"/></svg>