<svg width="1000" height="750" xmlns="http://www.w3.org/2000/svg"><defs><clipPath id="a"><path d="M4822.77 4450.85a863.083 863.083 0 0 0-15.35 79.36c40.34 13.97 79.92 27.48 117.01 39.88 3.8-33 9.73-65.28 17.61-96.6-37.84-7.4-78.18-15.04-119.27-22.64m320.59 66.97c-9.41 36.19-15.25 74.42-17.03 113.93 45.17 11.66 104.39 26.37 134.3 32.49 7.87 1.61 15.56 2.91 23.06 3.93-.93-37.28 3.15-73.33 11.36-106.72-2.2-.76-4.42-1.51-6.67-2.24-31.73-10.34-99-29.06-145.02-41.39"/></clipPath></defs><title>background</title><path fill="none" d="M-1-1h582v402H-1z"/><title>Layer 1</title><path fill="#eee" d="M246.198 697.581c-60.448 0-109.45-6.22-109.45-13.894 0-7.673 49.002-13.893 109.45-13.893 60.446 0 109.447 6.22 109.447 13.893 0 7.674-49.001 13.894-109.447 13.894"/><path fill="#fbd6b1" d="M354.905 326.487s-3.784-17.587-14.937-12.745c-11.094 4.818-1.388 18.973-1.388 18.973l16.325-6.228"/><path fill="#f8f8f8" d="M338.385 335.77l-1.819-4.261 18.777-6.578 1.543 4.368-18.501 6.471"/><path fill="#3c3b3d" d="M303.853 471.467s104.156-32.097 53.81-143.938l-20.793 7.82s38.735 85.236-35.794 115.812l2.777 20.306"/><path fill="#7a7b7c" d="M358.566 338.959a2.034 2.034 0 0 0-2.726-.907 2.034 2.034 0 0 0 1.821 3.635 2.035 2.035 0 0 0 .905-2.728m-1.962-6.628a2.03 2.03 0 1 0-3.631 1.82 2.03 2.03 0 1 0 3.631-1.82"/><path fill="#fbd6b1" d="M150.953 482.579s-34.576-128.602 44.173-151.773C295.513 301.27 299.8 458.141 299.8 458.141L150.953 482.58"/><path fill="#3c3b3d" d="M301.076 451.161l-13.338 2.226-34.497 68.58-57.445-52.286-49.207 9.5c10.15 35.411 22.852 94.923 22.889 148.736l-8.462 52.078s47.762 14.376 39.963-1.18c-10.924-21.788-31.303-7.65-31.303-7.65l14.303-40.96 8.012-29.654c61.384 4.683 94.422-3.586 94.422-3.586l1.166 31.964-10.011 50.718s55.487 14.857 37.54-6.68c-13.734-16.485-29.442-1.085-29.442-1.085l17.552-42.466c9.103-66.082 12.955-115.956-2.142-178.255"/><path fill="#f8f8f8" d="M287.738 453.387l-34.497 68.58-57.445-52.286 91.942-16.294"/><path fill="#7a7b7c" d="M287.738 453.387l5.136 25.877-14.15 5.542 5.497 19.42-30.98 17.74 34.497-68.579m-34.497 68.579l-34.715-9.992-1.367-14.578-16.411-2.909-4.952-24.806 57.445 52.285"/><path fill="#b24929" d="M257.984 471.705l-6.104-6.399-12.569 1.735-3.073 9.525 6.048 5.018-2.013 28.628 12.968 11.754 9.172-18.215-9-23.817 4.57-8.229"/><path fill="#7a7b7c" d="M249.408 535.057a4.275 4.275 0 0 0 5.562 2.37 4.275 4.275 0 0 0-3.187-7.933 4.278 4.278 0 0 0-2.375 5.563m-1.08 17.477a4.275 4.275 0 1 0 7.933-3.19 4.275 4.275 0 0 0-7.933 3.19"/><path fill="#52423b" d="M278.421 266.689s44.753 95.701-109.362 107.697l2.824 33.19s-15.312-9.969-16.312 5.255c-1.151 17.528 14.434 7.338 14.434 7.338s-7.295 41.362-20.094 58.371c-2.422-2.138-76.47-141.45-8.526-144.831-.117-4.027 3.518-31.812 40.635-44.559 56.143-19.28 65.22 26.404 96.401-22.461"/><path fill="#52423b" d="M208.811 400.144c1.585 5.677.49 10.943-2.445 11.763-2.935.82-6.6-3.118-8.183-8.796-1.585-5.677-.49-10.944 2.445-11.764 2.935-.818 6.598 3.12 8.183 8.797m61.999-17.937c1.585 5.678.49 10.944-2.445 11.763-2.935.82-6.6-3.119-8.184-8.796-1.585-5.678-.491-10.944 2.444-11.763 2.936-.82 6.6 3.119 8.185 8.796"/><path fill="#ec6180" d="M262.875 416.026s-27.971 4.66-43.861 13.493c0 0 2.987 22.947 28.807 15.811 25.557-7.063 15.054-29.304 15.054-29.304"/><path fill="#fbd6b1" d="M159.694 588.241s13.767 10.913 19.615-.769c5.847-11.68-11.774-13.197-11.774-13.197l-7.841 13.966"/><path fill="#f8f8f8" d="M165.79 572.37l3.871 1.572-9.271 15.28-3.651-2.17 9.051-14.682"/><path fill="#3c3b3d" d="M146.589 479.181s-91.492 53.826 10.551 109.946l11.178-17s-81.279-34.39-15.917-76.303l-5.812-16.643"/><path fill="#7a7b7c" d="M149.795 581.607a1.866 1.866 0 0 0 2.453-.96 1.866 1.866 0 0 0-.965-2.453 1.866 1.866 0 0 0-2.452.96c-.41.943.022 2.042.964 2.453m5.273 3.515a1.861 1.861 0 1 0 1.489-3.413 1.862 1.862 0 0 0-1.49 3.413"/><path fill="#eee" d="M768.885 693.958c-48.032 0-86.971-4.942-86.971-11.039 0-4.055 17.224-7.6 42.889-9.52-1.935 3.456-2.248 6.84 1.63 8.877a5.38 5.38 0 0 0 2.535.643c4.358 0 8.628-5.358 11.702-10.446a652.144 652.144 0 0 1 28.215-.594c48.033 0 86.971 4.942 86.971 11.04 0 6.097-38.938 11.04-86.971 11.04"/><path fill="#fbd6b1" d="M671.539 415.74c-1.083-8.115-6.006-12.66-10.504-8.67-3.961 3.516-.377 8.802-.241 11.605l10.745-2.935m74.511 121.315l-6.121 69.612 5.319 56.824s-9.685 23.579-18.814 18.785c-10.485-5.505 9.655-20.848 9.655-20.848l-12.461-51.266-5.502-68.322 27.924-4.785"/><path fill="#52423b" d="M745.248 663.491l2.062 17.789-2.644.004-1.241-5.266s-2.866 6.727-13.244 9.898c-21.183 6.473-5.112-17.095 5.908-24.488 0 0-14.944 11.148-8.284 14.55 10.419 5.322 17.443-12.487 17.443-12.487"/><path fill="#fbd6b1" d="M788.066 533.377l-5.057 64.694 36.191 22.953s10.658 23.155.929 26.57c-11.174 3.921-8.68-21.274-8.68-21.274l-45.806-19.835-5.5-68.324 27.923-4.784"/><path fill="#52423b" d="M819.2 621.024l12.513 7.106-1.35 2.683-4.38-1.38s4.115 8.14-.637 17.897c-9.697 19.916-15.995-7.906-13.897-21.01 0 0-2.024 18.535 5.005 15.979 10.994-4 2.746-21.275 2.746-21.275"/><path fill="#b24929" d="M710.515 563.626l83.171 7.88-.035-35.741-78.33-5.544-4.806 33.405"/><path fill="#80a992" d="M794.094 545.605l-.433-.068-.01-9.772.443 9.84m-79.208-12.36l.435-3.024-.435 3.024"/><path fill="#9e4126" d="M793.661 545.537l-78.775-12.292.435-3.024 78.33 5.544.01 9.772"/><path fill="#fbd6b1" d="M775.585 402.514l-1.644 23.231s10.955 28.41-14.462 27.246c-25.418-1.164-10.48-29.012-10.48-29.012l1.645-23.232 24.941 1.767"/><path fill="#f9ad2b" d="M803.195 436.634l-29.254-10.889s10.955 28.41-14.462 27.246c-25.418-1.164-10.48-29.012-10.48-29.012l-28.431 6.205.318 67.455-11.711 32.147 89.945 6.529-5.929-33.559 10.004-66.122"/><path fill="#8bb79a" d="M774.369 419.697l1.216-17.183-24.941-1.767 24.942 1.767-1.217 17.183"/><path fill="#f3ceaa" d="M767.266 420.191c-2.368 0-4.752-.165-7.14-.505a49.303 49.303 0 0 1-10.63-2.745l1.148-16.194 24.941 1.767-1.216 17.183a51.497 51.497 0 0 1-7.103.494"/><path fill="#52423b" d="M810.908 329.071s31.807-33.352 59.53-10.416c36.71 30.372-33.605 88.637 16.506 102.226-27.841 30.061-71.751-1.216-45.83-44.735 25.706-43.16-.575-69.192-30.206-47.075"/><path fill="#fbd6b1" d="M722.61 341.966c-7.746 33.925 4.338 65.154 33.603 73.513 29.263 8.36 61.785-10.858 71.07-43.369 9.288-32.511-6.907-65.644-36.172-74.003-50.766-14.5-60.973 10.897-68.501 43.86"/><path fill="#52423b" d="M811.644 335.439s-50.03-1.25-89.853-17.303c13.857-37.024 55.023-56.729 100.122-25.76 49.965 34.31 9.797 96.306-17.465 113.22-3.71-18.234-.948-34.761-.948-34.761s10.556 7.85 11.71-4.245c.825-8.649-9.869-5.999-9.869-5.999l6.303-25.152"/><path fill="#52423b" d="M780.415 356.316c-1.156 4.523-.297 8.648 1.919 9.215 2.216.568 4.951-2.639 6.109-7.16 1.156-4.522.297-8.647-1.92-9.215-2.215-.566-4.95 2.639-6.108 7.16m-44.38-11.356c-1.157 4.522-.299 8.647 1.919 9.215 2.216.567 4.951-2.639 6.107-7.16 1.158-4.523.299-8.648-1.917-9.215-2.216-.568-4.951 2.639-6.109 7.16"/><path fill="#ec6180" d="M741.631 380.816c4.743-.081 23.833 4.053 28.952 5.779 0 0-2.83 14.164-17.315 11.42-13.423-2.543-11.637-17.199-11.637-17.199"/><path fill="#f9ad2b" d="M732.723 435.55c-23.548 72.9-59.285 60.145-73.545-17.545l13.73-3.416c5.25 26.167 22.995 91.218 47.66 15.595l12.155 5.366"/><path fill="#fbd6b1" d="M848.275 426.12c1.794-7.988 7.098-12.081 11.226-7.71 3.637 3.85-.398 8.801-.781 11.581l-10.445-3.871"/><path fill="#f9ad2b" d="M790.615 440.909c17.035 74.691 48.725 64.688 69.774-11.443l-13.376-4.614c-7.535 25.605-25.91 89.285-43.818 11.782l-12.58 4.275"/><path fill="#f8f8f8" d="M678.468 264.274l2.398.132c-.805-.045-1.597-.132-2.395-.201l-.003.069"/><path fill="#e9e8e7" d="M746.51 82.687c-11.639-7.9-25.129-12.773-39.699-13.578l-15.118-.883c47.692 2.633 83.93 48.683 80.94 102.856-2.99 54.173-44.074 95.955-91.767 93.324l15.119.883c12.971.716 25.444-1.875 36.805-7.087 30.408-13.947 52.785-46.798 54.961-86.237 2.078-37.625-14.778-71.314-41.241-89.278"/><path fill="#f5f5f5" d="M772.634 171.081c-2.99 54.174-44.075 95.956-91.768 93.325-47.691-2.632-83.93-48.682-80.94-102.855 2.99-54.174 44.075-95.956 91.767-93.325 47.692 2.633 83.93 48.683 80.94 102.855"/><path fill="#f5f5f5" d="M772.634 171.081c-2.99 54.174-44.075 95.956-91.768 93.325-47.691-2.632-83.93-48.682-80.94-102.855 2.99-54.174 44.075-95.956 91.767-93.325 47.692 2.633 83.93 48.683 80.94 102.855"/><path fill="#f5f5f5" d="M680.866 264.406l24.753 21.131-3.393-22.938-21.36 1.807"/><path fill="#e3e2e0" d="M705.619 285.537l17.875-2.522-1.524-20.759-19.744.343 3.393 22.938"/><path fill="#b24929" d="M731.729 168.824c-1.74 31.532-23.545 56.061-48.605 54.677-25.061-1.382-44.034-28.161-42.294-59.694 1.74-31.53 23.545-56.058 48.605-54.676 25.06 1.384 44.034 28.161 42.294 59.693m-40.873-85.447c-39.262-2.167-73.256 33.277-75.781 79.01-2.524 45.733 27.365 84.703 66.628 86.87 39.26 2.165 73.256-33.278 75.78-79.012 2.523-45.733-27.364-84.701-66.627-86.868"/><path fill="#b24929" d="M684.21 203.807c-13.96-.77-24.806-18.59-23.685-38.912 1.121-20.323 13.863-36.839 27.824-36.069 13.96.77 24.806 18.589 23.685 38.911-1.121 20.322-13.864 36.84-27.824 36.07"/><path fill="#f8ab29" d="M594.524 147.535l-38.059-8.128-5.972-15.51c-.74-1.917.855-3.922 2.89-3.636l27.906 3.924a12.731 12.731 0 0 1 10.734 10.222l2.5 13.128"/><path fill="#f0a627" d="M594.524 147.535l-38.059-8.128-11.787 11.72c-1.458 1.448-.822 3.928 1.152 4.498l27.076 7.819a12.73 12.73 0 0 0 13.972-4.948l7.646-10.961"/><g clip-path="url(#a)" transform="matrix(.125 0 0 -.125 0 750)"><path fill="#dcdbd9" d="M4807.42 4450.85h487.629v217.32H4807.42v-217.32z"/></g><path fill="#9e4125" d="M617.755 190.814a93.196 93.196 0 0 1-2.201-12.075c9.032-3.022 16.884-5.51 21.95-6.849.984-.26 2.096-.551 3.287-.859a68.972 68.972 0 0 0 2.129 14.241c-.62.165-1.207.323-1.756.468-5.236 1.382-13.664 3.167-23.409 5.074m44.126-10.995c-1.026-4.174-1.536-8.68-1.42-13.34a42.897 42.897 0 0 1 5.798-.395c4.307 0 7.769.66 10.022 1.256l6.98-1.845 1.549 3.012-7.684 2.032c-2.58 2.528-7.607 6.623-15.245 9.28"/><path fill="#f9ad2b" d="M641.079 150.154c-17.129-3.659-67.801-9.903-88.275-12.358-.988-.117-1.288 1.291-.339 1.586 19.691 6.124 68.493 21.123 85.621 24.78 5.713 1.22 15.723 3.244 20.289 3.952l2.835-13.28c-4.456-1.219-14.42-3.462-20.131-4.68"/><path fill="#e9e8e7" d="M684.79 165.12l-7.061-1.508c-2.796-2.49-8.294-6.53-16.519-8.778l-2.835 13.28c8.425 1.306 15.094-.135 18.663-1.267l7.772 1.66-.02-3.387"/><path d="M199.5 177.5h13c12 0 24.528-.322 32 .5 6.537.72 10 2 14.5 3.5 3 1 5.882 2.763 9 4 4.852 1.924 8.885 3.692 13 6 1.95 1.094 4.5 2.5 5 3.5h.5" fill="none"/><path d="M260.5 218.5c0-.5.371-2.247 3-6.5 4.114-6.658 5.524-11.78 9.5-18 2.692-4.213 5.158-7.415 7.5-9 3.153-2.135 8.087-2.804 10.5-4 2.611-1.296 4-1.5 6.5-1.5 2 0 3.796.742 5.5 3 3.1 4.11 4.765 9.812 6 16.5 1.364 7.391.5 11.5.5 15.5v2.5l-.5 1h-.5" fill="none"/><path d="M528.135 137.504l-.156-.01c-.028-.003-2.726-.337-7.37-.514a1.25 1.25 0 0 1-1.201-1.296c.027-.692.657-1.215 1.296-1.203 4.766.183 7.472.519 7.586.533a1.25 1.25 0 0 1-.155 2.49m-39.518 1.745c-.692 0-1.293-.546-1.387-1.3-.102-.818.437-1.57 1.204-1.68a197.51 197.51 0 0 1 16.946-1.664c.751-.043 1.43.591 1.47 1.417.04.827-.555 1.53-1.328 1.572-5.553.302-11.177.854-16.719 1.641l-.186.014zm-32.977 7.702c-.597 0-1.15-.413-1.336-1.055-.23-.789.183-1.627.922-1.872a187.853 187.853 0 0 1 16.45-4.624c.76-.181 1.504.337 1.667 1.143.166.807-.313 1.604-1.07 1.781a185.251 185.251 0 0 0-16.217 4.558 1.31 1.31 0 0 1-.416.069zm-31.15 13.806c-.5 0-.984-.287-1.238-.793-.363-.729-.104-1.635.58-2.025a171.53 171.53 0 0 1 15.391-7.747c.715-.315 1.535.047 1.83.81.296.763-.043 1.639-.758 1.954a169.053 169.053 0 0 0-15.147 7.626c-.209.12-.436.175-.657.175zm-27.995 20.04c-.402 0-.801-.185-1.077-.541-.495-.635-.414-1.579.182-2.107a166.73 166.73 0 0 1 13.631-10.875c.642-.46 1.513-.277 1.943.41.43.687.258 1.616-.383 2.077a164.21 164.21 0 0 0-13.4 10.69 1.34 1.34 0 0 1-.896.345zm-23.568 25.71c-.306 0-.615-.107-.873-.328-.605-.515-.703-1.456-.22-2.103a178.183 178.183 0 0 1 11.26-13.608 1.34 1.34 0 0 1 1.98-.024 1.57 1.57 0 0 1 .023 2.116 175.419 175.419 0 0 0-11.075 13.384c-.276.37-.683.563-1.095.563zm-13.382 33.03a1.31 1.31 0 0 1-.457-.082c-.731-.27-1.12-1.122-.867-1.903a256.341 256.341 0 0 1 6.125-16.898c.306-.759 1.132-1.11 1.843-.783.71.328 1.037 1.208.731 1.968a253.07 253.07 0 0 0-6.05 16.69c-.2.62-.744 1.009-1.325 1.009zm-8.91 34.724l-.289-.033c-.758-.169-1.242-.962-1.083-1.77a320.263 320.263 0 0 1 3.961-17.601c.205-.796.975-1.265 1.72-1.05.748.218 1.188 1.04.984 1.837-1.44 5.639-2.76 11.5-3.923 17.428-.138.704-.721 1.19-1.37 1.19m-3.356 24.534l-.161-.01a1.25 1.25 0 0 1-1.08-1.4c.32-2.486.675-4.995 1.053-7.457a1.249 1.249 0 1 1 2.47.38 315.248 315.248 0 0 0-1.045 7.397 1.25 1.25 0 0 1-1.237 1.09" fill="#ddd"/></svg>