<svg width="1000" height="750" xmlns="http://www.w3.org/2000/svg"><title>background</title><path fill="none" d="M-1-1h582v402H-1z"/><title>Layer 1</title><path fill="#ddd" d="M153.388 107.279c-1.095 0-2.162.113-3.207.29.015-.362.054-.717.054-1.083 0-14.657-11.881-26.54-26.54-26.54-12.671 0-23.253 8.889-25.891 20.766-.218-.007-.43-.033-.65-.033-12.367 0-22.394 10.026-22.394 22.395 0 12.368 10.027 22.395 22.395 22.395h56.233c10.546 0 19.095-8.549 19.095-19.095 0-10.545-8.55-19.095-19.095-19.095m390.222-1.428c-.976 0-1.926.101-2.859.259.014-.323.05-.639.05-.965 0-13.06-10.587-23.646-23.646-23.646-11.292 0-20.719 7.918-23.07 18.501-.194-.006-.382-.03-.577-.03-11.02 0-19.954 8.934-19.954 19.954 0 11.02 8.934 19.953 19.954 19.953h50.102c9.395 0 17.013-7.617 17.013-17.012 0-9.396-7.618-17.014-17.013-17.014m367.821 77.919c-.658 0-1.3.066-1.931.167.101-.807.158-1.628.158-2.463 0-10.969-8.89-19.86-19.858-19.86-10.466 0-19.036 8.098-19.799 18.368a14.27 14.27 0 0 0-3.403-.425c-7.892 0-14.29 6.398-14.29 14.29 0 7.893 6.398 14.29 14.29 14.29h44.833c6.729 0 12.183-5.455 12.183-12.183 0-6.729-5.454-12.184-12.183-12.184m-711.728 41.299c-.66 0-1.3.067-1.93.167.1-.807.157-1.629.157-2.464 0-10.967-8.891-19.86-19.86-19.86-10.466 0-19.035 8.1-19.797 18.37a14.278 14.278 0 0 0-3.404-.425c-7.893 0-14.29 6.398-14.29 14.29 0 7.892 6.397 14.29 14.29 14.29h44.834c6.728 0 12.183-5.456 12.183-12.185 0-6.728-5.455-12.183-12.183-12.183"/><path fill="#865128" d="M306.001 574.385h12.246V79.811h-12.246v494.574z"/><path fill="#ddd" d="M145.27 442.496c77.72-97.887 132.771-193.772 160.731-287.261v287.261H145.27m378.444 79.953c-31.471-143.053-101.826-265.495-205.468-367.214 16.942 124.905 16.603 247.259 0 367.214h205.468"/><path fill="#d9541e" d="M420.98 155.235H318.248V79.811H420.98l-35.262 38.743 35.262 36.681"/><path fill="#77a688" d="M524.049 522.449h-10.8 10.465l-.25-1.129.585 1.129m-25.814-88.97a709.46 709.46 0 0 0-46.175-102.91c1.433.252 2.809.468 4.125.606a737.586 737.586 0 0 1 44.564 101.482c-.834.28-1.673.554-2.514.822"/><path fill="#ccc" d="M523.714 522.449h-10.465l-10.241-10.563c-15.614 5.828-32.893 8.921-46.41 10.563h-48.16c-16.458-9.497-39.107-29.715-12.98-61.617l.376-.455c.356-.428.717-.858 1.09-1.29.257-.298.522-.598.787-.897.289-.326.573-.651.872-.978a94.473 94.473 0 0 1 1.85-1.985s-46.972-90.583-5.21-95.078c0 0-.798-16.08 20.896-27.192 6.846-3.506 13.161-4.597 18.924-4.597 6.355 0 12.037 1.327 17.017 2.209a709.46 709.46 0 0 1 46.175 102.91c-39.082 12.437-86.846 12.607-89.425 12.607h-.109l20.088 67.56c37.116-1.807 66.815-8.376 84.101-13.136l.084.562 10.49 20.248.25 1.129M404.36 468.437l-.146.183c-7.314 9.426-15.018 27.011 12.519 41.43l-12.373-41.613"/><path fill="#ddd" d="M831.451 299.709c-.546 0-1.078.055-1.602.138.082-.67.131-1.352.131-2.046 0-9.105-7.382-16.487-16.487-16.487-8.69 0-15.804 6.723-16.438 15.251a11.824 11.824 0 0 0-2.825-.354c-6.554 0-11.865 5.311-11.865 11.864 0 6.552 5.311 11.864 11.865 11.864h37.221c5.588 0 10.117-4.529 10.117-10.115 0-5.587-4.53-10.115-10.117-10.115"/><path fill="#eee" d="M521.045 685.77c-194.745 0-426.002-7.904-426.002-17.655 0-9.751 231.257-17.655 426.002-17.655s279.23 7.904 279.23 17.655c0 9.751-84.485 17.655-279.23 17.655"/><path fill="#eaaa38" d="M473.035 666.734l-41.626-91.889c4.932-1.23 9.87-2.271 14.812-3.16l-.001-.001c.336-.062.671-.117 1.006-.173.28-.047.56-.096.84-.145l.002.006a219.13 219.13 0 0 1 16.052-2.155l-.002-.016c.36-.034.722-.062 1.085-.094.257-.02.513-.043.77-.066v.004a216.25 216.25 0 0 1 17.936-.818v-.012c.287-.001.575.001.862.002l.994.003v.007c5.145.025 10.298.244 15.454.64v-.006c.619.046 1.236.09 1.854.143l-.002.008a220.73 220.73 0 0 1 16.338 2.007l.002-.009c.363.059.727.122 1.089.185.25.044.501.086.751.129v.002a227.385 227.385 0 0 1 15.03 3.036 1.69 1.69 0 0 1 1.143 2.338l-40.786 90.034h9.342l49.946-110.254a5.705 5.705 0 0 1 5.198-3.353H421.57l51.465 113.607"/><path fill="#fab73e" d="M409.621 554.407c-1.112-2.457.684-5.243 3.382-5.243H81.753c-2.698 0-4.495 2.786-3.382 5.243l50.885 112.327h331.25l-50.885-112.327"/><path fill="#bd8828" d="M409.621 554.407l50.885 112.327h12.529L421.57 553.127l-.117-.26-.16-.352a5.71 5.71 0 0 0-5.198-3.351h-3.092c-2.698 0-4.494 2.786-3.382 5.243"/><path fill="#f0f6c5" d="M431.409 574.845l41.626 91.889h2.733l-29.547-95.049c-4.942.889-9.88 1.93-14.812 3.16m34.565-5.8l15.635 97.689h2.3v-98.507c-5.985.024-11.964.297-17.935.818m70.307 5.317a227.385 227.385 0 0 0-15.03-3.036l-27.846 95.408h3.233l40.786-90.034a1.69 1.69 0 0 0-1.143-2.338m-88.213-2.99l29.642 95.362h2.016l-15.606-97.517a219.13 219.13 0 0 0-16.052 2.155m55.003-2.36l-13.657 97.722h2.06l27.935-95.715a220.73 220.73 0 0 0-16.338-2.007m-17.306-.785v98.507h1.776l13.678-97.867a215.318 215.318 0 0 0-15.454-.64"/><path fill="#bd8828" d="M555.926 556.48L505.98 666.734h12.53l49.089-108.363c1.114-2.456-.684-5.244-3.381-5.244h-3.094a5.705 5.705 0 0 0-5.198 3.353"/><path fill="#e0e7b5" d="M464.131 569.201l.217-.019-.217.02zm19.78-.986c.247-.001.49-.011.737-.011H428.4l3.009 6.641c4.932-1.23 9.87-2.27 14.812-3.159l29.547 95.048h1.942l-29.642-95.362v-.003a219.028 219.028 0 0 1 16.05-2.167l.002.015 15.606 97.517h1.883l-15.634-97.683a216.009 216.009 0 0 1 17.934-.836v98.519h1.856V568.22l-.994-.003c-.287 0-.573-.003-.86-.002m36.589 2.98a98.935 98.935 0 0 0-1.089-.185l-.002.009-27.935 95.715h1.931l27.846-95.408v-.002c-.25-.043-.501-.085-.751-.129m-17.427-2.191c-.618-.053-1.235-.097-1.854-.143v.006l-13.678 97.867h1.873l13.657-97.722.002-.008"/><path fill="#e0e7b5" d="M484.838 568.204h-.19l.168.003.022-.003"/><path fill="#56331d" d="M428.789 513.646l6.48 25.91-1.965 31.045s37.12 2.401 23.894-10.005c-10.275-9.637-19.155 4.53-19.155 4.53l6.528-29.717-1.142-15.169s41.4-.625 75.406-13.32l15.254 15.732-5.716 29.175s38.73 5.297 26.738-8.195c-8.056-9.062-20.937 3.273-20.937 3.273l9.144-24.996-13.782-26.599-100.747 18.336"/><path fill="#fdfef7" d="M519.025 425.07l10.511 70.24s-40.651 15.41-100.747 18.336l-20.088-67.56s69.084.251 110.324-21.016"/><path fill="#fcd9b6" d="M519.025 425.07s-8.092-123.04-94.41-68.59c0 0-25.467 29.266-15.914 89.606 86.074 1.704 110.324-21.016 110.324-21.016"/><path fill="#56331d" d="M488.079 291.456s60.482 67.138-61.616 81.081l2.866 26.2s-11.569-8.402-12.76 2.8c-1.189 11.2 11.51 5.374 11.51 5.374s-7.205 29.834-19.378 39.175c0 0-50.433-97.26-5.595-102.086 0 0-.855-17.265 22.437-29.195 33.227-17.016 54.825 18.951 62.536-23.349m5.271 91.001c1.218 4.092 3.78 6.943 5.723 6.372 1.942-.573 2.532-4.355 1.313-8.445-1.221-4.092-3.783-6.943-5.723-6.37-1.944.571-2.53 4.353-1.313 8.443"/><path fill="#56331d" d="M444.433 398.867c1.217 4.093 3.777 6.95 5.726 6.375 1.937-.575 2.529-4.36 1.306-8.45-1.216-4.095-3.779-6.947-5.722-6.375-1.944.574-2.533 4.357-1.31 8.45"/><path fill="#f47184" d="M495.153 407.395s-20.67 3.276-32.447 9.702c0 0 2.072 16.948 21.167 11.833 18.9-5.064 11.28-21.535 11.28-21.535"/><path fill="#e5e5dc" d="M463.524 493.135L451.9 483.15l10.264-10.194c2.063.166 4.005.244 5.831.244 28.637.001 28.958-19.158 28.958-19.158l-5.006-4.75 1.325-4.053 9.152-2.929 3.271 3.977-2.29 5.902s1.645 34.675-39.882 40.946"/><path fill="#56331d" d="M502.425 442.31l3.273 3.977-2.292 5.902s1.619 31.538-39.908 37.808l-11.623-9.985 10.264-10.192c34.425 2.766 34.815-15.778 34.815-15.778l-5.006-4.75 1.325-4.052 9.152-2.93"/><path fill="#fcd9b6" d="M562.393 365.616c-1.42.526-1.432 2.294-1.288 3.371-.257-1.082-.966-2.896-2.774-2.42-2.085.55-1.797 3.287-1.628 4.244l-.022.005c-.262-.874-1.132-3.161-2.885-2.671-1.74.485-1.295 2.931-1.057 3.865-.31-.999-1.311-3.559-3.398-2.886-1.56.505-.188 3.978-.188 3.978 23.675 60.59-30.128 51.968-30.128 51.968l1.931 12.901c70.819 2.624 46.214-62.977 43.858-69.299 0 0-.835-3.642-2.421-3.056"/><path fill="#fdfef7" d="M519.025 425.07l1.931 12.901c3.619.135 6.978.083 10.114-.125l-2.08-12.471c-5.647.385-9.965-.305-9.965-.305"/><path fill="#fcd9b6" d="M435.153 525.159c.552-1.41-.76-2.593-1.66-3.203.98.526 2.805 1.205 3.652-.462.978-1.923-1.257-3.528-2.084-4.038l.01-.021c.828.385 3.113 1.259 3.914-.375.795-1.621-1.327-2.918-2.184-3.361.953.433 3.53 1.387 4.417-.618.66-1.5-2.845-2.786-2.845-2.786-60.985-22.635-18.754-57.068-18.754-57.068l-10.918-7.14c-49.072 51.127 16.273 76.4 22.56 78.847 0 0 3.275 1.8 3.892.225"/><path fill="#fdfef7" d="M419.619 453.227l-10.918-7.14a98.46 98.46 0 0 0-6.636 7.634l10.695 6.744c3.471-4.474 6.859-7.238 6.859-7.238"/><path fill="#865128" d="M539.234 360.654l-7.871 3.051s-2.888 3.009-.72 11.636c2.167 8.626 5.75 9.463 5.75 9.463l7.458-.674-4.617-23.476"/><path fill="#fab73e" d="M547.109 370.2s-3.214-10.761-7.875-9.546c-4.663 1.213-5.104 6.196-4.206 10.763 1.143 5.817 3.305 13.883 8.823 12.713 5.518-1.171 3.258-13.93 3.258-13.93"/><path fill="#865128" d="M568.448 354.269l-28.804 11.782c-1.739 3.234.975 12.453 3.456 12.659l30.305-6.435-4.957-18.006"/><path fill="#fab73e" d="M595.385 330.065l-36.78 15.216s-4.192 22.378 11.26 39.593l35.835-6.704-10.315-48.105"/><path fill="#865128" d="M636.236 296.267l-45.918 21.592c-13.118 19.073 1.535 66.118 20.685 73.647l50.543-6.266-25.31-88.973"/><path fill="#fab73e" d="M687.451 330.657c6.407 24.894-3.973 49.083-23.183 54.027-19.212 4.943-39.978-11.229-46.385-36.123-6.407-24.894 3.972-49.082 23.182-54.026 19.213-4.945 39.979 11.227 46.386 36.122"/><path fill="#fdfef7" d="M683.829 331.589c-5.74-22.302-24.344-36.792-41.555-32.362-17.21 4.43-26.51 26.1-20.77 48.403 5.74 22.301 24.345 36.79 41.555 32.36 17.211-4.429 26.51-26.099 20.77-48.401"/><path fill="#e3a638" d="M662.258 380.182c.267-.058.535-.123.8-.192 13.766-3.541 22.47-18.114 22.467-35.216.004 17.102-8.701 31.675-22.466 35.216-.266.069-.534.134-.801.192"/><path fill="#e5e5dc" d="M659.711 380.611c15.807-5.629 24.093-26.381 18.599-47.724-5.044-19.595-20.016-33.155-35.251-33.155-.985 0-1.971.058-2.956.173.71-.253 1.43-.486 2.17-.678a25.246 25.246 0 0 1 6.305-.796c15.233 0 30.208 13.564 35.25 33.158a52.928 52.928 0 0 1 1.697 13.185c.004 17.102-8.701 31.675-22.466 35.216a24.826 24.826 0 0 1-3.347.621"/><path fill="#666" d="M706.131 213.099a4.376 4.376 0 0 1-4.375-4.375c0-7.792-6.852-14.13-15.277-14.13-8.423 0-15.275 6.338-15.275 14.13a4.376 4.376 0 0 1-8.75 0c0-7.792-6.854-14.13-15.276-14.13-8.423 0-15.277 6.338-15.277 14.13a4.375 4.375 0 1 1-8.75 0c0-12.617 10.778-22.88 24.027-22.88 8.112 0 15.298 3.848 19.65 9.728 4.352-5.88 11.538-9.728 19.65-9.728 13.25 0 24.028 10.263 24.028 22.88a4.375 4.375 0 0 1-4.375 4.375m100.618-68.014a4.376 4.376 0 0 1-4.375-4.375c0-7.791-6.853-14.13-15.275-14.13-8.424 0-15.276 6.339-15.276 14.13a4.375 4.375 0 1 1-8.75 0c0-7.791-6.854-14.13-15.277-14.13-8.422 0-15.276 6.339-15.276 14.13a4.375 4.375 0 1 1-8.75 0c0-12.616 10.779-22.88 24.026-22.88 8.113 0 15.299 3.847 19.652 9.73 4.35-5.883 11.537-9.73 19.65-9.73 13.248 0 24.026 10.264 24.026 22.88a4.375 4.375 0 0 1-4.375 4.375"/></svg>