<svg width="812" height="702" xmlns="http://www.w3.org/2000/svg"><title>background</title><path fill="none" d="M-1-1h814v704H-1z"/><title>Layer 1</title><path fill="#fbc287" d="M688.393 410.213c8.285 8.153 13.549 19.934 13.549 33.028 0 20.54-12.884 37.872-30.196 42.888 7.716 7.43 12.618 18.3 12.618 30.368v1.367c0 18.338-11.25 33.902-26.547 38.804 8.665 7.659 14.252 19.364 14.252 32.458v3.952c0 22.918-17.065 41.654-37.91 41.654h-209.81s-56.212.171-66.758-13.34c-6.823-8.741-19.535-16.266-27.65-20.485-4.428-2.299-7.488-3.629-7.488-3.629h-64.419V374.64s56.82-3.667 91.404-21.872c6.366-3.344 11.971-7.183 16.343-11.573 28.105-28.313 70.272-106.815 76.145-147.995 5.852-41.178-4.694-69.492 0-90.073 4.673-20.6 74.947-36.03 96.04 74.625 9.178 48.133 6.385 87.26.285 116.107a245.672 245.672 0 0 1-4.465 17.73h137.408c9.084 0 17.58 2.889 24.743 7.886 13.074 9.064 21.815 25.103 21.815 43.27 0 21.454-12.2 39.905-29.359 47.47"/><path fill="#f9a764" d="M329.94 600.907c-4.427-2.299-7.487-3.629-7.487-3.629h-8.95V365.76c12.549-3.166 25.294-7.39 35.935-12.992l-19.497 248.14"/><path fill="#264687" d="M313.503 354.212v258.857c0 11.972-9.691 21.663-21.662 21.663H117.907c-13.455 0-23.659-12.124-21.34-25.388l21.929-125.703 23.22-133.154c1.806-10.375 10.813-17.939 21.34-17.939h128.785c11.97 0 21.662 9.691 21.662 21.664"/><path fill="#a0b6cd" d="M307.747 627.782a21.59 21.59 0 0 0 5.756-14.713v-15.79 15.79a21.59 21.59 0 0 1-5.756 14.713"/><path fill="#b48458" d="M313.503 597.278v-39.972 39.972z"/><path fill="#24396f" d="M291.84 634.732H117.906c-11.6 0-20.784-9.01-21.61-19.995a21.707 21.707 0 0 1 .27-5.393l9.077-52.038h40.05a23.654 23.654 0 0 0-2.742 11.087c0 11.278 7.859 20.72 18.4 23.148a23.637 23.637 0 0 0 11.53 2.98c13.119 0 23.754-10.634 23.754-23.753 0-4.999-1.544-9.636-4.182-13.462h121.05v55.763a21.59 21.59 0 0 1-5.757 14.713 21.607 21.607 0 0 1-15.908 6.95"/><path fill="#24396f" d="M192.454 557.306h-4.736a23.85 23.85 0 0 0-9.482-9.685c5.868 1.352 10.906 4.878 14.218 9.685"/><path fill="#212f5c" d="M172.882 594.522a23.637 23.637 0 0 1-11.53-2.981c1.72.396 3.514.606 5.354.606 13.118 0 23.753-10.635 23.753-23.754v-.3c0-.009 0-.017-.002-.026v-.073l-.001-.04v-.028c-.002-.02-.002-.04-.002-.06v-.04c0-.008 0-.02-.002-.03l-.001-.04v-.023l-.002-.044v-.01l-.006-.166v-.004a23.612 23.612 0 0 0-2.725-10.203h4.736a23.638 23.638 0 0 1 4.182 13.462c0 13.119-10.635 23.754-23.754 23.754"/><path fill="#255592" d="M190.46 568.393c0 13.119-10.636 23.754-23.754 23.754-13.12 0-23.754-10.635-23.754-23.754 0-13.119 10.635-23.754 23.754-23.754 13.118 0 23.753 10.635 23.753 23.754"/><path fill="#1d294f" d="M190.46 568.393v-.069.07m0-.092v-.049.049m0-.073c0-.018 0-.035-.002-.053a.771.771 0 0 1 .001.053m0-.07v-.066.066m-.002-.092v-.043.043m0-.073l-.001-.04v.04m0-.068c-.002-.02-.002-.04-.002-.06 0 .02 0 .04.002.06m-.003-.1l-.001-.03.001.03m-.002-.07v-.023.023m-.002-.067v-.01.01m-.006-.176v-.004.004"/><path fill="#20497d" d="M166.706 592.147c-13.12 0-23.754-10.635-23.754-23.754l.007-.134c3.284 6.318 9.877 10.64 17.488 10.64 10.887 0 19.712-8.826 19.712-19.713 0-4.944-1.833-9.45-4.84-12.912 8.595 3.352 14.77 11.543 15.124 21.235v.004c.003.055.004.111.006.166v.01l.002.044v.063a.24.24 0 0 1 .002.03l.001.04c0 .02 0 .04.002.06v.141c.002.009.002.017.002.026v.083l.001.053v.165c0 13.118-10.635 23.753-23.753 23.753"/><path fill="#fce1c5" d="M526.207 137.606c-8.039-18.877-18.056-31.222-28.349-38.812 10.294 7.59 20.309 19.933 28.358 38.82m-28.363-38.823l-.032-.024a.535.535 0 0 1 .032.024m-.061-.045a.038.038 0 0 0-.009-.007l.009.007"/><path fill="#daceb7" d="M538.231 293.956l.02-.098-.02.098m-.288-116.322l-.074-.388.074.388m-.075-.395l-.029-.15.03.15m-.125-.632c-2.993-15.338-6.943-28.231-11.528-38.993l-.01-.008c4.596 10.772 8.545 23.657 11.538 39"/><path fill="#f9a764" d="M634.158 634.732h-41.806c20.846 0 37.911-18.736 37.911-41.654v-3.952c0-13.094-5.587-24.8-14.252-32.458 15.297-4.902 26.547-20.466 26.547-38.804v-1.367c0-12.068-4.904-22.938-12.619-30.368 17.313-5.016 30.197-22.347 30.197-42.888 0-13.094-5.264-24.875-13.55-33.028 17.16-7.564 29.36-26.015 29.36-47.47l-.003-.516c-.151-16.515-13.922-29.679-30.437-29.679H491.978v-20.96c8.723-29.606 15.393-74.986 4.181-133.837-9.422-49.43-28.657-73.688-47.476-83.577 4.825-3.386 11.8-5.663 19.813-5.663 8.98 0 19.262 2.858 29.287 10.228a.038.038 0 0 1 .009.007l.029.02c.01.008.02.017.032.025a.017.017 0 0 0 .005.003c10.293 7.59 20.31 19.935 28.358 38.82 4.585 10.762 8.535 23.655 11.528 38.993.032.157.064.324.095.482.01.054.018.097.03.15v.007l.074.388.023.117c9.17 48.142 6.372 87.255.277 116.107h.008l-.02.098a256.58 256.58 0 0 1-1.127 5.006c-.21.897-.426 1.765-.642 2.641-.22.894-.441 1.78-.668 2.651a241.585 241.585 0 0 1-2.009 7.334h137.41c1.01 0 2.01.049 3.006.119.28.02.562.046.842.071.795.073 1.586.166 2.37.283.214.032.429.056.643.09a44.38 44.38 0 0 1 2.803.56c.264.063.524.135.785.2.662.17 1.32.348 1.97.552.333.105.667.203.997.314a41.93 41.93 0 0 1 2.625.962c.18.074.358.158.538.234a45.153 45.153 0 0 1 2.912 1.358c.823.42 1.637.86 2.433 1.33l.085.05a45.5 45.5 0 0 1 2.647 1.707l.086.056v.005c12.795 8.887 21.437 24.414 21.802 42.097.008.316.012.63.013.948v.22c0 21.454-12.2 39.905-29.359 47.47 8.285 8.152 13.549 19.933 13.549 33.027 0 20.54-12.884 37.872-30.196 42.888 7.716 7.43 12.618 18.3 12.618 30.368v1.367c0 18.338-11.25 33.902-26.547 38.804 8.665 7.659 14.252 19.364 14.252 32.458v3.952c0 22.918-17.065 41.654-37.91 41.654"/><path fill="#fff" d="M165.162 551.413c2.192 2.38 1.257 6.808-2.088 9.888-3.345 3.08-7.833 3.65-10.026 1.27-2.192-2.38-1.257-6.808 2.088-9.89 3.345-3.08 7.833-3.65 10.026-1.268"/></svg>