<svg width="400" height="250" xmlns="http://www.w3.org/2000/svg"><title>background</title><path fill="none" d="M-1-1h402v252H-1z"/><title>Layer 1</title><path fill="#efeded" d="M54.648 224.683c.007-.265.017-.53.017-.8-.026-13.843-11.257-25.045-25.095-25.045h-.084l-.066-32.842-.146-73.815-.065-32.841.034.001c13.86-.027 25.073-11.286 25.047-25.147-.001-.268-.014-.531-.022-.798l296.858-.59c-.008.267-.02.532-.02.799.028 13.844 11.258 25.048 25.095 25.046h.085l.065 32.842.147 73.815.066 32.84h-.034c-13.86.028-25.075 11.287-25.046 25.147 0 .268.011.533.021.799l-296.857.589"/><path fill="#fbc009" d="M370.481 51.162c-13.861.028-25.12-11.186-25.146-25.046-.001-.269.01-.534.017-.799l-296.857.59c.009.265.021.53.021.798.028 13.86-11.186 25.119-25.046 25.146l-.034-.001.066 32.842.147 73.814.065 32.843.033-.002c13.86-.027 25.12 11.187 25.145 25.047.002.268-.01.533-.017.8l296.857-.59c-.008-.267-.02-.53-.022-.799-.026-13.86 11.187-25.119 25.046-25.146l.035.001-.065-32.843-.146-73.813-.066-32.843-.033.001"/><path fill="#f14d1c" d="M326.868 54.049H67.36l6.051 20.468-6.051 19.58h259.508l-5.518-19.58 5.518-20.468"/><path fill="#fff" d="M44.155 175.68a45.866 45.866 0 0 1 20.702 21.009l264.812-.526a45.862 45.862 0 0 1 20.619-21.09l-.215-108.243a45.872 45.872 0 0 1-20.703-21.009l-264.813.525a45.841 45.841 0 0 1-20.617 21.09l.215 108.244zm19.111 23.513l-.335-.73a43.362 43.362 0 0 0-20.565-20.877l-.709-.338-.22-111.368.707-.343A43.35 43.35 0 0 0 62.625 44.58l.332-.73.803-.001 267.201-.532.335.73a43.357 43.357 0 0 0 20.565 20.877l.709.338.22 111.368-.705.343a43.348 43.348 0 0 0-20.482 20.957l-.333.729-.802.002-267.202.532"/><text x="-418.627" y="-196.161" font-size="29.449" font-family="NexaBold" fill="#fff" transform="matrix(1.25 0 0 1.25 635.136 333.442)">KONZERT</text><path fill="#2d4d64" d="M81.322 161.725l3.403 6.896 7.611 1.105-5.506 5.369 1.3 7.579-6.808-3.578-6.807 3.578 1.3-7.579-5.506-5.369 7.61-1.105 3.403-6.896m33.083 0l3.404 6.896 7.611 1.105-5.508 5.369 1.3 7.579-6.807-3.578-6.806 3.578 1.3-7.579-5.508-5.369 7.611-1.105 3.403-6.896m33.084 0l3.403 6.896 7.61 1.105-5.507 5.369 1.3 7.579-6.806-3.578-6.807 3.578 1.3-7.579-5.507-5.369 7.611-1.105 3.403-6.896m33.083 0l3.404 6.896 7.61 1.105-5.507 5.369 1.3 7.579-6.807-3.578-6.807 3.578 1.3-7.579-5.508-5.369 7.612-1.105 3.403-6.896m33.084 0l3.403 6.896 7.61 1.105-5.507 5.369 1.3 7.579-6.806-3.578-6.809 3.578 1.302-7.579-5.508-5.369 7.61-1.105 3.405-6.896m33.083 0l3.402 6.896 7.612 1.105-5.507 5.369 1.3 7.579-6.807-3.578-6.808 3.578 1.3-7.579-5.506-5.369 7.61-1.105 3.404-6.896m33.082 0l3.404 6.896 7.611 1.105-5.507 5.369 1.3 7.579-6.808-3.578-6.806 3.578 1.3-7.579-5.507-5.369 7.61-1.105 3.403-6.896m33.084 0l3.404 6.896 7.61 1.105-5.508 5.369 1.3 7.579-6.806-3.578-6.806 3.578 1.299-7.579-5.507-5.369 7.612-1.105 3.402-6.896"/><text x="-423.427" y="-150.561" font-size="40" font-family="NexaBold" fill="#fff" transform="matrix(1.25 0 0 1.25 635.136 333.442)">TICKET</text></svg>