<svg width="1000.8" height="750" xmlns="http://www.w3.org/2000/svg" stroke="null" vector-effect="non-scaling-stroke"><title>Layer 1</title><path fill="#fbd6b1" d="M630.54 466.529s-16.419-3.507-10.987-15.692c5.433-12.185 17.133-.117 17.133-.117l-6.146 15.809"/><path fill="#f8f8f8" d="M640.59 452.305l-3.681-2.159-6.615 17.011 3.961 2.06 6.335-16.912"/><path fill="#3b393d" d="M739.774 418.696s-15.961 92.149-107.381 51.035l6.82-19.625s59.573 35.756 84.81-34.614l15.75 3.204"/><path fill="#66686d" d="M649.344 473.181a1.899 1.899 0 0 1-.743-2.581 1.898 1.898 0 0 1 2.583-.745 1.896 1.896 0 0 1 .746 2.581 1.902 1.902 0 0 1-2.586.745m-6.293-2.175a1.905 1.905 0 0 1-.745-2.586 1.904 1.904 0 0 1 3.333 1.841 1.907 1.907 0 0 1-2.588.745m-6.126-2.085a1.905 1.905 0 0 1-.744-2.586 1.898 1.898 0 0 1 2.583-.743 1.902 1.902 0 0 1-1.839 3.329"/><path fill="#eee" d="M784.783 653.328c-56.547 0-102.385-8.757-102.385-19.558 0-10.803 45.838-19.56 102.385-19.56 56.546 0 102.385 8.757 102.385 19.56 0 10.801-45.84 19.558-102.385 19.558" vector-effect="non-scaling-stroke"/><path fill="#fbd6b1" d="M878.124 424.536s26.036-133.481-55.844-151.461c-104.379-22.919-97.539 137.2-97.539 137.2l153.383 14.261"/><path fill="#3b393d" d="M717.721 524.095l5.385 52.93 7.924 41.697s-17.387-9.88-23.95 3.662c-9.241 19.077 36.153 6.114 36.153 6.114l-7.773-53.47 1.086-33.408s40.102 12.285 99.87 10.565l1.014 26.467 9.656 49.188s-11.122-15.868-23.381-2.054c-16.45 18.535 34.285 7.007 34.285 7.007l-6.555-55.053 3.836-33.668s-51.326-20.69-137.55-19.977"/><path fill="#3b393d" d="M831.519 414.601l-54.786 57.368-40.043-67.4-13.747-1.315-5.222 120.883s13.682 6.985 40.888 12.074c11.356 2.329 28.876 4.405 28.876 4.405 17.901 1.783 42.241 3.306 67.786 3.498l27.054-123.352-50.806-6.16"/><path fill="#f8f8f8" d="M736.69 404.569l40.043 67.4 54.786-57.368-94.829-10.032"/><path fill="#66686d" d="M736.69 404.569l-3.382 26.728 14.808 4.635-4.212 20.178 32.829 15.859-40.043-67.4"/><path fill="#66686d" d="M776.733 471.969l34.65-12.659.352-14.95 16.511-4.134 3.273-25.625-54.786 57.368"/><path fill="#3b393d" d="M768.309 421.105l5.762-6.956 12.928.871 3.811 9.484-5.802 5.543 4.096 29.022-12.371 12.9-10.647-17.902 7.469-24.906-5.246-8.056"/><path fill="#66686d" d="M779.594 484.856a4.367 4.367 0 1 1-8.31-2.687 4.367 4.367 0 0 1 8.31 2.687m-1.335 19.924a4.366 4.366 0 0 1-5.495 2.814 4.36 4.36 0 0 1-2.811-5.494 4.361 4.361 0 0 1 5.493-2.815 4.362 4.362 0 0 1 2.813 5.495"/><path fill="#483a34" d="M723.453 222.359s-28.14 96.717 127.38 92.807l.23 31.868s14.65-14.072 16.756 1.366c2.425 17.772-13.945 11.327-13.945 11.327s10.769 44.207 25.022 60.62c2.315-2.35 67.798-149.563-1.661-148.153 0 0-.789-32.867-44.58-42.492-61.185-13.447-73.946 40.21-109.202-7.343"/><path fill="#483a34" d="M813.131 348.615c-.826 5.964 1.003 11.144 4.084 11.57 3.084.427 6.253-4.06 7.08-10.023.826-5.962-1.004-11.142-4.086-11.57-3.083-.427-6.251 4.06-7.078 10.023m-68.38-10.143c-.826 5.963 1.003 11.143 4.085 11.57 3.083.427 6.252-4.06 7.078-10.022.827-5.963-1.001-11.143-4.084-11.57-3.084-.428-6.252 4.06-7.079 10.022"/><path fill="#fbd6b1" d="M861.231 536.296s-13.635 11.661-20.047-.037c-6.413-11.7 11.514-13.917 11.514-13.917l8.533 13.954"/><path fill="#f8f8f8" d="M854.406 520.331l-3.891 1.753 10.044 15.24 3.264-2.758-9.417-14.235"/><path fill="#3b393d" d="M881.56 423.452s67.473 59.724-17.689 113.652l-12.055-16.923s63.393-29.339 24.998-77.432l4.746-19.297"/><path fill="#66686d" d="M876.496 525.279a1.898 1.898 0 0 1-2.533-.888 1.9 1.9 0 0 1 .887-2.54 1.898 1.898 0 0 1 2.536.886 1.904 1.904 0 0 1-.89 2.542m-5.416 3.87a1.903 1.903 0 0 1-2.539-.888 1.907 1.907 0 0 1 .892-2.539 1.905 1.905 0 0 1 2.538.888 1.904 1.904 0 0 1-.891 2.539m-5.246 3.79a1.903 1.903 0 0 1-2.539-.89 1.902 1.902 0 1 1 2.539.89"/><path fill="#89b498" d="M635.21 454.516l1.003-2.579-1.003 2.58m9.248-1.762a68.098 68.098 0 0 1-3.528-1.706l.003-.002c.877.458 2.068 1.05 3.527 1.707l-.002.001"/><path fill="#f0cca7" d="M624.09 455.28c-1.892 0-3.764-.088-5.625-.211.035-.699.151-1.435.361-2.213a83.69 83.69 0 0 0 17.386-.919l-1.002 2.58c-3.64.487-7.347.763-11.12.763"/><path fill="#ecebeb" d="M635.21 454.516l1.003-2.579a86.68 86.68 0 0 0 2.517-.438l-.914 2.63c-.865.141-1.733.271-2.606.387"/><path fill="#383639" d="M637.816 454.129l.914-2.63c.738-.142 1.469-.29 2.2-.45.875.456 2.069 1.05 3.528 1.706a80.446 80.446 0 0 1-6.642 1.374"/><path fill="#fbc131" d="M706.164 369.912c-.001 45.87-37.185 83.053-83.055 83.053-45.868 0-83.053-37.184-83.053-83.053.002-45.87 37.185-83.053 83.054-83.053 45.87 0 83.054 37.185 83.054 83.053"/><path fill="#e09715" d="M555.506 369.912c0-37.336 30.268-67.603 67.603-67.603 37.337 0 67.604 30.267 67.604 67.603 0 37.337-30.268 67.604-67.604 67.604s-67.604-30.267-67.603-67.604"/><path fill="#c9881a" d="M690.683 371.111c-.643-36.781-30.64-66.404-67.574-66.404s-66.93 29.623-67.573 66.404c-.006-.4-.03-.797-.03-1.199 0-37.336 30.268-67.603 67.603-67.603 37.337 0 67.604 30.267 67.604 67.603 0 .402-.023.8-.03 1.2"/><path fill="#c9881a" d="M627.038 417.107h-9.507v-9.3c-6.546-.69-11.506-2.53-14.881-5.528-3.376-2.997-5.064-7.767-5.064-14.313v-2.79h18.602v1.964c0 3.1.585 5.236 1.757 6.406 1.169 1.173 2.721 1.758 4.65 1.758 1.999 0 3.528-.654 4.599-1.964 1.066-1.308 1.601-2.894 1.601-4.754 0-2.341-.742-4.201-2.222-5.58-1.482-1.377-3.343-2.565-5.578-3.565a146.85 146.85 0 0 0-7.287-2.997 31.53 31.53 0 0 1-7.285-3.927c-2.24-1.617-4.1-3.736-5.58-6.356-1.484-2.616-2.223-6.027-2.223-10.23 0-12.882 6.304-20.357 18.911-22.425v-5.994h9.507v5.994c6.89.69 11.885 2.774 14.985 6.253 3.1 3.48 4.65 8.767 4.65 15.862H628.69v-1.55c0-2.067-.447-3.875-1.34-5.426-.899-1.55-2.274-2.324-4.136-2.324-2.066 0-3.583.671-4.545 2.014-.966 1.344-1.448 2.809-1.448 4.392 0 2.413.774 4.307 2.325 5.684 1.55 1.379 3.497 2.568 5.839 3.565 2.343 1 4.858 1.964 7.543 2.894a30.065 30.065 0 0 1 7.546 3.876c2.34 1.653 4.289 3.823 5.837 6.509 1.549 2.687 2.327 6.271 2.327 10.749 0 7.026-1.83 12.228-5.48 15.603-3.652 3.375-9.023 5.442-16.12 6.2v9.3"/><path fill="#fbc131" d="M602.65 399.88c-3.376-2.996-5.064-7.766-5.064-14.311v-2.79h18.602v1.962c0 3.1.585 5.236 1.756 6.408 1.17 1.172 2.722 1.756 4.651 1.756 1.999 0 3.528-.654 4.599-1.964 1.066-1.307 1.601-2.894 1.601-4.752 0-2.343-.742-4.202-2.222-5.582-1.482-1.376-3.343-2.565-5.578-3.565a146.886 146.886 0 0 0-7.287-2.996 31.535 31.535 0 0 1-7.285-3.927c-2.24-1.618-4.1-3.737-5.58-6.355-1.484-2.618-2.223-6.028-2.223-10.232 0-12.88 6.304-20.356 18.911-22.423v-5.995h9.507v5.995c6.89.688 11.885 2.772 14.985 6.251 3.1 3.48 4.65 8.767 4.65 15.862H628.69v-1.55c0-2.066-.447-3.875-1.34-5.425-.899-1.55-2.274-2.325-4.136-2.325-2.066 0-3.583.672-4.545 2.015-.966 1.344-1.448 2.808-1.448 4.393 0 2.411.774 4.306 2.325 5.684 1.55 1.378 3.497 2.566 5.839 3.565 2.343.998 4.858 1.962 7.543 2.893a30.06 30.06 0 0 1 7.546 3.875c2.34 1.653 4.289 3.824 5.837 6.51 1.549 2.687 2.327 6.27 2.327 10.748 0 7.027-1.83 12.23-5.48 15.604-3.652 3.376-9.023 5.442-16.12 6.2v9.302h-9.507v-9.302c-6.546-.689-11.506-2.532-14.881-5.529"/><path fill="#eee" d="M258.278 653.328c-56.547 0-102.387-8.757-102.387-19.558 0-10.803 45.84-19.56 102.387-19.56 56.546 0 102.386 8.757 102.386 19.56 0 10.801-45.84 19.558-102.386 19.558" vector-effect="non-scaling-stroke"/><path fill="#ec6180" d="M804.844 375.692s-28.079-7.085-46.561-5.322c0 0-6.594 22.694 20.486 26.582 26.802 3.85 26.075-21.26 26.075-21.26"/><path fill="#fbd6b1" d="M312.871 433.1l13.355-6.1c14.734 65.394 73.972 31.491 93.532 11.657.648-.66 4.948-4.538 6.755-2.525.872.97.626 2.185.06 3.263 1.07-.484 2.26-.678 3.072.222.785.877.658 1.955.208 2.955.983-.382 2.023-.462 2.756.352.867.966.624 2.181.06 3.258 1.071-.485 2.26-.677 3.067.223 1.689 1.884-.08 4.051-1.731 5.617-43.251 41.003-105.314 54.578-121.134-18.922"/><path fill="#f8f8f8" d="M326.226 427l-13.355 6.1c2.749 12.765 6.88 23.032 12.058 31.056l11.997-12.21c-4.542-5.909-8.242-14.041-10.7-24.946"/><path fill="#e2c19e" d="M332.324 472.762c-2.171-2.105-4.225-4.49-6.146-7.17l.006-2.712 4.407-4.486 1.733 14.368"/><path fill="#81a991" d="M327.343 431.464a95.759 95.759 0 0 1-1.068-4.249l-.007-.033-.002-.007a94.73 94.73 0 0 0 1.068 4.21l.009.079"/><path fill="#e2c19e" d="M326.275 427.215l-.007-.033.007.033"/><path fill="#dfdfdd" d="M326.184 462.88l.082-35.705.002.007.007.033c.334 1.466.69 2.882 1.068 4.249l3.248 26.93-4.407 4.486"/><path fill="#fbd6b1" d="M326.274 423.739s-1.375-197.793-141.944-132.11c0 0-42.217 30.866-26.767 138.717 113.665 21.015 168.71-6.607 168.71-6.607"/><path fill="#4c3625" d="M187.081 368.494l1.708-31.72c74.456-1.44 129.197-18.822 129.197-18.822-13.366-67.182-73.957-70.822-104.251-65.346-38.396 6.174-54.21 31.663-57.916 40.536-2.899-3.693-3.264-8.346-3.264-8.346-5.361 6.623-2.476 12.209-2.476 12.209-7.493.186-10.009 7.306-10.009 7.306 2.463-.741 4.765-.674 6.741-.274-39.135 17.973 10.754 126.427 10.754 126.427 16.324-10.048 28.669-50.612 28.669-50.612s-17.48 6.437-15.286-7.41c2.192-13.85 16.133-3.948 16.133-3.948"/><path fill="#fbd6b1" d="M134.368 325.629l-.22-.004s.083 0 .22.004"/><path fill="#fbd6b1" d="M83.875 382.119c-5.938-40.584 24.434-61.672 24.434-61.672s26.96-19.142 36.489-3.672c0 0 2.206 3.16-1.15 3.012-3.355-.147-7.604-5.228-12.237-2.48 0 0 4.625-1.4 4.788 2.335.076 1.79-3.518 1.887-4.441 1.883-.135-.005-.218-.005-.218-.005l.218.005c.872.025 4.13.259 4.285 2.324.226 3.033-2.462 3.071-3.328 3.007-.164-.024-.27-.029-.27-.029s.108.015.27.03c.794.11 3.043.672 2.196 3.494-.902 3.006-5.556.914-5.556.914s-10.628-.216-15.644 5.927c-39.265 50.66 17.33 88.388 43.854 93.272l3.17 21.386c-33.209-7.209-70.923-29.148-76.86-69.731"/><path fill="#fbd6b1" d="M135.325 330.961a5.506 5.506 0 0 1-.271-.029s.107.005.271.03"/><path fill="#4c3625" d="M173.001 534.616l5.045 46.798-3.517 51.581s49.939 15.769 36.406-5.413c-12.497-19.56-28.249-3.308-28.249-3.308l9.465-44.91 1.13-31.89s61.422 7.836 114.453-3.759l-.255 33.064-7.654 55.487s50.863 16.681 37.104-6.424c-10.655-16.583-27.62-3.522-27.62-3.522l12.016-45.613 4.708-47.916L173 534.616"/><path fill="#f8f8f8" d="M326.274 423.739l-.241 105.052S262.589 543.002 173 534.616l-15.436-104.152s103.155 16.032 168.709-6.725"/><path fill="#dfdfdd" d="M275.755 527.831l-14.276-14.4 17.784-59.486-5.21-7.193 2.633-4.808 12.268-1.544 3.196 5.805-4.29 6.92 4.426 61.037-16.531 13.67"/><path fill="#4c3625" d="M288.954 440.4l3.196 5.805-4.289 6.92 8.058 59.951-16.53 13.668-14.276-14.399 14.15-58.4-5.21-7.193 2.633-4.808 12.268-1.544"/><path fill="#f8f8f8" d="M157.565 430.464c-6.027-1.11-13.606-3.92-21.26-8.188l-2.227 20.663c8.753 4.048 17.86 7.002 26.657 8.911l-3.17-21.386"/><path fill="#81a991" d="M414.04 443.884l-.001-.002c.442-.37.876-.738 1.3-1.106l.002.003c-.425.367-.856.733-1.301 1.105"/><path fill="#e2c19e" d="M431.72 450.591c-6.759 0-12.949-2.537-17.68-6.707.445-.372.876-.738 1.301-1.105a26.674 26.674 0 0 0 17.173 5.587 27.065 27.065 0 0 0 3.904-.397c.035.79-.333 1.588-.87 2.337-.997.143-2.008.243-3.038.274a27.88 27.88 0 0 1-.79.011"/><path fill="#fbc131" d="M458.508 420.81c.43 14.787-11.207 27.125-25.994 27.556-14.788.431-27.125-11.206-27.556-25.994-.432-14.787 11.206-27.125 25.993-27.555 14.788-.432 27.124 11.205 27.557 25.993"/><path fill="#e09715" d="M409.938 422.227c-.352-12.037 9.122-22.078 21.158-22.43 12.037-.35 22.079 9.123 22.43 21.16.352 12.035-9.122 22.078-21.157 22.43-12.038.35-22.08-9.123-22.431-21.16"/><path fill="#e2ae2c" d="M431.756 399.787h-.011.011"/><path fill="#c9881a" d="M409.959 422.614c-.006-.13-.016-.257-.021-.387a21.403 21.403 0 0 1-.01-.632c-.008-11.755 9.343-21.453 21.168-21.798h.057c.197-.007.395-.01.592-.01h.011c11.742.008 21.425 9.354 21.77 21.17.004.128 0 .257.002.385-.543-11.636-10.143-20.78-21.763-20.78-.214 0-.43.002-.646.008-11.906.347-21.299 10.181-21.16 22.044"/><path fill="#c9881a" d="M430.378 436.859l-.088-2.998c-2.117-.161-3.734-.709-4.849-1.644-1.117-.933-1.706-2.455-1.767-4.565l-.026-.9 5.996-.175.019.634c.03.999.237 1.681.627 2.048.37.351.848.525 1.433.525.027 0 .055 0 .082-.002.644-.018 1.131-.243 1.464-.677.332-.431.489-.948.471-1.546-.021-.757-.277-1.348-.769-1.779-.49-.43-1.101-.796-1.831-1.096-.732-.302-1.524-.6-2.377-.899a10.06 10.06 0 0 1-2.385-1.198c-.738-.5-1.358-1.165-1.86-1.995-.503-.83-.773-1.922-.813-3.277-.12-4.154 1.841-6.623 5.886-7.408l-.056-1.932 3.064-.089.057 1.931c2.228.16 3.857.783 4.89 1.874 1.033 1.095 1.582 2.784 1.648 5.071l-5.796.17-.015-.5c-.02-.667-.182-1.246-.484-1.736-.293-.475-.723-.711-1.291-.711h-.064c-.666.019-1.149.251-1.446.692-.3.443-.44.92-.425 1.43.022.778.29 1.38.802 1.81.513.43 1.151.795 1.916 1.094.764.3 1.584.589 2.459.861a9.726 9.726 0 0 1 2.469 1.18c.77.51 1.419 1.193 1.944 2.044.523.851.808 1.999.85 3.443.067 2.265-.474 3.96-1.62 5.082-1.145 1.123-2.857 1.839-5.138 2.151l.088 2.998-3.065.089"/><path fill="#fbc131" d="M425.418 431.445c-1.117-.934-1.705-2.456-1.767-4.566l-.026-.9 5.996-.174.019.631c.029 1 .238 1.684.626 2.05.389.368.895.541 1.517.523.643-.019 1.13-.244 1.463-.677.333-.43.489-.947.473-1.547-.023-.755-.28-1.346-.77-1.778-.49-.43-1.101-.796-1.831-1.097-.733-.3-1.524-.6-2.378-.898a10.14 10.14 0 0 1-2.386-1.197c-.736-.5-1.356-1.165-1.858-1.996-.503-.83-.773-1.923-.813-3.278-.12-4.152 1.84-6.621 5.886-7.406l-.056-1.933 3.065-.09.056 1.933c2.227.157 3.856.782 4.89 1.874 1.032 1.092 1.581 2.783 1.647 5.071l-5.796.169-.015-.5c-.02-.667-.181-1.245-.484-1.737-.303-.49-.755-.727-1.355-.71-.666.02-1.148.25-1.446.692-.299.443-.44.918-.425 1.43.023.778.29 1.381.803 1.811.512.43 1.15.795 1.916 1.094.764.3 1.585.587 2.459.861a9.684 9.684 0 0 1 2.468 1.18c.77.51 1.419 1.191 1.944 2.042.525.852.809 2 .851 3.443.065 2.266-.475 3.96-1.62 5.084-1.146 1.121-2.857 1.837-5.138 2.148l.087 3-3.065.09-.087-3c-2.117-.16-3.733-.708-4.85-1.642"/><path fill="#4c3625" d="M290.039 362.459c.906 5.952 4.134 10.396 7.21 9.928 3.077-.468 4.837-5.67 3.932-11.623-.906-5.95-4.133-10.397-7.211-9.928-3.076.468-4.836 5.673-3.931 11.623m-68.436 9.747c.905 5.951 4.132 10.396 7.21 9.928 3.076-.468 4.836-5.672 3.93-11.623-.904-5.952-4.133-10.396-7.21-9.929-3.077.47-4.837 5.673-3.93 11.624"/><path fill="#ec6180" d="M243.044 419.504s28.949.752 46.595-5.022c0 0 1.175-25.887-25.819-21.44-26.177 4.312-20.776 26.462-20.776 26.462"/><path d="M435.353 384.72l3.736-16.413 4.542 2.468-6.3 14.451-1.978-.506m-9.927.619l-5.237-20.778 6.982-1.429 1.028 21.725-2.773.482m-7.046 2.241l-9.67-15.251-3.734 5.031 11.514 11.66 1.89-1.44m210.426-113.529l10.335-45.4 12.564 6.828-17.424 39.968-5.475-1.396m-28.797.364l-14.486-57.466 19.313-3.953 2.84 60.089-7.667 1.33m-18.146 7.545l-26.747-42.183-10.326 13.913 31.848 32.25 5.225-3.98m-311.599-66.746l1.301.21a5.543 5.543 0 0 1 4.586 6.356l-.3 1.855a5.542 5.542 0 0 1-6.355 4.586l-1.302-.211a5.54 5.54 0 0 1-4.585-6.355l.3-1.855a5.542 5.542 0 0 1 6.355-4.586zm-7.42-73.708c5.939-4.574 13.331-6.146 22.174-4.715 8.18 1.324 14.356 4.69 18.528 10.099 4.175 5.411 5.682 11.706 4.522 18.882-.705 4.348-2.167 7.732-4.39 10.15-2.222 2.418-6.522 5.805-12.898 10.16-4.64 3.164-7.779 5.972-9.42 8.42-1.07 1.595-1.969 3.77-2.696 6.52a5.543 5.543 0 0 1-6.239 4.06c-3.229-.52-5.325-3.725-4.479-6.882.839-3.13 1.883-5.758 3.133-7.886 1.974-3.363 5.742-6.974 11.302-10.83l5.808-4.048c1.731-1.151 3.187-2.41 4.372-3.776 2.133-2.389 3.433-5.02 3.897-7.891.65-4.02-.01-7.704-1.982-11.053-1.972-3.35-5.783-5.481-11.437-6.396-6.994-1.131-12.241.63-15.745 5.28-1.364 1.794-2.511 4.24-3.444 7.337-.772 2.563-3.366 4.125-6.009 3.698l-.137-.023c-3.388-.548-5.479-3.977-4.415-7.212 1.92-5.835 5.105-10.466 9.555-13.894m-72.311 72.918l1.773-.354a6.623 6.623 0 0 1 7.793 5.201l.486 2.439a6.624 6.624 0 0 1-5.2 7.792l-1.774.354a6.624 6.624 0 0 1-7.792-5.201l-.486-2.44a6.623 6.623 0 0 1 5.2-7.791zm-39.63-80.708c4.813-7.722 12.553-12.649 23.22-14.776 9.863-1.966 18.32-.759 25.362 3.622 7.044 4.383 11.43 10.902 13.156 19.56 1.047 5.243.819 9.712-.683 13.405-1.5 3.694-4.954 9.373-10.357 17.032-3.933 5.568-6.312 10.093-7.14 13.575-.547 2.305-.642 5.212-.283 8.721.345 3.366-1.983 6.427-5.3 7.09l-.167.032c-3.866.772-7.547-1.94-7.927-5.83-.386-3.962-.318-7.432.206-10.41.818-4.666 3.571-10.37 8.258-17.117l4.887-7.071c1.481-2.044 2.604-4.093 3.37-6.148 1.413-3.626 1.774-7.17 1.084-10.632-.969-4.848-3.285-8.757-6.949-11.729-3.665-2.973-8.905-3.78-15.725-2.42-8.434 1.682-13.655 5.912-15.664 12.69-.775 2.575-1.046 5.779-.815 9.611.202 3.329-2.04 6.311-5.308 6.963l-.228.045c-3.98.793-7.774-2.075-7.956-6.087-.344-7.56 1.31-14.268 4.96-20.126" fill="#ddd"/></svg>