<svg width="1000" height="750" xmlns="http://www.w3.org/2000/svg"><title>Layer 1</title><path fill="#fbd8b6" d="M455.104 519.104s11.13-7.787 3.769-14.703c-7.363-6.916-12.383 5.804-12.383 5.804l8.614 8.899"/><path fill="#f8f8f8" d="M444.615 511.586l1.938-2.585 9.6 9.94-2.162 2.599-9.376-9.954"/><path fill="#2e2d2d" d="M365.524 517.172s38.134 59.66 89.919 4.18L444.93 509.65s-31.118 42.412-69.348.675l-10.06 6.848"/><path fill="#4f5052" d="M444.618 528.726a1.44 1.44 0 1 0-2.26-1.783 1.44 1.44 0 0 0 2.26 1.783m3.756-3.362a1.442 1.442 0 0 0-.236-2.023 1.442 1.442 0 0 0-1.788 2.261 1.443 1.443 0 0 0 2.024-.238m3.666-3.249a1.443 1.443 0 0 0-.239-2.025 1.44 1.44 0 1 0 .239 2.025"/><path fill="#fbd8b6" d="M258.911 523.524s-20.621-98.337 41.373-111.949c79.026-17.353 74.756 101.152 74.756 101.152l-116.129 10.797"/><path fill="#4c3625" d="M309.075 467.246c.928 4.335-.001 8.209-2.076 8.653-2.075.443-4.508-2.71-5.436-7.045-.928-4.335 0-8.208 2.076-8.653 2.074-.444 4.509 2.71 5.436 7.045m50.974-10.911c.927 4.334-.001 8.209-2.076 8.651-2.075.445-4.51-2.71-5.437-7.044-.927-4.335.002-8.208 2.075-8.652 2.075-.445 4.509 2.71 5.438 7.045"/><path fill="#ec6180" d="M317.139 487.524s20.565-5.994 34.274-5.192c0 0 5.486 17.707-14.425 21.312-19.71 3.568-19.85-16.12-19.85-16.12"/><path fill="#2e2d2d" d="M380.355 587.971l-2.035 40.075-7.021 33.611s15.209-8.5 20.177 1.753c6.998 14.442-27.372 4.629-27.372 4.629l4.864-41.505-2.867-25.295s-29.34 9.302-74.591 8l.254 22.082-7.31 34.176s9.442-9.97 18.724.488c12.453 14.033-25.958 5.305-25.958 5.305l3.94-40.659-4.946-27.535s38.859-15.666 104.141-15.125"/><path fill="#2e2d2d" d="M294.198 517.3l41.478 43.435 30.318-51.03 10.407-.996 3.954 79.262s-10.359 5.29-30.957 9.143c-8.597 1.762-21.863 3.335-21.863 3.335-13.554 1.348-31.981 2.501-51.321 2.647l-20.484-81.131 38.468-4.665"/><path fill="#f8f8f8" d="M365.994 509.705l-30.318 51.03-41.478-43.435 71.796-7.595"/><path fill="#4f5052" d="M365.994 509.705l2.561 20.236-11.214 3.51 3.19 15.276-24.855 12.008 30.318-51.03m-30.318 51.03l-26.235-9.585-.266-11.319-12.501-3.13-2.476-19.401 41.478 43.435"/><path fill="#2e2d2d" d="M342.054 522.224l-4.363-5.265-9.787.658-2.886 7.18 4.393 4.197-3.102 21.975 9.367 9.766 8.06-13.554-5.653-18.857 3.97-6.1"/><path fill="#4f5052" d="M333.51 569.194a3.305 3.305 0 0 0 4.161 2.128 3.306 3.306 0 1 0-4.161-2.128m1.01 15.083a3.307 3.307 0 0 0 4.16 2.132 3.3 3.3 0 0 0 2.129-4.16 3.301 3.301 0 0 0-4.159-2.132 3.302 3.302 0 0 0-2.13 4.16"/><path fill="#4c3625" d="M366.69 367.714s35.2 79.105-88.139 75.615l-.058 24.241s-11.093-10.655-12.688 1.034c-1.836 13.457 10.559 8.576 10.559 8.576s-8.919 28.204-19.711 40.629c-.603.693-50.564-107.969 2.023-106.902 0 0 .597-27.09 33.753-34.377 46.324-10.181 47.567 27.189 74.261-8.816"/><path fill="#fbd8b6" d="M191.83 569.834s-13.521-1.305-10.514-10.948c3.007-9.641 13.635-1.037 13.635-1.037l-3.121 11.985"/><path fill="#f8f8f8" d="M197.264 558.129l-2.959-1.298-3.469 13.378 3.16 1.198 3.268-13.278"/><path fill="#2e2d2d" d="M268.871 524.085s-3.851 70.701-76.23 47.874l3.394-15.363s47.956 21.618 60.709-33.526l12.127 1.015"/><path fill="#4f5052" d="M205.693 573.052a1.438 1.438 0 0 1-.788-1.873 1.437 1.437 0 0 1 1.878-.79 1.44 1.44 0 0 1-1.09 2.664m-4.924-1.081a1.442 1.442 0 0 1-.79-1.877 1.442 1.442 0 0 1 2.669 1.09 1.441 1.441 0 0 1-1.88.787m-4.79-1.025a1.438 1.438 0 1 1 1.089-2.665 1.44 1.44 0 0 1-1.089 2.665"/><path fill="#d78c30" d="M839.326 644.234c-.745 14.203-12.976 25.824-27.178 25.824h-332.27c-14.203 0-25.214-11.62-24.468-25.824l24.568-468.275c.746-14.203 12.976-25.824 27.178-25.824h332.269c14.204 0 25.215 11.621 24.469 25.824l-24.568 468.275"/><path fill="#ee9f22" d="M832.805 644.234c-.745 14.203-12.976 25.824-27.179 25.824H473.358c-14.203 0-25.214-11.62-24.47-25.824l24.57-468.275c.745-14.203 12.975-25.824 27.177-25.824h332.269c14.204 0 25.215 11.621 24.469 25.824l-24.568 468.275"/><path fill="#ee9f22" d="M537.421 529.265c.69 0 1.297-.756.312-.756-.69 0-1.297.756-.312.756"/><path fill="#d78c30" d="M652.861 190.839c-35.172-2.497-70.081-6.85-104.923-11.43-24.49-3.219-49.268-5.048-73.724-8.454a25.776 25.776 0 0 0-.355 1.65c14.927 2.061 29.975 3.517 45.02 4.897 27.276 2.502 54.302 7.008 81.501 10.062 54.514 6.122 109.355 8.45 164.599 6.763 30.586-.932 61.184-2.99 91.744-5.953l.073-1.43c-68.071 6.645-136.331 8.693-203.935 3.895m50.928-15.638c26.985 2.079 54.107 3.104 81.311 2.516 24.144-.52 48.19-2.663 72.18-5.68a25.523 25.523 0 0 0-.204-1.497c-20.395 2.559-40.837 4.476-61.356 5.28-28.04 1.096-56.019.241-83.845-1.688-27.801-1.927-55.344-5.937-82.81-9.918-27.741-4.02-55.477-8.364-82.826-14.079h-8.623c27.51 5.987 55.44 10.507 83.407 14.665 27.43 4.076 55.008 8.264 82.766 10.401m-233.195 55.333l-.089 1.673c43.413-6.68 87.164-9.51 130.79-10.663 55.53-1.467 111.139-1.257 166.421 1.281 29.039 1.332 58.027 3.442 86.858 6.496l.089-1.707c-57.202-5.983-115.022-8.319-172.837-8.499-70.236-.22-141.138.609-211.232 11.419m181.961 11.258c-62.316 2.244-125.521 11.637-184.419 35.565l-.086 1.645c92.943-38.267 195.826-39.698 292.738-34.523 31.006 1.656 61.947 4.613 92.5 9.356l.083-1.595a862.963 862.963 0 0 0-43.318-5.514c-51.995-5.305-104.897-6.829-157.498-4.934m-49.771 73.73a2785.337 2785.337 0 0 0-136.57-1.498l-.085 1.598c10.49-.177 20.98-.266 31.476-.3 57.133-.182 114.083 1.97 171.065 3.862 22.638.75 45.258 1.725 67.808 3.322 22.422 1.586 44.662 4.36 66.843 7.45 15.247 2.125 30.445 4.494 45.604 7.048l.09-1.735c-25.705-4.307-51.531-8.055-77.484-11.12-55.757-6.584-112.465-6.622-168.747-8.627"/><path fill="#d78c30" d="M603.021 263.93c-4.186 1.071-9.866 2.299-12.997 5.674-3.49 3.765 5.307 7.607 7.276 8.65 8.346 4.418 18.044 6.501 27.408 8.082 11.992 2.026 24.108 3.666 36.277 4.716 13.566 1.172 27.206 1.748 40.766 2.957 13.848 1.232 27.595 3.271 41.372 4.945a5909.263 5909.263 0 0 0 83.095 9.488c8.022.86 16.046 1.695 24.072 2.52l.098-1.833a5894.776 5894.776 0 0 1-82.513-9.087c-27.494-3.222-54.871-7.245-82.575-9.07-13.637-.9-27.28-1.727-40.784-3.566-10.821-1.475-21.83-2.915-32.298-5.835-4.915-1.371-9.697-3.182-14.108-5.671-1.392-.786-6.195-3-5.494-5.318 1.153-3.815 11.477-5.24 14.537-5.962 16.993-4.008 33.873-5.344 51.15-5.649 57.02-1.004 113.378 8.229 168.547 19.084a1814.356 1814.356 0 0 1 24.899 5.102l.11-2.102c-40.519-8.709-81.451-16.338-122.838-20.361-41.281-4.015-84.653-7.339-126 3.236m-78.213 72.064c-19.832-1.49-39.748-1.424-59.685-1.178l-.09 1.676c16.597-.395 33.2-.595 49.56.764 27.76 2.304 55.643 3.653 83.546 4.674 57.272 2.095 114.52 4.024 171.709 7.055 26.082 1.381 52.15 2.87 78.216 4.417l.106-2.027c-75.059-4.441-150.175-8.35-225.446-10.636-32.696-.993-65.37-2.299-97.916-4.745m218.365 62.562c-28.328-1.734-56.56-4.27-84.744-7.081-27.649-2.758-55.341-5.124-82.909-8.411-37.626-4.489-75.059-10.25-111.985-17.993l-.129 2.459c41.22 8.537 83.044 14.645 125.078 19.351 27.702 3.1 55.516 5.525 83.287 8.185 28.187 2.699 56.435 4.981 84.777 6.456 29.555 1.538 59.227 2.105 88.926 1.258l.112-2.139c-34.217.94-68.398-.001-102.413-2.085m-4.825 36.203c-55.63-3.797-110.61-12.122-165.573-19.912-26.661-3.78-53.171-8.396-79.301-14.442-10.601-2.453-21.01-5.371-31.348-8.484l-.118 2.253c10.125 3.01 20.322 5.833 30.698 8.235 26.38 6.102 53.178 10.647 80.089 14.465 54.983 7.793 109.963 15.995 165.606 19.792 27.707 1.89 55.404 3.278 83.294 3.044a1131.2 1131.2 0 0 0 21.863-.404l.096-1.842c-6.5.177-13.001.316-19.5.391-28.735.335-57.269-1.149-85.806-3.096M629.8 465.761c-41.815 5.24-83.792 13.203-124.605 25.013-16.784 4.857-32.939 11.026-49.17 17.432l-.106 2.015c2.952-1.181 5.904-2.36 8.851-3.542 25.115-10.064 51.171-17.373 77.333-23.4 53.983-12.438 108.828-19.347 163.632-22.264 45.66-2.43 91.273-2.024 136.65.62l.11-2.086c-70.619-4.034-141.801-2.674-212.695 6.212m-81.469-12.509c10.687-3.413 22.268-4.885 32.05-10.86.829-.505.154-1.033-.441-1.155-4.452-.91-8.829-.37-13.377-.053-5.347.373-10.803-.478-16.017-1.284-10.042-1.55-20.108-3.106-30.103-4.878-20.355-3.606-40.34-8.806-59.77-15.435l-.108 2.098c18.519 6.199 37.516 11.037 56.85 14.615 10.049 1.859 20.209 3.235 30.295 4.937 4.541.768 9.108 1.288 13.736 1.523 2.275.115 4.553-.035 6.824-.186 2.785-.185 5.561-.37 8.316-.065-9.807 5.435-21.727 6.932-32.221 10.358a864.063 864.063 0 0 1-36.7 11.092c-16.601 4.62-33.276 8.91-49.999 12.96l-.083 1.6c17.62-4.265 35.188-8.794 52.682-13.66 12.795-3.562 25.404-7.563 38.066-11.607m167.48 45.54a863.077 863.077 0 0 0-161.653 17.093 648.705 648.705 0 0 0-41.654 9.851c-14.28 3.889-28.166 8.903-42.256 13.466-5.345 1.733-10.744 3.455-16.125 5.268l-.12 2.285c5.42-1.849 10.863-3.594 16.26-5.333 12.456-4.018 24.736-8.506 37.306-12.133 13.37-3.86 26.88-7.125 40.44-10.032 54.025-11.566 108.929-17.36 163.601-18.272 28.495-.476 56.851.521 85.034 3.394 14.467 1.475 28.864 3.381 43.207 5.551l.123-2.343c-13.758-2.05-27.561-3.858-41.433-5.303-27.415-2.857-55.011-3.799-82.73-3.492M591.883 549.68c-47.224 3.262-95.095 11.3-139.58 29.446l-.117 2.255c34.922-14.506 72.08-22.574 109.245-26.955 54.649-6.442 109.615-5.937 163.958-2.762 37.355 2.182 74.675 5.097 111.79 9.208l.111-2.11c-27.102-2.958-54.306-5.29-81.55-7.2-54.464-3.82-108.932-5.675-163.857-1.882m104.466 47.236c-27.386-1.382-54.776-2.73-82.31-2.076-55.114 1.31-110.44 9.684-163.911 25.77l-.075 1.42c40.763-12.333 82.62-20.114 124.665-23.708 55.436-4.74 110.827-1.09 165.782 2.57 31.48 2.097 62.893 4.892 94.123 8.688l.078-1.481c-18.747-2.265-37.561-4.174-56.413-5.783-27.248-2.329-54.58-4.019-81.94-5.4m43.352 58.998c-27.771-1.859-55.604-3.224-83.481-4.02-41.308-1.182-82.605-1.428-124.065.898a1075.256 1075.256 0 0 0-78.604 7.308c.4.549.819 1.079 1.263 1.591 97.325-12.182 194.923-10.3 291.825-3.556 20.107 1.399 40.185 3.053 60.236 4.881 4.98.454 9.952.978 14.92 1.54.61-.461 1.201-.944 1.772-1.451l-.315-.04c-27.638-3.518-55.671-5.286-83.551-7.151"/><path fill="#d4901d" d="M799.681 646.754s-85.272-8.547-150.693-8.547c-65.422 0-151.59 8.547-151.59 8.547l.497-9.469h297.04l1.671-31.844c1.74.169 3.477.339 5.217.513l-2.142 40.8m2.218-42.26c-1.738-.173-3.478-.343-5.216-.51l2.46-46.918c1.74.156 3.48.315 5.22.476l-2.464 46.952m2.571-49.018c-1.74-.159-3.477-.316-5.217-.47l2.626-50.075c1.739.19 3.476.385 5.212.586l-2.621 49.96m2.741-52.243a897.615 897.615 0 0 0-5.212-.583l2.24-42.696c1.744.051 3.491.106 5.234.165l-2.262 43.114m2.37-45.165c-1.746-.058-3.488-.11-5.235-.16l.958-18.24c1.745.022 3.492.04 5.24.051l-.963 18.349m1.059-20.185a812.747 812.747 0 0 1-5.24-.055l1.82-34.705c1.748.017 3.494.03 5.241.038l-1.821 34.722m1.935-36.895c-1.747-.01-3.492-.024-5.24-.043l2.61-49.759 5.228.298-2.598 49.504m2.704-51.523l-5.228-.296.952-18.123c1.733.252 3.468.507 5.202.763l-.926 17.656m1.015-19.359c-1.734-.256-3.468-.508-5.203-.76l1.177-22.415c1.737.19 3.475.38 5.212.568l-1.186 22.607m2.926-55.767c-1.731-.338-3.457-.671-5.19-1.003l1.285-24.492c1.738.189 3.476.382 5.213.582l-1.308 24.913m1.389-26.474a800.232 800.232 0 0 0-5.213-.579l1.127-21.456c1.74.136 3.48.275 5.22.416l-1.134 21.62m1.222-23.292c-1.738-.141-3.482-.279-5.221-.413l1.708-32.558c1.755-.124 3.508-.252 5.263-.383l-1.75 33.354m-3.438-34.386l.065-1.255h5.243l-.046.871c-1.754.131-3.509.26-5.262.384"/><path fill="#c17f2e" d="M818.318 191.604l.075-1.415c1.753-.124 3.508-.253 5.262-.384l-.074 1.416c-1.755.131-3.508.259-5.263.383m3.426 34.643c-1.74-.14-3.481-.28-5.221-.416l.087-1.669c1.739.134 3.483.272 5.221.413l-.087 1.672m-1.216 23.18c-1.737-.2-3.475-.393-5.213-.582l.081-1.558c1.739.188 3.477.38 5.213.58l-.081 1.56"/><path fill="#d4901d" d="M817.578 305.656l-5.214-.569 1.55-29.54c1.73.33 3.464.663 5.191.997l-1.527 29.112"/><path fill="#c17f2e" d="M816.205 331.81c-1.734-.256-3.469-.511-5.202-.763l.088-1.7c1.735.252 3.469.504 5.203.76l-.089 1.703m1.275-24.31l-5.212-.568.096-1.845 5.214.57-.098 1.843m1.625-30.956a2242.16 2242.16 0 0 0-5.191-.997l.116-2.21c1.733.332 3.459.665 5.19 1.003l-.115 2.204m-3.932 74.941l-5.228-.298.106-2.017 5.228.296-.106 2.019m-2.712 51.677a1046.59 1046.59 0 0 1-5.241-.038l.115-2.178c1.748.019 3.493.033 5.24.043l-.114 2.173m-1.917 36.558a811.913 811.913 0 0 1-5.24-.051l.096-1.84c1.748.023 3.491.042 5.24.055l-.096 1.836m-1.071 20.4c-1.743-.059-3.49-.114-5.234-.165l.107-2.046c1.747.05 3.489.102 5.235.16l-.108 2.051m-2.382 45.397a800.363 800.363 0 0 0-5.212-.586l.12-2.28c1.739.189 3.476.384 5.212.583l-.12 2.283m-2.728 52.025c-1.74-.16-3.48-.32-5.22-.476l.11-2.06c1.74.154 3.477.311 5.217.47l-.107 2.066m-2.54 48.412c-1.74-.174-3.477-.344-5.217-.513l.077-1.457c1.738.167 3.478.337 5.216.51l-.076 1.46"/><path fill="#f8f8f8" d="M818.774 182.907H511.326l-23.838 454.378h307.447l23.839-454.378"/><path fill="#d4901d" d="M783.783 182.907H576.916l1.05-1.56c2.049-3.05 5.392-5.42 8.769-6.217l40.103-9.465c25.513 3.792 51.153 7.55 76.95 9.536 21.907 1.688 43.906 2.68 65.962 2.68 4.565 0 9.129-.042 13.698-.13.51 1.011.703 2.235.53 3.594l-.195 1.562m-13.398-6.603c-19.557 0-39.071-.824-58.51-2.172-26.982-1.87-53.721-5.702-80.381-9.566l26.377-6.226 6.384-8.205h58.343l-.164 8.205 57.739 16.79a5.56 5.56 0 0 1 2.048 1.071c-3.947.069-7.892.103-11.836.103"/><path fill="#c17f2e" d="M769.75 177.881c-22.056 0-44.055-.992-65.961-2.68-25.798-1.986-51.438-5.744-76.951-9.536l4.656-1.099c26.66 3.864 53.399 7.695 80.381 9.566 19.439 1.348 38.953 2.172 58.51 2.172 3.944 0 7.889-.034 11.836-.103.513.43.925.954 1.227 1.55-4.57.088-9.133.13-13.698.13"/><path fill="#dfe0df" d="M767.184 222.9H561.603c-5.82 0-7.837-5.533-4.067-11.146l19.38-28.847h206.867l-3.64 28.847c-.707 5.613-7.14 11.146-12.96 11.146"/><path fill="#bbbcbd" d="M672.539 86.881c4.754 0 8.406 3.853 8.156 8.608-.25 4.755-4.306 8.608-9.059 8.608-4.753 0-8.406-3.853-8.157-8.608.249-4.755 4.305-8.608 9.06-8.608zm92.225 85.64l-63.555-16.789-5.673-17.365c7.617-6.95 12.582-16.802 12.903-27.698.562-19.102-13.879-35.032-32.886-36.21-21.523-1.337-40.35 15.78-41.467 37.085-.553 10.547 3.349 20.061 10.052 26.823l-7.494 17.365-65.318 16.79a9.483 9.483 0 0 0-6.615 6.215l-9.891 30.408c-1.826 5.614 2.11 11.146 7.929 11.146H768.33c5.819 0 10.335-5.532 9.098-11.146l-6.702-30.408a8.217 8.217 0 0 0-5.962-6.216"/><path fill="#d3d4d3" d="M670.089 86.881c4.754 0 8.406 3.853 8.156 8.608-.25 4.755-4.306 8.608-9.059 8.608-4.755 0-8.406-3.853-8.157-8.608.249-4.755 4.306-8.608 9.06-8.608zm92.226 85.64l-63.556-16.789-5.673-17.365c7.617-6.95 12.582-16.802 12.903-27.698.562-19.102-13.879-35.032-32.886-36.21-21.523-1.337-40.35 15.78-41.465 37.085-.555 10.547 3.347 20.061 10.05 26.823l-7.494 17.365-65.316 16.79a9.476 9.476 0 0 0-6.615 6.215l-9.893 30.408c-1.826 5.614 2.11 11.146 7.929 11.146H765.88c5.818 0 10.335-5.532 9.098-11.146l-6.702-30.408a8.218 8.218 0 0 0-5.961-6.216"/><path fill="#f6bd51" d="M146.381 358.727s-5.295 4.247-9.328 4.895c-4.034.648-10.393-1.726-10.393-1.726l45.351 282.223 19.722-3.169-45.352-282.223"/><path fill="#ee9f22" d="M126.66 361.896s-2.116 2.463-4.77 2.889c-2.322.372-4.742-.863-5.31-1.178a6.95 6.95 0 0 0 .069 1.137l45.156 281.015 10.206-1.64-45.351-282.223"/><path fill="#2e2d2d" d="M131.829 324.687c-.356-.453-.761-.642-1.126-.583-.365.058-.69.365-.888.906l-4.2 11.731 13.879-2.231-7.665-9.823"/><path fill="#e24d1e" d="M203.268 647.583l-40.133 6.45.986 6.145c1.782 11.08 11.678 15.312 22.76 13.53 11.083-1.78 19.154-8.898 17.374-19.98l-.987-6.145"/><path fill="#f8f8f8" d="M201.938 639.309l-40.133 6.45 1.33 8.274 40.133-6.45-1.33-8.274"/><path fill="#f8cd98" d="M155.151 354.581l-15.657-20.071-13.879 2.231-8.582 23.965c-.28.768-.444 1.9-.454 2.901.569.315 2.989 1.55 5.31 1.178 2.655-.426 4.771-2.889 4.771-2.889s6.359 2.374 10.393 1.726c4.033-.648 9.328-4.895 9.328-4.895s2.782 1.675 5.437 1.25c2.32-.373 4.232-2.306 4.673-2.783-.322-.948-.835-1.972-1.34-2.613"/><path fill="#ee9f22" d="M146.381 358.727l45.352 282.223 10.205-1.641-45.157-281.014a7.058 7.058 0 0 0-.29-1.101c-.441.477-2.352 2.41-4.673 2.782-2.655.426-5.437-1.249-5.437-1.249"/><path d="M659.434 682.802c-123.794 0-224.149-5.397-224.149-12.056 0-1.935 8.469-3.762 23.518-5.382 4.043 2.953 9.06 4.694 14.555 4.694h338.79c6.86 0 13.262-2.713 18.13-7.118 33.246 2.103 53.305 4.828 53.305 7.806 0 6.659-100.355 12.056-224.15 12.056m-326.787 0c-42.811 0-77.517-4.332-77.517-9.676 0-5.343 34.706-9.677 77.517-9.677 42.813 0 77.518 4.334 77.518 9.677 0 5.344-34.705 9.676-77.518 9.676m-162.962-3.75c-26.849 0-48.614-2.852-48.614-6.37 0-3.52 21.765-6.374 48.614-6.374 26.847 0 48.612 2.853 48.612 6.373s-21.765 6.371-48.612 6.371" fill="#eee"/></svg>