<svg width="1000" height="750" xmlns="http://www.w3.org/2000/svg"><title>Layer 1</title><path fill="#eee" d="M548.091 580.764c-57.441 0-104.006-5.23-104.006-11.683 0-6.451 46.565-11.682 104.006-11.682 57.44 0 104.005 5.231 104.005 11.682 0 6.453-46.565 11.683-104.005 11.683m239.288-.489c-55.036 0-99.651-5.011-99.651-11.194 0-6.182 44.615-11.194 99.65-11.194 55.037 0 99.653 5.012 99.653 11.194 0 6.183-44.616 11.194-99.652 11.194m-524.419 0c-71.315 0-129.126-5.011-129.126-11.194 0-6.182 57.811-11.194 129.126-11.194 71.314 0 129.125 5.012 129.125 11.194 0 6.183-57.811 11.194-129.125 11.194"/><path fill="#fbd6b1" d="M712.801 395.954s-21.071-108.029 45.194-122.58c84.478-18.548 78.94 111.037 78.94 111.037l-124.134 11.543"/><path fill="#3c3c3d" d="M833.433 230.381s32.036 82.065-98.545 77.058l-.187 25.791s-11.857-11.389-13.56 1.104c-1.963 14.386 11.284 9.168 11.284 9.168s-8.714 35.78-20.25 49.06c-1.871-1.903-54.869-121.042 1.345-119.902 0 0 .639-26.598 36.08-34.388 49.518-10.883 55.299 30.594 83.833-7.89"/><path fill="#3c3c3d" d="M765.178 333.524c.668 4.825-.813 9.017-3.308 9.365-2.494.345-5.059-3.288-5.727-8.113-.672-4.825.81-9.019 3.305-9.364 2.496-.346 5.06 3.287 5.73 8.112m56.122-8.21c.669 4.827-.81 9.018-3.305 9.365-2.496.346-5.059-3.288-5.729-8.113-.67-4.824.814-9.017 3.307-9.362 2.493-.345 5.06 3.285 5.727 8.11"/><path fill="#ec6180" d="M808.969 351.45c-5.35.059-22.643.544-34.581 4.265a1.962 1.962 0 0 0-1.357 2.042c.37 4.533 3.02 17.152 21.149 15.4 17.891-1.73 17.485-15.232 16.761-20.03a1.965 1.965 0 0 0-1.972-1.677"/><path fill="#3c3c3d" d="M866.533 561.999c-8.302-12.04-23.528-.79-23.528-.79l1.583-37.358-6.198-145.124-11.124 1.067-32.407 54.547-44.339-46.43-41.119 4.988c9.09 41.143 17.685 82.452 20.732 131.937l-28.105 22.785s16.57 30.428 20.227 19.705c5.663-16.599-10.772-19.63-10.772-19.63l29.763-16.974 5.309-31.462c49.351-1.153 80.826-8.55 80.826-8.55l6.142 34.726 3.752 43.375s37.56 5.225 29.258-6.812"/><path fill="#f8f8f8" d="M827.266 379.794L794.86 434.34l-44.339-46.43 76.746-8.117"/><path fill="#7a7b7c" d="M827.266 379.794l2.737 21.632-11.985 3.751 3.408 16.328-26.567 12.836 32.407-54.547"/><path fill="#7a7b7c" d="M794.859 434.341l-28.045-10.247L766.53 412l-13.364-3.349-2.646-20.74 44.339 46.43"/><path fill="#b24928" d="M801.678 393.175l-4.667-5.628-10.462.704-3.085 7.674 4.697 4.487-3.316 23.488 10.014 10.441 8.615-14.487-6.045-20.159 4.249-6.52"/><path fill="#7a7b7c" d="M792.543 444.769a3.535 3.535 0 0 0 6.727-2.173 3.535 3.535 0 0 0-6.728 2.173m1.079 16.127a3.538 3.538 0 0 0 4.449 2.276 3.53 3.53 0 0 0 2.274-4.447 3.53 3.53 0 0 0-4.445-2.276 3.53 3.53 0 0 0-2.278 4.447"/><path fill="#fbd6b1" d="M649.745 464.7s-1.199 14.471 9.519 13.139c10.712-1.335 3.68-14.145 3.68-14.145l-13.199 1.006"/><path fill="#f8f8f8" d="M663.455 461.617l.69 3.384-14.757.626-.182-3.505 14.249-.505"/><path fill="#3c3c3d" d="M709.401 392.899s-68.958-2.24-61.437 70.453l16.814-.106s-10.945-56.179 50.25-50.545l-5.627-19.802"/><path fill="#7a7b7c" d="M649.768 454.852a1.54 1.54 0 1 0 3.028-.543 1.541 1.541 0 0 0-1.781-1.248 1.55 1.55 0 0 0-1.247 1.791m-.002 5.237a1.54 1.54 0 0 0 1.788 1.243 1.535 1.535 0 0 0 1.242-1.78 1.533 1.533 0 0 0-1.785-1.246 1.537 1.537 0 0 0-1.245 1.783"/><path fill="#dda035" d="M265.316 412.126l10.662 18.75 16.673 29.325 29.23 51.406 9.488 16.687 11.776 20.711a179.915 179.915 0 0 1-41.342 17.057 184.86 184.86 0 0 1-3.994 1.04l.072.022 35.702-9.657.046-.045c14.167-4.02 27.465-9.626 39.737-16.59L289.31 392.998l-34.915-.082 10.922 19.21"/><path fill="#eba936" d="M237.204 211.599a181.652 181.652 0 0 0-14.399 4.605c90.465-16.278 179.993 38.947 204.734 129.302a179.7 179.7 0 0 1 6.406 47.835l30.221-8.174a179.701 179.701 0 0 0-6.407-47.835C431.575 241.707 332.83 185.415 237.204 211.6"/><path fill="#fab63c" d="M386.074 356.862c-19.881-72.607-95.13-115.506-167.738-95.623-72.607 19.881-115.504 95.128-95.623 167.736 19.88 72.607 95.128 115.505 167.737 95.624a136.332 136.332 0 0 0 31.431-12.992l-29.23-51.406c-3.008 1.596-6.272 3.091-9.807 4.476l5.31 19.392-19.818 5.426-5.308-19.391c-14.042 2.301-25.434 1.29-34.18-3.032-8.75-4.32-14.992-13.297-18.728-26.946l-1.592-5.817 38.778-10.618 1.122 4.094c1.77 6.462 4.208 10.582 7.32 12.352 3.107 1.778 6.676 2.11 10.698 1.01 4.165-1.14 6.982-3.378 8.465-6.72.51-1.15.858-2.336 1.067-3.55l-10.662-18.75c-3.323-1.43-7.066-2.488-11.263-3.137a319.527 319.527 0 0 0-16.9-2.089 68.013 68.013 0 0 1-17.432-4.026c-5.592-2.094-10.678-5.45-15.261-10.065-4.585-4.609-8.071-11.298-10.471-20.06-7.353-26.854 1.52-46.039 26.624-57.545l-3.422-12.496 19.818-5.427 3.422 12.497c14.755-2.495 26.359-1.002 34.809 4.478 8.451 5.485 14.7 15.625 18.749 30.417L256.5 354.939l-.885-3.232c-1.18-4.31-3.147-7.823-5.892-10.545-2.756-2.72-6.069-3.548-9.949-2.487-4.309 1.181-7.086 3.445-8.327 6.797-1.247 3.352-1.413 6.68-.51 9.982 1.378 5.028 4.073 8.535 8.093 10.521 4.017 1.991 8.752 3.357 14.205 4.1 5.455.747 11.249 1.321 17.378 1.726a65.11 65.11 0 0 1 17.944 3.771c5.82 2.112 11.123 5.524 15.886 10.24 2.011 1.993 3.815 4.422 5.434 7.235l81.02.193a136.126 136.126 0 0 0-4.824-36.378"/><path fill="#fab63c" d="M222.805 216.204a181.642 181.642 0 0 0-15.822 3.568c-95.625 26.184-151.918 124.93-125.735 220.555 25.82 94.295 122.196 150.34 216.56 126.775a179.915 179.915 0 0 0 45.336-18.097l-11.775-20.711a155.439 155.439 0 0 1-35.85 14.816c-82.815 22.677-168.641-26.251-191.318-109.066-22.676-82.817 26.252-168.642 109.068-191.318 82.815-22.676 168.64 26.251 191.316 109.068a155.192 155.192 0 0 1 5.503 41.491l23.857.056a179.7 179.7 0 0 0-6.406-47.835c-24.741-90.355-114.269-145.58-204.734-129.302"/><path fill="#d99422" d="M404.585 351.794c-22.676-82.817-108.501-131.744-191.316-109.068C130.453 265.402 81.525 351.227 104.2 434.044c22.677 82.815 108.503 131.743 191.318 109.066a155.439 155.439 0 0 0 35.85-14.816l-9.488-16.687a136.332 136.332 0 0 1-31.43 12.993c-72.609 19.881-147.856-23.017-167.737-95.624-19.881-72.608 23.016-147.855 95.623-167.736 72.608-19.883 147.857 23.016 167.738 95.623a136.126 136.126 0 0 1 4.824 36.378l19.19.045a155.192 155.192 0 0 0-5.503-41.491"/><path fill="#d99422" d="M274.911 434.427c-1.483 3.342-4.3 5.58-8.465 6.72-4.022 1.1-7.591.768-10.698-1.01-3.112-1.77-5.55-5.89-7.32-12.352l-1.122-4.094-38.778 10.618 1.592 5.817c3.736 13.649 9.978 22.626 18.728 26.946 8.746 4.322 20.138 5.333 34.18 3.032l5.308 19.391 19.818-5.426-5.31-19.392c3.535-1.385 6.799-2.88 9.807-4.476l-16.673-29.325a14.974 14.974 0 0 1-1.067 3.551m29.533-48.615c-4.763-4.716-10.065-8.128-15.886-10.24a65.11 65.11 0 0 0-17.944-3.77c-6.129-.406-11.923-.98-17.378-1.727-5.453-.743-10.188-2.109-14.205-4.1-4.02-1.986-6.715-5.493-8.092-10.521-.904-3.303-.738-6.63.509-9.982 1.24-3.352 4.018-5.616 8.327-6.797 3.88-1.061 7.193-.233 9.949 2.487 2.745 2.722 4.712 6.235 5.892 10.545l.885 3.232 37.488-10.265c-4.049-14.792-10.298-24.932-18.749-30.417-8.45-5.48-20.054-6.973-34.809-4.478l-3.422-12.497-19.818 5.427 3.422 12.496c-25.104 11.506-33.977 30.691-26.624 57.545 2.4 8.762 5.886 15.451 10.471 20.06 4.583 4.615 9.669 7.971 15.261 10.065a68.013 68.013 0 0 0 17.432 4.026c6.026.591 11.658 1.29 16.9 2.089 4.197.649 7.94 1.706 11.263 3.136l-10.922-19.209 34.915.082 20.569.048c-1.62-2.813-3.423-5.242-5.434-7.235"/><path fill="#eba936" d="M536.999 434.986l8.117-14.199 10.092-17.65H523.9l-75.953 132.847h31.306l23.471-41.053 34.274-59.945m-38.91 100.998h47.133-47.133m47.133 0h55.758-55.758"/><path fill="#fab63c" d="M536.999 434.986l-34.274 59.945c3.788-.017 7.978.541 12.594 1.719 12.544 3.2 20.999 8.832 25.36 16.885 3.29 6.074 4.8 13.557 4.542 22.449h50.399c-.006-41.637-22.572-80.372-58.621-100.998m-26.103 98.261c-4.18-1.067-7.837-.59-10.972 1.425-.62.4-1.229.853-1.836 1.312h18.382c-1.545-1.265-3.399-2.183-5.574-2.737"/><path fill="#fab63c" d="M611.98 535.984h20.305c.04-54.814-29.599-105.739-77.077-132.848l-10.092 17.651c41.117 23.527 66.857 67.707 66.864 115.197"/><path fill="#d99422" d="M545.116 420.787l-8.117 14.2c36.049 20.625 58.615 59.36 58.621 100.997h16.36c-.007-47.49-25.747-91.67-66.864-115.197m-4.437 92.748c-4.361-8.053-12.816-13.685-25.36-16.885-4.616-1.178-8.806-1.736-12.594-1.719l-23.471 41.053h18.834a30.822 30.822 0 0 1 1.836-1.312c3.135-2.015 6.792-2.492 10.972-1.425 2.175.554 4.029 1.472 5.574 2.737h28.751c.258-8.892-1.252-16.375-4.542-22.449"/><path fill="#3c3c3d" d="M489.446 557.644c0 6.653-5.393 12.046-12.046 12.046-6.654 0-12.046-5.393-12.046-12.046s5.392-12.047 12.046-12.047c6.653 0 12.046 5.394 12.046 12.047"/><path fill="#f5f6f5" d="M482.631 557.644a5.232 5.232 0 1 1-10.464 0 5.232 5.232 0 0 1 10.464 0"/><path fill="#3c3c3d" d="M624.583 557.644c0 6.653-5.393 12.046-12.047 12.046-6.652 0-12.045-5.393-12.045-12.046s5.393-12.047 12.045-12.047c6.654 0 12.047 5.394 12.047 12.047"/><path fill="#f5f6f5" d="M617.769 557.644a5.232 5.232 0 1 1-10.465 0 5.232 5.232 0 0 1 10.465 0"/><path fill="#fbd6b1" d="M914.626 344.759s4.788-13.712-5.92-15.108c-10.706-1.394-7.11 12.771-7.11 12.771l13.03 2.337"/><path fill="#f8f8f8" d="M900.583 344.305l.177-3.449 14.445 3.094-.704 3.437-13.918-3.082"/><path fill="#3c3c3d" d="M838.875 399.309s66.194 19.457 77.139-52.799l-16.304-4.114s-3.49 57.128-61.32 36.331l.485 20.582"/><path fill="#7a7b7c" d="M912.135 354.285a1.54 1.54 0 0 0-1.417-1.653 1.54 1.54 0 0 0-.238 3.073 1.548 1.548 0 0 0 1.655-1.42m1.315-5.069a1.542 1.542 0 0 0-1.42-1.652 1.535 1.535 0 0 0-1.649 1.413 1.533 1.533 0 0 0 1.417 1.653 1.538 1.538 0 0 0 1.652-1.414"/><path fill="#f5f6f5" d="M632.285 543.706H442.009a3.86 3.86 0 1 1 0-7.722h190.276c5.893 0 10.688-4.794 10.688-10.689v-37.27a21.664 21.664 0 0 1 6.388-15.424l4.584-4.584a3.859 3.859 0 0 1 5.46 0 3.859 3.859 0 0 1 0 5.46l-4.584 4.584a14.003 14.003 0 0 0-4.126 9.964v37.27c0 10.151-8.259 18.411-18.41 18.411"/></svg>