<svg width="700" height="300" xmlns="http://www.w3.org/2000/svg"><title>background</title><path fill="none" d="M-1-1h702v302H-1z"/><title>Layer 1</title><path fill="#ffb2df" d="M691.808 288.531h.255v-7.606a6.04 6.04 0 0 1-6.072-6.074c0-3.337 2.737-5.987 6.072-5.987v-8.638c-3.335 0-6.072-2.733-6.072-6.071 0-3.334 2.737-6.066 6.072-6.066v-8.638c-3.335 0-6.072-2.653-6.072-5.987a6.04 6.04 0 0 1 6.072-6.075v-8.639c-3.335 0-6.072-2.731-6.072-6.069 0-3.333 2.737-6.067 6.072-6.067v-8.638c-3.335 0-6.072-2.653-6.072-5.987 0-3.335 2.737-6.074 6.072-6.074v-8.64c-3.335 0-6.072-2.734-6.072-6.069s2.737-6.068 6.072-6.068v-8.554c-3.335 0-6.072-2.736-6.072-6.071 0-3.334 2.737-6.074 6.072-6.074V135.8c-3.335 0-6.072-2.646-6.072-6.07 0-3.335 2.737-5.985 6.072-5.985v-8.638c-3.335 0-6.072-2.734-6.072-6.07 0-3.333 2.737-6.074 6.072-6.074V94.33c-3.335 0-6.072-2.651-6.072-5.985a6.042 6.042 0 0 1 6.072-6.076v-8.64c-3.335 0-6.072-2.731-6.072-6.066s2.737-6.074 6.072-6.074v-8.635c-3.335 0-6.072-2.65-6.072-5.987 0-3.334 2.737-6.074 6.072-6.074v-8.638c-3.335 0-6.072-2.733-6.072-6.067 0-3.338 2.737-6.076 6.072-6.076v-8.55c-3.335 0-6.072-2.733-6.072-6.07h-8.637c0 3.337-2.735 6.07-6.07 6.07-3.339 0-5.986-2.733-5.986-6.07h-8.64c0 3.337-2.734 6.07-6.07 6.07-3.334 0-6.073-2.733-6.073-6.07h-8.636a6.036 6.036 0 0 1-6.07 6.07c-3.338 0-5.986-2.733-5.986-6.07h-8.64c0 3.337-2.735 6.07-6.07 6.07-3.335 0-6.072-2.733-6.072-6.07h-8.64c0 3.337-2.647 6.07-5.986 6.07-3.334 0-6.067-2.733-6.067-6.07h-8.638c0 3.337-2.739 6.07-6.072 6.07-3.337 0-6.073-2.733-6.073-6.07h-8.552c0 3.337-2.733 6.07-6.072 6.07-3.335 0-6.07-2.733-6.07-6.07h-8.636c0 3.337-2.737 6.07-6.072 6.07s-5.987-2.733-5.987-6.07h-8.636c0 3.337-2.736 6.07-6.071 6.07-3.339 0-6.071-2.733-6.071-6.07h-8.64a6.036 6.036 0 0 1-6.072 6.07c-3.333 0-5.986-2.733-5.986-6.07h-8.634c0 3.337-2.738 6.07-6.072 6.07-3.339 0-6.073-2.733-6.073-6.07h-8.637c0 3.337-2.651 6.07-5.986 6.07s-6.073-2.733-6.073-6.07h-8.635c0 3.337-2.736 6.07-6.071 6.07-3.335 0-6.073-2.733-6.073-6.07h-8.553c0 3.337-2.735 6.07-6.07 6.07-3.337 0-6.072-2.733-6.072-6.07h-8.637c0 3.337-2.735 6.07-6.071 6.07-3.334 0-5.987-2.733-5.987-6.07h-8.637c0 3.337-2.738 6.07-6.073 6.07-3.335 0-6.071-2.733-6.071-6.07h-8.635c0 3.337-2.651 6.07-5.986 6.07a6.038 6.038 0 0 1-6.073-6.07h-8.637c0 3.337-2.738 6.07-6.073 6.07-3.335 0-6.071-2.733-6.071-6.07h-8.635c0 3.337-2.652 6.07-5.987 6.07-3.334 0-6.072-2.733-6.072-6.07h-8.638c0 3.337-2.737 6.07-6.072 6.07s-6.071-2.733-6.071-6.07h-8.55c0 3.337-2.737 6.07-6.072 6.07s-6.072-2.733-6.072-6.07h-8.637c0 3.337-2.738 6.07-6.073 6.07-3.335 0-5.987-2.733-5.987-6.07H221.3c0 3.337-2.737 6.07-6.072 6.07s-6.072-2.733-6.072-6.07h-8.639c0 3.337-2.65 6.07-5.986 6.07a6.037 6.037 0 0 1-6.071-6.07h-8.636c0 3.337-2.737 6.07-6.072 6.07-3.336 0-6.07-2.733-6.07-6.07h-8.64c0 3.337-2.65 6.07-5.986 6.07-3.335 0-6.072-2.733-6.072-6.07h-8.635c0 3.337-2.737 6.07-6.072 6.07s-6.072-2.733-6.072-6.07h-8.551c0 3.337-2.738 6.07-6.073 6.07-3.335 0-6.072-2.733-6.072-6.07h-8.635c0 3.337-2.737 6.07-6.072 6.07-3.336 0-5.986-2.733-5.986-6.07h-8.639c0 3.337-2.737 6.07-6.072 6.07-3.334 0-6.071-2.733-6.071-6.07h-8.635c0 3.337-2.652 6.07-5.987 6.07a6.038 6.038 0 0 1-6.072-6.07h-8.638c0 3.337-2.737 6.07-6.072 6.07s-6.071-2.733-6.071-6.07h-8.635c0 3.337-2.652 6.07-5.987 6.07v8.55c3.335 0 5.987 2.738 5.987 6.076 0 3.334-2.652 6.067-5.987 6.067v8.638c3.335 0 5.987 2.74 5.987 6.074a5.95 5.95 0 0 1-5.987 5.987v8.635c3.335 0 5.987 2.739 5.987 6.074s-2.652 6.066-5.987 6.066v8.64c3.335 0 5.987 2.653 5.987 6.076a5.95 5.95 0 0 1-5.987 5.985v8.633c3.335 0 5.987 2.741 5.987 6.075 0 3.335-2.652 6.069-5.987 6.069v8.638a5.949 5.949 0 0 1 5.987 5.985c0 3.424-2.652 6.07-5.987 6.07v8.638c3.335 0 5.987 2.74 5.987 6.074 0 3.335-2.652 6.07-5.987 6.07v8.555c3.335 0 5.987 2.733 5.987 6.068 0 3.335-2.652 6.069-5.987 6.069v8.64c3.335 0 5.987 2.739 5.987 6.074a5.951 5.951 0 0 1-5.987 5.987v8.638c3.335 0 5.987 2.734 5.987 6.067 0 3.338-2.652 6.069-5.987 6.069v8.639c3.335 0 5.987 2.65 5.987 6.075a5.951 5.951 0 0 1-5.987 5.987v8.638c3.335 0 5.987 2.732 5.987 6.066 0 3.338-2.652 6.071-5.987 6.071v8.638a5.95 5.95 0 0 1 5.987 5.987c0 3.424-2.652 6.074-5.987 6.074v7.606c2.993.09 5.474 2.483 5.815 5.474 0 .171.085.344.085.601h8.55c0-3.333 2.738-6.075 6.073-6.075 3.335 0 6.071 2.742 6.071 6.075h8.553c0-3.333 2.737-6.075 6.072-6.075s6.071 2.742 6.071 6.075h8.635c0-3.333 2.738-6.075 6.073-6.075 3.335 0 5.986 2.742 5.986 6.075h8.638c0-3.333 2.736-6.075 6.072-6.075 3.335 0 6.071 2.742 6.071 6.075h8.637c0-3.333 2.651-6.075 5.986-6.075 3.42 0 6.071 2.742 6.071 6.075h8.639c0-3.333 2.736-6.075 6.071-6.075 3.335 0 6.071 2.742 6.071 6.075h8.637c0-3.333 2.651-6.075 5.986-6.075s6.071 2.742 6.071 6.075h8.639c0-3.333 2.736-6.075 6.071-6.075 3.335 0 6.073 2.742 6.073 6.075h8.55c0-3.333 2.736-6.075 6.071-6.075 3.335 0 6.071 2.742 6.071 6.075h8.639c0-3.333 2.651-6.075 6.071-6.075 3.335 0 5.987 2.742 5.987 6.075h8.636c0-3.333 2.736-6.075 6.071-6.075 3.335 0 6.073 2.742 6.073 6.075h8.637c0-3.333 2.651-6.075 5.986-6.075 3.422 0 6.073 2.742 6.073 6.075h8.635c0-3.333 2.736-6.075 6.071-6.075 3.336 0 6.073 2.742 6.073 6.075h8.637c0-3.333 2.651-6.075 5.986-6.075s6.073 2.742 6.073 6.075h8.635c0-3.333 2.736-6.075 6.071-6.075 3.335 0 6.073 2.742 6.073 6.075h8.552c0-3.333 2.734-6.075 6.073-6.075 3.335 0 6.07 2.742 6.07 6.075h8.636c0-3.333 2.651-6.075 6.072-6.075 3.335 0 5.987 2.742 5.987 6.075h8.637c0-3.333 2.734-6.075 6.073-6.075 3.333 0 6.072 2.742 6.072 6.075h8.634c0-3.333 2.652-6.075 5.986-6.075 3.421 0 6.071 2.742 6.071 6.075h8.64c0-3.333 2.733-6.075 6.069-6.075 3.338 0 6.071 2.742 6.071 6.075h8.638c0-3.333 2.652-6.075 5.987-6.075s6.073 2.742 6.073 6.075h8.636c0-3.333 2.735-6.075 6.07-6.075 3.339 0 6.071 2.742 6.071 6.075h8.553c0-3.333 2.736-6.075 6.072-6.075 3.334 0 6.073 2.742 6.073 6.075h8.637c0-3.333 2.649-6.075 6.069-6.075 3.338 0 5.985 2.742 5.985 6.075h8.64c0-3.333 2.736-6.075 6.071-6.075 3.335 0 6.072 2.742 6.072 6.075h8.638c0-3.333 2.649-6.075 5.987-6.075 3.417 0 6.07 2.742 6.07 6.075h8.637c0-3.333 2.738-6.075 6.071-6.075 3.337 0 6.072 2.742 6.072 6.075h8.638c0-3.333 2.648-6.075 5.984-6.075 3.338 0 6.073 2.742 6.073 6.075h8.637c0-3.333 2.736-6.075 6.071-6.075 3.335 0 6.074 2.742 6.074 6.075h8.549c0-3.333 2.736-6.075 6.071-6.075 3.338 0 6.071 2.742 6.071 6.075h8.639a6.045 6.045 0 0 1 6.073-6.075c3.333 0 5.986 2.742 5.986 6.075h8.635c0-3.333 2.737-6.075 6.071-6.075 3.339 0 6.071 2.742 6.071 6.075h8.639c0-3.333 2.651-6.075 5.988-6.075"/><path fill="#838a8c" d="M526.589 15.31h-.683v-2.905h.683v2.905zm0 5.988h-.683v-2.994h.683v2.994zm0 5.897h-.683v-2.986h.683v2.986zm0 5.906h-.683v-2.995h.683v2.995zm0 5.895h-.683v-2.905h.683v2.905zm0 5.905h-.683V41.99h.683v2.911zm0 5.988h-.683v-2.993h.683v2.993zm0 5.899h-.683v-2.995h.683v2.995zm0 5.903h-.683v-2.995h.683v2.995zm0 5.897h-.683v-2.904h.683v2.904zm0 5.898h-.683v-2.903h.683v2.903zm0 5.988h-.683V77.48h.683v2.994zm0 5.904h-.683v-2.995h.683v2.995zm0 5.896h-.683V89.28h.683v2.993zm0 5.906h-.683v-2.911h.683v2.911zm0 5.898h-.683v-2.907h.683v2.907zm0 5.986h-.683v-2.995h.683v2.995zm0 5.897h-.683v-2.993h.683v2.993zm0 5.905h-.683v-2.911h.683v2.911zm0 5.898h-.683v-2.906h.683v2.906zm0 5.986h-.683v-2.994h.683v2.994zm0 5.905h-.683v-2.994h.683v2.994zm0 5.899h-.683v-2.995h.683v2.995zm0 5.896h-.683v-2.904h.683v2.904zm0 5.904h-.683v-2.911h.683v2.91zm0 5.987h-.683v-2.993h.683v2.993zm0 5.899h-.683v-2.995h.683v2.995zm0 5.901h-.683v-2.992h.683v2.992zm0 5.899h-.683v-2.904h.683v2.904zm0 5.906h-.683v-2.911h.683v2.911zm0 5.98h-.683v-2.995h.683v2.995zm0 5.903h-.683v-2.994h.683v2.994zm0 5.897h-.683v-2.992h.683v2.992zm0 5.907h-.683v-2.912h.683v2.912zm0 5.897h-.683v-2.906h.683v2.906zm0 5.985h-.683v-2.994h.683v2.994zm0 5.899h-.683v-2.988h.683v2.988zm0 5.905h-.683v-2.994h.683v2.994zm0 5.897h-.683v-2.903h.683v2.903zm0 5.904h-.683v-2.909h.683v2.909zm0 5.988h-.683v-2.995h.683v2.995zm0 5.897h-.683v-2.994h.683v2.994zm0 5.903h-.683v-2.91h.683v2.91zm0 5.898h-.683v-2.903h.683v2.903zm0 5.988h-.683v-2.995h.683v2.995zm0 5.899h-.683v-2.995h.683v2.995zm0 5.9h-.683v-2.99h.683v2.99"/><path fill="#5a6065" fill-rule="evenodd" d="M572.254 248.941h-5.898v-29.248h5.898v29.248zm2.565 0h-1.281v-29.248h1.28v29.248zm4.535 0h-1.284v-29.248h1.284v29.248zm-17.533 0h-.597v-29.248h.597v29.248zm26.684 0h-5.901v-29.248h5.901v29.248zm10.346 0h-3.847v-29.248h3.847v29.248zm10.433 0h-2.651v-29.248h2.65v29.248zm2.566 0h-1.285v-29.248h1.285v29.248zm-6.5 0h-1.967v-29.248h1.967v29.248zm-5.217 0h-.598v-29.248h.598v29.248zm2.652 0h-1.969v-29.248h1.969v29.248zm-9.749 0h-1.282v-29.248h1.282v29.248zm37.029 0h-1.285v-29.248h1.285v29.248zm5.814 0h-1.281v-29.248h1.28v29.248zm-55.158 0h-.683v-29.248h.683v29.248zm-16.932 0h-1.284v-29.248h1.284v29.248zm1.284 0h-.6v-29.248h.6v29.248zm12.4 0h-1.967v-29.248h1.967v29.248zm4.532 0h-.685v-29.248h.685v29.248zm37.625 0h-1.88v-29.248h1.88v29.248zm-4.531 0h-1.28v-29.248h1.28v29.248zm23.43 0h-.683v-29.248h.683v29.248zm-47.461 0h-1.282v-29.248h1.282v29.248zm36.347 0h-6.414v-29.248h6.414v29.248zm16.93 0h-5.217v-29.248h5.217v29.248zm11.03 0h-4.53v-29.248h4.53v29.248zm-21.462 0h-1.883v-29.248h1.883v29.248zm23.43 0h-.684v-29.248h.685v29.248zm-7.78 0h-1.968v-29.248h1.968v29.248zm14.28 0h-1.282v-29.248h1.282v29.248zm-2.652 0h-3.163v-29.248h3.163v29.248zm-14.28 0h-1.283v-29.248h1.283v29.248zm-85.943 8.639h-.94l-3.764-5.302v5.302h-.94v-6.759h1.027l3.763 5.387v-5.387h.854v6.759zm4.7-6.845c1.03 0 1.883.348 2.482.943.683.683.939 1.536.939 2.568 0 1.024-.256 1.88-.939 2.563-.599.602-1.452.942-2.481.942-1.025 0-1.793-.34-2.476-.942-.602-.683-.943-1.539-.943-2.563 0-1.032.341-1.885.943-2.568.683-.595 1.45-.943 2.476-.943zm0 6.245c.773 0 1.286-.26 1.798-.772.427-.425.684-1.108.684-1.962 0-.861-.257-1.545-.684-2.057-.512-.425-1.025-.684-1.797-.684a2.39 2.39 0 0 0-1.708.684c-.513.512-.683 1.196-.683 2.057 0 .854.17 1.537.683 1.962.427.512 1.024.772 1.708.772zm5.817.6h-1.025v-.942h1.025v.942zm6.329-6.845c1.54 0 2.31 1.2 2.31 3.511 0 2.302-.77 3.505-2.31 3.505-1.538 0-2.308-1.203-2.308-3.505 0-2.311.77-3.511 2.308-3.511zm0 6.329c.426 0 .767-.255 1.027-.598.257-.431.343-1.196.343-2.22 0-1.032-.086-1.798-.343-2.228-.26-.423-.601-.594-1.027-.594-.428 0-.77.171-1.025.594-.256.43-.343 1.196-.343 2.228 0 1.024.087 1.789.343 2.22.255.343.597.598 1.025.598zm5.557-6.329c1.539 0 2.312 1.2 2.312 3.511 0 2.302-.773 3.505-2.312 3.505-1.536 0-2.308-1.203-2.308-3.505 0-2.311.772-3.511 2.308-3.511zm0 6.329c.429 0 .77-.255 1.028-.598.256-.431.341-1.196.341-2.22 0-1.032-.085-1.798-.341-2.228-.258-.423-.599-.594-1.028-.594-.426 0-.767.171-1.023.594-.26.43-.343 1.196-.343 2.228 0 1.024.083 1.789.343 2.22.256.343.597.598 1.023.598zm5.562-6.329c1.537 0 2.305 1.2 2.305 3.511 0 2.302-.768 3.505-2.305 3.505-1.542 0-2.31-1.203-2.31-3.505 0-2.311.768-3.511 2.31-3.511zm0 6.329c.426 0 .767-.255 1.025-.598.256-.431.34-1.196.34-2.22 0-1.032-.084-1.798-.34-2.228-.258-.423-.6-.594-1.025-.594-.428 0-.773.171-1.03.594-.255.43-.34 1.196-.34 2.228 0 1.024.085 1.789.34 2.22.257.343.602.598 1.03.598zm5.556-6.329c1.539 0 2.309 1.2 2.309 3.511 0 2.302-.77 3.505-2.31 3.505-1.538 0-2.307-1.203-2.307-3.505 0-2.311.769-3.511 2.308-3.511zm0 6.329c.43 0 .771-.255 1.027-.598.257-.431.343-1.196.343-2.22 0-1.032-.086-1.798-.343-2.228-.256-.423-.597-.594-1.027-.594-.429 0-.769.171-1.026.594-.257.43-.342 1.196-.342 2.228 0 1.024.085 1.789.342 2.22.257.343.597.598 1.026.598zm5.559-6.329c1.54 0 2.395 1.2 2.395 3.511 0 2.302-.854 3.505-2.395 3.505-1.538 0-2.31-1.203-2.31-3.505 0-2.311.772-3.511 2.31-3.511zm0 6.329c.512 0 .855-.255 1.025-.598.258-.431.346-1.196.346-2.22 0-1.032-.088-1.798-.346-2.228-.17-.423-.513-.594-1.025-.594-.428 0-.77.171-1.025.594-.257.43-.343 1.196-.343 2.228 0 1.024.086 1.789.343 2.22.256.343.597.598 1.025.598zm5.558-6.329c1.624 0 2.395 1.2 2.395 3.511 0 2.302-.771 3.505-2.395 3.505-1.54 0-2.308-1.203-2.308-3.505 0-2.311.768-3.511 2.308-3.511zm0 6.329c.514 0 .855-.255 1.027-.598.256-.431.425-1.196.425-2.22 0-1.032-.17-1.798-.425-2.228-.172-.423-.513-.594-1.027-.594-.426 0-.768.171-1.023.594-.175.43-.345 1.196-.345 2.228 0 1.024.17 1.789.345 2.22.255.343.597.598 1.023.598zm5.56-6.329c1.623 0 2.393 1.2 2.393 3.511 0 2.302-.77 3.505-2.393 3.505-1.541 0-2.31-1.203-2.31-3.505 0-2.311.769-3.511 2.31-3.511zm0 6.329c.513 0 .854-.255 1.11-.598.172-.431.343-1.196.343-2.22 0-1.032-.171-1.798-.343-2.228-.256-.423-.597-.594-1.11-.594-.43 0-.772.171-1.028.594-.17.43-.342 1.196-.342 2.228 0 1.024.172 1.789.342 2.22.256.343.598.598 1.028.598zm5.642-6.329c1.54 0 2.31 1.2 2.31 3.511 0 2.302-.77 3.505-2.31 3.505-1.624 0-2.392-1.203-2.392-3.505 0-2.311.768-3.511 2.392-3.511zm0 6.329c.43 0 .772-.255 1.03-.598.168-.431.34-1.196.34-2.22 0-1.032-.172-1.798-.34-2.228-.258-.423-.6-.594-1.03-.594-.513 0-.853.171-1.025.594-.257.43-.428 1.196-.428 2.228 0 1.024.171 1.789.428 2.22.172.343.512.598 1.025.598zm5.56-6.329c1.54 0 2.308 1.2 2.308 3.511 0 2.302-.767 3.505-2.308 3.505-1.623 0-2.395-1.203-2.395-3.505 0-2.311.772-3.511 2.395-3.511zm0 6.329c.426 0 .768-.255 1.025-.598.17-.431.343-1.196.343-2.22 0-1.032-.172-1.798-.343-2.228-.257-.423-.6-.594-1.025-.594-.514 0-.855.171-1.025.594-.257.43-.342 1.196-.342 2.228 0 1.024.085 1.789.342 2.22.17.343.51.598 1.025.598zm5.558-6.329c1.538 0 2.31 1.2 2.31 3.511 0 2.302-.772 3.505-2.31 3.505-1.541 0-2.395-1.203-2.395-3.505 0-2.311.854-3.511 2.395-3.511zm0 6.329c.428 0 .769-.255 1.025-.598.258-.431.343-1.196.343-2.22 0-1.032-.085-1.798-.343-2.228-.256-.423-.597-.594-1.025-.594-.427 0-.768.171-1.025.594-.257.43-.345 1.196-.345 2.228 0 1.024.088 1.789.345 2.22.257.343.598.598 1.025.598zm5.56-6.329c1.538 0 2.307 1.2 2.307 3.511 0 2.302-.77 3.505-2.307 3.505-1.541 0-2.31-1.203-2.31-3.505 0-2.311.769-3.511 2.31-3.511zm0 6.329c.427 0 .768-.255 1.024-.598.256-.431.343-1.196.343-2.22 0-1.032-.087-1.798-.343-2.228-.256-.423-.597-.594-1.024-.594-.431 0-.771.171-1.028.594-.257.43-.342 1.196-.342 2.228 0 1.024.085 1.789.342 2.22.257.343.597.598 1.028.598zm5.557-6.329c1.54 0 2.308 1.2 2.308 3.511 0 2.302-.767 3.505-2.308 3.505-1.538 0-2.308-1.203-2.308-3.505 0-2.311.77-3.511 2.308-3.511zm0 6.329c.43 0 .772-.255 1.028-.598.257-.431.342-1.196.342-2.22 0-1.032-.085-1.798-.342-2.228-.256-.423-.598-.594-1.028-.594-.428 0-.77.171-1.027.594-.255.43-.341 1.196-.341 2.228 0 1.024.086 1.789.341 2.22.257.343.599.598 1.027.598zm5.558-6.329c1.542 0 2.31 1.2 2.31 3.511 0 2.302-.768 3.505-2.31 3.505-1.538 0-2.31-1.203-2.31-3.505 0-2.311.772-3.511 2.31-3.511zm0 6.329c.428 0 .77-.255 1.027-.598.255-.431.343-1.196.343-2.22 0-1.032-.088-1.798-.343-2.228-.257-.423-.6-.594-1.027-.594-.426 0-.768.171-1.025.594-.257.43-.341 1.196-.341 2.228 0 1.024.084 1.789.341 2.22.257.343.599.598 1.025.598zm5.56-6.329c1.538 0 2.394 1.2 2.394 3.511 0 2.302-.856 3.505-2.394 3.505-1.541 0-2.31-1.203-2.31-3.505 0-2.311.769-3.511 2.31-3.511zm0 6.329c.512 0 .855-.255 1.024-.598.258-.431.343-1.196.343-2.22 0-1.032-.085-1.798-.343-2.228-.169-.423-.512-.594-1.024-.594-.428 0-.77.171-1.025.594-.258.43-.345 1.196-.345 2.228 0 1.024.087 1.789.345 2.22.255.343.597.598 1.025.598zm5.558-6.329c1.625 0 2.394 1.2 2.394 3.511 0 2.302-.77 3.505-2.394 3.505-1.539 0-2.308-1.203-2.308-3.505 0-2.311.769-3.511 2.308-3.511zm0 6.329c.514 0 .856-.255 1.026-.598.256-.431.343-1.196.343-2.22 0-1.032-.087-1.798-.343-2.228-.17-.423-.512-.594-1.026-.594-.426 0-.771.171-1.028.594-.17.43-.342 1.196-.342 2.228 0 1.024.172 1.789.342 2.22.257.343.602.598 1.028.598zm5.557-6.329c1.627 0 2.397 1.2 2.397 3.511 0 2.302-.77 3.505-2.397 3.505-1.537 0-2.306-1.203-2.306-3.505 0-2.311.769-3.511 2.306-3.511zm0 6.329c.517 0 .858-.255 1.029-.598.256-.431.428-1.196.428-2.22 0-1.032-.172-1.798-.428-2.228-.171-.423-.512-.594-1.029-.594-.426 0-.768.171-1.025.594-.172.43-.341 1.196-.341 2.228 0 1.024.169 1.789.341 2.22.257.343.599.598 1.025.598zM560.54 248.94h-5.216v-29.248h5.216v29.248"/></svg>